M48
; DRILL file {KiCad (6.0.10-0)} date Friday, February 03, 2023 at 12:32:52 PM
; FORMAT={-:-/ absolute / inch / decimal}
; #@! TF.CreationDate,2023-02-03T12:32:52-07:00
; #@! TF.GenerationSoftware,Kicad,Pcbnew,(6.0.10-0)
; #@! TF.FileFunction,MixedPlating,1,2
FMAT,2
INCH
; #@! TA.AperFunction,Plated,PTH,ViaDrill
T1C0.0157
; #@! TA.AperFunction,Plated,PTH,ComponentDrill
T2C0.0394
%
G90
G05
T1
X4.025Y-3.32
X4.025Y-3.355
X4.26Y-3.18
X4.26Y-3.25
X4.31Y-3.18
X4.31Y-3.25
X4.35Y-3.33
X4.355Y-3.365
X4.3558Y-3.1681
X4.465Y-3.405
X4.47Y-3.14
X4.5649Y-3.0786
X4.735Y-3.25
X4.795Y-3.16
X4.855Y-3.255
X4.91Y-3.38
X5.14Y-3.11
X5.145Y-3.25
X5.26Y-3.255
X5.415Y-3.4
X5.42Y-3.22
X5.45Y-3.26
X5.47Y-3.095
X5.555Y-3.22
X5.585Y-3.45
X5.63Y-3.45
X5.655Y-3.085
X5.69Y-3.07
X5.695Y-3.16
X5.695Y-3.24
X5.745Y-3.16
X5.745Y-3.24
T2
X4.0998Y-3.9
X4.1Y-3.45
X4.1Y-3.6
X4.1Y-3.75
X4.1998Y-3.9
X4.2Y-3.45
X4.2Y-3.6
X4.2Y-3.75
X5.7998Y-3.9
X5.8Y-3.45
X5.8Y-3.6
X5.8Y-3.75
X5.8998Y-3.9
X5.9Y-3.45
X5.9Y-3.6
X5.9Y-3.75
T0
M30
