%TF.GenerationSoftware,KiCad,Pcbnew,(7.0.0-0)*%
%TF.CreationDate,2023-03-19T19:49:21-06:00*%
%TF.ProjectId,Breadboard Power Supply,42726561-6462-46f6-9172-6420506f7765,v2*%
%TF.SameCoordinates,Original*%
%TF.FileFunction,Legend,Bot*%
%TF.FilePolarity,Positive*%
%FSLAX46Y46*%
G04 Gerber Fmt 4.6, Leading zero omitted, Abs format (unit mm)*
G04 Created by KiCad (PCBNEW (7.0.0-0)) date 2023-03-19 19:49:21*
%MOMM*%
%LPD*%
G01*
G04 APERTURE LIST*
%ADD10C,0.300000*%
%ADD11C,0.100000*%
%ADD12C,0.120000*%
G04 APERTURE END LIST*
D10*
X111866571Y-76353071D02*
X111866571Y-74853071D01*
X111866571Y-74853071D02*
X111509428Y-74853071D01*
X111509428Y-74853071D02*
X111295142Y-74924500D01*
X111295142Y-74924500D02*
X111152285Y-75067357D01*
X111152285Y-75067357D02*
X111080856Y-75210214D01*
X111080856Y-75210214D02*
X111009428Y-75495928D01*
X111009428Y-75495928D02*
X111009428Y-75710214D01*
X111009428Y-75710214D02*
X111080856Y-75995928D01*
X111080856Y-75995928D02*
X111152285Y-76138785D01*
X111152285Y-76138785D02*
X111295142Y-76281642D01*
X111295142Y-76281642D02*
X111509428Y-76353071D01*
X111509428Y-76353071D02*
X111866571Y-76353071D01*
X109795142Y-76281642D02*
X109937999Y-76353071D01*
X109937999Y-76353071D02*
X110223714Y-76353071D01*
X110223714Y-76353071D02*
X110366571Y-76281642D01*
X110366571Y-76281642D02*
X110437999Y-76138785D01*
X110437999Y-76138785D02*
X110437999Y-75567357D01*
X110437999Y-75567357D02*
X110366571Y-75424500D01*
X110366571Y-75424500D02*
X110223714Y-75353071D01*
X110223714Y-75353071D02*
X109937999Y-75353071D01*
X109937999Y-75353071D02*
X109795142Y-75424500D01*
X109795142Y-75424500D02*
X109723714Y-75567357D01*
X109723714Y-75567357D02*
X109723714Y-75710214D01*
X109723714Y-75710214D02*
X110437999Y-75853071D01*
X109152285Y-76281642D02*
X109009428Y-76353071D01*
X109009428Y-76353071D02*
X108723714Y-76353071D01*
X108723714Y-76353071D02*
X108580857Y-76281642D01*
X108580857Y-76281642D02*
X108509428Y-76138785D01*
X108509428Y-76138785D02*
X108509428Y-76067357D01*
X108509428Y-76067357D02*
X108580857Y-75924500D01*
X108580857Y-75924500D02*
X108723714Y-75853071D01*
X108723714Y-75853071D02*
X108938000Y-75853071D01*
X108938000Y-75853071D02*
X109080857Y-75781642D01*
X109080857Y-75781642D02*
X109152285Y-75638785D01*
X109152285Y-75638785D02*
X109152285Y-75567357D01*
X109152285Y-75567357D02*
X109080857Y-75424500D01*
X109080857Y-75424500D02*
X108938000Y-75353071D01*
X108938000Y-75353071D02*
X108723714Y-75353071D01*
X108723714Y-75353071D02*
X108580857Y-75424500D01*
X107866571Y-76353071D02*
X107866571Y-75353071D01*
X107866571Y-74853071D02*
X107937999Y-74924500D01*
X107937999Y-74924500D02*
X107866571Y-74995928D01*
X107866571Y-74995928D02*
X107795142Y-74924500D01*
X107795142Y-74924500D02*
X107866571Y-74853071D01*
X107866571Y-74853071D02*
X107866571Y-74995928D01*
X106509428Y-75353071D02*
X106509428Y-76567357D01*
X106509428Y-76567357D02*
X106580856Y-76710214D01*
X106580856Y-76710214D02*
X106652285Y-76781642D01*
X106652285Y-76781642D02*
X106795142Y-76853071D01*
X106795142Y-76853071D02*
X107009428Y-76853071D01*
X107009428Y-76853071D02*
X107152285Y-76781642D01*
X106509428Y-76281642D02*
X106652285Y-76353071D01*
X106652285Y-76353071D02*
X106937999Y-76353071D01*
X106937999Y-76353071D02*
X107080856Y-76281642D01*
X107080856Y-76281642D02*
X107152285Y-76210214D01*
X107152285Y-76210214D02*
X107223713Y-76067357D01*
X107223713Y-76067357D02*
X107223713Y-75638785D01*
X107223713Y-75638785D02*
X107152285Y-75495928D01*
X107152285Y-75495928D02*
X107080856Y-75424500D01*
X107080856Y-75424500D02*
X106937999Y-75353071D01*
X106937999Y-75353071D02*
X106652285Y-75353071D01*
X106652285Y-75353071D02*
X106509428Y-75424500D01*
X105795142Y-75353071D02*
X105795142Y-76353071D01*
X105795142Y-75495928D02*
X105723713Y-75424500D01*
X105723713Y-75424500D02*
X105580856Y-75353071D01*
X105580856Y-75353071D02*
X105366570Y-75353071D01*
X105366570Y-75353071D02*
X105223713Y-75424500D01*
X105223713Y-75424500D02*
X105152285Y-75567357D01*
X105152285Y-75567357D02*
X105152285Y-76353071D01*
X103866570Y-76281642D02*
X104009427Y-76353071D01*
X104009427Y-76353071D02*
X104295142Y-76353071D01*
X104295142Y-76353071D02*
X104437999Y-76281642D01*
X104437999Y-76281642D02*
X104509427Y-76138785D01*
X104509427Y-76138785D02*
X104509427Y-75567357D01*
X104509427Y-75567357D02*
X104437999Y-75424500D01*
X104437999Y-75424500D02*
X104295142Y-75353071D01*
X104295142Y-75353071D02*
X104009427Y-75353071D01*
X104009427Y-75353071D02*
X103866570Y-75424500D01*
X103866570Y-75424500D02*
X103795142Y-75567357D01*
X103795142Y-75567357D02*
X103795142Y-75710214D01*
X103795142Y-75710214D02*
X104509427Y-75853071D01*
X102509428Y-76353071D02*
X102509428Y-74853071D01*
X102509428Y-76281642D02*
X102652285Y-76353071D01*
X102652285Y-76353071D02*
X102937999Y-76353071D01*
X102937999Y-76353071D02*
X103080856Y-76281642D01*
X103080856Y-76281642D02*
X103152285Y-76210214D01*
X103152285Y-76210214D02*
X103223713Y-76067357D01*
X103223713Y-76067357D02*
X103223713Y-75638785D01*
X103223713Y-75638785D02*
X103152285Y-75495928D01*
X103152285Y-75495928D02*
X103080856Y-75424500D01*
X103080856Y-75424500D02*
X102937999Y-75353071D01*
X102937999Y-75353071D02*
X102652285Y-75353071D01*
X102652285Y-75353071D02*
X102509428Y-75424500D01*
X108080857Y-78783071D02*
X108080857Y-77283071D01*
X108080857Y-77854500D02*
X107938000Y-77783071D01*
X107938000Y-77783071D02*
X107652285Y-77783071D01*
X107652285Y-77783071D02*
X107509428Y-77854500D01*
X107509428Y-77854500D02*
X107438000Y-77925928D01*
X107438000Y-77925928D02*
X107366571Y-78068785D01*
X107366571Y-78068785D02*
X107366571Y-78497357D01*
X107366571Y-78497357D02*
X107438000Y-78640214D01*
X107438000Y-78640214D02*
X107509428Y-78711642D01*
X107509428Y-78711642D02*
X107652285Y-78783071D01*
X107652285Y-78783071D02*
X107938000Y-78783071D01*
X107938000Y-78783071D02*
X108080857Y-78711642D01*
X106866571Y-77783071D02*
X106509428Y-78783071D01*
X106152285Y-77783071D02*
X106509428Y-78783071D01*
X106509428Y-78783071D02*
X106652285Y-79140214D01*
X106652285Y-79140214D02*
X106723714Y-79211642D01*
X106723714Y-79211642D02*
X106866571Y-79283071D01*
X112316570Y-79713071D02*
X111459428Y-79713071D01*
X111887999Y-81213071D02*
X111887999Y-79713071D01*
X110959428Y-81213071D02*
X110959428Y-80213071D01*
X110959428Y-79713071D02*
X111030856Y-79784500D01*
X111030856Y-79784500D02*
X110959428Y-79855928D01*
X110959428Y-79855928D02*
X110887999Y-79784500D01*
X110887999Y-79784500D02*
X110959428Y-79713071D01*
X110959428Y-79713071D02*
X110959428Y-79855928D01*
X110245142Y-81213071D02*
X110245142Y-80213071D01*
X110245142Y-80355928D02*
X110173713Y-80284500D01*
X110173713Y-80284500D02*
X110030856Y-80213071D01*
X110030856Y-80213071D02*
X109816570Y-80213071D01*
X109816570Y-80213071D02*
X109673713Y-80284500D01*
X109673713Y-80284500D02*
X109602285Y-80427357D01*
X109602285Y-80427357D02*
X109602285Y-81213071D01*
X109602285Y-80427357D02*
X109530856Y-80284500D01*
X109530856Y-80284500D02*
X109387999Y-80213071D01*
X109387999Y-80213071D02*
X109173713Y-80213071D01*
X109173713Y-80213071D02*
X109030856Y-80284500D01*
X109030856Y-80284500D02*
X108959427Y-80427357D01*
X108959427Y-80427357D02*
X108959427Y-81213071D01*
X107416570Y-81141642D02*
X107202285Y-81213071D01*
X107202285Y-81213071D02*
X106845142Y-81213071D01*
X106845142Y-81213071D02*
X106702285Y-81141642D01*
X106702285Y-81141642D02*
X106630856Y-81070214D01*
X106630856Y-81070214D02*
X106559427Y-80927357D01*
X106559427Y-80927357D02*
X106559427Y-80784500D01*
X106559427Y-80784500D02*
X106630856Y-80641642D01*
X106630856Y-80641642D02*
X106702285Y-80570214D01*
X106702285Y-80570214D02*
X106845142Y-80498785D01*
X106845142Y-80498785D02*
X107130856Y-80427357D01*
X107130856Y-80427357D02*
X107273713Y-80355928D01*
X107273713Y-80355928D02*
X107345142Y-80284500D01*
X107345142Y-80284500D02*
X107416570Y-80141642D01*
X107416570Y-80141642D02*
X107416570Y-79998785D01*
X107416570Y-79998785D02*
X107345142Y-79855928D01*
X107345142Y-79855928D02*
X107273713Y-79784500D01*
X107273713Y-79784500D02*
X107130856Y-79713071D01*
X107130856Y-79713071D02*
X106773713Y-79713071D01*
X106773713Y-79713071D02*
X106559427Y-79784500D01*
X106130856Y-80213071D02*
X105559428Y-80213071D01*
X105916571Y-79713071D02*
X105916571Y-80998785D01*
X105916571Y-80998785D02*
X105845142Y-81141642D01*
X105845142Y-81141642D02*
X105702285Y-81213071D01*
X105702285Y-81213071D02*
X105559428Y-81213071D01*
X105059428Y-81213071D02*
X105059428Y-80213071D01*
X105059428Y-79713071D02*
X105130856Y-79784500D01*
X105130856Y-79784500D02*
X105059428Y-79855928D01*
X105059428Y-79855928D02*
X104987999Y-79784500D01*
X104987999Y-79784500D02*
X105059428Y-79713071D01*
X105059428Y-79713071D02*
X105059428Y-79855928D01*
X104130856Y-81213071D02*
X104273713Y-81141642D01*
X104273713Y-81141642D02*
X104345142Y-80998785D01*
X104345142Y-80998785D02*
X104345142Y-79713071D01*
X103345142Y-81213071D02*
X103487999Y-81141642D01*
X103487999Y-81141642D02*
X103559428Y-80998785D01*
X103559428Y-80998785D02*
X103559428Y-79713071D01*
X102845142Y-81141642D02*
X102702285Y-81213071D01*
X102702285Y-81213071D02*
X102416571Y-81213071D01*
X102416571Y-81213071D02*
X102273714Y-81141642D01*
X102273714Y-81141642D02*
X102202285Y-80998785D01*
X102202285Y-80998785D02*
X102202285Y-80927357D01*
X102202285Y-80927357D02*
X102273714Y-80784500D01*
X102273714Y-80784500D02*
X102416571Y-80713071D01*
X102416571Y-80713071D02*
X102630857Y-80713071D01*
X102630857Y-80713071D02*
X102773714Y-80641642D01*
X102773714Y-80641642D02*
X102845142Y-80498785D01*
X102845142Y-80498785D02*
X102845142Y-80427357D01*
X102845142Y-80427357D02*
X102773714Y-80284500D01*
X102773714Y-80284500D02*
X102630857Y-80213071D01*
X102630857Y-80213071D02*
X102416571Y-80213071D01*
X102416571Y-80213071D02*
X102273714Y-80284500D01*
X154760714Y-75567357D02*
X154546428Y-75638785D01*
X154546428Y-75638785D02*
X154474999Y-75710214D01*
X154474999Y-75710214D02*
X154403571Y-75853071D01*
X154403571Y-75853071D02*
X154403571Y-76067357D01*
X154403571Y-76067357D02*
X154474999Y-76210214D01*
X154474999Y-76210214D02*
X154546428Y-76281642D01*
X154546428Y-76281642D02*
X154689285Y-76353071D01*
X154689285Y-76353071D02*
X155260714Y-76353071D01*
X155260714Y-76353071D02*
X155260714Y-74853071D01*
X155260714Y-74853071D02*
X154760714Y-74853071D01*
X154760714Y-74853071D02*
X154617857Y-74924500D01*
X154617857Y-74924500D02*
X154546428Y-74995928D01*
X154546428Y-74995928D02*
X154474999Y-75138785D01*
X154474999Y-75138785D02*
X154474999Y-75281642D01*
X154474999Y-75281642D02*
X154546428Y-75424500D01*
X154546428Y-75424500D02*
X154617857Y-75495928D01*
X154617857Y-75495928D02*
X154760714Y-75567357D01*
X154760714Y-75567357D02*
X155260714Y-75567357D01*
X153760714Y-76353071D02*
X153760714Y-75353071D01*
X153760714Y-75638785D02*
X153689285Y-75495928D01*
X153689285Y-75495928D02*
X153617857Y-75424500D01*
X153617857Y-75424500D02*
X153474999Y-75353071D01*
X153474999Y-75353071D02*
X153332142Y-75353071D01*
X152260714Y-76281642D02*
X152403571Y-76353071D01*
X152403571Y-76353071D02*
X152689286Y-76353071D01*
X152689286Y-76353071D02*
X152832143Y-76281642D01*
X152832143Y-76281642D02*
X152903571Y-76138785D01*
X152903571Y-76138785D02*
X152903571Y-75567357D01*
X152903571Y-75567357D02*
X152832143Y-75424500D01*
X152832143Y-75424500D02*
X152689286Y-75353071D01*
X152689286Y-75353071D02*
X152403571Y-75353071D01*
X152403571Y-75353071D02*
X152260714Y-75424500D01*
X152260714Y-75424500D02*
X152189286Y-75567357D01*
X152189286Y-75567357D02*
X152189286Y-75710214D01*
X152189286Y-75710214D02*
X152903571Y-75853071D01*
X150903572Y-76353071D02*
X150903572Y-75567357D01*
X150903572Y-75567357D02*
X150975000Y-75424500D01*
X150975000Y-75424500D02*
X151117857Y-75353071D01*
X151117857Y-75353071D02*
X151403572Y-75353071D01*
X151403572Y-75353071D02*
X151546429Y-75424500D01*
X150903572Y-76281642D02*
X151046429Y-76353071D01*
X151046429Y-76353071D02*
X151403572Y-76353071D01*
X151403572Y-76353071D02*
X151546429Y-76281642D01*
X151546429Y-76281642D02*
X151617857Y-76138785D01*
X151617857Y-76138785D02*
X151617857Y-75995928D01*
X151617857Y-75995928D02*
X151546429Y-75853071D01*
X151546429Y-75853071D02*
X151403572Y-75781642D01*
X151403572Y-75781642D02*
X151046429Y-75781642D01*
X151046429Y-75781642D02*
X150903572Y-75710214D01*
X149546429Y-76353071D02*
X149546429Y-74853071D01*
X149546429Y-76281642D02*
X149689286Y-76353071D01*
X149689286Y-76353071D02*
X149975000Y-76353071D01*
X149975000Y-76353071D02*
X150117857Y-76281642D01*
X150117857Y-76281642D02*
X150189286Y-76210214D01*
X150189286Y-76210214D02*
X150260714Y-76067357D01*
X150260714Y-76067357D02*
X150260714Y-75638785D01*
X150260714Y-75638785D02*
X150189286Y-75495928D01*
X150189286Y-75495928D02*
X150117857Y-75424500D01*
X150117857Y-75424500D02*
X149975000Y-75353071D01*
X149975000Y-75353071D02*
X149689286Y-75353071D01*
X149689286Y-75353071D02*
X149546429Y-75424500D01*
X148832143Y-76353071D02*
X148832143Y-74853071D01*
X148832143Y-75424500D02*
X148689286Y-75353071D01*
X148689286Y-75353071D02*
X148403571Y-75353071D01*
X148403571Y-75353071D02*
X148260714Y-75424500D01*
X148260714Y-75424500D02*
X148189286Y-75495928D01*
X148189286Y-75495928D02*
X148117857Y-75638785D01*
X148117857Y-75638785D02*
X148117857Y-76067357D01*
X148117857Y-76067357D02*
X148189286Y-76210214D01*
X148189286Y-76210214D02*
X148260714Y-76281642D01*
X148260714Y-76281642D02*
X148403571Y-76353071D01*
X148403571Y-76353071D02*
X148689286Y-76353071D01*
X148689286Y-76353071D02*
X148832143Y-76281642D01*
X147260714Y-76353071D02*
X147403571Y-76281642D01*
X147403571Y-76281642D02*
X147475000Y-76210214D01*
X147475000Y-76210214D02*
X147546428Y-76067357D01*
X147546428Y-76067357D02*
X147546428Y-75638785D01*
X147546428Y-75638785D02*
X147475000Y-75495928D01*
X147475000Y-75495928D02*
X147403571Y-75424500D01*
X147403571Y-75424500D02*
X147260714Y-75353071D01*
X147260714Y-75353071D02*
X147046428Y-75353071D01*
X147046428Y-75353071D02*
X146903571Y-75424500D01*
X146903571Y-75424500D02*
X146832143Y-75495928D01*
X146832143Y-75495928D02*
X146760714Y-75638785D01*
X146760714Y-75638785D02*
X146760714Y-76067357D01*
X146760714Y-76067357D02*
X146832143Y-76210214D01*
X146832143Y-76210214D02*
X146903571Y-76281642D01*
X146903571Y-76281642D02*
X147046428Y-76353071D01*
X147046428Y-76353071D02*
X147260714Y-76353071D01*
X145475000Y-76353071D02*
X145475000Y-75567357D01*
X145475000Y-75567357D02*
X145546428Y-75424500D01*
X145546428Y-75424500D02*
X145689285Y-75353071D01*
X145689285Y-75353071D02*
X145975000Y-75353071D01*
X145975000Y-75353071D02*
X146117857Y-75424500D01*
X145475000Y-76281642D02*
X145617857Y-76353071D01*
X145617857Y-76353071D02*
X145975000Y-76353071D01*
X145975000Y-76353071D02*
X146117857Y-76281642D01*
X146117857Y-76281642D02*
X146189285Y-76138785D01*
X146189285Y-76138785D02*
X146189285Y-75995928D01*
X146189285Y-75995928D02*
X146117857Y-75853071D01*
X146117857Y-75853071D02*
X145975000Y-75781642D01*
X145975000Y-75781642D02*
X145617857Y-75781642D01*
X145617857Y-75781642D02*
X145475000Y-75710214D01*
X144760714Y-76353071D02*
X144760714Y-75353071D01*
X144760714Y-75638785D02*
X144689285Y-75495928D01*
X144689285Y-75495928D02*
X144617857Y-75424500D01*
X144617857Y-75424500D02*
X144474999Y-75353071D01*
X144474999Y-75353071D02*
X144332142Y-75353071D01*
X143189286Y-76353071D02*
X143189286Y-74853071D01*
X143189286Y-76281642D02*
X143332143Y-76353071D01*
X143332143Y-76353071D02*
X143617857Y-76353071D01*
X143617857Y-76353071D02*
X143760714Y-76281642D01*
X143760714Y-76281642D02*
X143832143Y-76210214D01*
X143832143Y-76210214D02*
X143903571Y-76067357D01*
X143903571Y-76067357D02*
X143903571Y-75638785D01*
X143903571Y-75638785D02*
X143832143Y-75495928D01*
X143832143Y-75495928D02*
X143760714Y-75424500D01*
X143760714Y-75424500D02*
X143617857Y-75353071D01*
X143617857Y-75353071D02*
X143332143Y-75353071D01*
X143332143Y-75353071D02*
X143189286Y-75424500D01*
X152189285Y-78783071D02*
X152189285Y-77283071D01*
X152189285Y-77283071D02*
X151617856Y-77283071D01*
X151617856Y-77283071D02*
X151474999Y-77354500D01*
X151474999Y-77354500D02*
X151403570Y-77425928D01*
X151403570Y-77425928D02*
X151332142Y-77568785D01*
X151332142Y-77568785D02*
X151332142Y-77783071D01*
X151332142Y-77783071D02*
X151403570Y-77925928D01*
X151403570Y-77925928D02*
X151474999Y-77997357D01*
X151474999Y-77997357D02*
X151617856Y-78068785D01*
X151617856Y-78068785D02*
X152189285Y-78068785D01*
X150474999Y-78783071D02*
X150617856Y-78711642D01*
X150617856Y-78711642D02*
X150689285Y-78640214D01*
X150689285Y-78640214D02*
X150760713Y-78497357D01*
X150760713Y-78497357D02*
X150760713Y-78068785D01*
X150760713Y-78068785D02*
X150689285Y-77925928D01*
X150689285Y-77925928D02*
X150617856Y-77854500D01*
X150617856Y-77854500D02*
X150474999Y-77783071D01*
X150474999Y-77783071D02*
X150260713Y-77783071D01*
X150260713Y-77783071D02*
X150117856Y-77854500D01*
X150117856Y-77854500D02*
X150046428Y-77925928D01*
X150046428Y-77925928D02*
X149974999Y-78068785D01*
X149974999Y-78068785D02*
X149974999Y-78497357D01*
X149974999Y-78497357D02*
X150046428Y-78640214D01*
X150046428Y-78640214D02*
X150117856Y-78711642D01*
X150117856Y-78711642D02*
X150260713Y-78783071D01*
X150260713Y-78783071D02*
X150474999Y-78783071D01*
X149474999Y-77783071D02*
X149189285Y-78783071D01*
X149189285Y-78783071D02*
X148903570Y-78068785D01*
X148903570Y-78068785D02*
X148617856Y-78783071D01*
X148617856Y-78783071D02*
X148332142Y-77783071D01*
X147189284Y-78711642D02*
X147332141Y-78783071D01*
X147332141Y-78783071D02*
X147617856Y-78783071D01*
X147617856Y-78783071D02*
X147760713Y-78711642D01*
X147760713Y-78711642D02*
X147832141Y-78568785D01*
X147832141Y-78568785D02*
X147832141Y-77997357D01*
X147832141Y-77997357D02*
X147760713Y-77854500D01*
X147760713Y-77854500D02*
X147617856Y-77783071D01*
X147617856Y-77783071D02*
X147332141Y-77783071D01*
X147332141Y-77783071D02*
X147189284Y-77854500D01*
X147189284Y-77854500D02*
X147117856Y-77997357D01*
X147117856Y-77997357D02*
X147117856Y-78140214D01*
X147117856Y-78140214D02*
X147832141Y-78283071D01*
X146474999Y-78783071D02*
X146474999Y-77783071D01*
X146474999Y-78068785D02*
X146403570Y-77925928D01*
X146403570Y-77925928D02*
X146332142Y-77854500D01*
X146332142Y-77854500D02*
X146189284Y-77783071D01*
X146189284Y-77783071D02*
X146046427Y-77783071D01*
X152653570Y-81141642D02*
X152439285Y-81213071D01*
X152439285Y-81213071D02*
X152082142Y-81213071D01*
X152082142Y-81213071D02*
X151939285Y-81141642D01*
X151939285Y-81141642D02*
X151867856Y-81070214D01*
X151867856Y-81070214D02*
X151796427Y-80927357D01*
X151796427Y-80927357D02*
X151796427Y-80784500D01*
X151796427Y-80784500D02*
X151867856Y-80641642D01*
X151867856Y-80641642D02*
X151939285Y-80570214D01*
X151939285Y-80570214D02*
X152082142Y-80498785D01*
X152082142Y-80498785D02*
X152367856Y-80427357D01*
X152367856Y-80427357D02*
X152510713Y-80355928D01*
X152510713Y-80355928D02*
X152582142Y-80284500D01*
X152582142Y-80284500D02*
X152653570Y-80141642D01*
X152653570Y-80141642D02*
X152653570Y-79998785D01*
X152653570Y-79998785D02*
X152582142Y-79855928D01*
X152582142Y-79855928D02*
X152510713Y-79784500D01*
X152510713Y-79784500D02*
X152367856Y-79713071D01*
X152367856Y-79713071D02*
X152010713Y-79713071D01*
X152010713Y-79713071D02*
X151796427Y-79784500D01*
X150510714Y-80213071D02*
X150510714Y-81213071D01*
X151153571Y-80213071D02*
X151153571Y-80998785D01*
X151153571Y-80998785D02*
X151082142Y-81141642D01*
X151082142Y-81141642D02*
X150939285Y-81213071D01*
X150939285Y-81213071D02*
X150724999Y-81213071D01*
X150724999Y-81213071D02*
X150582142Y-81141642D01*
X150582142Y-81141642D02*
X150510714Y-81070214D01*
X149796428Y-80213071D02*
X149796428Y-81713071D01*
X149796428Y-80284500D02*
X149653571Y-80213071D01*
X149653571Y-80213071D02*
X149367856Y-80213071D01*
X149367856Y-80213071D02*
X149224999Y-80284500D01*
X149224999Y-80284500D02*
X149153571Y-80355928D01*
X149153571Y-80355928D02*
X149082142Y-80498785D01*
X149082142Y-80498785D02*
X149082142Y-80927357D01*
X149082142Y-80927357D02*
X149153571Y-81070214D01*
X149153571Y-81070214D02*
X149224999Y-81141642D01*
X149224999Y-81141642D02*
X149367856Y-81213071D01*
X149367856Y-81213071D02*
X149653571Y-81213071D01*
X149653571Y-81213071D02*
X149796428Y-81141642D01*
X148439285Y-80213071D02*
X148439285Y-81713071D01*
X148439285Y-80284500D02*
X148296428Y-80213071D01*
X148296428Y-80213071D02*
X148010713Y-80213071D01*
X148010713Y-80213071D02*
X147867856Y-80284500D01*
X147867856Y-80284500D02*
X147796428Y-80355928D01*
X147796428Y-80355928D02*
X147724999Y-80498785D01*
X147724999Y-80498785D02*
X147724999Y-80927357D01*
X147724999Y-80927357D02*
X147796428Y-81070214D01*
X147796428Y-81070214D02*
X147867856Y-81141642D01*
X147867856Y-81141642D02*
X148010713Y-81213071D01*
X148010713Y-81213071D02*
X148296428Y-81213071D01*
X148296428Y-81213071D02*
X148439285Y-81141642D01*
X146867856Y-81213071D02*
X147010713Y-81141642D01*
X147010713Y-81141642D02*
X147082142Y-80998785D01*
X147082142Y-80998785D02*
X147082142Y-79713071D01*
X146439285Y-80213071D02*
X146082142Y-81213071D01*
X145724999Y-80213071D02*
X146082142Y-81213071D01*
X146082142Y-81213071D02*
X146224999Y-81570214D01*
X146224999Y-81570214D02*
X146296428Y-81641642D01*
X146296428Y-81641642D02*
X146439285Y-81713071D01*
D11*
%TO.C,J10*%
X116217619Y-75947904D02*
X116217619Y-76519333D01*
X116217619Y-76519333D02*
X116255714Y-76633619D01*
X116255714Y-76633619D02*
X116331905Y-76709809D01*
X116331905Y-76709809D02*
X116446190Y-76747904D01*
X116446190Y-76747904D02*
X116522381Y-76747904D01*
X115417619Y-76747904D02*
X115874762Y-76747904D01*
X115646190Y-76747904D02*
X115646190Y-75947904D01*
X115646190Y-75947904D02*
X115722381Y-76062190D01*
X115722381Y-76062190D02*
X115798571Y-76138380D01*
X115798571Y-76138380D02*
X115874762Y-76176476D01*
X114922380Y-75947904D02*
X114846190Y-75947904D01*
X114846190Y-75947904D02*
X114769999Y-75986000D01*
X114769999Y-75986000D02*
X114731904Y-76024095D01*
X114731904Y-76024095D02*
X114693809Y-76100285D01*
X114693809Y-76100285D02*
X114655714Y-76252666D01*
X114655714Y-76252666D02*
X114655714Y-76443142D01*
X114655714Y-76443142D02*
X114693809Y-76595523D01*
X114693809Y-76595523D02*
X114731904Y-76671714D01*
X114731904Y-76671714D02*
X114769999Y-76709809D01*
X114769999Y-76709809D02*
X114846190Y-76747904D01*
X114846190Y-76747904D02*
X114922380Y-76747904D01*
X114922380Y-76747904D02*
X114998571Y-76709809D01*
X114998571Y-76709809D02*
X115036666Y-76671714D01*
X115036666Y-76671714D02*
X115074761Y-76595523D01*
X115074761Y-76595523D02*
X115112857Y-76443142D01*
X115112857Y-76443142D02*
X115112857Y-76252666D01*
X115112857Y-76252666D02*
X115074761Y-76100285D01*
X115074761Y-76100285D02*
X115036666Y-76024095D01*
X115036666Y-76024095D02*
X114998571Y-75986000D01*
X114998571Y-75986000D02*
X114922380Y-75947904D01*
%TO.C,J8*%
X155206666Y-93473904D02*
X155206666Y-94045333D01*
X155206666Y-94045333D02*
X155244761Y-94159619D01*
X155244761Y-94159619D02*
X155320952Y-94235809D01*
X155320952Y-94235809D02*
X155435237Y-94273904D01*
X155435237Y-94273904D02*
X155511428Y-94273904D01*
X154711428Y-93816761D02*
X154787618Y-93778666D01*
X154787618Y-93778666D02*
X154825713Y-93740571D01*
X154825713Y-93740571D02*
X154863809Y-93664380D01*
X154863809Y-93664380D02*
X154863809Y-93626285D01*
X154863809Y-93626285D02*
X154825713Y-93550095D01*
X154825713Y-93550095D02*
X154787618Y-93512000D01*
X154787618Y-93512000D02*
X154711428Y-93473904D01*
X154711428Y-93473904D02*
X154559047Y-93473904D01*
X154559047Y-93473904D02*
X154482856Y-93512000D01*
X154482856Y-93512000D02*
X154444761Y-93550095D01*
X154444761Y-93550095D02*
X154406666Y-93626285D01*
X154406666Y-93626285D02*
X154406666Y-93664380D01*
X154406666Y-93664380D02*
X154444761Y-93740571D01*
X154444761Y-93740571D02*
X154482856Y-93778666D01*
X154482856Y-93778666D02*
X154559047Y-93816761D01*
X154559047Y-93816761D02*
X154711428Y-93816761D01*
X154711428Y-93816761D02*
X154787618Y-93854857D01*
X154787618Y-93854857D02*
X154825713Y-93892952D01*
X154825713Y-93892952D02*
X154863809Y-93969142D01*
X154863809Y-93969142D02*
X154863809Y-94121523D01*
X154863809Y-94121523D02*
X154825713Y-94197714D01*
X154825713Y-94197714D02*
X154787618Y-94235809D01*
X154787618Y-94235809D02*
X154711428Y-94273904D01*
X154711428Y-94273904D02*
X154559047Y-94273904D01*
X154559047Y-94273904D02*
X154482856Y-94235809D01*
X154482856Y-94235809D02*
X154444761Y-94197714D01*
X154444761Y-94197714D02*
X154406666Y-94121523D01*
X154406666Y-94121523D02*
X154406666Y-93969142D01*
X154406666Y-93969142D02*
X154444761Y-93892952D01*
X154444761Y-93892952D02*
X154482856Y-93854857D01*
X154482856Y-93854857D02*
X154559047Y-93816761D01*
%TO.C,J11*%
X141744619Y-75947904D02*
X141744619Y-76519333D01*
X141744619Y-76519333D02*
X141782714Y-76633619D01*
X141782714Y-76633619D02*
X141858905Y-76709809D01*
X141858905Y-76709809D02*
X141973190Y-76747904D01*
X141973190Y-76747904D02*
X142049381Y-76747904D01*
X140944619Y-76747904D02*
X141401762Y-76747904D01*
X141173190Y-76747904D02*
X141173190Y-75947904D01*
X141173190Y-75947904D02*
X141249381Y-76062190D01*
X141249381Y-76062190D02*
X141325571Y-76138380D01*
X141325571Y-76138380D02*
X141401762Y-76176476D01*
X140182714Y-76747904D02*
X140639857Y-76747904D01*
X140411285Y-76747904D02*
X140411285Y-75947904D01*
X140411285Y-75947904D02*
X140487476Y-76062190D01*
X140487476Y-76062190D02*
X140563666Y-76138380D01*
X140563666Y-76138380D02*
X140639857Y-76176476D01*
%TO.C,J9*%
X101866666Y-93473904D02*
X101866666Y-94045333D01*
X101866666Y-94045333D02*
X101904761Y-94159619D01*
X101904761Y-94159619D02*
X101980952Y-94235809D01*
X101980952Y-94235809D02*
X102095237Y-94273904D01*
X102095237Y-94273904D02*
X102171428Y-94273904D01*
X101447618Y-94273904D02*
X101295237Y-94273904D01*
X101295237Y-94273904D02*
X101219047Y-94235809D01*
X101219047Y-94235809D02*
X101180951Y-94197714D01*
X101180951Y-94197714D02*
X101104761Y-94083428D01*
X101104761Y-94083428D02*
X101066666Y-93931047D01*
X101066666Y-93931047D02*
X101066666Y-93626285D01*
X101066666Y-93626285D02*
X101104761Y-93550095D01*
X101104761Y-93550095D02*
X101142856Y-93512000D01*
X101142856Y-93512000D02*
X101219047Y-93473904D01*
X101219047Y-93473904D02*
X101371428Y-93473904D01*
X101371428Y-93473904D02*
X101447618Y-93512000D01*
X101447618Y-93512000D02*
X101485713Y-93550095D01*
X101485713Y-93550095D02*
X101523809Y-93626285D01*
X101523809Y-93626285D02*
X101523809Y-93816761D01*
X101523809Y-93816761D02*
X101485713Y-93892952D01*
X101485713Y-93892952D02*
X101447618Y-93931047D01*
X101447618Y-93931047D02*
X101371428Y-93969142D01*
X101371428Y-93969142D02*
X101219047Y-93969142D01*
X101219047Y-93969142D02*
X101142856Y-93931047D01*
X101142856Y-93931047D02*
X101104761Y-93892952D01*
X101104761Y-93892952D02*
X101066666Y-93816761D01*
D12*
%TO.C,J10*%
X118170000Y-77410000D02*
X118170000Y-80070000D01*
X115570000Y-77410000D02*
X118170000Y-77410000D01*
X115570000Y-77410000D02*
X115570000Y-80070000D01*
X114300000Y-77410000D02*
X112970000Y-77410000D01*
X112970000Y-77410000D02*
X112970000Y-78740000D01*
X115570000Y-80070000D02*
X118170000Y-80070000D01*
%TO.C,J8*%
X153730000Y-92650000D02*
X153730000Y-95310000D01*
X151130000Y-92650000D02*
X153730000Y-92650000D01*
X151130000Y-92650000D02*
X151130000Y-95310000D01*
X149860000Y-92650000D02*
X148530000Y-92650000D01*
X148530000Y-92650000D02*
X148530000Y-93980000D01*
X151130000Y-95310000D02*
X153730000Y-95310000D01*
%TO.C,J11*%
X138370000Y-80070000D02*
X138370000Y-77410000D01*
X140970000Y-80070000D02*
X138370000Y-80070000D01*
X140970000Y-80070000D02*
X140970000Y-77410000D01*
X142240000Y-80070000D02*
X143570000Y-80070000D01*
X143570000Y-80070000D02*
X143570000Y-78740000D01*
X140970000Y-77410000D02*
X138370000Y-77410000D01*
%TO.C,J9*%
X108010000Y-92650000D02*
X108010000Y-95310000D01*
X105410000Y-92650000D02*
X108010000Y-92650000D01*
X105410000Y-92650000D02*
X105410000Y-95310000D01*
X104140000Y-92650000D02*
X102810000Y-92650000D01*
X102810000Y-92650000D02*
X102810000Y-93980000D01*
X105410000Y-95310000D02*
X108010000Y-95310000D01*
%TD*%
M02*
