%TF.GenerationSoftware,KiCad,Pcbnew,7.0.5-0*%
%TF.CreationDate,2023-06-14T11:28:47-06:00*%
%TF.ProjectId,Breadboard Power Supply,42726561-6462-46f6-9172-6420506f7765,v9*%
%TF.SameCoordinates,Original*%
%TF.FileFunction,Soldermask,Top*%
%TF.FilePolarity,Negative*%
%FSLAX46Y46*%
G04 Gerber Fmt 4.6, Leading zero omitted, Abs format (unit mm)*
G04 Created by KiCad (PCBNEW 7.0.5-0) date 2023-06-14 11:28:47*
%MOMM*%
%LPD*%
G01*
G04 APERTURE LIST*
G04 Aperture macros list*
%AMRoundRect*
0 Rectangle with rounded corners*
0 $1 Rounding radius*
0 $2 $3 $4 $5 $6 $7 $8 $9 X,Y pos of 4 corners*
0 Add a 4 corners polygon primitive as box body*
4,1,4,$2,$3,$4,$5,$6,$7,$8,$9,$2,$3,0*
0 Add four circle primitives for the rounded corners*
1,1,$1+$1,$2,$3*
1,1,$1+$1,$4,$5*
1,1,$1+$1,$6,$7*
1,1,$1+$1,$8,$9*
0 Add four rect primitives between the rounded corners*
20,1,$1+$1,$2,$3,$4,$5,0*
20,1,$1+$1,$4,$5,$6,$7,0*
20,1,$1+$1,$6,$7,$8,$9,0*
20,1,$1+$1,$8,$9,$2,$3,0*%
G04 Aperture macros list end*
%ADD10RoundRect,0.218750X0.218750X0.256250X-0.218750X0.256250X-0.218750X-0.256250X0.218750X-0.256250X0*%
%ADD11RoundRect,0.250000X0.475000X-0.250000X0.475000X0.250000X-0.475000X0.250000X-0.475000X-0.250000X0*%
%ADD12C,1.830000*%
%ADD13RoundRect,0.135000X-0.135000X-0.185000X0.135000X-0.185000X0.135000X0.185000X-0.135000X0.185000X0*%
%ADD14R,1.700000X1.700000*%
%ADD15O,1.700000X1.700000*%
%ADD16RoundRect,0.140000X-0.170000X0.140000X-0.170000X-0.140000X0.170000X-0.140000X0.170000X0.140000X0*%
%ADD17RoundRect,0.140000X0.170000X-0.140000X0.170000X0.140000X-0.170000X0.140000X-0.170000X-0.140000X0*%
%ADD18RoundRect,0.135000X-0.185000X0.135000X-0.185000X-0.135000X0.185000X-0.135000X0.185000X0.135000X0*%
%ADD19RoundRect,0.250000X-0.475000X0.250000X-0.475000X-0.250000X0.475000X-0.250000X0.475000X0.250000X0*%
%ADD20RoundRect,0.135000X0.185000X-0.135000X0.185000X0.135000X-0.185000X0.135000X-0.185000X-0.135000X0*%
%ADD21R,0.700000X1.200000*%
%ADD22R,0.760000X1.200000*%
%ADD23R,0.800000X1.200000*%
%ADD24C,1.450000*%
%ADD25R,2.000000X1.500000*%
%ADD26R,2.000000X3.800000*%
G04 APERTURE END LIST*
D10*
%TO.C,D3*%
X118262500Y-76073000D03*
X116687500Y-76073000D03*
%TD*%
D11*
%TO.C,C5*%
X144907000Y-78989000D03*
X144907000Y-77089000D03*
%TD*%
D12*
%TO.C,TP3*%
X135860000Y-83058000D03*
X140940000Y-83058000D03*
%TD*%
D13*
%TO.C,R3*%
X119505000Y-76073000D03*
X120525000Y-76073000D03*
%TD*%
D14*
%TO.C,J2*%
X152766000Y-84328000D03*
D15*
X152766000Y-86868000D03*
X150226000Y-84328000D03*
X150226000Y-86868000D03*
X147686000Y-84328000D03*
X147686000Y-86868000D03*
%TD*%
D16*
%TO.C,C8*%
X113157000Y-80927000D03*
X113157000Y-81887000D03*
%TD*%
D17*
%TO.C,C7*%
X143383000Y-78900000D03*
X143383000Y-77940000D03*
%TD*%
D12*
%TO.C,TP2*%
X120680000Y-83062000D03*
X115600000Y-83062000D03*
%TD*%
D18*
%TO.C,R2*%
X135255000Y-79119000D03*
X135255000Y-80139000D03*
%TD*%
D16*
%TO.C,C2*%
X113153000Y-77244000D03*
X113153000Y-78204000D03*
%TD*%
D19*
%TO.C,C4*%
X111633000Y-77028000D03*
X111633000Y-78928000D03*
%TD*%
D11*
%TO.C,C3*%
X144907000Y-82418000D03*
X144907000Y-80518000D03*
%TD*%
D17*
%TO.C,C1*%
X143383000Y-82329000D03*
X143383000Y-81369000D03*
%TD*%
D20*
%TO.C,R1*%
X135255000Y-78234000D03*
X135255000Y-77214000D03*
%TD*%
D21*
%TO.C,J1*%
X128772000Y-81858000D03*
D22*
X126752000Y-81858000D03*
D23*
X125522000Y-81858000D03*
D21*
X127772000Y-81858000D03*
D22*
X129792000Y-81858000D03*
D23*
X131022000Y-81858000D03*
D24*
X132592000Y-77978000D03*
X123952000Y-77978000D03*
X132592000Y-81778000D03*
X123952000Y-81778000D03*
%TD*%
D14*
%TO.C,J3*%
X108824000Y-84328000D03*
D15*
X108824000Y-86868000D03*
X106284000Y-84328000D03*
X106284000Y-86868000D03*
X103744000Y-84328000D03*
X103744000Y-86868000D03*
%TD*%
D25*
%TO.C,U2*%
X147472000Y-76567000D03*
X147472000Y-78867000D03*
D26*
X153772000Y-78867000D03*
D25*
X147472000Y-81167000D03*
%TD*%
D12*
%TO.C,TP1*%
X103729000Y-97026000D03*
X108809000Y-97026000D03*
%TD*%
%TO.C,TP4*%
X147671000Y-97026000D03*
X152751000Y-97026000D03*
%TD*%
D25*
%TO.C,U1*%
X109068000Y-81167000D03*
X109068000Y-78867000D03*
D26*
X102768000Y-78867000D03*
D25*
X109068000Y-76567000D03*
%TD*%
D19*
%TO.C,C6*%
X111633000Y-80457000D03*
X111633000Y-82357000D03*
%TD*%
D14*
%TO.C,J10*%
X116840000Y-78740000D03*
D15*
X119380000Y-78740000D03*
%TD*%
D14*
%TO.C,J8*%
X151765000Y-93980000D03*
D15*
X149225000Y-93980000D03*
%TD*%
D14*
%TO.C,J11*%
X139700000Y-78740000D03*
D15*
X137160000Y-78740000D03*
%TD*%
D14*
%TO.C,J9*%
X107315000Y-93980000D03*
D15*
X104775000Y-93980000D03*
%TD*%
M02*
