%TF.GenerationSoftware,KiCad,Pcbnew,8.0.9*%
%TF.CreationDate,2025-08-25T15:10:49-06:00*%
%TF.ProjectId,Breadboard Power Supply,42726561-6462-46f6-9172-6420506f7765,v1*%
%TF.SameCoordinates,Original*%
%TF.FileFunction,Legend,Top*%
%TF.FilePolarity,Positive*%
%FSLAX46Y46*%
G04 Gerber Fmt 4.6, Leading zero omitted, Abs format (unit mm)*
G04 Created by KiCad (PCBNEW 8.0.9) date 2025-08-25 15:10:49*
%MOMM*%
%LPD*%
G01*
G04 APERTURE LIST*
%ADD10C,0.150000*%
%ADD11C,0.250000*%
%ADD12C,0.120000*%
%ADD13C,0.200000*%
%ADD14C,0.152400*%
%ADD15C,0.127000*%
G04 APERTURE END LIST*
D10*
X138741207Y-79143295D02*
X138284064Y-79143295D01*
X138512636Y-79143295D02*
X138512636Y-78343295D01*
X138512636Y-78343295D02*
X138436445Y-78457580D01*
X138436445Y-78457580D02*
X138360255Y-78533771D01*
X138360255Y-78533771D02*
X138284064Y-78571866D01*
X139084065Y-79067104D02*
X139122160Y-79105200D01*
X139122160Y-79105200D02*
X139084065Y-79143295D01*
X139084065Y-79143295D02*
X139045969Y-79105200D01*
X139045969Y-79105200D02*
X139084065Y-79067104D01*
X139084065Y-79067104D02*
X139084065Y-79143295D01*
X139579302Y-78686152D02*
X139503112Y-78648057D01*
X139503112Y-78648057D02*
X139465017Y-78609961D01*
X139465017Y-78609961D02*
X139426921Y-78533771D01*
X139426921Y-78533771D02*
X139426921Y-78495676D01*
X139426921Y-78495676D02*
X139465017Y-78419485D01*
X139465017Y-78419485D02*
X139503112Y-78381390D01*
X139503112Y-78381390D02*
X139579302Y-78343295D01*
X139579302Y-78343295D02*
X139731683Y-78343295D01*
X139731683Y-78343295D02*
X139807874Y-78381390D01*
X139807874Y-78381390D02*
X139845969Y-78419485D01*
X139845969Y-78419485D02*
X139884064Y-78495676D01*
X139884064Y-78495676D02*
X139884064Y-78533771D01*
X139884064Y-78533771D02*
X139845969Y-78609961D01*
X139845969Y-78609961D02*
X139807874Y-78648057D01*
X139807874Y-78648057D02*
X139731683Y-78686152D01*
X139731683Y-78686152D02*
X139579302Y-78686152D01*
X139579302Y-78686152D02*
X139503112Y-78724247D01*
X139503112Y-78724247D02*
X139465017Y-78762342D01*
X139465017Y-78762342D02*
X139426921Y-78838533D01*
X139426921Y-78838533D02*
X139426921Y-78990914D01*
X139426921Y-78990914D02*
X139465017Y-79067104D01*
X139465017Y-79067104D02*
X139503112Y-79105200D01*
X139503112Y-79105200D02*
X139579302Y-79143295D01*
X139579302Y-79143295D02*
X139731683Y-79143295D01*
X139731683Y-79143295D02*
X139807874Y-79105200D01*
X139807874Y-79105200D02*
X139845969Y-79067104D01*
X139845969Y-79067104D02*
X139884064Y-78990914D01*
X139884064Y-78990914D02*
X139884064Y-78838533D01*
X139884064Y-78838533D02*
X139845969Y-78762342D01*
X139845969Y-78762342D02*
X139807874Y-78724247D01*
X139807874Y-78724247D02*
X139731683Y-78686152D01*
X140112636Y-78343295D02*
X140379303Y-79143295D01*
X140379303Y-79143295D02*
X140645969Y-78343295D01*
X138245969Y-80143295D02*
X138741207Y-80143295D01*
X138741207Y-80143295D02*
X138474541Y-80448057D01*
X138474541Y-80448057D02*
X138588826Y-80448057D01*
X138588826Y-80448057D02*
X138665017Y-80486152D01*
X138665017Y-80486152D02*
X138703112Y-80524247D01*
X138703112Y-80524247D02*
X138741207Y-80600438D01*
X138741207Y-80600438D02*
X138741207Y-80790914D01*
X138741207Y-80790914D02*
X138703112Y-80867104D01*
X138703112Y-80867104D02*
X138665017Y-80905200D01*
X138665017Y-80905200D02*
X138588826Y-80943295D01*
X138588826Y-80943295D02*
X138360255Y-80943295D01*
X138360255Y-80943295D02*
X138284064Y-80905200D01*
X138284064Y-80905200D02*
X138245969Y-80867104D01*
X139084065Y-80867104D02*
X139122160Y-80905200D01*
X139122160Y-80905200D02*
X139084065Y-80943295D01*
X139084065Y-80943295D02*
X139045969Y-80905200D01*
X139045969Y-80905200D02*
X139084065Y-80867104D01*
X139084065Y-80867104D02*
X139084065Y-80943295D01*
X139388826Y-80143295D02*
X139884064Y-80143295D01*
X139884064Y-80143295D02*
X139617398Y-80448057D01*
X139617398Y-80448057D02*
X139731683Y-80448057D01*
X139731683Y-80448057D02*
X139807874Y-80486152D01*
X139807874Y-80486152D02*
X139845969Y-80524247D01*
X139845969Y-80524247D02*
X139884064Y-80600438D01*
X139884064Y-80600438D02*
X139884064Y-80790914D01*
X139884064Y-80790914D02*
X139845969Y-80867104D01*
X139845969Y-80867104D02*
X139807874Y-80905200D01*
X139807874Y-80905200D02*
X139731683Y-80943295D01*
X139731683Y-80943295D02*
X139503112Y-80943295D01*
X139503112Y-80943295D02*
X139426921Y-80905200D01*
X139426921Y-80905200D02*
X139388826Y-80867104D01*
X140112636Y-80143295D02*
X140379303Y-80943295D01*
X140379303Y-80943295D02*
X140645969Y-80143295D01*
D11*
X146838336Y-88079619D02*
X146266908Y-88079619D01*
X146552622Y-88079619D02*
X146552622Y-87079619D01*
X146552622Y-87079619D02*
X146457384Y-87222476D01*
X146457384Y-87222476D02*
X146362146Y-87317714D01*
X146362146Y-87317714D02*
X146266908Y-87365333D01*
X147266908Y-87984380D02*
X147314527Y-88032000D01*
X147314527Y-88032000D02*
X147266908Y-88079619D01*
X147266908Y-88079619D02*
X147219289Y-88032000D01*
X147219289Y-88032000D02*
X147266908Y-87984380D01*
X147266908Y-87984380D02*
X147266908Y-88079619D01*
X147885955Y-87508190D02*
X147790717Y-87460571D01*
X147790717Y-87460571D02*
X147743098Y-87412952D01*
X147743098Y-87412952D02*
X147695479Y-87317714D01*
X147695479Y-87317714D02*
X147695479Y-87270095D01*
X147695479Y-87270095D02*
X147743098Y-87174857D01*
X147743098Y-87174857D02*
X147790717Y-87127238D01*
X147790717Y-87127238D02*
X147885955Y-87079619D01*
X147885955Y-87079619D02*
X148076431Y-87079619D01*
X148076431Y-87079619D02*
X148171669Y-87127238D01*
X148171669Y-87127238D02*
X148219288Y-87174857D01*
X148219288Y-87174857D02*
X148266907Y-87270095D01*
X148266907Y-87270095D02*
X148266907Y-87317714D01*
X148266907Y-87317714D02*
X148219288Y-87412952D01*
X148219288Y-87412952D02*
X148171669Y-87460571D01*
X148171669Y-87460571D02*
X148076431Y-87508190D01*
X148076431Y-87508190D02*
X147885955Y-87508190D01*
X147885955Y-87508190D02*
X147790717Y-87555809D01*
X147790717Y-87555809D02*
X147743098Y-87603428D01*
X147743098Y-87603428D02*
X147695479Y-87698666D01*
X147695479Y-87698666D02*
X147695479Y-87889142D01*
X147695479Y-87889142D02*
X147743098Y-87984380D01*
X147743098Y-87984380D02*
X147790717Y-88032000D01*
X147790717Y-88032000D02*
X147885955Y-88079619D01*
X147885955Y-88079619D02*
X148076431Y-88079619D01*
X148076431Y-88079619D02*
X148171669Y-88032000D01*
X148171669Y-88032000D02*
X148219288Y-87984380D01*
X148219288Y-87984380D02*
X148266907Y-87889142D01*
X148266907Y-87889142D02*
X148266907Y-87698666D01*
X148266907Y-87698666D02*
X148219288Y-87603428D01*
X148219288Y-87603428D02*
X148171669Y-87555809D01*
X148171669Y-87555809D02*
X148076431Y-87508190D01*
X148552622Y-87079619D02*
X148885955Y-88079619D01*
X148885955Y-88079619D02*
X149219288Y-87079619D01*
X151758048Y-100779666D02*
X152519953Y-100779666D01*
X152139000Y-101160619D02*
X152139000Y-100398714D01*
X146219289Y-89619619D02*
X146838336Y-89619619D01*
X146838336Y-89619619D02*
X146505003Y-90000571D01*
X146505003Y-90000571D02*
X146647860Y-90000571D01*
X146647860Y-90000571D02*
X146743098Y-90048190D01*
X146743098Y-90048190D02*
X146790717Y-90095809D01*
X146790717Y-90095809D02*
X146838336Y-90191047D01*
X146838336Y-90191047D02*
X146838336Y-90429142D01*
X146838336Y-90429142D02*
X146790717Y-90524380D01*
X146790717Y-90524380D02*
X146743098Y-90572000D01*
X146743098Y-90572000D02*
X146647860Y-90619619D01*
X146647860Y-90619619D02*
X146362146Y-90619619D01*
X146362146Y-90619619D02*
X146266908Y-90572000D01*
X146266908Y-90572000D02*
X146219289Y-90524380D01*
X147266908Y-90524380D02*
X147314527Y-90572000D01*
X147314527Y-90572000D02*
X147266908Y-90619619D01*
X147266908Y-90619619D02*
X147219289Y-90572000D01*
X147219289Y-90572000D02*
X147266908Y-90524380D01*
X147266908Y-90524380D02*
X147266908Y-90619619D01*
X147647860Y-89619619D02*
X148266907Y-89619619D01*
X148266907Y-89619619D02*
X147933574Y-90000571D01*
X147933574Y-90000571D02*
X148076431Y-90000571D01*
X148076431Y-90000571D02*
X148171669Y-90048190D01*
X148171669Y-90048190D02*
X148219288Y-90095809D01*
X148219288Y-90095809D02*
X148266907Y-90191047D01*
X148266907Y-90191047D02*
X148266907Y-90429142D01*
X148266907Y-90429142D02*
X148219288Y-90524380D01*
X148219288Y-90524380D02*
X148171669Y-90572000D01*
X148171669Y-90572000D02*
X148076431Y-90619619D01*
X148076431Y-90619619D02*
X147790717Y-90619619D01*
X147790717Y-90619619D02*
X147695479Y-90572000D01*
X147695479Y-90572000D02*
X147647860Y-90524380D01*
X148552622Y-89619619D02*
X148885955Y-90619619D01*
X148885955Y-90619619D02*
X149219288Y-89619619D01*
X107987377Y-88079619D02*
X107415949Y-88079619D01*
X107701663Y-88079619D02*
X107701663Y-87079619D01*
X107701663Y-87079619D02*
X107606425Y-87222476D01*
X107606425Y-87222476D02*
X107511187Y-87317714D01*
X107511187Y-87317714D02*
X107415949Y-87365333D01*
X108415949Y-87984380D02*
X108463568Y-88032000D01*
X108463568Y-88032000D02*
X108415949Y-88079619D01*
X108415949Y-88079619D02*
X108368330Y-88032000D01*
X108368330Y-88032000D02*
X108415949Y-87984380D01*
X108415949Y-87984380D02*
X108415949Y-88079619D01*
X109034996Y-87508190D02*
X108939758Y-87460571D01*
X108939758Y-87460571D02*
X108892139Y-87412952D01*
X108892139Y-87412952D02*
X108844520Y-87317714D01*
X108844520Y-87317714D02*
X108844520Y-87270095D01*
X108844520Y-87270095D02*
X108892139Y-87174857D01*
X108892139Y-87174857D02*
X108939758Y-87127238D01*
X108939758Y-87127238D02*
X109034996Y-87079619D01*
X109034996Y-87079619D02*
X109225472Y-87079619D01*
X109225472Y-87079619D02*
X109320710Y-87127238D01*
X109320710Y-87127238D02*
X109368329Y-87174857D01*
X109368329Y-87174857D02*
X109415948Y-87270095D01*
X109415948Y-87270095D02*
X109415948Y-87317714D01*
X109415948Y-87317714D02*
X109368329Y-87412952D01*
X109368329Y-87412952D02*
X109320710Y-87460571D01*
X109320710Y-87460571D02*
X109225472Y-87508190D01*
X109225472Y-87508190D02*
X109034996Y-87508190D01*
X109034996Y-87508190D02*
X108939758Y-87555809D01*
X108939758Y-87555809D02*
X108892139Y-87603428D01*
X108892139Y-87603428D02*
X108844520Y-87698666D01*
X108844520Y-87698666D02*
X108844520Y-87889142D01*
X108844520Y-87889142D02*
X108892139Y-87984380D01*
X108892139Y-87984380D02*
X108939758Y-88032000D01*
X108939758Y-88032000D02*
X109034996Y-88079619D01*
X109034996Y-88079619D02*
X109225472Y-88079619D01*
X109225472Y-88079619D02*
X109320710Y-88032000D01*
X109320710Y-88032000D02*
X109368329Y-87984380D01*
X109368329Y-87984380D02*
X109415948Y-87889142D01*
X109415948Y-87889142D02*
X109415948Y-87698666D01*
X109415948Y-87698666D02*
X109368329Y-87603428D01*
X109368329Y-87603428D02*
X109320710Y-87555809D01*
X109320710Y-87555809D02*
X109225472Y-87508190D01*
X109701663Y-87079619D02*
X110034996Y-88079619D01*
X110034996Y-88079619D02*
X110368329Y-87079619D01*
D10*
X138703112Y-81943295D02*
X138322160Y-81943295D01*
X138322160Y-81943295D02*
X138284064Y-82324247D01*
X138284064Y-82324247D02*
X138322160Y-82286152D01*
X138322160Y-82286152D02*
X138398350Y-82248057D01*
X138398350Y-82248057D02*
X138588826Y-82248057D01*
X138588826Y-82248057D02*
X138665017Y-82286152D01*
X138665017Y-82286152D02*
X138703112Y-82324247D01*
X138703112Y-82324247D02*
X138741207Y-82400438D01*
X138741207Y-82400438D02*
X138741207Y-82590914D01*
X138741207Y-82590914D02*
X138703112Y-82667104D01*
X138703112Y-82667104D02*
X138665017Y-82705200D01*
X138665017Y-82705200D02*
X138588826Y-82743295D01*
X138588826Y-82743295D02*
X138398350Y-82743295D01*
X138398350Y-82743295D02*
X138322160Y-82705200D01*
X138322160Y-82705200D02*
X138284064Y-82667104D01*
X138969779Y-81943295D02*
X139236446Y-82743295D01*
X139236446Y-82743295D02*
X139503112Y-81943295D01*
D11*
X107368330Y-89619619D02*
X107987377Y-89619619D01*
X107987377Y-89619619D02*
X107654044Y-90000571D01*
X107654044Y-90000571D02*
X107796901Y-90000571D01*
X107796901Y-90000571D02*
X107892139Y-90048190D01*
X107892139Y-90048190D02*
X107939758Y-90095809D01*
X107939758Y-90095809D02*
X107987377Y-90191047D01*
X107987377Y-90191047D02*
X107987377Y-90429142D01*
X107987377Y-90429142D02*
X107939758Y-90524380D01*
X107939758Y-90524380D02*
X107892139Y-90572000D01*
X107892139Y-90572000D02*
X107796901Y-90619619D01*
X107796901Y-90619619D02*
X107511187Y-90619619D01*
X107511187Y-90619619D02*
X107415949Y-90572000D01*
X107415949Y-90572000D02*
X107368330Y-90524380D01*
X108415949Y-90524380D02*
X108463568Y-90572000D01*
X108463568Y-90572000D02*
X108415949Y-90619619D01*
X108415949Y-90619619D02*
X108368330Y-90572000D01*
X108368330Y-90572000D02*
X108415949Y-90524380D01*
X108415949Y-90524380D02*
X108415949Y-90619619D01*
X108796901Y-89619619D02*
X109415948Y-89619619D01*
X109415948Y-89619619D02*
X109082615Y-90000571D01*
X109082615Y-90000571D02*
X109225472Y-90000571D01*
X109225472Y-90000571D02*
X109320710Y-90048190D01*
X109320710Y-90048190D02*
X109368329Y-90095809D01*
X109368329Y-90095809D02*
X109415948Y-90191047D01*
X109415948Y-90191047D02*
X109415948Y-90429142D01*
X109415948Y-90429142D02*
X109368329Y-90524380D01*
X109368329Y-90524380D02*
X109320710Y-90572000D01*
X109320710Y-90572000D02*
X109225472Y-90619619D01*
X109225472Y-90619619D02*
X108939758Y-90619619D01*
X108939758Y-90619619D02*
X108844520Y-90572000D01*
X108844520Y-90572000D02*
X108796901Y-90524380D01*
X109701663Y-89619619D02*
X110034996Y-90619619D01*
X110034996Y-90619619D02*
X110368329Y-89619619D01*
X149169048Y-100779666D02*
X149930953Y-100779666D01*
X107939758Y-92159619D02*
X107463568Y-92159619D01*
X107463568Y-92159619D02*
X107415949Y-92635809D01*
X107415949Y-92635809D02*
X107463568Y-92588190D01*
X107463568Y-92588190D02*
X107558806Y-92540571D01*
X107558806Y-92540571D02*
X107796901Y-92540571D01*
X107796901Y-92540571D02*
X107892139Y-92588190D01*
X107892139Y-92588190D02*
X107939758Y-92635809D01*
X107939758Y-92635809D02*
X107987377Y-92731047D01*
X107987377Y-92731047D02*
X107987377Y-92969142D01*
X107987377Y-92969142D02*
X107939758Y-93064380D01*
X107939758Y-93064380D02*
X107892139Y-93112000D01*
X107892139Y-93112000D02*
X107796901Y-93159619D01*
X107796901Y-93159619D02*
X107558806Y-93159619D01*
X107558806Y-93159619D02*
X107463568Y-93112000D01*
X107463568Y-93112000D02*
X107415949Y-93064380D01*
X108273092Y-92159619D02*
X108606425Y-93159619D01*
X108606425Y-93159619D02*
X108939758Y-92159619D01*
X147314526Y-95699619D02*
X146743098Y-95699619D01*
X147028812Y-95699619D02*
X147028812Y-94699619D01*
X147028812Y-94699619D02*
X146933574Y-94842476D01*
X146933574Y-94842476D02*
X146838336Y-94937714D01*
X146838336Y-94937714D02*
X146743098Y-94985333D01*
X147695479Y-94794857D02*
X147743098Y-94747238D01*
X147743098Y-94747238D02*
X147838336Y-94699619D01*
X147838336Y-94699619D02*
X148076431Y-94699619D01*
X148076431Y-94699619D02*
X148171669Y-94747238D01*
X148171669Y-94747238D02*
X148219288Y-94794857D01*
X148219288Y-94794857D02*
X148266907Y-94890095D01*
X148266907Y-94890095D02*
X148266907Y-94985333D01*
X148266907Y-94985333D02*
X148219288Y-95128190D01*
X148219288Y-95128190D02*
X147647860Y-95699619D01*
X147647860Y-95699619D02*
X148266907Y-95699619D01*
X148552622Y-94699619D02*
X148885955Y-95699619D01*
X148885955Y-95699619D02*
X149219288Y-94699619D01*
X106669048Y-100779666D02*
X107430953Y-100779666D01*
X107050000Y-101160619D02*
X107050000Y-100398714D01*
X107987377Y-95699619D02*
X107415949Y-95699619D01*
X107701663Y-95699619D02*
X107701663Y-94699619D01*
X107701663Y-94699619D02*
X107606425Y-94842476D01*
X107606425Y-94842476D02*
X107511187Y-94937714D01*
X107511187Y-94937714D02*
X107415949Y-94985333D01*
X108368330Y-94794857D02*
X108415949Y-94747238D01*
X108415949Y-94747238D02*
X108511187Y-94699619D01*
X108511187Y-94699619D02*
X108749282Y-94699619D01*
X108749282Y-94699619D02*
X108844520Y-94747238D01*
X108844520Y-94747238D02*
X108892139Y-94794857D01*
X108892139Y-94794857D02*
X108939758Y-94890095D01*
X108939758Y-94890095D02*
X108939758Y-94985333D01*
X108939758Y-94985333D02*
X108892139Y-95128190D01*
X108892139Y-95128190D02*
X108320711Y-95699619D01*
X108320711Y-95699619D02*
X108939758Y-95699619D01*
X109225473Y-94699619D02*
X109558806Y-95699619D01*
X109558806Y-95699619D02*
X109892139Y-94699619D01*
X148219288Y-92159619D02*
X147743098Y-92159619D01*
X147743098Y-92159619D02*
X147695479Y-92635809D01*
X147695479Y-92635809D02*
X147743098Y-92588190D01*
X147743098Y-92588190D02*
X147838336Y-92540571D01*
X147838336Y-92540571D02*
X148076431Y-92540571D01*
X148076431Y-92540571D02*
X148171669Y-92588190D01*
X148171669Y-92588190D02*
X148219288Y-92635809D01*
X148219288Y-92635809D02*
X148266907Y-92731047D01*
X148266907Y-92731047D02*
X148266907Y-92969142D01*
X148266907Y-92969142D02*
X148219288Y-93064380D01*
X148219288Y-93064380D02*
X148171669Y-93112000D01*
X148171669Y-93112000D02*
X148076431Y-93159619D01*
X148076431Y-93159619D02*
X147838336Y-93159619D01*
X147838336Y-93159619D02*
X147743098Y-93112000D01*
X147743098Y-93112000D02*
X147695479Y-93064380D01*
X148552622Y-92159619D02*
X148885955Y-93159619D01*
X148885955Y-93159619D02*
X149219288Y-92159619D01*
X104019048Y-100779666D02*
X104780953Y-100779666D01*
D10*
X138741207Y-84343295D02*
X138284064Y-84343295D01*
X138512636Y-84343295D02*
X138512636Y-83543295D01*
X138512636Y-83543295D02*
X138436445Y-83657580D01*
X138436445Y-83657580D02*
X138360255Y-83733771D01*
X138360255Y-83733771D02*
X138284064Y-83771866D01*
X139045969Y-83619485D02*
X139084065Y-83581390D01*
X139084065Y-83581390D02*
X139160255Y-83543295D01*
X139160255Y-83543295D02*
X139350731Y-83543295D01*
X139350731Y-83543295D02*
X139426922Y-83581390D01*
X139426922Y-83581390D02*
X139465017Y-83619485D01*
X139465017Y-83619485D02*
X139503112Y-83695676D01*
X139503112Y-83695676D02*
X139503112Y-83771866D01*
X139503112Y-83771866D02*
X139465017Y-83886152D01*
X139465017Y-83886152D02*
X139007874Y-84343295D01*
X139007874Y-84343295D02*
X139503112Y-84343295D01*
X139731684Y-83543295D02*
X139998351Y-84343295D01*
X139998351Y-84343295D02*
X140265017Y-83543295D01*
X138207874Y-76743295D02*
X138474541Y-77543295D01*
X138474541Y-77543295D02*
X138741207Y-76743295D01*
X138969778Y-77505200D02*
X139084064Y-77543295D01*
X139084064Y-77543295D02*
X139274540Y-77543295D01*
X139274540Y-77543295D02*
X139350731Y-77505200D01*
X139350731Y-77505200D02*
X139388826Y-77467104D01*
X139388826Y-77467104D02*
X139426921Y-77390914D01*
X139426921Y-77390914D02*
X139426921Y-77314723D01*
X139426921Y-77314723D02*
X139388826Y-77238533D01*
X139388826Y-77238533D02*
X139350731Y-77200438D01*
X139350731Y-77200438D02*
X139274540Y-77162342D01*
X139274540Y-77162342D02*
X139122159Y-77124247D01*
X139122159Y-77124247D02*
X139045969Y-77086152D01*
X139045969Y-77086152D02*
X139007874Y-77048057D01*
X139007874Y-77048057D02*
X138969778Y-76971866D01*
X138969778Y-76971866D02*
X138969778Y-76895676D01*
X138969778Y-76895676D02*
X139007874Y-76819485D01*
X139007874Y-76819485D02*
X139045969Y-76781390D01*
X139045969Y-76781390D02*
X139122159Y-76743295D01*
X139122159Y-76743295D02*
X139312636Y-76743295D01*
X139312636Y-76743295D02*
X139426921Y-76781390D01*
X139922160Y-77162342D02*
X139922160Y-77543295D01*
X139655493Y-76743295D02*
X139922160Y-77162342D01*
X139922160Y-77162342D02*
X140188826Y-76743295D01*
X140417397Y-77505200D02*
X140531683Y-77543295D01*
X140531683Y-77543295D02*
X140722159Y-77543295D01*
X140722159Y-77543295D02*
X140798350Y-77505200D01*
X140798350Y-77505200D02*
X140836445Y-77467104D01*
X140836445Y-77467104D02*
X140874540Y-77390914D01*
X140874540Y-77390914D02*
X140874540Y-77314723D01*
X140874540Y-77314723D02*
X140836445Y-77238533D01*
X140836445Y-77238533D02*
X140798350Y-77200438D01*
X140798350Y-77200438D02*
X140722159Y-77162342D01*
X140722159Y-77162342D02*
X140569778Y-77124247D01*
X140569778Y-77124247D02*
X140493588Y-77086152D01*
X140493588Y-77086152D02*
X140455493Y-77048057D01*
X140455493Y-77048057D02*
X140417397Y-76971866D01*
X140417397Y-76971866D02*
X140417397Y-76895676D01*
X140417397Y-76895676D02*
X140455493Y-76819485D01*
X140455493Y-76819485D02*
X140493588Y-76781390D01*
X140493588Y-76781390D02*
X140569778Y-76743295D01*
X140569778Y-76743295D02*
X140760255Y-76743295D01*
X140760255Y-76743295D02*
X140874540Y-76781390D01*
D12*
%TO.C,J4*%
X149800000Y-86300000D02*
X151130000Y-86300000D01*
X149800000Y-87630000D02*
X149800000Y-86300000D01*
X149800000Y-88900000D02*
X149800000Y-96580000D01*
X149800000Y-88900000D02*
X152400000Y-88900000D01*
X149800000Y-96580000D02*
X155000000Y-96580000D01*
X152400000Y-86300000D02*
X155000000Y-86300000D01*
X152400000Y-88900000D02*
X152400000Y-86300000D01*
X155000000Y-86300000D02*
X155000000Y-96580000D01*
%TO.C,R4*%
X111507000Y-78461359D02*
X111507000Y-78768641D01*
X112267000Y-78461359D02*
X112267000Y-78768641D01*
%TO.C,C5*%
X148571748Y-82958000D02*
X149094252Y-82958000D01*
X148571748Y-84428000D02*
X149094252Y-84428000D01*
%TO.C,D5*%
X135433000Y-81284000D02*
X137718000Y-81284000D01*
X137718000Y-79814000D02*
X135433000Y-79814000D01*
X137718000Y-81284000D02*
X137718000Y-79814000D01*
%TO.C,L2*%
X119860122Y-77799000D02*
X119060878Y-77799000D01*
X119860122Y-78919000D02*
X119060878Y-78919000D01*
%TO.C,D3*%
X135433000Y-83034000D02*
X137718000Y-83034000D01*
X137718000Y-81564000D02*
X135433000Y-81564000D01*
X137718000Y-83034000D02*
X137718000Y-81564000D01*
%TO.C,C8*%
X101773000Y-83839164D02*
X101773000Y-84054836D01*
X102493000Y-83839164D02*
X102493000Y-84054836D01*
%TO.C,C7*%
X145933000Y-83613164D02*
X145933000Y-83828836D01*
X146653000Y-83613164D02*
X146653000Y-83828836D01*
%TO.C,C2*%
X113606252Y-82958000D02*
X113083748Y-82958000D01*
X113606252Y-84428000D02*
X113083748Y-84428000D01*
%TO.C,R2*%
X129255359Y-84001000D02*
X129562641Y-84001000D01*
X129255359Y-84761000D02*
X129562641Y-84761000D01*
%TO.C,D4*%
X135420500Y-79516000D02*
X137705500Y-79516000D01*
X137705500Y-78046000D02*
X135420500Y-78046000D01*
X137705500Y-79516000D02*
X137705500Y-78046000D01*
%TO.C,R12*%
X116253000Y-80485359D02*
X116253000Y-80792641D01*
X117013000Y-80485359D02*
X117013000Y-80792641D01*
%TO.C,C4*%
X113657748Y-75592000D02*
X114180252Y-75592000D01*
X113657748Y-77062000D02*
X114180252Y-77062000D01*
D13*
%TO.C,D1*%
X121793000Y-79745000D02*
X117348000Y-79745000D01*
X121793000Y-81545000D02*
X119507000Y-81545000D01*
X121793000Y-81545000D02*
X121793000Y-79745000D01*
D12*
%TO.C,R8*%
X144536641Y-75451000D02*
X144229359Y-75451000D01*
X144536641Y-76211000D02*
X144229359Y-76211000D01*
%TO.C,R7*%
X142536641Y-75451000D02*
X142229359Y-75451000D01*
X142536641Y-76211000D02*
X142229359Y-76211000D01*
%TO.C,C3*%
X152199748Y-82958000D02*
X152722252Y-82958000D01*
X152199748Y-84428000D02*
X152722252Y-84428000D01*
D14*
%TO.C,U4*%
X118905100Y-85519300D02*
X120860900Y-85519300D01*
X120860900Y-82242700D02*
X118905100Y-82242700D01*
X120860900Y-84297560D02*
X120860900Y-83464440D01*
D12*
%TO.C,J5*%
X101540000Y-86300000D02*
X102870000Y-86300000D01*
X101540000Y-87630000D02*
X101540000Y-86300000D01*
X101540000Y-88900000D02*
X101540000Y-96580000D01*
X101540000Y-88900000D02*
X104140000Y-88900000D01*
X101540000Y-96580000D02*
X106740000Y-96580000D01*
X104140000Y-86300000D02*
X106740000Y-86300000D01*
X104140000Y-88900000D02*
X104140000Y-86300000D01*
X106740000Y-86300000D02*
X106740000Y-96580000D01*
%TO.C,R9*%
X116253000Y-82775359D02*
X116253000Y-83082641D01*
X117013000Y-82775359D02*
X117013000Y-83082641D01*
%TO.C,R1*%
X127276641Y-84001000D02*
X126969359Y-84001000D01*
X127276641Y-84761000D02*
X126969359Y-84761000D01*
D14*
%TO.C,F1*%
X108203597Y-85109700D02*
X109562403Y-85109700D01*
X109562403Y-83052300D02*
X108203597Y-83052300D01*
D12*
%TO.C,R13*%
X116360641Y-84329000D02*
X116053359Y-84329000D01*
X116360641Y-85089000D02*
X116053359Y-85089000D01*
D13*
%TO.C,J1*%
X123802000Y-75374000D02*
X123802000Y-76424000D01*
X123802000Y-80224000D02*
X123802000Y-79424000D01*
X132742000Y-75374000D02*
X123802000Y-75374000D01*
X132742000Y-76424000D02*
X132742000Y-75374000D01*
X132742000Y-80224000D02*
X132742000Y-79424000D01*
D12*
%TO.C,R6*%
X111507000Y-81251359D02*
X111507000Y-81558641D01*
X112267000Y-81251359D02*
X112267000Y-81558641D01*
%TO.C,D6*%
X135445500Y-84716000D02*
X137730500Y-84716000D01*
X137730500Y-83246000D02*
X135445500Y-83246000D01*
X137730500Y-84716000D02*
X137730500Y-83246000D01*
%TO.C,R5*%
X144453000Y-77484641D02*
X144453000Y-77177359D01*
X145213000Y-77484641D02*
X145213000Y-77177359D01*
%TO.C,U2*%
X147923000Y-75457000D02*
X151683000Y-75457000D01*
X147923000Y-82277000D02*
X151683000Y-82277000D01*
X151683000Y-75457000D02*
X151683000Y-76717000D01*
X151683000Y-82277000D02*
X151683000Y-81017000D01*
D15*
%TO.C,TP1*%
X104999000Y-103148000D02*
X107599000Y-103148000D01*
X107599000Y-102128000D02*
X104999000Y-102128000D01*
%TO.C,TP4*%
X148941000Y-103148000D02*
X151541000Y-103148000D01*
X151541000Y-102128000D02*
X148941000Y-102128000D01*
D12*
%TO.C,C10*%
X119768252Y-75338000D02*
X119245748Y-75338000D01*
X119768252Y-76808000D02*
X119245748Y-76808000D01*
%TO.C,C6*%
X104203748Y-83212000D02*
X104726252Y-83212000D01*
X104203748Y-84682000D02*
X104726252Y-84682000D01*
%TO.C,D2*%
X135433000Y-77784000D02*
X137718000Y-77784000D01*
X137718000Y-76314000D02*
X135433000Y-76314000D01*
X137718000Y-77784000D02*
X137718000Y-76314000D01*
%TO.C,U1*%
X104818000Y-75457000D02*
X104818000Y-76717000D01*
X104818000Y-82277000D02*
X104818000Y-81017000D01*
X108578000Y-75457000D02*
X104818000Y-75457000D01*
X108578000Y-82277000D02*
X104818000Y-82277000D01*
%TD*%
M02*
