%TF.GenerationSoftware,KiCad,Pcbnew,(7.0.0-0)*%
%TF.CreationDate,2023-04-13T19:26:27-06:00*%
%TF.ProjectId,Breadboard Power Supply,42726561-6462-46f6-9172-6420506f7765,v4*%
%TF.SameCoordinates,Original*%
%TF.FileFunction,Copper,L1,Top*%
%TF.FilePolarity,Positive*%
%FSLAX46Y46*%
G04 Gerber Fmt 4.6, Leading zero omitted, Abs format (unit mm)*
G04 Created by KiCad (PCBNEW (7.0.0-0)) date 2023-04-13 19:26:27*
%MOMM*%
%LPD*%
G01*
G04 APERTURE LIST*
G04 Aperture macros list*
%AMRoundRect*
0 Rectangle with rounded corners*
0 $1 Rounding radius*
0 $2 $3 $4 $5 $6 $7 $8 $9 X,Y pos of 4 corners*
0 Add a 4 corners polygon primitive as box body*
4,1,4,$2,$3,$4,$5,$6,$7,$8,$9,$2,$3,0*
0 Add four circle primitives for the rounded corners*
1,1,$1+$1,$2,$3*
1,1,$1+$1,$4,$5*
1,1,$1+$1,$6,$7*
1,1,$1+$1,$8,$9*
0 Add four rect primitives between the rounded corners*
20,1,$1+$1,$2,$3,$4,$5,0*
20,1,$1+$1,$4,$5,$6,$7,0*
20,1,$1+$1,$6,$7,$8,$9,0*
20,1,$1+$1,$8,$9,$2,$3,0*%
G04 Aperture macros list end*
%ADD10C,0.080000*%
%TA.AperFunction,NonConductor*%
%ADD11C,0.080000*%
%TD*%
%TA.AperFunction,SMDPad,CuDef*%
%ADD12R,0.700000X1.200000*%
%TD*%
%TA.AperFunction,SMDPad,CuDef*%
%ADD13R,0.760000X1.200000*%
%TD*%
%TA.AperFunction,SMDPad,CuDef*%
%ADD14R,0.800000X1.200000*%
%TD*%
%TA.AperFunction,ComponentPad*%
%ADD15C,2.010000*%
%TD*%
%TA.AperFunction,SMDPad,CuDef*%
%ADD16RoundRect,0.250000X0.325000X0.650000X-0.325000X0.650000X-0.325000X-0.650000X0.325000X-0.650000X0*%
%TD*%
%TA.AperFunction,ComponentPad*%
%ADD17C,1.830000*%
%TD*%
%TA.AperFunction,SMDPad,CuDef*%
%ADD18RoundRect,0.200000X0.200000X0.275000X-0.200000X0.275000X-0.200000X-0.275000X0.200000X-0.275000X0*%
%TD*%
%TA.AperFunction,ComponentPad*%
%ADD19R,1.700000X1.700000*%
%TD*%
%TA.AperFunction,ComponentPad*%
%ADD20O,1.700000X1.700000*%
%TD*%
%TA.AperFunction,SMDPad,CuDef*%
%ADD21RoundRect,0.225000X0.250000X-0.225000X0.250000X0.225000X-0.250000X0.225000X-0.250000X-0.225000X0*%
%TD*%
%TA.AperFunction,SMDPad,CuDef*%
%ADD22RoundRect,0.225000X-0.225000X-0.250000X0.225000X-0.250000X0.225000X0.250000X-0.225000X0.250000X0*%
%TD*%
%TA.AperFunction,SMDPad,CuDef*%
%ADD23RoundRect,0.200000X0.275000X-0.200000X0.275000X0.200000X-0.275000X0.200000X-0.275000X-0.200000X0*%
%TD*%
%TA.AperFunction,SMDPad,CuDef*%
%ADD24RoundRect,0.225000X0.225000X0.250000X-0.225000X0.250000X-0.225000X-0.250000X0.225000X-0.250000X0*%
%TD*%
%TA.AperFunction,SMDPad,CuDef*%
%ADD25RoundRect,0.250000X-0.325000X-0.650000X0.325000X-0.650000X0.325000X0.650000X-0.325000X0.650000X0*%
%TD*%
%TA.AperFunction,SMDPad,CuDef*%
%ADD26RoundRect,0.218750X-0.218750X-0.256250X0.218750X-0.256250X0.218750X0.256250X-0.218750X0.256250X0*%
%TD*%
%TA.AperFunction,SMDPad,CuDef*%
%ADD27RoundRect,0.225000X-0.250000X0.225000X-0.250000X-0.225000X0.250000X-0.225000X0.250000X0.225000X0*%
%TD*%
%TA.AperFunction,SMDPad,CuDef*%
%ADD28R,2.000000X1.500000*%
%TD*%
%TA.AperFunction,SMDPad,CuDef*%
%ADD29R,2.000000X3.800000*%
%TD*%
%TA.AperFunction,SMDPad,CuDef*%
%ADD30RoundRect,0.250000X-0.650000X0.325000X-0.650000X-0.325000X0.650000X-0.325000X0.650000X0.325000X0*%
%TD*%
%TA.AperFunction,ViaPad*%
%ADD31C,0.800000*%
%TD*%
%TA.AperFunction,Conductor*%
%ADD32C,0.250000*%
%TD*%
%TA.AperFunction,Conductor*%
%ADD33C,0.750000*%
%TD*%
G04 APERTURE END LIST*
D10*
D11*
X133445238Y-75667357D02*
X133445238Y-76000690D01*
X133326190Y-75476880D02*
X133207143Y-75834023D01*
X133207143Y-75834023D02*
X133516666Y-75834023D01*
D12*
%TO.P,J1,A5,CC1*%
%TO.N,Net-(J1-CC1)*%
X128769999Y-81767999D03*
D13*
%TO.P,J1,A9,VBUS_1*%
%TO.N,+5V*%
X126749999Y-81767999D03*
D14*
%TO.P,J1,A12,GND_1*%
%TO.N,GND*%
X125519999Y-81767999D03*
D12*
%TO.P,J1,B5,CC2*%
%TO.N,Net-(J1-CC2)*%
X127769999Y-81767999D03*
D13*
%TO.P,J1,B9,VBUS_2*%
%TO.N,+5V*%
X129789999Y-81767999D03*
D14*
%TO.P,J1,B12,GND_2*%
%TO.N,GND*%
X131019999Y-81767999D03*
D15*
%TO.P,J1,MH1,MH1*%
X132590000Y-77888000D03*
%TO.P,J1,MH2,MH2*%
X123950000Y-77888000D03*
%TO.P,J1,MH3,MH3*%
X132590000Y-81688000D03*
%TO.P,J1,MH4,MH4*%
X123950000Y-81688000D03*
%TD*%
D16*
%TO.P,C5,1*%
%TO.N,+3.3V*%
X148541000Y-76327000D03*
%TO.P,C5,2*%
%TO.N,GND*%
X145591000Y-76327000D03*
%TD*%
D17*
%TO.P,TP3,1,1*%
%TO.N,GND*%
X135890000Y-85598000D03*
%TO.P,TP3,2,2*%
X140970000Y-85598000D03*
%TD*%
D18*
%TO.P,R3,1*%
%TO.N,Net-(D1-K)*%
X121221000Y-80899000D03*
%TO.P,R3,2*%
%TO.N,GND*%
X119571000Y-80899000D03*
%TD*%
D19*
%TO.P,J2,1,Pin_1*%
%TO.N,+5V*%
X152780999Y-86613999D03*
D20*
%TO.P,J2,2,Pin_2*%
%TO.N,/TOP_POWER_RAIL*%
X152780999Y-89153999D03*
%TO.P,J2,3,Pin_3*%
%TO.N,+3.3V*%
X150240999Y-86613999D03*
%TO.P,J2,4,Pin_4*%
%TO.N,/TOP_POWER_RAIL*%
X150240999Y-89153999D03*
%TO.P,J2,5,Pin_5*%
%TO.N,+1V8*%
X147700999Y-86613999D03*
%TO.P,J2,6,Pin_6*%
%TO.N,/TOP_POWER_RAIL*%
X147700999Y-89153999D03*
%TD*%
D21*
%TO.P,C8,1*%
%TO.N,+1V8*%
X111506000Y-80023000D03*
%TO.P,C8,2*%
%TO.N,GND*%
X111506000Y-78473000D03*
%TD*%
D22*
%TO.P,C7,1*%
%TO.N,+3.3V*%
X150101000Y-76327000D03*
%TO.P,C7,2*%
%TO.N,GND*%
X151651000Y-76327000D03*
%TD*%
D17*
%TO.P,TP2,1,1*%
%TO.N,GND*%
X120650000Y-85598000D03*
%TO.P,TP2,2,2*%
X115570000Y-85598000D03*
%TD*%
D23*
%TO.P,R2,1*%
%TO.N,Net-(J1-CC1)*%
X135382000Y-80642000D03*
%TO.P,R2,2*%
%TO.N,GND*%
X135382000Y-78992000D03*
%TD*%
D24*
%TO.P,C2,1*%
%TO.N,+5V*%
X107074000Y-76454000D03*
%TO.P,C2,2*%
%TO.N,GND*%
X105524000Y-76454000D03*
%TD*%
D25*
%TO.P,C4,1*%
%TO.N,+5V*%
X108634000Y-76327000D03*
%TO.P,C4,2*%
%TO.N,GND*%
X111584000Y-76327000D03*
%TD*%
D16*
%TO.P,C3,1*%
%TO.N,+5V*%
X145112000Y-81788000D03*
%TO.P,C3,2*%
%TO.N,GND*%
X142162000Y-81788000D03*
%TD*%
D26*
%TO.P,D1,1,K*%
%TO.N,Net-(D1-K)*%
X119608500Y-76073000D03*
%TO.P,D1,2,A*%
%TO.N,+5V*%
X121183500Y-76073000D03*
%TD*%
D27*
%TO.P,C1,1*%
%TO.N,+5V*%
X145161000Y-83680000D03*
%TO.P,C1,2*%
%TO.N,GND*%
X145161000Y-85230000D03*
%TD*%
D23*
%TO.P,R1,1*%
%TO.N,Net-(J1-CC2)*%
X135382000Y-77594000D03*
%TO.P,R1,2*%
%TO.N,GND*%
X135382000Y-75944000D03*
%TD*%
D19*
%TO.P,J3,1,Pin_1*%
%TO.N,+5V*%
X108823999Y-86613999D03*
D20*
%TO.P,J3,2,Pin_2*%
%TO.N,/BOTTOM_POWER_RAIL*%
X108823999Y-89153999D03*
%TO.P,J3,3,Pin_3*%
%TO.N,+3.3V*%
X106283999Y-86613999D03*
%TO.P,J3,4,Pin_4*%
%TO.N,/BOTTOM_POWER_RAIL*%
X106283999Y-89153999D03*
%TO.P,J3,5,Pin_5*%
%TO.N,+1V8*%
X103743999Y-86613999D03*
%TO.P,J3,6,Pin_6*%
%TO.N,/BOTTOM_POWER_RAIL*%
X103743999Y-89153999D03*
%TD*%
D28*
%TO.P,U2,1,GND*%
%TO.N,GND*%
X147217999Y-78852999D03*
%TO.P,U2,2,VO*%
%TO.N,+3.3V*%
X147217999Y-81152999D03*
D29*
X153517999Y-81152999D03*
D28*
%TO.P,U2,3,VI*%
%TO.N,+5V*%
X147217999Y-83452999D03*
%TD*%
D17*
%TO.P,TP1,1,1*%
%TO.N,GND*%
X103759000Y-96012000D03*
%TO.P,TP1,2,2*%
X108839000Y-96012000D03*
%TD*%
%TO.P,TP4,1,1*%
%TO.N,GND*%
X147701000Y-96012000D03*
%TO.P,TP4,2,2*%
X152781000Y-96012000D03*
%TD*%
D28*
%TO.P,U1,1,GND*%
%TO.N,GND*%
X109321999Y-83452999D03*
%TO.P,U1,2,VO*%
%TO.N,+1V8*%
X109321999Y-81152999D03*
D29*
X103021999Y-81152999D03*
D28*
%TO.P,U1,3,VI*%
%TO.N,+5V*%
X109321999Y-78852999D03*
%TD*%
D30*
%TO.P,C6,1*%
%TO.N,+1V8*%
X111887000Y-81583000D03*
%TO.P,C6,2*%
%TO.N,GND*%
X111887000Y-84533000D03*
%TD*%
D19*
%TO.P,J10,1,Pin_1*%
%TO.N,unconnected-(J10-Pin_1-Pad1)*%
X116839999Y-78739999D03*
D20*
%TO.P,J10,2,Pin_2*%
%TO.N,unconnected-(J10-Pin_2-Pad2)*%
X119379999Y-78739999D03*
%TD*%
D19*
%TO.P,J8,1,Pin_1*%
%TO.N,/TOP_POWER_RAIL*%
X149224999Y-99059999D03*
D20*
%TO.P,J8,2,Pin_2*%
%TO.N,GND*%
X151764999Y-99059999D03*
%TD*%
D19*
%TO.P,J11,1,Pin_1*%
%TO.N,unconnected-(J11-Pin_1-Pad1)*%
X139699999Y-78739999D03*
D20*
%TO.P,J11,2,Pin_2*%
%TO.N,unconnected-(J11-Pin_2-Pad2)*%
X137159999Y-78739999D03*
%TD*%
D19*
%TO.P,J9,1,Pin_1*%
%TO.N,/BOTTOM_POWER_RAIL*%
X104774999Y-99059999D03*
D20*
%TO.P,J9,2,Pin_2*%
%TO.N,GND*%
X107314999Y-99059999D03*
%TD*%
D31*
%TO.N,GND*%
X104394000Y-75692000D03*
X145542000Y-79338500D03*
X118872000Y-82042000D03*
X152590500Y-77152500D03*
X110236000Y-76454000D03*
X134239000Y-75944000D03*
X146812000Y-76327000D03*
X143637000Y-81788000D03*
X144018000Y-85471000D03*
X107823000Y-84074000D03*
X134368799Y-79631799D03*
%TO.N,+3.3V*%
X112522000Y-87122000D03*
X134874000Y-82705500D03*
%TO.N,+5V*%
X107442000Y-79629000D03*
X114681000Y-83947000D03*
X149266500Y-84963000D03*
%TD*%
D32*
%TO.N,GND*%
X119571000Y-81343000D02*
X118872000Y-82042000D01*
X144920000Y-85471000D02*
X145161000Y-85230000D01*
X151765000Y-76327000D02*
X151651000Y-76327000D01*
X135382000Y-78992000D02*
X135008598Y-78992000D01*
X104394000Y-75692000D02*
X104762000Y-75692000D01*
X146027500Y-78853000D02*
X147218000Y-78853000D01*
X135382000Y-75944000D02*
X134239000Y-75944000D01*
X146812000Y-76327000D02*
X145591000Y-76327000D01*
X108444000Y-83453000D02*
X109322000Y-83453000D01*
X104762000Y-75692000D02*
X105524000Y-76454000D01*
X152590500Y-77152500D02*
X151765000Y-76327000D01*
X132510000Y-81768000D02*
X132590000Y-81688000D01*
X119571000Y-80899000D02*
X119571000Y-81343000D01*
X144018000Y-85471000D02*
X144920000Y-85471000D01*
X124030000Y-81768000D02*
X123950000Y-81688000D01*
X131020000Y-81768000D02*
X132510000Y-81768000D01*
X111887000Y-84533000D02*
X110807000Y-83453000D01*
X107823000Y-84074000D02*
X108444000Y-83453000D01*
X142162000Y-81788000D02*
X143637000Y-81788000D01*
X145542000Y-79338500D02*
X146027500Y-78853000D01*
X111584000Y-76454000D02*
X110236000Y-76454000D01*
X125520000Y-81768000D02*
X124030000Y-81768000D01*
X135008598Y-78992000D02*
X134368799Y-79631799D01*
X111506000Y-76532000D02*
X111584000Y-76454000D01*
X111506000Y-78473000D02*
X111506000Y-76532000D01*
X110807000Y-83453000D02*
X109322000Y-83453000D01*
D33*
%TO.N,+3.3V*%
X110249000Y-85189000D02*
X107709000Y-85189000D01*
X134889516Y-82705500D02*
X134874000Y-82705500D01*
X147218000Y-81153000D02*
X146378000Y-80313000D01*
X146378000Y-80313000D02*
X137282016Y-80313000D01*
X137282016Y-80313000D02*
X134889516Y-82705500D01*
X112182000Y-87122000D02*
X110249000Y-85189000D01*
X148541000Y-76327000D02*
X150101000Y-76327000D01*
X150241000Y-86614000D02*
X150241000Y-84430000D01*
X147818000Y-81153000D02*
X147218000Y-81153000D01*
X150241000Y-84430000D02*
X153518000Y-81153000D01*
X148541000Y-76327000D02*
X148793000Y-76579000D01*
X112522000Y-87122000D02*
X112182000Y-87122000D01*
X107709000Y-85189000D02*
X106284000Y-86614000D01*
X148793000Y-76579000D02*
X148793000Y-80178000D01*
X147218000Y-81153000D02*
X153518000Y-81153000D01*
X148793000Y-80178000D02*
X147818000Y-81153000D01*
D32*
%TO.N,Net-(D1-K)*%
X119608500Y-76073000D02*
X121221000Y-77685500D01*
X121221000Y-77685500D02*
X121221000Y-80899000D01*
%TO.N,Net-(J1-CC1)*%
X128770000Y-81288000D02*
X128770000Y-81768000D01*
X135382000Y-80642000D02*
X135098000Y-80358000D01*
X129700000Y-80358000D02*
X128770000Y-81288000D01*
X135098000Y-80358000D02*
X129700000Y-80358000D01*
%TO.N,Net-(J1-CC2)*%
X128780000Y-79908000D02*
X133068000Y-79908000D01*
X127770000Y-80918000D02*
X128780000Y-79908000D01*
X133068000Y-79908000D02*
X135382000Y-77594000D01*
X127770000Y-81768000D02*
X127770000Y-80918000D01*
D33*
%TO.N,+1V8*%
X147227000Y-87088000D02*
X114952821Y-87088000D01*
X111760000Y-81583000D02*
X109752000Y-81583000D01*
X111760000Y-81583000D02*
X111760000Y-80277000D01*
X113706000Y-85841179D02*
X113706000Y-83402000D01*
X147701000Y-86614000D02*
X147227000Y-87088000D01*
X103022000Y-81153000D02*
X109322000Y-81153000D01*
X114952821Y-87088000D02*
X113706000Y-85841179D01*
X103744000Y-86614000D02*
X103744000Y-81875000D01*
X109752000Y-81583000D02*
X109322000Y-81153000D01*
X103744000Y-81875000D02*
X103022000Y-81153000D01*
X113706000Y-83402000D02*
X111887000Y-81583000D01*
X111760000Y-80277000D02*
X111506000Y-80023000D01*
%TO.N,+5V*%
X108218000Y-78853000D02*
X109322000Y-78853000D01*
X126750000Y-82848000D02*
X126750000Y-81768000D01*
X124815500Y-75918500D02*
X121338000Y-75918500D01*
X145161000Y-83680000D02*
X146991000Y-83680000D01*
X146991000Y-83680000D02*
X147218000Y-83453000D01*
X129790000Y-82688000D02*
X130782000Y-83680000D01*
X107074000Y-76454000D02*
X108634000Y-76454000D01*
X108634000Y-78165000D02*
X109322000Y-78853000D01*
X108634000Y-76454000D02*
X108634000Y-78165000D01*
X126750000Y-83118000D02*
X126750000Y-81768000D01*
X114681000Y-83947000D02*
X125921000Y-83947000D01*
X148728000Y-84963000D02*
X147218000Y-83453000D01*
X129790000Y-81768000D02*
X129790000Y-82688000D01*
X149266500Y-84963000D02*
X148728000Y-84963000D01*
X145112000Y-83631000D02*
X145161000Y-83680000D01*
X129790000Y-81768000D02*
X129790000Y-82848000D01*
X126845000Y-82943000D02*
X126750000Y-82848000D01*
X107442000Y-79629000D02*
X108218000Y-78853000D01*
X125921000Y-83947000D02*
X126750000Y-83118000D01*
X129695000Y-82943000D02*
X126845000Y-82943000D01*
X121338000Y-75918500D02*
X121183500Y-76073000D01*
X145112000Y-81788000D02*
X145112000Y-83631000D01*
X130782000Y-83680000D02*
X145161000Y-83680000D01*
X129790000Y-82848000D02*
X129695000Y-82943000D01*
X126750000Y-81768000D02*
X126750000Y-77853000D01*
X126750000Y-77853000D02*
X124815500Y-75918500D01*
%TD*%
M02*
