%TF.GenerationSoftware,KiCad,Pcbnew,(7.0.0-0)*%
%TF.CreationDate,2023-05-14T13:41:57-06:00*%
%TF.ProjectId,Breadboard Power Supply,42726561-6462-46f6-9172-6420506f7765,v7*%
%TF.SameCoordinates,Original*%
%TF.FileFunction,Copper,L1,Top*%
%TF.FilePolarity,Positive*%
%FSLAX46Y46*%
G04 Gerber Fmt 4.6, Leading zero omitted, Abs format (unit mm)*
G04 Created by KiCad (PCBNEW (7.0.0-0)) date 2023-05-14 13:41:57*
%MOMM*%
%LPD*%
G01*
G04 APERTURE LIST*
G04 Aperture macros list*
%AMRoundRect*
0 Rectangle with rounded corners*
0 $1 Rounding radius*
0 $2 $3 $4 $5 $6 $7 $8 $9 X,Y pos of 4 corners*
0 Add a 4 corners polygon primitive as box body*
4,1,4,$2,$3,$4,$5,$6,$7,$8,$9,$2,$3,0*
0 Add four circle primitives for the rounded corners*
1,1,$1+$1,$2,$3*
1,1,$1+$1,$4,$5*
1,1,$1+$1,$6,$7*
1,1,$1+$1,$8,$9*
0 Add four rect primitives between the rounded corners*
20,1,$1+$1,$2,$3,$4,$5,0*
20,1,$1+$1,$4,$5,$6,$7,0*
20,1,$1+$1,$6,$7,$8,$9,0*
20,1,$1+$1,$8,$9,$2,$3,0*%
G04 Aperture macros list end*
%ADD10C,0.080000*%
%TA.AperFunction,NonConductor*%
%ADD11C,0.080000*%
%TD*%
%TA.AperFunction,SMDPad,CuDef*%
%ADD12RoundRect,0.218750X0.218750X0.256250X-0.218750X0.256250X-0.218750X-0.256250X0.218750X-0.256250X0*%
%TD*%
%TA.AperFunction,SMDPad,CuDef*%
%ADD13RoundRect,0.250000X0.475000X-0.250000X0.475000X0.250000X-0.475000X0.250000X-0.475000X-0.250000X0*%
%TD*%
%TA.AperFunction,ComponentPad*%
%ADD14C,1.830000*%
%TD*%
%TA.AperFunction,SMDPad,CuDef*%
%ADD15RoundRect,0.135000X-0.135000X-0.185000X0.135000X-0.185000X0.135000X0.185000X-0.135000X0.185000X0*%
%TD*%
%TA.AperFunction,ComponentPad*%
%ADD16R,1.700000X1.700000*%
%TD*%
%TA.AperFunction,ComponentPad*%
%ADD17O,1.700000X1.700000*%
%TD*%
%TA.AperFunction,SMDPad,CuDef*%
%ADD18RoundRect,0.140000X-0.170000X0.140000X-0.170000X-0.140000X0.170000X-0.140000X0.170000X0.140000X0*%
%TD*%
%TA.AperFunction,SMDPad,CuDef*%
%ADD19RoundRect,0.140000X0.170000X-0.140000X0.170000X0.140000X-0.170000X0.140000X-0.170000X-0.140000X0*%
%TD*%
%TA.AperFunction,SMDPad,CuDef*%
%ADD20RoundRect,0.135000X-0.185000X0.135000X-0.185000X-0.135000X0.185000X-0.135000X0.185000X0.135000X0*%
%TD*%
%TA.AperFunction,SMDPad,CuDef*%
%ADD21RoundRect,0.218750X-0.218750X-0.256250X0.218750X-0.256250X0.218750X0.256250X-0.218750X0.256250X0*%
%TD*%
%TA.AperFunction,SMDPad,CuDef*%
%ADD22RoundRect,0.135000X0.185000X-0.135000X0.185000X0.135000X-0.185000X0.135000X-0.185000X-0.135000X0*%
%TD*%
%TA.AperFunction,SMDPad,CuDef*%
%ADD23R,0.700000X1.200000*%
%TD*%
%TA.AperFunction,SMDPad,CuDef*%
%ADD24R,0.760000X1.200000*%
%TD*%
%TA.AperFunction,SMDPad,CuDef*%
%ADD25R,0.800000X1.200000*%
%TD*%
%TA.AperFunction,ComponentPad*%
%ADD26C,1.610000*%
%TD*%
%TA.AperFunction,SMDPad,CuDef*%
%ADD27R,2.000000X1.500000*%
%TD*%
%TA.AperFunction,SMDPad,CuDef*%
%ADD28R,2.000000X3.800000*%
%TD*%
%TA.AperFunction,SMDPad,CuDef*%
%ADD29RoundRect,0.135000X0.135000X0.185000X-0.135000X0.185000X-0.135000X-0.185000X0.135000X-0.185000X0*%
%TD*%
%TA.AperFunction,SMDPad,CuDef*%
%ADD30RoundRect,0.250000X-0.475000X0.250000X-0.475000X-0.250000X0.475000X-0.250000X0.475000X0.250000X0*%
%TD*%
%TA.AperFunction,ViaPad*%
%ADD31C,0.800000*%
%TD*%
%TA.AperFunction,Conductor*%
%ADD32C,0.750000*%
%TD*%
%TA.AperFunction,Conductor*%
%ADD33C,0.250000*%
%TD*%
G04 APERTURE END LIST*
D10*
D11*
X133310333Y-75629690D02*
X133643666Y-75629690D01*
X133643666Y-75629690D02*
X133429381Y-76129690D01*
D12*
%TO.P,D3,1,K*%
%TO.N,Net-(D3-K)*%
X118262500Y-76073000D03*
%TO.P,D3,2,A*%
%TO.N,+1V8*%
X116687500Y-76073000D03*
%TD*%
D13*
%TO.P,C5,1*%
%TO.N,+3.3V*%
X144907000Y-78547000D03*
%TO.P,C5,2*%
%TO.N,GND*%
X144907000Y-76647000D03*
%TD*%
D14*
%TO.P,TP3,1,1*%
%TO.N,GND*%
X135860000Y-83058000D03*
%TO.P,TP3,2,2*%
X140940000Y-83058000D03*
%TD*%
D15*
%TO.P,R3,1*%
%TO.N,Net-(D3-K)*%
X119505000Y-76073000D03*
%TO.P,R3,2*%
%TO.N,GND*%
X120525000Y-76073000D03*
%TD*%
D16*
%TO.P,J2,1,Pin_1*%
%TO.N,+5V*%
X152765999Y-84327999D03*
D17*
%TO.P,J2,2,Pin_2*%
%TO.N,/TOP_POWER_RAIL*%
X152765999Y-86867999D03*
%TO.P,J2,3,Pin_3*%
%TO.N,+3.3V*%
X150225999Y-84327999D03*
%TO.P,J2,4,Pin_4*%
%TO.N,/TOP_POWER_RAIL*%
X150225999Y-86867999D03*
%TO.P,J2,5,Pin_5*%
%TO.N,+1V8*%
X147685999Y-84327999D03*
%TO.P,J2,6,Pin_6*%
%TO.N,/TOP_POWER_RAIL*%
X147685999Y-86867999D03*
%TD*%
D18*
%TO.P,C8,1*%
%TO.N,+1V8*%
X112903000Y-79784000D03*
%TO.P,C8,2*%
%TO.N,GND*%
X112903000Y-80744000D03*
%TD*%
D19*
%TO.P,C7,1*%
%TO.N,+3.3V*%
X143383000Y-78458000D03*
%TO.P,C7,2*%
%TO.N,GND*%
X143383000Y-77498000D03*
%TD*%
D14*
%TO.P,TP2,1,1*%
%TO.N,GND*%
X120680000Y-83062000D03*
%TO.P,TP2,2,2*%
X115600000Y-83062000D03*
%TD*%
D20*
%TO.P,R2,1*%
%TO.N,Net-(J1-CC1)*%
X135255000Y-79119000D03*
%TO.P,R2,2*%
%TO.N,GND*%
X135255000Y-80139000D03*
%TD*%
D19*
%TO.P,C2,1*%
%TO.N,+5V*%
X112903000Y-78204000D03*
%TO.P,C2,2*%
%TO.N,GND*%
X112903000Y-77244000D03*
%TD*%
D13*
%TO.P,C4,1*%
%TO.N,+5V*%
X111379000Y-77912000D03*
%TO.P,C4,2*%
%TO.N,GND*%
X111379000Y-76012000D03*
%TD*%
%TO.P,C3,1*%
%TO.N,+5V*%
X144907000Y-81976000D03*
%TO.P,C3,2*%
%TO.N,GND*%
X144907000Y-80076000D03*
%TD*%
D21*
%TO.P,D1,1,K*%
%TO.N,Net-(D1-K)*%
X138277500Y-76073000D03*
%TO.P,D1,2,A*%
%TO.N,+3.3V*%
X139852500Y-76073000D03*
%TD*%
D19*
%TO.P,C1,1*%
%TO.N,+5V*%
X143383000Y-81887000D03*
%TO.P,C1,2*%
%TO.N,GND*%
X143383000Y-80927000D03*
%TD*%
D22*
%TO.P,R1,1*%
%TO.N,Net-(J1-CC2)*%
X135255000Y-78234000D03*
%TO.P,R1,2*%
%TO.N,GND*%
X135255000Y-77214000D03*
%TD*%
D23*
%TO.P,J1,A5,CC1*%
%TO.N,Net-(J1-CC1)*%
X128771999Y-81857999D03*
D24*
%TO.P,J1,A9,VBUS*%
%TO.N,+5V*%
X126751999Y-81857999D03*
D25*
%TO.P,J1,A12,GND*%
%TO.N,GND*%
X125521999Y-81857999D03*
D23*
%TO.P,J1,B5,CC2*%
%TO.N,Net-(J1-CC2)*%
X127771999Y-81857999D03*
D24*
%TO.P,J1,B9,VBUS*%
%TO.N,+5V*%
X129791999Y-81857999D03*
D25*
%TO.P,J1,B12,GND*%
%TO.N,GND*%
X131021999Y-81857999D03*
D26*
%TO.P,J1,MH1,MH1*%
X132592000Y-77978000D03*
%TO.P,J1,MH2,MH2*%
X123952000Y-77978000D03*
%TO.P,J1,MH3,MH3*%
X132592000Y-81778000D03*
%TO.P,J1,MH4,MH4*%
X123952000Y-81778000D03*
%TD*%
D16*
%TO.P,J3,1,Pin_1*%
%TO.N,+5V*%
X108823999Y-84327999D03*
D17*
%TO.P,J3,2,Pin_2*%
%TO.N,/BOTTOM_POWER_RAIL*%
X108823999Y-86867999D03*
%TO.P,J3,3,Pin_3*%
%TO.N,+3.3V*%
X106283999Y-84327999D03*
%TO.P,J3,4,Pin_4*%
%TO.N,/BOTTOM_POWER_RAIL*%
X106283999Y-86867999D03*
%TO.P,J3,5,Pin_5*%
%TO.N,+1V8*%
X103743999Y-84327999D03*
%TO.P,J3,6,Pin_6*%
%TO.N,/BOTTOM_POWER_RAIL*%
X103743999Y-86867999D03*
%TD*%
D27*
%TO.P,U2,1,GND*%
%TO.N,GND*%
X147471999Y-76566999D03*
%TO.P,U2,2,VO*%
%TO.N,+3.3V*%
X147471999Y-78866999D03*
D28*
X153771999Y-78866999D03*
D27*
%TO.P,U2,3,VI*%
%TO.N,+5V*%
X147471999Y-81166999D03*
%TD*%
D14*
%TO.P,TP1,1,1*%
%TO.N,GND*%
X103729000Y-97026000D03*
%TO.P,TP1,2,2*%
X108809000Y-97026000D03*
%TD*%
%TO.P,TP4,1,1*%
%TO.N,GND*%
X147671000Y-97026000D03*
%TO.P,TP4,2,2*%
X152751000Y-97026000D03*
%TD*%
D29*
%TO.P,R4,1*%
%TO.N,Net-(D1-K)*%
X137035000Y-76073000D03*
%TO.P,R4,2*%
%TO.N,GND*%
X136015000Y-76073000D03*
%TD*%
D27*
%TO.P,U1,1,GND*%
%TO.N,GND*%
X109067999Y-81166999D03*
%TO.P,U1,2,VO*%
%TO.N,+1V8*%
X109067999Y-78866999D03*
D28*
X102767999Y-78866999D03*
D27*
%TO.P,U1,3,VI*%
%TO.N,+5V*%
X109067999Y-76566999D03*
%TD*%
D30*
%TO.P,C6,1*%
%TO.N,+1V8*%
X111379000Y-79469000D03*
%TO.P,C6,2*%
%TO.N,GND*%
X111379000Y-81369000D03*
%TD*%
D16*
%TO.P,J10,1,Pin_1*%
%TO.N,unconnected-(J10-Pin_1-Pad1)*%
X116839999Y-78739999D03*
D17*
%TO.P,J10,2,Pin_2*%
%TO.N,unconnected-(J10-Pin_2-Pad2)*%
X119379999Y-78739999D03*
%TD*%
D16*
%TO.P,J8,1,Pin_1*%
%TO.N,/TOP_POWER_RAIL*%
X149224999Y-93979999D03*
D17*
%TO.P,J8,2,Pin_2*%
%TO.N,GND*%
X151764999Y-93979999D03*
%TD*%
D16*
%TO.P,J11,1,Pin_1*%
%TO.N,unconnected-(J11-Pin_1-Pad1)*%
X139699999Y-78739999D03*
D17*
%TO.P,J11,2,Pin_2*%
%TO.N,unconnected-(J11-Pin_2-Pad2)*%
X137159999Y-78739999D03*
%TD*%
D16*
%TO.P,J9,1,Pin_1*%
%TO.N,/BOTTOM_POWER_RAIL*%
X104774999Y-93979999D03*
D17*
%TO.P,J9,2,Pin_2*%
%TO.N,GND*%
X107314999Y-93979999D03*
%TD*%
D31*
%TO.N,GND*%
X141478000Y-76962000D03*
X134366000Y-80392500D03*
X149362896Y-76666500D03*
X105791000Y-81153000D03*
X136144000Y-76962000D03*
X114173000Y-76835000D03*
X143510000Y-80010000D03*
%TO.N,+3.3V*%
X145415000Y-84582000D03*
%TO.N,+1V8*%
X114046000Y-75689648D03*
X148844000Y-88317419D03*
X151638000Y-88317419D03*
X107482182Y-75689648D03*
X154667000Y-82169000D03*
%TO.N,+5V*%
X130371817Y-83243064D03*
X126225300Y-83372700D03*
X114488000Y-81981000D03*
X148971000Y-80772000D03*
%TD*%
D32*
%TO.N,GND*%
X111379000Y-81369000D02*
X112278000Y-81369000D01*
D33*
X136015000Y-76833000D02*
X136144000Y-76962000D01*
D32*
X149362896Y-76666500D02*
X149263396Y-76567000D01*
D33*
X143510000Y-80010000D02*
X144841000Y-80010000D01*
X135507000Y-76962000D02*
X135255000Y-77214000D01*
X136144000Y-76962000D02*
X135507000Y-76962000D01*
X112903000Y-77244000D02*
X113764000Y-77244000D01*
X144234000Y-76647000D02*
X143383000Y-77498000D01*
D32*
X111177000Y-81167000D02*
X111379000Y-81369000D01*
D33*
X113764000Y-77244000D02*
X114173000Y-76835000D01*
X141478000Y-76962000D02*
X142014000Y-77498000D01*
X143383000Y-80927000D02*
X143383000Y-80137000D01*
X112903000Y-77244000D02*
X112611000Y-77244000D01*
X131020000Y-81768000D02*
X132510000Y-81768000D01*
X135255000Y-80139000D02*
X134619500Y-80139000D01*
X120525000Y-76073000D02*
X122430000Y-77978000D01*
X112611000Y-77244000D02*
X111379000Y-76012000D01*
X144907000Y-76647000D02*
X144234000Y-76647000D01*
X134619500Y-80139000D02*
X134366000Y-80392500D01*
D32*
X112278000Y-81369000D02*
X112903000Y-80744000D01*
X105805000Y-81167000D02*
X105791000Y-81153000D01*
X109068000Y-81167000D02*
X105805000Y-81167000D01*
D33*
X125520000Y-81768000D02*
X124030000Y-81768000D01*
X122430000Y-77978000D02*
X123952000Y-77978000D01*
X142014000Y-77498000D02*
X143383000Y-77498000D01*
D32*
X109068000Y-81167000D02*
X111177000Y-81167000D01*
X149263396Y-76567000D02*
X147472000Y-76567000D01*
D33*
X144841000Y-80010000D02*
X144907000Y-80076000D01*
X136015000Y-76073000D02*
X136015000Y-76833000D01*
%TO.N,+3.3V*%
X139852500Y-76361805D02*
X139852500Y-76073000D01*
X143383000Y-78458000D02*
X141948695Y-78458000D01*
D32*
X109954000Y-82903000D02*
X107709000Y-82903000D01*
X145415000Y-84582000D02*
X111633000Y-84582000D01*
X111633000Y-84582000D02*
X109954000Y-82903000D01*
X107709000Y-82903000D02*
X106284000Y-84328000D01*
D33*
X141948695Y-78458000D02*
X139852500Y-76361805D01*
D32*
X148072000Y-78867000D02*
X147472000Y-78867000D01*
D33*
%TO.N,Net-(D1-K)*%
X137035000Y-76073000D02*
X138277500Y-76073000D01*
%TO.N,Net-(J1-CC1)*%
X130260500Y-79667500D02*
X134706500Y-79667500D01*
X134706500Y-79667500D02*
X135255000Y-79119000D01*
X128770000Y-81768000D02*
X128770000Y-81158000D01*
X128770000Y-81158000D02*
X130260500Y-79667500D01*
%TO.N,Net-(J1-CC2)*%
X135169462Y-78234000D02*
X135255000Y-78234000D01*
X134185462Y-79218000D02*
X135169462Y-78234000D01*
X129470000Y-79218000D02*
X134185462Y-79218000D01*
X127770000Y-80918000D02*
X127770000Y-81768000D01*
X129470000Y-79218000D02*
X127770000Y-80918000D01*
%TO.N,+1V8*%
X116687500Y-76073000D02*
X114429352Y-76073000D01*
X114429352Y-76073000D02*
X114046000Y-75689648D01*
D32*
X154667000Y-86982255D02*
X154667000Y-82169000D01*
X147120164Y-88317419D02*
X146261000Y-87458255D01*
X146261000Y-87458255D02*
X146261000Y-85753000D01*
X148844000Y-88317419D02*
X147120164Y-88317419D01*
X146261000Y-85753000D02*
X147686000Y-84328000D01*
X151638000Y-88317419D02*
X153331836Y-88317419D01*
X153331836Y-88317419D02*
X154667000Y-86982255D01*
%TO.N,+5V*%
X129420000Y-83058000D02*
X129790000Y-82688000D01*
X147867000Y-80772000D02*
X147472000Y-81167000D01*
X112903000Y-78204000D02*
X114901000Y-80202000D01*
X133394000Y-83268000D02*
X135128000Y-81534000D01*
X130370000Y-83268000D02*
X133394000Y-83268000D01*
X110034000Y-76567000D02*
X111379000Y-77912000D01*
X109068000Y-76567000D02*
X110034000Y-76567000D01*
X126960000Y-83058000D02*
X129420000Y-83058000D01*
X121595542Y-81568000D02*
X114901000Y-81568000D01*
X126330000Y-83268000D02*
X126750000Y-82848000D01*
X121595542Y-81568000D02*
X123295542Y-83268000D01*
X114901000Y-81568000D02*
X114488000Y-81981000D01*
X148971000Y-80772000D02*
X147867000Y-80772000D01*
X144818000Y-81887000D02*
X144907000Y-81976000D01*
X123295542Y-83268000D02*
X126330000Y-83268000D01*
X129790000Y-81768000D02*
X129790000Y-82688000D01*
X126750000Y-81768000D02*
X126750000Y-82848000D01*
X142955000Y-81887000D02*
X143383000Y-81887000D01*
X111671000Y-78204000D02*
X112903000Y-78204000D01*
X129790000Y-82688000D02*
X130370000Y-83268000D01*
X111379000Y-77912000D02*
X111671000Y-78204000D01*
X126225300Y-83372700D02*
X126330000Y-83268000D01*
X144907000Y-81976000D02*
X146663000Y-81976000D01*
X142602000Y-81534000D02*
X142955000Y-81887000D01*
X146663000Y-81976000D02*
X147472000Y-81167000D01*
X126750000Y-82848000D02*
X126960000Y-83058000D01*
X114901000Y-80202000D02*
X114901000Y-81568000D01*
X143383000Y-81887000D02*
X144818000Y-81887000D01*
X135128000Y-81534000D02*
X142602000Y-81534000D01*
D33*
%TO.N,Net-(D3-K)*%
X118262500Y-76073000D02*
X119505000Y-76073000D01*
%TD*%
%TA.AperFunction,Conductor*%
%TO.N,+1V8*%
G36*
X110175340Y-78446292D02*
G01*
X110209455Y-78486236D01*
X110211885Y-78484738D01*
X110304970Y-78635652D01*
X110430348Y-78761030D01*
X110529419Y-78822137D01*
X110575112Y-78850322D01*
X110575114Y-78850323D01*
X110581262Y-78854115D01*
X110749574Y-78909887D01*
X110853455Y-78920500D01*
X111107996Y-78920499D01*
X111149380Y-78927609D01*
X111175961Y-78942491D01*
X111176659Y-78941417D01*
X111182111Y-78944957D01*
X111187161Y-78949047D01*
X111192949Y-78951996D01*
X111192952Y-78951998D01*
X111220069Y-78965814D01*
X111246388Y-78979224D01*
X111252085Y-78982318D01*
X111304037Y-79012313D01*
X111304042Y-79012315D01*
X111309669Y-79015564D01*
X111322565Y-79019754D01*
X111340544Y-79027200D01*
X111352637Y-79033362D01*
X111416886Y-79050576D01*
X111423058Y-79052406D01*
X111486298Y-79072954D01*
X111499793Y-79074372D01*
X111518931Y-79077919D01*
X111532029Y-79081429D01*
X111598417Y-79084907D01*
X111604865Y-79085415D01*
X111624694Y-79087500D01*
X111644622Y-79087500D01*
X111651111Y-79087669D01*
X111717493Y-79091149D01*
X111730890Y-79089027D01*
X111750289Y-79087500D01*
X112310138Y-79087500D01*
X112357591Y-79096939D01*
X112397819Y-79123819D01*
X112612681Y-79338681D01*
X112639561Y-79378909D01*
X112649000Y-79426362D01*
X112649000Y-79805856D01*
X112630727Y-79870646D01*
X112581295Y-79916340D01*
X112483616Y-79966111D01*
X112424004Y-79996485D01*
X112367709Y-80010000D01*
X110668362Y-80010000D01*
X110620909Y-80000561D01*
X110580681Y-79973681D01*
X110018319Y-79411319D01*
X109991439Y-79371091D01*
X109982000Y-79323638D01*
X109982000Y-78549093D01*
X109999711Y-78485228D01*
X110047786Y-78439607D01*
X110112490Y-78425263D01*
X110175340Y-78446292D01*
G37*
%TD.AperFunction*%
%TD*%
%TA.AperFunction,Conductor*%
%TO.N,+3.3V*%
G36*
X146623000Y-78121613D02*
G01*
X146668387Y-78167000D01*
X146685000Y-78229000D01*
X146685000Y-79505000D01*
X146668387Y-79567000D01*
X146623000Y-79612387D01*
X146561000Y-79629000D01*
X146228362Y-79629000D01*
X146180909Y-79619561D01*
X146140681Y-79592681D01*
X146106220Y-79558220D01*
X146080330Y-79516243D01*
X146079437Y-79516660D01*
X146076387Y-79510119D01*
X146074115Y-79503262D01*
X145981030Y-79352348D01*
X145855652Y-79226970D01*
X145704738Y-79133885D01*
X145697887Y-79131614D01*
X145691338Y-79128561D01*
X145691753Y-79127670D01*
X145649777Y-79101777D01*
X145550638Y-79002638D01*
X145542000Y-78994000D01*
X145529789Y-78994000D01*
X144069362Y-78994000D01*
X144021909Y-78984561D01*
X143981681Y-78957681D01*
X143673319Y-78649319D01*
X143646439Y-78609091D01*
X143637000Y-78561638D01*
X143637000Y-78382011D01*
X143648255Y-78330392D01*
X143679976Y-78288144D01*
X143726405Y-78262935D01*
X143734996Y-78260438D01*
X143812597Y-78237894D01*
X143953629Y-78154488D01*
X143966798Y-78141319D01*
X144007026Y-78114439D01*
X144054479Y-78105000D01*
X146561000Y-78105000D01*
X146623000Y-78121613D01*
G37*
%TD.AperFunction*%
%TD*%
%TA.AperFunction,Conductor*%
%TO.N,/BOTTOM_POWER_RAIL*%
G36*
X102424367Y-86617239D02*
G01*
X102427631Y-86618000D01*
X110140369Y-86618000D01*
X110143633Y-86617239D01*
X110171791Y-86614000D01*
X110619500Y-86614000D01*
X110681500Y-86630613D01*
X110726887Y-86676000D01*
X110743500Y-86738000D01*
X110743500Y-98300500D01*
X110726887Y-98362500D01*
X110681500Y-98407887D01*
X110619500Y-98424500D01*
X109691009Y-98424500D01*
X109631991Y-98409555D01*
X109587200Y-98368322D01*
X109567433Y-98310740D01*
X109577453Y-98250690D01*
X109614847Y-98202646D01*
X109661918Y-98166008D01*
X109776415Y-98076893D01*
X109936192Y-97903329D01*
X110065222Y-97705833D01*
X110159985Y-97489794D01*
X110217898Y-97261103D01*
X110237379Y-97026000D01*
X110217898Y-96790897D01*
X110159985Y-96562206D01*
X110065222Y-96346167D01*
X109936192Y-96148671D01*
X109776415Y-95975107D01*
X109772367Y-95971956D01*
X109594297Y-95833359D01*
X109594291Y-95833355D01*
X109590249Y-95830209D01*
X109585735Y-95827766D01*
X109387279Y-95720367D01*
X109387273Y-95720364D01*
X109382773Y-95717929D01*
X109377932Y-95716267D01*
X109377925Y-95716264D01*
X109164499Y-95642995D01*
X109164498Y-95642994D01*
X109159646Y-95641329D01*
X109154596Y-95640486D01*
X109154587Y-95640484D01*
X108932017Y-95603344D01*
X108932008Y-95603343D01*
X108926955Y-95602500D01*
X108691045Y-95602500D01*
X108685992Y-95603343D01*
X108685982Y-95603344D01*
X108463412Y-95640484D01*
X108463400Y-95640486D01*
X108458354Y-95641329D01*
X108453504Y-95642993D01*
X108453500Y-95642995D01*
X108240074Y-95716264D01*
X108240063Y-95716268D01*
X108235227Y-95717929D01*
X108230730Y-95720362D01*
X108230720Y-95720367D01*
X108032264Y-95827766D01*
X108032257Y-95827770D01*
X108027751Y-95830209D01*
X108023713Y-95833351D01*
X108023702Y-95833359D01*
X107845632Y-95971956D01*
X107845624Y-95971963D01*
X107841585Y-95975107D01*
X107838115Y-95978875D01*
X107838111Y-95978880D01*
X107685283Y-96144895D01*
X107685277Y-96144902D01*
X107681808Y-96148671D01*
X107679004Y-96152962D01*
X107679000Y-96152968D01*
X107555582Y-96341873D01*
X107555575Y-96341885D01*
X107552778Y-96346167D01*
X107550723Y-96350851D01*
X107550717Y-96350863D01*
X107460075Y-96557509D01*
X107458015Y-96562206D01*
X107456757Y-96567171D01*
X107456756Y-96567176D01*
X107401361Y-96785922D01*
X107401359Y-96785931D01*
X107400102Y-96790897D01*
X107399678Y-96796006D01*
X107399677Y-96796016D01*
X107381045Y-97020883D01*
X107380621Y-97026000D01*
X107381045Y-97031117D01*
X107399677Y-97255983D01*
X107399678Y-97255991D01*
X107400102Y-97261103D01*
X107401359Y-97266070D01*
X107401361Y-97266077D01*
X107456756Y-97484823D01*
X107458015Y-97489794D01*
X107460075Y-97494490D01*
X107550717Y-97701136D01*
X107550720Y-97701142D01*
X107552778Y-97705833D01*
X107555578Y-97710119D01*
X107555582Y-97710126D01*
X107677203Y-97896280D01*
X107681808Y-97903329D01*
X107841585Y-98076893D01*
X107845631Y-98080042D01*
X107845632Y-98080043D01*
X108003153Y-98202646D01*
X108040547Y-98250690D01*
X108050567Y-98310740D01*
X108030800Y-98368322D01*
X107986009Y-98409555D01*
X107926991Y-98424500D01*
X104611009Y-98424500D01*
X104551991Y-98409555D01*
X104507200Y-98368322D01*
X104487433Y-98310740D01*
X104497453Y-98250690D01*
X104534847Y-98202646D01*
X104581918Y-98166008D01*
X104696415Y-98076893D01*
X104856192Y-97903329D01*
X104985222Y-97705833D01*
X105079985Y-97489794D01*
X105137898Y-97261103D01*
X105157379Y-97026000D01*
X105137898Y-96790897D01*
X105079985Y-96562206D01*
X104985222Y-96346167D01*
X104856192Y-96148671D01*
X104696415Y-95975107D01*
X104692367Y-95971956D01*
X104514297Y-95833359D01*
X104514291Y-95833355D01*
X104510249Y-95830209D01*
X104505735Y-95827766D01*
X104307279Y-95720367D01*
X104307273Y-95720364D01*
X104302773Y-95717929D01*
X104297932Y-95716267D01*
X104297925Y-95716264D01*
X104084499Y-95642995D01*
X104084498Y-95642994D01*
X104079646Y-95641329D01*
X104074596Y-95640486D01*
X104074587Y-95640484D01*
X103852017Y-95603344D01*
X103852008Y-95603343D01*
X103846955Y-95602500D01*
X103611045Y-95602500D01*
X103605992Y-95603343D01*
X103605982Y-95603344D01*
X103383412Y-95640484D01*
X103383400Y-95640486D01*
X103378354Y-95641329D01*
X103373504Y-95642993D01*
X103373500Y-95642995D01*
X103160074Y-95716264D01*
X103160063Y-95716268D01*
X103155227Y-95717929D01*
X103150730Y-95720362D01*
X103150720Y-95720367D01*
X102952264Y-95827766D01*
X102952257Y-95827770D01*
X102947751Y-95830209D01*
X102943713Y-95833351D01*
X102943702Y-95833359D01*
X102765632Y-95971956D01*
X102765624Y-95971963D01*
X102761585Y-95975107D01*
X102758115Y-95978875D01*
X102758111Y-95978880D01*
X102605283Y-96144895D01*
X102605277Y-96144902D01*
X102601808Y-96148671D01*
X102599004Y-96152962D01*
X102599000Y-96152968D01*
X102475582Y-96341873D01*
X102475575Y-96341885D01*
X102472778Y-96346167D01*
X102470723Y-96350851D01*
X102470717Y-96350863D01*
X102380075Y-96557509D01*
X102378015Y-96562206D01*
X102376757Y-96567171D01*
X102376756Y-96567176D01*
X102321361Y-96785922D01*
X102321359Y-96785931D01*
X102320102Y-96790897D01*
X102319678Y-96796006D01*
X102319677Y-96796016D01*
X102301045Y-97020883D01*
X102300621Y-97026000D01*
X102301045Y-97031117D01*
X102319677Y-97255983D01*
X102319678Y-97255991D01*
X102320102Y-97261103D01*
X102321359Y-97266070D01*
X102321361Y-97266077D01*
X102376756Y-97484823D01*
X102378015Y-97489794D01*
X102380075Y-97494490D01*
X102470717Y-97701136D01*
X102470720Y-97701142D01*
X102472778Y-97705833D01*
X102475578Y-97710119D01*
X102475582Y-97710126D01*
X102597203Y-97896280D01*
X102601808Y-97903329D01*
X102761585Y-98076893D01*
X102765631Y-98080042D01*
X102765632Y-98080043D01*
X102923153Y-98202646D01*
X102960547Y-98250690D01*
X102970567Y-98310740D01*
X102950800Y-98368322D01*
X102906009Y-98409555D01*
X102846991Y-98424500D01*
X101597500Y-98424500D01*
X101535500Y-98407887D01*
X101490113Y-98362500D01*
X101473500Y-98300500D01*
X101473500Y-94874518D01*
X103425000Y-94874518D01*
X103425353Y-94881114D01*
X103430573Y-94929667D01*
X103434111Y-94944641D01*
X103478547Y-95063777D01*
X103486962Y-95079189D01*
X103562498Y-95180092D01*
X103574907Y-95192501D01*
X103675810Y-95268037D01*
X103691222Y-95276452D01*
X103810358Y-95320888D01*
X103825332Y-95324426D01*
X103873885Y-95329646D01*
X103880482Y-95330000D01*
X104508674Y-95330000D01*
X104521549Y-95326549D01*
X104525000Y-95313674D01*
X105025000Y-95313674D01*
X105028450Y-95326549D01*
X105041326Y-95330000D01*
X105669518Y-95330000D01*
X105676114Y-95329646D01*
X105724667Y-95324426D01*
X105739641Y-95320888D01*
X105858777Y-95276452D01*
X105874189Y-95268037D01*
X105975092Y-95192501D01*
X105987501Y-95180092D01*
X106063037Y-95079189D01*
X106071452Y-95063777D01*
X106114681Y-94947877D01*
X106150633Y-94896663D01*
X106207014Y-94869525D01*
X106269469Y-94873373D01*
X106322092Y-94907227D01*
X106388288Y-94979135D01*
X106388291Y-94979138D01*
X106391760Y-94982906D01*
X106395801Y-94986051D01*
X106565376Y-95118039D01*
X106565381Y-95118042D01*
X106569424Y-95121189D01*
X106573931Y-95123628D01*
X106573934Y-95123630D01*
X106701197Y-95192501D01*
X106767426Y-95228342D01*
X106980365Y-95301444D01*
X107202431Y-95338500D01*
X107422436Y-95338500D01*
X107427569Y-95338500D01*
X107649635Y-95301444D01*
X107862574Y-95228342D01*
X108060576Y-95121189D01*
X108238240Y-94982906D01*
X108390722Y-94817268D01*
X108513860Y-94628791D01*
X108604296Y-94422616D01*
X108659564Y-94204368D01*
X108678156Y-93980000D01*
X108659564Y-93755632D01*
X108604296Y-93537384D01*
X108513860Y-93331209D01*
X108390722Y-93142732D01*
X108238240Y-92977094D01*
X108225597Y-92967253D01*
X108064623Y-92841960D01*
X108064615Y-92841955D01*
X108060576Y-92838811D01*
X108056071Y-92836373D01*
X108056065Y-92836369D01*
X107867080Y-92734096D01*
X107867074Y-92734093D01*
X107862574Y-92731658D01*
X107857733Y-92729996D01*
X107857726Y-92729993D01*
X107654488Y-92660222D01*
X107654487Y-92660221D01*
X107649635Y-92658556D01*
X107644585Y-92657713D01*
X107644576Y-92657711D01*
X107432631Y-92622344D01*
X107432622Y-92622343D01*
X107427569Y-92621500D01*
X107202431Y-92621500D01*
X107197378Y-92622343D01*
X107197368Y-92622344D01*
X106985423Y-92657711D01*
X106985411Y-92657713D01*
X106980365Y-92658556D01*
X106975515Y-92660220D01*
X106975511Y-92660222D01*
X106772273Y-92729993D01*
X106772262Y-92729997D01*
X106767426Y-92731658D01*
X106762929Y-92734091D01*
X106762919Y-92734096D01*
X106573934Y-92836369D01*
X106573922Y-92836376D01*
X106569424Y-92838811D01*
X106565389Y-92841951D01*
X106565376Y-92841960D01*
X106395801Y-92973948D01*
X106395795Y-92973952D01*
X106391760Y-92977094D01*
X106342751Y-93030332D01*
X106322092Y-93052773D01*
X106269468Y-93086626D01*
X106207014Y-93090474D01*
X106150633Y-93063336D01*
X106114681Y-93012122D01*
X106071452Y-92896222D01*
X106063037Y-92880810D01*
X105987501Y-92779907D01*
X105975092Y-92767498D01*
X105874189Y-92691962D01*
X105858777Y-92683547D01*
X105739641Y-92639111D01*
X105724667Y-92635573D01*
X105676114Y-92630353D01*
X105669518Y-92630000D01*
X105041326Y-92630000D01*
X105028450Y-92633450D01*
X105025000Y-92646326D01*
X105025000Y-95313674D01*
X104525000Y-95313674D01*
X104525000Y-94246326D01*
X104521549Y-94233450D01*
X104508674Y-94230000D01*
X103441326Y-94230000D01*
X103428450Y-94233450D01*
X103425000Y-94246326D01*
X103425000Y-94874518D01*
X101473500Y-94874518D01*
X101473500Y-93713674D01*
X103425000Y-93713674D01*
X103428450Y-93726549D01*
X103441326Y-93730000D01*
X104508674Y-93730000D01*
X104521549Y-93726549D01*
X104525000Y-93713674D01*
X104525000Y-92646326D01*
X104521549Y-92633450D01*
X104508674Y-92630000D01*
X103880482Y-92630000D01*
X103873885Y-92630353D01*
X103825332Y-92635573D01*
X103810358Y-92639111D01*
X103691222Y-92683547D01*
X103675810Y-92691962D01*
X103574907Y-92767498D01*
X103562498Y-92779907D01*
X103486962Y-92880810D01*
X103478547Y-92896222D01*
X103434111Y-93015358D01*
X103430573Y-93030332D01*
X103425353Y-93078885D01*
X103425000Y-93085482D01*
X103425000Y-93713674D01*
X101473500Y-93713674D01*
X101473500Y-87120551D01*
X102416688Y-87120551D01*
X102417056Y-87131780D01*
X102469168Y-87326263D01*
X102472856Y-87336397D01*
X102568113Y-87540676D01*
X102573501Y-87550008D01*
X102702784Y-87734643D01*
X102709721Y-87742909D01*
X102869090Y-87902278D01*
X102877356Y-87909215D01*
X103061991Y-88038498D01*
X103071323Y-88043886D01*
X103275602Y-88139143D01*
X103285736Y-88142831D01*
X103480219Y-88194943D01*
X103491448Y-88195311D01*
X103494000Y-88184369D01*
X103994000Y-88184369D01*
X103996551Y-88195311D01*
X104007780Y-88194943D01*
X104202263Y-88142831D01*
X104212397Y-88139143D01*
X104416676Y-88043886D01*
X104426008Y-88038498D01*
X104610643Y-87909215D01*
X104618909Y-87902278D01*
X104778278Y-87742909D01*
X104785219Y-87734638D01*
X104912424Y-87552970D01*
X104956742Y-87514104D01*
X105013999Y-87500093D01*
X105071255Y-87514103D01*
X105115574Y-87552969D01*
X105242784Y-87734643D01*
X105249721Y-87742909D01*
X105409090Y-87902278D01*
X105417356Y-87909215D01*
X105601991Y-88038498D01*
X105611323Y-88043886D01*
X105815602Y-88139143D01*
X105825736Y-88142831D01*
X106020219Y-88194943D01*
X106031448Y-88195311D01*
X106034000Y-88184369D01*
X106534000Y-88184369D01*
X106536551Y-88195311D01*
X106547780Y-88194943D01*
X106742263Y-88142831D01*
X106752397Y-88139143D01*
X106956676Y-88043886D01*
X106966008Y-88038498D01*
X107150643Y-87909215D01*
X107158909Y-87902278D01*
X107318278Y-87742909D01*
X107325219Y-87734638D01*
X107452424Y-87552970D01*
X107496742Y-87514104D01*
X107553999Y-87500093D01*
X107611255Y-87514103D01*
X107655574Y-87552969D01*
X107782784Y-87734643D01*
X107789721Y-87742909D01*
X107949090Y-87902278D01*
X107957356Y-87909215D01*
X108141991Y-88038498D01*
X108151323Y-88043886D01*
X108355602Y-88139143D01*
X108365736Y-88142831D01*
X108560219Y-88194943D01*
X108571448Y-88195311D01*
X108574000Y-88184369D01*
X109074000Y-88184369D01*
X109076551Y-88195311D01*
X109087780Y-88194943D01*
X109282263Y-88142831D01*
X109292397Y-88139143D01*
X109496676Y-88043886D01*
X109506008Y-88038498D01*
X109690643Y-87909215D01*
X109698909Y-87902278D01*
X109858278Y-87742909D01*
X109865215Y-87734643D01*
X109994498Y-87550008D01*
X109999886Y-87540676D01*
X110095143Y-87336397D01*
X110098831Y-87326263D01*
X110150943Y-87131780D01*
X110151311Y-87120551D01*
X110140369Y-87118000D01*
X109090326Y-87118000D01*
X109077450Y-87121450D01*
X109074000Y-87134326D01*
X109074000Y-88184369D01*
X108574000Y-88184369D01*
X108574000Y-87134326D01*
X108570549Y-87121450D01*
X108557674Y-87118000D01*
X106550326Y-87118000D01*
X106537450Y-87121450D01*
X106534000Y-87134326D01*
X106534000Y-88184369D01*
X106034000Y-88184369D01*
X106034000Y-87134326D01*
X106030549Y-87121450D01*
X106017674Y-87118000D01*
X104010326Y-87118000D01*
X103997450Y-87121450D01*
X103994000Y-87134326D01*
X103994000Y-88184369D01*
X103494000Y-88184369D01*
X103494000Y-87134326D01*
X103490549Y-87121450D01*
X103477674Y-87118000D01*
X102427631Y-87118000D01*
X102416688Y-87120551D01*
X101473500Y-87120551D01*
X101473500Y-86738000D01*
X101490113Y-86676000D01*
X101535500Y-86630613D01*
X101597500Y-86614000D01*
X102396209Y-86614000D01*
X102424367Y-86617239D01*
G37*
%TD.AperFunction*%
%TD*%
%TA.AperFunction,Conductor*%
%TO.N,+1V8*%
G36*
X107751266Y-75199668D02*
G01*
X107796154Y-75241460D01*
X107815523Y-75299654D01*
X107804633Y-75360011D01*
X107766150Y-75407767D01*
X107711835Y-75448426D01*
X107711831Y-75448429D01*
X107704739Y-75453739D01*
X107699429Y-75460831D01*
X107699426Y-75460835D01*
X107622426Y-75563695D01*
X107622423Y-75563698D01*
X107617111Y-75570796D01*
X107614013Y-75579099D01*
X107614011Y-75579105D01*
X107568719Y-75700536D01*
X107568717Y-75700543D01*
X107566011Y-75707799D01*
X107565182Y-75715500D01*
X107565182Y-75715505D01*
X107559853Y-75765075D01*
X107559500Y-75768362D01*
X107559500Y-77365638D01*
X107566011Y-77426201D01*
X107568717Y-77433458D01*
X107568719Y-77433463D01*
X107614011Y-77554894D01*
X107617111Y-77563204D01*
X107622425Y-77570303D01*
X107622428Y-77570308D01*
X107681921Y-77649781D01*
X107703820Y-77697733D01*
X107703820Y-77750449D01*
X107681921Y-77798401D01*
X107629964Y-77867806D01*
X107621547Y-77883222D01*
X107577111Y-78002358D01*
X107573573Y-78017332D01*
X107568353Y-78065885D01*
X107568000Y-78072482D01*
X107568000Y-78600674D01*
X107571450Y-78613549D01*
X107584326Y-78617000D01*
X109093000Y-78617000D01*
X109093000Y-79117000D01*
X107584326Y-79117000D01*
X107571450Y-79120450D01*
X107568000Y-79133326D01*
X107568000Y-79661518D01*
X107568353Y-79668114D01*
X107573573Y-79716667D01*
X107577111Y-79731641D01*
X107621547Y-79850777D01*
X107629962Y-79866189D01*
X107681921Y-79935597D01*
X107703820Y-79983549D01*
X107703820Y-80036265D01*
X107681922Y-80084218D01*
X107622425Y-80163696D01*
X107622422Y-80163700D01*
X107617111Y-80170796D01*
X107614013Y-80179101D01*
X107614009Y-80179109D01*
X107605160Y-80202835D01*
X107578721Y-80245071D01*
X107537791Y-80273488D01*
X107488979Y-80283500D01*
X106082998Y-80283500D01*
X106057217Y-80280790D01*
X105892849Y-80245852D01*
X105892846Y-80245851D01*
X105886487Y-80244500D01*
X105695513Y-80244500D01*
X105689154Y-80245851D01*
X105689150Y-80245852D01*
X105515072Y-80282853D01*
X105515061Y-80282856D01*
X105508712Y-80284206D01*
X105502782Y-80286845D01*
X105502773Y-80286849D01*
X105340182Y-80359239D01*
X105340174Y-80359243D01*
X105334248Y-80361882D01*
X105328999Y-80365695D01*
X105328993Y-80365699D01*
X105185000Y-80470316D01*
X105184991Y-80470323D01*
X105179747Y-80474134D01*
X105175403Y-80478957D01*
X105175400Y-80478961D01*
X105056307Y-80611228D01*
X105051960Y-80616056D01*
X105048714Y-80621676D01*
X105048711Y-80621682D01*
X104959721Y-80775817D01*
X104959718Y-80775822D01*
X104956473Y-80781444D01*
X104954467Y-80787616D01*
X104954465Y-80787622D01*
X104899465Y-80956892D01*
X104899463Y-80956901D01*
X104897458Y-80963072D01*
X104896780Y-80969522D01*
X104896778Y-80969532D01*
X104885784Y-81074140D01*
X104877496Y-81153000D01*
X104878175Y-81159460D01*
X104896778Y-81336467D01*
X104896779Y-81336475D01*
X104897458Y-81342928D01*
X104899463Y-81349100D01*
X104899465Y-81349107D01*
X104929493Y-81441521D01*
X104956473Y-81524556D01*
X105051960Y-81689944D01*
X105179747Y-81831866D01*
X105184997Y-81835680D01*
X105185000Y-81835683D01*
X105253848Y-81885704D01*
X105334248Y-81944118D01*
X105508712Y-82021794D01*
X105515070Y-82023145D01*
X105515072Y-82023146D01*
X105644750Y-82050710D01*
X105698675Y-82077011D01*
X105733940Y-82125549D01*
X105742290Y-82184962D01*
X105721770Y-82241340D01*
X105677183Y-82281486D01*
X105618969Y-82296000D01*
X105029000Y-82296000D01*
X105029000Y-82312326D01*
X105029000Y-83416240D01*
X105013453Y-83476356D01*
X104970710Y-83521398D01*
X104911490Y-83540070D01*
X104850642Y-83527690D01*
X104803425Y-83487363D01*
X104785215Y-83461357D01*
X104778280Y-83453092D01*
X104618909Y-83293721D01*
X104610643Y-83286784D01*
X104426008Y-83157501D01*
X104416676Y-83152113D01*
X104212397Y-83056856D01*
X104202263Y-83053168D01*
X104007780Y-83001056D01*
X103996551Y-83000688D01*
X103994000Y-83011631D01*
X103994000Y-84454000D01*
X103977387Y-84516000D01*
X103932000Y-84561387D01*
X103870000Y-84578000D01*
X102427631Y-84578000D01*
X102424367Y-84578761D01*
X102396209Y-84582000D01*
X101597500Y-84582000D01*
X101535500Y-84565387D01*
X101490113Y-84520000D01*
X101473500Y-84458000D01*
X101473500Y-84075448D01*
X102416688Y-84075448D01*
X102427631Y-84078000D01*
X103477674Y-84078000D01*
X103490549Y-84074549D01*
X103494000Y-84061674D01*
X103494000Y-83011631D01*
X103491448Y-83000688D01*
X103480219Y-83001056D01*
X103285736Y-83053168D01*
X103275602Y-83056856D01*
X103071332Y-83152110D01*
X103061982Y-83157508D01*
X102877357Y-83286784D01*
X102869092Y-83293719D01*
X102709719Y-83453092D01*
X102702784Y-83461357D01*
X102573508Y-83645982D01*
X102568110Y-83655332D01*
X102472856Y-83859602D01*
X102469168Y-83869736D01*
X102417056Y-84064219D01*
X102416688Y-84075448D01*
X101473500Y-84075448D01*
X101473500Y-81369398D01*
X101487625Y-81311923D01*
X101526781Y-81267541D01*
X101582048Y-81246365D01*
X101640835Y-81253217D01*
X101653357Y-81257887D01*
X101668332Y-81261426D01*
X101716885Y-81266646D01*
X101723482Y-81267000D01*
X102501674Y-81267000D01*
X102514549Y-81263549D01*
X102518000Y-81250674D01*
X103018000Y-81250674D01*
X103021450Y-81263549D01*
X103034326Y-81267000D01*
X103812518Y-81267000D01*
X103819114Y-81266646D01*
X103867667Y-81261426D01*
X103882641Y-81257888D01*
X104001777Y-81213452D01*
X104017189Y-81205037D01*
X104118092Y-81129501D01*
X104130501Y-81117092D01*
X104206037Y-81016189D01*
X104214452Y-81000777D01*
X104258888Y-80881641D01*
X104262426Y-80866667D01*
X104267646Y-80818114D01*
X104268000Y-80811518D01*
X104268000Y-79133326D01*
X104264549Y-79120450D01*
X104251674Y-79117000D01*
X103034326Y-79117000D01*
X103021450Y-79120450D01*
X103018000Y-79133326D01*
X103018000Y-81250674D01*
X102518000Y-81250674D01*
X102518000Y-78600674D01*
X103018000Y-78600674D01*
X103021450Y-78613549D01*
X103034326Y-78617000D01*
X104251674Y-78617000D01*
X104264549Y-78613549D01*
X104268000Y-78600674D01*
X104268000Y-76922482D01*
X104267646Y-76915885D01*
X104262426Y-76867332D01*
X104258888Y-76852358D01*
X104214452Y-76733222D01*
X104206037Y-76717810D01*
X104130501Y-76616907D01*
X104118092Y-76604498D01*
X104017189Y-76528962D01*
X104001777Y-76520547D01*
X103882641Y-76476111D01*
X103867667Y-76472573D01*
X103819114Y-76467353D01*
X103812518Y-76467000D01*
X103034326Y-76467000D01*
X103021450Y-76470450D01*
X103018000Y-76483326D01*
X103018000Y-78600674D01*
X102518000Y-78600674D01*
X102518000Y-76483326D01*
X102514549Y-76470450D01*
X102501674Y-76467000D01*
X101723482Y-76467000D01*
X101716885Y-76467353D01*
X101668332Y-76472573D01*
X101653357Y-76476112D01*
X101640835Y-76480783D01*
X101582048Y-76487635D01*
X101526781Y-76466459D01*
X101487625Y-76422077D01*
X101473500Y-76364602D01*
X101473500Y-75308500D01*
X101490113Y-75246500D01*
X101535500Y-75201113D01*
X101597500Y-75184500D01*
X107691839Y-75184500D01*
X107751266Y-75199668D01*
G37*
%TD.AperFunction*%
%TD*%
%TA.AperFunction,Conductor*%
%TO.N,/TOP_POWER_RAIL*%
G36*
X152954000Y-86634613D02*
G01*
X152999387Y-86680000D01*
X153016000Y-86742000D01*
X153016000Y-86994000D01*
X152999387Y-87056000D01*
X152954000Y-87101387D01*
X152892000Y-87118000D01*
X150492326Y-87118000D01*
X150479450Y-87121450D01*
X150476000Y-87134326D01*
X150476000Y-88184369D01*
X150478551Y-88195311D01*
X150489779Y-88194943D01*
X150570269Y-88173376D01*
X150629728Y-88172208D01*
X150682893Y-88198859D01*
X150717534Y-88247199D01*
X150725684Y-88306108D01*
X150725175Y-88310952D01*
X150725175Y-88310959D01*
X150724496Y-88317419D01*
X150725175Y-88323879D01*
X150743778Y-88500886D01*
X150743779Y-88500894D01*
X150744458Y-88507347D01*
X150746463Y-88513519D01*
X150746465Y-88513526D01*
X150755904Y-88542575D01*
X150803473Y-88688975D01*
X150898960Y-88854363D01*
X151026747Y-88996285D01*
X151031997Y-89000099D01*
X151032000Y-89000102D01*
X151121900Y-89065418D01*
X151181248Y-89108537D01*
X151187181Y-89111178D01*
X151187182Y-89111179D01*
X151309928Y-89165829D01*
X151355712Y-89186213D01*
X151362070Y-89187564D01*
X151362072Y-89187565D01*
X151388418Y-89193165D01*
X151542513Y-89225919D01*
X151726984Y-89225919D01*
X151733487Y-89225919D01*
X151826240Y-89206203D01*
X151838353Y-89203629D01*
X151864134Y-89200919D01*
X153252541Y-89200919D01*
X153271940Y-89202446D01*
X153278909Y-89203550D01*
X153285343Y-89204569D01*
X153351743Y-89201088D01*
X153358233Y-89200919D01*
X153374888Y-89200919D01*
X153378142Y-89200919D01*
X153397950Y-89198836D01*
X153404401Y-89198328D01*
X153470807Y-89194849D01*
X153483909Y-89191337D01*
X153503045Y-89187791D01*
X153516538Y-89186373D01*
X153522719Y-89184364D01*
X153522726Y-89184363D01*
X153579771Y-89165827D01*
X153585992Y-89163984D01*
X153650199Y-89146781D01*
X153662288Y-89140620D01*
X153680264Y-89133174D01*
X153693167Y-89128983D01*
X153750757Y-89095732D01*
X153756424Y-89092654D01*
X153815675Y-89062466D01*
X153826214Y-89053931D01*
X153842252Y-89042907D01*
X153854005Y-89036123D01*
X153903418Y-88991629D01*
X153908326Y-88987438D01*
X153923822Y-88974891D01*
X153937908Y-88960803D01*
X153942598Y-88956351D01*
X153992021Y-88911853D01*
X153999997Y-88900874D01*
X154012633Y-88886079D01*
X154854818Y-88043894D01*
X154904182Y-88013644D01*
X154961898Y-88009102D01*
X155015385Y-88031257D01*
X155052985Y-88075280D01*
X155066500Y-88131575D01*
X155066500Y-98300500D01*
X155049887Y-98362500D01*
X155004500Y-98407887D01*
X154942500Y-98424500D01*
X153633009Y-98424500D01*
X153573991Y-98409555D01*
X153529200Y-98368322D01*
X153509433Y-98310740D01*
X153519453Y-98250690D01*
X153556847Y-98202646D01*
X153603918Y-98166008D01*
X153718415Y-98076893D01*
X153878192Y-97903329D01*
X154007222Y-97705833D01*
X154101985Y-97489794D01*
X154159898Y-97261103D01*
X154179379Y-97026000D01*
X154159898Y-96790897D01*
X154101985Y-96562206D01*
X154007222Y-96346167D01*
X153878192Y-96148671D01*
X153718415Y-95975107D01*
X153714367Y-95971956D01*
X153536297Y-95833359D01*
X153536291Y-95833355D01*
X153532249Y-95830209D01*
X153527735Y-95827766D01*
X153329279Y-95720367D01*
X153329273Y-95720364D01*
X153324773Y-95717929D01*
X153319932Y-95716267D01*
X153319925Y-95716264D01*
X153106499Y-95642995D01*
X153106498Y-95642994D01*
X153101646Y-95641329D01*
X153096596Y-95640486D01*
X153096587Y-95640484D01*
X152874017Y-95603344D01*
X152874008Y-95603343D01*
X152868955Y-95602500D01*
X152633045Y-95602500D01*
X152627992Y-95603343D01*
X152627982Y-95603344D01*
X152405412Y-95640484D01*
X152405400Y-95640486D01*
X152400354Y-95641329D01*
X152395504Y-95642993D01*
X152395500Y-95642995D01*
X152182074Y-95716264D01*
X152182063Y-95716268D01*
X152177227Y-95717929D01*
X152172730Y-95720362D01*
X152172720Y-95720367D01*
X151974264Y-95827766D01*
X151974257Y-95827770D01*
X151969751Y-95830209D01*
X151965713Y-95833351D01*
X151965702Y-95833359D01*
X151787632Y-95971956D01*
X151787624Y-95971963D01*
X151783585Y-95975107D01*
X151780115Y-95978875D01*
X151780111Y-95978880D01*
X151627283Y-96144895D01*
X151627277Y-96144902D01*
X151623808Y-96148671D01*
X151621004Y-96152962D01*
X151621000Y-96152968D01*
X151497582Y-96341873D01*
X151497575Y-96341885D01*
X151494778Y-96346167D01*
X151492723Y-96350851D01*
X151492717Y-96350863D01*
X151402075Y-96557509D01*
X151400015Y-96562206D01*
X151398757Y-96567171D01*
X151398756Y-96567176D01*
X151343361Y-96785922D01*
X151343359Y-96785931D01*
X151342102Y-96790897D01*
X151341678Y-96796006D01*
X151341677Y-96796016D01*
X151323045Y-97020883D01*
X151322621Y-97026000D01*
X151323045Y-97031117D01*
X151341677Y-97255983D01*
X151341678Y-97255991D01*
X151342102Y-97261103D01*
X151343359Y-97266070D01*
X151343361Y-97266077D01*
X151398756Y-97484823D01*
X151400015Y-97489794D01*
X151402075Y-97494490D01*
X151492717Y-97701136D01*
X151492720Y-97701142D01*
X151494778Y-97705833D01*
X151497578Y-97710119D01*
X151497582Y-97710126D01*
X151619203Y-97896280D01*
X151623808Y-97903329D01*
X151783585Y-98076893D01*
X151787631Y-98080042D01*
X151787632Y-98080043D01*
X151945153Y-98202646D01*
X151982547Y-98250690D01*
X151992567Y-98310740D01*
X151972800Y-98368322D01*
X151928009Y-98409555D01*
X151868991Y-98424500D01*
X148553009Y-98424500D01*
X148493991Y-98409555D01*
X148449200Y-98368322D01*
X148429433Y-98310740D01*
X148439453Y-98250690D01*
X148476847Y-98202646D01*
X148523918Y-98166008D01*
X148638415Y-98076893D01*
X148798192Y-97903329D01*
X148927222Y-97705833D01*
X149021985Y-97489794D01*
X149079898Y-97261103D01*
X149099379Y-97026000D01*
X149079898Y-96790897D01*
X149021985Y-96562206D01*
X148927222Y-96346167D01*
X148798192Y-96148671D01*
X148638415Y-95975107D01*
X148634367Y-95971956D01*
X148456297Y-95833359D01*
X148456291Y-95833355D01*
X148452249Y-95830209D01*
X148447735Y-95827766D01*
X148249279Y-95720367D01*
X148249273Y-95720364D01*
X148244773Y-95717929D01*
X148239932Y-95716267D01*
X148239925Y-95716264D01*
X148026499Y-95642995D01*
X148026498Y-95642994D01*
X148021646Y-95641329D01*
X148016596Y-95640486D01*
X148016587Y-95640484D01*
X147794017Y-95603344D01*
X147794008Y-95603343D01*
X147788955Y-95602500D01*
X147553045Y-95602500D01*
X147547992Y-95603343D01*
X147547982Y-95603344D01*
X147325412Y-95640484D01*
X147325400Y-95640486D01*
X147320354Y-95641329D01*
X147315504Y-95642993D01*
X147315500Y-95642995D01*
X147102074Y-95716264D01*
X147102063Y-95716268D01*
X147097227Y-95717929D01*
X147092730Y-95720362D01*
X147092720Y-95720367D01*
X146894264Y-95827766D01*
X146894257Y-95827770D01*
X146889751Y-95830209D01*
X146885713Y-95833351D01*
X146885702Y-95833359D01*
X146707632Y-95971956D01*
X146707624Y-95971963D01*
X146703585Y-95975107D01*
X146700115Y-95978875D01*
X146700111Y-95978880D01*
X146547283Y-96144895D01*
X146547277Y-96144902D01*
X146543808Y-96148671D01*
X146541004Y-96152962D01*
X146541000Y-96152968D01*
X146417582Y-96341873D01*
X146417575Y-96341885D01*
X146414778Y-96346167D01*
X146412723Y-96350851D01*
X146412717Y-96350863D01*
X146322075Y-96557509D01*
X146320015Y-96562206D01*
X146318757Y-96567171D01*
X146318756Y-96567176D01*
X146263361Y-96785922D01*
X146263359Y-96785931D01*
X146262102Y-96790897D01*
X146261678Y-96796006D01*
X146261677Y-96796016D01*
X146243045Y-97020883D01*
X146242621Y-97026000D01*
X146243045Y-97031117D01*
X146261677Y-97255983D01*
X146261678Y-97255991D01*
X146262102Y-97261103D01*
X146263359Y-97266070D01*
X146263361Y-97266077D01*
X146318756Y-97484823D01*
X146320015Y-97489794D01*
X146322075Y-97494490D01*
X146412717Y-97701136D01*
X146412720Y-97701142D01*
X146414778Y-97705833D01*
X146417578Y-97710119D01*
X146417582Y-97710126D01*
X146539203Y-97896280D01*
X146543808Y-97903329D01*
X146703585Y-98076893D01*
X146707631Y-98080042D01*
X146707632Y-98080043D01*
X146865153Y-98202646D01*
X146902547Y-98250690D01*
X146912567Y-98310740D01*
X146892800Y-98368322D01*
X146848009Y-98409555D01*
X146788991Y-98424500D01*
X145920500Y-98424500D01*
X145858500Y-98407887D01*
X145813113Y-98362500D01*
X145796500Y-98300500D01*
X145796500Y-94874518D01*
X147875000Y-94874518D01*
X147875353Y-94881114D01*
X147880573Y-94929667D01*
X147884111Y-94944641D01*
X147928547Y-95063777D01*
X147936962Y-95079189D01*
X148012498Y-95180092D01*
X148024907Y-95192501D01*
X148125810Y-95268037D01*
X148141222Y-95276452D01*
X148260358Y-95320888D01*
X148275332Y-95324426D01*
X148323885Y-95329646D01*
X148330482Y-95330000D01*
X148958674Y-95330000D01*
X148971549Y-95326549D01*
X148975000Y-95313674D01*
X149475000Y-95313674D01*
X149478450Y-95326549D01*
X149491326Y-95330000D01*
X150119518Y-95330000D01*
X150126114Y-95329646D01*
X150174667Y-95324426D01*
X150189641Y-95320888D01*
X150308777Y-95276452D01*
X150324189Y-95268037D01*
X150425092Y-95192501D01*
X150437501Y-95180092D01*
X150513037Y-95079189D01*
X150521452Y-95063777D01*
X150564681Y-94947877D01*
X150600633Y-94896663D01*
X150657014Y-94869525D01*
X150719469Y-94873373D01*
X150772092Y-94907227D01*
X150838288Y-94979135D01*
X150838291Y-94979138D01*
X150841760Y-94982906D01*
X150845801Y-94986051D01*
X151015376Y-95118039D01*
X151015381Y-95118042D01*
X151019424Y-95121189D01*
X151023931Y-95123628D01*
X151023934Y-95123630D01*
X151151197Y-95192501D01*
X151217426Y-95228342D01*
X151430365Y-95301444D01*
X151652431Y-95338500D01*
X151872436Y-95338500D01*
X151877569Y-95338500D01*
X152099635Y-95301444D01*
X152312574Y-95228342D01*
X152510576Y-95121189D01*
X152688240Y-94982906D01*
X152840722Y-94817268D01*
X152963860Y-94628791D01*
X153054296Y-94422616D01*
X153109564Y-94204368D01*
X153128156Y-93980000D01*
X153109564Y-93755632D01*
X153054296Y-93537384D01*
X152963860Y-93331209D01*
X152840722Y-93142732D01*
X152688240Y-92977094D01*
X152675597Y-92967253D01*
X152514623Y-92841960D01*
X152514615Y-92841955D01*
X152510576Y-92838811D01*
X152506071Y-92836373D01*
X152506065Y-92836369D01*
X152317080Y-92734096D01*
X152317074Y-92734093D01*
X152312574Y-92731658D01*
X152307733Y-92729996D01*
X152307726Y-92729993D01*
X152104488Y-92660222D01*
X152104487Y-92660221D01*
X152099635Y-92658556D01*
X152094585Y-92657713D01*
X152094576Y-92657711D01*
X151882631Y-92622344D01*
X151882622Y-92622343D01*
X151877569Y-92621500D01*
X151652431Y-92621500D01*
X151647378Y-92622343D01*
X151647368Y-92622344D01*
X151435423Y-92657711D01*
X151435411Y-92657713D01*
X151430365Y-92658556D01*
X151425515Y-92660220D01*
X151425511Y-92660222D01*
X151222273Y-92729993D01*
X151222262Y-92729997D01*
X151217426Y-92731658D01*
X151212929Y-92734091D01*
X151212919Y-92734096D01*
X151023934Y-92836369D01*
X151023922Y-92836376D01*
X151019424Y-92838811D01*
X151015389Y-92841951D01*
X151015376Y-92841960D01*
X150845801Y-92973948D01*
X150845795Y-92973952D01*
X150841760Y-92977094D01*
X150792751Y-93030332D01*
X150772092Y-93052773D01*
X150719468Y-93086626D01*
X150657014Y-93090474D01*
X150600633Y-93063336D01*
X150564681Y-93012122D01*
X150521452Y-92896222D01*
X150513037Y-92880810D01*
X150437501Y-92779907D01*
X150425092Y-92767498D01*
X150324189Y-92691962D01*
X150308777Y-92683547D01*
X150189641Y-92639111D01*
X150174667Y-92635573D01*
X150126114Y-92630353D01*
X150119518Y-92630000D01*
X149491326Y-92630000D01*
X149478450Y-92633450D01*
X149475000Y-92646326D01*
X149475000Y-95313674D01*
X148975000Y-95313674D01*
X148975000Y-94246326D01*
X148971549Y-94233450D01*
X148958674Y-94230000D01*
X147891326Y-94230000D01*
X147878450Y-94233450D01*
X147875000Y-94246326D01*
X147875000Y-94874518D01*
X145796500Y-94874518D01*
X145796500Y-93713674D01*
X147875000Y-93713674D01*
X147878450Y-93726549D01*
X147891326Y-93730000D01*
X148958674Y-93730000D01*
X148971549Y-93726549D01*
X148975000Y-93713674D01*
X148975000Y-92646326D01*
X148971549Y-92633450D01*
X148958674Y-92630000D01*
X148330482Y-92630000D01*
X148323885Y-92630353D01*
X148275332Y-92635573D01*
X148260358Y-92639111D01*
X148141222Y-92683547D01*
X148125810Y-92691962D01*
X148024907Y-92767498D01*
X148012498Y-92779907D01*
X147936962Y-92880810D01*
X147928547Y-92896222D01*
X147884111Y-93015358D01*
X147880573Y-93030332D01*
X147875353Y-93078885D01*
X147875000Y-93085482D01*
X147875000Y-93713674D01*
X145796500Y-93713674D01*
X145796500Y-88542575D01*
X145810015Y-88486280D01*
X145847615Y-88442257D01*
X145901102Y-88420102D01*
X145958818Y-88424644D01*
X146008181Y-88454894D01*
X146439366Y-88886079D01*
X146452003Y-88900875D01*
X146459979Y-88911853D01*
X146464807Y-88916200D01*
X146464809Y-88916202D01*
X146509387Y-88956340D01*
X146514093Y-88960806D01*
X146528178Y-88974891D01*
X146530691Y-88976926D01*
X146530701Y-88976935D01*
X146543660Y-88987429D01*
X146548592Y-88991641D01*
X146597995Y-89036123D01*
X146603621Y-89039371D01*
X146603624Y-89039373D01*
X146609744Y-89042906D01*
X146625783Y-89053929D01*
X146636325Y-89062466D01*
X146642113Y-89065415D01*
X146642116Y-89065417D01*
X146669233Y-89079233D01*
X146695552Y-89092643D01*
X146701249Y-89095737D01*
X146753201Y-89125732D01*
X146753206Y-89125734D01*
X146758833Y-89128983D01*
X146771729Y-89133173D01*
X146789708Y-89140619D01*
X146801801Y-89146781D01*
X146808069Y-89148460D01*
X146808073Y-89148462D01*
X146836835Y-89156168D01*
X146866026Y-89163989D01*
X146872202Y-89165818D01*
X146935462Y-89186373D01*
X146948674Y-89187761D01*
X146948956Y-89187791D01*
X146968094Y-89191338D01*
X146981192Y-89194848D01*
X147047581Y-89198326D01*
X147054029Y-89198834D01*
X147073858Y-89200919D01*
X147093785Y-89200919D01*
X147100274Y-89201088D01*
X147166657Y-89204568D01*
X147180054Y-89202446D01*
X147199453Y-89200919D01*
X148617866Y-89200919D01*
X148643647Y-89203629D01*
X148660100Y-89207126D01*
X148748513Y-89225919D01*
X148932984Y-89225919D01*
X148939487Y-89225919D01*
X149126288Y-89186213D01*
X149300752Y-89108537D01*
X149455253Y-88996285D01*
X149583040Y-88854363D01*
X149678527Y-88688975D01*
X149737542Y-88507347D01*
X149757504Y-88317419D01*
X149756825Y-88310959D01*
X149756825Y-88304457D01*
X149758558Y-88304457D01*
X149765334Y-88255473D01*
X149799975Y-88207131D01*
X149853141Y-88180479D01*
X149912601Y-88181648D01*
X149962217Y-88194943D01*
X149973448Y-88195311D01*
X149976000Y-88184369D01*
X149976000Y-87134326D01*
X149972549Y-87121450D01*
X149959674Y-87118000D01*
X147560000Y-87118000D01*
X147498000Y-87101387D01*
X147452613Y-87056000D01*
X147436000Y-86994000D01*
X147436000Y-86742000D01*
X147452613Y-86680000D01*
X147498000Y-86634613D01*
X147560000Y-86618000D01*
X152892000Y-86618000D01*
X152954000Y-86634613D01*
G37*
%TD.AperFunction*%
%TD*%
%TA.AperFunction,Conductor*%
%TO.N,+3.3V*%
G36*
X155004500Y-75201113D02*
G01*
X155049887Y-75246500D01*
X155066500Y-75308500D01*
X155066500Y-76364602D01*
X155052375Y-76422077D01*
X155013219Y-76466459D01*
X154957952Y-76487635D01*
X154899165Y-76480783D01*
X154886642Y-76476112D01*
X154871667Y-76472573D01*
X154823114Y-76467353D01*
X154816518Y-76467000D01*
X154038326Y-76467000D01*
X154025450Y-76470450D01*
X154022000Y-76483326D01*
X154022000Y-81250674D01*
X154025572Y-81264007D01*
X154083270Y-81298846D01*
X154114138Y-81360418D01*
X154107390Y-81428963D01*
X154065107Y-81483332D01*
X154061007Y-81486310D01*
X154060993Y-81486322D01*
X154055747Y-81490134D01*
X154051403Y-81494957D01*
X154051400Y-81494961D01*
X153990032Y-81563118D01*
X153927960Y-81632056D01*
X153924714Y-81637676D01*
X153924711Y-81637682D01*
X153835721Y-81791817D01*
X153835718Y-81791822D01*
X153832473Y-81797444D01*
X153830467Y-81803616D01*
X153830465Y-81803622D01*
X153775465Y-81972892D01*
X153775463Y-81972901D01*
X153773458Y-81979072D01*
X153772780Y-81985522D01*
X153772778Y-81985532D01*
X153754778Y-82156795D01*
X153753496Y-82169000D01*
X153754175Y-82175460D01*
X153772778Y-82352467D01*
X153772779Y-82352475D01*
X153773458Y-82358928D01*
X153775464Y-82365104D01*
X153775466Y-82365110D01*
X153777431Y-82371157D01*
X153783500Y-82409474D01*
X153783500Y-82845500D01*
X153766887Y-82907500D01*
X153721500Y-82952887D01*
X153659500Y-82969500D01*
X151867362Y-82969500D01*
X151864082Y-82969852D01*
X151864075Y-82969853D01*
X151814505Y-82975182D01*
X151814500Y-82975182D01*
X151806799Y-82976011D01*
X151799543Y-82978717D01*
X151799536Y-82978719D01*
X151678105Y-83024011D01*
X151678099Y-83024013D01*
X151669796Y-83027111D01*
X151662698Y-83032423D01*
X151662695Y-83032426D01*
X151559835Y-83109426D01*
X151559831Y-83109429D01*
X151552739Y-83114739D01*
X151547429Y-83121831D01*
X151547426Y-83121835D01*
X151470426Y-83224695D01*
X151470423Y-83224698D01*
X151465111Y-83231796D01*
X151462013Y-83240099D01*
X151462011Y-83240105D01*
X151416778Y-83361380D01*
X151381798Y-83411759D01*
X151326954Y-83439212D01*
X151265661Y-83437023D01*
X151212915Y-83405727D01*
X151100909Y-83293721D01*
X151092643Y-83286784D01*
X150908008Y-83157501D01*
X150898676Y-83152113D01*
X150694397Y-83056856D01*
X150684263Y-83053168D01*
X150489780Y-83001056D01*
X150478551Y-83000688D01*
X150476000Y-83011631D01*
X150476000Y-84454000D01*
X150459387Y-84516000D01*
X150414000Y-84561387D01*
X150352000Y-84578000D01*
X150100000Y-84578000D01*
X150038000Y-84561387D01*
X149992613Y-84516000D01*
X149976000Y-84454000D01*
X149976000Y-83011631D01*
X149973448Y-83000688D01*
X149962219Y-83001056D01*
X149767736Y-83053168D01*
X149757602Y-83056856D01*
X149553332Y-83152110D01*
X149543982Y-83157508D01*
X149359357Y-83286784D01*
X149351092Y-83293719D01*
X149191715Y-83453096D01*
X149189990Y-83455153D01*
X149188779Y-83456032D01*
X149187890Y-83456922D01*
X149187749Y-83456781D01*
X149141452Y-83490419D01*
X149082039Y-83498770D01*
X149025661Y-83478250D01*
X148985515Y-83433664D01*
X148971000Y-83375449D01*
X148971000Y-82049100D01*
X148973523Y-82027448D01*
X148973989Y-82026201D01*
X148980500Y-81965638D01*
X148980500Y-81799190D01*
X148993050Y-81744832D01*
X149028158Y-81701477D01*
X149078719Y-81677900D01*
X149246927Y-81642146D01*
X149246926Y-81642146D01*
X149253288Y-81640794D01*
X149427752Y-81563118D01*
X149582253Y-81450866D01*
X149710040Y-81308944D01*
X149805527Y-81143556D01*
X149864542Y-80961928D01*
X149880351Y-80811518D01*
X152272000Y-80811518D01*
X152272353Y-80818114D01*
X152277573Y-80866667D01*
X152281111Y-80881641D01*
X152325547Y-81000777D01*
X152333962Y-81016189D01*
X152409498Y-81117092D01*
X152421907Y-81129501D01*
X152522810Y-81205037D01*
X152538222Y-81213452D01*
X152657358Y-81257888D01*
X152672332Y-81261426D01*
X152720885Y-81266646D01*
X152727482Y-81267000D01*
X153505674Y-81267000D01*
X153518549Y-81263549D01*
X153522000Y-81250674D01*
X153522000Y-79133326D01*
X153518549Y-79120450D01*
X153505674Y-79117000D01*
X152288326Y-79117000D01*
X152275450Y-79120450D01*
X152272000Y-79133326D01*
X152272000Y-80811518D01*
X149880351Y-80811518D01*
X149884504Y-80772000D01*
X149864542Y-80582072D01*
X149805527Y-80400444D01*
X149710040Y-80235056D01*
X149582253Y-80093134D01*
X149577003Y-80089319D01*
X149576999Y-80089316D01*
X149433006Y-79984699D01*
X149433004Y-79984697D01*
X149427752Y-79980882D01*
X149421821Y-79978241D01*
X149421817Y-79978239D01*
X149259226Y-79905849D01*
X149259219Y-79905846D01*
X149253288Y-79903206D01*
X149246935Y-79901855D01*
X149246927Y-79901853D01*
X149066487Y-79863500D01*
X149066855Y-79861768D01*
X149010831Y-79838882D01*
X148970764Y-79782395D01*
X148967819Y-79724614D01*
X148965598Y-79724376D01*
X148971646Y-79668114D01*
X148972000Y-79661518D01*
X148972000Y-79133326D01*
X148968549Y-79120450D01*
X148955674Y-79117000D01*
X147447000Y-79117000D01*
X147447000Y-78617000D01*
X148955674Y-78617000D01*
X148968549Y-78613549D01*
X148972000Y-78600674D01*
X152272000Y-78600674D01*
X152275450Y-78613549D01*
X152288326Y-78617000D01*
X153505674Y-78617000D01*
X153518549Y-78613549D01*
X153522000Y-78600674D01*
X153522000Y-76483326D01*
X153518549Y-76470450D01*
X153505674Y-76467000D01*
X152727482Y-76467000D01*
X152720885Y-76467353D01*
X152672332Y-76472573D01*
X152657358Y-76476111D01*
X152538222Y-76520547D01*
X152522810Y-76528962D01*
X152421907Y-76604498D01*
X152409498Y-76616907D01*
X152333962Y-76717810D01*
X152325547Y-76733222D01*
X152281111Y-76852358D01*
X152277573Y-76867332D01*
X152272353Y-76915885D01*
X152272000Y-76922482D01*
X152272000Y-78600674D01*
X148972000Y-78600674D01*
X148972000Y-78072482D01*
X148971646Y-78065885D01*
X148966426Y-78017332D01*
X148962888Y-78002358D01*
X148918452Y-77883222D01*
X148910035Y-77867805D01*
X148858079Y-77798402D01*
X148836177Y-77750441D01*
X148836183Y-77697715D01*
X148858095Y-77649758D01*
X148860410Y-77646667D01*
X148904168Y-77610110D01*
X148959660Y-77597000D01*
X149339789Y-77597000D01*
X149352000Y-77597000D01*
X149356460Y-77592539D01*
X149382257Y-77580339D01*
X149418252Y-77575000D01*
X149451880Y-77575000D01*
X149458383Y-77575000D01*
X149645184Y-77535294D01*
X149819648Y-77457618D01*
X149974149Y-77345366D01*
X150101936Y-77203444D01*
X150197423Y-77038056D01*
X150256438Y-76856428D01*
X150271094Y-76716980D01*
X150282493Y-76676563D01*
X150306728Y-76642271D01*
X151728181Y-75220818D01*
X151768409Y-75193939D01*
X151815862Y-75184500D01*
X154942500Y-75184500D01*
X155004500Y-75201113D01*
G37*
%TD.AperFunction*%
%TD*%
M02*
