M48
; DRILL file {KiCad (7.0.0-0)} date Monday, May 01, 2023 at 05:43:04 PM
; FORMAT={-:-/ absolute / inch / decimal}
; #@! TF.CreationDate,2023-05-01T17:43:04-06:00
; #@! TF.GenerationSoftware,Kicad,Pcbnew,(7.0.0-0)
; #@! TF.FileFunction,Plated,1,2,PTH
FMAT,2
INCH
; #@! TA.AperFunction,Plated,PTH,ViaDrill
T1C0.0157
; #@! TA.AperFunction,Plated,PTH,ComponentDrill
T2C0.0394
; #@! TA.AperFunction,Plated,PTH,ComponentDrill
T3C0.0480
; #@! TA.AperFunction,Plated,PTH,ComponentDrill
T4C0.0528
%
G90
G05
T1
X4.23Y-3.165
X4.2316Y-2.9799
X4.385Y-3.1709
X4.48Y-3.0183
X4.48Y-3.1696
X4.5334Y-3.208
X4.62Y-3.03
X4.935Y-3.4643
X4.9695Y-3.2824
X5.1299Y-3.3165
X5.1327Y-3.2773
X5.17Y-3.4643
X5.195Y-3.32
X5.215Y-3.385
X5.4214Y-3.0249
X5.52Y-3.0183
X5.605Y-3.09
X5.6257Y-3.1086
X5.6934Y-3.1618
X5.865Y-3.5145
X5.875Y-3.0666
X5.9Y-3.175
X6.0893Y-3.2034
T2
X4.0844Y-3.32
X4.0844Y-3.42
X4.125Y-3.7
X4.1844Y-3.32
X4.1844Y-3.42
X4.225Y-3.7
X4.2844Y-3.32
X4.2844Y-3.42
X4.6Y-3.1
X4.7Y-3.1
X5.4Y-3.1
X5.5Y-3.1
X5.8144Y-3.32
X5.8144Y-3.42
X5.875Y-3.7
X5.9144Y-3.32
X5.9144Y-3.42
X5.975Y-3.7
X6.0144Y-3.32
X6.0144Y-3.42
T3
X4.085Y-3.82
X4.285Y-3.82
X4.55Y-3.4
X4.75Y-3.4
X5.35Y-3.4
X5.55Y-3.4
X5.815Y-3.82
X6.015Y-3.82
T4
X4.8799Y-3.0665
X4.8799Y-3.2161
X5.2201Y-3.0665
X5.2201Y-3.2161
T0
M30
