%TF.GenerationSoftware,KiCad,Pcbnew,(7.0.0-0)*%
%TF.CreationDate,2023-04-23T17:53:29-06:00*%
%TF.ProjectId,Breadboard Power Supply,42726561-6462-46f6-9172-6420506f7765,v5*%
%TF.SameCoordinates,Original*%
%TF.FileFunction,Copper,L2,Bot*%
%TF.FilePolarity,Positive*%
%FSLAX46Y46*%
G04 Gerber Fmt 4.6, Leading zero omitted, Abs format (unit mm)*
G04 Created by KiCad (PCBNEW (7.0.0-0)) date 2023-04-23 17:53:29*
%MOMM*%
%LPD*%
G01*
G04 APERTURE LIST*
%TA.AperFunction,ComponentPad*%
%ADD10C,2.010000*%
%TD*%
%TA.AperFunction,ComponentPad*%
%ADD11C,1.830000*%
%TD*%
%TA.AperFunction,ComponentPad*%
%ADD12R,1.700000X1.700000*%
%TD*%
%TA.AperFunction,ComponentPad*%
%ADD13O,1.700000X1.700000*%
%TD*%
%TA.AperFunction,ViaPad*%
%ADD14C,0.800000*%
%TD*%
%TA.AperFunction,Conductor*%
%ADD15C,0.750000*%
%TD*%
G04 APERTURE END LIST*
D10*
%TO.P,J1,MH1,MH1*%
%TO.N,GND*%
X132590000Y-77888000D03*
%TO.P,J1,MH2,MH2*%
X123950000Y-77888000D03*
%TO.P,J1,MH3,MH3*%
X132590000Y-81688000D03*
%TO.P,J1,MH4,MH4*%
X123950000Y-81688000D03*
%TD*%
D11*
%TO.P,TP3,1,1*%
%TO.N,GND*%
X135890000Y-83058000D03*
%TO.P,TP3,2,2*%
X140970000Y-83058000D03*
%TD*%
D12*
%TO.P,J2,1,Pin_1*%
%TO.N,+5V*%
X152765999Y-84327999D03*
D13*
%TO.P,J2,2,Pin_2*%
%TO.N,/TOP_POWER_RAIL*%
X152765999Y-86867999D03*
%TO.P,J2,3,Pin_3*%
%TO.N,+3.3V*%
X150225999Y-84327999D03*
%TO.P,J2,4,Pin_4*%
%TO.N,/TOP_POWER_RAIL*%
X150225999Y-86867999D03*
%TO.P,J2,5,Pin_5*%
%TO.N,+1V8*%
X147685999Y-84327999D03*
%TO.P,J2,6,Pin_6*%
%TO.N,/TOP_POWER_RAIL*%
X147685999Y-86867999D03*
%TD*%
D11*
%TO.P,TP2,1,1*%
%TO.N,GND*%
X120650000Y-83058000D03*
%TO.P,TP2,2,2*%
X115570000Y-83058000D03*
%TD*%
D12*
%TO.P,J3,1,Pin_1*%
%TO.N,+5V*%
X108823999Y-84327999D03*
D13*
%TO.P,J3,2,Pin_2*%
%TO.N,/BOTTOM_POWER_RAIL*%
X108823999Y-86867999D03*
%TO.P,J3,3,Pin_3*%
%TO.N,+3.3V*%
X106283999Y-84327999D03*
%TO.P,J3,4,Pin_4*%
%TO.N,/BOTTOM_POWER_RAIL*%
X106283999Y-86867999D03*
%TO.P,J3,5,Pin_5*%
%TO.N,+1V8*%
X103743999Y-84327999D03*
%TO.P,J3,6,Pin_6*%
%TO.N,/BOTTOM_POWER_RAIL*%
X103743999Y-86867999D03*
%TD*%
D11*
%TO.P,TP1,1,1*%
%TO.N,GND*%
X103759000Y-97028000D03*
%TO.P,TP1,2,2*%
X108839000Y-97028000D03*
%TD*%
%TO.P,TP4,1,1*%
%TO.N,GND*%
X147701000Y-97028000D03*
%TO.P,TP4,2,2*%
X152781000Y-97028000D03*
%TD*%
D12*
%TO.P,J10,1,Pin_1*%
%TO.N,unconnected-(J10-Pin_1-Pad1)*%
X116839999Y-78739999D03*
D13*
%TO.P,J10,2,Pin_2*%
%TO.N,unconnected-(J10-Pin_2-Pad2)*%
X119379999Y-78739999D03*
%TD*%
D12*
%TO.P,J8,1,Pin_1*%
%TO.N,/TOP_POWER_RAIL*%
X149224999Y-93979999D03*
D13*
%TO.P,J8,2,Pin_2*%
%TO.N,GND*%
X151764999Y-93979999D03*
%TD*%
D12*
%TO.P,J11,1,Pin_1*%
%TO.N,unconnected-(J11-Pin_1-Pad1)*%
X139699999Y-78739999D03*
D13*
%TO.P,J11,2,Pin_2*%
%TO.N,unconnected-(J11-Pin_2-Pad2)*%
X137159999Y-78739999D03*
%TD*%
D12*
%TO.P,J9,1,Pin_1*%
%TO.N,/BOTTOM_POWER_RAIL*%
X104774999Y-93979999D03*
D13*
%TO.P,J9,2,Pin_2*%
%TO.N,GND*%
X107314999Y-93979999D03*
%TD*%
D14*
%TO.N,GND*%
X138176000Y-77216000D03*
X115443000Y-76664148D03*
X142240000Y-79756000D03*
X114300000Y-76664148D03*
X121285000Y-79248000D03*
X114173000Y-80010000D03*
X149225000Y-77892500D03*
X141256889Y-77260133D03*
X107442000Y-80391000D03*
%TO.N,+3.3V*%
X149860000Y-80645000D03*
%TO.N,/TOP_POWER_RAIL*%
X148971000Y-89267500D03*
%TO.N,+1V8*%
X107482182Y-75689648D03*
X154667000Y-81366502D03*
%TO.N,+5V*%
X115148000Y-81482000D03*
%TD*%
D15*
%TO.N,+3.3V*%
X150226000Y-84328000D02*
X150226000Y-81011000D01*
X150226000Y-81011000D02*
X149860000Y-80645000D01*
%TO.N,/TOP_POWER_RAIL*%
X148971000Y-88123000D02*
X148971000Y-89267500D01*
X150226000Y-86868000D02*
X148971000Y-88123000D01*
%TO.N,+1V8*%
X149331507Y-75689648D02*
X149333859Y-75692000D01*
X149333859Y-75692000D02*
X154686000Y-75692000D01*
X154686000Y-81347502D02*
X154667000Y-81366502D01*
X107482182Y-75689648D02*
X149331507Y-75689648D01*
X154686000Y-75692000D02*
X154686000Y-81153000D01*
X154686000Y-81153000D02*
X154686000Y-81347502D01*
%TO.N,+5V*%
X108824000Y-84328000D02*
X111670000Y-81482000D01*
X111670000Y-81482000D02*
X115148000Y-81482000D01*
%TD*%
%TA.AperFunction,Conductor*%
%TO.N,GND*%
G36*
X106576685Y-75198015D02*
G01*
X106620708Y-75235615D01*
X106642863Y-75289102D01*
X106638321Y-75346818D01*
X106590647Y-75493540D01*
X106590645Y-75493549D01*
X106588640Y-75499720D01*
X106587962Y-75506170D01*
X106587960Y-75506180D01*
X106573298Y-75645694D01*
X106568678Y-75689648D01*
X106569357Y-75696108D01*
X106587960Y-75873115D01*
X106587961Y-75873123D01*
X106588640Y-75879576D01*
X106590645Y-75885748D01*
X106590647Y-75885755D01*
X106645647Y-76055025D01*
X106647655Y-76061204D01*
X106743142Y-76226592D01*
X106870929Y-76368514D01*
X106876179Y-76372328D01*
X106876182Y-76372331D01*
X107019045Y-76476127D01*
X107025430Y-76480766D01*
X107199894Y-76558442D01*
X107206252Y-76559793D01*
X107206254Y-76559794D01*
X107243056Y-76567616D01*
X107386695Y-76598148D01*
X107571166Y-76598148D01*
X107577669Y-76598148D01*
X107682534Y-76575858D01*
X107708316Y-76573148D01*
X122957333Y-76573148D01*
X123015433Y-76587602D01*
X123059988Y-76627593D01*
X123062417Y-76634213D01*
X123062712Y-76634029D01*
X123084724Y-76669170D01*
X123938457Y-77522903D01*
X123950000Y-77529567D01*
X123961542Y-77522903D01*
X124815274Y-76669170D01*
X124837287Y-76634029D01*
X124837581Y-76634213D01*
X124840011Y-76627593D01*
X124884566Y-76587602D01*
X124942666Y-76573148D01*
X131597333Y-76573148D01*
X131655433Y-76587602D01*
X131699988Y-76627593D01*
X131702417Y-76634213D01*
X131702712Y-76634029D01*
X131724724Y-76669170D01*
X132578457Y-77522903D01*
X132590000Y-77529567D01*
X132601542Y-77522903D01*
X133455274Y-76669170D01*
X133477287Y-76634029D01*
X133477581Y-76634213D01*
X133480011Y-76627593D01*
X133524566Y-76587602D01*
X133582666Y-76573148D01*
X149258674Y-76573148D01*
X149271635Y-76573827D01*
X149287553Y-76575500D01*
X149307475Y-76575500D01*
X149313964Y-76575670D01*
X149380352Y-76579149D01*
X149393756Y-76577026D01*
X149413154Y-76575500D01*
X153678500Y-76575500D01*
X153740500Y-76592113D01*
X153785887Y-76637500D01*
X153802500Y-76699500D01*
X153802500Y-81067552D01*
X153796431Y-81105870D01*
X153775465Y-81170395D01*
X153775463Y-81170401D01*
X153773458Y-81176574D01*
X153772779Y-81183029D01*
X153772779Y-81183032D01*
X153768239Y-81226229D01*
X153753496Y-81366502D01*
X153754175Y-81372962D01*
X153772778Y-81549969D01*
X153772779Y-81549977D01*
X153773458Y-81556430D01*
X153775463Y-81562602D01*
X153775465Y-81562609D01*
X153816208Y-81688000D01*
X153832473Y-81738058D01*
X153835720Y-81743682D01*
X153835721Y-81743684D01*
X153910091Y-81872497D01*
X153927960Y-81903446D01*
X154055747Y-82045368D01*
X154060997Y-82049182D01*
X154061000Y-82049185D01*
X154066382Y-82053095D01*
X154210248Y-82157620D01*
X154384712Y-82235296D01*
X154391070Y-82236647D01*
X154391072Y-82236648D01*
X154417282Y-82242219D01*
X154571513Y-82275002D01*
X154755984Y-82275002D01*
X154762487Y-82275002D01*
X154913350Y-82242935D01*
X154916719Y-82242219D01*
X154971447Y-82242935D01*
X155020536Y-82267143D01*
X155054421Y-82310126D01*
X155066500Y-82363509D01*
X155066500Y-98300500D01*
X155049887Y-98362500D01*
X155004500Y-98407887D01*
X154942500Y-98424500D01*
X153651738Y-98424500D01*
X153592721Y-98409555D01*
X153547930Y-98368323D01*
X153528162Y-98310743D01*
X153538180Y-98250693D01*
X153575572Y-98202650D01*
X153576573Y-98201870D01*
X153584680Y-98190679D01*
X153578020Y-98178573D01*
X152792542Y-97393095D01*
X152781000Y-97386431D01*
X152769457Y-97393095D01*
X151983979Y-98178572D01*
X151977318Y-98190680D01*
X151985424Y-98201869D01*
X151986426Y-98202649D01*
X152023818Y-98250693D01*
X152033837Y-98310742D01*
X152014069Y-98368323D01*
X151969278Y-98409555D01*
X151910261Y-98424500D01*
X148571738Y-98424500D01*
X148512721Y-98409555D01*
X148467930Y-98368323D01*
X148448162Y-98310743D01*
X148458180Y-98250693D01*
X148495572Y-98202650D01*
X148496573Y-98201870D01*
X148504680Y-98190679D01*
X148498020Y-98178573D01*
X147712542Y-97393095D01*
X147701000Y-97386431D01*
X147689457Y-97393095D01*
X146903979Y-98178572D01*
X146897318Y-98190680D01*
X146905424Y-98201869D01*
X146906426Y-98202649D01*
X146943818Y-98250693D01*
X146953837Y-98310742D01*
X146934069Y-98368323D01*
X146889278Y-98409555D01*
X146830261Y-98424500D01*
X145920500Y-98424500D01*
X145858500Y-98407887D01*
X145813113Y-98362500D01*
X145796500Y-98300500D01*
X145796500Y-97033117D01*
X146281574Y-97033117D01*
X146300090Y-97256580D01*
X146301774Y-97266675D01*
X146356822Y-97484054D01*
X146360141Y-97493721D01*
X146450217Y-97699075D01*
X146455086Y-97708070D01*
X146531407Y-97824888D01*
X146539375Y-97832613D01*
X146548756Y-97826689D01*
X147335904Y-97039542D01*
X147342568Y-97028000D01*
X148059431Y-97028000D01*
X148066095Y-97039542D01*
X148853242Y-97826689D01*
X148862624Y-97832613D01*
X148870588Y-97824893D01*
X148946916Y-97708066D01*
X148951781Y-97699077D01*
X149041858Y-97493721D01*
X149045177Y-97484054D01*
X149100225Y-97266675D01*
X149101909Y-97256580D01*
X149120426Y-97033117D01*
X151361574Y-97033117D01*
X151380090Y-97256580D01*
X151381774Y-97266675D01*
X151436822Y-97484054D01*
X151440141Y-97493721D01*
X151530217Y-97699075D01*
X151535086Y-97708070D01*
X151611407Y-97824888D01*
X151619375Y-97832613D01*
X151628756Y-97826689D01*
X152415904Y-97039542D01*
X152422568Y-97028000D01*
X153139431Y-97028000D01*
X153146095Y-97039542D01*
X153933242Y-97826689D01*
X153942624Y-97832613D01*
X153950588Y-97824893D01*
X154026916Y-97708066D01*
X154031781Y-97699077D01*
X154121858Y-97493721D01*
X154125177Y-97484054D01*
X154180225Y-97266675D01*
X154181909Y-97256580D01*
X154200426Y-97033117D01*
X154200426Y-97022883D01*
X154181909Y-96799419D01*
X154180225Y-96789324D01*
X154125177Y-96571945D01*
X154121858Y-96562278D01*
X154031782Y-96356924D01*
X154026913Y-96347929D01*
X153950591Y-96231110D01*
X153942623Y-96223385D01*
X153933242Y-96229309D01*
X153146095Y-97016457D01*
X153139431Y-97028000D01*
X152422568Y-97028000D01*
X152415904Y-97016457D01*
X151628756Y-96229309D01*
X151619374Y-96223385D01*
X151611410Y-96231105D01*
X151535081Y-96347937D01*
X151530219Y-96356920D01*
X151440141Y-96562278D01*
X151436822Y-96571945D01*
X151381774Y-96789324D01*
X151380090Y-96799419D01*
X151361574Y-97022883D01*
X151361574Y-97033117D01*
X149120426Y-97033117D01*
X149120426Y-97022883D01*
X149101909Y-96799419D01*
X149100225Y-96789324D01*
X149045177Y-96571945D01*
X149041858Y-96562278D01*
X148951782Y-96356924D01*
X148946913Y-96347929D01*
X148870591Y-96231110D01*
X148862623Y-96223385D01*
X148853242Y-96229309D01*
X148066095Y-97016457D01*
X148059431Y-97028000D01*
X147342568Y-97028000D01*
X147335904Y-97016457D01*
X146548756Y-96229309D01*
X146539374Y-96223385D01*
X146531410Y-96231105D01*
X146455081Y-96347937D01*
X146450219Y-96356920D01*
X146360141Y-96562278D01*
X146356822Y-96571945D01*
X146301774Y-96789324D01*
X146300090Y-96799419D01*
X146281574Y-97022883D01*
X146281574Y-97033117D01*
X145796500Y-97033117D01*
X145796500Y-95865320D01*
X146897319Y-95865320D01*
X146903978Y-95877425D01*
X147689457Y-96662904D01*
X147701000Y-96669568D01*
X147712542Y-96662904D01*
X148498019Y-95877426D01*
X148504678Y-95865320D01*
X151977319Y-95865320D01*
X151983978Y-95877425D01*
X152769457Y-96662904D01*
X152781000Y-96669568D01*
X152792542Y-96662904D01*
X153578019Y-95877426D01*
X153584679Y-95865319D01*
X153576573Y-95854129D01*
X153561629Y-95842497D01*
X153553077Y-95836910D01*
X153355851Y-95730176D01*
X153346498Y-95726074D01*
X153134404Y-95653262D01*
X153124495Y-95650753D01*
X152903313Y-95613844D01*
X152893116Y-95613000D01*
X152668884Y-95613000D01*
X152658686Y-95613844D01*
X152437504Y-95650753D01*
X152427595Y-95653262D01*
X152215501Y-95726074D01*
X152206148Y-95730176D01*
X152008924Y-95836909D01*
X152000369Y-95842498D01*
X151985425Y-95854129D01*
X151977319Y-95865320D01*
X148504678Y-95865320D01*
X148504679Y-95865319D01*
X148496573Y-95854129D01*
X148481629Y-95842497D01*
X148473077Y-95836910D01*
X148275851Y-95730176D01*
X148266498Y-95726074D01*
X148054404Y-95653262D01*
X148044495Y-95650753D01*
X147823313Y-95613844D01*
X147813116Y-95613000D01*
X147588884Y-95613000D01*
X147578686Y-95613844D01*
X147357504Y-95650753D01*
X147347595Y-95653262D01*
X147135501Y-95726074D01*
X147126148Y-95730176D01*
X146928924Y-95836909D01*
X146920369Y-95842498D01*
X146905425Y-95854129D01*
X146897319Y-95865320D01*
X145796500Y-95865320D01*
X145796500Y-94878638D01*
X147866500Y-94878638D01*
X147873011Y-94939201D01*
X147875717Y-94946458D01*
X147875719Y-94946463D01*
X147921011Y-95067894D01*
X147924111Y-95076204D01*
X148011739Y-95193261D01*
X148128796Y-95280889D01*
X148265799Y-95331989D01*
X148326362Y-95338500D01*
X150120328Y-95338500D01*
X150123638Y-95338500D01*
X150184201Y-95331989D01*
X150321204Y-95280889D01*
X150438261Y-95193261D01*
X150525889Y-95076204D01*
X150574222Y-94946617D01*
X150609200Y-94896240D01*
X150664045Y-94868787D01*
X150725338Y-94870976D01*
X150778084Y-94902272D01*
X150890090Y-95014278D01*
X150898356Y-95021215D01*
X151082991Y-95150498D01*
X151092323Y-95155886D01*
X151296602Y-95251143D01*
X151306736Y-95254831D01*
X151501219Y-95306943D01*
X151512448Y-95307311D01*
X151515000Y-95296369D01*
X152015000Y-95296369D01*
X152017551Y-95307311D01*
X152028780Y-95306943D01*
X152223263Y-95254831D01*
X152233397Y-95251143D01*
X152437676Y-95155886D01*
X152447008Y-95150498D01*
X152631643Y-95021215D01*
X152639909Y-95014278D01*
X152799278Y-94854909D01*
X152806215Y-94846643D01*
X152935498Y-94662008D01*
X152940886Y-94652676D01*
X153036143Y-94448397D01*
X153039831Y-94438263D01*
X153091943Y-94243780D01*
X153092311Y-94232551D01*
X153081369Y-94230000D01*
X152031326Y-94230000D01*
X152018450Y-94233450D01*
X152015000Y-94246326D01*
X152015000Y-95296369D01*
X151515000Y-95296369D01*
X151515000Y-93713674D01*
X152015000Y-93713674D01*
X152018450Y-93726549D01*
X152031326Y-93730000D01*
X153081369Y-93730000D01*
X153092311Y-93727448D01*
X153091943Y-93716219D01*
X153039831Y-93521736D01*
X153036143Y-93511602D01*
X152940889Y-93307332D01*
X152935491Y-93297982D01*
X152806215Y-93113357D01*
X152799280Y-93105092D01*
X152639909Y-92945721D01*
X152631643Y-92938784D01*
X152447008Y-92809501D01*
X152437676Y-92804113D01*
X152233397Y-92708856D01*
X152223263Y-92705168D01*
X152028780Y-92653056D01*
X152017551Y-92652688D01*
X152015000Y-92663631D01*
X152015000Y-93713674D01*
X151515000Y-93713674D01*
X151515000Y-92663631D01*
X151512448Y-92652688D01*
X151501219Y-92653056D01*
X151306736Y-92705168D01*
X151296602Y-92708856D01*
X151092332Y-92804110D01*
X151082982Y-92809508D01*
X150898357Y-92938784D01*
X150890098Y-92945714D01*
X150778084Y-93057728D01*
X150725337Y-93089023D01*
X150664045Y-93091212D01*
X150609200Y-93063759D01*
X150574221Y-93013379D01*
X150528989Y-92892107D01*
X150528988Y-92892105D01*
X150525889Y-92883796D01*
X150438261Y-92766739D01*
X150321204Y-92679111D01*
X150312896Y-92676012D01*
X150312894Y-92676011D01*
X150191463Y-92630719D01*
X150191458Y-92630717D01*
X150184201Y-92628011D01*
X150176497Y-92627182D01*
X150176494Y-92627182D01*
X150126924Y-92621853D01*
X150126918Y-92621852D01*
X150123638Y-92621500D01*
X148326362Y-92621500D01*
X148323082Y-92621852D01*
X148323075Y-92621853D01*
X148273505Y-92627182D01*
X148273500Y-92627182D01*
X148265799Y-92628011D01*
X148258543Y-92630717D01*
X148258536Y-92630719D01*
X148137105Y-92676011D01*
X148137099Y-92676013D01*
X148128796Y-92679111D01*
X148121698Y-92684423D01*
X148121695Y-92684426D01*
X148018835Y-92761426D01*
X148018831Y-92761429D01*
X148011739Y-92766739D01*
X148006429Y-92773831D01*
X148006426Y-92773835D01*
X147929426Y-92876695D01*
X147929423Y-92876698D01*
X147924111Y-92883796D01*
X147921013Y-92892099D01*
X147921011Y-92892105D01*
X147875719Y-93013536D01*
X147875717Y-93013543D01*
X147873011Y-93020799D01*
X147872182Y-93028500D01*
X147872182Y-93028505D01*
X147868392Y-93063759D01*
X147866500Y-93081362D01*
X147866500Y-94878638D01*
X145796500Y-94878638D01*
X145796500Y-86868000D01*
X146322844Y-86868000D01*
X146323268Y-86873117D01*
X146341011Y-87087248D01*
X146341012Y-87087256D01*
X146341436Y-87092368D01*
X146342693Y-87097335D01*
X146342695Y-87097342D01*
X146395445Y-87305645D01*
X146396704Y-87310616D01*
X146398764Y-87315312D01*
X146485080Y-87512096D01*
X146485083Y-87512101D01*
X146487140Y-87516791D01*
X146492870Y-87525561D01*
X146607474Y-87700977D01*
X146607477Y-87700981D01*
X146610278Y-87705268D01*
X146613752Y-87709041D01*
X146613753Y-87709043D01*
X146759288Y-87867135D01*
X146759291Y-87867138D01*
X146762760Y-87870906D01*
X146766801Y-87874051D01*
X146936376Y-88006039D01*
X146936381Y-88006042D01*
X146940424Y-88009189D01*
X146944931Y-88011628D01*
X146944934Y-88011630D01*
X147133919Y-88113903D01*
X147138426Y-88116342D01*
X147351365Y-88189444D01*
X147573431Y-88226500D01*
X147793436Y-88226500D01*
X147798569Y-88226500D01*
X147803633Y-88225655D01*
X147943091Y-88202384D01*
X147996418Y-88205142D01*
X148043641Y-88230071D01*
X148076002Y-88272547D01*
X148087500Y-88324693D01*
X148087500Y-89027026D01*
X148081431Y-89065343D01*
X148079466Y-89071389D01*
X148079464Y-89071397D01*
X148077458Y-89077572D01*
X148076780Y-89084022D01*
X148076778Y-89084032D01*
X148058778Y-89255295D01*
X148057496Y-89267500D01*
X148058175Y-89273960D01*
X148076778Y-89450967D01*
X148076779Y-89450975D01*
X148077458Y-89457428D01*
X148079463Y-89463600D01*
X148079465Y-89463607D01*
X148134465Y-89632877D01*
X148136473Y-89639056D01*
X148231960Y-89804444D01*
X148359747Y-89946366D01*
X148364997Y-89950180D01*
X148365000Y-89950183D01*
X148507863Y-90053979D01*
X148514248Y-90058618D01*
X148688712Y-90136294D01*
X148695070Y-90137645D01*
X148695072Y-90137646D01*
X148731874Y-90145468D01*
X148875513Y-90176000D01*
X149059984Y-90176000D01*
X149066487Y-90176000D01*
X149253288Y-90136294D01*
X149427752Y-90058618D01*
X149582253Y-89946366D01*
X149710040Y-89804444D01*
X149805527Y-89639056D01*
X149864542Y-89457428D01*
X149884504Y-89267500D01*
X149864542Y-89077572D01*
X149860569Y-89065343D01*
X149854500Y-89027026D01*
X149854500Y-88540320D01*
X149863939Y-88492867D01*
X149890819Y-88452639D01*
X150080639Y-88262819D01*
X150120867Y-88235939D01*
X150168320Y-88226500D01*
X150333436Y-88226500D01*
X150338569Y-88226500D01*
X150560635Y-88189444D01*
X150773574Y-88116342D01*
X150971576Y-88009189D01*
X151149240Y-87870906D01*
X151301722Y-87705268D01*
X151392190Y-87566795D01*
X151436982Y-87525561D01*
X151496000Y-87510616D01*
X151555018Y-87525561D01*
X151599809Y-87566795D01*
X151687470Y-87700972D01*
X151687478Y-87700982D01*
X151690278Y-87705268D01*
X151693752Y-87709041D01*
X151693753Y-87709043D01*
X151839288Y-87867135D01*
X151839291Y-87867138D01*
X151842760Y-87870906D01*
X151846801Y-87874051D01*
X152016376Y-88006039D01*
X152016381Y-88006042D01*
X152020424Y-88009189D01*
X152024931Y-88011628D01*
X152024934Y-88011630D01*
X152213919Y-88113903D01*
X152218426Y-88116342D01*
X152431365Y-88189444D01*
X152653431Y-88226500D01*
X152873436Y-88226500D01*
X152878569Y-88226500D01*
X153100635Y-88189444D01*
X153313574Y-88116342D01*
X153511576Y-88009189D01*
X153689240Y-87870906D01*
X153841722Y-87705268D01*
X153964860Y-87516791D01*
X154055296Y-87310616D01*
X154110564Y-87092368D01*
X154129156Y-86868000D01*
X154110564Y-86643632D01*
X154055296Y-86425384D01*
X153964860Y-86219209D01*
X153841722Y-86030732D01*
X153696506Y-85872987D01*
X153667735Y-85820239D01*
X153667142Y-85760152D01*
X153694869Y-85706841D01*
X153744404Y-85672826D01*
X153862204Y-85628889D01*
X153979261Y-85541261D01*
X154066889Y-85424204D01*
X154117989Y-85287201D01*
X154124500Y-85226638D01*
X154124500Y-83429362D01*
X154117989Y-83368799D01*
X154066889Y-83231796D01*
X153979261Y-83114739D01*
X153932398Y-83079658D01*
X153869304Y-83032426D01*
X153869303Y-83032425D01*
X153862204Y-83027111D01*
X153853896Y-83024012D01*
X153853894Y-83024011D01*
X153732463Y-82978719D01*
X153732458Y-82978717D01*
X153725201Y-82976011D01*
X153717497Y-82975182D01*
X153717494Y-82975182D01*
X153667924Y-82969853D01*
X153667918Y-82969852D01*
X153664638Y-82969500D01*
X151867362Y-82969500D01*
X151864082Y-82969852D01*
X151864075Y-82969853D01*
X151814505Y-82975182D01*
X151814500Y-82975182D01*
X151806799Y-82976011D01*
X151799543Y-82978717D01*
X151799536Y-82978719D01*
X151678105Y-83024011D01*
X151678099Y-83024013D01*
X151669796Y-83027111D01*
X151662698Y-83032423D01*
X151662695Y-83032426D01*
X151559835Y-83109426D01*
X151559831Y-83109429D01*
X151552739Y-83114739D01*
X151547429Y-83121831D01*
X151547426Y-83121835D01*
X151470426Y-83224695D01*
X151470423Y-83224698D01*
X151465111Y-83231796D01*
X151462013Y-83240101D01*
X151462009Y-83240109D01*
X151419861Y-83353111D01*
X151383909Y-83404324D01*
X151327528Y-83431461D01*
X151265074Y-83427613D01*
X151212451Y-83393759D01*
X151196567Y-83376505D01*
X151149240Y-83325094D01*
X151148525Y-83324537D01*
X151119943Y-83284503D01*
X151109500Y-83234695D01*
X151109500Y-81090289D01*
X151111027Y-81070891D01*
X151111052Y-81070732D01*
X151113149Y-81057493D01*
X151109670Y-80991105D01*
X151109500Y-80984616D01*
X151109500Y-80967948D01*
X151109500Y-80964694D01*
X151107417Y-80944884D01*
X151106908Y-80938415D01*
X151105594Y-80913342D01*
X151103430Y-80872029D01*
X151099918Y-80858923D01*
X151096372Y-80839794D01*
X151094954Y-80826298D01*
X151090307Y-80811997D01*
X151074409Y-80763069D01*
X151072569Y-80756858D01*
X151055362Y-80692637D01*
X151049200Y-80680544D01*
X151041754Y-80662565D01*
X151039571Y-80655847D01*
X151037564Y-80649669D01*
X151034315Y-80644042D01*
X151034313Y-80644037D01*
X151004318Y-80592085D01*
X151001219Y-80586378D01*
X150995346Y-80574852D01*
X150971047Y-80527161D01*
X150962510Y-80516619D01*
X150951487Y-80500580D01*
X150947954Y-80494460D01*
X150947953Y-80494458D01*
X150944704Y-80488831D01*
X150918476Y-80459702D01*
X150900223Y-80439429D01*
X150896010Y-80434496D01*
X150885516Y-80421537D01*
X150885507Y-80421527D01*
X150883472Y-80419014D01*
X150869389Y-80404931D01*
X150864921Y-80400223D01*
X150824780Y-80355642D01*
X150820434Y-80350815D01*
X150815180Y-80346998D01*
X150815176Y-80346994D01*
X150809449Y-80342833D01*
X150794656Y-80330198D01*
X150646819Y-80182361D01*
X150627113Y-80156680D01*
X150602288Y-80113682D01*
X150599040Y-80108056D01*
X150471253Y-79966134D01*
X150466003Y-79962319D01*
X150465999Y-79962316D01*
X150322006Y-79857699D01*
X150322004Y-79857697D01*
X150316752Y-79853882D01*
X150310821Y-79851241D01*
X150310817Y-79851239D01*
X150148226Y-79778849D01*
X150148219Y-79778846D01*
X150142288Y-79776206D01*
X150135935Y-79774855D01*
X150135927Y-79774853D01*
X149961849Y-79737852D01*
X149961846Y-79737851D01*
X149955487Y-79736500D01*
X149764513Y-79736500D01*
X149758154Y-79737851D01*
X149758150Y-79737852D01*
X149584072Y-79774853D01*
X149584061Y-79774856D01*
X149577712Y-79776206D01*
X149571782Y-79778845D01*
X149571773Y-79778849D01*
X149409182Y-79851239D01*
X149409174Y-79851243D01*
X149403248Y-79853882D01*
X149397999Y-79857695D01*
X149397993Y-79857699D01*
X149254000Y-79962316D01*
X149253991Y-79962323D01*
X149248747Y-79966134D01*
X149244403Y-79970957D01*
X149244400Y-79970961D01*
X149137866Y-80089280D01*
X149120960Y-80108056D01*
X149117714Y-80113676D01*
X149117711Y-80113682D01*
X149028721Y-80267817D01*
X149028718Y-80267822D01*
X149025473Y-80273444D01*
X149023467Y-80279616D01*
X149023465Y-80279622D01*
X148968465Y-80448892D01*
X148968463Y-80448901D01*
X148966458Y-80455072D01*
X148965780Y-80461522D01*
X148965778Y-80461532D01*
X148949980Y-80611853D01*
X148946496Y-80645000D01*
X148947175Y-80651460D01*
X148965778Y-80828467D01*
X148965779Y-80828475D01*
X148966458Y-80834928D01*
X148968463Y-80841100D01*
X148968465Y-80841107D01*
X149009679Y-80967948D01*
X149025473Y-81016556D01*
X149028720Y-81022180D01*
X149028721Y-81022182D01*
X149077038Y-81105870D01*
X149120960Y-81181944D01*
X149248747Y-81323866D01*
X149254000Y-81327683D01*
X149254004Y-81327686D01*
X149291385Y-81354845D01*
X149328985Y-81398868D01*
X149342500Y-81455163D01*
X149342500Y-83234695D01*
X149332057Y-83284503D01*
X149303474Y-83324537D01*
X149302760Y-83325094D01*
X149299289Y-83328863D01*
X149299284Y-83328869D01*
X149153753Y-83486956D01*
X149153747Y-83486963D01*
X149150278Y-83490732D01*
X149147481Y-83495012D01*
X149147474Y-83495022D01*
X149059809Y-83629205D01*
X149015017Y-83670438D01*
X148956000Y-83685383D01*
X148896983Y-83670438D01*
X148852191Y-83629205D01*
X148764525Y-83495022D01*
X148764523Y-83495020D01*
X148761722Y-83490732D01*
X148758246Y-83486956D01*
X148612711Y-83328864D01*
X148612708Y-83328861D01*
X148609240Y-83325094D01*
X148572728Y-83296675D01*
X148435623Y-83189960D01*
X148435615Y-83189955D01*
X148431576Y-83186811D01*
X148427071Y-83184373D01*
X148427065Y-83184369D01*
X148238080Y-83082096D01*
X148238074Y-83082093D01*
X148233574Y-83079658D01*
X148228733Y-83077996D01*
X148228726Y-83077993D01*
X148025488Y-83008222D01*
X148025487Y-83008221D01*
X148020635Y-83006556D01*
X148015585Y-83005713D01*
X148015576Y-83005711D01*
X147803631Y-82970344D01*
X147803622Y-82970343D01*
X147798569Y-82969500D01*
X147573431Y-82969500D01*
X147568378Y-82970343D01*
X147568368Y-82970344D01*
X147356423Y-83005711D01*
X147356411Y-83005713D01*
X147351365Y-83006556D01*
X147346515Y-83008220D01*
X147346511Y-83008222D01*
X147143273Y-83077993D01*
X147143262Y-83077997D01*
X147138426Y-83079658D01*
X147133929Y-83082091D01*
X147133919Y-83082096D01*
X146944934Y-83184369D01*
X146944922Y-83184376D01*
X146940424Y-83186811D01*
X146936389Y-83189951D01*
X146936376Y-83189960D01*
X146766801Y-83321948D01*
X146766795Y-83321952D01*
X146762760Y-83325094D01*
X146759297Y-83328855D01*
X146759288Y-83328864D01*
X146613753Y-83486956D01*
X146613747Y-83486963D01*
X146610278Y-83490732D01*
X146607481Y-83495012D01*
X146607474Y-83495022D01*
X146492870Y-83670438D01*
X146487140Y-83679209D01*
X146485085Y-83683892D01*
X146485080Y-83683903D01*
X146406692Y-83862613D01*
X146396704Y-83885384D01*
X146395446Y-83890349D01*
X146395445Y-83890354D01*
X146342695Y-84098657D01*
X146342693Y-84098666D01*
X146341436Y-84103632D01*
X146341012Y-84108741D01*
X146341011Y-84108751D01*
X146323268Y-84322883D01*
X146322844Y-84328000D01*
X146323268Y-84333117D01*
X146341011Y-84547248D01*
X146341012Y-84547256D01*
X146341436Y-84552368D01*
X146342693Y-84557335D01*
X146342695Y-84557342D01*
X146395445Y-84765645D01*
X146396704Y-84770616D01*
X146398764Y-84775312D01*
X146485080Y-84972096D01*
X146485083Y-84972101D01*
X146487140Y-84976791D01*
X146492870Y-84985561D01*
X146607474Y-85160977D01*
X146607477Y-85160981D01*
X146610278Y-85165268D01*
X146613752Y-85169041D01*
X146613753Y-85169043D01*
X146759288Y-85327135D01*
X146759291Y-85327138D01*
X146762760Y-85330906D01*
X146766801Y-85334051D01*
X146936376Y-85466039D01*
X146936381Y-85466042D01*
X146940424Y-85469189D01*
X146944931Y-85471628D01*
X146944934Y-85471630D01*
X146976930Y-85488945D01*
X147024436Y-85534526D01*
X147041913Y-85598000D01*
X147024436Y-85661474D01*
X146976930Y-85707055D01*
X146944934Y-85724369D01*
X146944922Y-85724376D01*
X146940424Y-85726811D01*
X146936389Y-85729951D01*
X146936376Y-85729960D01*
X146766801Y-85861948D01*
X146766795Y-85861952D01*
X146762760Y-85865094D01*
X146759297Y-85868855D01*
X146759288Y-85868864D01*
X146613753Y-86026956D01*
X146613747Y-86026963D01*
X146610278Y-86030732D01*
X146607481Y-86035012D01*
X146607474Y-86035022D01*
X146519809Y-86169205D01*
X146487140Y-86219209D01*
X146485085Y-86223892D01*
X146485080Y-86223903D01*
X146416000Y-86381393D01*
X146396704Y-86425384D01*
X146395446Y-86430349D01*
X146395445Y-86430354D01*
X146342695Y-86638657D01*
X146342693Y-86638666D01*
X146341436Y-86643632D01*
X146341012Y-86648741D01*
X146341011Y-86648751D01*
X146323268Y-86862883D01*
X146322844Y-86868000D01*
X145796500Y-86868000D01*
X145796500Y-85102025D01*
X145796500Y-85090099D01*
X145796541Y-85090000D01*
X145796383Y-85089617D01*
X145796099Y-85089500D01*
X145796000Y-85089459D01*
X145795901Y-85089500D01*
X110744099Y-85089500D01*
X110744000Y-85089459D01*
X110743901Y-85089500D01*
X110743617Y-85089617D01*
X110743459Y-85090000D01*
X110743500Y-85090099D01*
X110743500Y-85102025D01*
X110743500Y-98300500D01*
X110726887Y-98362500D01*
X110681500Y-98407887D01*
X110619500Y-98424500D01*
X109709738Y-98424500D01*
X109650721Y-98409555D01*
X109605930Y-98368323D01*
X109586162Y-98310743D01*
X109596180Y-98250693D01*
X109633572Y-98202650D01*
X109634573Y-98201870D01*
X109642680Y-98190679D01*
X109636020Y-98178573D01*
X108850542Y-97393095D01*
X108839000Y-97386431D01*
X108827457Y-97393095D01*
X108041979Y-98178572D01*
X108035318Y-98190680D01*
X108043424Y-98201869D01*
X108044426Y-98202649D01*
X108081818Y-98250693D01*
X108091837Y-98310742D01*
X108072069Y-98368323D01*
X108027278Y-98409555D01*
X107968261Y-98424500D01*
X104629738Y-98424500D01*
X104570721Y-98409555D01*
X104525930Y-98368323D01*
X104506162Y-98310743D01*
X104516180Y-98250693D01*
X104553572Y-98202650D01*
X104554573Y-98201870D01*
X104562680Y-98190679D01*
X104556020Y-98178573D01*
X103770542Y-97393095D01*
X103759000Y-97386431D01*
X103747457Y-97393095D01*
X102961979Y-98178572D01*
X102955318Y-98190680D01*
X102963424Y-98201869D01*
X102964426Y-98202649D01*
X103001818Y-98250693D01*
X103011837Y-98310742D01*
X102992069Y-98368323D01*
X102947278Y-98409555D01*
X102888261Y-98424500D01*
X101597500Y-98424500D01*
X101535500Y-98407887D01*
X101490113Y-98362500D01*
X101473500Y-98300500D01*
X101473500Y-97033117D01*
X102339574Y-97033117D01*
X102358090Y-97256580D01*
X102359774Y-97266675D01*
X102414822Y-97484054D01*
X102418141Y-97493721D01*
X102508217Y-97699075D01*
X102513086Y-97708070D01*
X102589407Y-97824888D01*
X102597375Y-97832613D01*
X102606756Y-97826689D01*
X103393904Y-97039542D01*
X103400568Y-97028000D01*
X104117431Y-97028000D01*
X104124095Y-97039542D01*
X104911242Y-97826689D01*
X104920624Y-97832613D01*
X104928588Y-97824893D01*
X105004916Y-97708066D01*
X105009781Y-97699077D01*
X105099858Y-97493721D01*
X105103177Y-97484054D01*
X105158225Y-97266675D01*
X105159909Y-97256580D01*
X105178426Y-97033117D01*
X107419574Y-97033117D01*
X107438090Y-97256580D01*
X107439774Y-97266675D01*
X107494822Y-97484054D01*
X107498141Y-97493721D01*
X107588217Y-97699075D01*
X107593086Y-97708070D01*
X107669407Y-97824888D01*
X107677375Y-97832613D01*
X107686756Y-97826689D01*
X108473904Y-97039542D01*
X108480568Y-97028000D01*
X109197431Y-97028000D01*
X109204095Y-97039542D01*
X109991242Y-97826689D01*
X110000624Y-97832613D01*
X110008588Y-97824893D01*
X110084916Y-97708066D01*
X110089781Y-97699077D01*
X110179858Y-97493721D01*
X110183177Y-97484054D01*
X110238225Y-97266675D01*
X110239909Y-97256580D01*
X110258426Y-97033117D01*
X110258426Y-97022883D01*
X110239909Y-96799419D01*
X110238225Y-96789324D01*
X110183177Y-96571945D01*
X110179858Y-96562278D01*
X110089782Y-96356924D01*
X110084913Y-96347929D01*
X110008591Y-96231110D01*
X110000623Y-96223385D01*
X109991242Y-96229309D01*
X109204095Y-97016457D01*
X109197431Y-97028000D01*
X108480568Y-97028000D01*
X108473904Y-97016457D01*
X107686756Y-96229309D01*
X107677374Y-96223385D01*
X107669410Y-96231105D01*
X107593081Y-96347937D01*
X107588219Y-96356920D01*
X107498141Y-96562278D01*
X107494822Y-96571945D01*
X107439774Y-96789324D01*
X107438090Y-96799419D01*
X107419574Y-97022883D01*
X107419574Y-97033117D01*
X105178426Y-97033117D01*
X105178426Y-97022883D01*
X105159909Y-96799419D01*
X105158225Y-96789324D01*
X105103177Y-96571945D01*
X105099858Y-96562278D01*
X105009782Y-96356924D01*
X105004913Y-96347929D01*
X104928591Y-96231110D01*
X104920623Y-96223385D01*
X104911242Y-96229309D01*
X104124095Y-97016457D01*
X104117431Y-97028000D01*
X103400568Y-97028000D01*
X103393904Y-97016457D01*
X102606756Y-96229309D01*
X102597374Y-96223385D01*
X102589410Y-96231105D01*
X102513081Y-96347937D01*
X102508219Y-96356920D01*
X102418141Y-96562278D01*
X102414822Y-96571945D01*
X102359774Y-96789324D01*
X102358090Y-96799419D01*
X102339574Y-97022883D01*
X102339574Y-97033117D01*
X101473500Y-97033117D01*
X101473500Y-95865320D01*
X102955319Y-95865320D01*
X102961978Y-95877425D01*
X103747457Y-96662904D01*
X103759000Y-96669568D01*
X103770542Y-96662904D01*
X104556019Y-95877426D01*
X104562678Y-95865320D01*
X108035319Y-95865320D01*
X108041978Y-95877425D01*
X108827457Y-96662904D01*
X108839000Y-96669568D01*
X108850542Y-96662904D01*
X109636019Y-95877426D01*
X109642679Y-95865319D01*
X109634573Y-95854129D01*
X109619629Y-95842497D01*
X109611077Y-95836910D01*
X109413851Y-95730176D01*
X109404498Y-95726074D01*
X109192404Y-95653262D01*
X109182495Y-95650753D01*
X108961313Y-95613844D01*
X108951116Y-95613000D01*
X108726884Y-95613000D01*
X108716686Y-95613844D01*
X108495504Y-95650753D01*
X108485595Y-95653262D01*
X108273501Y-95726074D01*
X108264148Y-95730176D01*
X108066924Y-95836909D01*
X108058369Y-95842498D01*
X108043425Y-95854129D01*
X108035319Y-95865320D01*
X104562678Y-95865320D01*
X104562679Y-95865319D01*
X104554573Y-95854129D01*
X104539629Y-95842497D01*
X104531077Y-95836910D01*
X104333851Y-95730176D01*
X104324498Y-95726074D01*
X104112404Y-95653262D01*
X104102495Y-95650753D01*
X103881313Y-95613844D01*
X103871116Y-95613000D01*
X103646884Y-95613000D01*
X103636686Y-95613844D01*
X103415504Y-95650753D01*
X103405595Y-95653262D01*
X103193501Y-95726074D01*
X103184148Y-95730176D01*
X102986924Y-95836909D01*
X102978369Y-95842498D01*
X102963425Y-95854129D01*
X102955319Y-95865320D01*
X101473500Y-95865320D01*
X101473500Y-94878638D01*
X103416500Y-94878638D01*
X103423011Y-94939201D01*
X103425717Y-94946458D01*
X103425719Y-94946463D01*
X103471011Y-95067894D01*
X103474111Y-95076204D01*
X103561739Y-95193261D01*
X103678796Y-95280889D01*
X103815799Y-95331989D01*
X103876362Y-95338500D01*
X105670328Y-95338500D01*
X105673638Y-95338500D01*
X105734201Y-95331989D01*
X105871204Y-95280889D01*
X105988261Y-95193261D01*
X106075889Y-95076204D01*
X106124222Y-94946617D01*
X106159200Y-94896240D01*
X106214045Y-94868787D01*
X106275338Y-94870976D01*
X106328084Y-94902272D01*
X106440090Y-95014278D01*
X106448356Y-95021215D01*
X106632991Y-95150498D01*
X106642323Y-95155886D01*
X106846602Y-95251143D01*
X106856736Y-95254831D01*
X107051219Y-95306943D01*
X107062448Y-95307311D01*
X107065000Y-95296369D01*
X107565000Y-95296369D01*
X107567551Y-95307311D01*
X107578780Y-95306943D01*
X107773263Y-95254831D01*
X107783397Y-95251143D01*
X107987676Y-95155886D01*
X107997008Y-95150498D01*
X108181643Y-95021215D01*
X108189909Y-95014278D01*
X108349278Y-94854909D01*
X108356215Y-94846643D01*
X108485498Y-94662008D01*
X108490886Y-94652676D01*
X108586143Y-94448397D01*
X108589831Y-94438263D01*
X108641943Y-94243780D01*
X108642311Y-94232551D01*
X108631369Y-94230000D01*
X107581326Y-94230000D01*
X107568450Y-94233450D01*
X107565000Y-94246326D01*
X107565000Y-95296369D01*
X107065000Y-95296369D01*
X107065000Y-93713674D01*
X107565000Y-93713674D01*
X107568450Y-93726549D01*
X107581326Y-93730000D01*
X108631369Y-93730000D01*
X108642311Y-93727448D01*
X108641943Y-93716219D01*
X108589831Y-93521736D01*
X108586143Y-93511602D01*
X108490889Y-93307332D01*
X108485491Y-93297982D01*
X108356215Y-93113357D01*
X108349280Y-93105092D01*
X108189909Y-92945721D01*
X108181643Y-92938784D01*
X107997008Y-92809501D01*
X107987676Y-92804113D01*
X107783397Y-92708856D01*
X107773263Y-92705168D01*
X107578780Y-92653056D01*
X107567551Y-92652688D01*
X107565000Y-92663631D01*
X107565000Y-93713674D01*
X107065000Y-93713674D01*
X107065000Y-92663631D01*
X107062448Y-92652688D01*
X107051219Y-92653056D01*
X106856736Y-92705168D01*
X106846602Y-92708856D01*
X106642332Y-92804110D01*
X106632982Y-92809508D01*
X106448357Y-92938784D01*
X106440098Y-92945714D01*
X106328084Y-93057728D01*
X106275337Y-93089023D01*
X106214045Y-93091212D01*
X106159200Y-93063759D01*
X106124221Y-93013379D01*
X106078989Y-92892107D01*
X106078988Y-92892105D01*
X106075889Y-92883796D01*
X105988261Y-92766739D01*
X105871204Y-92679111D01*
X105862896Y-92676012D01*
X105862894Y-92676011D01*
X105741463Y-92630719D01*
X105741458Y-92630717D01*
X105734201Y-92628011D01*
X105726497Y-92627182D01*
X105726494Y-92627182D01*
X105676924Y-92621853D01*
X105676918Y-92621852D01*
X105673638Y-92621500D01*
X103876362Y-92621500D01*
X103873082Y-92621852D01*
X103873075Y-92621853D01*
X103823505Y-92627182D01*
X103823500Y-92627182D01*
X103815799Y-92628011D01*
X103808543Y-92630717D01*
X103808536Y-92630719D01*
X103687105Y-92676011D01*
X103687099Y-92676013D01*
X103678796Y-92679111D01*
X103671698Y-92684423D01*
X103671695Y-92684426D01*
X103568835Y-92761426D01*
X103568831Y-92761429D01*
X103561739Y-92766739D01*
X103556429Y-92773831D01*
X103556426Y-92773835D01*
X103479426Y-92876695D01*
X103479423Y-92876698D01*
X103474111Y-92883796D01*
X103471013Y-92892099D01*
X103471011Y-92892105D01*
X103425719Y-93013536D01*
X103425717Y-93013543D01*
X103423011Y-93020799D01*
X103422182Y-93028500D01*
X103422182Y-93028505D01*
X103418392Y-93063759D01*
X103416500Y-93081362D01*
X103416500Y-94878638D01*
X101473500Y-94878638D01*
X101473500Y-86868000D01*
X102380844Y-86868000D01*
X102381268Y-86873117D01*
X102399011Y-87087248D01*
X102399012Y-87087256D01*
X102399436Y-87092368D01*
X102400693Y-87097335D01*
X102400695Y-87097342D01*
X102453445Y-87305645D01*
X102454704Y-87310616D01*
X102456764Y-87315312D01*
X102543080Y-87512096D01*
X102543083Y-87512101D01*
X102545140Y-87516791D01*
X102550870Y-87525561D01*
X102665474Y-87700977D01*
X102665477Y-87700981D01*
X102668278Y-87705268D01*
X102671752Y-87709041D01*
X102671753Y-87709043D01*
X102817288Y-87867135D01*
X102817291Y-87867138D01*
X102820760Y-87870906D01*
X102824801Y-87874051D01*
X102994376Y-88006039D01*
X102994381Y-88006042D01*
X102998424Y-88009189D01*
X103002931Y-88011628D01*
X103002934Y-88011630D01*
X103191919Y-88113903D01*
X103196426Y-88116342D01*
X103409365Y-88189444D01*
X103631431Y-88226500D01*
X103851436Y-88226500D01*
X103856569Y-88226500D01*
X104078635Y-88189444D01*
X104291574Y-88116342D01*
X104489576Y-88009189D01*
X104667240Y-87870906D01*
X104819722Y-87705268D01*
X104910190Y-87566795D01*
X104954982Y-87525561D01*
X105014000Y-87510616D01*
X105073018Y-87525561D01*
X105117809Y-87566795D01*
X105205470Y-87700972D01*
X105205478Y-87700982D01*
X105208278Y-87705268D01*
X105211752Y-87709041D01*
X105211753Y-87709043D01*
X105357288Y-87867135D01*
X105357291Y-87867138D01*
X105360760Y-87870906D01*
X105364801Y-87874051D01*
X105534376Y-88006039D01*
X105534381Y-88006042D01*
X105538424Y-88009189D01*
X105542931Y-88011628D01*
X105542934Y-88011630D01*
X105731919Y-88113903D01*
X105736426Y-88116342D01*
X105949365Y-88189444D01*
X106171431Y-88226500D01*
X106391436Y-88226500D01*
X106396569Y-88226500D01*
X106618635Y-88189444D01*
X106831574Y-88116342D01*
X107029576Y-88009189D01*
X107207240Y-87870906D01*
X107359722Y-87705268D01*
X107450190Y-87566795D01*
X107494982Y-87525561D01*
X107554000Y-87510616D01*
X107613018Y-87525561D01*
X107657809Y-87566795D01*
X107745470Y-87700972D01*
X107745478Y-87700982D01*
X107748278Y-87705268D01*
X107751752Y-87709041D01*
X107751753Y-87709043D01*
X107897288Y-87867135D01*
X107897291Y-87867138D01*
X107900760Y-87870906D01*
X107904801Y-87874051D01*
X108074376Y-88006039D01*
X108074381Y-88006042D01*
X108078424Y-88009189D01*
X108082931Y-88011628D01*
X108082934Y-88011630D01*
X108271919Y-88113903D01*
X108276426Y-88116342D01*
X108489365Y-88189444D01*
X108711431Y-88226500D01*
X108931436Y-88226500D01*
X108936569Y-88226500D01*
X109158635Y-88189444D01*
X109371574Y-88116342D01*
X109569576Y-88009189D01*
X109747240Y-87870906D01*
X109899722Y-87705268D01*
X110022860Y-87516791D01*
X110113296Y-87310616D01*
X110168564Y-87092368D01*
X110187156Y-86868000D01*
X110168564Y-86643632D01*
X110113296Y-86425384D01*
X110022860Y-86219209D01*
X109899722Y-86030732D01*
X109754506Y-85872987D01*
X109725735Y-85820239D01*
X109725142Y-85760152D01*
X109752869Y-85706841D01*
X109802404Y-85672826D01*
X109920204Y-85628889D01*
X110037261Y-85541261D01*
X110124889Y-85424204D01*
X110175989Y-85287201D01*
X110182500Y-85226638D01*
X110182500Y-84270320D01*
X110191939Y-84222867D01*
X110193400Y-84220680D01*
X114766318Y-84220680D01*
X114774423Y-84231868D01*
X114789366Y-84243499D01*
X114797925Y-84249091D01*
X114995148Y-84355823D01*
X115004501Y-84359925D01*
X115216595Y-84432737D01*
X115226504Y-84435246D01*
X115447686Y-84472155D01*
X115457884Y-84473000D01*
X115682116Y-84473000D01*
X115692313Y-84472155D01*
X115913495Y-84435246D01*
X115923404Y-84432737D01*
X116135498Y-84359925D01*
X116144851Y-84355823D01*
X116342076Y-84249090D01*
X116350631Y-84243500D01*
X116365573Y-84231869D01*
X116373679Y-84220680D01*
X119846318Y-84220680D01*
X119854423Y-84231868D01*
X119869366Y-84243499D01*
X119877925Y-84249091D01*
X120075148Y-84355823D01*
X120084501Y-84359925D01*
X120296595Y-84432737D01*
X120306504Y-84435246D01*
X120527686Y-84472155D01*
X120537884Y-84473000D01*
X120762116Y-84473000D01*
X120772313Y-84472155D01*
X120993495Y-84435246D01*
X121003404Y-84432737D01*
X121215498Y-84359925D01*
X121224851Y-84355823D01*
X121422076Y-84249090D01*
X121430631Y-84243500D01*
X121445573Y-84231869D01*
X121453679Y-84220680D01*
X135086318Y-84220680D01*
X135094423Y-84231868D01*
X135109366Y-84243499D01*
X135117925Y-84249091D01*
X135315148Y-84355823D01*
X135324501Y-84359925D01*
X135536595Y-84432737D01*
X135546504Y-84435246D01*
X135767686Y-84472155D01*
X135777884Y-84473000D01*
X136002116Y-84473000D01*
X136012313Y-84472155D01*
X136233495Y-84435246D01*
X136243404Y-84432737D01*
X136455498Y-84359925D01*
X136464851Y-84355823D01*
X136662076Y-84249090D01*
X136670631Y-84243500D01*
X136685573Y-84231869D01*
X136693679Y-84220680D01*
X140166318Y-84220680D01*
X140174423Y-84231868D01*
X140189366Y-84243499D01*
X140197925Y-84249091D01*
X140395148Y-84355823D01*
X140404501Y-84359925D01*
X140616595Y-84432737D01*
X140626504Y-84435246D01*
X140847686Y-84472155D01*
X140857884Y-84473000D01*
X141082116Y-84473000D01*
X141092313Y-84472155D01*
X141313495Y-84435246D01*
X141323404Y-84432737D01*
X141535498Y-84359925D01*
X141544851Y-84355823D01*
X141742076Y-84249090D01*
X141750631Y-84243500D01*
X141765573Y-84231869D01*
X141773680Y-84220679D01*
X141767020Y-84208573D01*
X140981542Y-83423095D01*
X140970000Y-83416431D01*
X140958457Y-83423095D01*
X140172979Y-84208572D01*
X140166318Y-84220680D01*
X136693679Y-84220680D01*
X136693680Y-84220679D01*
X136687020Y-84208573D01*
X135901542Y-83423095D01*
X135890000Y-83416431D01*
X135878457Y-83423095D01*
X135092979Y-84208572D01*
X135086318Y-84220680D01*
X121453679Y-84220680D01*
X121453680Y-84220679D01*
X121447020Y-84208573D01*
X120661542Y-83423095D01*
X120650000Y-83416431D01*
X120638457Y-83423095D01*
X119852979Y-84208572D01*
X119846318Y-84220680D01*
X116373679Y-84220680D01*
X116373680Y-84220679D01*
X116367020Y-84208573D01*
X115581542Y-83423095D01*
X115570000Y-83416431D01*
X115558457Y-83423095D01*
X114772979Y-84208572D01*
X114766318Y-84220680D01*
X110193400Y-84220680D01*
X110218819Y-84182639D01*
X111999638Y-82401819D01*
X112039866Y-82374939D01*
X112087319Y-82365500D01*
X114138819Y-82365500D01*
X114197836Y-82380445D01*
X114242628Y-82421678D01*
X114262395Y-82479260D01*
X114252375Y-82539310D01*
X114229141Y-82592278D01*
X114225822Y-82601945D01*
X114170774Y-82819324D01*
X114169090Y-82829419D01*
X114150574Y-83052883D01*
X114150574Y-83063117D01*
X114169090Y-83286580D01*
X114170774Y-83296675D01*
X114225822Y-83514054D01*
X114229141Y-83523721D01*
X114319217Y-83729075D01*
X114324086Y-83738070D01*
X114400407Y-83854888D01*
X114408375Y-83862613D01*
X114417756Y-83856689D01*
X115216446Y-83058000D01*
X115928431Y-83058000D01*
X115935095Y-83069542D01*
X116722242Y-83856689D01*
X116731624Y-83862613D01*
X116739588Y-83854893D01*
X116815916Y-83738066D01*
X116820781Y-83729077D01*
X116910858Y-83523721D01*
X116914177Y-83514054D01*
X116969225Y-83296675D01*
X116970909Y-83286580D01*
X116989426Y-83063117D01*
X119230574Y-83063117D01*
X119249090Y-83286580D01*
X119250774Y-83296675D01*
X119305822Y-83514054D01*
X119309141Y-83523721D01*
X119399217Y-83729075D01*
X119404086Y-83738070D01*
X119480407Y-83854888D01*
X119488375Y-83862613D01*
X119497756Y-83856689D01*
X120284904Y-83069542D01*
X120291568Y-83058000D01*
X121008431Y-83058000D01*
X121015095Y-83069542D01*
X121802242Y-83856689D01*
X121811624Y-83862613D01*
X121819588Y-83854893D01*
X121895916Y-83738066D01*
X121900781Y-83729077D01*
X121990858Y-83523721D01*
X121994177Y-83514054D01*
X122049225Y-83296675D01*
X122050909Y-83286580D01*
X122069426Y-83063117D01*
X122069426Y-83052883D01*
X122058108Y-82916296D01*
X123078793Y-82916296D01*
X123086770Y-82924117D01*
X123260476Y-83030565D01*
X123269133Y-83034977D01*
X123478985Y-83121899D01*
X123488229Y-83124903D01*
X123709107Y-83177932D01*
X123718687Y-83179449D01*
X123945146Y-83197272D01*
X123954854Y-83197272D01*
X124181312Y-83179449D01*
X124190892Y-83177932D01*
X124411770Y-83124903D01*
X124421014Y-83121899D01*
X124630862Y-83034978D01*
X124639524Y-83030565D01*
X124813230Y-82924116D01*
X124821205Y-82916296D01*
X131718793Y-82916296D01*
X131726770Y-82924117D01*
X131900476Y-83030565D01*
X131909133Y-83034977D01*
X132118985Y-83121899D01*
X132128229Y-83124903D01*
X132349107Y-83177932D01*
X132358687Y-83179449D01*
X132585146Y-83197272D01*
X132594854Y-83197272D01*
X132821312Y-83179449D01*
X132830892Y-83177932D01*
X133051770Y-83124903D01*
X133061014Y-83121899D01*
X133202928Y-83063117D01*
X134470574Y-83063117D01*
X134489090Y-83286580D01*
X134490774Y-83296675D01*
X134545822Y-83514054D01*
X134549141Y-83523721D01*
X134639217Y-83729075D01*
X134644086Y-83738070D01*
X134720407Y-83854888D01*
X134728375Y-83862613D01*
X134737756Y-83856689D01*
X135524904Y-83069542D01*
X135531568Y-83058000D01*
X136248431Y-83058000D01*
X136255095Y-83069542D01*
X137042242Y-83856689D01*
X137051624Y-83862613D01*
X137059588Y-83854893D01*
X137135916Y-83738066D01*
X137140781Y-83729077D01*
X137230858Y-83523721D01*
X137234177Y-83514054D01*
X137289225Y-83296675D01*
X137290909Y-83286580D01*
X137309426Y-83063117D01*
X139550574Y-83063117D01*
X139569090Y-83286580D01*
X139570774Y-83296675D01*
X139625822Y-83514054D01*
X139629141Y-83523721D01*
X139719217Y-83729075D01*
X139724086Y-83738070D01*
X139800407Y-83854888D01*
X139808375Y-83862613D01*
X139817756Y-83856689D01*
X140604904Y-83069542D01*
X140611568Y-83058000D01*
X141328431Y-83058000D01*
X141335095Y-83069542D01*
X142122242Y-83856689D01*
X142131624Y-83862613D01*
X142139588Y-83854893D01*
X142215916Y-83738066D01*
X142220781Y-83729077D01*
X142310858Y-83523721D01*
X142314177Y-83514054D01*
X142369225Y-83296675D01*
X142370909Y-83286580D01*
X142389426Y-83063117D01*
X142389426Y-83052883D01*
X142370909Y-82829419D01*
X142369225Y-82819324D01*
X142314177Y-82601945D01*
X142310858Y-82592278D01*
X142220782Y-82386924D01*
X142215913Y-82377929D01*
X142139591Y-82261110D01*
X142131623Y-82253385D01*
X142122242Y-82259309D01*
X141335095Y-83046457D01*
X141328431Y-83058000D01*
X140611568Y-83058000D01*
X140604904Y-83046457D01*
X139817756Y-82259309D01*
X139808374Y-82253385D01*
X139800410Y-82261105D01*
X139724081Y-82377937D01*
X139719219Y-82386920D01*
X139629141Y-82592278D01*
X139625822Y-82601945D01*
X139570774Y-82819324D01*
X139569090Y-82829419D01*
X139550574Y-83052883D01*
X139550574Y-83063117D01*
X137309426Y-83063117D01*
X137309426Y-83052883D01*
X137290909Y-82829419D01*
X137289225Y-82819324D01*
X137234177Y-82601945D01*
X137230858Y-82592278D01*
X137140782Y-82386924D01*
X137135913Y-82377929D01*
X137059591Y-82261110D01*
X137051623Y-82253385D01*
X137042242Y-82259309D01*
X136255095Y-83046457D01*
X136248431Y-83058000D01*
X135531568Y-83058000D01*
X135524904Y-83046457D01*
X134737756Y-82259309D01*
X134728374Y-82253385D01*
X134720410Y-82261105D01*
X134644081Y-82377937D01*
X134639219Y-82386920D01*
X134549141Y-82592278D01*
X134545822Y-82601945D01*
X134490774Y-82819324D01*
X134489090Y-82829419D01*
X134470574Y-83052883D01*
X134470574Y-83063117D01*
X133202928Y-83063117D01*
X133270862Y-83034978D01*
X133279524Y-83030565D01*
X133453230Y-82924116D01*
X133461205Y-82916296D01*
X133455274Y-82906828D01*
X132601542Y-82053095D01*
X132589999Y-82046431D01*
X132578457Y-82053095D01*
X131724724Y-82906828D01*
X131718793Y-82916296D01*
X124821205Y-82916296D01*
X124815274Y-82906828D01*
X123961542Y-82053095D01*
X123950000Y-82046431D01*
X123938457Y-82053095D01*
X123084724Y-82906828D01*
X123078793Y-82916296D01*
X122058108Y-82916296D01*
X122050909Y-82829419D01*
X122049225Y-82819324D01*
X121994177Y-82601945D01*
X121990858Y-82592278D01*
X121900782Y-82386924D01*
X121895913Y-82377929D01*
X121819591Y-82261110D01*
X121811623Y-82253385D01*
X121802242Y-82259309D01*
X121015095Y-83046457D01*
X121008431Y-83058000D01*
X120291568Y-83058000D01*
X120284904Y-83046457D01*
X119497756Y-82259309D01*
X119488374Y-82253385D01*
X119480410Y-82261105D01*
X119404081Y-82377937D01*
X119399219Y-82386920D01*
X119309141Y-82592278D01*
X119305822Y-82601945D01*
X119250774Y-82819324D01*
X119249090Y-82829419D01*
X119230574Y-83052883D01*
X119230574Y-83063117D01*
X116989426Y-83063117D01*
X116989426Y-83052883D01*
X116970909Y-82829419D01*
X116969225Y-82819324D01*
X116914177Y-82601945D01*
X116910858Y-82592278D01*
X116820782Y-82386924D01*
X116815913Y-82377929D01*
X116739591Y-82261110D01*
X116731623Y-82253385D01*
X116722242Y-82259309D01*
X115935095Y-83046457D01*
X115928431Y-83058000D01*
X115216446Y-83058000D01*
X115570000Y-82704447D01*
X116367019Y-81907426D01*
X116373678Y-81895320D01*
X119846319Y-81895320D01*
X119852978Y-81907425D01*
X120638457Y-82692904D01*
X120650000Y-82699568D01*
X120661542Y-82692904D01*
X121447019Y-81907426D01*
X121453679Y-81895319D01*
X121445573Y-81884129D01*
X121430629Y-81872497D01*
X121422077Y-81866910D01*
X121224851Y-81760176D01*
X121215498Y-81756074D01*
X121031345Y-81692854D01*
X122440728Y-81692854D01*
X122458550Y-81919312D01*
X122460067Y-81928892D01*
X122513096Y-82149770D01*
X122516100Y-82159014D01*
X122603022Y-82368866D01*
X122607434Y-82377523D01*
X122713881Y-82551228D01*
X122721702Y-82559205D01*
X122731170Y-82553274D01*
X123584903Y-81699542D01*
X123591567Y-81688000D01*
X124308431Y-81688000D01*
X124315095Y-81699542D01*
X125168828Y-82553274D01*
X125178296Y-82559205D01*
X125186116Y-82551230D01*
X125292565Y-82377524D01*
X125296978Y-82368862D01*
X125383899Y-82159014D01*
X125386903Y-82149770D01*
X125439932Y-81928892D01*
X125441449Y-81919312D01*
X125459272Y-81692854D01*
X131080728Y-81692854D01*
X131098550Y-81919312D01*
X131100067Y-81928892D01*
X131153096Y-82149770D01*
X131156100Y-82159014D01*
X131243022Y-82368866D01*
X131247434Y-82377523D01*
X131353881Y-82551228D01*
X131361702Y-82559205D01*
X131371170Y-82553274D01*
X132224903Y-81699542D01*
X132231567Y-81688000D01*
X132948431Y-81688000D01*
X132955095Y-81699542D01*
X133808828Y-82553274D01*
X133818296Y-82559205D01*
X133826116Y-82551230D01*
X133932565Y-82377524D01*
X133936978Y-82368862D01*
X134023899Y-82159014D01*
X134026903Y-82149770D01*
X134079932Y-81928892D01*
X134081449Y-81919312D01*
X134083337Y-81895320D01*
X135086319Y-81895320D01*
X135092978Y-81907425D01*
X135878457Y-82692904D01*
X135890000Y-82699568D01*
X135901542Y-82692904D01*
X136687019Y-81907426D01*
X136693678Y-81895320D01*
X140166319Y-81895320D01*
X140172978Y-81907425D01*
X140958457Y-82692904D01*
X140970000Y-82699568D01*
X140981542Y-82692904D01*
X141767019Y-81907426D01*
X141773679Y-81895319D01*
X141765573Y-81884129D01*
X141750629Y-81872497D01*
X141742077Y-81866910D01*
X141544851Y-81760176D01*
X141535498Y-81756074D01*
X141323404Y-81683262D01*
X141313495Y-81680753D01*
X141092313Y-81643844D01*
X141082116Y-81643000D01*
X140857884Y-81643000D01*
X140847686Y-81643844D01*
X140626504Y-81680753D01*
X140616595Y-81683262D01*
X140404501Y-81756074D01*
X140395148Y-81760176D01*
X140197924Y-81866909D01*
X140189369Y-81872498D01*
X140174425Y-81884129D01*
X140166319Y-81895320D01*
X136693678Y-81895320D01*
X136693679Y-81895319D01*
X136685573Y-81884129D01*
X136670629Y-81872497D01*
X136662077Y-81866910D01*
X136464851Y-81760176D01*
X136455498Y-81756074D01*
X136243404Y-81683262D01*
X136233495Y-81680753D01*
X136012313Y-81643844D01*
X136002116Y-81643000D01*
X135777884Y-81643000D01*
X135767686Y-81643844D01*
X135546504Y-81680753D01*
X135536595Y-81683262D01*
X135324501Y-81756074D01*
X135315148Y-81760176D01*
X135117924Y-81866909D01*
X135109369Y-81872498D01*
X135094425Y-81884129D01*
X135086319Y-81895320D01*
X134083337Y-81895320D01*
X134099272Y-81692854D01*
X134099272Y-81683146D01*
X134081449Y-81456687D01*
X134079932Y-81447107D01*
X134026903Y-81226229D01*
X134023899Y-81216985D01*
X133936977Y-81007133D01*
X133932565Y-80998476D01*
X133826117Y-80824770D01*
X133818296Y-80816793D01*
X133808828Y-80822724D01*
X132955095Y-81676457D01*
X132948431Y-81688000D01*
X132231567Y-81688000D01*
X132224903Y-81676457D01*
X131371170Y-80822724D01*
X131361702Y-80816793D01*
X131353881Y-80824770D01*
X131247434Y-80998476D01*
X131243022Y-81007133D01*
X131156100Y-81216985D01*
X131153096Y-81226229D01*
X131100067Y-81447107D01*
X131098550Y-81456687D01*
X131080728Y-81683146D01*
X131080728Y-81692854D01*
X125459272Y-81692854D01*
X125459272Y-81683146D01*
X125441449Y-81456687D01*
X125439932Y-81447107D01*
X125386903Y-81226229D01*
X125383899Y-81216985D01*
X125296977Y-81007133D01*
X125292565Y-80998476D01*
X125186117Y-80824770D01*
X125178296Y-80816793D01*
X125168828Y-80822724D01*
X124315095Y-81676457D01*
X124308431Y-81688000D01*
X123591567Y-81688000D01*
X123584903Y-81676457D01*
X122731170Y-80822724D01*
X122721702Y-80816793D01*
X122713881Y-80824770D01*
X122607434Y-80998476D01*
X122603022Y-81007133D01*
X122516100Y-81216985D01*
X122513096Y-81226229D01*
X122460067Y-81447107D01*
X122458550Y-81456687D01*
X122440728Y-81683146D01*
X122440728Y-81692854D01*
X121031345Y-81692854D01*
X121003404Y-81683262D01*
X120993495Y-81680753D01*
X120772313Y-81643844D01*
X120762116Y-81643000D01*
X120537884Y-81643000D01*
X120527686Y-81643844D01*
X120306504Y-81680753D01*
X120296595Y-81683262D01*
X120084501Y-81756074D01*
X120075148Y-81760176D01*
X119877924Y-81866909D01*
X119869369Y-81872498D01*
X119854425Y-81884129D01*
X119846319Y-81895320D01*
X116373678Y-81895320D01*
X116373679Y-81895319D01*
X116365573Y-81884129D01*
X116350629Y-81872497D01*
X116342077Y-81866910D01*
X116144851Y-81760176D01*
X116135500Y-81756075D01*
X116129651Y-81754067D01*
X116082800Y-81725028D01*
X116053164Y-81678553D01*
X116046597Y-81623828D01*
X116061504Y-81482000D01*
X116041542Y-81292072D01*
X115982527Y-81110444D01*
X115887040Y-80945056D01*
X115759253Y-80803134D01*
X115754003Y-80799319D01*
X115753999Y-80799316D01*
X115610006Y-80694699D01*
X115610004Y-80694697D01*
X115604752Y-80690882D01*
X115598821Y-80688241D01*
X115598817Y-80688239D01*
X115436226Y-80615849D01*
X115436219Y-80615846D01*
X115430288Y-80613206D01*
X115423935Y-80611855D01*
X115423927Y-80611853D01*
X115249849Y-80574852D01*
X115249846Y-80574851D01*
X115243487Y-80573500D01*
X115052513Y-80573500D01*
X115046154Y-80574851D01*
X115046150Y-80574852D01*
X114947647Y-80595790D01*
X114921866Y-80598500D01*
X111749295Y-80598500D01*
X111729896Y-80596973D01*
X111722913Y-80595866D01*
X111722904Y-80595865D01*
X111716493Y-80594850D01*
X111710003Y-80595190D01*
X111650093Y-80598330D01*
X111643603Y-80598500D01*
X111623694Y-80598500D01*
X111620481Y-80598837D01*
X111620474Y-80598838D01*
X111603887Y-80600581D01*
X111597425Y-80601089D01*
X111537520Y-80604229D01*
X111537512Y-80604230D01*
X111531029Y-80604570D01*
X111524751Y-80606251D01*
X111524750Y-80606252D01*
X111517912Y-80608084D01*
X111498794Y-80611627D01*
X111491762Y-80612366D01*
X111491758Y-80612366D01*
X111485298Y-80613046D01*
X111479125Y-80615051D01*
X111479114Y-80615054D01*
X111422087Y-80633584D01*
X111415864Y-80635428D01*
X111380142Y-80645000D01*
X111351637Y-80652638D01*
X111345852Y-80655584D01*
X111345837Y-80655591D01*
X111339531Y-80658804D01*
X111321580Y-80666240D01*
X111314847Y-80668428D01*
X111314843Y-80668429D01*
X111308669Y-80670436D01*
X111303043Y-80673683D01*
X111303043Y-80673684D01*
X111251099Y-80703673D01*
X111245398Y-80706768D01*
X111191954Y-80734000D01*
X111191945Y-80734005D01*
X111186161Y-80736953D01*
X111181119Y-80741035D01*
X111181106Y-80741044D01*
X111175602Y-80745501D01*
X111159589Y-80756506D01*
X111153462Y-80760043D01*
X111153450Y-80760051D01*
X111147831Y-80763296D01*
X111143008Y-80767637D01*
X111142999Y-80767645D01*
X111098416Y-80807787D01*
X111093487Y-80811997D01*
X111080534Y-80822486D01*
X111080511Y-80822506D01*
X111078015Y-80824528D01*
X111075743Y-80826799D01*
X111075715Y-80826825D01*
X111063926Y-80838614D01*
X111059225Y-80843075D01*
X111014644Y-80883217D01*
X111014639Y-80883221D01*
X111009815Y-80887566D01*
X111006000Y-80892815D01*
X111005995Y-80892822D01*
X111001830Y-80898555D01*
X110989199Y-80913342D01*
X108969361Y-82933181D01*
X108929133Y-82960061D01*
X108881680Y-82969500D01*
X107925362Y-82969500D01*
X107922082Y-82969852D01*
X107922075Y-82969853D01*
X107872505Y-82975182D01*
X107872500Y-82975182D01*
X107864799Y-82976011D01*
X107857543Y-82978717D01*
X107857536Y-82978719D01*
X107736105Y-83024011D01*
X107736099Y-83024013D01*
X107727796Y-83027111D01*
X107720698Y-83032423D01*
X107720695Y-83032426D01*
X107617835Y-83109426D01*
X107617831Y-83109429D01*
X107610739Y-83114739D01*
X107605429Y-83121831D01*
X107605426Y-83121835D01*
X107528426Y-83224695D01*
X107528423Y-83224698D01*
X107523111Y-83231796D01*
X107520013Y-83240101D01*
X107520009Y-83240109D01*
X107477861Y-83353111D01*
X107441909Y-83404324D01*
X107385528Y-83431461D01*
X107323074Y-83427613D01*
X107270451Y-83393759D01*
X107210711Y-83328864D01*
X107210708Y-83328861D01*
X107207240Y-83325094D01*
X107170728Y-83296675D01*
X107033623Y-83189960D01*
X107033615Y-83189955D01*
X107029576Y-83186811D01*
X107025071Y-83184373D01*
X107025065Y-83184369D01*
X106836080Y-83082096D01*
X106836074Y-83082093D01*
X106831574Y-83079658D01*
X106826733Y-83077996D01*
X106826726Y-83077993D01*
X106623488Y-83008222D01*
X106623487Y-83008221D01*
X106618635Y-83006556D01*
X106613585Y-83005713D01*
X106613576Y-83005711D01*
X106401631Y-82970344D01*
X106401622Y-82970343D01*
X106396569Y-82969500D01*
X106171431Y-82969500D01*
X106166378Y-82970343D01*
X106166368Y-82970344D01*
X105954423Y-83005711D01*
X105954411Y-83005713D01*
X105949365Y-83006556D01*
X105944515Y-83008220D01*
X105944511Y-83008222D01*
X105741273Y-83077993D01*
X105741262Y-83077997D01*
X105736426Y-83079658D01*
X105731929Y-83082091D01*
X105731919Y-83082096D01*
X105542934Y-83184369D01*
X105542922Y-83184376D01*
X105538424Y-83186811D01*
X105534389Y-83189951D01*
X105534376Y-83189960D01*
X105364801Y-83321948D01*
X105364795Y-83321952D01*
X105360760Y-83325094D01*
X105357297Y-83328855D01*
X105357288Y-83328864D01*
X105211753Y-83486956D01*
X105211747Y-83486963D01*
X105208278Y-83490732D01*
X105205481Y-83495012D01*
X105205474Y-83495022D01*
X105117809Y-83629205D01*
X105073017Y-83670438D01*
X105014000Y-83685383D01*
X104954983Y-83670438D01*
X104910191Y-83629205D01*
X104822525Y-83495022D01*
X104822523Y-83495020D01*
X104819722Y-83490732D01*
X104816246Y-83486956D01*
X104670711Y-83328864D01*
X104670708Y-83328861D01*
X104667240Y-83325094D01*
X104630728Y-83296675D01*
X104493623Y-83189960D01*
X104493615Y-83189955D01*
X104489576Y-83186811D01*
X104485071Y-83184373D01*
X104485065Y-83184369D01*
X104296080Y-83082096D01*
X104296074Y-83082093D01*
X104291574Y-83079658D01*
X104286733Y-83077996D01*
X104286726Y-83077993D01*
X104083488Y-83008222D01*
X104083487Y-83008221D01*
X104078635Y-83006556D01*
X104073585Y-83005713D01*
X104073576Y-83005711D01*
X103861631Y-82970344D01*
X103861622Y-82970343D01*
X103856569Y-82969500D01*
X103631431Y-82969500D01*
X103626378Y-82970343D01*
X103626368Y-82970344D01*
X103414423Y-83005711D01*
X103414411Y-83005713D01*
X103409365Y-83006556D01*
X103404515Y-83008220D01*
X103404511Y-83008222D01*
X103201273Y-83077993D01*
X103201262Y-83077997D01*
X103196426Y-83079658D01*
X103191929Y-83082091D01*
X103191919Y-83082096D01*
X103002934Y-83184369D01*
X103002922Y-83184376D01*
X102998424Y-83186811D01*
X102994389Y-83189951D01*
X102994376Y-83189960D01*
X102824801Y-83321948D01*
X102824795Y-83321952D01*
X102820760Y-83325094D01*
X102817297Y-83328855D01*
X102817288Y-83328864D01*
X102671753Y-83486956D01*
X102671747Y-83486963D01*
X102668278Y-83490732D01*
X102665481Y-83495012D01*
X102665474Y-83495022D01*
X102550870Y-83670438D01*
X102545140Y-83679209D01*
X102543085Y-83683892D01*
X102543080Y-83683903D01*
X102464692Y-83862613D01*
X102454704Y-83885384D01*
X102453446Y-83890349D01*
X102453445Y-83890354D01*
X102400695Y-84098657D01*
X102400693Y-84098666D01*
X102399436Y-84103632D01*
X102399012Y-84108741D01*
X102399011Y-84108751D01*
X102381268Y-84322883D01*
X102380844Y-84328000D01*
X102381268Y-84333117D01*
X102399011Y-84547248D01*
X102399012Y-84547256D01*
X102399436Y-84552368D01*
X102400693Y-84557335D01*
X102400695Y-84557342D01*
X102453445Y-84765645D01*
X102454704Y-84770616D01*
X102456764Y-84775312D01*
X102543080Y-84972096D01*
X102543083Y-84972101D01*
X102545140Y-84976791D01*
X102550870Y-84985561D01*
X102665474Y-85160977D01*
X102665477Y-85160981D01*
X102668278Y-85165268D01*
X102671752Y-85169041D01*
X102671753Y-85169043D01*
X102817288Y-85327135D01*
X102817291Y-85327138D01*
X102820760Y-85330906D01*
X102824801Y-85334051D01*
X102994376Y-85466039D01*
X102994381Y-85466042D01*
X102998424Y-85469189D01*
X103002931Y-85471628D01*
X103002934Y-85471630D01*
X103034930Y-85488945D01*
X103082436Y-85534526D01*
X103099913Y-85598000D01*
X103082436Y-85661474D01*
X103034930Y-85707055D01*
X103002934Y-85724369D01*
X103002922Y-85724376D01*
X102998424Y-85726811D01*
X102994389Y-85729951D01*
X102994376Y-85729960D01*
X102824801Y-85861948D01*
X102824795Y-85861952D01*
X102820760Y-85865094D01*
X102817297Y-85868855D01*
X102817288Y-85868864D01*
X102671753Y-86026956D01*
X102671747Y-86026963D01*
X102668278Y-86030732D01*
X102665481Y-86035012D01*
X102665474Y-86035022D01*
X102577809Y-86169205D01*
X102545140Y-86219209D01*
X102543085Y-86223892D01*
X102543080Y-86223903D01*
X102474000Y-86381393D01*
X102454704Y-86425384D01*
X102453446Y-86430349D01*
X102453445Y-86430354D01*
X102400695Y-86638657D01*
X102400693Y-86638666D01*
X102399436Y-86643632D01*
X102399012Y-86648741D01*
X102399011Y-86648751D01*
X102381268Y-86862883D01*
X102380844Y-86868000D01*
X101473500Y-86868000D01*
X101473500Y-80459702D01*
X123078793Y-80459702D01*
X123084724Y-80469170D01*
X123938456Y-81322903D01*
X123949999Y-81329567D01*
X123961541Y-81322903D01*
X124815274Y-80469170D01*
X124821205Y-80459702D01*
X131718793Y-80459702D01*
X131724724Y-80469170D01*
X132578456Y-81322903D01*
X132589998Y-81329567D01*
X132601541Y-81322903D01*
X133455274Y-80469170D01*
X133461205Y-80459702D01*
X133453228Y-80451881D01*
X133279523Y-80345434D01*
X133270866Y-80341022D01*
X133061014Y-80254100D01*
X133051770Y-80251096D01*
X132830892Y-80198067D01*
X132821312Y-80196550D01*
X132594854Y-80178728D01*
X132585146Y-80178728D01*
X132358687Y-80196550D01*
X132349107Y-80198067D01*
X132128229Y-80251096D01*
X132118985Y-80254100D01*
X131909133Y-80341022D01*
X131900476Y-80345434D01*
X131726770Y-80451881D01*
X131718793Y-80459702D01*
X124821205Y-80459702D01*
X124813228Y-80451881D01*
X124639523Y-80345434D01*
X124630866Y-80341022D01*
X124421014Y-80254100D01*
X124411770Y-80251096D01*
X124190892Y-80198067D01*
X124181312Y-80196550D01*
X123954854Y-80178728D01*
X123945146Y-80178728D01*
X123718687Y-80196550D01*
X123709107Y-80198067D01*
X123488229Y-80251096D01*
X123478985Y-80254100D01*
X123269133Y-80341022D01*
X123260476Y-80345434D01*
X123086770Y-80451881D01*
X123078793Y-80459702D01*
X101473500Y-80459702D01*
X101473500Y-79638638D01*
X115481500Y-79638638D01*
X115481852Y-79641918D01*
X115481853Y-79641924D01*
X115484191Y-79663676D01*
X115488011Y-79699201D01*
X115490717Y-79706458D01*
X115490719Y-79706463D01*
X115536011Y-79827894D01*
X115539111Y-79836204D01*
X115626739Y-79953261D01*
X115743796Y-80040889D01*
X115880799Y-80091989D01*
X115941362Y-80098500D01*
X117735328Y-80098500D01*
X117738638Y-80098500D01*
X117799201Y-80091989D01*
X117936204Y-80040889D01*
X118053261Y-79953261D01*
X118140889Y-79836204D01*
X118186137Y-79714889D01*
X118222089Y-79663676D01*
X118278470Y-79636538D01*
X118340925Y-79640386D01*
X118393548Y-79674240D01*
X118453288Y-79739135D01*
X118453291Y-79739138D01*
X118456760Y-79742906D01*
X118460801Y-79746051D01*
X118630376Y-79878039D01*
X118630381Y-79878042D01*
X118634424Y-79881189D01*
X118638931Y-79883628D01*
X118638934Y-79883630D01*
X118827919Y-79985903D01*
X118832426Y-79988342D01*
X119045365Y-80061444D01*
X119267431Y-80098500D01*
X119487436Y-80098500D01*
X119492569Y-80098500D01*
X119714635Y-80061444D01*
X119927574Y-79988342D01*
X120125576Y-79881189D01*
X120303240Y-79742906D01*
X120455722Y-79577268D01*
X120578860Y-79388791D01*
X120669296Y-79182616D01*
X120686091Y-79116296D01*
X123078793Y-79116296D01*
X123086770Y-79124117D01*
X123260476Y-79230565D01*
X123269133Y-79234977D01*
X123478985Y-79321899D01*
X123488229Y-79324903D01*
X123709107Y-79377932D01*
X123718687Y-79379449D01*
X123945146Y-79397272D01*
X123954854Y-79397272D01*
X124181312Y-79379449D01*
X124190892Y-79377932D01*
X124411770Y-79324903D01*
X124421014Y-79321899D01*
X124630862Y-79234978D01*
X124639524Y-79230565D01*
X124813230Y-79124116D01*
X124821205Y-79116296D01*
X131718793Y-79116296D01*
X131726770Y-79124117D01*
X131900476Y-79230565D01*
X131909133Y-79234977D01*
X132118985Y-79321899D01*
X132128229Y-79324903D01*
X132349107Y-79377932D01*
X132358687Y-79379449D01*
X132585146Y-79397272D01*
X132594854Y-79397272D01*
X132821312Y-79379449D01*
X132830892Y-79377932D01*
X133051770Y-79324903D01*
X133061014Y-79321899D01*
X133270862Y-79234978D01*
X133279524Y-79230565D01*
X133453230Y-79124116D01*
X133461205Y-79116296D01*
X133455274Y-79106828D01*
X132601542Y-78253095D01*
X132590000Y-78246431D01*
X132578457Y-78253095D01*
X131724724Y-79106828D01*
X131718793Y-79116296D01*
X124821205Y-79116296D01*
X124815274Y-79106828D01*
X123961542Y-78253095D01*
X123950000Y-78246431D01*
X123938457Y-78253095D01*
X123084724Y-79106828D01*
X123078793Y-79116296D01*
X120686091Y-79116296D01*
X120724564Y-78964368D01*
X120743156Y-78740000D01*
X120724564Y-78515632D01*
X120669296Y-78297384D01*
X120578860Y-78091209D01*
X120455722Y-77902732D01*
X120446629Y-77892854D01*
X122440728Y-77892854D01*
X122458550Y-78119312D01*
X122460067Y-78128892D01*
X122513096Y-78349770D01*
X122516100Y-78359014D01*
X122603022Y-78568866D01*
X122607434Y-78577523D01*
X122713881Y-78751228D01*
X122721702Y-78759205D01*
X122731170Y-78753274D01*
X123584903Y-77899542D01*
X123591567Y-77888000D01*
X124308431Y-77888000D01*
X124315095Y-77899542D01*
X125168828Y-78753274D01*
X125178296Y-78759205D01*
X125186116Y-78751230D01*
X125292565Y-78577524D01*
X125296978Y-78568862D01*
X125383899Y-78359014D01*
X125386903Y-78349770D01*
X125439932Y-78128892D01*
X125441449Y-78119312D01*
X125459272Y-77892854D01*
X131080728Y-77892854D01*
X131098550Y-78119312D01*
X131100067Y-78128892D01*
X131153096Y-78349770D01*
X131156100Y-78359014D01*
X131243022Y-78568866D01*
X131247434Y-78577523D01*
X131353881Y-78751228D01*
X131361702Y-78759205D01*
X131371170Y-78753274D01*
X132224903Y-77899542D01*
X132231567Y-77888000D01*
X132948431Y-77888000D01*
X132955095Y-77899542D01*
X133808828Y-78753274D01*
X133818296Y-78759205D01*
X133826116Y-78751230D01*
X133832998Y-78740000D01*
X135796844Y-78740000D01*
X135797268Y-78745117D01*
X135815011Y-78959248D01*
X135815012Y-78959256D01*
X135815436Y-78964368D01*
X135816693Y-78969335D01*
X135816695Y-78969342D01*
X135855890Y-79124117D01*
X135870704Y-79182616D01*
X135872764Y-79187312D01*
X135959080Y-79384096D01*
X135959083Y-79384101D01*
X135961140Y-79388791D01*
X135966681Y-79397272D01*
X136081474Y-79572977D01*
X136081477Y-79572981D01*
X136084278Y-79577268D01*
X136087752Y-79581041D01*
X136087753Y-79581043D01*
X136233288Y-79739135D01*
X136233291Y-79739138D01*
X136236760Y-79742906D01*
X136240801Y-79746051D01*
X136410376Y-79878039D01*
X136410381Y-79878042D01*
X136414424Y-79881189D01*
X136418931Y-79883628D01*
X136418934Y-79883630D01*
X136607919Y-79985903D01*
X136612426Y-79988342D01*
X136825365Y-80061444D01*
X137047431Y-80098500D01*
X137267436Y-80098500D01*
X137272569Y-80098500D01*
X137494635Y-80061444D01*
X137707574Y-79988342D01*
X137905576Y-79881189D01*
X138083240Y-79742906D01*
X138146455Y-79674236D01*
X138199073Y-79640386D01*
X138261528Y-79636538D01*
X138317909Y-79663675D01*
X138353862Y-79714889D01*
X138396010Y-79827892D01*
X138399111Y-79836204D01*
X138486739Y-79953261D01*
X138603796Y-80040889D01*
X138740799Y-80091989D01*
X138801362Y-80098500D01*
X140595328Y-80098500D01*
X140598638Y-80098500D01*
X140659201Y-80091989D01*
X140796204Y-80040889D01*
X140913261Y-79953261D01*
X141000889Y-79836204D01*
X141051989Y-79699201D01*
X141058500Y-79638638D01*
X141058500Y-77841362D01*
X141051989Y-77780799D01*
X141000889Y-77643796D01*
X140913261Y-77526739D01*
X140866398Y-77491658D01*
X140803304Y-77444426D01*
X140803303Y-77444425D01*
X140796204Y-77439111D01*
X140787896Y-77436012D01*
X140787894Y-77436011D01*
X140666463Y-77390719D01*
X140666458Y-77390717D01*
X140659201Y-77388011D01*
X140651497Y-77387182D01*
X140651494Y-77387182D01*
X140601924Y-77381853D01*
X140601918Y-77381852D01*
X140598638Y-77381500D01*
X138801362Y-77381500D01*
X138798082Y-77381852D01*
X138798075Y-77381853D01*
X138748505Y-77387182D01*
X138748500Y-77387182D01*
X138740799Y-77388011D01*
X138733543Y-77390717D01*
X138733536Y-77390719D01*
X138612105Y-77436011D01*
X138612099Y-77436013D01*
X138603796Y-77439111D01*
X138596698Y-77444423D01*
X138596695Y-77444426D01*
X138493835Y-77521426D01*
X138493831Y-77521429D01*
X138486739Y-77526739D01*
X138481429Y-77533831D01*
X138481426Y-77533835D01*
X138404426Y-77636695D01*
X138404423Y-77636698D01*
X138399111Y-77643796D01*
X138396013Y-77652101D01*
X138396009Y-77652109D01*
X138353861Y-77765111D01*
X138317909Y-77816324D01*
X138261528Y-77843461D01*
X138199074Y-77839613D01*
X138146451Y-77805759D01*
X138086711Y-77740864D01*
X138086706Y-77740859D01*
X138083240Y-77737094D01*
X138070597Y-77727253D01*
X137909623Y-77601960D01*
X137909615Y-77601955D01*
X137905576Y-77598811D01*
X137901071Y-77596373D01*
X137901065Y-77596369D01*
X137712080Y-77494096D01*
X137712074Y-77494093D01*
X137707574Y-77491658D01*
X137702733Y-77489996D01*
X137702726Y-77489993D01*
X137499488Y-77420222D01*
X137499487Y-77420221D01*
X137494635Y-77418556D01*
X137489585Y-77417713D01*
X137489576Y-77417711D01*
X137277631Y-77382344D01*
X137277622Y-77382343D01*
X137272569Y-77381500D01*
X137047431Y-77381500D01*
X137042378Y-77382343D01*
X137042368Y-77382344D01*
X136830423Y-77417711D01*
X136830411Y-77417713D01*
X136825365Y-77418556D01*
X136820515Y-77420220D01*
X136820511Y-77420222D01*
X136617273Y-77489993D01*
X136617262Y-77489997D01*
X136612426Y-77491658D01*
X136607929Y-77494091D01*
X136607919Y-77494096D01*
X136418934Y-77596369D01*
X136418922Y-77596376D01*
X136414424Y-77598811D01*
X136410389Y-77601951D01*
X136410376Y-77601960D01*
X136240801Y-77733948D01*
X136240795Y-77733952D01*
X136236760Y-77737094D01*
X136233297Y-77740855D01*
X136233288Y-77740864D01*
X136087753Y-77898956D01*
X136087747Y-77898963D01*
X136084278Y-77902732D01*
X136081481Y-77907012D01*
X136081474Y-77907022D01*
X135963942Y-78086920D01*
X135961140Y-78091209D01*
X135959085Y-78095892D01*
X135959080Y-78095903D01*
X135872764Y-78292687D01*
X135870704Y-78297384D01*
X135869446Y-78302349D01*
X135869445Y-78302354D01*
X135816695Y-78510657D01*
X135816693Y-78510666D01*
X135815436Y-78515632D01*
X135815012Y-78520741D01*
X135815011Y-78520751D01*
X135810307Y-78577523D01*
X135796844Y-78740000D01*
X133832998Y-78740000D01*
X133932565Y-78577524D01*
X133936978Y-78568862D01*
X134023899Y-78359014D01*
X134026903Y-78349770D01*
X134079932Y-78128892D01*
X134081449Y-78119312D01*
X134099272Y-77892854D01*
X134099272Y-77883146D01*
X134081449Y-77656687D01*
X134079932Y-77647107D01*
X134026903Y-77426229D01*
X134023899Y-77416985D01*
X133936977Y-77207133D01*
X133932565Y-77198476D01*
X133826117Y-77024770D01*
X133818296Y-77016793D01*
X133808828Y-77022724D01*
X132955095Y-77876457D01*
X132948431Y-77888000D01*
X132231567Y-77888000D01*
X132224903Y-77876457D01*
X131371170Y-77022724D01*
X131361702Y-77016793D01*
X131353881Y-77024770D01*
X131247434Y-77198476D01*
X131243022Y-77207133D01*
X131156100Y-77416985D01*
X131153096Y-77426229D01*
X131100067Y-77647107D01*
X131098550Y-77656687D01*
X131080728Y-77883146D01*
X131080728Y-77892854D01*
X125459272Y-77892854D01*
X125459272Y-77883146D01*
X125441449Y-77656687D01*
X125439932Y-77647107D01*
X125386903Y-77426229D01*
X125383899Y-77416985D01*
X125296977Y-77207133D01*
X125292565Y-77198476D01*
X125186117Y-77024770D01*
X125178296Y-77016793D01*
X125168828Y-77022724D01*
X124315095Y-77876457D01*
X124308431Y-77888000D01*
X123591567Y-77888000D01*
X123584903Y-77876457D01*
X122731170Y-77022724D01*
X122721702Y-77016793D01*
X122713881Y-77024770D01*
X122607434Y-77198476D01*
X122603022Y-77207133D01*
X122516100Y-77416985D01*
X122513096Y-77426229D01*
X122460067Y-77647107D01*
X122458550Y-77656687D01*
X122440728Y-77883146D01*
X122440728Y-77892854D01*
X120446629Y-77892854D01*
X120431534Y-77876457D01*
X120306711Y-77740864D01*
X120306706Y-77740859D01*
X120303240Y-77737094D01*
X120290597Y-77727253D01*
X120129623Y-77601960D01*
X120129615Y-77601955D01*
X120125576Y-77598811D01*
X120121071Y-77596373D01*
X120121065Y-77596369D01*
X119932080Y-77494096D01*
X119932074Y-77494093D01*
X119927574Y-77491658D01*
X119922733Y-77489996D01*
X119922726Y-77489993D01*
X119719488Y-77420222D01*
X119719487Y-77420221D01*
X119714635Y-77418556D01*
X119709585Y-77417713D01*
X119709576Y-77417711D01*
X119497631Y-77382344D01*
X119497622Y-77382343D01*
X119492569Y-77381500D01*
X119267431Y-77381500D01*
X119262378Y-77382343D01*
X119262368Y-77382344D01*
X119050423Y-77417711D01*
X119050411Y-77417713D01*
X119045365Y-77418556D01*
X119040515Y-77420220D01*
X119040511Y-77420222D01*
X118837273Y-77489993D01*
X118837262Y-77489997D01*
X118832426Y-77491658D01*
X118827929Y-77494091D01*
X118827919Y-77494096D01*
X118638934Y-77596369D01*
X118638922Y-77596376D01*
X118634424Y-77598811D01*
X118630389Y-77601951D01*
X118630376Y-77601960D01*
X118460801Y-77733948D01*
X118460795Y-77733952D01*
X118456760Y-77737094D01*
X118453294Y-77740858D01*
X118453294Y-77740859D01*
X118393548Y-77805760D01*
X118340924Y-77839613D01*
X118278470Y-77843461D01*
X118222089Y-77816323D01*
X118186137Y-77765110D01*
X118175687Y-77737094D01*
X118140889Y-77643796D01*
X118053261Y-77526739D01*
X118006398Y-77491658D01*
X117943304Y-77444426D01*
X117943303Y-77444425D01*
X117936204Y-77439111D01*
X117927896Y-77436012D01*
X117927894Y-77436011D01*
X117806463Y-77390719D01*
X117806458Y-77390717D01*
X117799201Y-77388011D01*
X117791497Y-77387182D01*
X117791494Y-77387182D01*
X117741924Y-77381853D01*
X117741918Y-77381852D01*
X117738638Y-77381500D01*
X115941362Y-77381500D01*
X115938082Y-77381852D01*
X115938075Y-77381853D01*
X115888505Y-77387182D01*
X115888500Y-77387182D01*
X115880799Y-77388011D01*
X115873543Y-77390717D01*
X115873536Y-77390719D01*
X115752105Y-77436011D01*
X115752099Y-77436013D01*
X115743796Y-77439111D01*
X115736698Y-77444423D01*
X115736695Y-77444426D01*
X115633835Y-77521426D01*
X115633831Y-77521429D01*
X115626739Y-77526739D01*
X115621429Y-77533831D01*
X115621426Y-77533835D01*
X115544426Y-77636695D01*
X115544423Y-77636698D01*
X115539111Y-77643796D01*
X115536013Y-77652099D01*
X115536011Y-77652105D01*
X115490719Y-77773536D01*
X115490717Y-77773543D01*
X115488011Y-77780799D01*
X115487182Y-77788500D01*
X115487182Y-77788505D01*
X115481853Y-77838075D01*
X115481500Y-77841362D01*
X115481500Y-79638638D01*
X101473500Y-79638638D01*
X101473500Y-75308500D01*
X101490113Y-75246500D01*
X101535500Y-75201113D01*
X101597500Y-75184500D01*
X106520390Y-75184500D01*
X106576685Y-75198015D01*
G37*
%TD.AperFunction*%
%TD*%
M02*
