%TF.GenerationSoftware,KiCad,Pcbnew,7.0.6-0*%
%TF.CreationDate,2023-07-20T20:41:53-06:00*%
%TF.ProjectId,Breadboard Power Supply,42726561-6462-46f6-9172-6420506f7765,v10*%
%TF.SameCoordinates,Original*%
%TF.FileFunction,Soldermask,Bot*%
%TF.FilePolarity,Negative*%
%FSLAX46Y46*%
G04 Gerber Fmt 4.6, Leading zero omitted, Abs format (unit mm)*
G04 Created by KiCad (PCBNEW 7.0.6-0) date 2023-07-20 20:41:53*
%MOMM*%
%LPD*%
G01*
G04 APERTURE LIST*
G04 Aperture macros list*
%AMRoundRect*
0 Rectangle with rounded corners*
0 $1 Rounding radius*
0 $2 $3 $4 $5 $6 $7 $8 $9 X,Y pos of 4 corners*
0 Add a 4 corners polygon primitive as box body*
4,1,4,$2,$3,$4,$5,$6,$7,$8,$9,$2,$3,0*
0 Add four circle primitives for the rounded corners*
1,1,$1+$1,$2,$3*
1,1,$1+$1,$4,$5*
1,1,$1+$1,$6,$7*
1,1,$1+$1,$8,$9*
0 Add four rect primitives between the rounded corners*
20,1,$1+$1,$2,$3,$4,$5,0*
20,1,$1+$1,$4,$5,$6,$7,0*
20,1,$1+$1,$6,$7,$8,$9,0*
20,1,$1+$1,$8,$9,$2,$3,0*%
G04 Aperture macros list end*
%ADD10R,1.700000X1.700000*%
%ADD11O,1.700000X1.700000*%
%ADD12C,1.450000*%
%ADD13C,1.830000*%
%ADD14RoundRect,0.250000X-0.250000X-0.475000X0.250000X-0.475000X0.250000X0.475000X-0.250000X0.475000X0*%
%ADD15RoundRect,0.250000X0.250000X0.475000X-0.250000X0.475000X-0.250000X-0.475000X0.250000X-0.475000X0*%
%ADD16R,1.500000X2.000000*%
%ADD17R,3.800000X2.000000*%
%ADD18RoundRect,0.140000X-0.140000X-0.170000X0.140000X-0.170000X0.140000X0.170000X-0.140000X0.170000X0*%
G04 APERTURE END LIST*
D10*
%TO.C,J4*%
X151003000Y-86360000D03*
D11*
X153543000Y-86360000D03*
X151003000Y-88900000D03*
X153543000Y-88900000D03*
X151003000Y-91440000D03*
X153543000Y-91440000D03*
X151003000Y-93980000D03*
X153543000Y-93980000D03*
%TD*%
D12*
%TO.C,J1*%
X132592000Y-77974000D03*
X123952000Y-77974000D03*
X132592000Y-81774000D03*
X123952000Y-81774000D03*
%TD*%
D10*
%TO.C,J5*%
X102997000Y-86360000D03*
D11*
X105537000Y-86360000D03*
X102997000Y-88900000D03*
X105537000Y-88900000D03*
X102997000Y-91440000D03*
X105537000Y-91440000D03*
X102997000Y-93980000D03*
X105537000Y-93980000D03*
%TD*%
D13*
%TO.C,TP1*%
X103759000Y-102638000D03*
X108839000Y-102638000D03*
%TD*%
%TO.C,TP4*%
X147701000Y-102638000D03*
X152781000Y-102638000D03*
%TD*%
D14*
%TO.C,C2*%
X132654000Y-79883000D03*
X134554000Y-79883000D03*
%TD*%
D15*
%TO.C,C1*%
X123886000Y-79883000D03*
X121986000Y-79883000D03*
%TD*%
D10*
%TO.C,J10*%
X119380000Y-78740000D03*
D11*
X119380000Y-81280000D03*
%TD*%
D10*
%TO.C,J8*%
X151765000Y-99060000D03*
D11*
X149225000Y-99060000D03*
%TD*%
D10*
%TO.C,J11*%
X137160000Y-78740000D03*
D11*
X137160000Y-81280000D03*
%TD*%
D16*
%TO.C,U3*%
X130570000Y-82652000D03*
X128270000Y-82652000D03*
D17*
X128270000Y-76352000D03*
D16*
X125970000Y-82652000D03*
%TD*%
D18*
%TO.C,C9*%
X133886000Y-81407000D03*
X134846000Y-81407000D03*
%TD*%
D10*
%TO.C,J9*%
X107315000Y-99060000D03*
D11*
X104775000Y-99060000D03*
%TD*%
M02*
