M48
; DRILL file {KiCad 7.0.5-0} date 2023 June 14, Wednesday 11:28:50
; FORMAT={-:-/ absolute / inch / decimal}
; #@! TF.CreationDate,2023-06-14T11:28:50-06:00
; #@! TF.GenerationSoftware,Kicad,Pcbnew,7.0.5-0
; #@! TF.FileFunction,Plated,1,2,PTH
FMAT,2
INCH
; #@! TA.AperFunction,Plated,PTH,ViaDrill
T1C0.0157
; #@! TA.AperFunction,Plated,PTH,ComponentDrill
T2C0.0378
; #@! TA.AperFunction,Plated,PTH,ComponentDrill
T3C0.0394
; #@! TA.AperFunction,Plated,PTH,ComponentDrill
T4C0.0480
%
G90
G05
T1
X4.165Y-3.195
X4.2316Y-2.9799
X4.4719Y-3.0981
X4.5237Y-3.2113
X4.9695Y-3.2824
X5.1327Y-3.2773
X5.29Y-3.1651
X5.36Y-3.03
X5.65Y-3.1674
X5.7911Y-3.2639
X5.86Y-3.4771
X5.865Y-3.18
X5.8804Y-3.0184
X5.97Y-3.4771
X6.085Y-3.2034
T2
X4.88Y-3.07
X4.88Y-3.2196
X5.2202Y-3.07
X5.2202Y-3.2196
T3
X4.0844Y-3.32
X4.0844Y-3.42
X4.125Y-3.7
X4.1844Y-3.32
X4.1844Y-3.42
X4.225Y-3.7
X4.2844Y-3.32
X4.2844Y-3.42
X4.6Y-3.1
X4.7Y-3.1
X5.4Y-3.1
X5.5Y-3.1
X5.8144Y-3.32
X5.8144Y-3.42
X5.875Y-3.7
X5.9144Y-3.32
X5.9144Y-3.42
X5.975Y-3.7
X6.0144Y-3.32
X6.0144Y-3.42
T4
X4.0838Y-3.8199
X4.2838Y-3.8199
X4.5512Y-3.2702
X4.7512Y-3.2702
X5.3488Y-3.27
X5.5488Y-3.27
X5.8138Y-3.8199
X6.0138Y-3.8199
T0
M30
