%TF.GenerationSoftware,KiCad,Pcbnew,8.0.1*%
%TF.CreationDate,2024-03-17T19:35:18-06:00*%
%TF.ProjectId,Breadboard Power Supply,42726561-6462-46f6-9172-6420506f7765,v10*%
%TF.SameCoordinates,Original*%
%TF.FileFunction,Paste,Top*%
%TF.FilePolarity,Positive*%
%FSLAX46Y46*%
G04 Gerber Fmt 4.6, Leading zero omitted, Abs format (unit mm)*
G04 Created by KiCad (PCBNEW 8.0.1) date 2024-03-17 19:35:18*
%MOMM*%
%LPD*%
G01*
G04 APERTURE LIST*
G04 Aperture macros list*
%AMRoundRect*
0 Rectangle with rounded corners*
0 $1 Rounding radius*
0 $2 $3 $4 $5 $6 $7 $8 $9 X,Y pos of 4 corners*
0 Add a 4 corners polygon primitive as box body*
4,1,4,$2,$3,$4,$5,$6,$7,$8,$9,$2,$3,0*
0 Add four circle primitives for the rounded corners*
1,1,$1+$1,$2,$3*
1,1,$1+$1,$4,$5*
1,1,$1+$1,$6,$7*
1,1,$1+$1,$8,$9*
0 Add four rect primitives between the rounded corners*
20,1,$1+$1,$2,$3,$4,$5,0*
20,1,$1+$1,$4,$5,$6,$7,0*
20,1,$1+$1,$6,$7,$8,$9,0*
20,1,$1+$1,$8,$9,$2,$3,0*%
G04 Aperture macros list end*
%ADD10RoundRect,0.135000X-0.185000X0.135000X-0.185000X-0.135000X0.185000X-0.135000X0.185000X0.135000X0*%
%ADD11RoundRect,0.218750X0.218750X0.256250X-0.218750X0.256250X-0.218750X-0.256250X0.218750X-0.256250X0*%
%ADD12RoundRect,0.250000X0.475000X-0.250000X0.475000X0.250000X-0.475000X0.250000X-0.475000X-0.250000X0*%
%ADD13R,3.200400X1.003300*%
%ADD14RoundRect,0.135000X0.185000X-0.135000X0.185000X0.135000X-0.185000X0.135000X-0.185000X-0.135000X0*%
%ADD15RoundRect,0.140000X-0.170000X0.140000X-0.170000X-0.140000X0.170000X-0.140000X0.170000X0.140000X0*%
%ADD16RoundRect,0.250000X-0.250000X-0.475000X0.250000X-0.475000X0.250000X0.475000X-0.250000X0.475000X0*%
%ADD17R,1.120000X1.370000*%
%ADD18R,0.700000X1.200000*%
%ADD19R,0.760000X1.200000*%
%ADD20R,0.800000X1.200000*%
%ADD21RoundRect,0.250000X-0.475000X0.250000X-0.475000X-0.250000X0.475000X-0.250000X0.475000X0.250000X0*%
%ADD22RoundRect,0.140000X0.140000X0.170000X-0.140000X0.170000X-0.140000X-0.170000X0.140000X-0.170000X0*%
%ADD23R,2.000000X1.500000*%
%ADD24R,2.000000X3.800000*%
%ADD25RoundRect,0.250000X0.250000X0.475000X-0.250000X0.475000X-0.250000X-0.475000X0.250000X-0.475000X0*%
G04 APERTURE END LIST*
D10*
%TO.C,R4*%
X110744000Y-78738000D03*
X110744000Y-79758000D03*
%TD*%
D11*
%TO.C,D3*%
X139129000Y-77116000D03*
X137554000Y-77116000D03*
%TD*%
D12*
%TO.C,C5*%
X145161000Y-80513000D03*
X145161000Y-78613000D03*
%TD*%
D13*
%TO.C,L2*%
X119761000Y-81235550D03*
X119761000Y-79038450D03*
%TD*%
D14*
%TO.C,R3*%
X135255000Y-78867000D03*
X135255000Y-77847000D03*
%TD*%
D15*
%TO.C,C8*%
X102042000Y-83467000D03*
X102042000Y-84427000D03*
%TD*%
%TO.C,C7*%
X145161000Y-81943000D03*
X145161000Y-82903000D03*
%TD*%
D14*
%TO.C,R2*%
X135255000Y-83441000D03*
X135255000Y-82421000D03*
%TD*%
D16*
%TO.C,C4*%
X106873000Y-83947000D03*
X108773000Y-83947000D03*
%TD*%
D17*
%TO.C,D1*%
X118007000Y-77089000D03*
X121007000Y-77089000D03*
%TD*%
D10*
%TO.C,R8*%
X140589000Y-78357000D03*
X140589000Y-79377000D03*
%TD*%
%TO.C,R7*%
X140589000Y-80643000D03*
X140589000Y-81663000D03*
%TD*%
D16*
%TO.C,C3*%
X147513000Y-83566000D03*
X149413000Y-83566000D03*
%TD*%
D18*
%TO.C,J1*%
X128772000Y-81854000D03*
D19*
X126752000Y-81854000D03*
D20*
X125522000Y-81854000D03*
D18*
X127772000Y-81854000D03*
D19*
X129792000Y-81854000D03*
D20*
X131022000Y-81854000D03*
%TD*%
D10*
%TO.C,R1*%
X135255000Y-80135000D03*
X135255000Y-81155000D03*
%TD*%
D21*
%TO.C,C11*%
X116713000Y-79187000D03*
X116713000Y-81087000D03*
%TD*%
D22*
%TO.C,C1*%
X116149000Y-77089000D03*
X115189000Y-77089000D03*
%TD*%
D10*
%TO.C,R6*%
X110744000Y-80643000D03*
X110744000Y-81663000D03*
%TD*%
D14*
%TO.C,R5*%
X145161000Y-76837000D03*
X145161000Y-75817000D03*
%TD*%
D23*
%TO.C,U2*%
X147472000Y-76567000D03*
X147472000Y-78867000D03*
D24*
X153772000Y-78867000D03*
D23*
X147472000Y-81167000D03*
%TD*%
D25*
%TO.C,C10*%
X121153000Y-83185000D03*
X119253000Y-83185000D03*
%TD*%
D16*
%TO.C,C6*%
X103378000Y-83947000D03*
X105278000Y-83947000D03*
%TD*%
D23*
%TO.C,U1*%
X108941000Y-81167000D03*
X108941000Y-78867000D03*
D24*
X102641000Y-78867000D03*
D23*
X108941000Y-76567000D03*
%TD*%
M02*
