M48
; DRILL file {KiCad 8.0.1} date 2024-03-17T20:14:22-0600
; FORMAT={-:-/ absolute / inch / decimal}
; #@! TF.CreationDate,2024-03-17T20:14:22-06:00
; #@! TF.GenerationSoftware,Kicad,Pcbnew,8.0.1
; #@! TF.FileFunction,Plated,1,4,PTH
FMAT,2
INCH
; #@! TA.AperFunction,Plated,PTH,ViaDrill
T1C0.0157
; #@! TA.AperFunction,Plated,PTH,ComponentDrill
T2C0.0378
; #@! TA.AperFunction,Plated,PTH,ComponentDrill
T3C0.0394
; #@! TA.AperFunction,Plated,PTH,ComponentDrill
T4C0.0480
%
G90
G05
T1
X4.015Y-3.355
X4.145Y-3.355
X4.215Y-3.355
X4.27Y-3.495
X4.325Y-3.305
X4.355Y-3.015
X4.385Y-3.235
X4.415Y-3.045
X4.595Y-3.0642
X4.645Y-3.245
X4.945Y-3.145
X4.975Y-3.285
X5.015Y-3.095
X5.1129Y-3.2712
X5.285Y-3.105
X5.365Y-3.215
X5.515Y-3.0184
X5.865Y-3.175
X5.905Y-3.195
T2
X4.88Y-3.0698
X4.88Y-3.2194
X5.2202Y-3.0698
X5.2202Y-3.2194
T3
X4.05Y-3.45
X4.05Y-3.55
X4.05Y-3.65
X4.05Y-3.75
X4.14Y-3.9
X4.15Y-3.45
X4.15Y-3.55
X4.15Y-3.65
X4.15Y-3.75
X4.24Y-3.9
X4.5Y-3.1
X4.5Y-3.2
X5.6Y-3.1
X5.6Y-3.2
X5.86Y-3.9
X5.95Y-3.45
X5.95Y-3.55
X5.95Y-3.65
X5.95Y-3.75
X5.96Y-3.9
X6.05Y-3.45
X6.05Y-3.55
X6.05Y-3.65
X6.05Y-3.75
T4
X4.085Y-4.0409
X4.285Y-4.0409
X5.815Y-4.0409
X6.015Y-4.0409
M30
