%TF.GenerationSoftware,KiCad,Pcbnew,(7.0.0-0)*%
%TF.CreationDate,2023-04-13T19:26:27-06:00*%
%TF.ProjectId,Breadboard Power Supply,42726561-6462-46f6-9172-6420506f7765,v4*%
%TF.SameCoordinates,Original*%
%TF.FileFunction,Copper,L2,Bot*%
%TF.FilePolarity,Positive*%
%FSLAX46Y46*%
G04 Gerber Fmt 4.6, Leading zero omitted, Abs format (unit mm)*
G04 Created by KiCad (PCBNEW (7.0.0-0)) date 2023-04-13 19:26:27*
%MOMM*%
%LPD*%
G01*
G04 APERTURE LIST*
%TA.AperFunction,ComponentPad*%
%ADD10C,2.010000*%
%TD*%
%TA.AperFunction,ComponentPad*%
%ADD11C,1.830000*%
%TD*%
%TA.AperFunction,ComponentPad*%
%ADD12R,1.700000X1.700000*%
%TD*%
%TA.AperFunction,ComponentPad*%
%ADD13O,1.700000X1.700000*%
%TD*%
%TA.AperFunction,ViaPad*%
%ADD14C,0.800000*%
%TD*%
%TA.AperFunction,Conductor*%
%ADD15C,0.750000*%
%TD*%
G04 APERTURE END LIST*
D10*
%TO.P,J1,MH1,MH1*%
%TO.N,GND*%
X132590000Y-77888000D03*
%TO.P,J1,MH2,MH2*%
X123950000Y-77888000D03*
%TO.P,J1,MH3,MH3*%
X132590000Y-81688000D03*
%TO.P,J1,MH4,MH4*%
X123950000Y-81688000D03*
%TD*%
D11*
%TO.P,TP3,1,1*%
%TO.N,GND*%
X135890000Y-85598000D03*
%TO.P,TP3,2,2*%
X140970000Y-85598000D03*
%TD*%
D12*
%TO.P,J2,1,Pin_1*%
%TO.N,+5V*%
X152780999Y-86613999D03*
D13*
%TO.P,J2,2,Pin_2*%
%TO.N,/TOP_POWER_RAIL*%
X152780999Y-89153999D03*
%TO.P,J2,3,Pin_3*%
%TO.N,+3.3V*%
X150240999Y-86613999D03*
%TO.P,J2,4,Pin_4*%
%TO.N,/TOP_POWER_RAIL*%
X150240999Y-89153999D03*
%TO.P,J2,5,Pin_5*%
%TO.N,+1V8*%
X147700999Y-86613999D03*
%TO.P,J2,6,Pin_6*%
%TO.N,/TOP_POWER_RAIL*%
X147700999Y-89153999D03*
%TD*%
D11*
%TO.P,TP2,1,1*%
%TO.N,GND*%
X120650000Y-85598000D03*
%TO.P,TP2,2,2*%
X115570000Y-85598000D03*
%TD*%
D12*
%TO.P,J3,1,Pin_1*%
%TO.N,+5V*%
X108823999Y-86613999D03*
D13*
%TO.P,J3,2,Pin_2*%
%TO.N,/BOTTOM_POWER_RAIL*%
X108823999Y-89153999D03*
%TO.P,J3,3,Pin_3*%
%TO.N,+3.3V*%
X106283999Y-86613999D03*
%TO.P,J3,4,Pin_4*%
%TO.N,/BOTTOM_POWER_RAIL*%
X106283999Y-89153999D03*
%TO.P,J3,5,Pin_5*%
%TO.N,+1V8*%
X103743999Y-86613999D03*
%TO.P,J3,6,Pin_6*%
%TO.N,/BOTTOM_POWER_RAIL*%
X103743999Y-89153999D03*
%TD*%
D11*
%TO.P,TP1,1,1*%
%TO.N,GND*%
X103759000Y-96012000D03*
%TO.P,TP1,2,2*%
X108839000Y-96012000D03*
%TD*%
%TO.P,TP4,1,1*%
%TO.N,GND*%
X147701000Y-96012000D03*
%TO.P,TP4,2,2*%
X152781000Y-96012000D03*
%TD*%
D12*
%TO.P,J10,1,Pin_1*%
%TO.N,unconnected-(J10-Pin_1-Pad1)*%
X116839999Y-78739999D03*
D13*
%TO.P,J10,2,Pin_2*%
%TO.N,unconnected-(J10-Pin_2-Pad2)*%
X119379999Y-78739999D03*
%TD*%
D12*
%TO.P,J8,1,Pin_1*%
%TO.N,/TOP_POWER_RAIL*%
X149224999Y-99059999D03*
D13*
%TO.P,J8,2,Pin_2*%
%TO.N,GND*%
X151764999Y-99059999D03*
%TD*%
D12*
%TO.P,J11,1,Pin_1*%
%TO.N,unconnected-(J11-Pin_1-Pad1)*%
X139699999Y-78739999D03*
D13*
%TO.P,J11,2,Pin_2*%
%TO.N,unconnected-(J11-Pin_2-Pad2)*%
X137159999Y-78739999D03*
%TD*%
D12*
%TO.P,J9,1,Pin_1*%
%TO.N,/BOTTOM_POWER_RAIL*%
X104774999Y-99059999D03*
D13*
%TO.P,J9,2,Pin_2*%
%TO.N,GND*%
X107314999Y-99059999D03*
%TD*%
D14*
%TO.N,GND*%
X104394000Y-75692000D03*
X145542000Y-79338500D03*
X118872000Y-82042000D03*
X152590500Y-77152500D03*
X110236000Y-76454000D03*
X134239000Y-75944000D03*
X146812000Y-76327000D03*
X143637000Y-81788000D03*
X144018000Y-85471000D03*
X107823000Y-84074000D03*
X134368799Y-79631799D03*
%TO.N,+3.3V*%
X112522000Y-87122000D03*
X134874000Y-82705500D03*
%TO.N,+5V*%
X107442000Y-79629000D03*
X114681000Y-83947000D03*
X149266500Y-84963000D03*
%TD*%
D15*
%TO.N,+3.3V*%
X134874000Y-82705500D02*
X130457500Y-87122000D01*
X130457500Y-87122000D02*
X112522000Y-87122000D01*
%TO.N,+5V*%
X152781000Y-86614000D02*
X151130000Y-84963000D01*
X106721000Y-80350000D02*
X106721000Y-84511000D01*
X106721000Y-84511000D02*
X108824000Y-86614000D01*
X111651141Y-86614000D02*
X108824000Y-86614000D01*
X107442000Y-79629000D02*
X106721000Y-80350000D01*
X151130000Y-84963000D02*
X149266500Y-84963000D01*
X114681000Y-83947000D02*
X114318141Y-83947000D01*
X114318141Y-83947000D02*
X111651141Y-86614000D01*
%TD*%
%TA.AperFunction,Conductor*%
%TO.N,GND*%
G36*
X154750500Y-75201113D02*
G01*
X154795887Y-75246500D01*
X154812500Y-75308500D01*
X154812500Y-100840500D01*
X154795887Y-100902500D01*
X154750500Y-100947887D01*
X154688500Y-100964500D01*
X145920500Y-100964500D01*
X145858500Y-100947887D01*
X145813113Y-100902500D01*
X145796500Y-100840500D01*
X145796500Y-99958638D01*
X147866500Y-99958638D01*
X147873011Y-100019201D01*
X147875717Y-100026458D01*
X147875719Y-100026463D01*
X147921011Y-100147894D01*
X147924111Y-100156204D01*
X148011739Y-100273261D01*
X148128796Y-100360889D01*
X148265799Y-100411989D01*
X148326362Y-100418500D01*
X150120328Y-100418500D01*
X150123638Y-100418500D01*
X150184201Y-100411989D01*
X150321204Y-100360889D01*
X150438261Y-100273261D01*
X150525889Y-100156204D01*
X150574222Y-100026617D01*
X150609200Y-99976240D01*
X150664045Y-99948787D01*
X150725338Y-99950976D01*
X150778084Y-99982272D01*
X150890090Y-100094278D01*
X150898356Y-100101215D01*
X151082991Y-100230498D01*
X151092323Y-100235886D01*
X151296602Y-100331143D01*
X151306736Y-100334831D01*
X151501219Y-100386943D01*
X151512448Y-100387311D01*
X151515000Y-100376369D01*
X152015000Y-100376369D01*
X152017551Y-100387311D01*
X152028780Y-100386943D01*
X152223263Y-100334831D01*
X152233397Y-100331143D01*
X152437676Y-100235886D01*
X152447008Y-100230498D01*
X152631643Y-100101215D01*
X152639909Y-100094278D01*
X152799278Y-99934909D01*
X152806215Y-99926643D01*
X152935498Y-99742008D01*
X152940886Y-99732676D01*
X153036143Y-99528397D01*
X153039831Y-99518263D01*
X153091943Y-99323780D01*
X153092311Y-99312551D01*
X153081369Y-99310000D01*
X152031326Y-99310000D01*
X152018450Y-99313450D01*
X152015000Y-99326326D01*
X152015000Y-100376369D01*
X151515000Y-100376369D01*
X151515000Y-98793674D01*
X152015000Y-98793674D01*
X152018450Y-98806549D01*
X152031326Y-98810000D01*
X153081369Y-98810000D01*
X153092311Y-98807448D01*
X153091943Y-98796219D01*
X153039831Y-98601736D01*
X153036143Y-98591602D01*
X152940889Y-98387332D01*
X152935491Y-98377982D01*
X152806215Y-98193357D01*
X152799280Y-98185092D01*
X152639909Y-98025721D01*
X152631643Y-98018784D01*
X152447008Y-97889501D01*
X152437676Y-97884113D01*
X152233397Y-97788856D01*
X152223263Y-97785168D01*
X152028780Y-97733056D01*
X152017551Y-97732688D01*
X152015000Y-97743631D01*
X152015000Y-98793674D01*
X151515000Y-98793674D01*
X151515000Y-97743631D01*
X151512448Y-97732688D01*
X151501219Y-97733056D01*
X151306736Y-97785168D01*
X151296602Y-97788856D01*
X151092332Y-97884110D01*
X151082982Y-97889508D01*
X150898357Y-98018784D01*
X150890098Y-98025714D01*
X150778084Y-98137728D01*
X150725337Y-98169023D01*
X150664045Y-98171212D01*
X150609200Y-98143759D01*
X150574221Y-98093379D01*
X150528989Y-97972107D01*
X150528988Y-97972105D01*
X150525889Y-97963796D01*
X150438261Y-97846739D01*
X150321204Y-97759111D01*
X150312896Y-97756012D01*
X150312894Y-97756011D01*
X150191463Y-97710719D01*
X150191458Y-97710717D01*
X150184201Y-97708011D01*
X150176497Y-97707182D01*
X150176494Y-97707182D01*
X150126924Y-97701853D01*
X150126918Y-97701852D01*
X150123638Y-97701500D01*
X148326362Y-97701500D01*
X148323082Y-97701852D01*
X148323075Y-97701853D01*
X148273505Y-97707182D01*
X148273500Y-97707182D01*
X148265799Y-97708011D01*
X148258543Y-97710717D01*
X148258536Y-97710719D01*
X148137105Y-97756011D01*
X148137099Y-97756013D01*
X148128796Y-97759111D01*
X148121698Y-97764423D01*
X148121695Y-97764426D01*
X148018835Y-97841426D01*
X148018831Y-97841429D01*
X148011739Y-97846739D01*
X148006429Y-97853831D01*
X148006426Y-97853835D01*
X147929426Y-97956695D01*
X147929423Y-97956698D01*
X147924111Y-97963796D01*
X147921013Y-97972099D01*
X147921011Y-97972105D01*
X147875719Y-98093536D01*
X147875717Y-98093543D01*
X147873011Y-98100799D01*
X147872182Y-98108500D01*
X147872182Y-98108505D01*
X147868392Y-98143759D01*
X147866500Y-98161362D01*
X147866500Y-99958638D01*
X145796500Y-99958638D01*
X145796500Y-97174680D01*
X146897318Y-97174680D01*
X146905423Y-97185868D01*
X146920366Y-97197499D01*
X146928925Y-97203091D01*
X147126148Y-97309823D01*
X147135501Y-97313925D01*
X147347595Y-97386737D01*
X147357504Y-97389246D01*
X147578686Y-97426155D01*
X147588884Y-97427000D01*
X147813116Y-97427000D01*
X147823313Y-97426155D01*
X148044495Y-97389246D01*
X148054404Y-97386737D01*
X148266498Y-97313925D01*
X148275851Y-97309823D01*
X148473076Y-97203090D01*
X148481631Y-97197500D01*
X148496573Y-97185869D01*
X148504679Y-97174680D01*
X151977318Y-97174680D01*
X151985423Y-97185868D01*
X152000366Y-97197499D01*
X152008925Y-97203091D01*
X152206148Y-97309823D01*
X152215501Y-97313925D01*
X152427595Y-97386737D01*
X152437504Y-97389246D01*
X152658686Y-97426155D01*
X152668884Y-97427000D01*
X152893116Y-97427000D01*
X152903313Y-97426155D01*
X153124495Y-97389246D01*
X153134404Y-97386737D01*
X153346498Y-97313925D01*
X153355851Y-97309823D01*
X153553076Y-97203090D01*
X153561631Y-97197500D01*
X153576573Y-97185869D01*
X153584680Y-97174679D01*
X153578020Y-97162573D01*
X152792542Y-96377095D01*
X152781000Y-96370431D01*
X152769457Y-96377095D01*
X151983979Y-97162572D01*
X151977318Y-97174680D01*
X148504679Y-97174680D01*
X148504680Y-97174679D01*
X148498020Y-97162573D01*
X147712542Y-96377095D01*
X147701000Y-96370431D01*
X147689457Y-96377095D01*
X146903979Y-97162572D01*
X146897318Y-97174680D01*
X145796500Y-97174680D01*
X145796500Y-96017117D01*
X146281574Y-96017117D01*
X146300090Y-96240580D01*
X146301774Y-96250675D01*
X146356822Y-96468054D01*
X146360141Y-96477721D01*
X146450217Y-96683075D01*
X146455086Y-96692070D01*
X146531407Y-96808888D01*
X146539375Y-96816613D01*
X146548756Y-96810689D01*
X147335904Y-96023542D01*
X147342568Y-96011999D01*
X148059431Y-96011999D01*
X148066095Y-96023542D01*
X148853242Y-96810689D01*
X148862624Y-96816613D01*
X148870588Y-96808893D01*
X148946916Y-96692066D01*
X148951781Y-96683077D01*
X149041858Y-96477721D01*
X149045177Y-96468054D01*
X149100225Y-96250675D01*
X149101909Y-96240580D01*
X149120426Y-96017117D01*
X151361574Y-96017117D01*
X151380090Y-96240580D01*
X151381774Y-96250675D01*
X151436822Y-96468054D01*
X151440141Y-96477721D01*
X151530217Y-96683075D01*
X151535086Y-96692070D01*
X151611407Y-96808888D01*
X151619375Y-96816613D01*
X151628756Y-96810689D01*
X152415904Y-96023542D01*
X152422568Y-96011999D01*
X153139431Y-96011999D01*
X153146095Y-96023542D01*
X153933242Y-96810689D01*
X153942624Y-96816613D01*
X153950588Y-96808893D01*
X154026916Y-96692066D01*
X154031781Y-96683077D01*
X154121858Y-96477721D01*
X154125177Y-96468054D01*
X154180225Y-96250675D01*
X154181909Y-96240580D01*
X154200426Y-96017117D01*
X154200426Y-96006883D01*
X154181909Y-95783419D01*
X154180225Y-95773324D01*
X154125177Y-95555945D01*
X154121858Y-95546278D01*
X154031782Y-95340924D01*
X154026913Y-95331929D01*
X153950591Y-95215110D01*
X153942623Y-95207385D01*
X153933242Y-95213309D01*
X153146095Y-96000457D01*
X153139431Y-96011999D01*
X152422568Y-96011999D01*
X152415904Y-96000457D01*
X151628756Y-95213309D01*
X151619374Y-95207385D01*
X151611410Y-95215105D01*
X151535081Y-95331937D01*
X151530219Y-95340920D01*
X151440141Y-95546278D01*
X151436822Y-95555945D01*
X151381774Y-95773324D01*
X151380090Y-95783419D01*
X151361574Y-96006883D01*
X151361574Y-96017117D01*
X149120426Y-96017117D01*
X149120426Y-96006883D01*
X149101909Y-95783419D01*
X149100225Y-95773324D01*
X149045177Y-95555945D01*
X149041858Y-95546278D01*
X148951782Y-95340924D01*
X148946913Y-95331929D01*
X148870591Y-95215110D01*
X148862623Y-95207385D01*
X148853242Y-95213309D01*
X148066095Y-96000457D01*
X148059431Y-96011999D01*
X147342568Y-96011999D01*
X147335904Y-96000457D01*
X146548756Y-95213309D01*
X146539374Y-95207385D01*
X146531410Y-95215105D01*
X146455081Y-95331937D01*
X146450219Y-95340920D01*
X146360141Y-95546278D01*
X146356822Y-95555945D01*
X146301774Y-95773324D01*
X146300090Y-95783419D01*
X146281574Y-96006883D01*
X146281574Y-96017117D01*
X145796500Y-96017117D01*
X145796500Y-94849320D01*
X146897319Y-94849320D01*
X146903978Y-94861425D01*
X147689457Y-95646904D01*
X147701000Y-95653568D01*
X147712542Y-95646904D01*
X148498019Y-94861426D01*
X148504678Y-94849320D01*
X151977319Y-94849320D01*
X151983978Y-94861425D01*
X152769457Y-95646904D01*
X152781000Y-95653568D01*
X152792542Y-95646904D01*
X153578019Y-94861426D01*
X153584679Y-94849319D01*
X153576573Y-94838129D01*
X153561629Y-94826497D01*
X153553077Y-94820910D01*
X153355851Y-94714176D01*
X153346498Y-94710074D01*
X153134404Y-94637262D01*
X153124495Y-94634753D01*
X152903313Y-94597844D01*
X152893116Y-94597000D01*
X152668884Y-94597000D01*
X152658686Y-94597844D01*
X152437504Y-94634753D01*
X152427595Y-94637262D01*
X152215501Y-94710074D01*
X152206148Y-94714176D01*
X152008924Y-94820909D01*
X152000369Y-94826498D01*
X151985425Y-94838129D01*
X151977319Y-94849320D01*
X148504678Y-94849320D01*
X148504679Y-94849319D01*
X148496573Y-94838129D01*
X148481629Y-94826497D01*
X148473077Y-94820910D01*
X148275851Y-94714176D01*
X148266498Y-94710074D01*
X148054404Y-94637262D01*
X148044495Y-94634753D01*
X147823313Y-94597844D01*
X147813116Y-94597000D01*
X147588884Y-94597000D01*
X147578686Y-94597844D01*
X147357504Y-94634753D01*
X147347595Y-94637262D01*
X147135501Y-94710074D01*
X147126148Y-94714176D01*
X146928924Y-94820909D01*
X146920369Y-94826498D01*
X146905425Y-94838129D01*
X146897319Y-94849320D01*
X145796500Y-94849320D01*
X145796500Y-89154000D01*
X146337844Y-89154000D01*
X146338268Y-89159117D01*
X146356011Y-89373248D01*
X146356012Y-89373256D01*
X146356436Y-89378368D01*
X146357693Y-89383335D01*
X146357695Y-89383342D01*
X146410445Y-89591645D01*
X146411704Y-89596616D01*
X146413764Y-89601312D01*
X146500080Y-89798096D01*
X146500083Y-89798101D01*
X146502140Y-89802791D01*
X146507870Y-89811561D01*
X146622474Y-89986977D01*
X146622477Y-89986981D01*
X146625278Y-89991268D01*
X146628752Y-89995041D01*
X146628753Y-89995043D01*
X146774288Y-90153135D01*
X146774291Y-90153138D01*
X146777760Y-90156906D01*
X146781801Y-90160051D01*
X146951376Y-90292039D01*
X146951381Y-90292042D01*
X146955424Y-90295189D01*
X146959931Y-90297628D01*
X146959934Y-90297630D01*
X147148919Y-90399903D01*
X147153426Y-90402342D01*
X147366365Y-90475444D01*
X147588431Y-90512500D01*
X147808436Y-90512500D01*
X147813569Y-90512500D01*
X148035635Y-90475444D01*
X148248574Y-90402342D01*
X148446576Y-90295189D01*
X148624240Y-90156906D01*
X148776722Y-89991268D01*
X148867190Y-89852795D01*
X148911982Y-89811561D01*
X148971000Y-89796616D01*
X149030018Y-89811561D01*
X149074809Y-89852795D01*
X149162470Y-89986972D01*
X149162478Y-89986982D01*
X149165278Y-89991268D01*
X149168752Y-89995041D01*
X149168753Y-89995043D01*
X149314288Y-90153135D01*
X149314291Y-90153138D01*
X149317760Y-90156906D01*
X149321801Y-90160051D01*
X149491376Y-90292039D01*
X149491381Y-90292042D01*
X149495424Y-90295189D01*
X149499931Y-90297628D01*
X149499934Y-90297630D01*
X149688919Y-90399903D01*
X149693426Y-90402342D01*
X149906365Y-90475444D01*
X150128431Y-90512500D01*
X150348436Y-90512500D01*
X150353569Y-90512500D01*
X150575635Y-90475444D01*
X150788574Y-90402342D01*
X150986576Y-90295189D01*
X151164240Y-90156906D01*
X151316722Y-89991268D01*
X151407190Y-89852795D01*
X151451982Y-89811561D01*
X151511000Y-89796616D01*
X151570018Y-89811561D01*
X151614809Y-89852795D01*
X151702470Y-89986972D01*
X151702478Y-89986982D01*
X151705278Y-89991268D01*
X151708752Y-89995041D01*
X151708753Y-89995043D01*
X151854288Y-90153135D01*
X151854291Y-90153138D01*
X151857760Y-90156906D01*
X151861801Y-90160051D01*
X152031376Y-90292039D01*
X152031381Y-90292042D01*
X152035424Y-90295189D01*
X152039931Y-90297628D01*
X152039934Y-90297630D01*
X152228919Y-90399903D01*
X152233426Y-90402342D01*
X152446365Y-90475444D01*
X152668431Y-90512500D01*
X152888436Y-90512500D01*
X152893569Y-90512500D01*
X153115635Y-90475444D01*
X153328574Y-90402342D01*
X153526576Y-90295189D01*
X153704240Y-90156906D01*
X153856722Y-89991268D01*
X153979860Y-89802791D01*
X154070296Y-89596616D01*
X154125564Y-89378368D01*
X154144156Y-89154000D01*
X154125564Y-88929632D01*
X154070296Y-88711384D01*
X153979860Y-88505209D01*
X153856722Y-88316732D01*
X153711506Y-88158987D01*
X153682735Y-88106239D01*
X153682142Y-88046152D01*
X153709869Y-87992841D01*
X153759404Y-87958826D01*
X153877204Y-87914889D01*
X153994261Y-87827261D01*
X154081889Y-87710204D01*
X154132989Y-87573201D01*
X154139500Y-87512638D01*
X154139500Y-85715362D01*
X154132989Y-85654799D01*
X154081889Y-85517796D01*
X153994261Y-85400739D01*
X153952422Y-85369419D01*
X153884304Y-85318426D01*
X153884303Y-85318425D01*
X153877204Y-85313111D01*
X153868896Y-85310012D01*
X153868894Y-85310011D01*
X153747463Y-85264719D01*
X153747458Y-85264717D01*
X153740201Y-85262011D01*
X153732497Y-85261182D01*
X153732494Y-85261182D01*
X153682924Y-85255853D01*
X153682918Y-85255852D01*
X153679638Y-85255500D01*
X153676328Y-85255500D01*
X152723319Y-85255500D01*
X152675866Y-85246061D01*
X152635638Y-85219181D01*
X152232251Y-84815794D01*
X151810798Y-84394340D01*
X151798160Y-84379543D01*
X151794004Y-84373823D01*
X151790185Y-84368566D01*
X151740775Y-84324077D01*
X151736066Y-84319608D01*
X151724291Y-84307833D01*
X151724291Y-84307832D01*
X151721986Y-84305528D01*
X151719464Y-84303486D01*
X151719460Y-84303482D01*
X151710311Y-84296074D01*
X151706487Y-84292977D01*
X151701582Y-84288787D01*
X151652169Y-84244296D01*
X151646542Y-84241047D01*
X151646539Y-84241045D01*
X151640411Y-84237507D01*
X151624382Y-84226490D01*
X151613839Y-84217953D01*
X151608052Y-84215004D01*
X151608047Y-84215001D01*
X151554602Y-84187769D01*
X151548898Y-84184672D01*
X151496960Y-84154686D01*
X151491331Y-84151436D01*
X151478419Y-84147240D01*
X151460457Y-84139799D01*
X151454154Y-84136588D01*
X151454149Y-84136586D01*
X151448363Y-84133638D01*
X151442091Y-84131957D01*
X151442090Y-84131957D01*
X151384140Y-84116429D01*
X151377917Y-84114585D01*
X151320884Y-84096054D01*
X151320878Y-84096052D01*
X151314702Y-84094046D01*
X151308245Y-84093367D01*
X151308240Y-84093366D01*
X151301206Y-84092627D01*
X151282086Y-84089083D01*
X151275254Y-84087252D01*
X151275241Y-84087250D01*
X151268971Y-84085570D01*
X151262485Y-84085230D01*
X151262479Y-84085229D01*
X151202575Y-84082089D01*
X151196113Y-84081580D01*
X151179545Y-84079839D01*
X151179518Y-84079837D01*
X151176306Y-84079500D01*
X151173063Y-84079500D01*
X151156397Y-84079500D01*
X151149907Y-84079330D01*
X151089998Y-84076190D01*
X151089996Y-84076190D01*
X151083507Y-84075850D01*
X151077086Y-84076866D01*
X151077085Y-84076867D01*
X151070103Y-84077973D01*
X151050705Y-84079500D01*
X149492634Y-84079500D01*
X149466853Y-84076790D01*
X149368349Y-84055852D01*
X149368346Y-84055851D01*
X149361987Y-84054500D01*
X149171013Y-84054500D01*
X149164654Y-84055851D01*
X149164650Y-84055852D01*
X148990572Y-84092853D01*
X148990561Y-84092856D01*
X148984212Y-84094206D01*
X148978282Y-84096845D01*
X148978273Y-84096849D01*
X148815682Y-84169239D01*
X148815674Y-84169243D01*
X148809748Y-84171882D01*
X148804499Y-84175695D01*
X148804493Y-84175699D01*
X148660500Y-84280316D01*
X148660491Y-84280323D01*
X148655247Y-84284134D01*
X148650903Y-84288957D01*
X148650900Y-84288961D01*
X148531807Y-84421228D01*
X148527460Y-84426056D01*
X148524214Y-84431676D01*
X148524211Y-84431682D01*
X148435221Y-84585817D01*
X148435218Y-84585822D01*
X148431973Y-84591444D01*
X148429967Y-84597616D01*
X148429965Y-84597622D01*
X148374965Y-84766892D01*
X148374963Y-84766901D01*
X148372958Y-84773072D01*
X148372280Y-84779522D01*
X148372278Y-84779532D01*
X148361934Y-84877960D01*
X148352996Y-84963000D01*
X148353675Y-84969460D01*
X148372278Y-85146467D01*
X148372279Y-85146475D01*
X148372958Y-85152928D01*
X148374964Y-85159104D01*
X148374966Y-85159110D01*
X148389606Y-85204168D01*
X148392128Y-85271931D01*
X148358628Y-85330888D01*
X148299125Y-85363409D01*
X148231412Y-85359766D01*
X148040488Y-85294222D01*
X148040487Y-85294221D01*
X148035635Y-85292556D01*
X148030585Y-85291713D01*
X148030576Y-85291711D01*
X147818631Y-85256344D01*
X147818622Y-85256343D01*
X147813569Y-85255500D01*
X147588431Y-85255500D01*
X147583378Y-85256343D01*
X147583368Y-85256344D01*
X147371423Y-85291711D01*
X147371411Y-85291713D01*
X147366365Y-85292556D01*
X147361515Y-85294220D01*
X147361511Y-85294222D01*
X147158273Y-85363993D01*
X147158262Y-85363997D01*
X147153426Y-85365658D01*
X147148929Y-85368091D01*
X147148919Y-85368096D01*
X146959934Y-85470369D01*
X146959922Y-85470376D01*
X146955424Y-85472811D01*
X146951389Y-85475951D01*
X146951376Y-85475960D01*
X146781801Y-85607948D01*
X146781795Y-85607952D01*
X146777760Y-85611094D01*
X146774297Y-85614855D01*
X146774288Y-85614864D01*
X146628753Y-85772956D01*
X146628747Y-85772963D01*
X146625278Y-85776732D01*
X146622481Y-85781012D01*
X146622474Y-85781022D01*
X146568347Y-85863871D01*
X146502140Y-85965209D01*
X146500085Y-85969892D01*
X146500080Y-85969903D01*
X146413764Y-86166687D01*
X146411704Y-86171384D01*
X146410446Y-86176349D01*
X146410445Y-86176354D01*
X146357695Y-86384657D01*
X146357693Y-86384666D01*
X146356436Y-86389632D01*
X146356012Y-86394741D01*
X146356011Y-86394751D01*
X146355360Y-86402613D01*
X146337844Y-86614000D01*
X146338268Y-86619117D01*
X146356011Y-86833248D01*
X146356012Y-86833256D01*
X146356436Y-86838368D01*
X146357693Y-86843335D01*
X146357695Y-86843342D01*
X146372024Y-86899925D01*
X146411704Y-87056616D01*
X146413764Y-87061312D01*
X146500080Y-87258096D01*
X146500083Y-87258101D01*
X146502140Y-87262791D01*
X146507870Y-87271561D01*
X146622474Y-87446977D01*
X146622477Y-87446981D01*
X146625278Y-87451268D01*
X146628752Y-87455041D01*
X146628753Y-87455043D01*
X146774288Y-87613135D01*
X146774291Y-87613138D01*
X146777760Y-87616906D01*
X146806786Y-87639498D01*
X146951376Y-87752039D01*
X146951381Y-87752042D01*
X146955424Y-87755189D01*
X146991930Y-87774945D01*
X147039434Y-87820523D01*
X147056913Y-87883996D01*
X147039437Y-87947471D01*
X146991933Y-87993053D01*
X146959930Y-88010372D01*
X146959925Y-88010374D01*
X146955424Y-88012811D01*
X146951389Y-88015951D01*
X146951376Y-88015960D01*
X146781801Y-88147948D01*
X146781795Y-88147952D01*
X146777760Y-88151094D01*
X146774297Y-88154855D01*
X146774288Y-88154864D01*
X146628753Y-88312956D01*
X146628747Y-88312963D01*
X146625278Y-88316732D01*
X146622481Y-88321012D01*
X146622474Y-88321022D01*
X146534809Y-88455205D01*
X146502140Y-88505209D01*
X146500085Y-88509892D01*
X146500080Y-88509903D01*
X146431000Y-88667393D01*
X146411704Y-88711384D01*
X146410446Y-88716349D01*
X146410445Y-88716354D01*
X146357695Y-88924657D01*
X146357693Y-88924666D01*
X146356436Y-88929632D01*
X146356012Y-88934741D01*
X146356011Y-88934751D01*
X146338268Y-89148883D01*
X146337844Y-89154000D01*
X145796500Y-89154000D01*
X145796500Y-87642025D01*
X145796500Y-87630099D01*
X145796541Y-87630000D01*
X145796383Y-87629617D01*
X145796099Y-87629500D01*
X145796000Y-87629459D01*
X145795901Y-87629500D01*
X131498820Y-87629500D01*
X131442525Y-87615985D01*
X131398502Y-87578385D01*
X131376347Y-87524898D01*
X131380889Y-87467182D01*
X131411139Y-87417819D01*
X132068278Y-86760680D01*
X135086318Y-86760680D01*
X135094423Y-86771868D01*
X135109366Y-86783499D01*
X135117925Y-86789091D01*
X135315148Y-86895823D01*
X135324501Y-86899925D01*
X135536595Y-86972737D01*
X135546504Y-86975246D01*
X135767686Y-87012155D01*
X135777884Y-87013000D01*
X136002116Y-87013000D01*
X136012313Y-87012155D01*
X136233495Y-86975246D01*
X136243404Y-86972737D01*
X136455498Y-86899925D01*
X136464851Y-86895823D01*
X136662076Y-86789090D01*
X136670631Y-86783500D01*
X136685573Y-86771869D01*
X136693679Y-86760680D01*
X140166318Y-86760680D01*
X140174423Y-86771868D01*
X140189366Y-86783499D01*
X140197925Y-86789091D01*
X140395148Y-86895823D01*
X140404501Y-86899925D01*
X140616595Y-86972737D01*
X140626504Y-86975246D01*
X140847686Y-87012155D01*
X140857884Y-87013000D01*
X141082116Y-87013000D01*
X141092313Y-87012155D01*
X141313495Y-86975246D01*
X141323404Y-86972737D01*
X141535498Y-86899925D01*
X141544851Y-86895823D01*
X141742076Y-86789090D01*
X141750631Y-86783500D01*
X141765573Y-86771869D01*
X141773680Y-86760679D01*
X141767020Y-86748573D01*
X140981542Y-85963095D01*
X140970000Y-85956431D01*
X140958457Y-85963095D01*
X140172979Y-86748572D01*
X140166318Y-86760680D01*
X136693679Y-86760680D01*
X136693680Y-86760679D01*
X136687020Y-86748573D01*
X135901542Y-85963095D01*
X135890000Y-85956431D01*
X135878457Y-85963095D01*
X135092979Y-86748572D01*
X135086318Y-86760680D01*
X132068278Y-86760680D01*
X132220075Y-86608883D01*
X133225840Y-85603117D01*
X134470574Y-85603117D01*
X134489090Y-85826580D01*
X134490774Y-85836675D01*
X134545822Y-86054054D01*
X134549141Y-86063721D01*
X134639217Y-86269075D01*
X134644086Y-86278070D01*
X134720407Y-86394888D01*
X134728375Y-86402613D01*
X134737756Y-86396689D01*
X135524904Y-85609542D01*
X135531568Y-85598000D01*
X136248431Y-85598000D01*
X136255095Y-85609542D01*
X137042242Y-86396689D01*
X137051624Y-86402613D01*
X137059588Y-86394893D01*
X137135916Y-86278066D01*
X137140781Y-86269077D01*
X137230858Y-86063721D01*
X137234177Y-86054054D01*
X137289225Y-85836675D01*
X137290909Y-85826580D01*
X137309426Y-85603117D01*
X139550574Y-85603117D01*
X139569090Y-85826580D01*
X139570774Y-85836675D01*
X139625822Y-86054054D01*
X139629141Y-86063721D01*
X139719217Y-86269075D01*
X139724086Y-86278070D01*
X139800407Y-86394888D01*
X139808375Y-86402613D01*
X139817756Y-86396689D01*
X140604904Y-85609542D01*
X140611568Y-85598000D01*
X141328431Y-85598000D01*
X141335095Y-85609542D01*
X142122242Y-86396689D01*
X142131624Y-86402613D01*
X142139588Y-86394893D01*
X142215916Y-86278066D01*
X142220781Y-86269077D01*
X142310858Y-86063721D01*
X142314177Y-86054054D01*
X142369225Y-85836675D01*
X142370909Y-85826580D01*
X142389426Y-85603117D01*
X142389426Y-85592883D01*
X142370909Y-85369419D01*
X142369225Y-85359324D01*
X142314177Y-85141945D01*
X142310858Y-85132278D01*
X142220782Y-84926924D01*
X142215913Y-84917929D01*
X142139591Y-84801110D01*
X142131623Y-84793385D01*
X142122242Y-84799309D01*
X141335095Y-85586457D01*
X141328431Y-85598000D01*
X140611568Y-85598000D01*
X140604904Y-85586457D01*
X139817756Y-84799309D01*
X139808374Y-84793385D01*
X139800410Y-84801105D01*
X139724081Y-84917937D01*
X139719219Y-84926920D01*
X139629141Y-85132278D01*
X139625822Y-85141945D01*
X139570774Y-85359324D01*
X139569090Y-85369419D01*
X139550574Y-85592883D01*
X139550574Y-85603117D01*
X137309426Y-85603117D01*
X137309426Y-85592883D01*
X137290909Y-85369419D01*
X137289225Y-85359324D01*
X137234177Y-85141945D01*
X137230858Y-85132278D01*
X137140782Y-84926924D01*
X137135913Y-84917929D01*
X137059591Y-84801110D01*
X137051623Y-84793385D01*
X137042242Y-84799309D01*
X136255095Y-85586457D01*
X136248431Y-85598000D01*
X135531568Y-85598000D01*
X135524904Y-85586457D01*
X134737756Y-84799309D01*
X134728374Y-84793385D01*
X134720410Y-84801105D01*
X134644081Y-84917937D01*
X134639219Y-84926920D01*
X134549141Y-85132278D01*
X134545822Y-85141945D01*
X134490774Y-85359324D01*
X134489090Y-85369419D01*
X134470574Y-85592883D01*
X134470574Y-85603117D01*
X133225840Y-85603117D01*
X134393636Y-84435320D01*
X135086319Y-84435320D01*
X135092978Y-84447425D01*
X135878457Y-85232904D01*
X135890000Y-85239568D01*
X135901542Y-85232904D01*
X136687019Y-84447426D01*
X136693678Y-84435320D01*
X140166319Y-84435320D01*
X140172978Y-84447425D01*
X140958457Y-85232904D01*
X140970000Y-85239568D01*
X140981542Y-85232904D01*
X141767019Y-84447426D01*
X141773679Y-84435319D01*
X141765573Y-84424129D01*
X141750629Y-84412497D01*
X141742077Y-84406910D01*
X141544851Y-84300176D01*
X141535498Y-84296074D01*
X141323404Y-84223262D01*
X141313495Y-84220753D01*
X141092313Y-84183844D01*
X141082116Y-84183000D01*
X140857884Y-84183000D01*
X140847686Y-84183844D01*
X140626504Y-84220753D01*
X140616595Y-84223262D01*
X140404501Y-84296074D01*
X140395148Y-84300176D01*
X140197924Y-84406909D01*
X140189369Y-84412498D01*
X140174425Y-84424129D01*
X140166319Y-84435320D01*
X136693678Y-84435320D01*
X136693679Y-84435319D01*
X136685573Y-84424129D01*
X136670629Y-84412497D01*
X136662077Y-84406910D01*
X136464851Y-84300176D01*
X136455498Y-84296074D01*
X136243404Y-84223262D01*
X136233495Y-84220753D01*
X136012313Y-84183844D01*
X136002116Y-84183000D01*
X135777884Y-84183000D01*
X135767686Y-84183844D01*
X135546504Y-84220753D01*
X135536595Y-84223262D01*
X135324501Y-84296074D01*
X135315148Y-84300176D01*
X135117924Y-84406909D01*
X135109369Y-84412498D01*
X135094425Y-84424129D01*
X135086319Y-84435320D01*
X134393636Y-84435320D01*
X135329664Y-83499292D01*
X135344438Y-83486673D01*
X135485253Y-83384366D01*
X135613040Y-83242444D01*
X135708527Y-83077056D01*
X135767542Y-82895428D01*
X135787504Y-82705500D01*
X135767542Y-82515572D01*
X135708527Y-82333944D01*
X135613040Y-82168556D01*
X135485253Y-82026634D01*
X135480003Y-82022819D01*
X135479999Y-82022816D01*
X135336006Y-81918199D01*
X135336004Y-81918197D01*
X135330752Y-81914382D01*
X135324821Y-81911741D01*
X135324817Y-81911739D01*
X135162226Y-81839349D01*
X135162219Y-81839346D01*
X135156288Y-81836706D01*
X135149935Y-81835355D01*
X135149927Y-81835353D01*
X134975849Y-81798352D01*
X134975846Y-81798351D01*
X134969487Y-81797000D01*
X134778513Y-81797000D01*
X134772154Y-81798351D01*
X134772150Y-81798352D01*
X134598072Y-81835353D01*
X134598061Y-81835356D01*
X134591712Y-81836706D01*
X134585782Y-81839345D01*
X134585773Y-81839349D01*
X134423182Y-81911739D01*
X134423174Y-81911743D01*
X134417248Y-81914382D01*
X134411998Y-81918195D01*
X134411988Y-81918202D01*
X134279102Y-82014750D01*
X134213517Y-82038217D01*
X134145628Y-82022621D01*
X134096859Y-81972885D01*
X134082599Y-81904703D01*
X134099272Y-81692854D01*
X134099272Y-81683146D01*
X134081449Y-81456687D01*
X134079932Y-81447107D01*
X134026903Y-81226229D01*
X134023899Y-81216985D01*
X133936977Y-81007133D01*
X133932565Y-80998476D01*
X133826117Y-80824770D01*
X133818296Y-80816793D01*
X133808828Y-80822724D01*
X131724724Y-82906828D01*
X131718793Y-82916296D01*
X131726770Y-82924117D01*
X131900476Y-83030565D01*
X131909133Y-83034977D01*
X132118985Y-83121899D01*
X132128229Y-83124903D01*
X132349107Y-83177932D01*
X132358687Y-83179449D01*
X132585146Y-83197272D01*
X132594854Y-83197272D01*
X132821310Y-83179449D01*
X132835618Y-83177183D01*
X132897021Y-83182984D01*
X132948033Y-83217650D01*
X132976035Y-83272603D01*
X132974099Y-83334249D01*
X132942703Y-83387336D01*
X130127861Y-86202181D01*
X130087633Y-86229061D01*
X130040180Y-86238500D01*
X122103990Y-86238500D01*
X122044972Y-86223555D01*
X122000181Y-86182321D01*
X121980413Y-86124738D01*
X121989754Y-86068763D01*
X121989194Y-86068571D01*
X121990347Y-86065209D01*
X121990435Y-86064688D01*
X121990858Y-86063722D01*
X121994177Y-86054054D01*
X122049225Y-85836675D01*
X122050909Y-85826580D01*
X122069426Y-85603117D01*
X122069426Y-85592883D01*
X122050909Y-85369419D01*
X122049225Y-85359324D01*
X121994177Y-85141945D01*
X121990858Y-85132278D01*
X121900782Y-84926924D01*
X121895913Y-84917929D01*
X121819591Y-84801110D01*
X121811623Y-84793385D01*
X121802242Y-84799309D01*
X120737680Y-85863871D01*
X120682093Y-85895965D01*
X120617905Y-85895965D01*
X120562318Y-85863871D01*
X119497756Y-84799309D01*
X119488374Y-84793385D01*
X119480410Y-84801105D01*
X119404081Y-84917937D01*
X119399219Y-84926920D01*
X119309141Y-85132278D01*
X119305822Y-85141945D01*
X119250774Y-85359324D01*
X119249090Y-85369419D01*
X119230574Y-85592883D01*
X119230574Y-85603117D01*
X119249090Y-85826580D01*
X119250774Y-85836675D01*
X119305822Y-86054054D01*
X119309141Y-86063722D01*
X119309565Y-86064688D01*
X119309652Y-86065209D01*
X119310806Y-86068571D01*
X119310245Y-86068763D01*
X119319587Y-86124738D01*
X119299819Y-86182321D01*
X119255028Y-86223555D01*
X119196010Y-86238500D01*
X117023990Y-86238500D01*
X116964972Y-86223555D01*
X116920181Y-86182321D01*
X116900413Y-86124738D01*
X116909754Y-86068763D01*
X116909194Y-86068571D01*
X116910347Y-86065209D01*
X116910435Y-86064688D01*
X116910858Y-86063722D01*
X116914177Y-86054054D01*
X116969225Y-85836675D01*
X116970909Y-85826580D01*
X116989426Y-85603117D01*
X116989426Y-85592883D01*
X116970909Y-85369419D01*
X116969225Y-85359324D01*
X116914177Y-85141945D01*
X116910858Y-85132278D01*
X116820782Y-84926924D01*
X116815913Y-84917929D01*
X116739591Y-84801110D01*
X116731623Y-84793385D01*
X116722242Y-84799309D01*
X115657680Y-85863871D01*
X115602093Y-85895965D01*
X115537905Y-85895965D01*
X115482318Y-85863871D01*
X115304127Y-85685680D01*
X115272033Y-85630093D01*
X115272033Y-85565905D01*
X115304127Y-85510318D01*
X116367019Y-84447426D01*
X116373678Y-84435320D01*
X119846319Y-84435320D01*
X119852978Y-84447425D01*
X120638457Y-85232904D01*
X120650000Y-85239568D01*
X120661542Y-85232904D01*
X121447019Y-84447426D01*
X121453679Y-84435319D01*
X121445573Y-84424129D01*
X121430629Y-84412497D01*
X121422077Y-84406910D01*
X121224851Y-84300176D01*
X121215498Y-84296074D01*
X121003404Y-84223262D01*
X120993495Y-84220753D01*
X120772313Y-84183844D01*
X120762116Y-84183000D01*
X120537884Y-84183000D01*
X120527686Y-84183844D01*
X120306504Y-84220753D01*
X120296595Y-84223262D01*
X120084501Y-84296074D01*
X120075148Y-84300176D01*
X119877924Y-84406909D01*
X119869369Y-84412498D01*
X119854425Y-84424129D01*
X119846319Y-84435320D01*
X116373678Y-84435320D01*
X116373679Y-84435319D01*
X116365573Y-84424129D01*
X116350629Y-84412497D01*
X116342077Y-84406910D01*
X116144851Y-84300176D01*
X116135498Y-84296074D01*
X115923404Y-84223262D01*
X115913495Y-84220753D01*
X115687250Y-84183000D01*
X115687609Y-84180846D01*
X115635779Y-84161993D01*
X115594320Y-84111890D01*
X115583920Y-84047696D01*
X115594504Y-83947000D01*
X115574542Y-83757072D01*
X115515527Y-83575444D01*
X115420040Y-83410056D01*
X115292253Y-83268134D01*
X115287003Y-83264319D01*
X115286999Y-83264316D01*
X115143006Y-83159699D01*
X115143004Y-83159697D01*
X115137752Y-83155882D01*
X115131821Y-83153241D01*
X115131817Y-83153239D01*
X114969226Y-83080849D01*
X114969219Y-83080846D01*
X114963288Y-83078206D01*
X114956935Y-83076855D01*
X114956927Y-83076853D01*
X114782849Y-83039852D01*
X114782846Y-83039851D01*
X114776487Y-83038500D01*
X114585513Y-83038500D01*
X114579154Y-83039851D01*
X114579150Y-83039852D01*
X114480647Y-83060790D01*
X114454866Y-83063500D01*
X114397436Y-83063500D01*
X114378037Y-83061973D01*
X114371054Y-83060866D01*
X114371045Y-83060865D01*
X114364634Y-83059850D01*
X114358144Y-83060190D01*
X114298234Y-83063330D01*
X114291744Y-83063500D01*
X114271835Y-83063500D01*
X114268622Y-83063837D01*
X114268615Y-83063838D01*
X114252028Y-83065581D01*
X114245566Y-83066089D01*
X114185661Y-83069229D01*
X114185653Y-83069230D01*
X114179170Y-83069570D01*
X114172892Y-83071251D01*
X114172891Y-83071252D01*
X114166053Y-83073084D01*
X114146935Y-83076627D01*
X114139903Y-83077366D01*
X114139899Y-83077366D01*
X114133439Y-83078046D01*
X114127266Y-83080051D01*
X114127255Y-83080054D01*
X114070228Y-83098584D01*
X114064005Y-83100428D01*
X114006050Y-83115957D01*
X114006046Y-83115958D01*
X113999778Y-83117638D01*
X113994000Y-83120581D01*
X113993984Y-83120588D01*
X113987681Y-83123800D01*
X113969721Y-83131240D01*
X113962989Y-83133427D01*
X113962978Y-83133431D01*
X113956810Y-83135436D01*
X113951191Y-83138680D01*
X113951180Y-83138685D01*
X113899248Y-83168668D01*
X113893547Y-83171764D01*
X113840091Y-83199001D01*
X113840081Y-83199007D01*
X113834302Y-83201952D01*
X113829259Y-83206035D01*
X113829246Y-83206044D01*
X113823752Y-83210494D01*
X113807729Y-83221507D01*
X113801604Y-83225043D01*
X113801595Y-83225048D01*
X113795972Y-83228296D01*
X113791149Y-83232638D01*
X113791140Y-83232645D01*
X113746568Y-83272778D01*
X113741639Y-83276988D01*
X113728676Y-83287485D01*
X113728651Y-83287506D01*
X113726156Y-83289528D01*
X113723884Y-83291799D01*
X113723856Y-83291825D01*
X113712067Y-83303614D01*
X113707366Y-83308075D01*
X113662785Y-83348217D01*
X113662780Y-83348221D01*
X113657956Y-83352566D01*
X113654141Y-83357815D01*
X113654136Y-83357822D01*
X113649971Y-83363555D01*
X113637340Y-83378342D01*
X111321502Y-85694181D01*
X111281274Y-85721061D01*
X111233821Y-85730500D01*
X110290319Y-85730500D01*
X110241506Y-85720488D01*
X110200576Y-85692070D01*
X110174137Y-85649834D01*
X110127988Y-85526105D01*
X110124889Y-85517796D01*
X110037261Y-85400739D01*
X109995422Y-85369419D01*
X109927304Y-85318426D01*
X109927303Y-85318425D01*
X109920204Y-85313111D01*
X109911896Y-85310012D01*
X109911894Y-85310011D01*
X109790463Y-85264719D01*
X109790458Y-85264717D01*
X109783201Y-85262011D01*
X109775497Y-85261182D01*
X109775494Y-85261182D01*
X109725924Y-85255853D01*
X109725918Y-85255852D01*
X109722638Y-85255500D01*
X109719328Y-85255500D01*
X108766320Y-85255500D01*
X108718867Y-85246061D01*
X108678639Y-85219181D01*
X107640819Y-84181361D01*
X107613939Y-84141133D01*
X107604500Y-84093680D01*
X107604500Y-82916296D01*
X123078793Y-82916296D01*
X123086770Y-82924117D01*
X123260476Y-83030565D01*
X123269133Y-83034977D01*
X123478985Y-83121899D01*
X123488229Y-83124903D01*
X123709107Y-83177932D01*
X123718687Y-83179449D01*
X123945146Y-83197272D01*
X123954854Y-83197272D01*
X124181312Y-83179449D01*
X124190892Y-83177932D01*
X124411770Y-83124903D01*
X124421014Y-83121899D01*
X124630862Y-83034978D01*
X124639524Y-83030565D01*
X124813230Y-82924116D01*
X124821205Y-82916296D01*
X124815274Y-82906828D01*
X123961542Y-82053095D01*
X123950000Y-82046431D01*
X123938457Y-82053095D01*
X123084724Y-82906828D01*
X123078793Y-82916296D01*
X107604500Y-82916296D01*
X107604500Y-81692854D01*
X122440728Y-81692854D01*
X122458550Y-81919312D01*
X122460067Y-81928892D01*
X122513096Y-82149770D01*
X122516100Y-82159014D01*
X122603022Y-82368866D01*
X122607434Y-82377523D01*
X122713881Y-82551228D01*
X122721702Y-82559205D01*
X122731170Y-82553274D01*
X123584903Y-81699542D01*
X123591567Y-81688000D01*
X124308431Y-81688000D01*
X124315095Y-81699542D01*
X125168828Y-82553274D01*
X125178296Y-82559205D01*
X125186116Y-82551230D01*
X125292565Y-82377524D01*
X125296978Y-82368862D01*
X125383899Y-82159014D01*
X125386903Y-82149770D01*
X125439932Y-81928892D01*
X125441449Y-81919312D01*
X125459272Y-81692854D01*
X131080728Y-81692854D01*
X131098550Y-81919312D01*
X131100067Y-81928892D01*
X131153096Y-82149770D01*
X131156100Y-82159014D01*
X131243022Y-82368866D01*
X131247434Y-82377523D01*
X131353881Y-82551228D01*
X131361702Y-82559205D01*
X131371170Y-82553274D01*
X132224903Y-81699542D01*
X132231567Y-81688000D01*
X132224903Y-81676457D01*
X131371170Y-80822724D01*
X131361702Y-80816793D01*
X131353881Y-80824770D01*
X131247434Y-80998476D01*
X131243022Y-81007133D01*
X131156100Y-81216985D01*
X131153096Y-81226229D01*
X131100067Y-81447107D01*
X131098550Y-81456687D01*
X131080728Y-81683146D01*
X131080728Y-81692854D01*
X125459272Y-81692854D01*
X125459272Y-81683146D01*
X125441449Y-81456687D01*
X125439932Y-81447107D01*
X125386903Y-81226229D01*
X125383899Y-81216985D01*
X125296977Y-81007133D01*
X125292565Y-80998476D01*
X125186117Y-80824770D01*
X125178296Y-80816793D01*
X125168828Y-80822724D01*
X124315095Y-81676457D01*
X124308431Y-81688000D01*
X123591567Y-81688000D01*
X123584903Y-81676457D01*
X122731170Y-80822724D01*
X122721702Y-80816793D01*
X122713881Y-80824770D01*
X122607434Y-80998476D01*
X122603022Y-81007133D01*
X122516100Y-81216985D01*
X122513096Y-81226229D01*
X122460067Y-81447107D01*
X122458550Y-81456687D01*
X122440728Y-81683146D01*
X122440728Y-81692854D01*
X107604500Y-81692854D01*
X107604500Y-80767320D01*
X107613939Y-80719867D01*
X107640816Y-80679641D01*
X107860754Y-80459702D01*
X123078793Y-80459702D01*
X123084724Y-80469170D01*
X123938456Y-81322903D01*
X123949999Y-81329567D01*
X123961541Y-81322903D01*
X124815274Y-80469170D01*
X124821205Y-80459702D01*
X131718793Y-80459702D01*
X131724724Y-80469170D01*
X132578456Y-81322903D01*
X132589998Y-81329567D01*
X132601541Y-81322903D01*
X133455274Y-80469170D01*
X133461205Y-80459702D01*
X133453228Y-80451881D01*
X133279523Y-80345434D01*
X133270866Y-80341022D01*
X133061014Y-80254100D01*
X133051770Y-80251096D01*
X132830892Y-80198067D01*
X132821312Y-80196550D01*
X132594854Y-80178728D01*
X132585146Y-80178728D01*
X132358687Y-80196550D01*
X132349107Y-80198067D01*
X132128229Y-80251096D01*
X132118985Y-80254100D01*
X131909133Y-80341022D01*
X131900476Y-80345434D01*
X131726770Y-80451881D01*
X131718793Y-80459702D01*
X124821205Y-80459702D01*
X124813228Y-80451881D01*
X124639523Y-80345434D01*
X124630866Y-80341022D01*
X124421014Y-80254100D01*
X124411770Y-80251096D01*
X124190892Y-80198067D01*
X124181312Y-80196550D01*
X123954854Y-80178728D01*
X123945146Y-80178728D01*
X123718687Y-80196550D01*
X123709107Y-80198067D01*
X123488229Y-80251096D01*
X123478985Y-80254100D01*
X123269133Y-80341022D01*
X123260476Y-80345434D01*
X123086770Y-80451881D01*
X123078793Y-80459702D01*
X107860754Y-80459702D01*
X107897670Y-80422786D01*
X107912438Y-80410173D01*
X108053253Y-80307866D01*
X108181040Y-80165944D01*
X108276527Y-80000556D01*
X108335542Y-79818928D01*
X108354491Y-79638638D01*
X115481500Y-79638638D01*
X115481852Y-79641918D01*
X115481853Y-79641924D01*
X115487001Y-79689815D01*
X115488011Y-79699201D01*
X115490717Y-79706458D01*
X115490719Y-79706463D01*
X115536011Y-79827894D01*
X115539111Y-79836204D01*
X115544425Y-79843303D01*
X115544426Y-79843304D01*
X115610148Y-79931099D01*
X115626739Y-79953261D01*
X115743796Y-80040889D01*
X115880799Y-80091989D01*
X115941362Y-80098500D01*
X117735328Y-80098500D01*
X117738638Y-80098500D01*
X117799201Y-80091989D01*
X117936204Y-80040889D01*
X118053261Y-79953261D01*
X118140889Y-79836204D01*
X118186137Y-79714889D01*
X118222089Y-79663676D01*
X118278470Y-79636538D01*
X118340925Y-79640386D01*
X118393548Y-79674240D01*
X118453288Y-79739135D01*
X118453291Y-79739138D01*
X118456760Y-79742906D01*
X118499298Y-79776015D01*
X118630376Y-79878039D01*
X118630381Y-79878042D01*
X118634424Y-79881189D01*
X118638931Y-79883628D01*
X118638934Y-79883630D01*
X118822634Y-79983043D01*
X118832426Y-79988342D01*
X119045365Y-80061444D01*
X119267431Y-80098500D01*
X119487436Y-80098500D01*
X119492569Y-80098500D01*
X119714635Y-80061444D01*
X119927574Y-79988342D01*
X120125576Y-79881189D01*
X120303240Y-79742906D01*
X120455722Y-79577268D01*
X120578860Y-79388791D01*
X120669296Y-79182616D01*
X120686091Y-79116296D01*
X123078793Y-79116296D01*
X123086770Y-79124117D01*
X123260476Y-79230565D01*
X123269133Y-79234977D01*
X123478985Y-79321899D01*
X123488229Y-79324903D01*
X123709107Y-79377932D01*
X123718687Y-79379449D01*
X123945146Y-79397272D01*
X123954854Y-79397272D01*
X124181312Y-79379449D01*
X124190892Y-79377932D01*
X124411770Y-79324903D01*
X124421014Y-79321899D01*
X124630862Y-79234978D01*
X124639524Y-79230565D01*
X124813230Y-79124116D01*
X124821205Y-79116296D01*
X131718793Y-79116296D01*
X131726770Y-79124117D01*
X131900476Y-79230565D01*
X131909133Y-79234977D01*
X132118985Y-79321899D01*
X132128229Y-79324903D01*
X132349107Y-79377932D01*
X132358687Y-79379449D01*
X132585146Y-79397272D01*
X132594854Y-79397272D01*
X132821312Y-79379449D01*
X132830892Y-79377932D01*
X133051770Y-79324903D01*
X133061014Y-79321899D01*
X133270862Y-79234978D01*
X133279524Y-79230565D01*
X133453230Y-79124116D01*
X133461205Y-79116296D01*
X133455274Y-79106828D01*
X132601542Y-78253095D01*
X132590000Y-78246431D01*
X132578457Y-78253095D01*
X131724724Y-79106828D01*
X131718793Y-79116296D01*
X124821205Y-79116296D01*
X124815274Y-79106828D01*
X123961542Y-78253095D01*
X123950000Y-78246431D01*
X123938457Y-78253095D01*
X123084724Y-79106828D01*
X123078793Y-79116296D01*
X120686091Y-79116296D01*
X120724564Y-78964368D01*
X120743156Y-78740000D01*
X120724564Y-78515632D01*
X120669296Y-78297384D01*
X120578860Y-78091209D01*
X120455722Y-77902732D01*
X120446629Y-77892854D01*
X122440728Y-77892854D01*
X122458550Y-78119312D01*
X122460067Y-78128892D01*
X122513096Y-78349770D01*
X122516100Y-78359014D01*
X122603022Y-78568866D01*
X122607434Y-78577523D01*
X122713881Y-78751228D01*
X122721702Y-78759205D01*
X122731170Y-78753274D01*
X123584903Y-77899542D01*
X123591567Y-77888000D01*
X124308431Y-77888000D01*
X124315095Y-77899542D01*
X125168828Y-78753274D01*
X125178296Y-78759205D01*
X125186116Y-78751230D01*
X125292565Y-78577524D01*
X125296978Y-78568862D01*
X125383899Y-78359014D01*
X125386903Y-78349770D01*
X125439932Y-78128892D01*
X125441449Y-78119312D01*
X125459272Y-77892854D01*
X131080728Y-77892854D01*
X131098550Y-78119312D01*
X131100067Y-78128892D01*
X131153096Y-78349770D01*
X131156100Y-78359014D01*
X131243022Y-78568866D01*
X131247434Y-78577523D01*
X131353881Y-78751228D01*
X131361702Y-78759205D01*
X131371170Y-78753274D01*
X132224903Y-77899542D01*
X132231567Y-77888000D01*
X132948431Y-77888000D01*
X132955095Y-77899542D01*
X133808828Y-78753274D01*
X133818296Y-78759205D01*
X133826116Y-78751230D01*
X133832998Y-78740000D01*
X135796844Y-78740000D01*
X135797268Y-78745117D01*
X135815011Y-78959248D01*
X135815012Y-78959256D01*
X135815436Y-78964368D01*
X135816693Y-78969335D01*
X135816695Y-78969342D01*
X135855890Y-79124117D01*
X135870704Y-79182616D01*
X135872764Y-79187312D01*
X135959080Y-79384096D01*
X135959083Y-79384101D01*
X135961140Y-79388791D01*
X135966681Y-79397272D01*
X136081474Y-79572977D01*
X136081477Y-79572981D01*
X136084278Y-79577268D01*
X136087752Y-79581041D01*
X136087753Y-79581043D01*
X136233288Y-79739135D01*
X136233291Y-79739138D01*
X136236760Y-79742906D01*
X136279298Y-79776015D01*
X136410376Y-79878039D01*
X136410381Y-79878042D01*
X136414424Y-79881189D01*
X136418931Y-79883628D01*
X136418934Y-79883630D01*
X136602634Y-79983043D01*
X136612426Y-79988342D01*
X136825365Y-80061444D01*
X137047431Y-80098500D01*
X137267436Y-80098500D01*
X137272569Y-80098500D01*
X137494635Y-80061444D01*
X137707574Y-79988342D01*
X137905576Y-79881189D01*
X138083240Y-79742906D01*
X138146455Y-79674236D01*
X138199073Y-79640386D01*
X138261528Y-79636538D01*
X138317909Y-79663675D01*
X138353862Y-79714889D01*
X138396010Y-79827892D01*
X138399111Y-79836204D01*
X138404425Y-79843303D01*
X138404426Y-79843304D01*
X138470148Y-79931099D01*
X138486739Y-79953261D01*
X138603796Y-80040889D01*
X138740799Y-80091989D01*
X138801362Y-80098500D01*
X140595328Y-80098500D01*
X140598638Y-80098500D01*
X140659201Y-80091989D01*
X140796204Y-80040889D01*
X140913261Y-79953261D01*
X141000889Y-79836204D01*
X141051989Y-79699201D01*
X141058500Y-79638638D01*
X141058500Y-77841362D01*
X141051989Y-77780799D01*
X141000889Y-77643796D01*
X140913261Y-77526739D01*
X140866398Y-77491658D01*
X140803304Y-77444426D01*
X140803303Y-77444425D01*
X140796204Y-77439111D01*
X140787896Y-77436012D01*
X140787894Y-77436011D01*
X140666463Y-77390719D01*
X140666458Y-77390717D01*
X140659201Y-77388011D01*
X140651497Y-77387182D01*
X140651494Y-77387182D01*
X140601924Y-77381853D01*
X140601918Y-77381852D01*
X140598638Y-77381500D01*
X138801362Y-77381500D01*
X138798082Y-77381852D01*
X138798075Y-77381853D01*
X138748505Y-77387182D01*
X138748500Y-77387182D01*
X138740799Y-77388011D01*
X138733543Y-77390717D01*
X138733536Y-77390719D01*
X138612105Y-77436011D01*
X138612099Y-77436013D01*
X138603796Y-77439111D01*
X138596698Y-77444423D01*
X138596695Y-77444426D01*
X138493835Y-77521426D01*
X138493831Y-77521429D01*
X138486739Y-77526739D01*
X138481429Y-77533831D01*
X138481426Y-77533835D01*
X138404426Y-77636695D01*
X138404423Y-77636698D01*
X138399111Y-77643796D01*
X138396013Y-77652101D01*
X138396009Y-77652109D01*
X138353861Y-77765111D01*
X138317909Y-77816324D01*
X138261528Y-77843461D01*
X138199074Y-77839613D01*
X138146451Y-77805759D01*
X138086711Y-77740864D01*
X138086706Y-77740859D01*
X138083240Y-77737094D01*
X138070597Y-77727253D01*
X137909623Y-77601960D01*
X137909615Y-77601955D01*
X137905576Y-77598811D01*
X137901071Y-77596373D01*
X137901065Y-77596369D01*
X137712080Y-77494096D01*
X137712074Y-77494093D01*
X137707574Y-77491658D01*
X137702733Y-77489996D01*
X137702726Y-77489993D01*
X137499488Y-77420222D01*
X137499487Y-77420221D01*
X137494635Y-77418556D01*
X137489585Y-77417713D01*
X137489576Y-77417711D01*
X137277631Y-77382344D01*
X137277622Y-77382343D01*
X137272569Y-77381500D01*
X137047431Y-77381500D01*
X137042378Y-77382343D01*
X137042368Y-77382344D01*
X136830423Y-77417711D01*
X136830411Y-77417713D01*
X136825365Y-77418556D01*
X136820515Y-77420220D01*
X136820511Y-77420222D01*
X136617273Y-77489993D01*
X136617262Y-77489997D01*
X136612426Y-77491658D01*
X136607929Y-77494091D01*
X136607919Y-77494096D01*
X136418934Y-77596369D01*
X136418922Y-77596376D01*
X136414424Y-77598811D01*
X136410389Y-77601951D01*
X136410376Y-77601960D01*
X136240801Y-77733948D01*
X136240795Y-77733952D01*
X136236760Y-77737094D01*
X136233297Y-77740855D01*
X136233288Y-77740864D01*
X136087753Y-77898956D01*
X136087747Y-77898963D01*
X136084278Y-77902732D01*
X136081481Y-77907012D01*
X136081474Y-77907022D01*
X135963942Y-78086920D01*
X135961140Y-78091209D01*
X135959085Y-78095892D01*
X135959080Y-78095903D01*
X135872764Y-78292687D01*
X135870704Y-78297384D01*
X135869446Y-78302349D01*
X135869445Y-78302354D01*
X135816695Y-78510657D01*
X135816693Y-78510666D01*
X135815436Y-78515632D01*
X135815012Y-78520741D01*
X135815011Y-78520751D01*
X135810307Y-78577523D01*
X135796844Y-78740000D01*
X133832998Y-78740000D01*
X133932565Y-78577524D01*
X133936978Y-78568862D01*
X134023899Y-78359014D01*
X134026903Y-78349770D01*
X134079932Y-78128892D01*
X134081449Y-78119312D01*
X134099272Y-77892854D01*
X134099272Y-77883146D01*
X134081449Y-77656687D01*
X134079932Y-77647107D01*
X134026903Y-77426229D01*
X134023899Y-77416985D01*
X133936977Y-77207133D01*
X133932565Y-77198476D01*
X133826117Y-77024770D01*
X133818296Y-77016793D01*
X133808828Y-77022724D01*
X132955095Y-77876457D01*
X132948431Y-77888000D01*
X132231567Y-77888000D01*
X132224903Y-77876457D01*
X131371170Y-77022724D01*
X131361702Y-77016793D01*
X131353881Y-77024770D01*
X131247434Y-77198476D01*
X131243022Y-77207133D01*
X131156100Y-77416985D01*
X131153096Y-77426229D01*
X131100067Y-77647107D01*
X131098550Y-77656687D01*
X131080728Y-77883146D01*
X131080728Y-77892854D01*
X125459272Y-77892854D01*
X125459272Y-77883146D01*
X125441449Y-77656687D01*
X125439932Y-77647107D01*
X125386903Y-77426229D01*
X125383899Y-77416985D01*
X125296977Y-77207133D01*
X125292565Y-77198476D01*
X125186117Y-77024770D01*
X125178296Y-77016793D01*
X125168828Y-77022724D01*
X124315095Y-77876457D01*
X124308431Y-77888000D01*
X123591567Y-77888000D01*
X123584903Y-77876457D01*
X122731170Y-77022724D01*
X122721702Y-77016793D01*
X122713881Y-77024770D01*
X122607434Y-77198476D01*
X122603022Y-77207133D01*
X122516100Y-77416985D01*
X122513096Y-77426229D01*
X122460067Y-77647107D01*
X122458550Y-77656687D01*
X122440728Y-77883146D01*
X122440728Y-77892854D01*
X120446629Y-77892854D01*
X120431534Y-77876457D01*
X120306711Y-77740864D01*
X120306706Y-77740859D01*
X120303240Y-77737094D01*
X120290597Y-77727253D01*
X120129623Y-77601960D01*
X120129615Y-77601955D01*
X120125576Y-77598811D01*
X120121071Y-77596373D01*
X120121065Y-77596369D01*
X119932080Y-77494096D01*
X119932074Y-77494093D01*
X119927574Y-77491658D01*
X119922733Y-77489996D01*
X119922726Y-77489993D01*
X119719488Y-77420222D01*
X119719487Y-77420221D01*
X119714635Y-77418556D01*
X119709585Y-77417713D01*
X119709576Y-77417711D01*
X119497631Y-77382344D01*
X119497622Y-77382343D01*
X119492569Y-77381500D01*
X119267431Y-77381500D01*
X119262378Y-77382343D01*
X119262368Y-77382344D01*
X119050423Y-77417711D01*
X119050411Y-77417713D01*
X119045365Y-77418556D01*
X119040515Y-77420220D01*
X119040511Y-77420222D01*
X118837273Y-77489993D01*
X118837262Y-77489997D01*
X118832426Y-77491658D01*
X118827929Y-77494091D01*
X118827919Y-77494096D01*
X118638934Y-77596369D01*
X118638922Y-77596376D01*
X118634424Y-77598811D01*
X118630389Y-77601951D01*
X118630376Y-77601960D01*
X118460801Y-77733948D01*
X118460795Y-77733952D01*
X118456760Y-77737094D01*
X118453294Y-77740858D01*
X118453294Y-77740859D01*
X118393548Y-77805760D01*
X118340924Y-77839613D01*
X118278470Y-77843461D01*
X118222089Y-77816323D01*
X118186137Y-77765110D01*
X118175687Y-77737094D01*
X118140889Y-77643796D01*
X118053261Y-77526739D01*
X118006398Y-77491658D01*
X117943304Y-77444426D01*
X117943303Y-77444425D01*
X117936204Y-77439111D01*
X117927896Y-77436012D01*
X117927894Y-77436011D01*
X117806463Y-77390719D01*
X117806458Y-77390717D01*
X117799201Y-77388011D01*
X117791497Y-77387182D01*
X117791494Y-77387182D01*
X117741924Y-77381853D01*
X117741918Y-77381852D01*
X117738638Y-77381500D01*
X115941362Y-77381500D01*
X115938082Y-77381852D01*
X115938075Y-77381853D01*
X115888505Y-77387182D01*
X115888500Y-77387182D01*
X115880799Y-77388011D01*
X115873543Y-77390717D01*
X115873536Y-77390719D01*
X115752105Y-77436011D01*
X115752099Y-77436013D01*
X115743796Y-77439111D01*
X115736698Y-77444423D01*
X115736695Y-77444426D01*
X115633835Y-77521426D01*
X115633831Y-77521429D01*
X115626739Y-77526739D01*
X115621429Y-77533831D01*
X115621426Y-77533835D01*
X115544426Y-77636695D01*
X115544423Y-77636698D01*
X115539111Y-77643796D01*
X115536013Y-77652099D01*
X115536011Y-77652105D01*
X115490719Y-77773536D01*
X115490717Y-77773543D01*
X115488011Y-77780799D01*
X115487182Y-77788500D01*
X115487182Y-77788505D01*
X115481853Y-77838075D01*
X115481500Y-77841362D01*
X115481500Y-79638638D01*
X108354491Y-79638638D01*
X108355504Y-79629000D01*
X108335542Y-79439072D01*
X108276527Y-79257444D01*
X108181040Y-79092056D01*
X108053253Y-78950134D01*
X108048003Y-78946319D01*
X108047999Y-78946316D01*
X107904006Y-78841699D01*
X107904004Y-78841697D01*
X107898752Y-78837882D01*
X107892821Y-78835241D01*
X107892817Y-78835239D01*
X107730226Y-78762849D01*
X107730219Y-78762846D01*
X107724288Y-78760206D01*
X107717935Y-78758855D01*
X107717927Y-78758853D01*
X107543849Y-78721852D01*
X107543846Y-78721851D01*
X107537487Y-78720500D01*
X107346513Y-78720500D01*
X107340154Y-78721851D01*
X107340150Y-78721852D01*
X107166072Y-78758853D01*
X107166061Y-78758856D01*
X107159712Y-78760206D01*
X107153782Y-78762845D01*
X107153773Y-78762849D01*
X106991182Y-78835239D01*
X106991174Y-78835243D01*
X106985248Y-78837882D01*
X106979999Y-78841695D01*
X106979993Y-78841699D01*
X106836000Y-78946316D01*
X106835991Y-78946323D01*
X106830747Y-78950134D01*
X106826403Y-78954957D01*
X106826400Y-78954961D01*
X106707308Y-79087226D01*
X106707307Y-79087228D01*
X106702960Y-79092056D01*
X106699714Y-79097677D01*
X106699711Y-79097682D01*
X106674886Y-79140680D01*
X106655181Y-79166359D01*
X106152338Y-79669202D01*
X106137550Y-79681834D01*
X106131820Y-79685997D01*
X106131816Y-79685999D01*
X106126566Y-79689815D01*
X106122221Y-79694639D01*
X106122217Y-79694644D01*
X106082084Y-79739215D01*
X106077623Y-79743916D01*
X106065824Y-79755716D01*
X106065807Y-79755734D01*
X106063528Y-79758014D01*
X106061500Y-79760517D01*
X106061492Y-79760527D01*
X106050993Y-79773492D01*
X106046784Y-79778420D01*
X106016129Y-79812467D01*
X106002296Y-79827831D01*
X105999049Y-79833454D01*
X105999045Y-79833460D01*
X105995506Y-79839589D01*
X105984501Y-79855602D01*
X105980044Y-79861106D01*
X105980035Y-79861119D01*
X105975953Y-79866161D01*
X105973005Y-79871945D01*
X105973000Y-79871954D01*
X105945768Y-79925398D01*
X105942673Y-79931099D01*
X105912684Y-79983043D01*
X105909436Y-79988669D01*
X105907429Y-79994843D01*
X105907428Y-79994847D01*
X105905240Y-80001580D01*
X105897804Y-80019531D01*
X105894591Y-80025837D01*
X105894584Y-80025852D01*
X105891638Y-80031637D01*
X105889956Y-80037913D01*
X105889956Y-80037914D01*
X105874428Y-80095864D01*
X105872584Y-80102087D01*
X105854054Y-80159114D01*
X105854051Y-80159125D01*
X105852046Y-80165298D01*
X105851366Y-80171758D01*
X105851366Y-80171762D01*
X105850627Y-80178794D01*
X105847084Y-80197912D01*
X105847043Y-80198067D01*
X105843570Y-80211029D01*
X105843230Y-80217512D01*
X105843229Y-80217520D01*
X105840089Y-80277425D01*
X105839581Y-80283887D01*
X105837500Y-80303694D01*
X105837500Y-80306937D01*
X105837500Y-80323603D01*
X105837330Y-80330092D01*
X105833850Y-80396493D01*
X105834867Y-80402914D01*
X105835973Y-80409897D01*
X105837500Y-80429295D01*
X105837500Y-84431705D01*
X105835973Y-84451104D01*
X105834866Y-84458086D01*
X105834865Y-84458095D01*
X105833850Y-84464507D01*
X105834190Y-84470995D01*
X105834190Y-84470997D01*
X105837330Y-84530907D01*
X105837500Y-84537397D01*
X105837500Y-84557306D01*
X105837837Y-84560518D01*
X105837839Y-84560545D01*
X105839580Y-84577113D01*
X105840089Y-84583575D01*
X105843229Y-84643479D01*
X105843230Y-84643485D01*
X105843570Y-84649971D01*
X105845250Y-84656241D01*
X105845252Y-84656254D01*
X105847083Y-84663086D01*
X105850627Y-84682206D01*
X105851366Y-84689240D01*
X105851367Y-84689245D01*
X105852046Y-84695702D01*
X105854052Y-84701878D01*
X105854054Y-84701884D01*
X105872585Y-84758917D01*
X105874429Y-84765140D01*
X105888002Y-84815794D01*
X105891638Y-84829363D01*
X105894586Y-84835149D01*
X105894588Y-84835154D01*
X105897799Y-84841457D01*
X105905240Y-84859419D01*
X105909436Y-84872331D01*
X105912686Y-84877960D01*
X105942672Y-84929898D01*
X105945769Y-84935602D01*
X105973001Y-84989047D01*
X105973004Y-84989052D01*
X105975953Y-84994839D01*
X105984490Y-85005382D01*
X105995507Y-85021411D01*
X106002296Y-85033169D01*
X106046786Y-85082581D01*
X106051175Y-85087731D01*
X106051474Y-85088102D01*
X106077393Y-85146476D01*
X106070822Y-85210006D01*
X106033502Y-85261839D01*
X105975337Y-85288222D01*
X105954421Y-85291712D01*
X105954417Y-85291712D01*
X105949365Y-85292556D01*
X105944515Y-85294220D01*
X105944511Y-85294222D01*
X105741273Y-85363993D01*
X105741262Y-85363997D01*
X105736426Y-85365658D01*
X105731929Y-85368091D01*
X105731919Y-85368096D01*
X105542934Y-85470369D01*
X105542922Y-85470376D01*
X105538424Y-85472811D01*
X105534389Y-85475951D01*
X105534376Y-85475960D01*
X105364801Y-85607948D01*
X105364795Y-85607952D01*
X105360760Y-85611094D01*
X105357297Y-85614855D01*
X105357288Y-85614864D01*
X105211753Y-85772956D01*
X105211747Y-85772963D01*
X105208278Y-85776732D01*
X105205481Y-85781012D01*
X105205474Y-85781022D01*
X105117809Y-85915205D01*
X105073017Y-85956438D01*
X105014000Y-85971383D01*
X104954983Y-85956438D01*
X104910191Y-85915205D01*
X104822525Y-85781022D01*
X104822523Y-85781020D01*
X104819722Y-85776732D01*
X104767945Y-85720488D01*
X104670711Y-85614864D01*
X104670708Y-85614861D01*
X104667240Y-85611094D01*
X104609182Y-85565905D01*
X104493623Y-85475960D01*
X104493615Y-85475955D01*
X104489576Y-85472811D01*
X104485071Y-85470373D01*
X104485065Y-85470369D01*
X104296080Y-85368096D01*
X104296074Y-85368093D01*
X104291574Y-85365658D01*
X104286733Y-85363996D01*
X104286726Y-85363993D01*
X104083488Y-85294222D01*
X104083487Y-85294221D01*
X104078635Y-85292556D01*
X104073585Y-85291713D01*
X104073576Y-85291711D01*
X103861631Y-85256344D01*
X103861622Y-85256343D01*
X103856569Y-85255500D01*
X103631431Y-85255500D01*
X103626378Y-85256343D01*
X103626368Y-85256344D01*
X103414423Y-85291711D01*
X103414411Y-85291713D01*
X103409365Y-85292556D01*
X103404515Y-85294220D01*
X103404511Y-85294222D01*
X103201273Y-85363993D01*
X103201262Y-85363997D01*
X103196426Y-85365658D01*
X103191929Y-85368091D01*
X103191919Y-85368096D01*
X103002934Y-85470369D01*
X103002922Y-85470376D01*
X102998424Y-85472811D01*
X102994389Y-85475951D01*
X102994376Y-85475960D01*
X102824801Y-85607948D01*
X102824795Y-85607952D01*
X102820760Y-85611094D01*
X102817297Y-85614855D01*
X102817288Y-85614864D01*
X102671753Y-85772956D01*
X102671747Y-85772963D01*
X102668278Y-85776732D01*
X102665481Y-85781012D01*
X102665474Y-85781022D01*
X102611347Y-85863871D01*
X102545140Y-85965209D01*
X102543085Y-85969892D01*
X102543080Y-85969903D01*
X102456764Y-86166687D01*
X102454704Y-86171384D01*
X102453446Y-86176349D01*
X102453445Y-86176354D01*
X102400695Y-86384657D01*
X102400693Y-86384666D01*
X102399436Y-86389632D01*
X102399012Y-86394741D01*
X102399011Y-86394751D01*
X102398360Y-86402613D01*
X102380844Y-86614000D01*
X102381268Y-86619117D01*
X102399011Y-86833248D01*
X102399012Y-86833256D01*
X102399436Y-86838368D01*
X102400693Y-86843335D01*
X102400695Y-86843342D01*
X102415024Y-86899925D01*
X102454704Y-87056616D01*
X102456764Y-87061312D01*
X102543080Y-87258096D01*
X102543083Y-87258101D01*
X102545140Y-87262791D01*
X102550870Y-87271561D01*
X102665474Y-87446977D01*
X102665477Y-87446981D01*
X102668278Y-87451268D01*
X102671752Y-87455041D01*
X102671753Y-87455043D01*
X102817288Y-87613135D01*
X102817291Y-87613138D01*
X102820760Y-87616906D01*
X102849786Y-87639498D01*
X102994376Y-87752039D01*
X102994381Y-87752042D01*
X102998424Y-87755189D01*
X103034930Y-87774945D01*
X103082434Y-87820523D01*
X103099913Y-87883996D01*
X103082437Y-87947471D01*
X103034933Y-87993053D01*
X103002930Y-88010372D01*
X103002925Y-88010374D01*
X102998424Y-88012811D01*
X102994389Y-88015951D01*
X102994376Y-88015960D01*
X102824801Y-88147948D01*
X102824795Y-88147952D01*
X102820760Y-88151094D01*
X102817297Y-88154855D01*
X102817288Y-88154864D01*
X102671753Y-88312956D01*
X102671747Y-88312963D01*
X102668278Y-88316732D01*
X102665481Y-88321012D01*
X102665474Y-88321022D01*
X102577809Y-88455205D01*
X102545140Y-88505209D01*
X102543085Y-88509892D01*
X102543080Y-88509903D01*
X102474000Y-88667393D01*
X102454704Y-88711384D01*
X102453446Y-88716349D01*
X102453445Y-88716354D01*
X102400695Y-88924657D01*
X102400693Y-88924666D01*
X102399436Y-88929632D01*
X102399012Y-88934741D01*
X102399011Y-88934751D01*
X102381268Y-89148883D01*
X102380844Y-89154000D01*
X102381268Y-89159117D01*
X102399011Y-89373248D01*
X102399012Y-89373256D01*
X102399436Y-89378368D01*
X102400693Y-89383335D01*
X102400695Y-89383342D01*
X102453445Y-89591645D01*
X102454704Y-89596616D01*
X102456764Y-89601312D01*
X102543080Y-89798096D01*
X102543083Y-89798101D01*
X102545140Y-89802791D01*
X102550870Y-89811561D01*
X102665474Y-89986977D01*
X102665477Y-89986981D01*
X102668278Y-89991268D01*
X102671752Y-89995041D01*
X102671753Y-89995043D01*
X102817288Y-90153135D01*
X102817291Y-90153138D01*
X102820760Y-90156906D01*
X102824801Y-90160051D01*
X102994376Y-90292039D01*
X102994381Y-90292042D01*
X102998424Y-90295189D01*
X103002931Y-90297628D01*
X103002934Y-90297630D01*
X103191919Y-90399903D01*
X103196426Y-90402342D01*
X103409365Y-90475444D01*
X103631431Y-90512500D01*
X103851436Y-90512500D01*
X103856569Y-90512500D01*
X104078635Y-90475444D01*
X104291574Y-90402342D01*
X104489576Y-90295189D01*
X104667240Y-90156906D01*
X104819722Y-89991268D01*
X104910190Y-89852795D01*
X104954982Y-89811561D01*
X105014000Y-89796616D01*
X105073018Y-89811561D01*
X105117809Y-89852795D01*
X105205470Y-89986972D01*
X105205478Y-89986982D01*
X105208278Y-89991268D01*
X105211752Y-89995041D01*
X105211753Y-89995043D01*
X105357288Y-90153135D01*
X105357291Y-90153138D01*
X105360760Y-90156906D01*
X105364801Y-90160051D01*
X105534376Y-90292039D01*
X105534381Y-90292042D01*
X105538424Y-90295189D01*
X105542931Y-90297628D01*
X105542934Y-90297630D01*
X105731919Y-90399903D01*
X105736426Y-90402342D01*
X105949365Y-90475444D01*
X106171431Y-90512500D01*
X106391436Y-90512500D01*
X106396569Y-90512500D01*
X106618635Y-90475444D01*
X106831574Y-90402342D01*
X107029576Y-90295189D01*
X107207240Y-90156906D01*
X107359722Y-89991268D01*
X107450190Y-89852795D01*
X107494982Y-89811561D01*
X107554000Y-89796616D01*
X107613018Y-89811561D01*
X107657809Y-89852795D01*
X107745470Y-89986972D01*
X107745478Y-89986982D01*
X107748278Y-89991268D01*
X107751752Y-89995041D01*
X107751753Y-89995043D01*
X107897288Y-90153135D01*
X107897291Y-90153138D01*
X107900760Y-90156906D01*
X107904801Y-90160051D01*
X108074376Y-90292039D01*
X108074381Y-90292042D01*
X108078424Y-90295189D01*
X108082931Y-90297628D01*
X108082934Y-90297630D01*
X108271919Y-90399903D01*
X108276426Y-90402342D01*
X108489365Y-90475444D01*
X108711431Y-90512500D01*
X108931436Y-90512500D01*
X108936569Y-90512500D01*
X109158635Y-90475444D01*
X109371574Y-90402342D01*
X109569576Y-90295189D01*
X109747240Y-90156906D01*
X109899722Y-89991268D01*
X110022860Y-89802791D01*
X110113296Y-89596616D01*
X110168564Y-89378368D01*
X110187156Y-89154000D01*
X110168564Y-88929632D01*
X110113296Y-88711384D01*
X110022860Y-88505209D01*
X109899722Y-88316732D01*
X109754506Y-88158987D01*
X109725735Y-88106239D01*
X109725142Y-88046152D01*
X109752869Y-87992841D01*
X109802404Y-87958826D01*
X109920204Y-87914889D01*
X110037261Y-87827261D01*
X110124889Y-87710204D01*
X110174137Y-87578165D01*
X110200576Y-87535930D01*
X110241506Y-87507512D01*
X110290319Y-87497500D01*
X110621157Y-87497500D01*
X110674143Y-87509391D01*
X110716968Y-87542783D01*
X110741416Y-87591273D01*
X110742031Y-87615383D01*
X110743468Y-87629975D01*
X110743459Y-87630000D01*
X110743475Y-87630039D01*
X110743500Y-87630291D01*
X110743500Y-87681949D01*
X110743494Y-87683130D01*
X110618174Y-100841682D01*
X110601172Y-100903181D01*
X110555840Y-100948083D01*
X110494181Y-100964500D01*
X101851500Y-100964500D01*
X101789500Y-100947887D01*
X101744113Y-100902500D01*
X101727500Y-100840500D01*
X101727500Y-99958638D01*
X103416500Y-99958638D01*
X103423011Y-100019201D01*
X103425717Y-100026458D01*
X103425719Y-100026463D01*
X103471011Y-100147894D01*
X103474111Y-100156204D01*
X103561739Y-100273261D01*
X103678796Y-100360889D01*
X103815799Y-100411989D01*
X103876362Y-100418500D01*
X105670328Y-100418500D01*
X105673638Y-100418500D01*
X105734201Y-100411989D01*
X105871204Y-100360889D01*
X105988261Y-100273261D01*
X106075889Y-100156204D01*
X106124222Y-100026617D01*
X106159200Y-99976240D01*
X106214045Y-99948787D01*
X106275338Y-99950976D01*
X106328084Y-99982272D01*
X106440090Y-100094278D01*
X106448356Y-100101215D01*
X106632991Y-100230498D01*
X106642323Y-100235886D01*
X106846602Y-100331143D01*
X106856736Y-100334831D01*
X107051219Y-100386943D01*
X107062448Y-100387311D01*
X107065000Y-100376369D01*
X107565000Y-100376369D01*
X107567551Y-100387311D01*
X107578780Y-100386943D01*
X107773263Y-100334831D01*
X107783397Y-100331143D01*
X107987676Y-100235886D01*
X107997008Y-100230498D01*
X108181643Y-100101215D01*
X108189909Y-100094278D01*
X108349278Y-99934909D01*
X108356215Y-99926643D01*
X108485498Y-99742008D01*
X108490886Y-99732676D01*
X108586143Y-99528397D01*
X108589831Y-99518263D01*
X108641943Y-99323780D01*
X108642311Y-99312551D01*
X108631369Y-99310000D01*
X107581326Y-99310000D01*
X107568450Y-99313450D01*
X107565000Y-99326326D01*
X107565000Y-100376369D01*
X107065000Y-100376369D01*
X107065000Y-98793674D01*
X107565000Y-98793674D01*
X107568450Y-98806549D01*
X107581326Y-98810000D01*
X108631369Y-98810000D01*
X108642311Y-98807448D01*
X108641943Y-98796219D01*
X108589831Y-98601736D01*
X108586143Y-98591602D01*
X108490889Y-98387332D01*
X108485491Y-98377982D01*
X108356215Y-98193357D01*
X108349280Y-98185092D01*
X108189909Y-98025721D01*
X108181643Y-98018784D01*
X107997008Y-97889501D01*
X107987676Y-97884113D01*
X107783397Y-97788856D01*
X107773263Y-97785168D01*
X107578780Y-97733056D01*
X107567551Y-97732688D01*
X107565000Y-97743631D01*
X107565000Y-98793674D01*
X107065000Y-98793674D01*
X107065000Y-97743631D01*
X107062448Y-97732688D01*
X107051219Y-97733056D01*
X106856736Y-97785168D01*
X106846602Y-97788856D01*
X106642332Y-97884110D01*
X106632982Y-97889508D01*
X106448357Y-98018784D01*
X106440098Y-98025714D01*
X106328084Y-98137728D01*
X106275337Y-98169023D01*
X106214045Y-98171212D01*
X106159200Y-98143759D01*
X106124221Y-98093379D01*
X106078989Y-97972107D01*
X106078988Y-97972105D01*
X106075889Y-97963796D01*
X105988261Y-97846739D01*
X105871204Y-97759111D01*
X105862896Y-97756012D01*
X105862894Y-97756011D01*
X105741463Y-97710719D01*
X105741458Y-97710717D01*
X105734201Y-97708011D01*
X105726497Y-97707182D01*
X105726494Y-97707182D01*
X105676924Y-97701853D01*
X105676918Y-97701852D01*
X105673638Y-97701500D01*
X103876362Y-97701500D01*
X103873082Y-97701852D01*
X103873075Y-97701853D01*
X103823505Y-97707182D01*
X103823500Y-97707182D01*
X103815799Y-97708011D01*
X103808543Y-97710717D01*
X103808536Y-97710719D01*
X103687105Y-97756011D01*
X103687099Y-97756013D01*
X103678796Y-97759111D01*
X103671698Y-97764423D01*
X103671695Y-97764426D01*
X103568835Y-97841426D01*
X103568831Y-97841429D01*
X103561739Y-97846739D01*
X103556429Y-97853831D01*
X103556426Y-97853835D01*
X103479426Y-97956695D01*
X103479423Y-97956698D01*
X103474111Y-97963796D01*
X103471013Y-97972099D01*
X103471011Y-97972105D01*
X103425719Y-98093536D01*
X103425717Y-98093543D01*
X103423011Y-98100799D01*
X103422182Y-98108500D01*
X103422182Y-98108505D01*
X103418392Y-98143759D01*
X103416500Y-98161362D01*
X103416500Y-99958638D01*
X101727500Y-99958638D01*
X101727500Y-97174680D01*
X102955318Y-97174680D01*
X102963423Y-97185868D01*
X102978366Y-97197499D01*
X102986925Y-97203091D01*
X103184148Y-97309823D01*
X103193501Y-97313925D01*
X103405595Y-97386737D01*
X103415504Y-97389246D01*
X103636686Y-97426155D01*
X103646884Y-97427000D01*
X103871116Y-97427000D01*
X103881313Y-97426155D01*
X104102495Y-97389246D01*
X104112404Y-97386737D01*
X104324498Y-97313925D01*
X104333851Y-97309823D01*
X104531076Y-97203090D01*
X104539631Y-97197500D01*
X104554573Y-97185869D01*
X104562679Y-97174680D01*
X108035318Y-97174680D01*
X108043423Y-97185868D01*
X108058366Y-97197499D01*
X108066925Y-97203091D01*
X108264148Y-97309823D01*
X108273501Y-97313925D01*
X108485595Y-97386737D01*
X108495504Y-97389246D01*
X108716686Y-97426155D01*
X108726884Y-97427000D01*
X108951116Y-97427000D01*
X108961313Y-97426155D01*
X109182495Y-97389246D01*
X109192404Y-97386737D01*
X109404498Y-97313925D01*
X109413851Y-97309823D01*
X109611076Y-97203090D01*
X109619631Y-97197500D01*
X109634573Y-97185869D01*
X109642680Y-97174679D01*
X109636020Y-97162573D01*
X108850542Y-96377095D01*
X108839000Y-96370431D01*
X108827457Y-96377095D01*
X108041979Y-97162572D01*
X108035318Y-97174680D01*
X104562679Y-97174680D01*
X104562680Y-97174679D01*
X104556020Y-97162573D01*
X103770542Y-96377095D01*
X103759000Y-96370431D01*
X103747457Y-96377095D01*
X102961979Y-97162572D01*
X102955318Y-97174680D01*
X101727500Y-97174680D01*
X101727500Y-96017117D01*
X102339574Y-96017117D01*
X102358090Y-96240580D01*
X102359774Y-96250675D01*
X102414822Y-96468054D01*
X102418141Y-96477721D01*
X102508217Y-96683075D01*
X102513086Y-96692070D01*
X102589407Y-96808888D01*
X102597375Y-96816613D01*
X102606756Y-96810689D01*
X103393904Y-96023542D01*
X103400568Y-96011999D01*
X104117431Y-96011999D01*
X104124095Y-96023542D01*
X104911242Y-96810689D01*
X104920624Y-96816613D01*
X104928588Y-96808893D01*
X105004916Y-96692066D01*
X105009781Y-96683077D01*
X105099858Y-96477721D01*
X105103177Y-96468054D01*
X105158225Y-96250675D01*
X105159909Y-96240580D01*
X105178426Y-96017117D01*
X107419574Y-96017117D01*
X107438090Y-96240580D01*
X107439774Y-96250675D01*
X107494822Y-96468054D01*
X107498141Y-96477721D01*
X107588217Y-96683075D01*
X107593086Y-96692070D01*
X107669407Y-96808888D01*
X107677375Y-96816613D01*
X107686756Y-96810689D01*
X108473904Y-96023542D01*
X108480568Y-96011999D01*
X109197431Y-96011999D01*
X109204095Y-96023542D01*
X109991242Y-96810689D01*
X110000624Y-96816613D01*
X110008588Y-96808893D01*
X110084916Y-96692066D01*
X110089781Y-96683077D01*
X110179858Y-96477721D01*
X110183177Y-96468054D01*
X110238225Y-96250675D01*
X110239909Y-96240580D01*
X110258426Y-96017117D01*
X110258426Y-96006883D01*
X110239909Y-95783419D01*
X110238225Y-95773324D01*
X110183177Y-95555945D01*
X110179858Y-95546278D01*
X110089782Y-95340924D01*
X110084913Y-95331929D01*
X110008591Y-95215110D01*
X110000623Y-95207385D01*
X109991242Y-95213309D01*
X109204095Y-96000457D01*
X109197431Y-96011999D01*
X108480568Y-96011999D01*
X108473904Y-96000457D01*
X107686756Y-95213309D01*
X107677374Y-95207385D01*
X107669410Y-95215105D01*
X107593081Y-95331937D01*
X107588219Y-95340920D01*
X107498141Y-95546278D01*
X107494822Y-95555945D01*
X107439774Y-95773324D01*
X107438090Y-95783419D01*
X107419574Y-96006883D01*
X107419574Y-96017117D01*
X105178426Y-96017117D01*
X105178426Y-96006883D01*
X105159909Y-95783419D01*
X105158225Y-95773324D01*
X105103177Y-95555945D01*
X105099858Y-95546278D01*
X105009782Y-95340924D01*
X105004913Y-95331929D01*
X104928591Y-95215110D01*
X104920623Y-95207385D01*
X104911242Y-95213309D01*
X104124095Y-96000457D01*
X104117431Y-96011999D01*
X103400568Y-96011999D01*
X103393904Y-96000457D01*
X102606756Y-95213309D01*
X102597374Y-95207385D01*
X102589410Y-95215105D01*
X102513081Y-95331937D01*
X102508219Y-95340920D01*
X102418141Y-95546278D01*
X102414822Y-95555945D01*
X102359774Y-95773324D01*
X102358090Y-95783419D01*
X102339574Y-96006883D01*
X102339574Y-96017117D01*
X101727500Y-96017117D01*
X101727500Y-94849320D01*
X102955319Y-94849320D01*
X102961978Y-94861425D01*
X103747457Y-95646904D01*
X103759000Y-95653568D01*
X103770542Y-95646904D01*
X104556019Y-94861426D01*
X104562678Y-94849320D01*
X108035319Y-94849320D01*
X108041978Y-94861425D01*
X108827457Y-95646904D01*
X108839000Y-95653568D01*
X108850542Y-95646904D01*
X109636019Y-94861426D01*
X109642679Y-94849319D01*
X109634573Y-94838129D01*
X109619629Y-94826497D01*
X109611077Y-94820910D01*
X109413851Y-94714176D01*
X109404498Y-94710074D01*
X109192404Y-94637262D01*
X109182495Y-94634753D01*
X108961313Y-94597844D01*
X108951116Y-94597000D01*
X108726884Y-94597000D01*
X108716686Y-94597844D01*
X108495504Y-94634753D01*
X108485595Y-94637262D01*
X108273501Y-94710074D01*
X108264148Y-94714176D01*
X108066924Y-94820909D01*
X108058369Y-94826498D01*
X108043425Y-94838129D01*
X108035319Y-94849320D01*
X104562678Y-94849320D01*
X104562679Y-94849319D01*
X104554573Y-94838129D01*
X104539629Y-94826497D01*
X104531077Y-94820910D01*
X104333851Y-94714176D01*
X104324498Y-94710074D01*
X104112404Y-94637262D01*
X104102495Y-94634753D01*
X103881313Y-94597844D01*
X103871116Y-94597000D01*
X103646884Y-94597000D01*
X103636686Y-94597844D01*
X103415504Y-94634753D01*
X103405595Y-94637262D01*
X103193501Y-94710074D01*
X103184148Y-94714176D01*
X102986924Y-94820909D01*
X102978369Y-94826498D01*
X102963425Y-94838129D01*
X102955319Y-94849320D01*
X101727500Y-94849320D01*
X101727500Y-76659702D01*
X123078793Y-76659702D01*
X123084724Y-76669170D01*
X123938457Y-77522903D01*
X123950000Y-77529567D01*
X123961542Y-77522903D01*
X124815274Y-76669170D01*
X124821205Y-76659702D01*
X131718793Y-76659702D01*
X131724724Y-76669170D01*
X132578457Y-77522903D01*
X132590000Y-77529567D01*
X132601542Y-77522903D01*
X133455274Y-76669170D01*
X133461205Y-76659702D01*
X133453228Y-76651881D01*
X133279523Y-76545434D01*
X133270866Y-76541022D01*
X133061014Y-76454100D01*
X133051770Y-76451096D01*
X132830892Y-76398067D01*
X132821312Y-76396550D01*
X132594854Y-76378728D01*
X132585146Y-76378728D01*
X132358687Y-76396550D01*
X132349107Y-76398067D01*
X132128229Y-76451096D01*
X132118985Y-76454100D01*
X131909133Y-76541022D01*
X131900476Y-76545434D01*
X131726770Y-76651881D01*
X131718793Y-76659702D01*
X124821205Y-76659702D01*
X124813228Y-76651881D01*
X124639523Y-76545434D01*
X124630866Y-76541022D01*
X124421014Y-76454100D01*
X124411770Y-76451096D01*
X124190892Y-76398067D01*
X124181312Y-76396550D01*
X123954854Y-76378728D01*
X123945146Y-76378728D01*
X123718687Y-76396550D01*
X123709107Y-76398067D01*
X123488229Y-76451096D01*
X123478985Y-76454100D01*
X123269133Y-76541022D01*
X123260476Y-76545434D01*
X123086770Y-76651881D01*
X123078793Y-76659702D01*
X101727500Y-76659702D01*
X101727500Y-75434407D01*
X101744014Y-75372578D01*
X101789158Y-75327218D01*
X101850907Y-75310408D01*
X128165291Y-75184501D01*
X128165884Y-75184500D01*
X154688500Y-75184500D01*
X154750500Y-75201113D01*
G37*
%TD.AperFunction*%
%TD*%
M02*
