%TF.GenerationSoftware,KiCad,Pcbnew,7.0.6-0*%
%TF.CreationDate,2023-07-20T20:41:53-06:00*%
%TF.ProjectId,Breadboard Power Supply,42726561-6462-46f6-9172-6420506f7765,v10*%
%TF.SameCoordinates,Original*%
%TF.FileFunction,Soldermask,Top*%
%TF.FilePolarity,Negative*%
%FSLAX46Y46*%
G04 Gerber Fmt 4.6, Leading zero omitted, Abs format (unit mm)*
G04 Created by KiCad (PCBNEW 7.0.6-0) date 2023-07-20 20:41:53*
%MOMM*%
%LPD*%
G01*
G04 APERTURE LIST*
G04 Aperture macros list*
%AMRoundRect*
0 Rectangle with rounded corners*
0 $1 Rounding radius*
0 $2 $3 $4 $5 $6 $7 $8 $9 X,Y pos of 4 corners*
0 Add a 4 corners polygon primitive as box body*
4,1,4,$2,$3,$4,$5,$6,$7,$8,$9,$2,$3,0*
0 Add four circle primitives for the rounded corners*
1,1,$1+$1,$2,$3*
1,1,$1+$1,$4,$5*
1,1,$1+$1,$6,$7*
1,1,$1+$1,$8,$9*
0 Add four rect primitives between the rounded corners*
20,1,$1+$1,$2,$3,$4,$5,0*
20,1,$1+$1,$4,$5,$6,$7,0*
20,1,$1+$1,$6,$7,$8,$9,0*
20,1,$1+$1,$8,$9,$2,$3,0*%
G04 Aperture macros list end*
%ADD10R,1.700000X1.700000*%
%ADD11O,1.700000X1.700000*%
%ADD12RoundRect,0.135000X-0.185000X0.135000X-0.185000X-0.135000X0.185000X-0.135000X0.185000X0.135000X0*%
%ADD13RoundRect,0.218750X0.218750X0.256250X-0.218750X0.256250X-0.218750X-0.256250X0.218750X-0.256250X0*%
%ADD14RoundRect,0.250000X0.475000X-0.250000X0.475000X0.250000X-0.475000X0.250000X-0.475000X-0.250000X0*%
%ADD15RoundRect,0.140000X0.170000X-0.140000X0.170000X0.140000X-0.170000X0.140000X-0.170000X-0.140000X0*%
%ADD16R,1.600000X2.000000*%
%ADD17R,2.000000X2.000000*%
%ADD18RoundRect,0.250000X-0.250000X-0.475000X0.250000X-0.475000X0.250000X0.475000X-0.250000X0.475000X0*%
%ADD19R,0.700000X1.200000*%
%ADD20R,0.760000X1.200000*%
%ADD21R,0.800000X1.200000*%
%ADD22C,1.450000*%
%ADD23RoundRect,0.135000X0.185000X-0.135000X0.185000X0.135000X-0.185000X0.135000X-0.185000X-0.135000X0*%
%ADD24R,2.000000X1.500000*%
%ADD25R,2.000000X3.800000*%
%ADD26C,1.830000*%
G04 APERTURE END LIST*
D10*
%TO.C,J4*%
X151003000Y-86360000D03*
D11*
X153543000Y-86360000D03*
X151003000Y-88900000D03*
X153543000Y-88900000D03*
X151003000Y-91440000D03*
X153543000Y-91440000D03*
X151003000Y-93980000D03*
X153543000Y-93980000D03*
%TD*%
D12*
%TO.C,R4*%
X110744000Y-78738000D03*
X110744000Y-79758000D03*
%TD*%
D13*
%TO.C,D3*%
X121056500Y-76784250D03*
X119481500Y-76784250D03*
%TD*%
D14*
%TO.C,C5*%
X145161000Y-78801000D03*
X145161000Y-76901000D03*
%TD*%
D12*
%TO.C,R3*%
X121412000Y-78052250D03*
X121412000Y-79072250D03*
%TD*%
D15*
%TO.C,C8*%
X102362000Y-84046000D03*
X102362000Y-83086000D03*
%TD*%
%TO.C,C7*%
X143383000Y-78712000D03*
X143383000Y-77752000D03*
%TD*%
D16*
%TO.C,RV1*%
X113601000Y-77058000D03*
D17*
X114776000Y-83058000D03*
D16*
X115951000Y-77058000D03*
%TD*%
D12*
%TO.C,R2*%
X135255000Y-80135000D03*
X135255000Y-81155000D03*
%TD*%
D18*
%TO.C,C4*%
X107193000Y-83566000D03*
X109093000Y-83566000D03*
%TD*%
D12*
%TO.C,R8*%
X142367000Y-78738000D03*
X142367000Y-79758000D03*
%TD*%
%TO.C,R7*%
X142367000Y-80643000D03*
X142367000Y-81663000D03*
%TD*%
D14*
%TO.C,C3*%
X145161000Y-82230000D03*
X145161000Y-80330000D03*
%TD*%
D19*
%TO.C,J1*%
X128772000Y-81854000D03*
D20*
X126752000Y-81854000D03*
D21*
X125522000Y-81854000D03*
D19*
X127772000Y-81854000D03*
D20*
X129792000Y-81854000D03*
D21*
X131022000Y-81854000D03*
D22*
X132592000Y-77974000D03*
X123952000Y-77974000D03*
X132592000Y-81774000D03*
X123952000Y-81774000D03*
%TD*%
D10*
%TO.C,J5*%
X102997000Y-86360000D03*
D11*
X105537000Y-86360000D03*
X102997000Y-88900000D03*
X105537000Y-88900000D03*
X102997000Y-91440000D03*
X105537000Y-91440000D03*
X102997000Y-93980000D03*
X105537000Y-93980000D03*
%TD*%
D23*
%TO.C,R1*%
X135255000Y-79250000D03*
X135255000Y-78230000D03*
%TD*%
D12*
%TO.C,R6*%
X110744000Y-80643000D03*
X110744000Y-81663000D03*
%TD*%
D23*
%TO.C,R5*%
X143383000Y-80649000D03*
X143383000Y-79629000D03*
%TD*%
D24*
%TO.C,U2*%
X147472000Y-76567000D03*
X147472000Y-78867000D03*
D25*
X153772000Y-78867000D03*
D24*
X147472000Y-81167000D03*
%TD*%
D26*
%TO.C,TP1*%
X103759000Y-102638000D03*
X108839000Y-102638000D03*
%TD*%
%TO.C,TP4*%
X147701000Y-102638000D03*
X152781000Y-102638000D03*
%TD*%
D23*
%TO.C,R10*%
X121412000Y-82806000D03*
X121412000Y-81786000D03*
%TD*%
D18*
%TO.C,C6*%
X103698000Y-83566000D03*
X105598000Y-83566000D03*
%TD*%
D24*
%TO.C,U1*%
X108941000Y-81167000D03*
X108941000Y-78867000D03*
D25*
X102641000Y-78867000D03*
D24*
X108941000Y-76567000D03*
%TD*%
D10*
%TO.C,J10*%
X119380000Y-78740000D03*
D11*
X119380000Y-81280000D03*
%TD*%
D10*
%TO.C,J8*%
X151765000Y-99060000D03*
D11*
X149225000Y-99060000D03*
%TD*%
D10*
%TO.C,J11*%
X137160000Y-78740000D03*
D11*
X137160000Y-81280000D03*
%TD*%
D10*
%TO.C,J9*%
X107315000Y-99060000D03*
D11*
X104775000Y-99060000D03*
%TD*%
M02*
