M48
; DRILL file {KiCad 8.0.9} date 2025-08-25T15:10:53-0600
; FORMAT={-:-/ absolute / inch / decimal}
; #@! TF.CreationDate,2025-08-25T15:10:53-06:00
; #@! TF.GenerationSoftware,Kicad,Pcbnew,8.0.9
; #@! TF.FileFunction,Plated,1,4,PTH
FMAT,2
INCH
; #@! TA.AperFunction,Plated,PTH,ViaDrill
T1C0.0157
; #@! TA.AperFunction,Plated,PTH,ComponentDrill
T2C0.0378
; #@! TA.AperFunction,Plated,PTH,ComponentDrill
T3C0.0394
; #@! TA.AperFunction,Plated,PTH,ComponentDrill
T4C0.0480
%
G90
G05
T1
X4.021Y-3.3595
X4.1489Y-3.3595
X4.3871Y-3.3517
X4.453Y-3.0472
X4.4634Y-3.3536
X4.5301Y-3.3403
X4.545Y-3.295
X4.6125Y-3.1255
X4.635Y-3.0184
X4.7001Y-3.1725
X4.7022Y-3.0859
X4.71Y-3.3004
X4.9383Y-3.1174
X5.115Y-3.175
X5.2139Y-3.2827
X5.2769Y-3.0347
X5.2769Y-3.1036
X5.2769Y-3.1725
X5.2769Y-3.2433
X5.2769Y-3.3077
X5.395Y-3.3536
X5.4344Y-3.204
X5.465Y-2.9914
X5.5446Y-2.9855
X5.724Y-3.1505
X5.7266Y-3.2967
X5.7887Y-3.3403
X5.9226Y-3.3536
X6.085Y-3.295
T2
X4.88Y-3.0698
X4.88Y-3.2194
X5.2202Y-3.0698
X5.2202Y-3.2194
T3
X4.05Y-3.45
X4.05Y-3.55
X4.05Y-3.65
X4.05Y-3.75
X4.1125Y-3.9
X4.15Y-3.45
X4.15Y-3.55
X4.15Y-3.65
X4.15Y-3.75
X4.2125Y-3.9
X4.5Y-3.1
X4.5Y-3.2
X5.6Y-3.1
X5.6Y-3.2
X5.8875Y-3.9
X5.95Y-3.45
X5.95Y-3.55
X5.95Y-3.65
X5.95Y-3.75
X5.9875Y-3.9
X6.05Y-3.45
X6.05Y-3.55
X6.05Y-3.65
X6.05Y-3.75
T4
X4.085Y-4.0409
X4.285Y-4.0409
X5.815Y-4.0409
X6.015Y-4.0409
M30
