%TF.GenerationSoftware,KiCad,Pcbnew,(6.0.10-0)*%
%TF.CreationDate,2023-02-05T19:28:45-07:00*%
%TF.ProjectId,Breadboard Power Supply,42726561-6462-46f6-9172-6420506f7765,v1*%
%TF.SameCoordinates,Original*%
%TF.FileFunction,Legend,Bot*%
%TF.FilePolarity,Positive*%
%FSLAX46Y46*%
G04 Gerber Fmt 4.6, Leading zero omitted, Abs format (unit mm)*
G04 Created by KiCad (PCBNEW (6.0.10-0)) date 2023-02-05 19:28:45*
%MOMM*%
%LPD*%
G01*
G04 APERTURE LIST*
%ADD10C,0.100000*%
%ADD11C,0.120000*%
G04 APERTURE END LIST*
D10*
%TO.C,J8*%
X146758333Y-90802666D02*
X146758333Y-91302666D01*
X146791666Y-91402666D01*
X146858333Y-91469333D01*
X146958333Y-91502666D01*
X147025000Y-91502666D01*
X146325000Y-91102666D02*
X146391666Y-91069333D01*
X146425000Y-91036000D01*
X146458333Y-90969333D01*
X146458333Y-90936000D01*
X146425000Y-90869333D01*
X146391666Y-90836000D01*
X146325000Y-90802666D01*
X146191666Y-90802666D01*
X146125000Y-90836000D01*
X146091666Y-90869333D01*
X146058333Y-90936000D01*
X146058333Y-90969333D01*
X146091666Y-91036000D01*
X146125000Y-91069333D01*
X146191666Y-91102666D01*
X146325000Y-91102666D01*
X146391666Y-91136000D01*
X146425000Y-91169333D01*
X146458333Y-91236000D01*
X146458333Y-91369333D01*
X146425000Y-91436000D01*
X146391666Y-91469333D01*
X146325000Y-91502666D01*
X146191666Y-91502666D01*
X146125000Y-91469333D01*
X146091666Y-91436000D01*
X146058333Y-91369333D01*
X146058333Y-91236000D01*
X146091666Y-91169333D01*
X146125000Y-91136000D01*
X146191666Y-91102666D01*
%TO.C,J9*%
X107548333Y-90802666D02*
X107548333Y-91302666D01*
X107581666Y-91402666D01*
X107648333Y-91469333D01*
X107748333Y-91502666D01*
X107815000Y-91502666D01*
X107181666Y-91502666D02*
X107048333Y-91502666D01*
X106981666Y-91469333D01*
X106948333Y-91436000D01*
X106881666Y-91336000D01*
X106848333Y-91202666D01*
X106848333Y-90936000D01*
X106881666Y-90869333D01*
X106915000Y-90836000D01*
X106981666Y-90802666D01*
X107115000Y-90802666D01*
X107181666Y-90836000D01*
X107215000Y-90869333D01*
X107248333Y-90936000D01*
X107248333Y-91102666D01*
X107215000Y-91169333D01*
X107181666Y-91202666D01*
X107115000Y-91236000D01*
X106981666Y-91236000D01*
X106915000Y-91202666D01*
X106881666Y-91169333D01*
X106848333Y-91102666D01*
D11*
%TO.C,J8*%
X145860000Y-91888000D02*
X145860000Y-93218000D01*
X151060000Y-91888000D02*
X151060000Y-94548000D01*
X147190000Y-91888000D02*
X145860000Y-91888000D01*
X148460000Y-94548000D02*
X151060000Y-94548000D01*
X148460000Y-91888000D02*
X148460000Y-94548000D01*
X148460000Y-91888000D02*
X151060000Y-91888000D01*
%TO.C,J9*%
X102805000Y-91888000D02*
X102805000Y-93218000D01*
X104135000Y-91888000D02*
X102805000Y-91888000D01*
X105405000Y-91888000D02*
X105405000Y-94548000D01*
X105405000Y-94548000D02*
X108005000Y-94548000D01*
X105405000Y-91888000D02*
X108005000Y-91888000D01*
X108005000Y-91888000D02*
X108005000Y-94548000D01*
%TD*%
M02*
