%TF.GenerationSoftware,KiCad,Pcbnew,8.0.1*%
%TF.CreationDate,2024-03-17T20:14:19-06:00*%
%TF.ProjectId,Breadboard Power Supply,42726561-6462-46f6-9172-6420506f7765,v10*%
%TF.SameCoordinates,Original*%
%TF.FileFunction,Copper,L3,Inr*%
%TF.FilePolarity,Positive*%
%FSLAX46Y46*%
G04 Gerber Fmt 4.6, Leading zero omitted, Abs format (unit mm)*
G04 Created by KiCad (PCBNEW 8.0.1) date 2024-03-17 20:14:19*
%MOMM*%
%LPD*%
G01*
G04 APERTURE LIST*
%TA.AperFunction,ComponentPad*%
%ADD10R,1.700000X1.700000*%
%TD*%
%TA.AperFunction,ComponentPad*%
%ADD11O,1.700000X1.700000*%
%TD*%
%TA.AperFunction,ComponentPad*%
%ADD12C,1.450000*%
%TD*%
%TA.AperFunction,ComponentPad*%
%ADD13C,1.830000*%
%TD*%
%TA.AperFunction,ViaPad*%
%ADD14C,0.800000*%
%TD*%
G04 APERTURE END LIST*
D10*
%TO.N,+1V8*%
%TO.C,J4*%
X151130000Y-87630000D03*
D11*
%TO.N,/TOP_POWER_RAIL*%
X153670000Y-87630000D03*
%TO.N,+3.3V*%
X151130000Y-90170000D03*
%TO.N,/TOP_POWER_RAIL*%
X153670000Y-90170000D03*
%TO.N,VBUS*%
X151130000Y-92710000D03*
%TO.N,/TOP_POWER_RAIL*%
X153670000Y-92710000D03*
%TO.N,+12V*%
X151130000Y-95250000D03*
%TO.N,/TOP_POWER_RAIL*%
X153670000Y-95250000D03*
%TD*%
D12*
%TO.N,GND*%
%TO.C,J1*%
X132592000Y-77974000D03*
X123952000Y-77974000D03*
X132592000Y-81774000D03*
X123952000Y-81774000D03*
%TD*%
D10*
%TO.N,/BOTTOM_POWER_RAIL*%
%TO.C,J5*%
X102870000Y-87630000D03*
D11*
%TO.N,+1V8*%
X105410000Y-87630000D03*
%TO.N,/BOTTOM_POWER_RAIL*%
X102870000Y-90170000D03*
%TO.N,+3.3V*%
X105410000Y-90170000D03*
%TO.N,/BOTTOM_POWER_RAIL*%
X102870000Y-92710000D03*
%TO.N,VBUS*%
X105410000Y-92710000D03*
%TO.N,/BOTTOM_POWER_RAIL*%
X102870000Y-95250000D03*
%TO.N,+12V*%
X105410000Y-95250000D03*
%TD*%
D13*
%TO.N,GND*%
%TO.C,TP1*%
X103759000Y-102638000D03*
X108839000Y-102638000D03*
%TD*%
%TO.N,GND*%
%TO.C,TP4*%
X147701000Y-102638000D03*
X152781000Y-102638000D03*
%TD*%
D10*
%TO.N,GND*%
%TO.C,J10*%
X114300000Y-78740000D03*
D11*
X114300000Y-81280000D03*
%TD*%
D10*
%TO.N,/TOP_POWER_RAIL*%
%TO.C,J8*%
X151384000Y-99060000D03*
D11*
%TO.N,GND*%
X148844000Y-99060000D03*
%TD*%
D10*
%TO.N,GND*%
%TO.C,J11*%
X142240000Y-78740000D03*
D11*
X142240000Y-81280000D03*
%TD*%
D10*
%TO.N,/BOTTOM_POWER_RAIL*%
%TO.C,J9*%
X107696000Y-99060000D03*
D11*
%TO.N,GND*%
X105156000Y-99060000D03*
%TD*%
D14*
%TO.N,GND*%
X149987000Y-81153000D03*
X140081000Y-76666500D03*
X111379000Y-82169000D03*
X117983000Y-82423000D03*
X136271000Y-81661000D03*
X105283000Y-85217000D03*
X109855000Y-83947000D03*
X127381000Y-78613000D03*
X101981000Y-85217000D03*
%TO.N,+1V8*%
X112141000Y-77343000D03*
%TO.N,+12V*%
X116713000Y-77831000D03*
X108458000Y-88773000D03*
%TO.N,VBUS*%
X129866751Y-83088500D03*
X110617000Y-76581000D03*
X134239000Y-78867000D03*
X148971000Y-80645000D03*
X126365000Y-83439000D03*
X107061000Y-85217000D03*
%TO.N,Net-(D1-A2)*%
X125603000Y-79883000D03*
%TD*%
%TA.AperFunction,Conductor*%
%TO.N,GND*%
G36*
X114550000Y-80846988D02*
G01*
X114492993Y-80814075D01*
X114365826Y-80780000D01*
X114234174Y-80780000D01*
X114107007Y-80814075D01*
X114050000Y-80846988D01*
X114050000Y-79173012D01*
X114107007Y-79205925D01*
X114234174Y-79240000D01*
X114365826Y-79240000D01*
X114492993Y-79205925D01*
X114550000Y-79173012D01*
X114550000Y-80846988D01*
G37*
%TD.AperFunction*%
%TA.AperFunction,Conductor*%
G36*
X142490000Y-80846988D02*
G01*
X142432993Y-80814075D01*
X142305826Y-80780000D01*
X142174174Y-80780000D01*
X142047007Y-80814075D01*
X141990000Y-80846988D01*
X141990000Y-79173012D01*
X142047007Y-79205925D01*
X142174174Y-79240000D01*
X142305826Y-79240000D01*
X142432993Y-79205925D01*
X142490000Y-79173012D01*
X142490000Y-80846988D01*
G37*
%TD.AperFunction*%
%TA.AperFunction,Conductor*%
G36*
X155010039Y-75203685D02*
G01*
X155055794Y-75256489D01*
X155067000Y-75308000D01*
X155067000Y-86867976D01*
X155047315Y-86935015D01*
X154994511Y-86980770D01*
X154925353Y-86990714D01*
X154861797Y-86961689D01*
X154839192Y-86935798D01*
X154745723Y-86792734D01*
X154745715Y-86792723D01*
X154593243Y-86627097D01*
X154593238Y-86627092D01*
X154415577Y-86488812D01*
X154415572Y-86488808D01*
X154217580Y-86381661D01*
X154217577Y-86381659D01*
X154217574Y-86381658D01*
X154217571Y-86381657D01*
X154217569Y-86381656D01*
X154004637Y-86308556D01*
X153782569Y-86271500D01*
X153557431Y-86271500D01*
X153335362Y-86308556D01*
X153122430Y-86381656D01*
X153122419Y-86381661D01*
X152924427Y-86488808D01*
X152924422Y-86488812D01*
X152746761Y-86627092D01*
X152683548Y-86695760D01*
X152623661Y-86731750D01*
X152553823Y-86729649D01*
X152496207Y-86690124D01*
X152476138Y-86655110D01*
X152430889Y-86533796D01*
X152397214Y-86488812D01*
X152343261Y-86416739D01*
X152226204Y-86329111D01*
X152089203Y-86278011D01*
X152028654Y-86271500D01*
X152028638Y-86271500D01*
X150231362Y-86271500D01*
X150231345Y-86271500D01*
X150170797Y-86278011D01*
X150170795Y-86278011D01*
X150033795Y-86329111D01*
X149916739Y-86416739D01*
X149829111Y-86533795D01*
X149778011Y-86670795D01*
X149778011Y-86670797D01*
X149771500Y-86731345D01*
X149771500Y-88528654D01*
X149778011Y-88589202D01*
X149778011Y-88589204D01*
X149829111Y-88726204D01*
X149916739Y-88843261D01*
X150033796Y-88930889D01*
X150085737Y-88950262D01*
X150151595Y-88974827D01*
X150207528Y-89016699D01*
X150231944Y-89082163D01*
X150217092Y-89150436D01*
X150199490Y-89174991D01*
X150054279Y-89332730D01*
X150054276Y-89332734D01*
X149931140Y-89521207D01*
X149840703Y-89727385D01*
X149785436Y-89945628D01*
X149785434Y-89945640D01*
X149766844Y-90169994D01*
X149766844Y-90170005D01*
X149785434Y-90394359D01*
X149785436Y-90394371D01*
X149840703Y-90612614D01*
X149931140Y-90818792D01*
X150054276Y-91007265D01*
X150054284Y-91007276D01*
X150206756Y-91172902D01*
X150206760Y-91172906D01*
X150384424Y-91311189D01*
X150384429Y-91311191D01*
X150384431Y-91311193D01*
X150420930Y-91330946D01*
X150470520Y-91380165D01*
X150485628Y-91448382D01*
X150461457Y-91513937D01*
X150420930Y-91549054D01*
X150384431Y-91568806D01*
X150384422Y-91568812D01*
X150206761Y-91707092D01*
X150206756Y-91707097D01*
X150054284Y-91872723D01*
X150054276Y-91872734D01*
X149931140Y-92061207D01*
X149840703Y-92267385D01*
X149785436Y-92485628D01*
X149785434Y-92485640D01*
X149766844Y-92709994D01*
X149766844Y-92710005D01*
X149785434Y-92934359D01*
X149785436Y-92934371D01*
X149840703Y-93152614D01*
X149931140Y-93358792D01*
X150054276Y-93547265D01*
X150054284Y-93547276D01*
X150206756Y-93712902D01*
X150206760Y-93712906D01*
X150384424Y-93851189D01*
X150384429Y-93851191D01*
X150384431Y-93851193D01*
X150420930Y-93870946D01*
X150470520Y-93920165D01*
X150485628Y-93988382D01*
X150461457Y-94053937D01*
X150420930Y-94089054D01*
X150384431Y-94108806D01*
X150384422Y-94108812D01*
X150206761Y-94247092D01*
X150206756Y-94247097D01*
X150054284Y-94412723D01*
X150054276Y-94412734D01*
X149931140Y-94601207D01*
X149840703Y-94807385D01*
X149785436Y-95025628D01*
X149785434Y-95025640D01*
X149766844Y-95249994D01*
X149766844Y-95250005D01*
X149785434Y-95474359D01*
X149785436Y-95474371D01*
X149840703Y-95692614D01*
X149931140Y-95898792D01*
X150054276Y-96087265D01*
X150054284Y-96087276D01*
X150206756Y-96252902D01*
X150206760Y-96252906D01*
X150384424Y-96391189D01*
X150384425Y-96391189D01*
X150384427Y-96391191D01*
X150511135Y-96459761D01*
X150582426Y-96498342D01*
X150795365Y-96571444D01*
X151017431Y-96608500D01*
X151242569Y-96608500D01*
X151464635Y-96571444D01*
X151677574Y-96498342D01*
X151875576Y-96391189D01*
X152053240Y-96252906D01*
X152205722Y-96087268D01*
X152296193Y-95948790D01*
X152349338Y-95903437D01*
X152418569Y-95894013D01*
X152481905Y-95923515D01*
X152503804Y-95948787D01*
X152594278Y-96087268D01*
X152594283Y-96087273D01*
X152594284Y-96087276D01*
X152746756Y-96252902D01*
X152746760Y-96252906D01*
X152924424Y-96391189D01*
X152924425Y-96391189D01*
X152924427Y-96391191D01*
X153051135Y-96459761D01*
X153122426Y-96498342D01*
X153335365Y-96571444D01*
X153557431Y-96608500D01*
X153782569Y-96608500D01*
X154004635Y-96571444D01*
X154217574Y-96498342D01*
X154415576Y-96391189D01*
X154593240Y-96252906D01*
X154745722Y-96087268D01*
X154839193Y-95944198D01*
X154892338Y-95898845D01*
X154961569Y-95889421D01*
X155024905Y-95918923D01*
X155062236Y-95977983D01*
X155067000Y-96012023D01*
X155067000Y-103889000D01*
X155047315Y-103956039D01*
X154994511Y-104001794D01*
X154943000Y-104013000D01*
X153679360Y-104013000D01*
X153612321Y-103993315D01*
X153566566Y-103940511D01*
X153556622Y-103871353D01*
X153585647Y-103807797D01*
X153590343Y-103803340D01*
X153590486Y-103801039D01*
X152997874Y-103208427D01*
X153069944Y-103178575D01*
X153169853Y-103111818D01*
X153254818Y-103026853D01*
X153321575Y-102926944D01*
X153351427Y-102854874D01*
X153943023Y-103446471D01*
X154029718Y-103313777D01*
X154029723Y-103313769D01*
X154123918Y-103099025D01*
X154181485Y-102871696D01*
X154200850Y-102638005D01*
X154200850Y-102637994D01*
X154181485Y-102404303D01*
X154123918Y-102176974D01*
X154029723Y-101962230D01*
X154029718Y-101962222D01*
X153943023Y-101829527D01*
X153351426Y-102421124D01*
X153321575Y-102349056D01*
X153254818Y-102249147D01*
X153169853Y-102164182D01*
X153069944Y-102097425D01*
X152997874Y-102067572D01*
X153590487Y-101474959D01*
X153590487Y-101474958D01*
X153557585Y-101449350D01*
X153351348Y-101337739D01*
X153351339Y-101337736D01*
X153129555Y-101261597D01*
X152898250Y-101223000D01*
X152663750Y-101223000D01*
X152432444Y-101261597D01*
X152210660Y-101337736D01*
X152210651Y-101337739D01*
X152004413Y-101449350D01*
X152004407Y-101449354D01*
X151971512Y-101474957D01*
X151971512Y-101474959D01*
X152564125Y-102067572D01*
X152492056Y-102097425D01*
X152392147Y-102164182D01*
X152307182Y-102249147D01*
X152240425Y-102349056D01*
X152210573Y-102421125D01*
X151618975Y-101829527D01*
X151532277Y-101962229D01*
X151438081Y-102176974D01*
X151380514Y-102404303D01*
X151361150Y-102637994D01*
X151361150Y-102638005D01*
X151380514Y-102871696D01*
X151438081Y-103099025D01*
X151532279Y-103313775D01*
X151618975Y-103446471D01*
X152210572Y-102854874D01*
X152240425Y-102926944D01*
X152307182Y-103026853D01*
X152392147Y-103111818D01*
X152492056Y-103178575D01*
X152564125Y-103208426D01*
X151971511Y-103801039D01*
X151972039Y-103809541D01*
X151999615Y-103847859D01*
X152003288Y-103917632D01*
X151968656Y-103978314D01*
X151906714Y-104010640D01*
X151882639Y-104013000D01*
X148599360Y-104013000D01*
X148532321Y-103993315D01*
X148486566Y-103940511D01*
X148476622Y-103871353D01*
X148505647Y-103807797D01*
X148510343Y-103803340D01*
X148510486Y-103801039D01*
X147917874Y-103208427D01*
X147989944Y-103178575D01*
X148089853Y-103111818D01*
X148174818Y-103026853D01*
X148241575Y-102926944D01*
X148271427Y-102854874D01*
X148863023Y-103446471D01*
X148949718Y-103313777D01*
X148949723Y-103313769D01*
X149043918Y-103099025D01*
X149101485Y-102871696D01*
X149120850Y-102638005D01*
X149120850Y-102637994D01*
X149101485Y-102404303D01*
X149043918Y-102176974D01*
X148949723Y-101962230D01*
X148949718Y-101962222D01*
X148863023Y-101829527D01*
X148271426Y-102421124D01*
X148241575Y-102349056D01*
X148174818Y-102249147D01*
X148089853Y-102164182D01*
X147989944Y-102097425D01*
X147917874Y-102067572D01*
X148510487Y-101474959D01*
X148510487Y-101474958D01*
X148477585Y-101449350D01*
X148271348Y-101337739D01*
X148271339Y-101337736D01*
X148049555Y-101261597D01*
X147818250Y-101223000D01*
X147583750Y-101223000D01*
X147352444Y-101261597D01*
X147130660Y-101337736D01*
X147130651Y-101337739D01*
X146924413Y-101449350D01*
X146924407Y-101449354D01*
X146891512Y-101474957D01*
X146891512Y-101474959D01*
X147484125Y-102067572D01*
X147412056Y-102097425D01*
X147312147Y-102164182D01*
X147227182Y-102249147D01*
X147160425Y-102349056D01*
X147130573Y-102421125D01*
X146538975Y-101829527D01*
X146452277Y-101962229D01*
X146358081Y-102176974D01*
X146300514Y-102404303D01*
X146281150Y-102637994D01*
X146281150Y-102638005D01*
X146300514Y-102871696D01*
X146358081Y-103099025D01*
X146452279Y-103313775D01*
X146538975Y-103446471D01*
X147130572Y-102854874D01*
X147160425Y-102926944D01*
X147227182Y-103026853D01*
X147312147Y-103111818D01*
X147412056Y-103178575D01*
X147484125Y-103208426D01*
X146891511Y-103801039D01*
X146892039Y-103809541D01*
X146919615Y-103847859D01*
X146923288Y-103917632D01*
X146888656Y-103978314D01*
X146826714Y-104010640D01*
X146802639Y-104013000D01*
X145920000Y-104013000D01*
X145852961Y-103993315D01*
X145807206Y-103940511D01*
X145796000Y-103889000D01*
X145796000Y-99310000D01*
X147513364Y-99310000D01*
X147570567Y-99523486D01*
X147570570Y-99523492D01*
X147670399Y-99737578D01*
X147805894Y-99931082D01*
X147972917Y-100098105D01*
X148166421Y-100233600D01*
X148380507Y-100333429D01*
X148380516Y-100333433D01*
X148594000Y-100390634D01*
X148594000Y-99493012D01*
X148651007Y-99525925D01*
X148778174Y-99560000D01*
X148909826Y-99560000D01*
X149036993Y-99525925D01*
X149094000Y-99493012D01*
X149094000Y-100390633D01*
X149307483Y-100333433D01*
X149307492Y-100333429D01*
X149521578Y-100233600D01*
X149715078Y-100098108D01*
X149830914Y-99982272D01*
X149892237Y-99948787D01*
X149961929Y-99953771D01*
X150017863Y-99995642D01*
X150034777Y-100026619D01*
X150083110Y-100156203D01*
X150083111Y-100156204D01*
X150170739Y-100273261D01*
X150287796Y-100360889D01*
X150424799Y-100411989D01*
X150452050Y-100414918D01*
X150485345Y-100418499D01*
X150485362Y-100418500D01*
X152282638Y-100418500D01*
X152282654Y-100418499D01*
X152309692Y-100415591D01*
X152343201Y-100411989D01*
X152480204Y-100360889D01*
X152597261Y-100273261D01*
X152684889Y-100156204D01*
X152735989Y-100019201D01*
X152739959Y-99982272D01*
X152742499Y-99958654D01*
X152742500Y-99958637D01*
X152742500Y-98161362D01*
X152742499Y-98161345D01*
X152739157Y-98130270D01*
X152735989Y-98100799D01*
X152733222Y-98093381D01*
X152706559Y-98021894D01*
X152684889Y-97963796D01*
X152597261Y-97846739D01*
X152480204Y-97759111D01*
X152343203Y-97708011D01*
X152282654Y-97701500D01*
X152282638Y-97701500D01*
X150485362Y-97701500D01*
X150485345Y-97701500D01*
X150424797Y-97708011D01*
X150424795Y-97708011D01*
X150287795Y-97759111D01*
X150170739Y-97846739D01*
X150083111Y-97963795D01*
X150034777Y-98093381D01*
X149992905Y-98149314D01*
X149927441Y-98173730D01*
X149859168Y-98158878D01*
X149830915Y-98137727D01*
X149715082Y-98021894D01*
X149521578Y-97886399D01*
X149307492Y-97786570D01*
X149307486Y-97786567D01*
X149094000Y-97729364D01*
X149094000Y-98626988D01*
X149036993Y-98594075D01*
X148909826Y-98560000D01*
X148778174Y-98560000D01*
X148651007Y-98594075D01*
X148594000Y-98626988D01*
X148594000Y-97729364D01*
X148593999Y-97729364D01*
X148380513Y-97786567D01*
X148380507Y-97786570D01*
X148166422Y-97886399D01*
X148166420Y-97886400D01*
X147972926Y-98021886D01*
X147972920Y-98021891D01*
X147805891Y-98188920D01*
X147805886Y-98188926D01*
X147670400Y-98382420D01*
X147670399Y-98382422D01*
X147570570Y-98596507D01*
X147570567Y-98596513D01*
X147513364Y-98809999D01*
X147513364Y-98810000D01*
X148410988Y-98810000D01*
X148378075Y-98867007D01*
X148344000Y-98994174D01*
X148344000Y-99125826D01*
X148378075Y-99252993D01*
X148410988Y-99310000D01*
X147513364Y-99310000D01*
X145796000Y-99310000D01*
X145796000Y-85090000D01*
X110744000Y-85090000D01*
X110744000Y-103889000D01*
X110724315Y-103956039D01*
X110671511Y-104001794D01*
X110620000Y-104013000D01*
X109737360Y-104013000D01*
X109670321Y-103993315D01*
X109624566Y-103940511D01*
X109614622Y-103871353D01*
X109643647Y-103807797D01*
X109648343Y-103803340D01*
X109648486Y-103801039D01*
X109055874Y-103208427D01*
X109127944Y-103178575D01*
X109227853Y-103111818D01*
X109312818Y-103026853D01*
X109379575Y-102926944D01*
X109409427Y-102854874D01*
X110001023Y-103446471D01*
X110087718Y-103313777D01*
X110087723Y-103313769D01*
X110181918Y-103099025D01*
X110239485Y-102871696D01*
X110258850Y-102638005D01*
X110258850Y-102637994D01*
X110239485Y-102404303D01*
X110181918Y-102176974D01*
X110087723Y-101962230D01*
X110087718Y-101962222D01*
X110001023Y-101829527D01*
X109409426Y-102421124D01*
X109379575Y-102349056D01*
X109312818Y-102249147D01*
X109227853Y-102164182D01*
X109127944Y-102097425D01*
X109055874Y-102067572D01*
X109648487Y-101474959D01*
X109648487Y-101474958D01*
X109615585Y-101449350D01*
X109409348Y-101337739D01*
X109409339Y-101337736D01*
X109187555Y-101261597D01*
X108956250Y-101223000D01*
X108721750Y-101223000D01*
X108490444Y-101261597D01*
X108268660Y-101337736D01*
X108268651Y-101337739D01*
X108062413Y-101449350D01*
X108062407Y-101449354D01*
X108029512Y-101474957D01*
X108029512Y-101474959D01*
X108622125Y-102067572D01*
X108550056Y-102097425D01*
X108450147Y-102164182D01*
X108365182Y-102249147D01*
X108298425Y-102349056D01*
X108268573Y-102421125D01*
X107676975Y-101829527D01*
X107590277Y-101962229D01*
X107496081Y-102176974D01*
X107438514Y-102404303D01*
X107419150Y-102637994D01*
X107419150Y-102638005D01*
X107438514Y-102871696D01*
X107496081Y-103099025D01*
X107590279Y-103313775D01*
X107676975Y-103446471D01*
X108268572Y-102854874D01*
X108298425Y-102926944D01*
X108365182Y-103026853D01*
X108450147Y-103111818D01*
X108550056Y-103178575D01*
X108622125Y-103208426D01*
X108029511Y-103801039D01*
X108030039Y-103809541D01*
X108057615Y-103847859D01*
X108061288Y-103917632D01*
X108026656Y-103978314D01*
X107964714Y-104010640D01*
X107940639Y-104013000D01*
X104657360Y-104013000D01*
X104590321Y-103993315D01*
X104544566Y-103940511D01*
X104534622Y-103871353D01*
X104563647Y-103807797D01*
X104568343Y-103803340D01*
X104568486Y-103801039D01*
X103975874Y-103208427D01*
X104047944Y-103178575D01*
X104147853Y-103111818D01*
X104232818Y-103026853D01*
X104299575Y-102926944D01*
X104329427Y-102854874D01*
X104921023Y-103446471D01*
X105007718Y-103313777D01*
X105007723Y-103313769D01*
X105101918Y-103099025D01*
X105159485Y-102871696D01*
X105178850Y-102638005D01*
X105178850Y-102637994D01*
X105159485Y-102404303D01*
X105101918Y-102176974D01*
X105007723Y-101962230D01*
X105007718Y-101962222D01*
X104921023Y-101829527D01*
X104329426Y-102421124D01*
X104299575Y-102349056D01*
X104232818Y-102249147D01*
X104147853Y-102164182D01*
X104047944Y-102097425D01*
X103975874Y-102067572D01*
X104568487Y-101474959D01*
X104568487Y-101474958D01*
X104535585Y-101449350D01*
X104329348Y-101337739D01*
X104329339Y-101337736D01*
X104107555Y-101261597D01*
X103876250Y-101223000D01*
X103641750Y-101223000D01*
X103410444Y-101261597D01*
X103188660Y-101337736D01*
X103188651Y-101337739D01*
X102982413Y-101449350D01*
X102982407Y-101449354D01*
X102949512Y-101474957D01*
X102949512Y-101474959D01*
X103542125Y-102067572D01*
X103470056Y-102097425D01*
X103370147Y-102164182D01*
X103285182Y-102249147D01*
X103218425Y-102349056D01*
X103188573Y-102421125D01*
X102596975Y-101829527D01*
X102510277Y-101962229D01*
X102416081Y-102176974D01*
X102358514Y-102404303D01*
X102339150Y-102637994D01*
X102339150Y-102638005D01*
X102358514Y-102871696D01*
X102416081Y-103099025D01*
X102510279Y-103313775D01*
X102596975Y-103446471D01*
X103188572Y-102854874D01*
X103218425Y-102926944D01*
X103285182Y-103026853D01*
X103370147Y-103111818D01*
X103470056Y-103178575D01*
X103542125Y-103208426D01*
X102949511Y-103801039D01*
X102950039Y-103809541D01*
X102977615Y-103847859D01*
X102981288Y-103917632D01*
X102946656Y-103978314D01*
X102884714Y-104010640D01*
X102860639Y-104013000D01*
X101597000Y-104013000D01*
X101529961Y-103993315D01*
X101484206Y-103940511D01*
X101473000Y-103889000D01*
X101473000Y-99310000D01*
X103825364Y-99310000D01*
X103882567Y-99523486D01*
X103882570Y-99523492D01*
X103982399Y-99737578D01*
X104117894Y-99931082D01*
X104284917Y-100098105D01*
X104478421Y-100233600D01*
X104692507Y-100333429D01*
X104692516Y-100333433D01*
X104906000Y-100390634D01*
X104906000Y-99493012D01*
X104963007Y-99525925D01*
X105090174Y-99560000D01*
X105221826Y-99560000D01*
X105348993Y-99525925D01*
X105406000Y-99493012D01*
X105406000Y-100390633D01*
X105619483Y-100333433D01*
X105619492Y-100333429D01*
X105833578Y-100233600D01*
X106027078Y-100098108D01*
X106142914Y-99982272D01*
X106204237Y-99948787D01*
X106273929Y-99953771D01*
X106329863Y-99995642D01*
X106346777Y-100026619D01*
X106395110Y-100156203D01*
X106395111Y-100156204D01*
X106482739Y-100273261D01*
X106599796Y-100360889D01*
X106736799Y-100411989D01*
X106764050Y-100414918D01*
X106797345Y-100418499D01*
X106797362Y-100418500D01*
X108594638Y-100418500D01*
X108594654Y-100418499D01*
X108621692Y-100415591D01*
X108655201Y-100411989D01*
X108792204Y-100360889D01*
X108909261Y-100273261D01*
X108996889Y-100156204D01*
X109047989Y-100019201D01*
X109051959Y-99982272D01*
X109054499Y-99958654D01*
X109054500Y-99958637D01*
X109054500Y-98161362D01*
X109054499Y-98161345D01*
X109051157Y-98130270D01*
X109047989Y-98100799D01*
X109045222Y-98093381D01*
X109018559Y-98021894D01*
X108996889Y-97963796D01*
X108909261Y-97846739D01*
X108792204Y-97759111D01*
X108655203Y-97708011D01*
X108594654Y-97701500D01*
X108594638Y-97701500D01*
X106797362Y-97701500D01*
X106797345Y-97701500D01*
X106736797Y-97708011D01*
X106736795Y-97708011D01*
X106599795Y-97759111D01*
X106482739Y-97846739D01*
X106395111Y-97963795D01*
X106346777Y-98093381D01*
X106304905Y-98149314D01*
X106239441Y-98173730D01*
X106171168Y-98158878D01*
X106142915Y-98137727D01*
X106027082Y-98021894D01*
X105833578Y-97886399D01*
X105619492Y-97786570D01*
X105619486Y-97786567D01*
X105406000Y-97729364D01*
X105406000Y-98626988D01*
X105348993Y-98594075D01*
X105221826Y-98560000D01*
X105090174Y-98560000D01*
X104963007Y-98594075D01*
X104906000Y-98626988D01*
X104906000Y-97729364D01*
X104905999Y-97729364D01*
X104692513Y-97786567D01*
X104692507Y-97786570D01*
X104478422Y-97886399D01*
X104478420Y-97886400D01*
X104284926Y-98021886D01*
X104284920Y-98021891D01*
X104117891Y-98188920D01*
X104117886Y-98188926D01*
X103982400Y-98382420D01*
X103982399Y-98382422D01*
X103882570Y-98596507D01*
X103882567Y-98596513D01*
X103825364Y-98809999D01*
X103825364Y-98810000D01*
X104722988Y-98810000D01*
X104690075Y-98867007D01*
X104656000Y-98994174D01*
X104656000Y-99125826D01*
X104690075Y-99252993D01*
X104722988Y-99310000D01*
X103825364Y-99310000D01*
X101473000Y-99310000D01*
X101473000Y-96012023D01*
X101492685Y-95944984D01*
X101545489Y-95899229D01*
X101614647Y-95889285D01*
X101678203Y-95918310D01*
X101700804Y-95944195D01*
X101794278Y-96087268D01*
X101794283Y-96087273D01*
X101794284Y-96087276D01*
X101946756Y-96252902D01*
X101946760Y-96252906D01*
X102124424Y-96391189D01*
X102124425Y-96391189D01*
X102124427Y-96391191D01*
X102251135Y-96459761D01*
X102322426Y-96498342D01*
X102535365Y-96571444D01*
X102757431Y-96608500D01*
X102982569Y-96608500D01*
X103204635Y-96571444D01*
X103417574Y-96498342D01*
X103615576Y-96391189D01*
X103793240Y-96252906D01*
X103945722Y-96087268D01*
X104036193Y-95948790D01*
X104089338Y-95903437D01*
X104158569Y-95894013D01*
X104221905Y-95923515D01*
X104243804Y-95948787D01*
X104334278Y-96087268D01*
X104334283Y-96087273D01*
X104334284Y-96087276D01*
X104486756Y-96252902D01*
X104486760Y-96252906D01*
X104664424Y-96391189D01*
X104664425Y-96391189D01*
X104664427Y-96391191D01*
X104791135Y-96459761D01*
X104862426Y-96498342D01*
X105075365Y-96571444D01*
X105297431Y-96608500D01*
X105522569Y-96608500D01*
X105744635Y-96571444D01*
X105957574Y-96498342D01*
X106155576Y-96391189D01*
X106333240Y-96252906D01*
X106485722Y-96087268D01*
X106608860Y-95898791D01*
X106699296Y-95692616D01*
X106754564Y-95474368D01*
X106773156Y-95250000D01*
X106754564Y-95025632D01*
X106699296Y-94807384D01*
X106608860Y-94601209D01*
X106595706Y-94581076D01*
X106485723Y-94412734D01*
X106485715Y-94412723D01*
X106333243Y-94247097D01*
X106333238Y-94247092D01*
X106155577Y-94108812D01*
X106155578Y-94108812D01*
X106155576Y-94108811D01*
X106119070Y-94089055D01*
X106069479Y-94039836D01*
X106054371Y-93971619D01*
X106078541Y-93906064D01*
X106119070Y-93870945D01*
X106119084Y-93870936D01*
X106155576Y-93851189D01*
X106333240Y-93712906D01*
X106485722Y-93547268D01*
X106608860Y-93358791D01*
X106699296Y-93152616D01*
X106754564Y-92934368D01*
X106773156Y-92710000D01*
X106754564Y-92485632D01*
X106699296Y-92267384D01*
X106608860Y-92061209D01*
X106595706Y-92041076D01*
X106485723Y-91872734D01*
X106485715Y-91872723D01*
X106333243Y-91707097D01*
X106333238Y-91707092D01*
X106155577Y-91568812D01*
X106155578Y-91568812D01*
X106155576Y-91568811D01*
X106119070Y-91549055D01*
X106069479Y-91499836D01*
X106054371Y-91431619D01*
X106078541Y-91366064D01*
X106119070Y-91330945D01*
X106119084Y-91330936D01*
X106155576Y-91311189D01*
X106333240Y-91172906D01*
X106485722Y-91007268D01*
X106608860Y-90818791D01*
X106699296Y-90612616D01*
X106754564Y-90394368D01*
X106773156Y-90170000D01*
X106754564Y-89945632D01*
X106699296Y-89727384D01*
X106608860Y-89521209D01*
X106595706Y-89501076D01*
X106485723Y-89332734D01*
X106485715Y-89332723D01*
X106333243Y-89167097D01*
X106333238Y-89167092D01*
X106155577Y-89028812D01*
X106155578Y-89028812D01*
X106155576Y-89028811D01*
X106119070Y-89009055D01*
X106069479Y-88959836D01*
X106054371Y-88891619D01*
X106078541Y-88826064D01*
X106119070Y-88790945D01*
X106119084Y-88790936D01*
X106152229Y-88773000D01*
X107544496Y-88773000D01*
X107564458Y-88962928D01*
X107564459Y-88962931D01*
X107623470Y-89144549D01*
X107623473Y-89144556D01*
X107718960Y-89309944D01*
X107846747Y-89451866D01*
X108001248Y-89564118D01*
X108175712Y-89641794D01*
X108362513Y-89681500D01*
X108553487Y-89681500D01*
X108740288Y-89641794D01*
X108914752Y-89564118D01*
X109069253Y-89451866D01*
X109197040Y-89309944D01*
X109292527Y-89144556D01*
X109351542Y-88962928D01*
X109371504Y-88773000D01*
X109351542Y-88583072D01*
X109292527Y-88401444D01*
X109197040Y-88236056D01*
X109069253Y-88094134D01*
X108914752Y-87981882D01*
X108740288Y-87904206D01*
X108740286Y-87904205D01*
X108553487Y-87864500D01*
X108362513Y-87864500D01*
X108175714Y-87904205D01*
X108001246Y-87981883D01*
X107846745Y-88094135D01*
X107718959Y-88236057D01*
X107623473Y-88401443D01*
X107623470Y-88401450D01*
X107575543Y-88548956D01*
X107564458Y-88583072D01*
X107544496Y-88773000D01*
X106152229Y-88773000D01*
X106155576Y-88771189D01*
X106333240Y-88632906D01*
X106485722Y-88467268D01*
X106608860Y-88278791D01*
X106699296Y-88072616D01*
X106754564Y-87854368D01*
X106773156Y-87630000D01*
X106754564Y-87405632D01*
X106699296Y-87187384D01*
X106608860Y-86981209D01*
X106485722Y-86792732D01*
X106485719Y-86792729D01*
X106485715Y-86792723D01*
X106333243Y-86627097D01*
X106333238Y-86627092D01*
X106155577Y-86488812D01*
X106155572Y-86488808D01*
X105957580Y-86381661D01*
X105957577Y-86381659D01*
X105957574Y-86381658D01*
X105957571Y-86381657D01*
X105957569Y-86381656D01*
X105744637Y-86308556D01*
X105522569Y-86271500D01*
X105297431Y-86271500D01*
X105075362Y-86308556D01*
X104862430Y-86381656D01*
X104862419Y-86381661D01*
X104664427Y-86488808D01*
X104664422Y-86488812D01*
X104486761Y-86627092D01*
X104423548Y-86695760D01*
X104363661Y-86731750D01*
X104293823Y-86729649D01*
X104236207Y-86690124D01*
X104216138Y-86655110D01*
X104170889Y-86533796D01*
X104137214Y-86488812D01*
X104083261Y-86416739D01*
X103966204Y-86329111D01*
X103829203Y-86278011D01*
X103768654Y-86271500D01*
X103768638Y-86271500D01*
X101971362Y-86271500D01*
X101971345Y-86271500D01*
X101910797Y-86278011D01*
X101910795Y-86278011D01*
X101773795Y-86329111D01*
X101724530Y-86365991D01*
X101671309Y-86405831D01*
X101605847Y-86430248D01*
X101537574Y-86415396D01*
X101488168Y-86365991D01*
X101473000Y-86306564D01*
X101473000Y-85217000D01*
X106147496Y-85217000D01*
X106167458Y-85406928D01*
X106167459Y-85406931D01*
X106226470Y-85588549D01*
X106226473Y-85588556D01*
X106321960Y-85753944D01*
X106449747Y-85895866D01*
X106604248Y-86008118D01*
X106778712Y-86085794D01*
X106965513Y-86125500D01*
X107156487Y-86125500D01*
X107343288Y-86085794D01*
X107517752Y-86008118D01*
X107672253Y-85895866D01*
X107800040Y-85753944D01*
X107895527Y-85588556D01*
X107954542Y-85406928D01*
X107974504Y-85217000D01*
X107954542Y-85027072D01*
X107895527Y-84845444D01*
X107800040Y-84680056D01*
X107672253Y-84538134D01*
X107517752Y-84425882D01*
X107343288Y-84348206D01*
X107343286Y-84348205D01*
X107156487Y-84308500D01*
X106965513Y-84308500D01*
X106778714Y-84348205D01*
X106604246Y-84425883D01*
X106449745Y-84538135D01*
X106321959Y-84680057D01*
X106226473Y-84845443D01*
X106226470Y-84845450D01*
X106167459Y-85027068D01*
X106167458Y-85027072D01*
X106147496Y-85217000D01*
X101473000Y-85217000D01*
X101473000Y-83439000D01*
X125451496Y-83439000D01*
X125471458Y-83628928D01*
X125471459Y-83628931D01*
X125530470Y-83810549D01*
X125530473Y-83810556D01*
X125625960Y-83975944D01*
X125753747Y-84117866D01*
X125908248Y-84230118D01*
X126082712Y-84307794D01*
X126269513Y-84347500D01*
X126460487Y-84347500D01*
X126647288Y-84307794D01*
X126821752Y-84230118D01*
X126976253Y-84117866D01*
X127104040Y-83975944D01*
X127199527Y-83810556D01*
X127258542Y-83628928D01*
X127278504Y-83439000D01*
X127258542Y-83249072D01*
X127206369Y-83088500D01*
X128953247Y-83088500D01*
X128973209Y-83278428D01*
X128973210Y-83278431D01*
X129032221Y-83460049D01*
X129032224Y-83460056D01*
X129127711Y-83625444D01*
X129255498Y-83767366D01*
X129409999Y-83879618D01*
X129584463Y-83957294D01*
X129771264Y-83997000D01*
X129962238Y-83997000D01*
X130149039Y-83957294D01*
X130323503Y-83879618D01*
X130478004Y-83767366D01*
X130605791Y-83625444D01*
X130701278Y-83460056D01*
X130760293Y-83278428D01*
X130780255Y-83088500D01*
X130760293Y-82898572D01*
X130701278Y-82716944D01*
X130605791Y-82551556D01*
X130478004Y-82409634D01*
X130323503Y-82297382D01*
X130149039Y-82219706D01*
X130149037Y-82219705D01*
X129962238Y-82180000D01*
X129771264Y-82180000D01*
X129584465Y-82219705D01*
X129409997Y-82297383D01*
X129255496Y-82409635D01*
X129127710Y-82551557D01*
X129032224Y-82716943D01*
X129032221Y-82716950D01*
X128973210Y-82898568D01*
X128973209Y-82898572D01*
X128953247Y-83088500D01*
X127206369Y-83088500D01*
X127199527Y-83067444D01*
X127104040Y-82902056D01*
X126976253Y-82760134D01*
X126821752Y-82647882D01*
X126647288Y-82570206D01*
X126647286Y-82570205D01*
X126460487Y-82530500D01*
X126269513Y-82530500D01*
X126082714Y-82570205D01*
X125908246Y-82647883D01*
X125753745Y-82760135D01*
X125625959Y-82902057D01*
X125530473Y-83067443D01*
X125530470Y-83067450D01*
X125471459Y-83249068D01*
X125471458Y-83249072D01*
X125451496Y-83439000D01*
X101473000Y-83439000D01*
X101473000Y-76581000D01*
X109703496Y-76581000D01*
X109723458Y-76770928D01*
X109723459Y-76770931D01*
X109782470Y-76952549D01*
X109782473Y-76952556D01*
X109877960Y-77117944D01*
X110005747Y-77259866D01*
X110160248Y-77372118D01*
X110334712Y-77449794D01*
X110521513Y-77489500D01*
X110712487Y-77489500D01*
X110853874Y-77459447D01*
X110899288Y-77449794D01*
X111067635Y-77374841D01*
X111136880Y-77365558D01*
X111200157Y-77395186D01*
X111237370Y-77454321D01*
X111241385Y-77475153D01*
X111247458Y-77532928D01*
X111247459Y-77532931D01*
X111306470Y-77714549D01*
X111306473Y-77714556D01*
X111401960Y-77879944D01*
X111529747Y-78021866D01*
X111684248Y-78134118D01*
X111858712Y-78211794D01*
X112045513Y-78251500D01*
X112236487Y-78251500D01*
X112423288Y-78211794D01*
X112597752Y-78134118D01*
X112752253Y-78021866D01*
X112752256Y-78021861D01*
X112753114Y-78021239D01*
X112818920Y-77997759D01*
X112886974Y-78013584D01*
X112935669Y-78063689D01*
X112950000Y-78121557D01*
X112950000Y-78490000D01*
X113866988Y-78490000D01*
X113834075Y-78547007D01*
X113800000Y-78674174D01*
X113800000Y-78805826D01*
X113834075Y-78932993D01*
X113866988Y-78990000D01*
X112950000Y-78990000D01*
X112950000Y-79637844D01*
X112956401Y-79697372D01*
X112956403Y-79697379D01*
X113006645Y-79832086D01*
X113006649Y-79832093D01*
X113092809Y-79947187D01*
X113092812Y-79947190D01*
X113207906Y-80033350D01*
X113207913Y-80033354D01*
X113339986Y-80082614D01*
X113395920Y-80124485D01*
X113420337Y-80189949D01*
X113405486Y-80258222D01*
X113384335Y-80286477D01*
X113261886Y-80408926D01*
X113126400Y-80602420D01*
X113126399Y-80602422D01*
X113026570Y-80816507D01*
X113026567Y-80816513D01*
X112969364Y-81029999D01*
X112969364Y-81030000D01*
X113866988Y-81030000D01*
X113834075Y-81087007D01*
X113800000Y-81214174D01*
X113800000Y-81345826D01*
X113834075Y-81472993D01*
X113866988Y-81530000D01*
X112969364Y-81530000D01*
X113026567Y-81743486D01*
X113026570Y-81743492D01*
X113126399Y-81957578D01*
X113261894Y-82151082D01*
X113428917Y-82318105D01*
X113622421Y-82453600D01*
X113836507Y-82553429D01*
X113836516Y-82553433D01*
X114050000Y-82610634D01*
X114050000Y-81713012D01*
X114107007Y-81745925D01*
X114234174Y-81780000D01*
X114365826Y-81780000D01*
X114492993Y-81745925D01*
X114550000Y-81713012D01*
X114550000Y-82610633D01*
X114763483Y-82553433D01*
X114763492Y-82553429D01*
X114977578Y-82453600D01*
X115171082Y-82318105D01*
X115338105Y-82151082D01*
X115473600Y-81957578D01*
X115559203Y-81774000D01*
X122722321Y-81774000D01*
X122741002Y-81987527D01*
X122741004Y-81987537D01*
X122796477Y-82194567D01*
X122796481Y-82194576D01*
X122887066Y-82388838D01*
X122887067Y-82388840D01*
X122926825Y-82445620D01*
X122926826Y-82445621D01*
X123485367Y-81887079D01*
X123504711Y-81959273D01*
X123567904Y-82068727D01*
X123657273Y-82158096D01*
X123766727Y-82221289D01*
X123838919Y-82240632D01*
X123280377Y-82799173D01*
X123337161Y-82838933D01*
X123531423Y-82929518D01*
X123531432Y-82929522D01*
X123738462Y-82984995D01*
X123738472Y-82984997D01*
X123951999Y-83003679D01*
X123952001Y-83003679D01*
X124165527Y-82984997D01*
X124165537Y-82984995D01*
X124372567Y-82929522D01*
X124372576Y-82929518D01*
X124566839Y-82838933D01*
X124623621Y-82799173D01*
X124065080Y-82240632D01*
X124137273Y-82221289D01*
X124246727Y-82158096D01*
X124336096Y-82068727D01*
X124399289Y-81959273D01*
X124418632Y-81887080D01*
X124977173Y-82445621D01*
X125016933Y-82388839D01*
X125107518Y-82194576D01*
X125107522Y-82194567D01*
X125162995Y-81987537D01*
X125162997Y-81987527D01*
X125181679Y-81774000D01*
X131362321Y-81774000D01*
X131381002Y-81987527D01*
X131381004Y-81987537D01*
X131436477Y-82194567D01*
X131436481Y-82194576D01*
X131527066Y-82388838D01*
X131527067Y-82388840D01*
X131566825Y-82445620D01*
X131566826Y-82445621D01*
X132125367Y-81887079D01*
X132144711Y-81959273D01*
X132207904Y-82068727D01*
X132297273Y-82158096D01*
X132406727Y-82221289D01*
X132478919Y-82240632D01*
X131920377Y-82799173D01*
X131977161Y-82838933D01*
X132171423Y-82929518D01*
X132171432Y-82929522D01*
X132378462Y-82984995D01*
X132378472Y-82984997D01*
X132591999Y-83003679D01*
X132592001Y-83003679D01*
X132805527Y-82984997D01*
X132805537Y-82984995D01*
X133012567Y-82929522D01*
X133012576Y-82929518D01*
X133206839Y-82838933D01*
X133263621Y-82799173D01*
X132705080Y-82240632D01*
X132777273Y-82221289D01*
X132886727Y-82158096D01*
X132976096Y-82068727D01*
X133039289Y-81959273D01*
X133058632Y-81887080D01*
X133617173Y-82445621D01*
X133656933Y-82388839D01*
X133747518Y-82194576D01*
X133747522Y-82194567D01*
X133802995Y-81987537D01*
X133802997Y-81987527D01*
X133821679Y-81774000D01*
X133821679Y-81773999D01*
X133802997Y-81560472D01*
X133802995Y-81560462D01*
X133747522Y-81353432D01*
X133747518Y-81353423D01*
X133656933Y-81159162D01*
X133617172Y-81102379D01*
X133058632Y-81660919D01*
X133039289Y-81588727D01*
X132976096Y-81479273D01*
X132886727Y-81389904D01*
X132777273Y-81326711D01*
X132705080Y-81307367D01*
X133263621Y-80748826D01*
X133263620Y-80748825D01*
X133206840Y-80709067D01*
X133206838Y-80709066D01*
X133012576Y-80618481D01*
X133012567Y-80618477D01*
X132805537Y-80563004D01*
X132805527Y-80563002D01*
X132592001Y-80544321D01*
X132591999Y-80544321D01*
X132378472Y-80563002D01*
X132378462Y-80563004D01*
X132171432Y-80618477D01*
X132171423Y-80618481D01*
X131977162Y-80709066D01*
X131920378Y-80748826D01*
X132478919Y-81307367D01*
X132406727Y-81326711D01*
X132297273Y-81389904D01*
X132207904Y-81479273D01*
X132144711Y-81588727D01*
X132125367Y-81660919D01*
X131566826Y-81102378D01*
X131527066Y-81159162D01*
X131436481Y-81353423D01*
X131436477Y-81353432D01*
X131381004Y-81560462D01*
X131381002Y-81560472D01*
X131362321Y-81773999D01*
X131362321Y-81774000D01*
X125181679Y-81774000D01*
X125181679Y-81773999D01*
X125162997Y-81560472D01*
X125162995Y-81560462D01*
X125107522Y-81353432D01*
X125107518Y-81353423D01*
X125016933Y-81159162D01*
X124977172Y-81102379D01*
X124418632Y-81660919D01*
X124399289Y-81588727D01*
X124336096Y-81479273D01*
X124246727Y-81389904D01*
X124137273Y-81326711D01*
X124065080Y-81307367D01*
X124623621Y-80748826D01*
X124623620Y-80748825D01*
X124566840Y-80709067D01*
X124566838Y-80709066D01*
X124372576Y-80618481D01*
X124372567Y-80618477D01*
X124165537Y-80563004D01*
X124165527Y-80563002D01*
X123952001Y-80544321D01*
X123951999Y-80544321D01*
X123738472Y-80563002D01*
X123738462Y-80563004D01*
X123531432Y-80618477D01*
X123531423Y-80618481D01*
X123337162Y-80709066D01*
X123280378Y-80748826D01*
X123838919Y-81307367D01*
X123766727Y-81326711D01*
X123657273Y-81389904D01*
X123567904Y-81479273D01*
X123504711Y-81588727D01*
X123485367Y-81660919D01*
X122926826Y-81102378D01*
X122887066Y-81159162D01*
X122796481Y-81353423D01*
X122796477Y-81353432D01*
X122741004Y-81560462D01*
X122741002Y-81560472D01*
X122722321Y-81773999D01*
X122722321Y-81774000D01*
X115559203Y-81774000D01*
X115573429Y-81743492D01*
X115573432Y-81743486D01*
X115630636Y-81530000D01*
X114733012Y-81530000D01*
X114765925Y-81472993D01*
X114800000Y-81345826D01*
X114800000Y-81214174D01*
X114765925Y-81087007D01*
X114733012Y-81030000D01*
X115630636Y-81030000D01*
X115630635Y-81029999D01*
X115573432Y-80816513D01*
X115573429Y-80816507D01*
X115473600Y-80602422D01*
X115473599Y-80602420D01*
X115338113Y-80408926D01*
X115338108Y-80408920D01*
X115215665Y-80286477D01*
X115182180Y-80225154D01*
X115187164Y-80155462D01*
X115229036Y-80099529D01*
X115260013Y-80082614D01*
X115392086Y-80033354D01*
X115392093Y-80033350D01*
X115507187Y-79947190D01*
X115507190Y-79947187D01*
X115555241Y-79883000D01*
X124689496Y-79883000D01*
X124709458Y-80072928D01*
X124709459Y-80072931D01*
X124768470Y-80254549D01*
X124768473Y-80254556D01*
X124863960Y-80419944D01*
X124991747Y-80561866D01*
X125146248Y-80674118D01*
X125320712Y-80751794D01*
X125507513Y-80791500D01*
X125698487Y-80791500D01*
X125885288Y-80751794D01*
X126059752Y-80674118D01*
X126214253Y-80561866D01*
X126342040Y-80419944D01*
X126437527Y-80254556D01*
X126496542Y-80072928D01*
X126516504Y-79883000D01*
X126496542Y-79693072D01*
X126437527Y-79511444D01*
X126342040Y-79346056D01*
X126214253Y-79204134D01*
X126059752Y-79091882D01*
X125885288Y-79014206D01*
X125885286Y-79014205D01*
X125698487Y-78974500D01*
X125507513Y-78974500D01*
X125320714Y-79014205D01*
X125146246Y-79091883D01*
X124991745Y-79204135D01*
X124863959Y-79346057D01*
X124768473Y-79511443D01*
X124768470Y-79511450D01*
X124720816Y-79658116D01*
X124709458Y-79693072D01*
X124689496Y-79883000D01*
X115555241Y-79883000D01*
X115593350Y-79832093D01*
X115593354Y-79832086D01*
X115643596Y-79697379D01*
X115643598Y-79697372D01*
X115649999Y-79637844D01*
X115650000Y-79637827D01*
X115650000Y-78990000D01*
X114733012Y-78990000D01*
X114765925Y-78932993D01*
X114800000Y-78805826D01*
X114800000Y-78674174D01*
X114765925Y-78547007D01*
X114733012Y-78490000D01*
X115650000Y-78490000D01*
X115650000Y-78269602D01*
X115669685Y-78202563D01*
X115722489Y-78156808D01*
X115791647Y-78146864D01*
X115855203Y-78175889D01*
X115881384Y-78207599D01*
X115973960Y-78367944D01*
X116101747Y-78509866D01*
X116256248Y-78622118D01*
X116430712Y-78699794D01*
X116617513Y-78739500D01*
X116808487Y-78739500D01*
X116995288Y-78699794D01*
X117169752Y-78622118D01*
X117324253Y-78509866D01*
X117452040Y-78367944D01*
X117547527Y-78202556D01*
X117606542Y-78020928D01*
X117611474Y-77974000D01*
X122722321Y-77974000D01*
X122741002Y-78187527D01*
X122741004Y-78187537D01*
X122796477Y-78394567D01*
X122796481Y-78394576D01*
X122887066Y-78588838D01*
X122887067Y-78588840D01*
X122926825Y-78645620D01*
X122926826Y-78645621D01*
X123485367Y-78087079D01*
X123504711Y-78159273D01*
X123567904Y-78268727D01*
X123657273Y-78358096D01*
X123766727Y-78421289D01*
X123838919Y-78440632D01*
X123280377Y-78999173D01*
X123337161Y-79038933D01*
X123531423Y-79129518D01*
X123531432Y-79129522D01*
X123738462Y-79184995D01*
X123738472Y-79184997D01*
X123951999Y-79203679D01*
X123952001Y-79203679D01*
X124165527Y-79184997D01*
X124165537Y-79184995D01*
X124372567Y-79129522D01*
X124372576Y-79129518D01*
X124566839Y-79038933D01*
X124623621Y-78999173D01*
X124065080Y-78440632D01*
X124137273Y-78421289D01*
X124246727Y-78358096D01*
X124336096Y-78268727D01*
X124399289Y-78159273D01*
X124418632Y-78087080D01*
X124977173Y-78645621D01*
X125016933Y-78588839D01*
X125107518Y-78394576D01*
X125107522Y-78394567D01*
X125162995Y-78187537D01*
X125162997Y-78187527D01*
X125181679Y-77974000D01*
X131362321Y-77974000D01*
X131381002Y-78187527D01*
X131381004Y-78187537D01*
X131436477Y-78394567D01*
X131436481Y-78394576D01*
X131527066Y-78588838D01*
X131527067Y-78588840D01*
X131566825Y-78645620D01*
X131566826Y-78645621D01*
X132125367Y-78087079D01*
X132144711Y-78159273D01*
X132207904Y-78268727D01*
X132297273Y-78358096D01*
X132406727Y-78421289D01*
X132478919Y-78440632D01*
X131920377Y-78999173D01*
X131977161Y-79038933D01*
X132171423Y-79129518D01*
X132171432Y-79129522D01*
X132378462Y-79184995D01*
X132378472Y-79184997D01*
X132591999Y-79203679D01*
X132592001Y-79203679D01*
X132805527Y-79184997D01*
X132805537Y-79184995D01*
X133012567Y-79129522D01*
X133012576Y-79129518D01*
X133195116Y-79044399D01*
X133264193Y-79033907D01*
X133327977Y-79062427D01*
X133365452Y-79118463D01*
X133404470Y-79238549D01*
X133404473Y-79238556D01*
X133499960Y-79403944D01*
X133627747Y-79545866D01*
X133782248Y-79658118D01*
X133956712Y-79735794D01*
X134143513Y-79775500D01*
X134334487Y-79775500D01*
X134521288Y-79735794D01*
X134695752Y-79658118D01*
X134723657Y-79637844D01*
X140890000Y-79637844D01*
X140896401Y-79697372D01*
X140896403Y-79697379D01*
X140946645Y-79832086D01*
X140946649Y-79832093D01*
X141032809Y-79947187D01*
X141032812Y-79947190D01*
X141147906Y-80033350D01*
X141147913Y-80033354D01*
X141279986Y-80082614D01*
X141335920Y-80124485D01*
X141360337Y-80189949D01*
X141345486Y-80258222D01*
X141324335Y-80286477D01*
X141201886Y-80408926D01*
X141066400Y-80602420D01*
X141066399Y-80602422D01*
X140966570Y-80816507D01*
X140966567Y-80816513D01*
X140909364Y-81029999D01*
X140909364Y-81030000D01*
X141806988Y-81030000D01*
X141774075Y-81087007D01*
X141740000Y-81214174D01*
X141740000Y-81345826D01*
X141774075Y-81472993D01*
X141806988Y-81530000D01*
X140909364Y-81530000D01*
X140966567Y-81743486D01*
X140966570Y-81743492D01*
X141066399Y-81957578D01*
X141201894Y-82151082D01*
X141368917Y-82318105D01*
X141562421Y-82453600D01*
X141776507Y-82553429D01*
X141776516Y-82553433D01*
X141990000Y-82610634D01*
X141990000Y-81713012D01*
X142047007Y-81745925D01*
X142174174Y-81780000D01*
X142305826Y-81780000D01*
X142432993Y-81745925D01*
X142490000Y-81713012D01*
X142490000Y-82610633D01*
X142703483Y-82553433D01*
X142703492Y-82553429D01*
X142917578Y-82453600D01*
X143111082Y-82318105D01*
X143278105Y-82151082D01*
X143413600Y-81957578D01*
X143513429Y-81743492D01*
X143513432Y-81743486D01*
X143570636Y-81530000D01*
X142673012Y-81530000D01*
X142705925Y-81472993D01*
X142740000Y-81345826D01*
X142740000Y-81214174D01*
X142705925Y-81087007D01*
X142673012Y-81030000D01*
X143570636Y-81030000D01*
X143570635Y-81029999D01*
X143513432Y-80816513D01*
X143513429Y-80816507D01*
X143433454Y-80645000D01*
X148057496Y-80645000D01*
X148077458Y-80834928D01*
X148077459Y-80834931D01*
X148136470Y-81016549D01*
X148136473Y-81016556D01*
X148231960Y-81181944D01*
X148359747Y-81323866D01*
X148514248Y-81436118D01*
X148688712Y-81513794D01*
X148875513Y-81553500D01*
X149066487Y-81553500D01*
X149253288Y-81513794D01*
X149427752Y-81436118D01*
X149582253Y-81323866D01*
X149710040Y-81181944D01*
X149805527Y-81016556D01*
X149864542Y-80834928D01*
X149884504Y-80645000D01*
X149864542Y-80455072D01*
X149805527Y-80273444D01*
X149710040Y-80108056D01*
X149582253Y-79966134D01*
X149427752Y-79853882D01*
X149253288Y-79776206D01*
X149253286Y-79776205D01*
X149066487Y-79736500D01*
X148875513Y-79736500D01*
X148688714Y-79776205D01*
X148514246Y-79853883D01*
X148359745Y-79966135D01*
X148231959Y-80108057D01*
X148136473Y-80273443D01*
X148136470Y-80273450D01*
X148077459Y-80455068D01*
X148077458Y-80455072D01*
X148057496Y-80645000D01*
X143433454Y-80645000D01*
X143413600Y-80602422D01*
X143413599Y-80602420D01*
X143278113Y-80408926D01*
X143278108Y-80408920D01*
X143155665Y-80286477D01*
X143122180Y-80225154D01*
X143127164Y-80155462D01*
X143169036Y-80099529D01*
X143200013Y-80082614D01*
X143332086Y-80033354D01*
X143332093Y-80033350D01*
X143447187Y-79947190D01*
X143447190Y-79947187D01*
X143533350Y-79832093D01*
X143533354Y-79832086D01*
X143583596Y-79697379D01*
X143583598Y-79697372D01*
X143589999Y-79637844D01*
X143590000Y-79637827D01*
X143590000Y-78990000D01*
X142673012Y-78990000D01*
X142705925Y-78932993D01*
X142740000Y-78805826D01*
X142740000Y-78674174D01*
X142705925Y-78547007D01*
X142673012Y-78490000D01*
X143590000Y-78490000D01*
X143590000Y-77842172D01*
X143589999Y-77842155D01*
X143583598Y-77782627D01*
X143583596Y-77782620D01*
X143533354Y-77647913D01*
X143533350Y-77647906D01*
X143447190Y-77532812D01*
X143447187Y-77532809D01*
X143332093Y-77446649D01*
X143332086Y-77446645D01*
X143197379Y-77396403D01*
X143197372Y-77396401D01*
X143137844Y-77390000D01*
X142490000Y-77390000D01*
X142490000Y-78306988D01*
X142432993Y-78274075D01*
X142305826Y-78240000D01*
X142174174Y-78240000D01*
X142047007Y-78274075D01*
X141990000Y-78306988D01*
X141990000Y-77390000D01*
X141342155Y-77390000D01*
X141282627Y-77396401D01*
X141282620Y-77396403D01*
X141147913Y-77446645D01*
X141147906Y-77446649D01*
X141032812Y-77532809D01*
X141032809Y-77532812D01*
X140946649Y-77647906D01*
X140946645Y-77647913D01*
X140896403Y-77782620D01*
X140896401Y-77782627D01*
X140890000Y-77842155D01*
X140890000Y-78490000D01*
X141806988Y-78490000D01*
X141774075Y-78547007D01*
X141740000Y-78674174D01*
X141740000Y-78805826D01*
X141774075Y-78932993D01*
X141806988Y-78990000D01*
X140890000Y-78990000D01*
X140890000Y-79637844D01*
X134723657Y-79637844D01*
X134850253Y-79545866D01*
X134978040Y-79403944D01*
X135073527Y-79238556D01*
X135132542Y-79056928D01*
X135152504Y-78867000D01*
X135132542Y-78677072D01*
X135073527Y-78495444D01*
X134978040Y-78330056D01*
X134850253Y-78188134D01*
X134695752Y-78075882D01*
X134521288Y-77998206D01*
X134521286Y-77998205D01*
X134334487Y-77958500D01*
X134143513Y-77958500D01*
X134143512Y-77958500D01*
X133963315Y-77996801D01*
X133893648Y-77991485D01*
X133837915Y-77949348D01*
X133814007Y-77886318D01*
X133802997Y-77760473D01*
X133802995Y-77760462D01*
X133747522Y-77553432D01*
X133747518Y-77553423D01*
X133656933Y-77359162D01*
X133617172Y-77302379D01*
X133058632Y-77860919D01*
X133039289Y-77788727D01*
X132976096Y-77679273D01*
X132886727Y-77589904D01*
X132777273Y-77526711D01*
X132705080Y-77507367D01*
X133263621Y-76948826D01*
X133263620Y-76948825D01*
X133206840Y-76909067D01*
X133206838Y-76909066D01*
X133012576Y-76818481D01*
X133012567Y-76818477D01*
X132805537Y-76763004D01*
X132805527Y-76763002D01*
X132592001Y-76744321D01*
X132591999Y-76744321D01*
X132378472Y-76763002D01*
X132378462Y-76763004D01*
X132171432Y-76818477D01*
X132171423Y-76818481D01*
X131977162Y-76909066D01*
X131920378Y-76948826D01*
X132478919Y-77507367D01*
X132406727Y-77526711D01*
X132297273Y-77589904D01*
X132207904Y-77679273D01*
X132144711Y-77788727D01*
X132125367Y-77860919D01*
X131566826Y-77302378D01*
X131527066Y-77359162D01*
X131436481Y-77553423D01*
X131436477Y-77553432D01*
X131381004Y-77760462D01*
X131381002Y-77760472D01*
X131362321Y-77973999D01*
X131362321Y-77974000D01*
X125181679Y-77974000D01*
X125181679Y-77973999D01*
X125162997Y-77760472D01*
X125162995Y-77760462D01*
X125107522Y-77553432D01*
X125107518Y-77553423D01*
X125016933Y-77359162D01*
X124977172Y-77302379D01*
X124418632Y-77860919D01*
X124399289Y-77788727D01*
X124336096Y-77679273D01*
X124246727Y-77589904D01*
X124137273Y-77526711D01*
X124065080Y-77507367D01*
X124623621Y-76948826D01*
X124623620Y-76948825D01*
X124566840Y-76909067D01*
X124566838Y-76909066D01*
X124372576Y-76818481D01*
X124372567Y-76818477D01*
X124165537Y-76763004D01*
X124165527Y-76763002D01*
X123952001Y-76744321D01*
X123951999Y-76744321D01*
X123738472Y-76763002D01*
X123738462Y-76763004D01*
X123531432Y-76818477D01*
X123531423Y-76818481D01*
X123337162Y-76909066D01*
X123280378Y-76948826D01*
X123838919Y-77507367D01*
X123766727Y-77526711D01*
X123657273Y-77589904D01*
X123567904Y-77679273D01*
X123504711Y-77788727D01*
X123485367Y-77860919D01*
X122926826Y-77302378D01*
X122887066Y-77359162D01*
X122796481Y-77553423D01*
X122796477Y-77553432D01*
X122741004Y-77760462D01*
X122741002Y-77760472D01*
X122722321Y-77973999D01*
X122722321Y-77974000D01*
X117611474Y-77974000D01*
X117626504Y-77831000D01*
X117606542Y-77641072D01*
X117547527Y-77459444D01*
X117452040Y-77294056D01*
X117324253Y-77152134D01*
X117169752Y-77039882D01*
X116995288Y-76962206D01*
X116995286Y-76962205D01*
X116808487Y-76922500D01*
X116617513Y-76922500D01*
X116430714Y-76962205D01*
X116256246Y-77039883D01*
X116101745Y-77152135D01*
X115973959Y-77294057D01*
X115878473Y-77459443D01*
X115878471Y-77459447D01*
X115822610Y-77631370D01*
X115783172Y-77689045D01*
X115718813Y-77716243D01*
X115649967Y-77704328D01*
X115598491Y-77657084D01*
X115595846Y-77652477D01*
X115593349Y-77647905D01*
X115507190Y-77532812D01*
X115507187Y-77532809D01*
X115392093Y-77446649D01*
X115392086Y-77446645D01*
X115257379Y-77396403D01*
X115257372Y-77396401D01*
X115197844Y-77390000D01*
X114550000Y-77390000D01*
X114550000Y-78306988D01*
X114492993Y-78274075D01*
X114365826Y-78240000D01*
X114234174Y-78240000D01*
X114107007Y-78274075D01*
X114050000Y-78306988D01*
X114050000Y-77390000D01*
X113402155Y-77390000D01*
X113342627Y-77396401D01*
X113342620Y-77396403D01*
X113220701Y-77441876D01*
X113151009Y-77446860D01*
X113089686Y-77413375D01*
X113056202Y-77352051D01*
X113054047Y-77338656D01*
X113034542Y-77153072D01*
X112975527Y-76971444D01*
X112880040Y-76806056D01*
X112752253Y-76664134D01*
X112597752Y-76551882D01*
X112423288Y-76474206D01*
X112423286Y-76474205D01*
X112236487Y-76434500D01*
X112045513Y-76434500D01*
X111858714Y-76474205D01*
X111690368Y-76549157D01*
X111621118Y-76558441D01*
X111557841Y-76528812D01*
X111520629Y-76469677D01*
X111516614Y-76448851D01*
X111510542Y-76391072D01*
X111451527Y-76209444D01*
X111356040Y-76044056D01*
X111228253Y-75902134D01*
X111073752Y-75789882D01*
X110899288Y-75712206D01*
X110899286Y-75712205D01*
X110712487Y-75672500D01*
X110521513Y-75672500D01*
X110334714Y-75712205D01*
X110160246Y-75789883D01*
X110005745Y-75902135D01*
X109877959Y-76044057D01*
X109782473Y-76209443D01*
X109782470Y-76209450D01*
X109723459Y-76391068D01*
X109723458Y-76391072D01*
X109703496Y-76581000D01*
X101473000Y-76581000D01*
X101473000Y-75308000D01*
X101492685Y-75240961D01*
X101545489Y-75195206D01*
X101597000Y-75184000D01*
X154943000Y-75184000D01*
X155010039Y-75203685D01*
G37*
%TD.AperFunction*%
%TD*%
M02*
