%TF.GenerationSoftware,KiCad,Pcbnew,(6.0.10-0)*%
%TF.CreationDate,2023-02-03T12:32:43-07:00*%
%TF.ProjectId,Breadboard Power Supply,42726561-6462-46f6-9172-6420506f7765,v1*%
%TF.SameCoordinates,Original*%
%TF.FileFunction,Copper,L2,Bot*%
%TF.FilePolarity,Positive*%
%FSLAX46Y46*%
G04 Gerber Fmt 4.6, Leading zero omitted, Abs format (unit mm)*
G04 Created by KiCad (PCBNEW (6.0.10-0)) date 2023-02-03 12:32:43*
%MOMM*%
%LPD*%
G01*
G04 APERTURE LIST*
%TA.AperFunction,ComponentPad*%
%ADD10R,1.700000X1.700000*%
%TD*%
%TA.AperFunction,ComponentPad*%
%ADD11O,1.700000X1.700000*%
%TD*%
%TA.AperFunction,ViaPad*%
%ADD12C,0.800000*%
%TD*%
%TA.AperFunction,Conductor*%
%ADD13C,0.750000*%
%TD*%
G04 APERTURE END LIST*
D10*
%TO.P,J3,1,Pin_1*%
%TO.N,+3.3V*%
X149860000Y-91440000D03*
D11*
%TO.P,J3,2,Pin_2*%
%TO.N,/TOP_POWER_RAIL*%
X147320000Y-91440000D03*
%TD*%
D10*
%TO.P,J4,1,Pin_1*%
%TO.N,+1V8*%
X149860000Y-95250000D03*
D11*
%TO.P,J4,2,Pin_2*%
%TO.N,/TOP_POWER_RAIL*%
X147320000Y-95250000D03*
%TD*%
D10*
%TO.P,J7,1,Pin_1*%
%TO.N,+1V8*%
X106680000Y-95250000D03*
D11*
%TO.P,J7,2,Pin_2*%
%TO.N,/BOTTOM_POWER_RAIL*%
X104140000Y-95250000D03*
%TD*%
D10*
%TO.P,J6,1,Pin_1*%
%TO.N,+3.3V*%
X106680000Y-91440000D03*
D11*
%TO.P,J6,2,Pin_2*%
%TO.N,/BOTTOM_POWER_RAIL*%
X104140000Y-91440000D03*
%TD*%
D10*
%TO.P,J2,1,Pin_1*%
%TO.N,+5V*%
X149860000Y-87630000D03*
D11*
%TO.P,J2,2,Pin_2*%
%TO.N,/TOP_POWER_RAIL*%
X147320000Y-87630000D03*
%TD*%
D10*
%TO.P,J5,1,Pin_1*%
%TO.N,+5V*%
X106680000Y-87630000D03*
D11*
%TO.P,J5,2,Pin_2*%
%TO.N,/BOTTOM_POWER_RAIL*%
X104140000Y-87630000D03*
%TD*%
D10*
%TO.P,J8,1,Pin_1*%
%TO.N,/TOP_POWER_RAIL*%
X147315000Y-99060000D03*
D11*
%TO.P,J8,2,Pin_2*%
%TO.N,GND*%
X149855000Y-99060000D03*
%TD*%
D10*
%TO.P,J9,1,Pin_1*%
%TO.N,/BOTTOM_POWER_RAIL*%
X104135000Y-99060000D03*
D11*
%TO.P,J9,2,Pin_2*%
%TO.N,GND*%
X106675000Y-99060000D03*
%TD*%
D12*
%TO.N,+1V8*%
X141859000Y-87630000D03*
X143002000Y-87630000D03*
%TO.N,GND*%
X137668000Y-81788000D03*
X121793000Y-80264000D03*
X120269000Y-82550000D03*
X130556000Y-78994000D03*
X138430000Y-82804000D03*
X141097000Y-81788000D03*
X124714000Y-85852000D03*
X143637000Y-78359000D03*
X110638000Y-80469000D03*
X144526000Y-77978000D03*
X113538000Y-79756000D03*
X137541000Y-86360000D03*
X138938000Y-78613000D03*
X130683000Y-82550000D03*
X115947946Y-78195992D03*
X110617000Y-85471000D03*
X113411000Y-86487000D03*
X133604000Y-82677000D03*
X123317000Y-82677000D03*
X110490000Y-84582000D03*
%TO.N,+3.3V*%
X102235000Y-84328000D03*
X145923000Y-80264000D03*
X145923000Y-82296000D03*
X102235000Y-85217000D03*
X144653000Y-82296000D03*
X144653000Y-80264000D03*
%TO.N,+1V8*%
X109474000Y-80772000D03*
X108204000Y-82550000D03*
X108204000Y-80772000D03*
X109474000Y-82550000D03*
%TD*%
D13*
%TO.N,+1V8*%
X143002000Y-87630000D02*
X141859000Y-87630000D01*
X141859000Y-87630000D02*
X108839000Y-87630000D01*
%TO.N,+3.3V*%
X145923000Y-77597000D02*
X145034000Y-76708000D01*
X145034000Y-76708000D02*
X103124000Y-76708000D01*
X102235000Y-77597000D02*
X102235000Y-83439000D01*
X103124000Y-76708000D02*
X102235000Y-77597000D01*
X102235000Y-84328000D02*
X102235000Y-83439000D01*
X145923000Y-80264000D02*
X145923000Y-77597000D01*
X102235000Y-83439000D02*
X102235000Y-85217000D01*
%TO.N,+1V8*%
X108839000Y-87630000D02*
X109601000Y-87630000D01*
X108839000Y-93091000D02*
X108839000Y-87630000D01*
X106680000Y-95250000D02*
X108839000Y-93091000D01*
X109601000Y-87630000D02*
X109474000Y-87503000D01*
X109474000Y-87503000D02*
X109474000Y-82550000D01*
%TD*%
%TA.AperFunction,Conductor*%
%TO.N,GND*%
G36*
X110490000Y-79883000D02*
G01*
X109674472Y-79883000D01*
X109648275Y-79880247D01*
X109575944Y-79864872D01*
X109575939Y-79864872D01*
X109569487Y-79863500D01*
X109378513Y-79863500D01*
X109372061Y-79864872D01*
X109372056Y-79864872D01*
X109299725Y-79880247D01*
X109273528Y-79883000D01*
X108404472Y-79883000D01*
X108378275Y-79880247D01*
X108305944Y-79864872D01*
X108305939Y-79864872D01*
X108299487Y-79863500D01*
X108108513Y-79863500D01*
X108102061Y-79864872D01*
X108102056Y-79864872D01*
X108029725Y-79880247D01*
X108003528Y-79883000D01*
X107188000Y-79883000D01*
X107188000Y-77591500D01*
X110490000Y-77591500D01*
X110490000Y-79883000D01*
G37*
%TD.AperFunction*%
%TD*%
%TA.AperFunction,Conductor*%
%TO.N,+3.3V*%
G36*
X146627121Y-79649002D02*
G01*
X146673614Y-79702658D01*
X146685000Y-79755000D01*
X146685000Y-82805000D01*
X146664998Y-82873121D01*
X146611342Y-82919614D01*
X146559000Y-82931000D01*
X144144000Y-82931000D01*
X144075879Y-82910998D01*
X144029386Y-82857342D01*
X144018000Y-82805000D01*
X144018000Y-79755000D01*
X144038002Y-79686879D01*
X144091658Y-79640386D01*
X144144000Y-79629000D01*
X146559000Y-79629000D01*
X146627121Y-79649002D01*
G37*
%TD.AperFunction*%
%TD*%
%TA.AperFunction,Conductor*%
%TO.N,GND*%
G36*
X103611756Y-90183357D02*
G01*
X103413607Y-90286507D01*
X103409474Y-90289610D01*
X103409471Y-90289612D01*
X103239100Y-90417530D01*
X103234965Y-90420635D01*
X103195525Y-90461907D01*
X103141280Y-90518671D01*
X103080629Y-90582138D01*
X102954743Y-90766680D01*
X102860688Y-90969305D01*
X102800989Y-91184570D01*
X102777251Y-91406695D01*
X102790110Y-91629715D01*
X102791247Y-91634761D01*
X102791248Y-91634767D01*
X102815304Y-91741508D01*
X102839222Y-91847639D01*
X102923266Y-92054616D01*
X103039987Y-92245088D01*
X103186250Y-92413938D01*
X103358126Y-92556632D01*
X103551000Y-92669338D01*
X103759692Y-92749030D01*
X103764760Y-92750061D01*
X103764763Y-92750062D01*
X103872017Y-92771883D01*
X103978597Y-92793567D01*
X103983772Y-92793757D01*
X103983774Y-92793757D01*
X104196673Y-92801564D01*
X104196677Y-92801564D01*
X104201837Y-92801753D01*
X104206957Y-92801097D01*
X104206959Y-92801097D01*
X104418288Y-92774025D01*
X104418289Y-92774025D01*
X104423416Y-92773368D01*
X104428366Y-92771883D01*
X104632429Y-92710661D01*
X104632434Y-92710659D01*
X104637384Y-92709174D01*
X104837994Y-92610896D01*
X105019860Y-92481173D01*
X105128091Y-92373319D01*
X105190462Y-92339404D01*
X105261268Y-92344592D01*
X105318030Y-92387238D01*
X105335012Y-92418341D01*
X105379385Y-92536705D01*
X105466739Y-92653261D01*
X105583295Y-92740615D01*
X105591697Y-92743765D01*
X105598510Y-92747495D01*
X105648656Y-92797753D01*
X105664000Y-92858014D01*
X105664000Y-93831986D01*
X105643998Y-93900107D01*
X105598510Y-93942505D01*
X105591697Y-93946235D01*
X105583295Y-93949385D01*
X105466739Y-94036739D01*
X105379385Y-94153295D01*
X105376233Y-94161703D01*
X105334919Y-94271907D01*
X105292277Y-94328671D01*
X105225716Y-94353371D01*
X105156367Y-94338163D01*
X105123743Y-94312476D01*
X105073151Y-94256875D01*
X105073142Y-94256866D01*
X105069670Y-94253051D01*
X105065619Y-94249852D01*
X105065615Y-94249848D01*
X104898414Y-94117800D01*
X104898410Y-94117798D01*
X104894359Y-94114598D01*
X104698789Y-94006638D01*
X104693920Y-94004914D01*
X104693916Y-94004912D01*
X104493087Y-93933795D01*
X104493083Y-93933794D01*
X104488212Y-93932069D01*
X104483119Y-93931162D01*
X104483116Y-93931161D01*
X104273373Y-93893800D01*
X104273367Y-93893799D01*
X104268284Y-93892894D01*
X104194452Y-93891992D01*
X104050081Y-93890228D01*
X104050079Y-93890228D01*
X104044911Y-93890165D01*
X103824091Y-93923955D01*
X103611756Y-93993357D01*
X103413607Y-94096507D01*
X103409474Y-94099610D01*
X103409471Y-94099612D01*
X103239100Y-94227530D01*
X103234965Y-94230635D01*
X103195525Y-94271907D01*
X103141280Y-94328671D01*
X103080629Y-94392138D01*
X102954743Y-94576680D01*
X102860688Y-94779305D01*
X102800989Y-94994570D01*
X102777251Y-95216695D01*
X102790110Y-95439715D01*
X102791247Y-95444761D01*
X102791248Y-95444767D01*
X102815304Y-95551508D01*
X102839222Y-95657639D01*
X102923266Y-95864616D01*
X103039987Y-96055088D01*
X103186250Y-96223938D01*
X103358126Y-96366632D01*
X103551000Y-96479338D01*
X103759692Y-96559030D01*
X103764760Y-96560061D01*
X103764763Y-96560062D01*
X103872017Y-96581883D01*
X103978597Y-96603567D01*
X103983772Y-96603757D01*
X103983774Y-96603757D01*
X104196673Y-96611564D01*
X104196677Y-96611564D01*
X104201837Y-96611753D01*
X104206957Y-96611097D01*
X104206959Y-96611097D01*
X104418288Y-96584025D01*
X104418289Y-96584025D01*
X104423416Y-96583368D01*
X104428366Y-96581883D01*
X104632429Y-96520661D01*
X104632434Y-96520659D01*
X104637384Y-96519174D01*
X104837994Y-96420896D01*
X105019860Y-96291173D01*
X105128091Y-96183319D01*
X105190462Y-96149404D01*
X105261268Y-96154592D01*
X105318030Y-96197238D01*
X105335012Y-96228341D01*
X105379385Y-96346705D01*
X105466739Y-96463261D01*
X105583295Y-96550615D01*
X105719684Y-96601745D01*
X105781866Y-96608500D01*
X107578134Y-96608500D01*
X107640316Y-96601745D01*
X107776705Y-96550615D01*
X107893261Y-96463261D01*
X107980615Y-96346705D01*
X108024988Y-96228341D01*
X108027826Y-96220770D01*
X108070468Y-96164006D01*
X108137029Y-96139306D01*
X108145808Y-96139000D01*
X108585500Y-96139000D01*
X108653621Y-96159002D01*
X108700114Y-96212658D01*
X108711500Y-96265000D01*
X108711500Y-100965500D01*
X108691498Y-101033621D01*
X108637842Y-101080114D01*
X108585500Y-101091500D01*
X102234500Y-101091500D01*
X102166379Y-101071498D01*
X102119886Y-101017842D01*
X102108500Y-100965500D01*
X102108500Y-99958134D01*
X102776500Y-99958134D01*
X102783255Y-100020316D01*
X102834385Y-100156705D01*
X102921739Y-100273261D01*
X103038295Y-100360615D01*
X103174684Y-100411745D01*
X103236866Y-100418500D01*
X105033134Y-100418500D01*
X105095316Y-100411745D01*
X105231705Y-100360615D01*
X105348261Y-100273261D01*
X105435615Y-100156705D01*
X105479798Y-100038848D01*
X105522440Y-99982084D01*
X105589001Y-99957384D01*
X105658350Y-99972592D01*
X105693017Y-100000580D01*
X105718218Y-100029673D01*
X105725580Y-100036883D01*
X105889434Y-100172916D01*
X105897881Y-100178831D01*
X106081756Y-100286279D01*
X106091042Y-100290729D01*
X106290001Y-100366703D01*
X106299899Y-100369579D01*
X106403250Y-100390606D01*
X106417299Y-100389410D01*
X106421000Y-100379065D01*
X106421000Y-100378517D01*
X106929000Y-100378517D01*
X106933064Y-100392359D01*
X106946478Y-100394393D01*
X106953184Y-100393534D01*
X106963262Y-100391392D01*
X107167255Y-100330191D01*
X107176842Y-100326433D01*
X107368095Y-100232739D01*
X107376945Y-100227464D01*
X107550328Y-100103792D01*
X107558200Y-100097139D01*
X107709052Y-99946812D01*
X107715730Y-99938965D01*
X107840003Y-99766020D01*
X107845313Y-99757183D01*
X107939670Y-99566267D01*
X107943469Y-99556672D01*
X108005377Y-99352910D01*
X108007555Y-99342837D01*
X108008986Y-99331962D01*
X108006775Y-99317778D01*
X107993617Y-99314000D01*
X106947115Y-99314000D01*
X106931876Y-99318475D01*
X106930671Y-99319865D01*
X106929000Y-99327548D01*
X106929000Y-100378517D01*
X106421000Y-100378517D01*
X106421000Y-98787885D01*
X106929000Y-98787885D01*
X106933475Y-98803124D01*
X106934865Y-98804329D01*
X106942548Y-98806000D01*
X107993344Y-98806000D01*
X108006875Y-98802027D01*
X108008180Y-98792947D01*
X107966214Y-98625875D01*
X107962894Y-98616124D01*
X107877972Y-98420814D01*
X107873105Y-98411739D01*
X107757426Y-98232926D01*
X107751136Y-98224757D01*
X107607806Y-98067240D01*
X107600273Y-98060215D01*
X107433139Y-97928222D01*
X107424552Y-97922517D01*
X107238117Y-97819599D01*
X107228705Y-97815369D01*
X107027959Y-97744280D01*
X107017988Y-97741646D01*
X106946837Y-97728972D01*
X106933540Y-97730432D01*
X106929000Y-97744989D01*
X106929000Y-98787885D01*
X106421000Y-98787885D01*
X106421000Y-97743102D01*
X106417082Y-97729758D01*
X106402806Y-97727771D01*
X106364324Y-97733660D01*
X106354288Y-97736051D01*
X106151868Y-97802212D01*
X106142359Y-97806209D01*
X105953463Y-97904542D01*
X105944738Y-97910036D01*
X105774433Y-98037905D01*
X105766726Y-98044748D01*
X105689478Y-98125584D01*
X105627954Y-98161014D01*
X105557042Y-98157557D01*
X105499255Y-98116311D01*
X105480402Y-98082763D01*
X105438767Y-97971703D01*
X105435615Y-97963295D01*
X105348261Y-97846739D01*
X105231705Y-97759385D01*
X105095316Y-97708255D01*
X105033134Y-97701500D01*
X103236866Y-97701500D01*
X103174684Y-97708255D01*
X103038295Y-97759385D01*
X102921739Y-97846739D01*
X102834385Y-97963295D01*
X102783255Y-98099684D01*
X102776500Y-98161866D01*
X102776500Y-99958134D01*
X102108500Y-99958134D01*
X102108500Y-90170000D01*
X103652622Y-90170000D01*
X103611756Y-90183357D01*
G37*
%TD.AperFunction*%
%TA.AperFunction,Conductor*%
G36*
X105466739Y-90226739D02*
G01*
X105379385Y-90343295D01*
X105376233Y-90351703D01*
X105334919Y-90461907D01*
X105292277Y-90518671D01*
X105225716Y-90543371D01*
X105156367Y-90528163D01*
X105123743Y-90502476D01*
X105073151Y-90446875D01*
X105073142Y-90446866D01*
X105069670Y-90443051D01*
X105065619Y-90439852D01*
X105065615Y-90439848D01*
X104898414Y-90307800D01*
X104898410Y-90307798D01*
X104894359Y-90304598D01*
X104698789Y-90196638D01*
X104693920Y-90194914D01*
X104693916Y-90194912D01*
X104623566Y-90170000D01*
X105542446Y-90170000D01*
X105466739Y-90226739D01*
G37*
%TD.AperFunction*%
%TD*%
%TA.AperFunction,Conductor*%
%TO.N,+1V8*%
G36*
X109670968Y-80411002D02*
G01*
X109717461Y-80464658D01*
X109728157Y-80503828D01*
X109744458Y-80658928D01*
X109803473Y-80840556D01*
X109898960Y-81005944D01*
X109903378Y-81010851D01*
X109903379Y-81010852D01*
X109949636Y-81062225D01*
X109980353Y-81126233D01*
X109982000Y-81146536D01*
X109982000Y-82805000D01*
X109961998Y-82873121D01*
X109908342Y-82919614D01*
X109856000Y-82931000D01*
X107822000Y-82931000D01*
X107753879Y-82910998D01*
X107707386Y-82857342D01*
X107696000Y-82805000D01*
X107696000Y-80517000D01*
X107716002Y-80448879D01*
X107769658Y-80402386D01*
X107822000Y-80391000D01*
X109602847Y-80391000D01*
X109670968Y-80411002D01*
G37*
%TD.AperFunction*%
%TD*%
%TA.AperFunction,Conductor*%
%TO.N,GND*%
G36*
X107188000Y-83439000D02*
G01*
X108003528Y-83439000D01*
X108029725Y-83441753D01*
X108102056Y-83457128D01*
X108102061Y-83457128D01*
X108108513Y-83458500D01*
X108299487Y-83458500D01*
X108305939Y-83457128D01*
X108305944Y-83457128D01*
X108378275Y-83441753D01*
X108404472Y-83439000D01*
X108459000Y-83439000D01*
X108527121Y-83459002D01*
X108573614Y-83512658D01*
X108585000Y-83565000D01*
X108585000Y-86692017D01*
X108564998Y-86760138D01*
X108511342Y-86806631D01*
X108497939Y-86811849D01*
X108483954Y-86816393D01*
X108483947Y-86816396D01*
X108477669Y-86818436D01*
X108471947Y-86821739D01*
X108471946Y-86821740D01*
X108443061Y-86838416D01*
X108431314Y-86844402D01*
X108394817Y-86860652D01*
X108377428Y-86873286D01*
X108362497Y-86884134D01*
X108351438Y-86891316D01*
X108316831Y-86911296D01*
X108311924Y-86915714D01*
X108311923Y-86915715D01*
X108287141Y-86938029D01*
X108276892Y-86946329D01*
X108249910Y-86965932D01*
X108249908Y-86965934D01*
X108244566Y-86969815D01*
X108244105Y-86969180D01*
X108184804Y-86997639D01*
X108114350Y-86988876D01*
X108059819Y-86943413D01*
X108038500Y-86873286D01*
X108038500Y-86731866D01*
X108031745Y-86669684D01*
X107980615Y-86533295D01*
X107893261Y-86416739D01*
X107776705Y-86329385D01*
X107640316Y-86278255D01*
X107578134Y-86271500D01*
X105781866Y-86271500D01*
X105719684Y-86278255D01*
X105583295Y-86329385D01*
X105466739Y-86416739D01*
X105379385Y-86533295D01*
X105376233Y-86541703D01*
X105334919Y-86651907D01*
X105292277Y-86708671D01*
X105225716Y-86733371D01*
X105156367Y-86718163D01*
X105123743Y-86692476D01*
X105073151Y-86636875D01*
X105073142Y-86636866D01*
X105069670Y-86633051D01*
X105065619Y-86629852D01*
X105065615Y-86629848D01*
X104898414Y-86497800D01*
X104898410Y-86497798D01*
X104894359Y-86494598D01*
X104698789Y-86386638D01*
X104693920Y-86384914D01*
X104693916Y-86384912D01*
X104493087Y-86313795D01*
X104493083Y-86313794D01*
X104488212Y-86312069D01*
X104483119Y-86311162D01*
X104483116Y-86311161D01*
X104273373Y-86273800D01*
X104273367Y-86273799D01*
X104268284Y-86272894D01*
X104194452Y-86271992D01*
X104050081Y-86270228D01*
X104050079Y-86270228D01*
X104044911Y-86270165D01*
X103824091Y-86303955D01*
X103611756Y-86373357D01*
X103413607Y-86476507D01*
X103409474Y-86479610D01*
X103409471Y-86479612D01*
X103239100Y-86607530D01*
X103234965Y-86610635D01*
X103195525Y-86651907D01*
X103141280Y-86708671D01*
X103080629Y-86772138D01*
X103077715Y-86776410D01*
X103077714Y-86776411D01*
X103001583Y-86888015D01*
X102954743Y-86956680D01*
X102860688Y-87159305D01*
X102800989Y-87374570D01*
X102777251Y-87596695D01*
X102790110Y-87819715D01*
X102791247Y-87824761D01*
X102791248Y-87824767D01*
X102809222Y-87904521D01*
X102839222Y-88037639D01*
X102923266Y-88244616D01*
X103039987Y-88435088D01*
X103186250Y-88603938D01*
X103358126Y-88746632D01*
X103551000Y-88859338D01*
X103759692Y-88939030D01*
X103764760Y-88940061D01*
X103764763Y-88940062D01*
X103872017Y-88961883D01*
X103978597Y-88983567D01*
X103983772Y-88983757D01*
X103983774Y-88983757D01*
X104196673Y-88991564D01*
X104196677Y-88991564D01*
X104201837Y-88991753D01*
X104206957Y-88991097D01*
X104206959Y-88991097D01*
X104418288Y-88964025D01*
X104418289Y-88964025D01*
X104423416Y-88963368D01*
X104491449Y-88942957D01*
X104632429Y-88900661D01*
X104632434Y-88900659D01*
X104637384Y-88899174D01*
X104837994Y-88800896D01*
X105019860Y-88671173D01*
X105128091Y-88563319D01*
X105190462Y-88529404D01*
X105261268Y-88534592D01*
X105318030Y-88577238D01*
X105335012Y-88608341D01*
X105379385Y-88726705D01*
X105466739Y-88843261D01*
X105583295Y-88930615D01*
X105719684Y-88981745D01*
X105781866Y-88988500D01*
X107578134Y-88988500D01*
X107640316Y-88981745D01*
X107776705Y-88930615D01*
X107777081Y-88931618D01*
X107838351Y-88918219D01*
X107904899Y-88942957D01*
X107947507Y-88999747D01*
X107955500Y-89043908D01*
X107955500Y-89477310D01*
X107935498Y-89545431D01*
X107918595Y-89566405D01*
X107440405Y-90044595D01*
X107378093Y-90078621D01*
X107351310Y-90081500D01*
X105781866Y-90081500D01*
X105719684Y-90088255D01*
X105583295Y-90139385D01*
X105542446Y-90170000D01*
X104623566Y-90170000D01*
X104493087Y-90123795D01*
X104493083Y-90123794D01*
X104488212Y-90122069D01*
X104483119Y-90121162D01*
X104483116Y-90121161D01*
X104273373Y-90083800D01*
X104273367Y-90083799D01*
X104268284Y-90082894D01*
X104194452Y-90081992D01*
X104050081Y-90080228D01*
X104050079Y-90080228D01*
X104044911Y-90080165D01*
X103824091Y-90113955D01*
X103652622Y-90170000D01*
X102108500Y-90170000D01*
X102108500Y-86251500D01*
X102128502Y-86183379D01*
X102182158Y-86136886D01*
X102234500Y-86125500D01*
X102330487Y-86125500D01*
X102336939Y-86124128D01*
X102336944Y-86124128D01*
X102423887Y-86105647D01*
X102517288Y-86085794D01*
X102523319Y-86083109D01*
X102685722Y-86010803D01*
X102685724Y-86010802D01*
X102691752Y-86008118D01*
X102846253Y-85895866D01*
X102850675Y-85890954D01*
X102855577Y-85886541D01*
X102857090Y-85888222D01*
X102908649Y-85856452D01*
X102941848Y-85852000D01*
X102997000Y-85852000D01*
X102997000Y-85747937D01*
X103013881Y-85684937D01*
X103066223Y-85594279D01*
X103066224Y-85594278D01*
X103069527Y-85588556D01*
X103128542Y-85406928D01*
X103148504Y-85217000D01*
X103128542Y-85027072D01*
X103124667Y-85015146D01*
X103118500Y-84976210D01*
X103118500Y-84568790D01*
X103124667Y-84529854D01*
X103126502Y-84524206D01*
X103128542Y-84517928D01*
X103148504Y-84328000D01*
X103128542Y-84138072D01*
X103124667Y-84126146D01*
X103118500Y-84087210D01*
X103118500Y-78924690D01*
X103138502Y-78856569D01*
X103155405Y-78835595D01*
X104362595Y-77628405D01*
X104424907Y-77594379D01*
X104451690Y-77591500D01*
X107188000Y-77591500D01*
X107188000Y-83439000D01*
G37*
%TD.AperFunction*%
%TD*%
%TA.AperFunction,Conductor*%
%TO.N,GND*%
G36*
X151833621Y-83586002D02*
G01*
X151880114Y-83639658D01*
X151891500Y-83692000D01*
X151891500Y-100965500D01*
X151871498Y-101033621D01*
X151817842Y-101080114D01*
X151765500Y-101091500D01*
X145414500Y-101091500D01*
X145346379Y-101071498D01*
X145299886Y-101017842D01*
X145288500Y-100965500D01*
X145288500Y-99958134D01*
X145956500Y-99958134D01*
X145963255Y-100020316D01*
X146014385Y-100156705D01*
X146101739Y-100273261D01*
X146218295Y-100360615D01*
X146354684Y-100411745D01*
X146416866Y-100418500D01*
X148213134Y-100418500D01*
X148275316Y-100411745D01*
X148411705Y-100360615D01*
X148528261Y-100273261D01*
X148615615Y-100156705D01*
X148659798Y-100038848D01*
X148702440Y-99982084D01*
X148769001Y-99957384D01*
X148838350Y-99972592D01*
X148873017Y-100000580D01*
X148898218Y-100029673D01*
X148905580Y-100036883D01*
X149069434Y-100172916D01*
X149077881Y-100178831D01*
X149261756Y-100286279D01*
X149271042Y-100290729D01*
X149470001Y-100366703D01*
X149479899Y-100369579D01*
X149583250Y-100390606D01*
X149597299Y-100389410D01*
X149601000Y-100379065D01*
X149601000Y-100378517D01*
X150109000Y-100378517D01*
X150113064Y-100392359D01*
X150126478Y-100394393D01*
X150133184Y-100393534D01*
X150143262Y-100391392D01*
X150347255Y-100330191D01*
X150356842Y-100326433D01*
X150548095Y-100232739D01*
X150556945Y-100227464D01*
X150730328Y-100103792D01*
X150738200Y-100097139D01*
X150889052Y-99946812D01*
X150895730Y-99938965D01*
X151020003Y-99766020D01*
X151025313Y-99757183D01*
X151119670Y-99566267D01*
X151123469Y-99556672D01*
X151185377Y-99352910D01*
X151187555Y-99342837D01*
X151188986Y-99331962D01*
X151186775Y-99317778D01*
X151173617Y-99314000D01*
X150127115Y-99314000D01*
X150111876Y-99318475D01*
X150110671Y-99319865D01*
X150109000Y-99327548D01*
X150109000Y-100378517D01*
X149601000Y-100378517D01*
X149601000Y-98787885D01*
X150109000Y-98787885D01*
X150113475Y-98803124D01*
X150114865Y-98804329D01*
X150122548Y-98806000D01*
X151173344Y-98806000D01*
X151186875Y-98802027D01*
X151188180Y-98792947D01*
X151146214Y-98625875D01*
X151142894Y-98616124D01*
X151057972Y-98420814D01*
X151053105Y-98411739D01*
X150937426Y-98232926D01*
X150931136Y-98224757D01*
X150787806Y-98067240D01*
X150780273Y-98060215D01*
X150613139Y-97928222D01*
X150604552Y-97922517D01*
X150418117Y-97819599D01*
X150408705Y-97815369D01*
X150207959Y-97744280D01*
X150197988Y-97741646D01*
X150126837Y-97728972D01*
X150113540Y-97730432D01*
X150109000Y-97744989D01*
X150109000Y-98787885D01*
X149601000Y-98787885D01*
X149601000Y-97743102D01*
X149597082Y-97729758D01*
X149582806Y-97727771D01*
X149544324Y-97733660D01*
X149534288Y-97736051D01*
X149331868Y-97802212D01*
X149322359Y-97806209D01*
X149133463Y-97904542D01*
X149124738Y-97910036D01*
X148954433Y-98037905D01*
X148946726Y-98044748D01*
X148869478Y-98125584D01*
X148807954Y-98161014D01*
X148737042Y-98157557D01*
X148679255Y-98116311D01*
X148660402Y-98082763D01*
X148618767Y-97971703D01*
X148615615Y-97963295D01*
X148528261Y-97846739D01*
X148411705Y-97759385D01*
X148275316Y-97708255D01*
X148213134Y-97701500D01*
X146416866Y-97701500D01*
X146354684Y-97708255D01*
X146218295Y-97759385D01*
X146101739Y-97846739D01*
X146014385Y-97963295D01*
X145963255Y-98099684D01*
X145956500Y-98161866D01*
X145956500Y-99958134D01*
X145288500Y-99958134D01*
X145288500Y-95216695D01*
X145957251Y-95216695D01*
X145970110Y-95439715D01*
X145971247Y-95444761D01*
X145971248Y-95444767D01*
X145995304Y-95551508D01*
X146019222Y-95657639D01*
X146103266Y-95864616D01*
X146219987Y-96055088D01*
X146366250Y-96223938D01*
X146538126Y-96366632D01*
X146731000Y-96479338D01*
X146939692Y-96559030D01*
X146944760Y-96560061D01*
X146944763Y-96560062D01*
X147052017Y-96581883D01*
X147158597Y-96603567D01*
X147163772Y-96603757D01*
X147163774Y-96603757D01*
X147376673Y-96611564D01*
X147376677Y-96611564D01*
X147381837Y-96611753D01*
X147386957Y-96611097D01*
X147386959Y-96611097D01*
X147598288Y-96584025D01*
X147598289Y-96584025D01*
X147603416Y-96583368D01*
X147608366Y-96581883D01*
X147812429Y-96520661D01*
X147812434Y-96520659D01*
X147817384Y-96519174D01*
X148017994Y-96420896D01*
X148199860Y-96291173D01*
X148308091Y-96183319D01*
X148370462Y-96149404D01*
X148441268Y-96154592D01*
X148498030Y-96197238D01*
X148515012Y-96228341D01*
X148559385Y-96346705D01*
X148646739Y-96463261D01*
X148763295Y-96550615D01*
X148899684Y-96601745D01*
X148961866Y-96608500D01*
X150758134Y-96608500D01*
X150820316Y-96601745D01*
X150956705Y-96550615D01*
X151073261Y-96463261D01*
X151160615Y-96346705D01*
X151211745Y-96210316D01*
X151218500Y-96148134D01*
X151218500Y-94351866D01*
X151211745Y-94289684D01*
X151160615Y-94153295D01*
X151073261Y-94036739D01*
X150956705Y-93949385D01*
X150820316Y-93898255D01*
X150758134Y-93891500D01*
X148961866Y-93891500D01*
X148899684Y-93898255D01*
X148763295Y-93949385D01*
X148646739Y-94036739D01*
X148559385Y-94153295D01*
X148556233Y-94161703D01*
X148514919Y-94271907D01*
X148472277Y-94328671D01*
X148405716Y-94353371D01*
X148336367Y-94338163D01*
X148303743Y-94312476D01*
X148253151Y-94256875D01*
X148253142Y-94256866D01*
X148249670Y-94253051D01*
X148245619Y-94249852D01*
X148245615Y-94249848D01*
X148078414Y-94117800D01*
X148078410Y-94117798D01*
X148074359Y-94114598D01*
X147878789Y-94006638D01*
X147873920Y-94004914D01*
X147873916Y-94004912D01*
X147673087Y-93933795D01*
X147673083Y-93933794D01*
X147668212Y-93932069D01*
X147663119Y-93931162D01*
X147663116Y-93931161D01*
X147453373Y-93893800D01*
X147453367Y-93893799D01*
X147448284Y-93892894D01*
X147374452Y-93891992D01*
X147230081Y-93890228D01*
X147230079Y-93890228D01*
X147224911Y-93890165D01*
X147004091Y-93923955D01*
X146791756Y-93993357D01*
X146593607Y-94096507D01*
X146589474Y-94099610D01*
X146589471Y-94099612D01*
X146419100Y-94227530D01*
X146414965Y-94230635D01*
X146375525Y-94271907D01*
X146321280Y-94328671D01*
X146260629Y-94392138D01*
X146134743Y-94576680D01*
X146040688Y-94779305D01*
X145980989Y-94994570D01*
X145957251Y-95216695D01*
X145288500Y-95216695D01*
X145288500Y-91406695D01*
X145957251Y-91406695D01*
X145970110Y-91629715D01*
X145971247Y-91634761D01*
X145971248Y-91634767D01*
X145995304Y-91741508D01*
X146019222Y-91847639D01*
X146103266Y-92054616D01*
X146219987Y-92245088D01*
X146366250Y-92413938D01*
X146538126Y-92556632D01*
X146731000Y-92669338D01*
X146939692Y-92749030D01*
X146944760Y-92750061D01*
X146944763Y-92750062D01*
X147052017Y-92771883D01*
X147158597Y-92793567D01*
X147163772Y-92793757D01*
X147163774Y-92793757D01*
X147376673Y-92801564D01*
X147376677Y-92801564D01*
X147381837Y-92801753D01*
X147386957Y-92801097D01*
X147386959Y-92801097D01*
X147598288Y-92774025D01*
X147598289Y-92774025D01*
X147603416Y-92773368D01*
X147608366Y-92771883D01*
X147812429Y-92710661D01*
X147812434Y-92710659D01*
X147817384Y-92709174D01*
X148017994Y-92610896D01*
X148199860Y-92481173D01*
X148308091Y-92373319D01*
X148370462Y-92339404D01*
X148441268Y-92344592D01*
X148498030Y-92387238D01*
X148515012Y-92418341D01*
X148559385Y-92536705D01*
X148646739Y-92653261D01*
X148763295Y-92740615D01*
X148899684Y-92791745D01*
X148961866Y-92798500D01*
X150758134Y-92798500D01*
X150820316Y-92791745D01*
X150956705Y-92740615D01*
X151073261Y-92653261D01*
X151160615Y-92536705D01*
X151211745Y-92400316D01*
X151218500Y-92338134D01*
X151218500Y-90541866D01*
X151211745Y-90479684D01*
X151160615Y-90343295D01*
X151073261Y-90226739D01*
X150956705Y-90139385D01*
X150820316Y-90088255D01*
X150758134Y-90081500D01*
X148961866Y-90081500D01*
X148899684Y-90088255D01*
X148763295Y-90139385D01*
X148646739Y-90226739D01*
X148559385Y-90343295D01*
X148556233Y-90351703D01*
X148514919Y-90461907D01*
X148472277Y-90518671D01*
X148405716Y-90543371D01*
X148336367Y-90528163D01*
X148303743Y-90502476D01*
X148253151Y-90446875D01*
X148253142Y-90446866D01*
X148249670Y-90443051D01*
X148245619Y-90439852D01*
X148245615Y-90439848D01*
X148078414Y-90307800D01*
X148078410Y-90307798D01*
X148074359Y-90304598D01*
X147878789Y-90196638D01*
X147873920Y-90194914D01*
X147873916Y-90194912D01*
X147673087Y-90123795D01*
X147673083Y-90123794D01*
X147668212Y-90122069D01*
X147663119Y-90121162D01*
X147663116Y-90121161D01*
X147453373Y-90083800D01*
X147453367Y-90083799D01*
X147448284Y-90082894D01*
X147374452Y-90081992D01*
X147230081Y-90080228D01*
X147230079Y-90080228D01*
X147224911Y-90080165D01*
X147004091Y-90113955D01*
X146791756Y-90183357D01*
X146593607Y-90286507D01*
X146589474Y-90289610D01*
X146589471Y-90289612D01*
X146419100Y-90417530D01*
X146414965Y-90420635D01*
X146375525Y-90461907D01*
X146321280Y-90518671D01*
X146260629Y-90582138D01*
X146134743Y-90766680D01*
X146040688Y-90969305D01*
X145980989Y-91184570D01*
X145957251Y-91406695D01*
X145288500Y-91406695D01*
X145288500Y-88146623D01*
X145288502Y-88145853D01*
X145288921Y-88077254D01*
X145288976Y-88068279D01*
X145280850Y-88039847D01*
X145277272Y-88023085D01*
X145274352Y-88002698D01*
X145273080Y-87993813D01*
X145262451Y-87970436D01*
X145256004Y-87952913D01*
X145251416Y-87936862D01*
X145248949Y-87928229D01*
X145244156Y-87920632D01*
X145233170Y-87903220D01*
X145225030Y-87888135D01*
X145212792Y-87861218D01*
X145196030Y-87841765D01*
X145184927Y-87826761D01*
X145171224Y-87805042D01*
X145164499Y-87799103D01*
X145164496Y-87799099D01*
X145149062Y-87785468D01*
X145137018Y-87773276D01*
X145123573Y-87757673D01*
X145123570Y-87757671D01*
X145117713Y-87750873D01*
X145096165Y-87736906D01*
X145081291Y-87725615D01*
X145068783Y-87714569D01*
X145068782Y-87714568D01*
X145062049Y-87708622D01*
X145035287Y-87696057D01*
X145020309Y-87687737D01*
X145003017Y-87676529D01*
X145003012Y-87676527D01*
X144995485Y-87671648D01*
X144986892Y-87669078D01*
X144986887Y-87669076D01*
X144970880Y-87664289D01*
X144953436Y-87657628D01*
X144938324Y-87650533D01*
X144938322Y-87650532D01*
X144930200Y-87646719D01*
X144921333Y-87645338D01*
X144921332Y-87645338D01*
X144911690Y-87643837D01*
X144900983Y-87642170D01*
X144884268Y-87638387D01*
X144864534Y-87632485D01*
X144864528Y-87632484D01*
X144855934Y-87629914D01*
X144846963Y-87629859D01*
X144846962Y-87629859D01*
X144836903Y-87629798D01*
X144821494Y-87629704D01*
X144820711Y-87629671D01*
X144819614Y-87629500D01*
X144788623Y-87629500D01*
X144787853Y-87629498D01*
X144714215Y-87629048D01*
X144714214Y-87629048D01*
X144710279Y-87629024D01*
X144708935Y-87629408D01*
X144707590Y-87629500D01*
X144028902Y-87629500D01*
X143960781Y-87609498D01*
X143949687Y-87596695D01*
X145957251Y-87596695D01*
X145957548Y-87601848D01*
X145957548Y-87601851D01*
X145968135Y-87785468D01*
X145970110Y-87819715D01*
X145971247Y-87824761D01*
X145971248Y-87824767D01*
X145973481Y-87834674D01*
X146019222Y-88037639D01*
X146103266Y-88244616D01*
X146219987Y-88435088D01*
X146366250Y-88603938D01*
X146538126Y-88746632D01*
X146731000Y-88859338D01*
X146939692Y-88939030D01*
X146944760Y-88940061D01*
X146944763Y-88940062D01*
X147052017Y-88961883D01*
X147158597Y-88983567D01*
X147163772Y-88983757D01*
X147163774Y-88983757D01*
X147376673Y-88991564D01*
X147376677Y-88991564D01*
X147381837Y-88991753D01*
X147386957Y-88991097D01*
X147386959Y-88991097D01*
X147598288Y-88964025D01*
X147598289Y-88964025D01*
X147603416Y-88963368D01*
X147608366Y-88961883D01*
X147812429Y-88900661D01*
X147812434Y-88900659D01*
X147817384Y-88899174D01*
X148017994Y-88800896D01*
X148199860Y-88671173D01*
X148308091Y-88563319D01*
X148370462Y-88529404D01*
X148441268Y-88534592D01*
X148498030Y-88577238D01*
X148515012Y-88608341D01*
X148559385Y-88726705D01*
X148646739Y-88843261D01*
X148763295Y-88930615D01*
X148899684Y-88981745D01*
X148961866Y-88988500D01*
X150758134Y-88988500D01*
X150820316Y-88981745D01*
X150956705Y-88930615D01*
X151073261Y-88843261D01*
X151160615Y-88726705D01*
X151211745Y-88590316D01*
X151218500Y-88528134D01*
X151218500Y-86731866D01*
X151211745Y-86669684D01*
X151160615Y-86533295D01*
X151073261Y-86416739D01*
X150956705Y-86329385D01*
X150820316Y-86278255D01*
X150758134Y-86271500D01*
X148961866Y-86271500D01*
X148899684Y-86278255D01*
X148763295Y-86329385D01*
X148646739Y-86416739D01*
X148559385Y-86533295D01*
X148556233Y-86541703D01*
X148514919Y-86651907D01*
X148472277Y-86708671D01*
X148405716Y-86733371D01*
X148336367Y-86718163D01*
X148303743Y-86692476D01*
X148253151Y-86636875D01*
X148253142Y-86636866D01*
X148249670Y-86633051D01*
X148245619Y-86629852D01*
X148245615Y-86629848D01*
X148078414Y-86497800D01*
X148078410Y-86497798D01*
X148074359Y-86494598D01*
X147878789Y-86386638D01*
X147873920Y-86384914D01*
X147873916Y-86384912D01*
X147673087Y-86313795D01*
X147673083Y-86313794D01*
X147668212Y-86312069D01*
X147663119Y-86311162D01*
X147663116Y-86311161D01*
X147453373Y-86273800D01*
X147453367Y-86273799D01*
X147448284Y-86272894D01*
X147374452Y-86271992D01*
X147230081Y-86270228D01*
X147230079Y-86270228D01*
X147224911Y-86270165D01*
X147004091Y-86303955D01*
X146791756Y-86373357D01*
X146593607Y-86476507D01*
X146589474Y-86479610D01*
X146589471Y-86479612D01*
X146419100Y-86607530D01*
X146414965Y-86610635D01*
X146375525Y-86651907D01*
X146321280Y-86708671D01*
X146260629Y-86772138D01*
X146134743Y-86956680D01*
X146040688Y-87159305D01*
X145980989Y-87374570D01*
X145957251Y-87596695D01*
X143949687Y-87596695D01*
X143914288Y-87555842D01*
X143903592Y-87516669D01*
X143896232Y-87446636D01*
X143896232Y-87446635D01*
X143895542Y-87440072D01*
X143836527Y-87258444D01*
X143741040Y-87093056D01*
X143613253Y-86951134D01*
X143458752Y-86838882D01*
X143452724Y-86836198D01*
X143452722Y-86836197D01*
X143383000Y-86805155D01*
X143383000Y-83566000D01*
X151765500Y-83566000D01*
X151833621Y-83586002D01*
G37*
%TD.AperFunction*%
%TD*%
%TA.AperFunction,Conductor*%
%TO.N,GND*%
G36*
X144683972Y-77611502D02*
G01*
X144704946Y-77628404D01*
X145002595Y-77926052D01*
X145036620Y-77988365D01*
X145039500Y-78015148D01*
X145039500Y-78868000D01*
X145019498Y-78936121D01*
X144965842Y-78982614D01*
X144913500Y-78994000D01*
X143383000Y-78994000D01*
X143383000Y-86626590D01*
X143362998Y-86694711D01*
X143309342Y-86741204D01*
X143239068Y-86751308D01*
X143230803Y-86749837D01*
X143103944Y-86722872D01*
X143103939Y-86722872D01*
X143097487Y-86721500D01*
X142906513Y-86721500D01*
X142900061Y-86722872D01*
X142900056Y-86722872D01*
X142801850Y-86743747D01*
X142775653Y-86746500D01*
X142085347Y-86746500D01*
X142059150Y-86743747D01*
X141960944Y-86722872D01*
X141960939Y-86722872D01*
X141954487Y-86721500D01*
X141763513Y-86721500D01*
X141757061Y-86722872D01*
X141757056Y-86722872D01*
X141658850Y-86743747D01*
X141632653Y-86746500D01*
X110616000Y-86746500D01*
X110547879Y-86726498D01*
X110501386Y-86672842D01*
X110490000Y-86620500D01*
X110490000Y-77591500D01*
X144615851Y-77591500D01*
X144683972Y-77611502D01*
G37*
%TD.AperFunction*%
%TD*%
M02*
