%TF.GenerationSoftware,KiCad,Pcbnew,(7.0.0-0)*%
%TF.CreationDate,2023-04-23T17:53:29-06:00*%
%TF.ProjectId,Breadboard Power Supply,42726561-6462-46f6-9172-6420506f7765,v5*%
%TF.SameCoordinates,Original*%
%TF.FileFunction,Legend,Top*%
%TF.FilePolarity,Positive*%
%FSLAX46Y46*%
G04 Gerber Fmt 4.6, Leading zero omitted, Abs format (unit mm)*
G04 Created by KiCad (PCBNEW (7.0.0-0)) date 2023-04-23 17:53:29*
%MOMM*%
%LPD*%
G01*
G04 APERTURE LIST*
%ADD10C,0.150000*%
%ADD11C,0.200000*%
%ADD12C,0.120000*%
%ADD13C,0.127000*%
G04 APERTURE END LIST*
D10*
X152325380Y-89868238D02*
X152325380Y-90344428D01*
X152325380Y-90344428D02*
X152801571Y-90392047D01*
X152801571Y-90392047D02*
X152753952Y-90344428D01*
X152753952Y-90344428D02*
X152706333Y-90249190D01*
X152706333Y-90249190D02*
X152706333Y-90011095D01*
X152706333Y-90011095D02*
X152753952Y-89915857D01*
X152753952Y-89915857D02*
X152801571Y-89868238D01*
X152801571Y-89868238D02*
X152896809Y-89820619D01*
X152896809Y-89820619D02*
X153134904Y-89820619D01*
X153134904Y-89820619D02*
X153230142Y-89868238D01*
X153230142Y-89868238D02*
X153277761Y-89915857D01*
X153277761Y-89915857D02*
X153325380Y-90011095D01*
X153325380Y-90011095D02*
X153325380Y-90249190D01*
X153325380Y-90249190D02*
X153277761Y-90344428D01*
X153277761Y-90344428D02*
X153230142Y-90392047D01*
X152325380Y-89534904D02*
X153325380Y-89201571D01*
X153325380Y-89201571D02*
X152325380Y-88868238D01*
X105843380Y-91868237D02*
X105843380Y-91249190D01*
X105843380Y-91249190D02*
X106224333Y-91582523D01*
X106224333Y-91582523D02*
X106224333Y-91439666D01*
X106224333Y-91439666D02*
X106271952Y-91344428D01*
X106271952Y-91344428D02*
X106319571Y-91296809D01*
X106319571Y-91296809D02*
X106414809Y-91249190D01*
X106414809Y-91249190D02*
X106652904Y-91249190D01*
X106652904Y-91249190D02*
X106748142Y-91296809D01*
X106748142Y-91296809D02*
X106795761Y-91344428D01*
X106795761Y-91344428D02*
X106843380Y-91439666D01*
X106843380Y-91439666D02*
X106843380Y-91725380D01*
X106843380Y-91725380D02*
X106795761Y-91820618D01*
X106795761Y-91820618D02*
X106748142Y-91868237D01*
X106748142Y-90820618D02*
X106795761Y-90772999D01*
X106795761Y-90772999D02*
X106843380Y-90820618D01*
X106843380Y-90820618D02*
X106795761Y-90868237D01*
X106795761Y-90868237D02*
X106748142Y-90820618D01*
X106748142Y-90820618D02*
X106843380Y-90820618D01*
X105843380Y-90439666D02*
X105843380Y-89820619D01*
X105843380Y-89820619D02*
X106224333Y-90153952D01*
X106224333Y-90153952D02*
X106224333Y-90011095D01*
X106224333Y-90011095D02*
X106271952Y-89915857D01*
X106271952Y-89915857D02*
X106319571Y-89868238D01*
X106319571Y-89868238D02*
X106414809Y-89820619D01*
X106414809Y-89820619D02*
X106652904Y-89820619D01*
X106652904Y-89820619D02*
X106748142Y-89868238D01*
X106748142Y-89868238D02*
X106795761Y-89915857D01*
X106795761Y-89915857D02*
X106843380Y-90011095D01*
X106843380Y-90011095D02*
X106843380Y-90296809D01*
X106843380Y-90296809D02*
X106795761Y-90392047D01*
X106795761Y-90392047D02*
X106748142Y-90439666D01*
X105843380Y-89534904D02*
X106843380Y-89201571D01*
X106843380Y-89201571D02*
X105843380Y-88868238D01*
X104303380Y-91249190D02*
X104303380Y-91820618D01*
X104303380Y-91534904D02*
X103303380Y-91534904D01*
X103303380Y-91534904D02*
X103446238Y-91630142D01*
X103446238Y-91630142D02*
X103541476Y-91725380D01*
X103541476Y-91725380D02*
X103589095Y-91820618D01*
X104208142Y-90820618D02*
X104255761Y-90772999D01*
X104255761Y-90772999D02*
X104303380Y-90820618D01*
X104303380Y-90820618D02*
X104255761Y-90868237D01*
X104255761Y-90868237D02*
X104208142Y-90820618D01*
X104208142Y-90820618D02*
X104303380Y-90820618D01*
X103731952Y-90201571D02*
X103684333Y-90296809D01*
X103684333Y-90296809D02*
X103636714Y-90344428D01*
X103636714Y-90344428D02*
X103541476Y-90392047D01*
X103541476Y-90392047D02*
X103493857Y-90392047D01*
X103493857Y-90392047D02*
X103398619Y-90344428D01*
X103398619Y-90344428D02*
X103351000Y-90296809D01*
X103351000Y-90296809D02*
X103303380Y-90201571D01*
X103303380Y-90201571D02*
X103303380Y-90011095D01*
X103303380Y-90011095D02*
X103351000Y-89915857D01*
X103351000Y-89915857D02*
X103398619Y-89868238D01*
X103398619Y-89868238D02*
X103493857Y-89820619D01*
X103493857Y-89820619D02*
X103541476Y-89820619D01*
X103541476Y-89820619D02*
X103636714Y-89868238D01*
X103636714Y-89868238D02*
X103684333Y-89915857D01*
X103684333Y-89915857D02*
X103731952Y-90011095D01*
X103731952Y-90011095D02*
X103731952Y-90201571D01*
X103731952Y-90201571D02*
X103779571Y-90296809D01*
X103779571Y-90296809D02*
X103827190Y-90344428D01*
X103827190Y-90344428D02*
X103922428Y-90392047D01*
X103922428Y-90392047D02*
X104112904Y-90392047D01*
X104112904Y-90392047D02*
X104208142Y-90344428D01*
X104208142Y-90344428D02*
X104255761Y-90296809D01*
X104255761Y-90296809D02*
X104303380Y-90201571D01*
X104303380Y-90201571D02*
X104303380Y-90011095D01*
X104303380Y-90011095D02*
X104255761Y-89915857D01*
X104255761Y-89915857D02*
X104208142Y-89868238D01*
X104208142Y-89868238D02*
X104112904Y-89820619D01*
X104112904Y-89820619D02*
X103922428Y-89820619D01*
X103922428Y-89820619D02*
X103827190Y-89868238D01*
X103827190Y-89868238D02*
X103779571Y-89915857D01*
X103779571Y-89915857D02*
X103731952Y-90011095D01*
X103303380Y-89534904D02*
X104303380Y-89201571D01*
X104303380Y-89201571D02*
X103303380Y-88868238D01*
X149785380Y-91868237D02*
X149785380Y-91249190D01*
X149785380Y-91249190D02*
X150166333Y-91582523D01*
X150166333Y-91582523D02*
X150166333Y-91439666D01*
X150166333Y-91439666D02*
X150213952Y-91344428D01*
X150213952Y-91344428D02*
X150261571Y-91296809D01*
X150261571Y-91296809D02*
X150356809Y-91249190D01*
X150356809Y-91249190D02*
X150594904Y-91249190D01*
X150594904Y-91249190D02*
X150690142Y-91296809D01*
X150690142Y-91296809D02*
X150737761Y-91344428D01*
X150737761Y-91344428D02*
X150785380Y-91439666D01*
X150785380Y-91439666D02*
X150785380Y-91725380D01*
X150785380Y-91725380D02*
X150737761Y-91820618D01*
X150737761Y-91820618D02*
X150690142Y-91868237D01*
X150690142Y-90820618D02*
X150737761Y-90772999D01*
X150737761Y-90772999D02*
X150785380Y-90820618D01*
X150785380Y-90820618D02*
X150737761Y-90868237D01*
X150737761Y-90868237D02*
X150690142Y-90820618D01*
X150690142Y-90820618D02*
X150785380Y-90820618D01*
X149785380Y-90439666D02*
X149785380Y-89820619D01*
X149785380Y-89820619D02*
X150166333Y-90153952D01*
X150166333Y-90153952D02*
X150166333Y-90011095D01*
X150166333Y-90011095D02*
X150213952Y-89915857D01*
X150213952Y-89915857D02*
X150261571Y-89868238D01*
X150261571Y-89868238D02*
X150356809Y-89820619D01*
X150356809Y-89820619D02*
X150594904Y-89820619D01*
X150594904Y-89820619D02*
X150690142Y-89868238D01*
X150690142Y-89868238D02*
X150737761Y-89915857D01*
X150737761Y-89915857D02*
X150785380Y-90011095D01*
X150785380Y-90011095D02*
X150785380Y-90296809D01*
X150785380Y-90296809D02*
X150737761Y-90392047D01*
X150737761Y-90392047D02*
X150690142Y-90439666D01*
X149785380Y-89534904D02*
X150785380Y-89201571D01*
X150785380Y-89201571D02*
X149785380Y-88868238D01*
X148245380Y-91249190D02*
X148245380Y-91820618D01*
X148245380Y-91534904D02*
X147245380Y-91534904D01*
X147245380Y-91534904D02*
X147388238Y-91630142D01*
X147388238Y-91630142D02*
X147483476Y-91725380D01*
X147483476Y-91725380D02*
X147531095Y-91820618D01*
X148150142Y-90820618D02*
X148197761Y-90772999D01*
X148197761Y-90772999D02*
X148245380Y-90820618D01*
X148245380Y-90820618D02*
X148197761Y-90868237D01*
X148197761Y-90868237D02*
X148150142Y-90820618D01*
X148150142Y-90820618D02*
X148245380Y-90820618D01*
X147673952Y-90201571D02*
X147626333Y-90296809D01*
X147626333Y-90296809D02*
X147578714Y-90344428D01*
X147578714Y-90344428D02*
X147483476Y-90392047D01*
X147483476Y-90392047D02*
X147435857Y-90392047D01*
X147435857Y-90392047D02*
X147340619Y-90344428D01*
X147340619Y-90344428D02*
X147293000Y-90296809D01*
X147293000Y-90296809D02*
X147245380Y-90201571D01*
X147245380Y-90201571D02*
X147245380Y-90011095D01*
X147245380Y-90011095D02*
X147293000Y-89915857D01*
X147293000Y-89915857D02*
X147340619Y-89868238D01*
X147340619Y-89868238D02*
X147435857Y-89820619D01*
X147435857Y-89820619D02*
X147483476Y-89820619D01*
X147483476Y-89820619D02*
X147578714Y-89868238D01*
X147578714Y-89868238D02*
X147626333Y-89915857D01*
X147626333Y-89915857D02*
X147673952Y-90011095D01*
X147673952Y-90011095D02*
X147673952Y-90201571D01*
X147673952Y-90201571D02*
X147721571Y-90296809D01*
X147721571Y-90296809D02*
X147769190Y-90344428D01*
X147769190Y-90344428D02*
X147864428Y-90392047D01*
X147864428Y-90392047D02*
X148054904Y-90392047D01*
X148054904Y-90392047D02*
X148150142Y-90344428D01*
X148150142Y-90344428D02*
X148197761Y-90296809D01*
X148197761Y-90296809D02*
X148245380Y-90201571D01*
X148245380Y-90201571D02*
X148245380Y-90011095D01*
X148245380Y-90011095D02*
X148197761Y-89915857D01*
X148197761Y-89915857D02*
X148150142Y-89868238D01*
X148150142Y-89868238D02*
X148054904Y-89820619D01*
X148054904Y-89820619D02*
X147864428Y-89820619D01*
X147864428Y-89820619D02*
X147769190Y-89868238D01*
X147769190Y-89868238D02*
X147721571Y-89915857D01*
X147721571Y-89915857D02*
X147673952Y-90011095D01*
X147245380Y-89534904D02*
X148245380Y-89201571D01*
X148245380Y-89201571D02*
X147245380Y-88868238D01*
X108383380Y-89868238D02*
X108383380Y-90344428D01*
X108383380Y-90344428D02*
X108859571Y-90392047D01*
X108859571Y-90392047D02*
X108811952Y-90344428D01*
X108811952Y-90344428D02*
X108764333Y-90249190D01*
X108764333Y-90249190D02*
X108764333Y-90011095D01*
X108764333Y-90011095D02*
X108811952Y-89915857D01*
X108811952Y-89915857D02*
X108859571Y-89868238D01*
X108859571Y-89868238D02*
X108954809Y-89820619D01*
X108954809Y-89820619D02*
X109192904Y-89820619D01*
X109192904Y-89820619D02*
X109288142Y-89868238D01*
X109288142Y-89868238D02*
X109335761Y-89915857D01*
X109335761Y-89915857D02*
X109383380Y-90011095D01*
X109383380Y-90011095D02*
X109383380Y-90249190D01*
X109383380Y-90249190D02*
X109335761Y-90344428D01*
X109335761Y-90344428D02*
X109288142Y-90392047D01*
X108383380Y-89534904D02*
X109383380Y-89201571D01*
X109383380Y-89201571D02*
X108383380Y-88868238D01*
D11*
%TO.C,J1*%
X132740000Y-80138000D02*
X132740000Y-79338000D01*
X132740000Y-76338000D02*
X132740000Y-75288000D01*
X132740000Y-75288000D02*
X123800000Y-75288000D01*
X128770000Y-83238000D02*
X128770000Y-83238000D01*
X128770000Y-83238000D02*
X128770000Y-83238000D01*
X128770000Y-83138000D02*
X128770000Y-83138000D01*
X123800000Y-80138000D02*
X123800000Y-79338000D01*
X123800000Y-75288000D02*
X123800000Y-76338000D01*
X128770000Y-83138000D02*
G75*
G03*
X128770000Y-83238000I0J-50000D01*
G01*
X128770000Y-83238000D02*
G75*
G03*
X128770000Y-83138000I0J50000D01*
G01*
X128770000Y-83238000D02*
G75*
G03*
X128770000Y-83138000I0J50000D01*
G01*
D12*
%TO.C,C5*%
X144426000Y-77289252D02*
X144426000Y-76766748D01*
X145896000Y-77289252D02*
X145896000Y-76766748D01*
D13*
%TO.C,TP3*%
X137130000Y-83568000D02*
X139730000Y-83568000D01*
X139730000Y-82548000D02*
X137130000Y-82548000D01*
D12*
%TO.C,R3*%
X117585258Y-76595500D02*
X117110742Y-76595500D01*
X117585258Y-75550500D02*
X117110742Y-75550500D01*
%TO.C,J2*%
X154096000Y-82998000D02*
X154096000Y-84328000D01*
X152766000Y-82998000D02*
X154096000Y-82998000D01*
X151496000Y-82998000D02*
X146356000Y-82998000D01*
X151496000Y-82998000D02*
X151496000Y-85598000D01*
X146356000Y-82998000D02*
X146356000Y-88198000D01*
X154096000Y-85598000D02*
X154096000Y-88198000D01*
X151496000Y-85598000D02*
X154096000Y-85598000D01*
X154096000Y-88198000D02*
X146356000Y-88198000D01*
%TO.C,C8*%
X113667000Y-79996420D02*
X113667000Y-80277580D01*
X112647000Y-79996420D02*
X112647000Y-80277580D01*
%TO.C,C7*%
X142873000Y-77422580D02*
X142873000Y-77141420D01*
X143893000Y-77422580D02*
X143893000Y-77141420D01*
D13*
%TO.C,TP2*%
X119410000Y-82548000D02*
X116810000Y-82548000D01*
X116810000Y-83568000D02*
X119410000Y-83568000D01*
D12*
%TO.C,R2*%
X140318258Y-76722500D02*
X139843742Y-76722500D01*
X140318258Y-75677500D02*
X139843742Y-75677500D01*
%TO.C,C2*%
X112647000Y-77229580D02*
X112647000Y-76948420D01*
X113667000Y-77229580D02*
X113667000Y-76948420D01*
%TO.C,C4*%
X110644000Y-77223252D02*
X110644000Y-76700748D01*
X112114000Y-77223252D02*
X112114000Y-76700748D01*
%TO.C,C3*%
X144426000Y-80718252D02*
X144426000Y-80195748D01*
X145896000Y-80718252D02*
X145896000Y-80195748D01*
%TO.C,D1*%
X118911000Y-75338000D02*
X118911000Y-76808000D01*
X118911000Y-76808000D02*
X121196000Y-76808000D01*
X121196000Y-75338000D02*
X118911000Y-75338000D01*
%TO.C,C1*%
X142873000Y-80724580D02*
X142873000Y-80443420D01*
X143893000Y-80724580D02*
X143893000Y-80443420D01*
%TO.C,R1*%
X136795742Y-75677500D02*
X137270258Y-75677500D01*
X136795742Y-76722500D02*
X137270258Y-76722500D01*
%TO.C,J3*%
X110154000Y-82998000D02*
X110154000Y-84328000D01*
X108824000Y-82998000D02*
X110154000Y-82998000D01*
X107554000Y-82998000D02*
X102414000Y-82998000D01*
X107554000Y-82998000D02*
X107554000Y-85598000D01*
X102414000Y-82998000D02*
X102414000Y-88198000D01*
X110154000Y-85598000D02*
X110154000Y-88198000D01*
X107554000Y-85598000D02*
X110154000Y-85598000D01*
X110154000Y-88198000D02*
X102414000Y-88198000D01*
%TO.C,U2*%
X146522000Y-75457000D02*
X152532000Y-75457000D01*
X148772000Y-82277000D02*
X152532000Y-82277000D01*
X152532000Y-75457000D02*
X152532000Y-76717000D01*
X152532000Y-82277000D02*
X152532000Y-81017000D01*
D13*
%TO.C,TP1*%
X104999000Y-97538000D02*
X107599000Y-97538000D01*
X107599000Y-96518000D02*
X104999000Y-96518000D01*
%TO.C,TP4*%
X148941000Y-97538000D02*
X151541000Y-97538000D01*
X151541000Y-96518000D02*
X148941000Y-96518000D01*
D12*
%TO.C,R4*%
X121665000Y-77697359D02*
X121665000Y-78004641D01*
X120905000Y-77697359D02*
X120905000Y-78004641D01*
%TO.C,U1*%
X110018000Y-82277000D02*
X104008000Y-82277000D01*
X107768000Y-75457000D02*
X104008000Y-75457000D01*
X104008000Y-82277000D02*
X104008000Y-81017000D01*
X104008000Y-75457000D02*
X104008000Y-76717000D01*
%TO.C,C6*%
X112114000Y-80129748D02*
X112114000Y-80652252D01*
X110644000Y-80129748D02*
X110644000Y-80652252D01*
%TD*%
M02*
