%TF.GenerationSoftware,KiCad,Pcbnew,(7.0.0-0)*%
%TF.CreationDate,2023-03-19T19:49:21-06:00*%
%TF.ProjectId,Breadboard Power Supply,42726561-6462-46f6-9172-6420506f7765,v2*%
%TF.SameCoordinates,Original*%
%TF.FileFunction,Copper,L1,Top*%
%TF.FilePolarity,Positive*%
%FSLAX46Y46*%
G04 Gerber Fmt 4.6, Leading zero omitted, Abs format (unit mm)*
G04 Created by KiCad (PCBNEW (7.0.0-0)) date 2023-03-19 19:49:21*
%MOMM*%
%LPD*%
G01*
G04 APERTURE LIST*
G04 Aperture macros list*
%AMRoundRect*
0 Rectangle with rounded corners*
0 $1 Rounding radius*
0 $2 $3 $4 $5 $6 $7 $8 $9 X,Y pos of 4 corners*
0 Add a 4 corners polygon primitive as box body*
4,1,4,$2,$3,$4,$5,$6,$7,$8,$9,$2,$3,0*
0 Add four circle primitives for the rounded corners*
1,1,$1+$1,$2,$3*
1,1,$1+$1,$4,$5*
1,1,$1+$1,$6,$7*
1,1,$1+$1,$8,$9*
0 Add four rect primitives between the rounded corners*
20,1,$1+$1,$2,$3,$4,$5,0*
20,1,$1+$1,$4,$5,$6,$7,0*
20,1,$1+$1,$6,$7,$8,$9,0*
20,1,$1+$1,$8,$9,$2,$3,0*%
G04 Aperture macros list end*
%ADD10C,0.080000*%
%TA.AperFunction,NonConductor*%
%ADD11C,0.080000*%
%TD*%
%TA.AperFunction,SMDPad,CuDef*%
%ADD12R,0.700000X1.200000*%
%TD*%
%TA.AperFunction,SMDPad,CuDef*%
%ADD13R,0.760000X1.200000*%
%TD*%
%TA.AperFunction,SMDPad,CuDef*%
%ADD14R,0.800000X1.200000*%
%TD*%
%TA.AperFunction,ComponentPad*%
%ADD15C,2.010000*%
%TD*%
%TA.AperFunction,SMDPad,CuDef*%
%ADD16RoundRect,0.250000X0.325000X0.650000X-0.325000X0.650000X-0.325000X-0.650000X0.325000X-0.650000X0*%
%TD*%
%TA.AperFunction,ComponentPad*%
%ADD17C,1.830000*%
%TD*%
%TA.AperFunction,SMDPad,CuDef*%
%ADD18RoundRect,0.200000X-0.275000X0.200000X-0.275000X-0.200000X0.275000X-0.200000X0.275000X0.200000X0*%
%TD*%
%TA.AperFunction,ComponentPad*%
%ADD19R,1.700000X1.700000*%
%TD*%
%TA.AperFunction,ComponentPad*%
%ADD20O,1.700000X1.700000*%
%TD*%
%TA.AperFunction,SMDPad,CuDef*%
%ADD21RoundRect,0.225000X-0.225000X-0.250000X0.225000X-0.250000X0.225000X0.250000X-0.225000X0.250000X0*%
%TD*%
%TA.AperFunction,SMDPad,CuDef*%
%ADD22RoundRect,0.225000X0.225000X0.250000X-0.225000X0.250000X-0.225000X-0.250000X0.225000X-0.250000X0*%
%TD*%
%TA.AperFunction,SMDPad,CuDef*%
%ADD23RoundRect,0.200000X0.275000X-0.200000X0.275000X0.200000X-0.275000X0.200000X-0.275000X-0.200000X0*%
%TD*%
%TA.AperFunction,SMDPad,CuDef*%
%ADD24RoundRect,0.250000X-0.325000X-0.650000X0.325000X-0.650000X0.325000X0.650000X-0.325000X0.650000X0*%
%TD*%
%TA.AperFunction,SMDPad,CuDef*%
%ADD25RoundRect,0.250000X0.650000X-0.325000X0.650000X0.325000X-0.650000X0.325000X-0.650000X-0.325000X0*%
%TD*%
%TA.AperFunction,SMDPad,CuDef*%
%ADD26RoundRect,0.218750X0.256250X-0.218750X0.256250X0.218750X-0.256250X0.218750X-0.256250X-0.218750X0*%
%TD*%
%TA.AperFunction,SMDPad,CuDef*%
%ADD27R,2.000000X1.500000*%
%TD*%
%TA.AperFunction,SMDPad,CuDef*%
%ADD28R,2.000000X3.800000*%
%TD*%
%TA.AperFunction,SMDPad,CuDef*%
%ADD29RoundRect,0.250000X-0.650000X0.325000X-0.650000X-0.325000X0.650000X-0.325000X0.650000X0.325000X0*%
%TD*%
%TA.AperFunction,ViaPad*%
%ADD30C,0.800000*%
%TD*%
%TA.AperFunction,Conductor*%
%ADD31C,0.750000*%
%TD*%
%TA.AperFunction,Conductor*%
%ADD32C,0.250000*%
%TD*%
G04 APERTURE END LIST*
D10*
D11*
X133089666Y-74041952D02*
X133337285Y-74041952D01*
X133337285Y-74041952D02*
X133203952Y-74194333D01*
X133203952Y-74194333D02*
X133261095Y-74194333D01*
X133261095Y-74194333D02*
X133299190Y-74213380D01*
X133299190Y-74213380D02*
X133318238Y-74232428D01*
X133318238Y-74232428D02*
X133337285Y-74270523D01*
X133337285Y-74270523D02*
X133337285Y-74365761D01*
X133337285Y-74365761D02*
X133318238Y-74403857D01*
X133318238Y-74403857D02*
X133299190Y-74422904D01*
X133299190Y-74422904D02*
X133261095Y-74441952D01*
X133261095Y-74441952D02*
X133146809Y-74441952D01*
X133146809Y-74441952D02*
X133108714Y-74422904D01*
X133108714Y-74422904D02*
X133089666Y-74403857D01*
D12*
%TO.P,J1,A5,CC1*%
%TO.N,Net-(J1-CC1)*%
X128769999Y-80245999D03*
D13*
%TO.P,J1,A9,VBUS_1*%
%TO.N,+5V*%
X126749999Y-80245999D03*
D14*
%TO.P,J1,A12,GND_1*%
%TO.N,GND*%
X125519999Y-80245999D03*
D12*
%TO.P,J1,B5,CC2*%
%TO.N,Net-(J1-CC2)*%
X127769999Y-80245999D03*
D13*
%TO.P,J1,B9,VBUS_2*%
%TO.N,+5V*%
X129789999Y-80245999D03*
D14*
%TO.P,J1,B12,GND_2*%
%TO.N,GND*%
X131019999Y-80245999D03*
D15*
%TO.P,J1,MH1,MH1*%
X132590000Y-76366000D03*
%TO.P,J1,MH2,MH2*%
X123950000Y-76366000D03*
%TO.P,J1,MH3,MH3*%
X132590000Y-80166000D03*
%TO.P,J1,MH4,MH4*%
X123950000Y-80166000D03*
%TD*%
D16*
%TO.P,C5,1*%
%TO.N,+3.3V*%
X146509000Y-74930000D03*
%TO.P,C5,2*%
%TO.N,GND*%
X143559000Y-74930000D03*
%TD*%
D17*
%TO.P,TP3,1,1*%
%TO.N,GND*%
X134620000Y-85598000D03*
%TO.P,TP3,2,2*%
X139700000Y-85598000D03*
%TD*%
D18*
%TO.P,R3,1*%
%TO.N,Net-(D1-K)*%
X121031000Y-77470000D03*
%TO.P,R3,2*%
%TO.N,GND*%
X121031000Y-79120000D03*
%TD*%
D19*
%TO.P,J2,1,Pin_1*%
%TO.N,+5V*%
X154939999Y-83814999D03*
D20*
%TO.P,J2,2,Pin_2*%
%TO.N,/TOP_POWER_RAIL*%
X154939999Y-86354999D03*
%TO.P,J2,3,Pin_3*%
%TO.N,+3.3V*%
X152399999Y-83814999D03*
%TO.P,J2,4,Pin_4*%
%TO.N,/TOP_POWER_RAIL*%
X152399999Y-86354999D03*
%TO.P,J2,5,Pin_5*%
%TO.N,+1V8*%
X149859999Y-83814999D03*
%TO.P,J2,6,Pin_6*%
%TO.N,/TOP_POWER_RAIL*%
X149859999Y-86354999D03*
%TD*%
D21*
%TO.P,C8,1*%
%TO.N,+1V8*%
X112509000Y-81534000D03*
%TO.P,C8,2*%
%TO.N,GND*%
X114059000Y-81534000D03*
%TD*%
D22*
%TO.P,C7,1*%
%TO.N,+3.3V*%
X146571000Y-76962000D03*
%TO.P,C7,2*%
%TO.N,GND*%
X145021000Y-76962000D03*
%TD*%
D17*
%TO.P,TP2,1,1*%
%TO.N,GND*%
X121920000Y-85598000D03*
%TO.P,TP2,2,2*%
X116840000Y-85598000D03*
%TD*%
D23*
%TO.P,R2,1*%
%TO.N,Net-(J1-CC1)*%
X135382000Y-79120000D03*
%TO.P,R2,2*%
%TO.N,GND*%
X135382000Y-77470000D03*
%TD*%
D21*
%TO.P,C2,1*%
%TO.N,+5V*%
X110096000Y-77089000D03*
%TO.P,C2,2*%
%TO.N,GND*%
X111646000Y-77089000D03*
%TD*%
D24*
%TO.P,C4,1*%
%TO.N,+5V*%
X110285000Y-74930000D03*
%TO.P,C4,2*%
%TO.N,GND*%
X113235000Y-74930000D03*
%TD*%
D25*
%TO.P,C3,1*%
%TO.N,+5V*%
X145923000Y-81739000D03*
%TO.P,C3,2*%
%TO.N,GND*%
X145923000Y-78789000D03*
%TD*%
D26*
%TO.P,D1,1,K*%
%TO.N,Net-(D1-K)*%
X121031000Y-75971500D03*
%TO.P,D1,2,A*%
%TO.N,+5V*%
X121031000Y-74396500D03*
%TD*%
D22*
%TO.P,C1,1*%
%TO.N,+5V*%
X143790000Y-81661000D03*
%TO.P,C1,2*%
%TO.N,GND*%
X142240000Y-81661000D03*
%TD*%
D23*
%TO.P,R1,1*%
%TO.N,Net-(J1-CC2)*%
X135382000Y-76072000D03*
%TO.P,R1,2*%
%TO.N,GND*%
X135382000Y-74422000D03*
%TD*%
D19*
%TO.P,J3,1,Pin_1*%
%TO.N,+5V*%
X106679999Y-83819999D03*
D20*
%TO.P,J3,2,Pin_2*%
%TO.N,/BOTTOM_POWER_RAIL*%
X106679999Y-86359999D03*
%TO.P,J3,3,Pin_3*%
%TO.N,+3.3V*%
X104139999Y-83819999D03*
%TO.P,J3,4,Pin_4*%
%TO.N,/BOTTOM_POWER_RAIL*%
X104139999Y-86359999D03*
%TO.P,J3,5,Pin_5*%
%TO.N,+1V8*%
X101599999Y-83819999D03*
%TO.P,J3,6,Pin_6*%
%TO.N,/BOTTOM_POWER_RAIL*%
X101599999Y-86359999D03*
%TD*%
D27*
%TO.P,U2,1,GND*%
%TO.N,GND*%
X148639999Y-74915999D03*
%TO.P,U2,2,VO*%
%TO.N,+3.3V*%
X148639999Y-77215999D03*
D28*
X154939999Y-77215999D03*
D27*
%TO.P,U2,3,VI*%
%TO.N,+5V*%
X148639999Y-79515999D03*
%TD*%
D17*
%TO.P,TP1,1,1*%
%TO.N,GND*%
X102235000Y-97028000D03*
%TO.P,TP1,2,2*%
X107315000Y-97028000D03*
%TD*%
%TO.P,TP4,1,1*%
%TO.N,GND*%
X149225000Y-97028000D03*
%TO.P,TP4,2,2*%
X154305000Y-97028000D03*
%TD*%
D27*
%TO.P,U1,1,GND*%
%TO.N,GND*%
X108051999Y-79529999D03*
%TO.P,U1,2,VO*%
%TO.N,+1V8*%
X108051999Y-77229999D03*
D28*
X101751999Y-77229999D03*
D27*
%TO.P,U1,3,VI*%
%TO.N,+5V*%
X108051999Y-74929999D03*
%TD*%
D29*
%TO.P,C6,1*%
%TO.N,+1V8*%
X110490000Y-78789000D03*
%TO.P,C6,2*%
%TO.N,GND*%
X110490000Y-81739000D03*
%TD*%
D19*
%TO.P,J10,1,Pin_1*%
%TO.N,unconnected-(J10-Pin_1-Pad1)*%
X114299999Y-78739999D03*
D20*
%TO.P,J10,2,Pin_2*%
%TO.N,unconnected-(J10-Pin_2-Pad2)*%
X116839999Y-78739999D03*
%TD*%
D19*
%TO.P,J8,1,Pin_1*%
%TO.N,/TOP_POWER_RAIL*%
X149859999Y-93979999D03*
D20*
%TO.P,J8,2,Pin_2*%
%TO.N,GND*%
X152399999Y-93979999D03*
%TD*%
D19*
%TO.P,J11,1,Pin_1*%
%TO.N,unconnected-(J11-Pin_1-Pad1)*%
X142239999Y-78739999D03*
D20*
%TO.P,J11,2,Pin_2*%
%TO.N,unconnected-(J11-Pin_2-Pad2)*%
X139699999Y-78739999D03*
%TD*%
D19*
%TO.P,J9,1,Pin_1*%
%TO.N,/BOTTOM_POWER_RAIL*%
X104139999Y-93979999D03*
D20*
%TO.P,J9,2,Pin_2*%
%TO.N,GND*%
X106679999Y-93979999D03*
%TD*%
D30*
%TO.N,GND*%
X114554000Y-74930000D03*
X150495000Y-74930000D03*
X134239000Y-74422000D03*
X141097000Y-81661000D03*
X144780000Y-74295000D03*
X115316000Y-81534000D03*
X112141000Y-78232000D03*
X134239000Y-77470000D03*
X144272000Y-78105000D03*
X121031000Y-80264000D03*
X108077000Y-80772000D03*
X108966000Y-81661000D03*
%TO.N,+3.3V*%
X147955000Y-83863500D03*
X106580825Y-82342673D03*
%TO.N,+5V*%
X150636000Y-79516000D03*
X106426000Y-74422000D03*
X133985000Y-78613000D03*
X105283000Y-78232000D03*
X136398000Y-80518000D03*
%TD*%
D31*
%TO.N,GND*%
X144145000Y-74930000D02*
X144780000Y-74295000D01*
X110490000Y-81739000D02*
X109044000Y-81739000D01*
D32*
X111646000Y-77737000D02*
X112141000Y-78232000D01*
D31*
X148640000Y-74916000D02*
X150481000Y-74916000D01*
D32*
X111646000Y-77089000D02*
X111646000Y-77737000D01*
D31*
X108052000Y-80747000D02*
X108052000Y-79530000D01*
X113235000Y-74930000D02*
X114554000Y-74930000D01*
D32*
X135382000Y-74422000D02*
X134239000Y-74422000D01*
D31*
X109044000Y-81739000D02*
X108966000Y-81661000D01*
D32*
X121031000Y-79120000D02*
X121031000Y-80264000D01*
X132510000Y-80246000D02*
X132590000Y-80166000D01*
D31*
X142240000Y-81661000D02*
X141097000Y-81661000D01*
D32*
X124030000Y-80246000D02*
X123950000Y-80166000D01*
X131020000Y-80246000D02*
X132510000Y-80246000D01*
D31*
X143559000Y-74930000D02*
X144145000Y-74930000D01*
X150481000Y-74916000D02*
X150495000Y-74930000D01*
X114059000Y-81534000D02*
X115316000Y-81534000D01*
X145923000Y-78789000D02*
X144956000Y-78789000D01*
X144956000Y-78789000D02*
X144272000Y-78105000D01*
X108077000Y-80772000D02*
X108052000Y-80747000D01*
X145021000Y-77356000D02*
X144272000Y-78105000D01*
X145021000Y-76962000D02*
X145021000Y-77356000D01*
D32*
X125520000Y-80246000D02*
X124030000Y-80246000D01*
X135382000Y-77470000D02*
X134239000Y-77470000D01*
D31*
%TO.N,+3.3V*%
X108268814Y-82342673D02*
X109789641Y-83863500D01*
X147320000Y-76200000D02*
X146509000Y-75389000D01*
X106580825Y-82342673D02*
X108268814Y-82342673D01*
X154940000Y-81275000D02*
X152400000Y-83815000D01*
X148336000Y-77216000D02*
X147320000Y-76200000D01*
X146571000Y-76962000D02*
X146571000Y-76949000D01*
X146509000Y-75389000D02*
X146509000Y-74930000D01*
X154940000Y-77216000D02*
X154940000Y-81275000D01*
X148640000Y-77216000D02*
X154940000Y-77216000D01*
X148640000Y-77216000D02*
X148336000Y-77216000D01*
X109789641Y-83863500D02*
X147955000Y-83863500D01*
X146571000Y-76949000D02*
X147320000Y-76200000D01*
%TO.N,/TOP_POWER_RAIL*%
X152400000Y-86355000D02*
X154940000Y-86355000D01*
X149860000Y-86355000D02*
X149860000Y-93980000D01*
X149860000Y-86355000D02*
X152400000Y-86355000D01*
%TO.N,/BOTTOM_POWER_RAIL*%
X104140000Y-86360000D02*
X104140000Y-93980000D01*
X101600000Y-86360000D02*
X104140000Y-86360000D01*
X104140000Y-86360000D02*
X106680000Y-86360000D01*
D32*
%TO.N,Net-(D1-K)*%
X121031000Y-75971500D02*
X121031000Y-77470000D01*
%TO.N,Net-(J1-CC1)*%
X135382000Y-79756000D02*
X135382000Y-79120000D01*
X133642000Y-81496000D02*
X135382000Y-79756000D01*
X128770000Y-80246000D02*
X128770000Y-81096000D01*
X129170000Y-81496000D02*
X133642000Y-81496000D01*
X128770000Y-81096000D02*
X129170000Y-81496000D01*
%TO.N,Net-(J1-CC2)*%
X127770000Y-80246000D02*
X127770000Y-81096000D01*
X136182000Y-79592396D02*
X136182000Y-76872000D01*
X128620000Y-81946000D02*
X133828396Y-81946000D01*
X127770000Y-81096000D02*
X128620000Y-81946000D01*
X136182000Y-76872000D02*
X135382000Y-76072000D01*
X133828396Y-81946000D02*
X136182000Y-79592396D01*
D31*
%TO.N,+1V8*%
X109906000Y-78205000D02*
X109027000Y-78205000D01*
X148934000Y-82889000D02*
X149860000Y-83815000D01*
X110490000Y-78789000D02*
X110490000Y-79515000D01*
X110490000Y-79515000D02*
X112509000Y-81534000D01*
X112509000Y-81534000D02*
X112509000Y-81590371D01*
X101600000Y-83820000D02*
X101600000Y-77382000D01*
X101752000Y-77230000D02*
X108052000Y-77230000D01*
X113807629Y-82889000D02*
X148934000Y-82889000D01*
X110490000Y-78789000D02*
X109906000Y-78205000D01*
X101600000Y-77382000D02*
X101752000Y-77230000D01*
X112509000Y-81590371D02*
X113807629Y-82889000D01*
X109027000Y-78205000D02*
X108052000Y-77230000D01*
%TO.N,+5V*%
X142703371Y-80518000D02*
X136398000Y-80518000D01*
X112568274Y-76405000D02*
X111093274Y-74930000D01*
X108052000Y-74905000D02*
X107569000Y-74422000D01*
X129790000Y-79166000D02*
X129491000Y-78867000D01*
X129491000Y-78867000D02*
X126750000Y-78867000D01*
X108052000Y-74930000D02*
X108052000Y-74905000D01*
X117373500Y-74396500D02*
X115365000Y-76405000D01*
X143790000Y-81661000D02*
X143790000Y-81586000D01*
X111093274Y-74930000D02*
X110285000Y-74930000D01*
X143868000Y-81739000D02*
X143790000Y-81661000D01*
X129772000Y-78586000D02*
X129491000Y-78867000D01*
X110385612Y-74829388D02*
X110285000Y-74930000D01*
X126750000Y-76331000D02*
X124815500Y-74396500D01*
X129790000Y-80246000D02*
X129790000Y-79166000D01*
X133922082Y-78586000D02*
X129772000Y-78586000D01*
X143790000Y-81661000D02*
X143790000Y-81604629D01*
X121031000Y-74396500D02*
X117373500Y-74396500D01*
X115365000Y-76405000D02*
X112568274Y-76405000D01*
X148640000Y-79516000D02*
X148146000Y-79516000D01*
X108052000Y-74930000D02*
X110285000Y-74930000D01*
X107569000Y-74422000D02*
X106426000Y-74422000D01*
X110285000Y-76900000D02*
X110096000Y-77089000D01*
X145923000Y-81739000D02*
X143868000Y-81739000D01*
X143790000Y-81604629D02*
X142703371Y-80518000D01*
X133958000Y-78586000D02*
X133985000Y-78613000D01*
X105283000Y-82423000D02*
X105283000Y-78232000D01*
X110285000Y-74930000D02*
X110285000Y-76900000D01*
X133922082Y-78586000D02*
X133958000Y-78586000D01*
X150636000Y-79516000D02*
X148640000Y-79516000D01*
X106680000Y-83820000D02*
X105283000Y-82423000D01*
X126750000Y-78867000D02*
X126750000Y-76331000D01*
X126750000Y-78867000D02*
X126750000Y-80246000D01*
X148146000Y-79516000D02*
X145923000Y-81739000D01*
X124815500Y-74396500D02*
X121031000Y-74396500D01*
%TD*%
M02*
