M48
; DRILL file {KiCad 8.0.4} date 2024-08-11T21:42:08-0600
; FORMAT={-:-/ absolute / inch / decimal}
; #@! TF.CreationDate,2024-08-11T21:42:08-06:00
; #@! TF.GenerationSoftware,Kicad,Pcbnew,8.0.4
; #@! TF.FileFunction,Plated,1,4,PTH
FMAT,2
INCH
; #@! TA.AperFunction,Plated,PTH,ViaDrill
T1C0.0157
; #@! TA.AperFunction,Plated,PTH,ComponentDrill
T2C0.0315
; #@! TA.AperFunction,Plated,PTH,ComponentDrill
T3C0.0378
; #@! TA.AperFunction,Plated,PTH,ComponentDrill
T4C0.0394
; #@! TA.AperFunction,Plated,PTH,ComponentDrill
T5C0.0480
%
G90
G05
T1
X4.095Y-3.355
X4.27Y-3.495
X4.275Y-3.355
X4.395Y-2.985
X4.435Y-3.305
X4.51Y-2.98
X4.5271Y-3.0184
X4.655Y-3.025
X4.705Y-3.095
X4.815Y-3.195
X4.8941Y-3.3241
X4.946Y-3.3265
X4.985Y-3.175
X5.115Y-3.175
X5.345Y-3.075
X5.495Y-3.025
X5.675Y-3.275
X5.675Y-3.315
X5.705Y-3.195
X5.8791Y-3.3509
X5.9116Y-3.285
X6.085Y-3.295
T2
X4.6413Y-3.265
X4.72Y-3.265
T3
X4.88Y-3.0698
X4.88Y-3.2194
X5.2202Y-3.0698
X5.2202Y-3.2194
T4
X4.05Y-3.45
X4.05Y-3.55
X4.05Y-3.65
X4.05Y-3.75
X4.1125Y-3.9
X4.15Y-3.45
X4.15Y-3.55
X4.15Y-3.65
X4.15Y-3.75
X4.2125Y-3.9
X4.5Y-3.1
X4.5Y-3.2
X5.6Y-3.1
X5.6Y-3.2
X5.8875Y-3.9
X5.95Y-3.45
X5.95Y-3.55
X5.95Y-3.65
X5.95Y-3.75
X5.9875Y-3.9
X6.05Y-3.45
X6.05Y-3.55
X6.05Y-3.65
X6.05Y-3.75
T5
X4.085Y-4.0409
X4.285Y-4.0409
X5.815Y-4.0409
X6.015Y-4.0409
M30
