%TF.GenerationSoftware,KiCad,Pcbnew,(7.0.0-0)*%
%TF.CreationDate,2023-05-14T13:41:57-06:00*%
%TF.ProjectId,Breadboard Power Supply,42726561-6462-46f6-9172-6420506f7765,v7*%
%TF.SameCoordinates,Original*%
%TF.FileFunction,Legend,Top*%
%TF.FilePolarity,Positive*%
%FSLAX46Y46*%
G04 Gerber Fmt 4.6, Leading zero omitted, Abs format (unit mm)*
G04 Created by KiCad (PCBNEW (7.0.0-0)) date 2023-05-14 13:41:57*
%MOMM*%
%LPD*%
G01*
G04 APERTURE LIST*
%ADD10C,0.150000*%
%ADD11C,0.100000*%
%ADD12C,0.120000*%
%ADD13C,0.127000*%
%ADD14C,0.200000*%
G04 APERTURE END LIST*
D10*
X152325380Y-89868238D02*
X152325380Y-90344428D01*
X152325380Y-90344428D02*
X152801571Y-90392047D01*
X152801571Y-90392047D02*
X152753952Y-90344428D01*
X152753952Y-90344428D02*
X152706333Y-90249190D01*
X152706333Y-90249190D02*
X152706333Y-90011095D01*
X152706333Y-90011095D02*
X152753952Y-89915857D01*
X152753952Y-89915857D02*
X152801571Y-89868238D01*
X152801571Y-89868238D02*
X152896809Y-89820619D01*
X152896809Y-89820619D02*
X153134904Y-89820619D01*
X153134904Y-89820619D02*
X153230142Y-89868238D01*
X153230142Y-89868238D02*
X153277761Y-89915857D01*
X153277761Y-89915857D02*
X153325380Y-90011095D01*
X153325380Y-90011095D02*
X153325380Y-90249190D01*
X153325380Y-90249190D02*
X153277761Y-90344428D01*
X153277761Y-90344428D02*
X153230142Y-90392047D01*
X152325380Y-89534904D02*
X153325380Y-89201571D01*
X153325380Y-89201571D02*
X152325380Y-88868238D01*
X105843380Y-91868237D02*
X105843380Y-91249190D01*
X105843380Y-91249190D02*
X106224333Y-91582523D01*
X106224333Y-91582523D02*
X106224333Y-91439666D01*
X106224333Y-91439666D02*
X106271952Y-91344428D01*
X106271952Y-91344428D02*
X106319571Y-91296809D01*
X106319571Y-91296809D02*
X106414809Y-91249190D01*
X106414809Y-91249190D02*
X106652904Y-91249190D01*
X106652904Y-91249190D02*
X106748142Y-91296809D01*
X106748142Y-91296809D02*
X106795761Y-91344428D01*
X106795761Y-91344428D02*
X106843380Y-91439666D01*
X106843380Y-91439666D02*
X106843380Y-91725380D01*
X106843380Y-91725380D02*
X106795761Y-91820618D01*
X106795761Y-91820618D02*
X106748142Y-91868237D01*
X106748142Y-90820618D02*
X106795761Y-90772999D01*
X106795761Y-90772999D02*
X106843380Y-90820618D01*
X106843380Y-90820618D02*
X106795761Y-90868237D01*
X106795761Y-90868237D02*
X106748142Y-90820618D01*
X106748142Y-90820618D02*
X106843380Y-90820618D01*
X105843380Y-90439666D02*
X105843380Y-89820619D01*
X105843380Y-89820619D02*
X106224333Y-90153952D01*
X106224333Y-90153952D02*
X106224333Y-90011095D01*
X106224333Y-90011095D02*
X106271952Y-89915857D01*
X106271952Y-89915857D02*
X106319571Y-89868238D01*
X106319571Y-89868238D02*
X106414809Y-89820619D01*
X106414809Y-89820619D02*
X106652904Y-89820619D01*
X106652904Y-89820619D02*
X106748142Y-89868238D01*
X106748142Y-89868238D02*
X106795761Y-89915857D01*
X106795761Y-89915857D02*
X106843380Y-90011095D01*
X106843380Y-90011095D02*
X106843380Y-90296809D01*
X106843380Y-90296809D02*
X106795761Y-90392047D01*
X106795761Y-90392047D02*
X106748142Y-90439666D01*
X105843380Y-89534904D02*
X106843380Y-89201571D01*
X106843380Y-89201571D02*
X105843380Y-88868238D01*
X104303380Y-91249190D02*
X104303380Y-91820618D01*
X104303380Y-91534904D02*
X103303380Y-91534904D01*
X103303380Y-91534904D02*
X103446238Y-91630142D01*
X103446238Y-91630142D02*
X103541476Y-91725380D01*
X103541476Y-91725380D02*
X103589095Y-91820618D01*
X104208142Y-90820618D02*
X104255761Y-90772999D01*
X104255761Y-90772999D02*
X104303380Y-90820618D01*
X104303380Y-90820618D02*
X104255761Y-90868237D01*
X104255761Y-90868237D02*
X104208142Y-90820618D01*
X104208142Y-90820618D02*
X104303380Y-90820618D01*
X103731952Y-90201571D02*
X103684333Y-90296809D01*
X103684333Y-90296809D02*
X103636714Y-90344428D01*
X103636714Y-90344428D02*
X103541476Y-90392047D01*
X103541476Y-90392047D02*
X103493857Y-90392047D01*
X103493857Y-90392047D02*
X103398619Y-90344428D01*
X103398619Y-90344428D02*
X103351000Y-90296809D01*
X103351000Y-90296809D02*
X103303380Y-90201571D01*
X103303380Y-90201571D02*
X103303380Y-90011095D01*
X103303380Y-90011095D02*
X103351000Y-89915857D01*
X103351000Y-89915857D02*
X103398619Y-89868238D01*
X103398619Y-89868238D02*
X103493857Y-89820619D01*
X103493857Y-89820619D02*
X103541476Y-89820619D01*
X103541476Y-89820619D02*
X103636714Y-89868238D01*
X103636714Y-89868238D02*
X103684333Y-89915857D01*
X103684333Y-89915857D02*
X103731952Y-90011095D01*
X103731952Y-90011095D02*
X103731952Y-90201571D01*
X103731952Y-90201571D02*
X103779571Y-90296809D01*
X103779571Y-90296809D02*
X103827190Y-90344428D01*
X103827190Y-90344428D02*
X103922428Y-90392047D01*
X103922428Y-90392047D02*
X104112904Y-90392047D01*
X104112904Y-90392047D02*
X104208142Y-90344428D01*
X104208142Y-90344428D02*
X104255761Y-90296809D01*
X104255761Y-90296809D02*
X104303380Y-90201571D01*
X104303380Y-90201571D02*
X104303380Y-90011095D01*
X104303380Y-90011095D02*
X104255761Y-89915857D01*
X104255761Y-89915857D02*
X104208142Y-89868238D01*
X104208142Y-89868238D02*
X104112904Y-89820619D01*
X104112904Y-89820619D02*
X103922428Y-89820619D01*
X103922428Y-89820619D02*
X103827190Y-89868238D01*
X103827190Y-89868238D02*
X103779571Y-89915857D01*
X103779571Y-89915857D02*
X103731952Y-90011095D01*
X103303380Y-89534904D02*
X104303380Y-89201571D01*
X104303380Y-89201571D02*
X103303380Y-88868238D01*
X149785380Y-91868237D02*
X149785380Y-91249190D01*
X149785380Y-91249190D02*
X150166333Y-91582523D01*
X150166333Y-91582523D02*
X150166333Y-91439666D01*
X150166333Y-91439666D02*
X150213952Y-91344428D01*
X150213952Y-91344428D02*
X150261571Y-91296809D01*
X150261571Y-91296809D02*
X150356809Y-91249190D01*
X150356809Y-91249190D02*
X150594904Y-91249190D01*
X150594904Y-91249190D02*
X150690142Y-91296809D01*
X150690142Y-91296809D02*
X150737761Y-91344428D01*
X150737761Y-91344428D02*
X150785380Y-91439666D01*
X150785380Y-91439666D02*
X150785380Y-91725380D01*
X150785380Y-91725380D02*
X150737761Y-91820618D01*
X150737761Y-91820618D02*
X150690142Y-91868237D01*
X150690142Y-90820618D02*
X150737761Y-90772999D01*
X150737761Y-90772999D02*
X150785380Y-90820618D01*
X150785380Y-90820618D02*
X150737761Y-90868237D01*
X150737761Y-90868237D02*
X150690142Y-90820618D01*
X150690142Y-90820618D02*
X150785380Y-90820618D01*
X149785380Y-90439666D02*
X149785380Y-89820619D01*
X149785380Y-89820619D02*
X150166333Y-90153952D01*
X150166333Y-90153952D02*
X150166333Y-90011095D01*
X150166333Y-90011095D02*
X150213952Y-89915857D01*
X150213952Y-89915857D02*
X150261571Y-89868238D01*
X150261571Y-89868238D02*
X150356809Y-89820619D01*
X150356809Y-89820619D02*
X150594904Y-89820619D01*
X150594904Y-89820619D02*
X150690142Y-89868238D01*
X150690142Y-89868238D02*
X150737761Y-89915857D01*
X150737761Y-89915857D02*
X150785380Y-90011095D01*
X150785380Y-90011095D02*
X150785380Y-90296809D01*
X150785380Y-90296809D02*
X150737761Y-90392047D01*
X150737761Y-90392047D02*
X150690142Y-90439666D01*
X149785380Y-89534904D02*
X150785380Y-89201571D01*
X150785380Y-89201571D02*
X149785380Y-88868238D01*
X148245380Y-91249190D02*
X148245380Y-91820618D01*
X148245380Y-91534904D02*
X147245380Y-91534904D01*
X147245380Y-91534904D02*
X147388238Y-91630142D01*
X147388238Y-91630142D02*
X147483476Y-91725380D01*
X147483476Y-91725380D02*
X147531095Y-91820618D01*
X148150142Y-90820618D02*
X148197761Y-90772999D01*
X148197761Y-90772999D02*
X148245380Y-90820618D01*
X148245380Y-90820618D02*
X148197761Y-90868237D01*
X148197761Y-90868237D02*
X148150142Y-90820618D01*
X148150142Y-90820618D02*
X148245380Y-90820618D01*
X147673952Y-90201571D02*
X147626333Y-90296809D01*
X147626333Y-90296809D02*
X147578714Y-90344428D01*
X147578714Y-90344428D02*
X147483476Y-90392047D01*
X147483476Y-90392047D02*
X147435857Y-90392047D01*
X147435857Y-90392047D02*
X147340619Y-90344428D01*
X147340619Y-90344428D02*
X147293000Y-90296809D01*
X147293000Y-90296809D02*
X147245380Y-90201571D01*
X147245380Y-90201571D02*
X147245380Y-90011095D01*
X147245380Y-90011095D02*
X147293000Y-89915857D01*
X147293000Y-89915857D02*
X147340619Y-89868238D01*
X147340619Y-89868238D02*
X147435857Y-89820619D01*
X147435857Y-89820619D02*
X147483476Y-89820619D01*
X147483476Y-89820619D02*
X147578714Y-89868238D01*
X147578714Y-89868238D02*
X147626333Y-89915857D01*
X147626333Y-89915857D02*
X147673952Y-90011095D01*
X147673952Y-90011095D02*
X147673952Y-90201571D01*
X147673952Y-90201571D02*
X147721571Y-90296809D01*
X147721571Y-90296809D02*
X147769190Y-90344428D01*
X147769190Y-90344428D02*
X147864428Y-90392047D01*
X147864428Y-90392047D02*
X148054904Y-90392047D01*
X148054904Y-90392047D02*
X148150142Y-90344428D01*
X148150142Y-90344428D02*
X148197761Y-90296809D01*
X148197761Y-90296809D02*
X148245380Y-90201571D01*
X148245380Y-90201571D02*
X148245380Y-90011095D01*
X148245380Y-90011095D02*
X148197761Y-89915857D01*
X148197761Y-89915857D02*
X148150142Y-89868238D01*
X148150142Y-89868238D02*
X148054904Y-89820619D01*
X148054904Y-89820619D02*
X147864428Y-89820619D01*
X147864428Y-89820619D02*
X147769190Y-89868238D01*
X147769190Y-89868238D02*
X147721571Y-89915857D01*
X147721571Y-89915857D02*
X147673952Y-90011095D01*
X147245380Y-89534904D02*
X148245380Y-89201571D01*
X148245380Y-89201571D02*
X147245380Y-88868238D01*
X108383380Y-89868238D02*
X108383380Y-90344428D01*
X108383380Y-90344428D02*
X108859571Y-90392047D01*
X108859571Y-90392047D02*
X108811952Y-90344428D01*
X108811952Y-90344428D02*
X108764333Y-90249190D01*
X108764333Y-90249190D02*
X108764333Y-90011095D01*
X108764333Y-90011095D02*
X108811952Y-89915857D01*
X108811952Y-89915857D02*
X108859571Y-89868238D01*
X108859571Y-89868238D02*
X108954809Y-89820619D01*
X108954809Y-89820619D02*
X109192904Y-89820619D01*
X109192904Y-89820619D02*
X109288142Y-89868238D01*
X109288142Y-89868238D02*
X109335761Y-89915857D01*
X109335761Y-89915857D02*
X109383380Y-90011095D01*
X109383380Y-90011095D02*
X109383380Y-90249190D01*
X109383380Y-90249190D02*
X109335761Y-90344428D01*
X109335761Y-90344428D02*
X109288142Y-90392047D01*
X108383380Y-89534904D02*
X109383380Y-89201571D01*
X109383380Y-89201571D02*
X108383380Y-88868238D01*
D11*
%TO.C,D3*%
X114579571Y-76493904D02*
X114579571Y-75693904D01*
X114579571Y-75693904D02*
X114770047Y-75693904D01*
X114770047Y-75693904D02*
X114884333Y-75732000D01*
X114884333Y-75732000D02*
X114960523Y-75808190D01*
X114960523Y-75808190D02*
X114998618Y-75884380D01*
X114998618Y-75884380D02*
X115036714Y-76036761D01*
X115036714Y-76036761D02*
X115036714Y-76151047D01*
X115036714Y-76151047D02*
X114998618Y-76303428D01*
X114998618Y-76303428D02*
X114960523Y-76379619D01*
X114960523Y-76379619D02*
X114884333Y-76455809D01*
X114884333Y-76455809D02*
X114770047Y-76493904D01*
X114770047Y-76493904D02*
X114579571Y-76493904D01*
X115303380Y-75693904D02*
X115798618Y-75693904D01*
X115798618Y-75693904D02*
X115531952Y-75998666D01*
X115531952Y-75998666D02*
X115646237Y-75998666D01*
X115646237Y-75998666D02*
X115722428Y-76036761D01*
X115722428Y-76036761D02*
X115760523Y-76074857D01*
X115760523Y-76074857D02*
X115798618Y-76151047D01*
X115798618Y-76151047D02*
X115798618Y-76341523D01*
X115798618Y-76341523D02*
X115760523Y-76417714D01*
X115760523Y-76417714D02*
X115722428Y-76455809D01*
X115722428Y-76455809D02*
X115646237Y-76493904D01*
X115646237Y-76493904D02*
X115417666Y-76493904D01*
X115417666Y-76493904D02*
X115341475Y-76455809D01*
X115341475Y-76455809D02*
X115303380Y-76417714D01*
%TO.C,C5*%
X142976714Y-76859714D02*
X142938618Y-76897809D01*
X142938618Y-76897809D02*
X142824333Y-76935904D01*
X142824333Y-76935904D02*
X142748142Y-76935904D01*
X142748142Y-76935904D02*
X142633856Y-76897809D01*
X142633856Y-76897809D02*
X142557666Y-76821619D01*
X142557666Y-76821619D02*
X142519571Y-76745428D01*
X142519571Y-76745428D02*
X142481475Y-76593047D01*
X142481475Y-76593047D02*
X142481475Y-76478761D01*
X142481475Y-76478761D02*
X142519571Y-76326380D01*
X142519571Y-76326380D02*
X142557666Y-76250190D01*
X142557666Y-76250190D02*
X142633856Y-76174000D01*
X142633856Y-76174000D02*
X142748142Y-76135904D01*
X142748142Y-76135904D02*
X142824333Y-76135904D01*
X142824333Y-76135904D02*
X142938618Y-76174000D01*
X142938618Y-76174000D02*
X142976714Y-76212095D01*
X143700523Y-76135904D02*
X143319571Y-76135904D01*
X143319571Y-76135904D02*
X143281475Y-76516857D01*
X143281475Y-76516857D02*
X143319571Y-76478761D01*
X143319571Y-76478761D02*
X143395761Y-76440666D01*
X143395761Y-76440666D02*
X143586237Y-76440666D01*
X143586237Y-76440666D02*
X143662428Y-76478761D01*
X143662428Y-76478761D02*
X143700523Y-76516857D01*
X143700523Y-76516857D02*
X143738618Y-76593047D01*
X143738618Y-76593047D02*
X143738618Y-76783523D01*
X143738618Y-76783523D02*
X143700523Y-76859714D01*
X143700523Y-76859714D02*
X143662428Y-76897809D01*
X143662428Y-76897809D02*
X143586237Y-76935904D01*
X143586237Y-76935904D02*
X143395761Y-76935904D01*
X143395761Y-76935904D02*
X143319571Y-76897809D01*
X143319571Y-76897809D02*
X143281475Y-76859714D01*
%TO.C,R3*%
X121678619Y-76493904D02*
X121411952Y-76112952D01*
X121221476Y-76493904D02*
X121221476Y-75693904D01*
X121221476Y-75693904D02*
X121526238Y-75693904D01*
X121526238Y-75693904D02*
X121602428Y-75732000D01*
X121602428Y-75732000D02*
X121640523Y-75770095D01*
X121640523Y-75770095D02*
X121678619Y-75846285D01*
X121678619Y-75846285D02*
X121678619Y-75960571D01*
X121678619Y-75960571D02*
X121640523Y-76036761D01*
X121640523Y-76036761D02*
X121602428Y-76074857D01*
X121602428Y-76074857D02*
X121526238Y-76112952D01*
X121526238Y-76112952D02*
X121221476Y-76112952D01*
X121945285Y-75693904D02*
X122440523Y-75693904D01*
X122440523Y-75693904D02*
X122173857Y-75998666D01*
X122173857Y-75998666D02*
X122288142Y-75998666D01*
X122288142Y-75998666D02*
X122364333Y-76036761D01*
X122364333Y-76036761D02*
X122402428Y-76074857D01*
X122402428Y-76074857D02*
X122440523Y-76151047D01*
X122440523Y-76151047D02*
X122440523Y-76341523D01*
X122440523Y-76341523D02*
X122402428Y-76417714D01*
X122402428Y-76417714D02*
X122364333Y-76455809D01*
X122364333Y-76455809D02*
X122288142Y-76493904D01*
X122288142Y-76493904D02*
X122059571Y-76493904D01*
X122059571Y-76493904D02*
X121983380Y-76455809D01*
X121983380Y-76455809D02*
X121945285Y-76417714D01*
%TO.C,J2*%
X153185047Y-81789904D02*
X153185047Y-82361333D01*
X153185047Y-82361333D02*
X153146952Y-82475619D01*
X153146952Y-82475619D02*
X153070761Y-82551809D01*
X153070761Y-82551809D02*
X152956476Y-82589904D01*
X152956476Y-82589904D02*
X152880285Y-82589904D01*
X153527904Y-81866095D02*
X153566000Y-81828000D01*
X153566000Y-81828000D02*
X153642190Y-81789904D01*
X153642190Y-81789904D02*
X153832666Y-81789904D01*
X153832666Y-81789904D02*
X153908857Y-81828000D01*
X153908857Y-81828000D02*
X153946952Y-81866095D01*
X153946952Y-81866095D02*
X153985047Y-81942285D01*
X153985047Y-81942285D02*
X153985047Y-82018476D01*
X153985047Y-82018476D02*
X153946952Y-82132761D01*
X153946952Y-82132761D02*
X153489809Y-82589904D01*
X153489809Y-82589904D02*
X153985047Y-82589904D01*
%TO.C,C8*%
X114058619Y-80128714D02*
X114020523Y-80166809D01*
X114020523Y-80166809D02*
X113906238Y-80204904D01*
X113906238Y-80204904D02*
X113830047Y-80204904D01*
X113830047Y-80204904D02*
X113715761Y-80166809D01*
X113715761Y-80166809D02*
X113639571Y-80090619D01*
X113639571Y-80090619D02*
X113601476Y-80014428D01*
X113601476Y-80014428D02*
X113563380Y-79862047D01*
X113563380Y-79862047D02*
X113563380Y-79747761D01*
X113563380Y-79747761D02*
X113601476Y-79595380D01*
X113601476Y-79595380D02*
X113639571Y-79519190D01*
X113639571Y-79519190D02*
X113715761Y-79443000D01*
X113715761Y-79443000D02*
X113830047Y-79404904D01*
X113830047Y-79404904D02*
X113906238Y-79404904D01*
X113906238Y-79404904D02*
X114020523Y-79443000D01*
X114020523Y-79443000D02*
X114058619Y-79481095D01*
X114515761Y-79747761D02*
X114439571Y-79709666D01*
X114439571Y-79709666D02*
X114401476Y-79671571D01*
X114401476Y-79671571D02*
X114363380Y-79595380D01*
X114363380Y-79595380D02*
X114363380Y-79557285D01*
X114363380Y-79557285D02*
X114401476Y-79481095D01*
X114401476Y-79481095D02*
X114439571Y-79443000D01*
X114439571Y-79443000D02*
X114515761Y-79404904D01*
X114515761Y-79404904D02*
X114668142Y-79404904D01*
X114668142Y-79404904D02*
X114744333Y-79443000D01*
X114744333Y-79443000D02*
X114782428Y-79481095D01*
X114782428Y-79481095D02*
X114820523Y-79557285D01*
X114820523Y-79557285D02*
X114820523Y-79595380D01*
X114820523Y-79595380D02*
X114782428Y-79671571D01*
X114782428Y-79671571D02*
X114744333Y-79709666D01*
X114744333Y-79709666D02*
X114668142Y-79747761D01*
X114668142Y-79747761D02*
X114515761Y-79747761D01*
X114515761Y-79747761D02*
X114439571Y-79785857D01*
X114439571Y-79785857D02*
X114401476Y-79823952D01*
X114401476Y-79823952D02*
X114363380Y-79900142D01*
X114363380Y-79900142D02*
X114363380Y-80052523D01*
X114363380Y-80052523D02*
X114401476Y-80128714D01*
X114401476Y-80128714D02*
X114439571Y-80166809D01*
X114439571Y-80166809D02*
X114515761Y-80204904D01*
X114515761Y-80204904D02*
X114668142Y-80204904D01*
X114668142Y-80204904D02*
X114744333Y-80166809D01*
X114744333Y-80166809D02*
X114782428Y-80128714D01*
X114782428Y-80128714D02*
X114820523Y-80052523D01*
X114820523Y-80052523D02*
X114820523Y-79900142D01*
X114820523Y-79900142D02*
X114782428Y-79823952D01*
X114782428Y-79823952D02*
X114744333Y-79785857D01*
X114744333Y-79785857D02*
X114668142Y-79747761D01*
%TO.C,C7*%
X141960714Y-78195714D02*
X141922618Y-78233809D01*
X141922618Y-78233809D02*
X141808333Y-78271904D01*
X141808333Y-78271904D02*
X141732142Y-78271904D01*
X141732142Y-78271904D02*
X141617856Y-78233809D01*
X141617856Y-78233809D02*
X141541666Y-78157619D01*
X141541666Y-78157619D02*
X141503571Y-78081428D01*
X141503571Y-78081428D02*
X141465475Y-77929047D01*
X141465475Y-77929047D02*
X141465475Y-77814761D01*
X141465475Y-77814761D02*
X141503571Y-77662380D01*
X141503571Y-77662380D02*
X141541666Y-77586190D01*
X141541666Y-77586190D02*
X141617856Y-77510000D01*
X141617856Y-77510000D02*
X141732142Y-77471904D01*
X141732142Y-77471904D02*
X141808333Y-77471904D01*
X141808333Y-77471904D02*
X141922618Y-77510000D01*
X141922618Y-77510000D02*
X141960714Y-77548095D01*
X142227380Y-77471904D02*
X142760714Y-77471904D01*
X142760714Y-77471904D02*
X142417856Y-78271904D01*
%TO.C,R2*%
X135121667Y-81533904D02*
X134855000Y-81152952D01*
X134664524Y-81533904D02*
X134664524Y-80733904D01*
X134664524Y-80733904D02*
X134969286Y-80733904D01*
X134969286Y-80733904D02*
X135045476Y-80772000D01*
X135045476Y-80772000D02*
X135083571Y-80810095D01*
X135083571Y-80810095D02*
X135121667Y-80886285D01*
X135121667Y-80886285D02*
X135121667Y-81000571D01*
X135121667Y-81000571D02*
X135083571Y-81076761D01*
X135083571Y-81076761D02*
X135045476Y-81114857D01*
X135045476Y-81114857D02*
X134969286Y-81152952D01*
X134969286Y-81152952D02*
X134664524Y-81152952D01*
X135426428Y-80810095D02*
X135464524Y-80772000D01*
X135464524Y-80772000D02*
X135540714Y-80733904D01*
X135540714Y-80733904D02*
X135731190Y-80733904D01*
X135731190Y-80733904D02*
X135807381Y-80772000D01*
X135807381Y-80772000D02*
X135845476Y-80810095D01*
X135845476Y-80810095D02*
X135883571Y-80886285D01*
X135883571Y-80886285D02*
X135883571Y-80962476D01*
X135883571Y-80962476D02*
X135845476Y-81076761D01*
X135845476Y-81076761D02*
X135388333Y-81533904D01*
X135388333Y-81533904D02*
X135883571Y-81533904D01*
%TO.C,C2*%
X114058619Y-77941714D02*
X114020523Y-77979809D01*
X114020523Y-77979809D02*
X113906238Y-78017904D01*
X113906238Y-78017904D02*
X113830047Y-78017904D01*
X113830047Y-78017904D02*
X113715761Y-77979809D01*
X113715761Y-77979809D02*
X113639571Y-77903619D01*
X113639571Y-77903619D02*
X113601476Y-77827428D01*
X113601476Y-77827428D02*
X113563380Y-77675047D01*
X113563380Y-77675047D02*
X113563380Y-77560761D01*
X113563380Y-77560761D02*
X113601476Y-77408380D01*
X113601476Y-77408380D02*
X113639571Y-77332190D01*
X113639571Y-77332190D02*
X113715761Y-77256000D01*
X113715761Y-77256000D02*
X113830047Y-77217904D01*
X113830047Y-77217904D02*
X113906238Y-77217904D01*
X113906238Y-77217904D02*
X114020523Y-77256000D01*
X114020523Y-77256000D02*
X114058619Y-77294095D01*
X114363380Y-77294095D02*
X114401476Y-77256000D01*
X114401476Y-77256000D02*
X114477666Y-77217904D01*
X114477666Y-77217904D02*
X114668142Y-77217904D01*
X114668142Y-77217904D02*
X114744333Y-77256000D01*
X114744333Y-77256000D02*
X114782428Y-77294095D01*
X114782428Y-77294095D02*
X114820523Y-77370285D01*
X114820523Y-77370285D02*
X114820523Y-77446476D01*
X114820523Y-77446476D02*
X114782428Y-77560761D01*
X114782428Y-77560761D02*
X114325285Y-78017904D01*
X114325285Y-78017904D02*
X114820523Y-78017904D01*
%TO.C,C4*%
X113042619Y-76417714D02*
X113004523Y-76455809D01*
X113004523Y-76455809D02*
X112890238Y-76493904D01*
X112890238Y-76493904D02*
X112814047Y-76493904D01*
X112814047Y-76493904D02*
X112699761Y-76455809D01*
X112699761Y-76455809D02*
X112623571Y-76379619D01*
X112623571Y-76379619D02*
X112585476Y-76303428D01*
X112585476Y-76303428D02*
X112547380Y-76151047D01*
X112547380Y-76151047D02*
X112547380Y-76036761D01*
X112547380Y-76036761D02*
X112585476Y-75884380D01*
X112585476Y-75884380D02*
X112623571Y-75808190D01*
X112623571Y-75808190D02*
X112699761Y-75732000D01*
X112699761Y-75732000D02*
X112814047Y-75693904D01*
X112814047Y-75693904D02*
X112890238Y-75693904D01*
X112890238Y-75693904D02*
X113004523Y-75732000D01*
X113004523Y-75732000D02*
X113042619Y-75770095D01*
X113728333Y-75960571D02*
X113728333Y-76493904D01*
X113537857Y-75655809D02*
X113347380Y-76227238D01*
X113347380Y-76227238D02*
X113842619Y-76227238D01*
%TO.C,C3*%
X144773667Y-83616714D02*
X144735571Y-83654809D01*
X144735571Y-83654809D02*
X144621286Y-83692904D01*
X144621286Y-83692904D02*
X144545095Y-83692904D01*
X144545095Y-83692904D02*
X144430809Y-83654809D01*
X144430809Y-83654809D02*
X144354619Y-83578619D01*
X144354619Y-83578619D02*
X144316524Y-83502428D01*
X144316524Y-83502428D02*
X144278428Y-83350047D01*
X144278428Y-83350047D02*
X144278428Y-83235761D01*
X144278428Y-83235761D02*
X144316524Y-83083380D01*
X144316524Y-83083380D02*
X144354619Y-83007190D01*
X144354619Y-83007190D02*
X144430809Y-82931000D01*
X144430809Y-82931000D02*
X144545095Y-82892904D01*
X144545095Y-82892904D02*
X144621286Y-82892904D01*
X144621286Y-82892904D02*
X144735571Y-82931000D01*
X144735571Y-82931000D02*
X144773667Y-82969095D01*
X145040333Y-82892904D02*
X145535571Y-82892904D01*
X145535571Y-82892904D02*
X145268905Y-83197666D01*
X145268905Y-83197666D02*
X145383190Y-83197666D01*
X145383190Y-83197666D02*
X145459381Y-83235761D01*
X145459381Y-83235761D02*
X145497476Y-83273857D01*
X145497476Y-83273857D02*
X145535571Y-83350047D01*
X145535571Y-83350047D02*
X145535571Y-83540523D01*
X145535571Y-83540523D02*
X145497476Y-83616714D01*
X145497476Y-83616714D02*
X145459381Y-83654809D01*
X145459381Y-83654809D02*
X145383190Y-83692904D01*
X145383190Y-83692904D02*
X145154619Y-83692904D01*
X145154619Y-83692904D02*
X145078428Y-83654809D01*
X145078428Y-83654809D02*
X145040333Y-83616714D01*
%TO.C,D1*%
X140779476Y-76453904D02*
X140779476Y-75653904D01*
X140779476Y-75653904D02*
X140969952Y-75653904D01*
X140969952Y-75653904D02*
X141084238Y-75692000D01*
X141084238Y-75692000D02*
X141160428Y-75768190D01*
X141160428Y-75768190D02*
X141198523Y-75844380D01*
X141198523Y-75844380D02*
X141236619Y-75996761D01*
X141236619Y-75996761D02*
X141236619Y-76111047D01*
X141236619Y-76111047D02*
X141198523Y-76263428D01*
X141198523Y-76263428D02*
X141160428Y-76339619D01*
X141160428Y-76339619D02*
X141084238Y-76415809D01*
X141084238Y-76415809D02*
X140969952Y-76453904D01*
X140969952Y-76453904D02*
X140779476Y-76453904D01*
X141998523Y-76453904D02*
X141541380Y-76453904D01*
X141769952Y-76453904D02*
X141769952Y-75653904D01*
X141769952Y-75653904D02*
X141693761Y-75768190D01*
X141693761Y-75768190D02*
X141617571Y-75844380D01*
X141617571Y-75844380D02*
X141541380Y-75882476D01*
%TO.C,C1*%
X141960714Y-81624714D02*
X141922618Y-81662809D01*
X141922618Y-81662809D02*
X141808333Y-81700904D01*
X141808333Y-81700904D02*
X141732142Y-81700904D01*
X141732142Y-81700904D02*
X141617856Y-81662809D01*
X141617856Y-81662809D02*
X141541666Y-81586619D01*
X141541666Y-81586619D02*
X141503571Y-81510428D01*
X141503571Y-81510428D02*
X141465475Y-81358047D01*
X141465475Y-81358047D02*
X141465475Y-81243761D01*
X141465475Y-81243761D02*
X141503571Y-81091380D01*
X141503571Y-81091380D02*
X141541666Y-81015190D01*
X141541666Y-81015190D02*
X141617856Y-80939000D01*
X141617856Y-80939000D02*
X141732142Y-80900904D01*
X141732142Y-80900904D02*
X141808333Y-80900904D01*
X141808333Y-80900904D02*
X141922618Y-80939000D01*
X141922618Y-80939000D02*
X141960714Y-80977095D01*
X142722618Y-81700904D02*
X142265475Y-81700904D01*
X142494047Y-81700904D02*
X142494047Y-80900904D01*
X142494047Y-80900904D02*
X142417856Y-81015190D01*
X142417856Y-81015190D02*
X142341666Y-81091380D01*
X142341666Y-81091380D02*
X142265475Y-81129476D01*
%TO.C,R1*%
X133832714Y-78271904D02*
X133566047Y-77890952D01*
X133375571Y-78271904D02*
X133375571Y-77471904D01*
X133375571Y-77471904D02*
X133680333Y-77471904D01*
X133680333Y-77471904D02*
X133756523Y-77510000D01*
X133756523Y-77510000D02*
X133794618Y-77548095D01*
X133794618Y-77548095D02*
X133832714Y-77624285D01*
X133832714Y-77624285D02*
X133832714Y-77738571D01*
X133832714Y-77738571D02*
X133794618Y-77814761D01*
X133794618Y-77814761D02*
X133756523Y-77852857D01*
X133756523Y-77852857D02*
X133680333Y-77890952D01*
X133680333Y-77890952D02*
X133375571Y-77890952D01*
X134594618Y-78271904D02*
X134137475Y-78271904D01*
X134366047Y-78271904D02*
X134366047Y-77471904D01*
X134366047Y-77471904D02*
X134289856Y-77586190D01*
X134289856Y-77586190D02*
X134213666Y-77662380D01*
X134213666Y-77662380D02*
X134137475Y-77700476D01*
%TO.C,J1*%
X122126523Y-79250380D02*
X122126523Y-79964666D01*
X122126523Y-79964666D02*
X122078904Y-80107523D01*
X122078904Y-80107523D02*
X121983666Y-80202761D01*
X121983666Y-80202761D02*
X121840809Y-80250380D01*
X121840809Y-80250380D02*
X121745571Y-80250380D01*
X123126523Y-80250380D02*
X122555095Y-80250380D01*
X122840809Y-80250380D02*
X122840809Y-79250380D01*
X122840809Y-79250380D02*
X122745571Y-79393238D01*
X122745571Y-79393238D02*
X122650333Y-79488476D01*
X122650333Y-79488476D02*
X122555095Y-79536095D01*
%TO.C,J3*%
X102908047Y-81789904D02*
X102908047Y-82361333D01*
X102908047Y-82361333D02*
X102869952Y-82475619D01*
X102869952Y-82475619D02*
X102793761Y-82551809D01*
X102793761Y-82551809D02*
X102679476Y-82589904D01*
X102679476Y-82589904D02*
X102603285Y-82589904D01*
X103212809Y-81789904D02*
X103708047Y-81789904D01*
X103708047Y-81789904D02*
X103441381Y-82094666D01*
X103441381Y-82094666D02*
X103555666Y-82094666D01*
X103555666Y-82094666D02*
X103631857Y-82132761D01*
X103631857Y-82132761D02*
X103669952Y-82170857D01*
X103669952Y-82170857D02*
X103708047Y-82247047D01*
X103708047Y-82247047D02*
X103708047Y-82437523D01*
X103708047Y-82437523D02*
X103669952Y-82513714D01*
X103669952Y-82513714D02*
X103631857Y-82551809D01*
X103631857Y-82551809D02*
X103555666Y-82589904D01*
X103555666Y-82589904D02*
X103327095Y-82589904D01*
X103327095Y-82589904D02*
X103250904Y-82551809D01*
X103250904Y-82551809D02*
X103212809Y-82513714D01*
%TO.C,U2*%
X153187476Y-75693904D02*
X153187476Y-76341523D01*
X153187476Y-76341523D02*
X153225571Y-76417714D01*
X153225571Y-76417714D02*
X153263666Y-76455809D01*
X153263666Y-76455809D02*
X153339857Y-76493904D01*
X153339857Y-76493904D02*
X153492238Y-76493904D01*
X153492238Y-76493904D02*
X153568428Y-76455809D01*
X153568428Y-76455809D02*
X153606523Y-76417714D01*
X153606523Y-76417714D02*
X153644619Y-76341523D01*
X153644619Y-76341523D02*
X153644619Y-75693904D01*
X153987475Y-75770095D02*
X154025571Y-75732000D01*
X154025571Y-75732000D02*
X154101761Y-75693904D01*
X154101761Y-75693904D02*
X154292237Y-75693904D01*
X154292237Y-75693904D02*
X154368428Y-75732000D01*
X154368428Y-75732000D02*
X154406523Y-75770095D01*
X154406523Y-75770095D02*
X154444618Y-75846285D01*
X154444618Y-75846285D02*
X154444618Y-75922476D01*
X154444618Y-75922476D02*
X154406523Y-76036761D01*
X154406523Y-76036761D02*
X153949380Y-76493904D01*
X153949380Y-76493904D02*
X154444618Y-76493904D01*
%TO.C,R4*%
X134594714Y-76493904D02*
X134328047Y-76112952D01*
X134137571Y-76493904D02*
X134137571Y-75693904D01*
X134137571Y-75693904D02*
X134442333Y-75693904D01*
X134442333Y-75693904D02*
X134518523Y-75732000D01*
X134518523Y-75732000D02*
X134556618Y-75770095D01*
X134556618Y-75770095D02*
X134594714Y-75846285D01*
X134594714Y-75846285D02*
X134594714Y-75960571D01*
X134594714Y-75960571D02*
X134556618Y-76036761D01*
X134556618Y-76036761D02*
X134518523Y-76074857D01*
X134518523Y-76074857D02*
X134442333Y-76112952D01*
X134442333Y-76112952D02*
X134137571Y-76112952D01*
X135280428Y-75960571D02*
X135280428Y-76493904D01*
X135089952Y-75655809D02*
X134899475Y-76227238D01*
X134899475Y-76227238D02*
X135394714Y-76227238D01*
%TO.C,U1*%
X102222476Y-75693904D02*
X102222476Y-76341523D01*
X102222476Y-76341523D02*
X102260571Y-76417714D01*
X102260571Y-76417714D02*
X102298666Y-76455809D01*
X102298666Y-76455809D02*
X102374857Y-76493904D01*
X102374857Y-76493904D02*
X102527238Y-76493904D01*
X102527238Y-76493904D02*
X102603428Y-76455809D01*
X102603428Y-76455809D02*
X102641523Y-76417714D01*
X102641523Y-76417714D02*
X102679619Y-76341523D01*
X102679619Y-76341523D02*
X102679619Y-75693904D01*
X103479618Y-76493904D02*
X103022475Y-76493904D01*
X103251047Y-76493904D02*
X103251047Y-75693904D01*
X103251047Y-75693904D02*
X103174856Y-75808190D01*
X103174856Y-75808190D02*
X103098666Y-75884380D01*
X103098666Y-75884380D02*
X103022475Y-75922476D01*
%TO.C,C6*%
X111245667Y-82981714D02*
X111207571Y-83019809D01*
X111207571Y-83019809D02*
X111093286Y-83057904D01*
X111093286Y-83057904D02*
X111017095Y-83057904D01*
X111017095Y-83057904D02*
X110902809Y-83019809D01*
X110902809Y-83019809D02*
X110826619Y-82943619D01*
X110826619Y-82943619D02*
X110788524Y-82867428D01*
X110788524Y-82867428D02*
X110750428Y-82715047D01*
X110750428Y-82715047D02*
X110750428Y-82600761D01*
X110750428Y-82600761D02*
X110788524Y-82448380D01*
X110788524Y-82448380D02*
X110826619Y-82372190D01*
X110826619Y-82372190D02*
X110902809Y-82296000D01*
X110902809Y-82296000D02*
X111017095Y-82257904D01*
X111017095Y-82257904D02*
X111093286Y-82257904D01*
X111093286Y-82257904D02*
X111207571Y-82296000D01*
X111207571Y-82296000D02*
X111245667Y-82334095D01*
X111931381Y-82257904D02*
X111779000Y-82257904D01*
X111779000Y-82257904D02*
X111702809Y-82296000D01*
X111702809Y-82296000D02*
X111664714Y-82334095D01*
X111664714Y-82334095D02*
X111588524Y-82448380D01*
X111588524Y-82448380D02*
X111550428Y-82600761D01*
X111550428Y-82600761D02*
X111550428Y-82905523D01*
X111550428Y-82905523D02*
X111588524Y-82981714D01*
X111588524Y-82981714D02*
X111626619Y-83019809D01*
X111626619Y-83019809D02*
X111702809Y-83057904D01*
X111702809Y-83057904D02*
X111855190Y-83057904D01*
X111855190Y-83057904D02*
X111931381Y-83019809D01*
X111931381Y-83019809D02*
X111969476Y-82981714D01*
X111969476Y-82981714D02*
X112007571Y-82905523D01*
X112007571Y-82905523D02*
X112007571Y-82715047D01*
X112007571Y-82715047D02*
X111969476Y-82638857D01*
X111969476Y-82638857D02*
X111931381Y-82600761D01*
X111931381Y-82600761D02*
X111855190Y-82562666D01*
X111855190Y-82562666D02*
X111702809Y-82562666D01*
X111702809Y-82562666D02*
X111626619Y-82600761D01*
X111626619Y-82600761D02*
X111588524Y-82638857D01*
X111588524Y-82638857D02*
X111550428Y-82715047D01*
D12*
%TO.C,D3*%
X118960000Y-76808000D02*
X118960000Y-75338000D01*
X118960000Y-75338000D02*
X116675000Y-75338000D01*
X116675000Y-76808000D02*
X118960000Y-76808000D01*
%TO.C,C5*%
X144172000Y-77858252D02*
X144172000Y-77335748D01*
X145642000Y-77858252D02*
X145642000Y-77335748D01*
D13*
%TO.C,TP3*%
X137100000Y-83568000D02*
X139700000Y-83568000D01*
X139700000Y-82548000D02*
X137100000Y-82548000D01*
D12*
%TO.C,R3*%
X119861359Y-75693000D02*
X120168641Y-75693000D01*
X119861359Y-76453000D02*
X120168641Y-76453000D01*
%TO.C,J2*%
X154096000Y-82998000D02*
X154096000Y-84328000D01*
X152766000Y-82998000D02*
X154096000Y-82998000D01*
X151496000Y-82998000D02*
X146356000Y-82998000D01*
X151496000Y-82998000D02*
X151496000Y-85598000D01*
X146356000Y-82998000D02*
X146356000Y-88198000D01*
X154096000Y-85598000D02*
X154096000Y-88198000D01*
X151496000Y-85598000D02*
X154096000Y-85598000D01*
X154096000Y-88198000D02*
X146356000Y-88198000D01*
%TO.C,C8*%
X113263000Y-80156164D02*
X113263000Y-80371836D01*
X112543000Y-80156164D02*
X112543000Y-80371836D01*
%TO.C,C7*%
X143023000Y-78085836D02*
X143023000Y-77870164D01*
X143743000Y-78085836D02*
X143743000Y-77870164D01*
D13*
%TO.C,TP2*%
X119440000Y-82552000D02*
X116840000Y-82552000D01*
X116840000Y-83572000D02*
X119440000Y-83572000D01*
D12*
%TO.C,R2*%
X135635000Y-79475359D02*
X135635000Y-79782641D01*
X134875000Y-79475359D02*
X134875000Y-79782641D01*
%TO.C,C2*%
X112543000Y-77831836D02*
X112543000Y-77616164D01*
X113263000Y-77831836D02*
X113263000Y-77616164D01*
%TO.C,C4*%
X110644000Y-77223252D02*
X110644000Y-76700748D01*
X112114000Y-77223252D02*
X112114000Y-76700748D01*
%TO.C,C3*%
X144172000Y-81287252D02*
X144172000Y-80764748D01*
X145642000Y-81287252D02*
X145642000Y-80764748D01*
%TO.C,D1*%
X137580000Y-75338000D02*
X137580000Y-76808000D01*
X137580000Y-76808000D02*
X139865000Y-76808000D01*
X139865000Y-75338000D02*
X137580000Y-75338000D01*
%TO.C,C1*%
X143023000Y-81514836D02*
X143023000Y-81299164D01*
X143743000Y-81514836D02*
X143743000Y-81299164D01*
%TO.C,R1*%
X134875000Y-77877641D02*
X134875000Y-77570359D01*
X135635000Y-77877641D02*
X135635000Y-77570359D01*
D14*
%TO.C,J1*%
X132742000Y-80228000D02*
X132742000Y-79428000D01*
X132742000Y-76428000D02*
X132742000Y-75378000D01*
X132742000Y-75378000D02*
X123802000Y-75378000D01*
X128772000Y-83328000D02*
X128772000Y-83328000D01*
X128772000Y-83328000D02*
X128772000Y-83328000D01*
X128772000Y-83228000D02*
X128772000Y-83228000D01*
X123802000Y-80228000D02*
X123802000Y-79428000D01*
X123802000Y-75378000D02*
X123802000Y-76428000D01*
X128772000Y-83228000D02*
G75*
G03*
X128772000Y-83328000I0J-50000D01*
G01*
X128772000Y-83328000D02*
G75*
G03*
X128772000Y-83228000I0J50000D01*
G01*
X128772000Y-83328000D02*
G75*
G03*
X128772000Y-83228000I0J50000D01*
G01*
D12*
%TO.C,J3*%
X110154000Y-82998000D02*
X110154000Y-84328000D01*
X108824000Y-82998000D02*
X110154000Y-82998000D01*
X107554000Y-82998000D02*
X102414000Y-82998000D01*
X107554000Y-82998000D02*
X107554000Y-85598000D01*
X102414000Y-82998000D02*
X102414000Y-88198000D01*
X110154000Y-85598000D02*
X110154000Y-88198000D01*
X107554000Y-85598000D02*
X110154000Y-85598000D01*
X110154000Y-88198000D02*
X102414000Y-88198000D01*
%TO.C,U2*%
X146522000Y-75457000D02*
X152532000Y-75457000D01*
X148772000Y-82277000D02*
X152532000Y-82277000D01*
X152532000Y-75457000D02*
X152532000Y-76717000D01*
X152532000Y-82277000D02*
X152532000Y-81017000D01*
D13*
%TO.C,TP1*%
X104969000Y-97536000D02*
X107569000Y-97536000D01*
X107569000Y-96516000D02*
X104969000Y-96516000D01*
%TO.C,TP4*%
X148911000Y-97536000D02*
X151511000Y-97536000D01*
X151511000Y-96516000D02*
X148911000Y-96516000D01*
D12*
%TO.C,R4*%
X136678641Y-76453000D02*
X136371359Y-76453000D01*
X136678641Y-75693000D02*
X136371359Y-75693000D01*
%TO.C,U1*%
X110018000Y-82277000D02*
X104008000Y-82277000D01*
X107768000Y-75457000D02*
X104008000Y-75457000D01*
X104008000Y-82277000D02*
X104008000Y-81017000D01*
X104008000Y-75457000D02*
X104008000Y-76717000D01*
%TO.C,C6*%
X112114000Y-80157748D02*
X112114000Y-80680252D01*
X110644000Y-80157748D02*
X110644000Y-80680252D01*
%TD*%
M02*
