%TF.GenerationSoftware,KiCad,Pcbnew,(6.0.10-0)*%
%TF.CreationDate,2023-02-05T19:55:00-07:00*%
%TF.ProjectId,Breadboard Power Supply,42726561-6462-46f6-9172-6420506f7765,v1*%
%TF.SameCoordinates,Original*%
%TF.FileFunction,Paste,Top*%
%TF.FilePolarity,Positive*%
%FSLAX46Y46*%
G04 Gerber Fmt 4.6, Leading zero omitted, Abs format (unit mm)*
G04 Created by KiCad (PCBNEW (6.0.10-0)) date 2023-02-05 19:55:00*
%MOMM*%
%LPD*%
G01*
G04 APERTURE LIST*
G04 Aperture macros list*
%AMRoundRect*
0 Rectangle with rounded corners*
0 $1 Rounding radius*
0 $2 $3 $4 $5 $6 $7 $8 $9 X,Y pos of 4 corners*
0 Add a 4 corners polygon primitive as box body*
4,1,4,$2,$3,$4,$5,$6,$7,$8,$9,$2,$3,0*
0 Add four circle primitives for the rounded corners*
1,1,$1+$1,$2,$3*
1,1,$1+$1,$4,$5*
1,1,$1+$1,$6,$7*
1,1,$1+$1,$8,$9*
0 Add four rect primitives between the rounded corners*
20,1,$1+$1,$2,$3,$4,$5,0*
20,1,$1+$1,$4,$5,$6,$7,0*
20,1,$1+$1,$6,$7,$8,$9,0*
20,1,$1+$1,$8,$9,$2,$3,0*%
G04 Aperture macros list end*
%ADD10RoundRect,0.243750X0.456250X-0.243750X0.456250X0.243750X-0.456250X0.243750X-0.456250X-0.243750X0*%
%ADD11RoundRect,0.250000X-0.262500X-0.450000X0.262500X-0.450000X0.262500X0.450000X-0.262500X0.450000X0*%
%ADD12RoundRect,0.250000X-0.475000X0.250000X-0.475000X-0.250000X0.475000X-0.250000X0.475000X0.250000X0*%
%ADD13RoundRect,0.250000X-0.450000X0.262500X-0.450000X-0.262500X0.450000X-0.262500X0.450000X0.262500X0*%
%ADD14RoundRect,0.250000X-0.650000X0.325000X-0.650000X-0.325000X0.650000X-0.325000X0.650000X0.325000X0*%
%ADD15RoundRect,0.250000X-0.325000X-0.650000X0.325000X-0.650000X0.325000X0.650000X-0.325000X0.650000X0*%
%ADD16R,2.150000X0.950000*%
%ADD17R,2.150000X3.250000*%
%ADD18RoundRect,0.250000X0.650000X-0.325000X0.650000X0.325000X-0.650000X0.325000X-0.650000X-0.325000X0*%
%ADD19RoundRect,0.250000X0.475000X-0.250000X0.475000X0.250000X-0.475000X0.250000X-0.475000X-0.250000X0*%
%ADD20R,0.700000X1.200000*%
%ADD21R,0.760000X1.200000*%
%ADD22R,0.800000X1.200000*%
%ADD23R,1.800000X1.350000*%
%ADD24R,1.800000X1.500000*%
%ADD25RoundRect,0.250000X-0.275000X-0.700000X0.275000X-0.700000X0.275000X0.700000X-0.275000X0.700000X0*%
%ADD26RoundRect,0.250000X-0.250000X-0.475000X0.250000X-0.475000X0.250000X0.475000X-0.250000X0.475000X0*%
%ADD27RoundRect,0.250000X0.250000X0.475000X-0.250000X0.475000X-0.250000X-0.475000X0.250000X-0.475000X0*%
G04 APERTURE END LIST*
D10*
%TO.C,D1*%
X119380000Y-79296500D03*
X119380000Y-77421500D03*
%TD*%
D11*
%TO.C,R2*%
X134596500Y-81788000D03*
X136421500Y-81788000D03*
%TD*%
D12*
%TO.C,C2*%
X114554000Y-78630000D03*
X114554000Y-80530000D03*
%TD*%
D13*
%TO.C,R1*%
X137033000Y-78081500D03*
X137033000Y-79906500D03*
%TD*%
D14*
%TO.C,C4*%
X112141000Y-77470000D03*
X112141000Y-80420000D03*
%TD*%
D15*
%TO.C,C9*%
X134547000Y-84074000D03*
X137497000Y-84074000D03*
%TD*%
D13*
%TO.C,R3*%
X117094000Y-77446500D03*
X117094000Y-79271500D03*
%TD*%
%TO.C,R4*%
X134747000Y-78081500D03*
X134747000Y-79906500D03*
%TD*%
D16*
%TO.C,U2*%
X108797000Y-83961000D03*
X108797000Y-81661000D03*
X108797000Y-79361000D03*
D17*
X102997000Y-81661000D03*
%TD*%
D18*
%TO.C,C3*%
X142240000Y-85549000D03*
X142240000Y-82599000D03*
%TD*%
D19*
%TO.C,C1*%
X139954000Y-84389000D03*
X139954000Y-82489000D03*
%TD*%
D20*
%TO.C,J1*%
X127500000Y-82686900D03*
D21*
X125480000Y-82686900D03*
D22*
X124250000Y-82686900D03*
D20*
X126500000Y-82686900D03*
D21*
X128520000Y-82686900D03*
D22*
X129750000Y-82686900D03*
D23*
X121875000Y-82631900D03*
X132125000Y-82631900D03*
D24*
X132125000Y-79051900D03*
X121875000Y-79051900D03*
%TD*%
D19*
%TO.C,C10*%
X139954000Y-79563000D03*
X139954000Y-77663000D03*
%TD*%
D12*
%TO.C,C11*%
X114554000Y-83632000D03*
X114554000Y-85532000D03*
%TD*%
D25*
%TO.C,L1*%
X129616000Y-86106000D03*
X132766000Y-86106000D03*
%TD*%
D26*
%TO.C,C6*%
X134437000Y-86360000D03*
X136337000Y-86360000D03*
%TD*%
D14*
%TO.C,C8*%
X112141000Y-82550000D03*
X112141000Y-85500000D03*
%TD*%
D16*
%TO.C,U1*%
X145182000Y-78980000D03*
X145182000Y-81280000D03*
X145182000Y-83580000D03*
D17*
X150982000Y-81280000D03*
%TD*%
D18*
%TO.C,C7*%
X142240000Y-80723000D03*
X142240000Y-77773000D03*
%TD*%
D27*
%TO.C,C5*%
X127823000Y-85852000D03*
X125923000Y-85852000D03*
%TD*%
M02*
