M48
; DRILL file {KiCad (7.0.0-0)} date Sunday, February 26, 2023 at 05:19:36 PM
; FORMAT={-:-/ absolute / inch / decimal}
; #@! TF.CreationDate,2023-02-26T17:19:36-07:00
; #@! TF.GenerationSoftware,Kicad,Pcbnew,(7.0.0-0)
; #@! TF.FileFunction,Plated,1,2,PTH
FMAT,2
INCH
; #@! TA.AperFunction,Plated,PTH,ViaDrill
T1C0.0157
; #@! TA.AperFunction,Plated,PTH,ComponentDrill
T2C0.0394
; #@! TA.AperFunction,Plated,PTH,ComponentDrill
T3C0.0520
; #@! TA.AperFunction,Plated,PTH,ComponentDrill
T4C0.0528
%
G90
G05
T1
X4.145Y-3.075
X4.24Y-3.3206
X4.425Y-3.035
X4.425Y-3.155
X4.5Y-3.225
X4.505Y-3.39
X4.54Y-3.355
X4.565Y-3.45
X4.595Y-3.41
X4.77Y-3.315
X4.945Y-3.22
X5.155Y-3.21
X5.61Y-3.45
X5.655Y-3.325
X5.69Y-3.095
X5.805Y-3.095
X5.87Y-3.32
T2
X4.08Y-3.445
X4.08Y-3.545
X4.15Y-3.7
X4.23Y-3.445
X4.23Y-3.545
X4.25Y-3.7
X4.38Y-3.445
X4.38Y-3.545
X4.55Y-3.1
X4.65Y-3.1
X5.45Y-3.1
X5.55Y-3.1
X5.72Y-3.445
X5.72Y-3.545
X5.85Y-3.7
X5.87Y-3.4448
X5.87Y-3.5448
X5.95Y-3.7
X6.02Y-3.4448
X6.02Y-3.5448
T3
X4.075Y-3.82
X4.275Y-3.82
X4.65Y-3.57
X4.85Y-3.57
X5.25Y-3.57
X5.45Y-3.57
X5.825Y-3.82
X6.025Y-3.82
T4
X4.8799Y-3.1065
X4.8799Y-3.2561
X5.2201Y-3.1065
X5.2201Y-3.2561
T0
M30
