%TF.GenerationSoftware,KiCad,Pcbnew,8.0.4*%
%TF.CreationDate,2024-09-02T14:01:08-06:00*%
%TF.ProjectId,Breadboard Power Supply,42726561-6462-46f6-9172-6420506f7765,v1*%
%TF.SameCoordinates,Original*%
%TF.FileFunction,Copper,L3,Inr*%
%TF.FilePolarity,Positive*%
%FSLAX46Y46*%
G04 Gerber Fmt 4.6, Leading zero omitted, Abs format (unit mm)*
G04 Created by KiCad (PCBNEW 8.0.4) date 2024-09-02 14:01:08*
%MOMM*%
%LPD*%
G01*
G04 APERTURE LIST*
%TA.AperFunction,ComponentPad*%
%ADD10R,1.700000X1.700000*%
%TD*%
%TA.AperFunction,ComponentPad*%
%ADD11O,1.700000X1.700000*%
%TD*%
%TA.AperFunction,ComponentPad*%
%ADD12C,1.450000*%
%TD*%
%TA.AperFunction,ComponentPad*%
%ADD13C,1.830000*%
%TD*%
%TA.AperFunction,ViaPad*%
%ADD14C,0.800000*%
%TD*%
G04 APERTURE END LIST*
D10*
%TO.N,+1V8*%
%TO.C,J4*%
X151130000Y-87630000D03*
D11*
%TO.N,/TOP_POWER_RAIL*%
X153670000Y-87630000D03*
%TO.N,+3.3V*%
X151130000Y-90170000D03*
%TO.N,/TOP_POWER_RAIL*%
X153670000Y-90170000D03*
%TO.N,VBUS*%
X151130000Y-92710000D03*
%TO.N,/TOP_POWER_RAIL*%
X153670000Y-92710000D03*
%TO.N,+12V*%
X151130000Y-95250000D03*
%TO.N,/TOP_POWER_RAIL*%
X153670000Y-95250000D03*
%TD*%
D10*
%TO.N,/BOTTOM_POWER_RAIL*%
%TO.C,J5*%
X102870000Y-87630000D03*
D11*
%TO.N,+1V8*%
X105410000Y-87630000D03*
%TO.N,/BOTTOM_POWER_RAIL*%
X102870000Y-90170000D03*
%TO.N,+3.3V*%
X105410000Y-90170000D03*
%TO.N,/BOTTOM_POWER_RAIL*%
X102870000Y-92710000D03*
%TO.N,VBUS*%
X105410000Y-92710000D03*
%TO.N,/BOTTOM_POWER_RAIL*%
X102870000Y-95250000D03*
%TO.N,+12V*%
X105410000Y-95250000D03*
%TD*%
D12*
%TO.N,GND*%
%TO.C,J1*%
X132592000Y-77974000D03*
X123952000Y-77974000D03*
X132592000Y-81774000D03*
X123952000Y-81774000D03*
%TD*%
D13*
%TO.N,GND*%
%TO.C,TP1*%
X103759000Y-102638000D03*
X108839000Y-102638000D03*
%TD*%
%TO.N,GND*%
%TO.C,TP4*%
X147701000Y-102638000D03*
X152781000Y-102638000D03*
%TD*%
D10*
%TO.N,GND*%
%TO.C,J10*%
X114300000Y-78740000D03*
D11*
X114300000Y-81280000D03*
%TD*%
D10*
%TO.N,/TOP_POWER_RAIL*%
%TO.C,J8*%
X152082500Y-99060000D03*
D11*
%TO.N,GND*%
X149542500Y-99060000D03*
%TD*%
D10*
%TO.N,GND*%
%TO.C,J11*%
X142240000Y-78740000D03*
D11*
X142240000Y-81280000D03*
%TD*%
D10*
%TO.N,/BOTTOM_POWER_RAIL*%
%TO.C,J9*%
X106997500Y-99060000D03*
D11*
%TO.N,GND*%
X104457500Y-99060000D03*
%TD*%
D14*
%TO.N,+1V8*%
X121793000Y-77343000D03*
X131953000Y-80249000D03*
%TO.N,GND*%
X115064915Y-84842832D03*
%TO.N,VBUS*%
X134747000Y-82677000D03*
%TO.N,GND*%
X134461000Y-76105000D03*
%TO.N,+3.3V*%
X147447000Y-85217000D03*
X144653000Y-78613000D03*
X154559000Y-78867000D03*
%TO.N,VBUS*%
X129921000Y-80645000D03*
X126619000Y-80645000D03*
%TO.N,GND*%
X129921000Y-85471000D03*
X126619000Y-85471000D03*
%TO.N,VBUS*%
X111633000Y-76327000D03*
X134747000Y-78105000D03*
X121793000Y-83693000D03*
X121539000Y-76073000D03*
%TO.N,+12V*%
X115443000Y-83693000D03*
X116459000Y-79121000D03*
X122301000Y-80645000D03*
%TO.N,+1V8*%
X102489000Y-82677000D03*
X111887000Y-77302000D03*
X101981000Y-78867000D03*
%TO.N,GND*%
X154559000Y-83693000D03*
X139573000Y-76835000D03*
X149328930Y-85113070D03*
X144145000Y-84201000D03*
X119507000Y-83947000D03*
X103251000Y-85217000D03*
X106807000Y-85217000D03*
X117729000Y-76667000D03*
%TD*%
%TA.AperFunction,Conductor*%
%TO.N,GND*%
G36*
X114550000Y-80846988D02*
G01*
X114492993Y-80814075D01*
X114365826Y-80780000D01*
X114234174Y-80780000D01*
X114107007Y-80814075D01*
X114050000Y-80846988D01*
X114050000Y-79173012D01*
X114107007Y-79205925D01*
X114234174Y-79240000D01*
X114365826Y-79240000D01*
X114492993Y-79205925D01*
X114550000Y-79173012D01*
X114550000Y-80846988D01*
G37*
%TD.AperFunction*%
%TA.AperFunction,Conductor*%
G36*
X142490000Y-80846988D02*
G01*
X142432993Y-80814075D01*
X142305826Y-80780000D01*
X142174174Y-80780000D01*
X142047007Y-80814075D01*
X141990000Y-80846988D01*
X141990000Y-79173012D01*
X142047007Y-79205925D01*
X142174174Y-79240000D01*
X142305826Y-79240000D01*
X142432993Y-79205925D01*
X142490000Y-79173012D01*
X142490000Y-80846988D01*
G37*
%TD.AperFunction*%
%TA.AperFunction,Conductor*%
G36*
X111528008Y-75203685D02*
G01*
X111573763Y-75256489D01*
X111583707Y-75325647D01*
X111554682Y-75389203D01*
X111495904Y-75426977D01*
X111486750Y-75429290D01*
X111350714Y-75458205D01*
X111176246Y-75535883D01*
X111021745Y-75648135D01*
X110893959Y-75790057D01*
X110798473Y-75955443D01*
X110798470Y-75955450D01*
X110760276Y-76073000D01*
X110739458Y-76137072D01*
X110719496Y-76327000D01*
X110739458Y-76516928D01*
X110739459Y-76516930D01*
X110739459Y-76516931D01*
X110798470Y-76698549D01*
X110798473Y-76698556D01*
X110893958Y-76863942D01*
X110893960Y-76863944D01*
X110978413Y-76957739D01*
X111008643Y-77020729D01*
X111004195Y-77079025D01*
X110993459Y-77112067D01*
X110993458Y-77112070D01*
X110993458Y-77112072D01*
X110973496Y-77302000D01*
X110993458Y-77491928D01*
X110993459Y-77491931D01*
X111052470Y-77673549D01*
X111052473Y-77673556D01*
X111147960Y-77838944D01*
X111216506Y-77915072D01*
X111274746Y-77979755D01*
X111275747Y-77980866D01*
X111430248Y-78093118D01*
X111604712Y-78170794D01*
X111791513Y-78210500D01*
X111982487Y-78210500D01*
X112169288Y-78170794D01*
X112343752Y-78093118D01*
X112498253Y-77980866D01*
X112623149Y-77842155D01*
X112950000Y-77842155D01*
X112950000Y-78490000D01*
X113866988Y-78490000D01*
X113834075Y-78547007D01*
X113800000Y-78674174D01*
X113800000Y-78805826D01*
X113834075Y-78932993D01*
X113866988Y-78990000D01*
X112950000Y-78990000D01*
X112950000Y-79637844D01*
X112956401Y-79697372D01*
X112956403Y-79697379D01*
X113006645Y-79832086D01*
X113006649Y-79832093D01*
X113092809Y-79947187D01*
X113092812Y-79947190D01*
X113207906Y-80033350D01*
X113207913Y-80033354D01*
X113339986Y-80082614D01*
X113395920Y-80124485D01*
X113420337Y-80189949D01*
X113405486Y-80258222D01*
X113384335Y-80286477D01*
X113261886Y-80408926D01*
X113126400Y-80602420D01*
X113126399Y-80602422D01*
X113026570Y-80816507D01*
X113026567Y-80816513D01*
X112969364Y-81029999D01*
X112969364Y-81030000D01*
X113866988Y-81030000D01*
X113834075Y-81087007D01*
X113800000Y-81214174D01*
X113800000Y-81345826D01*
X113834075Y-81472993D01*
X113866988Y-81530000D01*
X112969364Y-81530000D01*
X113026567Y-81743486D01*
X113026570Y-81743492D01*
X113126399Y-81957578D01*
X113261894Y-82151082D01*
X113428917Y-82318105D01*
X113622421Y-82453600D01*
X113836507Y-82553429D01*
X113836516Y-82553433D01*
X114050000Y-82610634D01*
X114050000Y-81713012D01*
X114107007Y-81745925D01*
X114234174Y-81780000D01*
X114365826Y-81780000D01*
X114492993Y-81745925D01*
X114550000Y-81713012D01*
X114550000Y-82610633D01*
X114763483Y-82553433D01*
X114763492Y-82553429D01*
X114977578Y-82453600D01*
X115171082Y-82318105D01*
X115338105Y-82151082D01*
X115473600Y-81957578D01*
X115573429Y-81743492D01*
X115573432Y-81743486D01*
X115630636Y-81530000D01*
X114733012Y-81530000D01*
X114765925Y-81472993D01*
X114800000Y-81345826D01*
X114800000Y-81214174D01*
X114765925Y-81087007D01*
X114733012Y-81030000D01*
X115630636Y-81030000D01*
X115630635Y-81029999D01*
X115573432Y-80816513D01*
X115573429Y-80816507D01*
X115493454Y-80645000D01*
X121387496Y-80645000D01*
X121407458Y-80834928D01*
X121407459Y-80834931D01*
X121466470Y-81016549D01*
X121466473Y-81016556D01*
X121561960Y-81181944D01*
X121689747Y-81323866D01*
X121844248Y-81436118D01*
X122018712Y-81513794D01*
X122205513Y-81553500D01*
X122396487Y-81553500D01*
X122583288Y-81513794D01*
X122583289Y-81513793D01*
X122584237Y-81513592D01*
X122653904Y-81518908D01*
X122709638Y-81561045D01*
X122733743Y-81626624D01*
X122733546Y-81645689D01*
X122722321Y-81773997D01*
X122722321Y-81774000D01*
X122741002Y-81987527D01*
X122741004Y-81987537D01*
X122796477Y-82194567D01*
X122796481Y-82194576D01*
X122887066Y-82388838D01*
X122887067Y-82388840D01*
X122926825Y-82445620D01*
X122926825Y-82445621D01*
X123485366Y-81887079D01*
X123504711Y-81959273D01*
X123567904Y-82068727D01*
X123657273Y-82158096D01*
X123766727Y-82221289D01*
X123838919Y-82240632D01*
X123280377Y-82799173D01*
X123337161Y-82838933D01*
X123531423Y-82929518D01*
X123531432Y-82929522D01*
X123738462Y-82984995D01*
X123738472Y-82984997D01*
X123951999Y-83003679D01*
X123952001Y-83003679D01*
X124165527Y-82984997D01*
X124165537Y-82984995D01*
X124372567Y-82929522D01*
X124372576Y-82929518D01*
X124566839Y-82838933D01*
X124623621Y-82799173D01*
X124065080Y-82240632D01*
X124137273Y-82221289D01*
X124246727Y-82158096D01*
X124336096Y-82068727D01*
X124399289Y-81959273D01*
X124418632Y-81887080D01*
X124977173Y-82445621D01*
X125016933Y-82388839D01*
X125107518Y-82194576D01*
X125107522Y-82194567D01*
X125162995Y-81987537D01*
X125162997Y-81987527D01*
X125181679Y-81774000D01*
X125181679Y-81773999D01*
X125162997Y-81560472D01*
X125162995Y-81560462D01*
X125107522Y-81353432D01*
X125107518Y-81353423D01*
X125016933Y-81159162D01*
X124977172Y-81102379D01*
X124418632Y-81660919D01*
X124399289Y-81588727D01*
X124336096Y-81479273D01*
X124246727Y-81389904D01*
X124137273Y-81326711D01*
X124065079Y-81307366D01*
X124623621Y-80748825D01*
X124566840Y-80709067D01*
X124566838Y-80709066D01*
X124429447Y-80645000D01*
X125705496Y-80645000D01*
X125725458Y-80834928D01*
X125725459Y-80834931D01*
X125784470Y-81016549D01*
X125784473Y-81016556D01*
X125879960Y-81181944D01*
X126007747Y-81323866D01*
X126162248Y-81436118D01*
X126336712Y-81513794D01*
X126523513Y-81553500D01*
X126714487Y-81553500D01*
X126901288Y-81513794D01*
X127075752Y-81436118D01*
X127230253Y-81323866D01*
X127358040Y-81181944D01*
X127453527Y-81016556D01*
X127512542Y-80834928D01*
X127532504Y-80645000D01*
X129007496Y-80645000D01*
X129027458Y-80834928D01*
X129027459Y-80834931D01*
X129086470Y-81016549D01*
X129086473Y-81016556D01*
X129181960Y-81181944D01*
X129309747Y-81323866D01*
X129464248Y-81436118D01*
X129638712Y-81513794D01*
X129825513Y-81553500D01*
X130016487Y-81553500D01*
X130203288Y-81513794D01*
X130377752Y-81436118D01*
X130532253Y-81323866D01*
X130660040Y-81181944D01*
X130755527Y-81016556D01*
X130814542Y-80834928D01*
X130834504Y-80645000D01*
X130818247Y-80490331D01*
X130822106Y-80469229D01*
X130817757Y-80463805D01*
X130814500Y-80454943D01*
X130755529Y-80273450D01*
X130755528Y-80273449D01*
X130755527Y-80273444D01*
X130741414Y-80249000D01*
X131039496Y-80249000D01*
X131055752Y-80403664D01*
X131051891Y-80424770D01*
X131056241Y-80430194D01*
X131059499Y-80439055D01*
X131118471Y-80620552D01*
X131118473Y-80620556D01*
X131213960Y-80785944D01*
X131341747Y-80927866D01*
X131403859Y-80972993D01*
X131478036Y-81026886D01*
X131520701Y-81082216D01*
X131526680Y-81151830D01*
X131517532Y-81179609D01*
X131436481Y-81353423D01*
X131436477Y-81353432D01*
X131381004Y-81560462D01*
X131381002Y-81560472D01*
X131362321Y-81773999D01*
X131362321Y-81774000D01*
X131381002Y-81987527D01*
X131381004Y-81987537D01*
X131436477Y-82194567D01*
X131436481Y-82194576D01*
X131527066Y-82388838D01*
X131527067Y-82388840D01*
X131566825Y-82445620D01*
X131566825Y-82445621D01*
X132125366Y-81887079D01*
X132144711Y-81959273D01*
X132207904Y-82068727D01*
X132297273Y-82158096D01*
X132406727Y-82221289D01*
X132478919Y-82240632D01*
X131920377Y-82799173D01*
X131977161Y-82838933D01*
X132171423Y-82929518D01*
X132171432Y-82929522D01*
X132378462Y-82984995D01*
X132378472Y-82984997D01*
X132591999Y-83003679D01*
X132592001Y-83003679D01*
X132805527Y-82984997D01*
X132805537Y-82984995D01*
X133012567Y-82929522D01*
X133012576Y-82929518D01*
X133206839Y-82838933D01*
X133263621Y-82799173D01*
X132705080Y-82240632D01*
X132777273Y-82221289D01*
X132886727Y-82158096D01*
X132976096Y-82068727D01*
X133039289Y-81959273D01*
X133058632Y-81887080D01*
X133617173Y-82445621D01*
X133625301Y-82434014D01*
X133679878Y-82390389D01*
X133749376Y-82383195D01*
X133811731Y-82414718D01*
X133847145Y-82474947D01*
X133850197Y-82518098D01*
X133833496Y-82677000D01*
X133853458Y-82866928D01*
X133853459Y-82866931D01*
X133912470Y-83048549D01*
X133912473Y-83048556D01*
X134007960Y-83213944D01*
X134135747Y-83355866D01*
X134290248Y-83468118D01*
X134464712Y-83545794D01*
X134651513Y-83585500D01*
X134842487Y-83585500D01*
X135029288Y-83545794D01*
X135203752Y-83468118D01*
X135358253Y-83355866D01*
X135486040Y-83213944D01*
X135581527Y-83048556D01*
X135640542Y-82866928D01*
X135660504Y-82677000D01*
X135640542Y-82487072D01*
X135581527Y-82305444D01*
X135486040Y-82140056D01*
X135358253Y-81998134D01*
X135203752Y-81885882D01*
X135029288Y-81808206D01*
X135029286Y-81808205D01*
X134842487Y-81768500D01*
X134651513Y-81768500D01*
X134464714Y-81808205D01*
X134290246Y-81885883D01*
X134135745Y-81998135D01*
X134003612Y-82144885D01*
X134001682Y-82143147D01*
X133954244Y-82178331D01*
X133884531Y-82183006D01*
X133823358Y-82149248D01*
X133790146Y-82087777D01*
X133791654Y-82029863D01*
X133802994Y-81987541D01*
X133802997Y-81987527D01*
X133821679Y-81774000D01*
X133821679Y-81773999D01*
X133802997Y-81560472D01*
X133802995Y-81560462D01*
X133747522Y-81353432D01*
X133747518Y-81353423D01*
X133656933Y-81159162D01*
X133617172Y-81102379D01*
X133058632Y-81660919D01*
X133039289Y-81588727D01*
X132976096Y-81479273D01*
X132886727Y-81389904D01*
X132777273Y-81326711D01*
X132705079Y-81307366D01*
X133263621Y-80748825D01*
X133206840Y-80709067D01*
X133206838Y-80709066D01*
X133012576Y-80618481D01*
X133012569Y-80618478D01*
X132932387Y-80596993D01*
X132872726Y-80560627D01*
X132842198Y-80497780D01*
X132846068Y-80445473D01*
X132845190Y-80445287D01*
X132846541Y-80438930D01*
X132846542Y-80438928D01*
X132866504Y-80249000D01*
X132846542Y-80059072D01*
X132787527Y-79877444D01*
X132692040Y-79712056D01*
X132564253Y-79570134D01*
X132487002Y-79514008D01*
X132409751Y-79457881D01*
X132331530Y-79423055D01*
X132278293Y-79377805D01*
X132257972Y-79310956D01*
X132277017Y-79243732D01*
X132329384Y-79197477D01*
X132392774Y-79186248D01*
X132591999Y-79203679D01*
X132592001Y-79203679D01*
X132805527Y-79184997D01*
X132805537Y-79184995D01*
X133012567Y-79129522D01*
X133012576Y-79129518D01*
X133206839Y-79038933D01*
X133263621Y-78999173D01*
X132705080Y-78440632D01*
X132777273Y-78421289D01*
X132886727Y-78358096D01*
X132976096Y-78268727D01*
X133039289Y-78159273D01*
X133058632Y-78087080D01*
X133617173Y-78645621D01*
X133656933Y-78588838D01*
X133656934Y-78588836D01*
X133699405Y-78497758D01*
X133745577Y-78445318D01*
X133812770Y-78426166D01*
X133879652Y-78446381D01*
X133919173Y-78488161D01*
X134007960Y-78641944D01*
X134135747Y-78783866D01*
X134290248Y-78896118D01*
X134464712Y-78973794D01*
X134651513Y-79013500D01*
X134842487Y-79013500D01*
X135029288Y-78973794D01*
X135203752Y-78896118D01*
X135358253Y-78783866D01*
X135486040Y-78641944D01*
X135581527Y-78476556D01*
X135640542Y-78294928D01*
X135660504Y-78105000D01*
X135640542Y-77915072D01*
X135616850Y-77842155D01*
X140890000Y-77842155D01*
X140890000Y-78490000D01*
X141806988Y-78490000D01*
X141774075Y-78547007D01*
X141740000Y-78674174D01*
X141740000Y-78805826D01*
X141774075Y-78932993D01*
X141806988Y-78990000D01*
X140890000Y-78990000D01*
X140890000Y-79637844D01*
X140896401Y-79697372D01*
X140896403Y-79697379D01*
X140946645Y-79832086D01*
X140946649Y-79832093D01*
X141032809Y-79947187D01*
X141032812Y-79947190D01*
X141147906Y-80033350D01*
X141147913Y-80033354D01*
X141279986Y-80082614D01*
X141335920Y-80124485D01*
X141360337Y-80189949D01*
X141345486Y-80258222D01*
X141324335Y-80286477D01*
X141201886Y-80408926D01*
X141066400Y-80602420D01*
X141066399Y-80602422D01*
X140966570Y-80816507D01*
X140966567Y-80816513D01*
X140909364Y-81029999D01*
X140909364Y-81030000D01*
X141806988Y-81030000D01*
X141774075Y-81087007D01*
X141740000Y-81214174D01*
X141740000Y-81345826D01*
X141774075Y-81472993D01*
X141806988Y-81530000D01*
X140909364Y-81530000D01*
X140966567Y-81743486D01*
X140966570Y-81743492D01*
X141066399Y-81957578D01*
X141201894Y-82151082D01*
X141368917Y-82318105D01*
X141562421Y-82453600D01*
X141776507Y-82553429D01*
X141776516Y-82553433D01*
X141990000Y-82610634D01*
X141990000Y-81713012D01*
X142047007Y-81745925D01*
X142174174Y-81780000D01*
X142305826Y-81780000D01*
X142432993Y-81745925D01*
X142490000Y-81713012D01*
X142490000Y-82610633D01*
X142703483Y-82553433D01*
X142703492Y-82553429D01*
X142917578Y-82453600D01*
X143111082Y-82318105D01*
X143278105Y-82151082D01*
X143413600Y-81957578D01*
X143513429Y-81743492D01*
X143513432Y-81743486D01*
X143570636Y-81530000D01*
X142673012Y-81530000D01*
X142705925Y-81472993D01*
X142740000Y-81345826D01*
X142740000Y-81214174D01*
X142705925Y-81087007D01*
X142673012Y-81030000D01*
X143570636Y-81030000D01*
X143570635Y-81029999D01*
X143513432Y-80816513D01*
X143513429Y-80816507D01*
X143413600Y-80602422D01*
X143413599Y-80602420D01*
X143278113Y-80408926D01*
X143278108Y-80408920D01*
X143155665Y-80286477D01*
X143122180Y-80225154D01*
X143127164Y-80155462D01*
X143169036Y-80099529D01*
X143200013Y-80082614D01*
X143332086Y-80033354D01*
X143332093Y-80033350D01*
X143447187Y-79947190D01*
X143447190Y-79947187D01*
X143533350Y-79832093D01*
X143533354Y-79832086D01*
X143583596Y-79697379D01*
X143583598Y-79697372D01*
X143589999Y-79637844D01*
X143590000Y-79637827D01*
X143590000Y-79051602D01*
X143609685Y-78984563D01*
X143662489Y-78938808D01*
X143731647Y-78928864D01*
X143795203Y-78957889D01*
X143821384Y-78989599D01*
X143913960Y-79149944D01*
X144041747Y-79291866D01*
X144196248Y-79404118D01*
X144370712Y-79481794D01*
X144557513Y-79521500D01*
X144748487Y-79521500D01*
X144935288Y-79481794D01*
X145109752Y-79404118D01*
X145264253Y-79291866D01*
X145392040Y-79149944D01*
X145487527Y-78984556D01*
X145546542Y-78802928D01*
X145566504Y-78613000D01*
X145546542Y-78423072D01*
X145487527Y-78241444D01*
X145392040Y-78076056D01*
X145264253Y-77934134D01*
X145109752Y-77821882D01*
X144935288Y-77744206D01*
X144935286Y-77744205D01*
X144748487Y-77704500D01*
X144557513Y-77704500D01*
X144370714Y-77744205D01*
X144196246Y-77821883D01*
X144041745Y-77934135D01*
X143913959Y-78076057D01*
X143821387Y-78236397D01*
X143770820Y-78284613D01*
X143702213Y-78297836D01*
X143637348Y-78271868D01*
X143596820Y-78214954D01*
X143590000Y-78174397D01*
X143590000Y-77842172D01*
X143589999Y-77842155D01*
X143583598Y-77782627D01*
X143583596Y-77782620D01*
X143533354Y-77647913D01*
X143533350Y-77647906D01*
X143447190Y-77532812D01*
X143447187Y-77532809D01*
X143332093Y-77446649D01*
X143332086Y-77446645D01*
X143197379Y-77396403D01*
X143197372Y-77396401D01*
X143137844Y-77390000D01*
X142490000Y-77390000D01*
X142490000Y-78306988D01*
X142432993Y-78274075D01*
X142305826Y-78240000D01*
X142174174Y-78240000D01*
X142047007Y-78274075D01*
X141990000Y-78306988D01*
X141990000Y-77390000D01*
X141342155Y-77390000D01*
X141282627Y-77396401D01*
X141282620Y-77396403D01*
X141147913Y-77446645D01*
X141147906Y-77446649D01*
X141032812Y-77532809D01*
X141032809Y-77532812D01*
X140946649Y-77647906D01*
X140946645Y-77647913D01*
X140896403Y-77782620D01*
X140896401Y-77782627D01*
X140890000Y-77842155D01*
X135616850Y-77842155D01*
X135581527Y-77733444D01*
X135486040Y-77568056D01*
X135358253Y-77426134D01*
X135203752Y-77313882D01*
X135029288Y-77236206D01*
X135029286Y-77236205D01*
X134842487Y-77196500D01*
X134651513Y-77196500D01*
X134464714Y-77236205D01*
X134290246Y-77313883D01*
X134135745Y-77426135D01*
X134007959Y-77568057D01*
X133982435Y-77612266D01*
X133931868Y-77660482D01*
X133863261Y-77673705D01*
X133798396Y-77647737D01*
X133757868Y-77590822D01*
X133755273Y-77582359D01*
X133747522Y-77553432D01*
X133747518Y-77553423D01*
X133656933Y-77359162D01*
X133617172Y-77302379D01*
X133058632Y-77860919D01*
X133039289Y-77788727D01*
X132976096Y-77679273D01*
X132886727Y-77589904D01*
X132777273Y-77526711D01*
X132705080Y-77507367D01*
X133263621Y-76948826D01*
X133263620Y-76948825D01*
X133206840Y-76909067D01*
X133206838Y-76909066D01*
X133012576Y-76818481D01*
X133012567Y-76818477D01*
X132805537Y-76763004D01*
X132805527Y-76763002D01*
X132592001Y-76744321D01*
X132591999Y-76744321D01*
X132378472Y-76763002D01*
X132378462Y-76763004D01*
X132171432Y-76818477D01*
X132171423Y-76818481D01*
X131977162Y-76909066D01*
X131920378Y-76948826D01*
X132478919Y-77507367D01*
X132406727Y-77526711D01*
X132297273Y-77589904D01*
X132207904Y-77679273D01*
X132144711Y-77788727D01*
X132125367Y-77860919D01*
X131566826Y-77302378D01*
X131527066Y-77359162D01*
X131436481Y-77553423D01*
X131436477Y-77553432D01*
X131381004Y-77760462D01*
X131381002Y-77760472D01*
X131362321Y-77973999D01*
X131362321Y-77974000D01*
X131381002Y-78187527D01*
X131381004Y-78187537D01*
X131436477Y-78394567D01*
X131436481Y-78394576D01*
X131527066Y-78588838D01*
X131527067Y-78588840D01*
X131566825Y-78645620D01*
X131566826Y-78645621D01*
X132125367Y-78087079D01*
X132144711Y-78159273D01*
X132207904Y-78268727D01*
X132297273Y-78358096D01*
X132406727Y-78421289D01*
X132478919Y-78440632D01*
X131920377Y-78999173D01*
X131977161Y-79038933D01*
X131977165Y-79038935D01*
X132119732Y-79105415D01*
X132172172Y-79151587D01*
X132191324Y-79218780D01*
X132171109Y-79285662D01*
X132117943Y-79330996D01*
X132054368Y-79341118D01*
X132048487Y-79340500D01*
X131857513Y-79340500D01*
X131670714Y-79380205D01*
X131496246Y-79457883D01*
X131341745Y-79570135D01*
X131213959Y-79712057D01*
X131118473Y-79877443D01*
X131118470Y-79877450D01*
X131067814Y-80033354D01*
X131059458Y-80059072D01*
X131042002Y-80225154D01*
X131039496Y-80249000D01*
X130741414Y-80249000D01*
X130660040Y-80108056D01*
X130532253Y-79966134D01*
X130377752Y-79853882D01*
X130203288Y-79776206D01*
X130203286Y-79776205D01*
X130016487Y-79736500D01*
X129825513Y-79736500D01*
X129638714Y-79776205D01*
X129464246Y-79853883D01*
X129309745Y-79966135D01*
X129181959Y-80108057D01*
X129086473Y-80273443D01*
X129086470Y-80273450D01*
X129032703Y-80438930D01*
X129027458Y-80455072D01*
X129007496Y-80645000D01*
X127532504Y-80645000D01*
X127512542Y-80455072D01*
X127453527Y-80273444D01*
X127358040Y-80108056D01*
X127230253Y-79966134D01*
X127075752Y-79853882D01*
X126901288Y-79776206D01*
X126901286Y-79776205D01*
X126714487Y-79736500D01*
X126523513Y-79736500D01*
X126336714Y-79776205D01*
X126162246Y-79853883D01*
X126007745Y-79966135D01*
X125879959Y-80108057D01*
X125784473Y-80273443D01*
X125784470Y-80273450D01*
X125730703Y-80438930D01*
X125725458Y-80455072D01*
X125705496Y-80645000D01*
X124429447Y-80645000D01*
X124372576Y-80618481D01*
X124372567Y-80618477D01*
X124165537Y-80563004D01*
X124165527Y-80563002D01*
X123952001Y-80544321D01*
X123951999Y-80544321D01*
X123738472Y-80563002D01*
X123738462Y-80563004D01*
X123531432Y-80618477D01*
X123531418Y-80618482D01*
X123384207Y-80687128D01*
X123315130Y-80697620D01*
X123251346Y-80669100D01*
X123213107Y-80610623D01*
X123208482Y-80587708D01*
X123194542Y-80455072D01*
X123135527Y-80273444D01*
X123040040Y-80108056D01*
X122912253Y-79966134D01*
X122757752Y-79853882D01*
X122583288Y-79776206D01*
X122583286Y-79776205D01*
X122396487Y-79736500D01*
X122205513Y-79736500D01*
X122018714Y-79776205D01*
X121844246Y-79853883D01*
X121689745Y-79966135D01*
X121561959Y-80108057D01*
X121466473Y-80273443D01*
X121466470Y-80273450D01*
X121412703Y-80438930D01*
X121407458Y-80455072D01*
X121387496Y-80645000D01*
X115493454Y-80645000D01*
X115473600Y-80602422D01*
X115473599Y-80602420D01*
X115338113Y-80408926D01*
X115338108Y-80408920D01*
X115215665Y-80286477D01*
X115182180Y-80225154D01*
X115187164Y-80155462D01*
X115229036Y-80099529D01*
X115260013Y-80082614D01*
X115392086Y-80033354D01*
X115392093Y-80033350D01*
X115507187Y-79947190D01*
X115507190Y-79947187D01*
X115593350Y-79832093D01*
X115593354Y-79832086D01*
X115604889Y-79801160D01*
X115646760Y-79745227D01*
X115712224Y-79720809D01*
X115780497Y-79735660D01*
X115813221Y-79761521D01*
X115841061Y-79792441D01*
X115847747Y-79799866D01*
X116002248Y-79912118D01*
X116176712Y-79989794D01*
X116363513Y-80029500D01*
X116554487Y-80029500D01*
X116741288Y-79989794D01*
X116915752Y-79912118D01*
X117070253Y-79799866D01*
X117198040Y-79657944D01*
X117293527Y-79492556D01*
X117352542Y-79310928D01*
X117372504Y-79121000D01*
X117352542Y-78931072D01*
X117293527Y-78749444D01*
X117198040Y-78584056D01*
X117070253Y-78442134D01*
X116915752Y-78329882D01*
X116741288Y-78252206D01*
X116741286Y-78252205D01*
X116554487Y-78212500D01*
X116363513Y-78212500D01*
X116176714Y-78252205D01*
X116002246Y-78329883D01*
X115963415Y-78358096D01*
X115847747Y-78442134D01*
X115847745Y-78442135D01*
X115846886Y-78442760D01*
X115781079Y-78466240D01*
X115713025Y-78450415D01*
X115664330Y-78400309D01*
X115650000Y-78342442D01*
X115650000Y-77842172D01*
X115649999Y-77842155D01*
X115643598Y-77782627D01*
X115643596Y-77782620D01*
X115593354Y-77647913D01*
X115593350Y-77647906D01*
X115507190Y-77532812D01*
X115507187Y-77532809D01*
X115392093Y-77446649D01*
X115392086Y-77446645D01*
X115257379Y-77396403D01*
X115257372Y-77396401D01*
X115197844Y-77390000D01*
X114550000Y-77390000D01*
X114550000Y-78306988D01*
X114492993Y-78274075D01*
X114365826Y-78240000D01*
X114234174Y-78240000D01*
X114107007Y-78274075D01*
X114050000Y-78306988D01*
X114050000Y-77390000D01*
X113402155Y-77390000D01*
X113342627Y-77396401D01*
X113342620Y-77396403D01*
X113207913Y-77446645D01*
X113207906Y-77446649D01*
X113092812Y-77532809D01*
X113092809Y-77532812D01*
X113006649Y-77647906D01*
X113006645Y-77647913D01*
X112956403Y-77782620D01*
X112956401Y-77782627D01*
X112950000Y-77842155D01*
X112623149Y-77842155D01*
X112626040Y-77838944D01*
X112721527Y-77673556D01*
X112780542Y-77491928D01*
X112800504Y-77302000D01*
X112780542Y-77112072D01*
X112721527Y-76930444D01*
X112626040Y-76765056D01*
X112541586Y-76671260D01*
X112511356Y-76608268D01*
X112515805Y-76549970D01*
X112526542Y-76516928D01*
X112546504Y-76327000D01*
X112526542Y-76137072D01*
X112467527Y-75955444D01*
X112372040Y-75790056D01*
X112244253Y-75648134D01*
X112089752Y-75535882D01*
X111915288Y-75458206D01*
X111915286Y-75458205D01*
X111779250Y-75429290D01*
X111717768Y-75396098D01*
X111683992Y-75334935D01*
X111688644Y-75265220D01*
X111730249Y-75209088D01*
X111795596Y-75184359D01*
X111805031Y-75184000D01*
X120838444Y-75184000D01*
X120905483Y-75203685D01*
X120951238Y-75256489D01*
X120961182Y-75325647D01*
X120932157Y-75389203D01*
X120930594Y-75390972D01*
X120799959Y-75536057D01*
X120704473Y-75701443D01*
X120704470Y-75701450D01*
X120645459Y-75883068D01*
X120645458Y-75883072D01*
X120625496Y-76073000D01*
X120645458Y-76262928D01*
X120645459Y-76262931D01*
X120704470Y-76444549D01*
X120704471Y-76444551D01*
X120704473Y-76444556D01*
X120799960Y-76609944D01*
X120835257Y-76649145D01*
X120927741Y-76751861D01*
X120927748Y-76751867D01*
X120948376Y-76766854D01*
X120991042Y-76822184D01*
X120997021Y-76891797D01*
X120982878Y-76929172D01*
X120958473Y-76971442D01*
X120899459Y-77153068D01*
X120899458Y-77153072D01*
X120879496Y-77343000D01*
X120899458Y-77532928D01*
X120899459Y-77532931D01*
X120958470Y-77714549D01*
X120958473Y-77714556D01*
X121053960Y-77879944D01*
X121156290Y-77993594D01*
X121180999Y-78021036D01*
X121181747Y-78021866D01*
X121336248Y-78134118D01*
X121510712Y-78211794D01*
X121697513Y-78251500D01*
X121888487Y-78251500D01*
X122075288Y-78211794D01*
X122249752Y-78134118D01*
X122404253Y-78021866D01*
X122507147Y-77907590D01*
X122566632Y-77870942D01*
X122636489Y-77872272D01*
X122694538Y-77911159D01*
X122722348Y-77975256D01*
X122722824Y-77979755D01*
X122741002Y-78187527D01*
X122741004Y-78187537D01*
X122796477Y-78394567D01*
X122796481Y-78394576D01*
X122887066Y-78588838D01*
X122887067Y-78588840D01*
X122926825Y-78645620D01*
X122926826Y-78645621D01*
X123485367Y-78087079D01*
X123504711Y-78159273D01*
X123567904Y-78268727D01*
X123657273Y-78358096D01*
X123766727Y-78421289D01*
X123838919Y-78440632D01*
X123280377Y-78999173D01*
X123337161Y-79038933D01*
X123531423Y-79129518D01*
X123531432Y-79129522D01*
X123738462Y-79184995D01*
X123738472Y-79184997D01*
X123951999Y-79203679D01*
X123952001Y-79203679D01*
X124165527Y-79184997D01*
X124165537Y-79184995D01*
X124372567Y-79129522D01*
X124372576Y-79129518D01*
X124566839Y-79038933D01*
X124623621Y-78999173D01*
X124065080Y-78440632D01*
X124137273Y-78421289D01*
X124246727Y-78358096D01*
X124336096Y-78268727D01*
X124399289Y-78159273D01*
X124418632Y-78087080D01*
X124977173Y-78645621D01*
X125016933Y-78588839D01*
X125107518Y-78394576D01*
X125107522Y-78394567D01*
X125162995Y-78187537D01*
X125162997Y-78187527D01*
X125181679Y-77974000D01*
X125181679Y-77973999D01*
X125162997Y-77760472D01*
X125162995Y-77760462D01*
X125107522Y-77553432D01*
X125107518Y-77553423D01*
X125016933Y-77359162D01*
X124977172Y-77302379D01*
X124418632Y-77860919D01*
X124399289Y-77788727D01*
X124336096Y-77679273D01*
X124246727Y-77589904D01*
X124137273Y-77526711D01*
X124065080Y-77507367D01*
X124623621Y-76948826D01*
X124623620Y-76948825D01*
X124566840Y-76909067D01*
X124566838Y-76909066D01*
X124372576Y-76818481D01*
X124372567Y-76818477D01*
X124165537Y-76763004D01*
X124165527Y-76763002D01*
X123952001Y-76744321D01*
X123951999Y-76744321D01*
X123738472Y-76763002D01*
X123738462Y-76763004D01*
X123531432Y-76818477D01*
X123531423Y-76818481D01*
X123337162Y-76909066D01*
X123280378Y-76948826D01*
X123838919Y-77507367D01*
X123766727Y-77526711D01*
X123657273Y-77589904D01*
X123567904Y-77679273D01*
X123504711Y-77788727D01*
X123485367Y-77860919D01*
X122926826Y-77302378D01*
X122926825Y-77302378D01*
X122921775Y-77309592D01*
X122867198Y-77353216D01*
X122797699Y-77360409D01*
X122735345Y-77328887D01*
X122699931Y-77268657D01*
X122696880Y-77251437D01*
X122686542Y-77153072D01*
X122627527Y-76971444D01*
X122532040Y-76806056D01*
X122476454Y-76744321D01*
X122404258Y-76664138D01*
X122404255Y-76664136D01*
X122404254Y-76664135D01*
X122404253Y-76664134D01*
X122383621Y-76649144D01*
X122340957Y-76593814D01*
X122334978Y-76524201D01*
X122349118Y-76486832D01*
X122373527Y-76444556D01*
X122432542Y-76262928D01*
X122452504Y-76073000D01*
X122432542Y-75883072D01*
X122373527Y-75701444D01*
X122278040Y-75536056D01*
X122150253Y-75394134D01*
X122147406Y-75390972D01*
X122117176Y-75327981D01*
X122125801Y-75258645D01*
X122170543Y-75204980D01*
X122237195Y-75184022D01*
X122239556Y-75184000D01*
X154943000Y-75184000D01*
X155010039Y-75203685D01*
X155055794Y-75256489D01*
X155067000Y-75308000D01*
X155067000Y-77907756D01*
X155047315Y-77974795D01*
X154994511Y-78020550D01*
X154925353Y-78030494D01*
X154892565Y-78021036D01*
X154841288Y-77998206D01*
X154841286Y-77998205D01*
X154654487Y-77958500D01*
X154463513Y-77958500D01*
X154276714Y-77998205D01*
X154102246Y-78075883D01*
X153947745Y-78188135D01*
X153819959Y-78330057D01*
X153724473Y-78495443D01*
X153724470Y-78495450D01*
X153665459Y-78677068D01*
X153665458Y-78677072D01*
X153645496Y-78867000D01*
X153665458Y-79056928D01*
X153665459Y-79056931D01*
X153724470Y-79238549D01*
X153724473Y-79238556D01*
X153819960Y-79403944D01*
X153947747Y-79545866D01*
X154102248Y-79658118D01*
X154276712Y-79735794D01*
X154463513Y-79775500D01*
X154654487Y-79775500D01*
X154841288Y-79735794D01*
X154892565Y-79712963D01*
X154961813Y-79703679D01*
X155025090Y-79733307D01*
X155062304Y-79792441D01*
X155067000Y-79826243D01*
X155067000Y-86867976D01*
X155047315Y-86935015D01*
X154994511Y-86980770D01*
X154925353Y-86990714D01*
X154861797Y-86961689D01*
X154839192Y-86935798D01*
X154745723Y-86792734D01*
X154745715Y-86792723D01*
X154593243Y-86627097D01*
X154593238Y-86627092D01*
X154415577Y-86488812D01*
X154415572Y-86488808D01*
X154217580Y-86381661D01*
X154217577Y-86381659D01*
X154217574Y-86381658D01*
X154217571Y-86381657D01*
X154217569Y-86381656D01*
X154004637Y-86308556D01*
X153782569Y-86271500D01*
X153557431Y-86271500D01*
X153335362Y-86308556D01*
X153122430Y-86381656D01*
X153122419Y-86381661D01*
X152924427Y-86488808D01*
X152924422Y-86488812D01*
X152746761Y-86627092D01*
X152683548Y-86695760D01*
X152623661Y-86731750D01*
X152553823Y-86729649D01*
X152496207Y-86690124D01*
X152476138Y-86655110D01*
X152430889Y-86533796D01*
X152397214Y-86488812D01*
X152343261Y-86416739D01*
X152226204Y-86329111D01*
X152089203Y-86278011D01*
X152028654Y-86271500D01*
X152028638Y-86271500D01*
X150231362Y-86271500D01*
X150231345Y-86271500D01*
X150170797Y-86278011D01*
X150170795Y-86278011D01*
X150033795Y-86329111D01*
X149916739Y-86416739D01*
X149829111Y-86533795D01*
X149778011Y-86670795D01*
X149778011Y-86670797D01*
X149771500Y-86731345D01*
X149771500Y-88528654D01*
X149778011Y-88589202D01*
X149778011Y-88589204D01*
X149829111Y-88726204D01*
X149916739Y-88843261D01*
X150033796Y-88930889D01*
X150085737Y-88950262D01*
X150151595Y-88974827D01*
X150207528Y-89016699D01*
X150231944Y-89082163D01*
X150217092Y-89150436D01*
X150199490Y-89174991D01*
X150054279Y-89332730D01*
X150054276Y-89332734D01*
X149931140Y-89521207D01*
X149840703Y-89727385D01*
X149785436Y-89945628D01*
X149785434Y-89945640D01*
X149766844Y-90169994D01*
X149766844Y-90170005D01*
X149785434Y-90394359D01*
X149785436Y-90394371D01*
X149840703Y-90612614D01*
X149931140Y-90818792D01*
X150054276Y-91007265D01*
X150054284Y-91007276D01*
X150206756Y-91172902D01*
X150206760Y-91172906D01*
X150384424Y-91311189D01*
X150384429Y-91311191D01*
X150384431Y-91311193D01*
X150420930Y-91330946D01*
X150470520Y-91380165D01*
X150485628Y-91448382D01*
X150461457Y-91513937D01*
X150420930Y-91549054D01*
X150384431Y-91568806D01*
X150384422Y-91568812D01*
X150206761Y-91707092D01*
X150206756Y-91707097D01*
X150054284Y-91872723D01*
X150054276Y-91872734D01*
X149931140Y-92061207D01*
X149840703Y-92267385D01*
X149785436Y-92485628D01*
X149785434Y-92485640D01*
X149766844Y-92709994D01*
X149766844Y-92710005D01*
X149785434Y-92934359D01*
X149785436Y-92934371D01*
X149840703Y-93152614D01*
X149931140Y-93358792D01*
X150054276Y-93547265D01*
X150054284Y-93547276D01*
X150206756Y-93712902D01*
X150206760Y-93712906D01*
X150384424Y-93851189D01*
X150384429Y-93851191D01*
X150384431Y-93851193D01*
X150420930Y-93870946D01*
X150470520Y-93920165D01*
X150485628Y-93988382D01*
X150461457Y-94053937D01*
X150420930Y-94089054D01*
X150384431Y-94108806D01*
X150384422Y-94108812D01*
X150206761Y-94247092D01*
X150206756Y-94247097D01*
X150054284Y-94412723D01*
X150054276Y-94412734D01*
X149931140Y-94601207D01*
X149840703Y-94807385D01*
X149785436Y-95025628D01*
X149785434Y-95025640D01*
X149766844Y-95249994D01*
X149766844Y-95250005D01*
X149785434Y-95474359D01*
X149785436Y-95474371D01*
X149840703Y-95692614D01*
X149931140Y-95898792D01*
X150054276Y-96087265D01*
X150054284Y-96087276D01*
X150206756Y-96252902D01*
X150206760Y-96252906D01*
X150384424Y-96391189D01*
X150384425Y-96391189D01*
X150384427Y-96391191D01*
X150511135Y-96459761D01*
X150582426Y-96498342D01*
X150795365Y-96571444D01*
X151017431Y-96608500D01*
X151242569Y-96608500D01*
X151464635Y-96571444D01*
X151677574Y-96498342D01*
X151875576Y-96391189D01*
X152053240Y-96252906D01*
X152205722Y-96087268D01*
X152296193Y-95948790D01*
X152349338Y-95903437D01*
X152418569Y-95894013D01*
X152481905Y-95923515D01*
X152503804Y-95948787D01*
X152594278Y-96087268D01*
X152594283Y-96087273D01*
X152594284Y-96087276D01*
X152746756Y-96252902D01*
X152746760Y-96252906D01*
X152924424Y-96391189D01*
X152924425Y-96391189D01*
X152924427Y-96391191D01*
X153051135Y-96459761D01*
X153122426Y-96498342D01*
X153335365Y-96571444D01*
X153557431Y-96608500D01*
X153782569Y-96608500D01*
X154004635Y-96571444D01*
X154217574Y-96498342D01*
X154415576Y-96391189D01*
X154593240Y-96252906D01*
X154745722Y-96087268D01*
X154839193Y-95944198D01*
X154892338Y-95898845D01*
X154961569Y-95889421D01*
X155024905Y-95918923D01*
X155062236Y-95977983D01*
X155067000Y-96012023D01*
X155067000Y-103889000D01*
X155047315Y-103956039D01*
X154994511Y-104001794D01*
X154943000Y-104013000D01*
X153679360Y-104013000D01*
X153612321Y-103993315D01*
X153566566Y-103940511D01*
X153556622Y-103871353D01*
X153585647Y-103807797D01*
X153590343Y-103803340D01*
X153590486Y-103801039D01*
X152997874Y-103208427D01*
X153069944Y-103178575D01*
X153169853Y-103111818D01*
X153254818Y-103026853D01*
X153321575Y-102926944D01*
X153351427Y-102854874D01*
X153943023Y-103446471D01*
X154029718Y-103313777D01*
X154029723Y-103313769D01*
X154123918Y-103099025D01*
X154181485Y-102871696D01*
X154200850Y-102638005D01*
X154200850Y-102637994D01*
X154181485Y-102404303D01*
X154123918Y-102176974D01*
X154029723Y-101962230D01*
X154029718Y-101962222D01*
X153943023Y-101829527D01*
X153351426Y-102421124D01*
X153321575Y-102349056D01*
X153254818Y-102249147D01*
X153169853Y-102164182D01*
X153069944Y-102097425D01*
X152997874Y-102067572D01*
X153590487Y-101474959D01*
X153590487Y-101474958D01*
X153557585Y-101449350D01*
X153351348Y-101337739D01*
X153351339Y-101337736D01*
X153129555Y-101261597D01*
X152898250Y-101223000D01*
X152663750Y-101223000D01*
X152432444Y-101261597D01*
X152210660Y-101337736D01*
X152210651Y-101337739D01*
X152004413Y-101449350D01*
X152004407Y-101449354D01*
X151971512Y-101474957D01*
X151971512Y-101474959D01*
X152564125Y-102067572D01*
X152492056Y-102097425D01*
X152392147Y-102164182D01*
X152307182Y-102249147D01*
X152240425Y-102349056D01*
X152210573Y-102421125D01*
X151618975Y-101829527D01*
X151532277Y-101962229D01*
X151438081Y-102176974D01*
X151380514Y-102404303D01*
X151361150Y-102637994D01*
X151361150Y-102638005D01*
X151380514Y-102871696D01*
X151438081Y-103099025D01*
X151532279Y-103313775D01*
X151618975Y-103446471D01*
X152210572Y-102854874D01*
X152240425Y-102926944D01*
X152307182Y-103026853D01*
X152392147Y-103111818D01*
X152492056Y-103178575D01*
X152564125Y-103208426D01*
X151971511Y-103801039D01*
X151972039Y-103809541D01*
X151999615Y-103847859D01*
X152003288Y-103917632D01*
X151968656Y-103978314D01*
X151906714Y-104010640D01*
X151882639Y-104013000D01*
X148599360Y-104013000D01*
X148532321Y-103993315D01*
X148486566Y-103940511D01*
X148476622Y-103871353D01*
X148505647Y-103807797D01*
X148510343Y-103803340D01*
X148510486Y-103801039D01*
X147917874Y-103208427D01*
X147989944Y-103178575D01*
X148089853Y-103111818D01*
X148174818Y-103026853D01*
X148241575Y-102926944D01*
X148271427Y-102854874D01*
X148863023Y-103446471D01*
X148949718Y-103313777D01*
X148949723Y-103313769D01*
X149043918Y-103099025D01*
X149101485Y-102871696D01*
X149120850Y-102638005D01*
X149120850Y-102637994D01*
X149101485Y-102404303D01*
X149043918Y-102176974D01*
X148949723Y-101962230D01*
X148949718Y-101962222D01*
X148863023Y-101829527D01*
X148271426Y-102421124D01*
X148241575Y-102349056D01*
X148174818Y-102249147D01*
X148089853Y-102164182D01*
X147989944Y-102097425D01*
X147917874Y-102067572D01*
X148510487Y-101474959D01*
X148510487Y-101474958D01*
X148477585Y-101449350D01*
X148271348Y-101337739D01*
X148271339Y-101337736D01*
X148049555Y-101261597D01*
X147818250Y-101223000D01*
X147583750Y-101223000D01*
X147352444Y-101261597D01*
X147130660Y-101337736D01*
X147130651Y-101337739D01*
X146924413Y-101449350D01*
X146924407Y-101449354D01*
X146891512Y-101474957D01*
X146891512Y-101474959D01*
X147484125Y-102067572D01*
X147412056Y-102097425D01*
X147312147Y-102164182D01*
X147227182Y-102249147D01*
X147160425Y-102349056D01*
X147130573Y-102421125D01*
X146538975Y-101829527D01*
X146452277Y-101962229D01*
X146358081Y-102176974D01*
X146300514Y-102404303D01*
X146281150Y-102637994D01*
X146281150Y-102638005D01*
X146300514Y-102871696D01*
X146358081Y-103099025D01*
X146452279Y-103313775D01*
X146538975Y-103446471D01*
X147130572Y-102854874D01*
X147160425Y-102926944D01*
X147227182Y-103026853D01*
X147312147Y-103111818D01*
X147412056Y-103178575D01*
X147484125Y-103208426D01*
X146891511Y-103801039D01*
X146892039Y-103809541D01*
X146919615Y-103847859D01*
X146923288Y-103917632D01*
X146888656Y-103978314D01*
X146826714Y-104010640D01*
X146802639Y-104013000D01*
X145920000Y-104013000D01*
X145852961Y-103993315D01*
X145807206Y-103940511D01*
X145796000Y-103889000D01*
X145796000Y-98809999D01*
X148211864Y-98809999D01*
X148211864Y-98810000D01*
X149109488Y-98810000D01*
X149076575Y-98867007D01*
X149042500Y-98994174D01*
X149042500Y-99125826D01*
X149076575Y-99252993D01*
X149109488Y-99310000D01*
X148211864Y-99310000D01*
X148269067Y-99523486D01*
X148269070Y-99523492D01*
X148368899Y-99737578D01*
X148504394Y-99931082D01*
X148671417Y-100098105D01*
X148864921Y-100233600D01*
X149079007Y-100333429D01*
X149079016Y-100333433D01*
X149292500Y-100390634D01*
X149292500Y-99493012D01*
X149349507Y-99525925D01*
X149476674Y-99560000D01*
X149608326Y-99560000D01*
X149735493Y-99525925D01*
X149792500Y-99493012D01*
X149792500Y-100390633D01*
X150005983Y-100333433D01*
X150005992Y-100333429D01*
X150220078Y-100233600D01*
X150413578Y-100098108D01*
X150529414Y-99982272D01*
X150590737Y-99948787D01*
X150660429Y-99953771D01*
X150716363Y-99995642D01*
X150733277Y-100026619D01*
X150781610Y-100156203D01*
X150781611Y-100156204D01*
X150869239Y-100273261D01*
X150986296Y-100360889D01*
X151123299Y-100411989D01*
X151150550Y-100414918D01*
X151183845Y-100418499D01*
X151183862Y-100418500D01*
X152981138Y-100418500D01*
X152981154Y-100418499D01*
X153008192Y-100415591D01*
X153041701Y-100411989D01*
X153178704Y-100360889D01*
X153295761Y-100273261D01*
X153383389Y-100156204D01*
X153434489Y-100019201D01*
X153438459Y-99982272D01*
X153440999Y-99958654D01*
X153441000Y-99958637D01*
X153441000Y-98161362D01*
X153440999Y-98161345D01*
X153437657Y-98130270D01*
X153434489Y-98100799D01*
X153431722Y-98093381D01*
X153405059Y-98021894D01*
X153383389Y-97963796D01*
X153295761Y-97846739D01*
X153178704Y-97759111D01*
X153041703Y-97708011D01*
X152981154Y-97701500D01*
X152981138Y-97701500D01*
X151183862Y-97701500D01*
X151183845Y-97701500D01*
X151123297Y-97708011D01*
X151123295Y-97708011D01*
X150986295Y-97759111D01*
X150869239Y-97846739D01*
X150781611Y-97963795D01*
X150733277Y-98093381D01*
X150691405Y-98149314D01*
X150625941Y-98173730D01*
X150557668Y-98158878D01*
X150529415Y-98137727D01*
X150413582Y-98021894D01*
X150220078Y-97886399D01*
X150005992Y-97786570D01*
X150005986Y-97786567D01*
X149792500Y-97729364D01*
X149792500Y-98626988D01*
X149735493Y-98594075D01*
X149608326Y-98560000D01*
X149476674Y-98560000D01*
X149349507Y-98594075D01*
X149292500Y-98626988D01*
X149292500Y-97729364D01*
X149292499Y-97729364D01*
X149079013Y-97786567D01*
X149079007Y-97786570D01*
X148864922Y-97886399D01*
X148864920Y-97886400D01*
X148671426Y-98021886D01*
X148671420Y-98021891D01*
X148504391Y-98188920D01*
X148504386Y-98188926D01*
X148368900Y-98382420D01*
X148368899Y-98382422D01*
X148269070Y-98596507D01*
X148269067Y-98596513D01*
X148211864Y-98809999D01*
X145796000Y-98809999D01*
X145796000Y-85979000D01*
X110744000Y-85979000D01*
X110744000Y-103889000D01*
X110724315Y-103956039D01*
X110671511Y-104001794D01*
X110620000Y-104013000D01*
X109737360Y-104013000D01*
X109670321Y-103993315D01*
X109624566Y-103940511D01*
X109614622Y-103871353D01*
X109643647Y-103807797D01*
X109648343Y-103803340D01*
X109648486Y-103801039D01*
X109055874Y-103208427D01*
X109127944Y-103178575D01*
X109227853Y-103111818D01*
X109312818Y-103026853D01*
X109379575Y-102926944D01*
X109409427Y-102854874D01*
X110001023Y-103446471D01*
X110087718Y-103313777D01*
X110087723Y-103313769D01*
X110181918Y-103099025D01*
X110239485Y-102871696D01*
X110258850Y-102638005D01*
X110258850Y-102637994D01*
X110239485Y-102404303D01*
X110181918Y-102176974D01*
X110087723Y-101962230D01*
X110087718Y-101962222D01*
X110001023Y-101829527D01*
X109409426Y-102421124D01*
X109379575Y-102349056D01*
X109312818Y-102249147D01*
X109227853Y-102164182D01*
X109127944Y-102097425D01*
X109055874Y-102067572D01*
X109648487Y-101474959D01*
X109648487Y-101474958D01*
X109615585Y-101449350D01*
X109409348Y-101337739D01*
X109409339Y-101337736D01*
X109187555Y-101261597D01*
X108956250Y-101223000D01*
X108721750Y-101223000D01*
X108490444Y-101261597D01*
X108268660Y-101337736D01*
X108268651Y-101337739D01*
X108062413Y-101449350D01*
X108062407Y-101449354D01*
X108029512Y-101474957D01*
X108029512Y-101474959D01*
X108622125Y-102067572D01*
X108550056Y-102097425D01*
X108450147Y-102164182D01*
X108365182Y-102249147D01*
X108298425Y-102349056D01*
X108268573Y-102421125D01*
X107676975Y-101829527D01*
X107590277Y-101962229D01*
X107496081Y-102176974D01*
X107438514Y-102404303D01*
X107419150Y-102637994D01*
X107419150Y-102638005D01*
X107438514Y-102871696D01*
X107496081Y-103099025D01*
X107590279Y-103313775D01*
X107676975Y-103446471D01*
X108268572Y-102854874D01*
X108298425Y-102926944D01*
X108365182Y-103026853D01*
X108450147Y-103111818D01*
X108550056Y-103178575D01*
X108622125Y-103208426D01*
X108029511Y-103801039D01*
X108030039Y-103809541D01*
X108057615Y-103847859D01*
X108061288Y-103917632D01*
X108026656Y-103978314D01*
X107964714Y-104010640D01*
X107940639Y-104013000D01*
X104657360Y-104013000D01*
X104590321Y-103993315D01*
X104544566Y-103940511D01*
X104534622Y-103871353D01*
X104563647Y-103807797D01*
X104568343Y-103803340D01*
X104568486Y-103801039D01*
X103975874Y-103208427D01*
X104047944Y-103178575D01*
X104147853Y-103111818D01*
X104232818Y-103026853D01*
X104299575Y-102926944D01*
X104329427Y-102854874D01*
X104921023Y-103446471D01*
X105007718Y-103313777D01*
X105007723Y-103313769D01*
X105101918Y-103099025D01*
X105159485Y-102871696D01*
X105178850Y-102638005D01*
X105178850Y-102637994D01*
X105159485Y-102404303D01*
X105101918Y-102176974D01*
X105007723Y-101962230D01*
X105007718Y-101962222D01*
X104921023Y-101829527D01*
X104329426Y-102421124D01*
X104299575Y-102349056D01*
X104232818Y-102249147D01*
X104147853Y-102164182D01*
X104047944Y-102097425D01*
X103975874Y-102067572D01*
X104568487Y-101474959D01*
X104568487Y-101474958D01*
X104535585Y-101449350D01*
X104329348Y-101337739D01*
X104329339Y-101337736D01*
X104107555Y-101261597D01*
X103876250Y-101223000D01*
X103641750Y-101223000D01*
X103410444Y-101261597D01*
X103188660Y-101337736D01*
X103188651Y-101337739D01*
X102982413Y-101449350D01*
X102982407Y-101449354D01*
X102949512Y-101474957D01*
X102949512Y-101474959D01*
X103542125Y-102067572D01*
X103470056Y-102097425D01*
X103370147Y-102164182D01*
X103285182Y-102249147D01*
X103218425Y-102349056D01*
X103188573Y-102421125D01*
X102596975Y-101829527D01*
X102510277Y-101962229D01*
X102416081Y-102176974D01*
X102358514Y-102404303D01*
X102339150Y-102637994D01*
X102339150Y-102638005D01*
X102358514Y-102871696D01*
X102416081Y-103099025D01*
X102510279Y-103313775D01*
X102596975Y-103446471D01*
X103188572Y-102854874D01*
X103218425Y-102926944D01*
X103285182Y-103026853D01*
X103370147Y-103111818D01*
X103470056Y-103178575D01*
X103542125Y-103208426D01*
X102949511Y-103801039D01*
X102950039Y-103809541D01*
X102977615Y-103847859D01*
X102981288Y-103917632D01*
X102946656Y-103978314D01*
X102884714Y-104010640D01*
X102860639Y-104013000D01*
X101597000Y-104013000D01*
X101529961Y-103993315D01*
X101484206Y-103940511D01*
X101473000Y-103889000D01*
X101473000Y-98809999D01*
X103126864Y-98809999D01*
X103126864Y-98810000D01*
X104024488Y-98810000D01*
X103991575Y-98867007D01*
X103957500Y-98994174D01*
X103957500Y-99125826D01*
X103991575Y-99252993D01*
X104024488Y-99310000D01*
X103126864Y-99310000D01*
X103184067Y-99523486D01*
X103184070Y-99523492D01*
X103283899Y-99737578D01*
X103419394Y-99931082D01*
X103586417Y-100098105D01*
X103779921Y-100233600D01*
X103994007Y-100333429D01*
X103994016Y-100333433D01*
X104207500Y-100390634D01*
X104207500Y-99493012D01*
X104264507Y-99525925D01*
X104391674Y-99560000D01*
X104523326Y-99560000D01*
X104650493Y-99525925D01*
X104707500Y-99493012D01*
X104707500Y-100390633D01*
X104920983Y-100333433D01*
X104920992Y-100333429D01*
X105135078Y-100233600D01*
X105328578Y-100098108D01*
X105444414Y-99982272D01*
X105505737Y-99948787D01*
X105575429Y-99953771D01*
X105631363Y-99995642D01*
X105648277Y-100026619D01*
X105696610Y-100156203D01*
X105696611Y-100156204D01*
X105784239Y-100273261D01*
X105901296Y-100360889D01*
X106038299Y-100411989D01*
X106065550Y-100414918D01*
X106098845Y-100418499D01*
X106098862Y-100418500D01*
X107896138Y-100418500D01*
X107896154Y-100418499D01*
X107923192Y-100415591D01*
X107956701Y-100411989D01*
X108093704Y-100360889D01*
X108210761Y-100273261D01*
X108298389Y-100156204D01*
X108349489Y-100019201D01*
X108353459Y-99982272D01*
X108355999Y-99958654D01*
X108356000Y-99958637D01*
X108356000Y-98161362D01*
X108355999Y-98161345D01*
X108352657Y-98130270D01*
X108349489Y-98100799D01*
X108346722Y-98093381D01*
X108320059Y-98021894D01*
X108298389Y-97963796D01*
X108210761Y-97846739D01*
X108093704Y-97759111D01*
X107956703Y-97708011D01*
X107896154Y-97701500D01*
X107896138Y-97701500D01*
X106098862Y-97701500D01*
X106098845Y-97701500D01*
X106038297Y-97708011D01*
X106038295Y-97708011D01*
X105901295Y-97759111D01*
X105784239Y-97846739D01*
X105696611Y-97963795D01*
X105648277Y-98093381D01*
X105606405Y-98149314D01*
X105540941Y-98173730D01*
X105472668Y-98158878D01*
X105444415Y-98137727D01*
X105328582Y-98021894D01*
X105135078Y-97886399D01*
X104920992Y-97786570D01*
X104920986Y-97786567D01*
X104707500Y-97729364D01*
X104707500Y-98626988D01*
X104650493Y-98594075D01*
X104523326Y-98560000D01*
X104391674Y-98560000D01*
X104264507Y-98594075D01*
X104207500Y-98626988D01*
X104207500Y-97729364D01*
X104207499Y-97729364D01*
X103994013Y-97786567D01*
X103994007Y-97786570D01*
X103779922Y-97886399D01*
X103779920Y-97886400D01*
X103586426Y-98021886D01*
X103586420Y-98021891D01*
X103419391Y-98188920D01*
X103419386Y-98188926D01*
X103283900Y-98382420D01*
X103283899Y-98382422D01*
X103184070Y-98596507D01*
X103184067Y-98596513D01*
X103126864Y-98809999D01*
X101473000Y-98809999D01*
X101473000Y-96012023D01*
X101492685Y-95944984D01*
X101545489Y-95899229D01*
X101614647Y-95889285D01*
X101678203Y-95918310D01*
X101700804Y-95944195D01*
X101794278Y-96087268D01*
X101794283Y-96087273D01*
X101794284Y-96087276D01*
X101946756Y-96252902D01*
X101946760Y-96252906D01*
X102124424Y-96391189D01*
X102124425Y-96391189D01*
X102124427Y-96391191D01*
X102251135Y-96459761D01*
X102322426Y-96498342D01*
X102535365Y-96571444D01*
X102757431Y-96608500D01*
X102982569Y-96608500D01*
X103204635Y-96571444D01*
X103417574Y-96498342D01*
X103615576Y-96391189D01*
X103793240Y-96252906D01*
X103945722Y-96087268D01*
X104036193Y-95948790D01*
X104089338Y-95903437D01*
X104158569Y-95894013D01*
X104221905Y-95923515D01*
X104243804Y-95948787D01*
X104334278Y-96087268D01*
X104334283Y-96087273D01*
X104334284Y-96087276D01*
X104486756Y-96252902D01*
X104486760Y-96252906D01*
X104664424Y-96391189D01*
X104664425Y-96391189D01*
X104664427Y-96391191D01*
X104791135Y-96459761D01*
X104862426Y-96498342D01*
X105075365Y-96571444D01*
X105297431Y-96608500D01*
X105522569Y-96608500D01*
X105744635Y-96571444D01*
X105957574Y-96498342D01*
X106155576Y-96391189D01*
X106333240Y-96252906D01*
X106485722Y-96087268D01*
X106608860Y-95898791D01*
X106699296Y-95692616D01*
X106754564Y-95474368D01*
X106773156Y-95250000D01*
X106754564Y-95025632D01*
X106699296Y-94807384D01*
X106608860Y-94601209D01*
X106595706Y-94581076D01*
X106485723Y-94412734D01*
X106485715Y-94412723D01*
X106333243Y-94247097D01*
X106333238Y-94247092D01*
X106155577Y-94108812D01*
X106155578Y-94108812D01*
X106155576Y-94108811D01*
X106119070Y-94089055D01*
X106069479Y-94039836D01*
X106054371Y-93971619D01*
X106078541Y-93906064D01*
X106119070Y-93870945D01*
X106119084Y-93870936D01*
X106155576Y-93851189D01*
X106333240Y-93712906D01*
X106485722Y-93547268D01*
X106608860Y-93358791D01*
X106699296Y-93152616D01*
X106754564Y-92934368D01*
X106773156Y-92710000D01*
X106754564Y-92485632D01*
X106699296Y-92267384D01*
X106608860Y-92061209D01*
X106595706Y-92041076D01*
X106485723Y-91872734D01*
X106485715Y-91872723D01*
X106333243Y-91707097D01*
X106333238Y-91707092D01*
X106155577Y-91568812D01*
X106155578Y-91568812D01*
X106155576Y-91568811D01*
X106119070Y-91549055D01*
X106069479Y-91499836D01*
X106054371Y-91431619D01*
X106078541Y-91366064D01*
X106119070Y-91330945D01*
X106119084Y-91330936D01*
X106155576Y-91311189D01*
X106333240Y-91172906D01*
X106485722Y-91007268D01*
X106608860Y-90818791D01*
X106699296Y-90612616D01*
X106754564Y-90394368D01*
X106773156Y-90170000D01*
X106754564Y-89945632D01*
X106699296Y-89727384D01*
X106608860Y-89521209D01*
X106595706Y-89501076D01*
X106485723Y-89332734D01*
X106485715Y-89332723D01*
X106333243Y-89167097D01*
X106333238Y-89167092D01*
X106155577Y-89028812D01*
X106155578Y-89028812D01*
X106155576Y-89028811D01*
X106119070Y-89009055D01*
X106069479Y-88959836D01*
X106054371Y-88891619D01*
X106078541Y-88826064D01*
X106119070Y-88790945D01*
X106119084Y-88790936D01*
X106155576Y-88771189D01*
X106333240Y-88632906D01*
X106485722Y-88467268D01*
X106608860Y-88278791D01*
X106699296Y-88072616D01*
X106754564Y-87854368D01*
X106773156Y-87630000D01*
X106754564Y-87405632D01*
X106699296Y-87187384D01*
X106608860Y-86981209D01*
X106485722Y-86792732D01*
X106485719Y-86792729D01*
X106485715Y-86792723D01*
X106333243Y-86627097D01*
X106333238Y-86627092D01*
X106155577Y-86488812D01*
X106155572Y-86488808D01*
X105957580Y-86381661D01*
X105957577Y-86381659D01*
X105957574Y-86381658D01*
X105957571Y-86381657D01*
X105957569Y-86381656D01*
X105744637Y-86308556D01*
X105522569Y-86271500D01*
X105297431Y-86271500D01*
X105075362Y-86308556D01*
X104862430Y-86381656D01*
X104862419Y-86381661D01*
X104664427Y-86488808D01*
X104664422Y-86488812D01*
X104486761Y-86627092D01*
X104423548Y-86695760D01*
X104363661Y-86731750D01*
X104293823Y-86729649D01*
X104236207Y-86690124D01*
X104216138Y-86655110D01*
X104170889Y-86533796D01*
X104137214Y-86488812D01*
X104083261Y-86416739D01*
X103966204Y-86329111D01*
X103829203Y-86278011D01*
X103768654Y-86271500D01*
X103768638Y-86271500D01*
X101971362Y-86271500D01*
X101971345Y-86271500D01*
X101910797Y-86278011D01*
X101910795Y-86278011D01*
X101773795Y-86329111D01*
X101724530Y-86365991D01*
X101671309Y-86405831D01*
X101605847Y-86430248D01*
X101537574Y-86415396D01*
X101488168Y-86365991D01*
X101473000Y-86306564D01*
X101473000Y-85217000D01*
X146533496Y-85217000D01*
X146553458Y-85406928D01*
X146553459Y-85406931D01*
X146612470Y-85588549D01*
X146612473Y-85588556D01*
X146707960Y-85753944D01*
X146835747Y-85895866D01*
X146990248Y-86008118D01*
X147164712Y-86085794D01*
X147351513Y-86125500D01*
X147542487Y-86125500D01*
X147729288Y-86085794D01*
X147903752Y-86008118D01*
X148058253Y-85895866D01*
X148186040Y-85753944D01*
X148281527Y-85588556D01*
X148340542Y-85406928D01*
X148360504Y-85217000D01*
X148340542Y-85027072D01*
X148281527Y-84845444D01*
X148186040Y-84680056D01*
X148058253Y-84538134D01*
X147903752Y-84425882D01*
X147729288Y-84348206D01*
X147729286Y-84348205D01*
X147542487Y-84308500D01*
X147351513Y-84308500D01*
X147164714Y-84348205D01*
X146990246Y-84425883D01*
X146835745Y-84538135D01*
X146707959Y-84680057D01*
X146612473Y-84845443D01*
X146612470Y-84845450D01*
X146553459Y-85027068D01*
X146553458Y-85027072D01*
X146533496Y-85217000D01*
X101473000Y-85217000D01*
X101473000Y-83693000D01*
X114529496Y-83693000D01*
X114549458Y-83882928D01*
X114549459Y-83882931D01*
X114608470Y-84064549D01*
X114608473Y-84064556D01*
X114703960Y-84229944D01*
X114831747Y-84371866D01*
X114986248Y-84484118D01*
X115160712Y-84561794D01*
X115347513Y-84601500D01*
X115538487Y-84601500D01*
X115725288Y-84561794D01*
X115899752Y-84484118D01*
X116054253Y-84371866D01*
X116182040Y-84229944D01*
X116277527Y-84064556D01*
X116336542Y-83882928D01*
X116356504Y-83693000D01*
X120879496Y-83693000D01*
X120899458Y-83882928D01*
X120899459Y-83882931D01*
X120958470Y-84064549D01*
X120958473Y-84064556D01*
X121053960Y-84229944D01*
X121181747Y-84371866D01*
X121336248Y-84484118D01*
X121510712Y-84561794D01*
X121697513Y-84601500D01*
X121888487Y-84601500D01*
X122075288Y-84561794D01*
X122249752Y-84484118D01*
X122404253Y-84371866D01*
X122532040Y-84229944D01*
X122627527Y-84064556D01*
X122686542Y-83882928D01*
X122706504Y-83693000D01*
X122686542Y-83503072D01*
X122627527Y-83321444D01*
X122532040Y-83156056D01*
X122404253Y-83014134D01*
X122249752Y-82901882D01*
X122075288Y-82824206D01*
X122075286Y-82824205D01*
X121888487Y-82784500D01*
X121697513Y-82784500D01*
X121510714Y-82824205D01*
X121336246Y-82901883D01*
X121181745Y-83014135D01*
X121053959Y-83156057D01*
X120958473Y-83321443D01*
X120958470Y-83321450D01*
X120910816Y-83468116D01*
X120899458Y-83503072D01*
X120879496Y-83693000D01*
X116356504Y-83693000D01*
X116336542Y-83503072D01*
X116277527Y-83321444D01*
X116182040Y-83156056D01*
X116054253Y-83014134D01*
X115899752Y-82901882D01*
X115725288Y-82824206D01*
X115725286Y-82824205D01*
X115538487Y-82784500D01*
X115347513Y-82784500D01*
X115160714Y-82824205D01*
X114986246Y-82901883D01*
X114831745Y-83014135D01*
X114703959Y-83156057D01*
X114608473Y-83321443D01*
X114608470Y-83321450D01*
X114560816Y-83468116D01*
X114549458Y-83503072D01*
X114529496Y-83693000D01*
X101473000Y-83693000D01*
X101473000Y-83197009D01*
X101492685Y-83129970D01*
X101545489Y-83084215D01*
X101614647Y-83074271D01*
X101678203Y-83103296D01*
X101704386Y-83135008D01*
X101749960Y-83213944D01*
X101877747Y-83355866D01*
X102032248Y-83468118D01*
X102206712Y-83545794D01*
X102393513Y-83585500D01*
X102584487Y-83585500D01*
X102771288Y-83545794D01*
X102945752Y-83468118D01*
X103100253Y-83355866D01*
X103228040Y-83213944D01*
X103323527Y-83048556D01*
X103382542Y-82866928D01*
X103402504Y-82677000D01*
X103382542Y-82487072D01*
X103323527Y-82305444D01*
X103228040Y-82140056D01*
X103100253Y-81998134D01*
X102945752Y-81885882D01*
X102771288Y-81808206D01*
X102771286Y-81808205D01*
X102584487Y-81768500D01*
X102393513Y-81768500D01*
X102206714Y-81808205D01*
X102032246Y-81885883D01*
X101877745Y-81998135D01*
X101749958Y-82140057D01*
X101704387Y-82218990D01*
X101653820Y-82267206D01*
X101585213Y-82280429D01*
X101520348Y-82254461D01*
X101479820Y-82197546D01*
X101473000Y-82156990D01*
X101473000Y-79826243D01*
X101492685Y-79759204D01*
X101545489Y-79713449D01*
X101614647Y-79703505D01*
X101647432Y-79712962D01*
X101698712Y-79735794D01*
X101885513Y-79775500D01*
X102076487Y-79775500D01*
X102263288Y-79735794D01*
X102437752Y-79658118D01*
X102592253Y-79545866D01*
X102720040Y-79403944D01*
X102815527Y-79238556D01*
X102874542Y-79056928D01*
X102894504Y-78867000D01*
X102874542Y-78677072D01*
X102815527Y-78495444D01*
X102720040Y-78330056D01*
X102592253Y-78188134D01*
X102437752Y-78075882D01*
X102263288Y-77998206D01*
X102263286Y-77998205D01*
X102076487Y-77958500D01*
X101885513Y-77958500D01*
X101698714Y-77998205D01*
X101674200Y-78009119D01*
X101648527Y-78020550D01*
X101647435Y-78021036D01*
X101578185Y-78030320D01*
X101514908Y-78000691D01*
X101477696Y-77941556D01*
X101473000Y-77907756D01*
X101473000Y-75308000D01*
X101492685Y-75240961D01*
X101545489Y-75195206D01*
X101597000Y-75184000D01*
X111460969Y-75184000D01*
X111528008Y-75203685D01*
G37*
%TD.AperFunction*%
%TD*%
M02*
