%TF.GenerationSoftware,KiCad,Pcbnew,8.0.9*%
%TF.CreationDate,2025-08-25T15:10:49-06:00*%
%TF.ProjectId,Breadboard Power Supply,42726561-6462-46f6-9172-6420506f7765,v1*%
%TF.SameCoordinates,Original*%
%TF.FileFunction,Paste,Top*%
%TF.FilePolarity,Positive*%
%FSLAX46Y46*%
G04 Gerber Fmt 4.6, Leading zero omitted, Abs format (unit mm)*
G04 Created by KiCad (PCBNEW 8.0.9) date 2025-08-25 15:10:49*
%MOMM*%
%LPD*%
G01*
G04 APERTURE LIST*
G04 Aperture macros list*
%AMRoundRect*
0 Rectangle with rounded corners*
0 $1 Rounding radius*
0 $2 $3 $4 $5 $6 $7 $8 $9 X,Y pos of 4 corners*
0 Add a 4 corners polygon primitive as box body*
4,1,4,$2,$3,$4,$5,$6,$7,$8,$9,$2,$3,0*
0 Add four circle primitives for the rounded corners*
1,1,$1+$1,$2,$3*
1,1,$1+$1,$4,$5*
1,1,$1+$1,$6,$7*
1,1,$1+$1,$8,$9*
0 Add four rect primitives between the rounded corners*
20,1,$1+$1,$2,$3,$4,$5,0*
20,1,$1+$1,$4,$5,$6,$7,0*
20,1,$1+$1,$6,$7,$8,$9,0*
20,1,$1+$1,$8,$9,$2,$3,0*%
G04 Aperture macros list end*
%ADD10RoundRect,0.135000X-0.185000X0.135000X-0.185000X-0.135000X0.185000X-0.135000X0.185000X0.135000X0*%
%ADD11RoundRect,0.250000X-0.250000X-0.475000X0.250000X-0.475000X0.250000X0.475000X-0.250000X0.475000X0*%
%ADD12RoundRect,0.218750X0.218750X0.256250X-0.218750X0.256250X-0.218750X-0.256250X0.218750X-0.256250X0*%
%ADD13RoundRect,0.218750X0.218750X0.381250X-0.218750X0.381250X-0.218750X-0.381250X0.218750X-0.381250X0*%
%ADD14RoundRect,0.140000X-0.170000X0.140000X-0.170000X-0.140000X0.170000X-0.140000X0.170000X0.140000X0*%
%ADD15RoundRect,0.250000X0.250000X0.475000X-0.250000X0.475000X-0.250000X-0.475000X0.250000X-0.475000X0*%
%ADD16RoundRect,0.135000X-0.135000X-0.185000X0.135000X-0.185000X0.135000X0.185000X-0.135000X0.185000X0*%
%ADD17R,1.120000X1.370000*%
%ADD18RoundRect,0.135000X0.135000X0.185000X-0.135000X0.185000X-0.135000X-0.185000X0.135000X-0.185000X0*%
%ADD19R,0.977900X0.406400*%
%ADD20R,0.990600X1.905000*%
%ADD21R,0.700000X1.200000*%
%ADD22R,0.760000X1.200000*%
%ADD23R,0.800000X1.200000*%
%ADD24RoundRect,0.135000X0.185000X-0.135000X0.185000X0.135000X-0.185000X0.135000X-0.185000X-0.135000X0*%
%ADD25RoundRect,0.375000X-0.625000X-0.375000X0.625000X-0.375000X0.625000X0.375000X-0.625000X0.375000X0*%
%ADD26RoundRect,0.500000X-0.500000X-1.400000X0.500000X-1.400000X0.500000X1.400000X-0.500000X1.400000X0*%
%ADD27RoundRect,0.375000X0.625000X0.375000X-0.625000X0.375000X-0.625000X-0.375000X0.625000X-0.375000X0*%
%ADD28RoundRect,0.500000X0.500000X1.400000X-0.500000X1.400000X-0.500000X-1.400000X0.500000X-1.400000X0*%
G04 APERTURE END LIST*
D10*
%TO.C,R4*%
X111887000Y-78105000D03*
X111887000Y-79125000D03*
%TD*%
D11*
%TO.C,C5*%
X147883000Y-83693000D03*
X149783000Y-83693000D03*
%TD*%
D12*
%TO.C,D5*%
X137020500Y-80549000D03*
X135445500Y-80549000D03*
%TD*%
D13*
%TO.C,L2*%
X120523000Y-78359000D03*
X118398000Y-78359000D03*
%TD*%
D12*
%TO.C,D3*%
X137020500Y-82299000D03*
X135445500Y-82299000D03*
%TD*%
D14*
%TO.C,C8*%
X102133000Y-83467000D03*
X102133000Y-84427000D03*
%TD*%
%TO.C,C7*%
X146293000Y-83241000D03*
X146293000Y-84201000D03*
%TD*%
D15*
%TO.C,C2*%
X114295000Y-83693000D03*
X112395000Y-83693000D03*
%TD*%
D16*
%TO.C,R2*%
X128899000Y-84381000D03*
X129919000Y-84381000D03*
%TD*%
D12*
%TO.C,D4*%
X137008000Y-78781000D03*
X135433000Y-78781000D03*
%TD*%
D10*
%TO.C,R12*%
X116633000Y-80129000D03*
X116633000Y-81149000D03*
%TD*%
D11*
%TO.C,C4*%
X112969000Y-76327000D03*
X114869000Y-76327000D03*
%TD*%
D17*
%TO.C,D1*%
X121007000Y-80645000D03*
X118007000Y-80645000D03*
%TD*%
D18*
%TO.C,R8*%
X144893000Y-75831000D03*
X143873000Y-75831000D03*
%TD*%
%TO.C,R7*%
X142893000Y-75831000D03*
X141873000Y-75831000D03*
%TD*%
D11*
%TO.C,C3*%
X151511000Y-83693000D03*
X153411000Y-83693000D03*
%TD*%
D19*
%TO.C,U4*%
X118543150Y-82941200D03*
X118543150Y-83881000D03*
X118543150Y-84820800D03*
X121222850Y-84833500D03*
X121222850Y-82928500D03*
%TD*%
D10*
%TO.C,R9*%
X116633000Y-82419000D03*
X116633000Y-83439000D03*
%TD*%
D18*
%TO.C,R1*%
X127633000Y-84381000D03*
X126613000Y-84381000D03*
%TD*%
D20*
%TO.C,F1*%
X107384400Y-84081000D03*
X110381600Y-84081000D03*
%TD*%
D18*
%TO.C,R13*%
X116717000Y-84709000D03*
X115697000Y-84709000D03*
%TD*%
D21*
%TO.C,J1*%
X128772000Y-81854000D03*
D22*
X126752000Y-81854000D03*
D23*
X125522000Y-81854000D03*
D21*
X127772000Y-81854000D03*
D22*
X129792000Y-81854000D03*
D23*
X131022000Y-81854000D03*
%TD*%
D10*
%TO.C,R6*%
X111887000Y-80895000D03*
X111887000Y-81915000D03*
%TD*%
D12*
%TO.C,D6*%
X137033000Y-83981000D03*
X135458000Y-83981000D03*
%TD*%
D24*
%TO.C,R5*%
X144833000Y-77841000D03*
X144833000Y-76821000D03*
%TD*%
D25*
%TO.C,U2*%
X146623000Y-76567000D03*
X146623000Y-78867000D03*
D26*
X152923000Y-78867000D03*
D25*
X146623000Y-81167000D03*
%TD*%
D15*
%TO.C,C10*%
X120457000Y-76073000D03*
X118557000Y-76073000D03*
%TD*%
D11*
%TO.C,C6*%
X103515000Y-83947000D03*
X105415000Y-83947000D03*
%TD*%
D12*
%TO.C,D2*%
X137020500Y-77049000D03*
X135445500Y-77049000D03*
%TD*%
D27*
%TO.C,U1*%
X109878000Y-81167000D03*
X109878000Y-78867000D03*
D28*
X103578000Y-78867000D03*
D27*
X109878000Y-76567000D03*
%TD*%
M02*
