%TF.GenerationSoftware,KiCad,Pcbnew,8.0.4*%
%TF.CreationDate,2024-09-02T14:01:08-06:00*%
%TF.ProjectId,Breadboard Power Supply,42726561-6462-46f6-9172-6420506f7765,v1*%
%TF.SameCoordinates,Original*%
%TF.FileFunction,Paste,Top*%
%TF.FilePolarity,Positive*%
%FSLAX46Y46*%
G04 Gerber Fmt 4.6, Leading zero omitted, Abs format (unit mm)*
G04 Created by KiCad (PCBNEW 8.0.4) date 2024-09-02 14:01:08*
%MOMM*%
%LPD*%
G01*
G04 APERTURE LIST*
G04 Aperture macros list*
%AMRoundRect*
0 Rectangle with rounded corners*
0 $1 Rounding radius*
0 $2 $3 $4 $5 $6 $7 $8 $9 X,Y pos of 4 corners*
0 Add a 4 corners polygon primitive as box body*
4,1,4,$2,$3,$4,$5,$6,$7,$8,$9,$2,$3,0*
0 Add four circle primitives for the rounded corners*
1,1,$1+$1,$2,$3*
1,1,$1+$1,$4,$5*
1,1,$1+$1,$6,$7*
1,1,$1+$1,$8,$9*
0 Add four rect primitives between the rounded corners*
20,1,$1+$1,$2,$3,$4,$5,0*
20,1,$1+$1,$4,$5,$6,$7,0*
20,1,$1+$1,$6,$7,$8,$9,0*
20,1,$1+$1,$8,$9,$2,$3,0*%
G04 Aperture macros list end*
%ADD10C,0.735000*%
%ADD11RoundRect,0.135000X-0.185000X0.135000X-0.185000X-0.135000X0.185000X-0.135000X0.185000X0.135000X0*%
%ADD12RoundRect,0.250000X-0.250000X-0.475000X0.250000X-0.475000X0.250000X0.475000X-0.250000X0.475000X0*%
%ADD13RoundRect,0.218750X0.218750X0.381250X-0.218750X0.381250X-0.218750X-0.381250X0.218750X-0.381250X0*%
%ADD14RoundRect,0.135000X-0.135000X-0.185000X0.135000X-0.185000X0.135000X0.185000X-0.135000X0.185000X0*%
%ADD15RoundRect,0.140000X-0.170000X0.140000X-0.170000X-0.140000X0.170000X-0.140000X0.170000X0.140000X0*%
%ADD16RoundRect,0.250000X0.250000X0.475000X-0.250000X0.475000X-0.250000X-0.475000X0.250000X-0.475000X0*%
%ADD17RoundRect,0.218750X-0.218750X-0.256250X0.218750X-0.256250X0.218750X0.256250X-0.218750X0.256250X0*%
%ADD18R,1.120000X1.370000*%
%ADD19RoundRect,0.135000X0.135000X0.185000X-0.135000X0.185000X-0.135000X-0.185000X0.135000X-0.185000X0*%
%ADD20R,1.200000X0.550000*%
%ADD21RoundRect,0.140000X0.140000X0.170000X-0.140000X0.170000X-0.140000X-0.170000X0.140000X-0.170000X0*%
%ADD22R,0.700000X1.200000*%
%ADD23R,0.760000X1.200000*%
%ADD24R,0.800000X1.200000*%
%ADD25RoundRect,0.135000X0.185000X-0.135000X0.185000X0.135000X-0.185000X0.135000X-0.185000X-0.135000X0*%
%ADD26RoundRect,0.375000X-0.625000X-0.375000X0.625000X-0.375000X0.625000X0.375000X-0.625000X0.375000X0*%
%ADD27RoundRect,0.500000X-0.500000X-1.400000X0.500000X-1.400000X0.500000X1.400000X-0.500000X1.400000X0*%
%ADD28RoundRect,0.375000X0.625000X0.375000X-0.625000X0.375000X-0.625000X-0.375000X0.625000X-0.375000X0*%
%ADD29RoundRect,0.500000X0.500000X1.400000X-0.500000X1.400000X-0.500000X-1.400000X0.500000X-1.400000X0*%
G04 APERTURE END LIST*
%TO.C,J1*%
D10*
X124319500Y-77974000D02*
G75*
G02*
X123584500Y-77974000I-367500J0D01*
G01*
X123584500Y-77974000D02*
G75*
G02*
X124319500Y-77974000I367500J0D01*
G01*
X124319500Y-81774000D02*
G75*
G02*
X123584500Y-81774000I-367500J0D01*
G01*
X123584500Y-81774000D02*
G75*
G02*
X124319500Y-81774000I367500J0D01*
G01*
X132959500Y-77974000D02*
G75*
G02*
X132224500Y-77974000I-367500J0D01*
G01*
X132224500Y-77974000D02*
G75*
G02*
X132959500Y-77974000I367500J0D01*
G01*
X132959500Y-81774000D02*
G75*
G02*
X132224500Y-81774000I-367500J0D01*
G01*
X132224500Y-81774000D02*
G75*
G02*
X132959500Y-81774000I367500J0D01*
G01*
%TD*%
D11*
%TO.C,R4*%
X111887000Y-78105000D03*
X111887000Y-79125000D03*
%TD*%
D12*
%TO.C,C5*%
X146751000Y-83693000D03*
X148651000Y-83693000D03*
%TD*%
D13*
%TO.C,L2*%
X120523000Y-78359000D03*
X118398000Y-78359000D03*
%TD*%
D14*
%TO.C,R3*%
X136523000Y-78105000D03*
X137543000Y-78105000D03*
%TD*%
D15*
%TO.C,C8*%
X103251000Y-83467000D03*
X103251000Y-84427000D03*
%TD*%
%TO.C,C7*%
X145161000Y-83241000D03*
X145161000Y-84201000D03*
%TD*%
D16*
%TO.C,C2*%
X114295000Y-83693000D03*
X112395000Y-83693000D03*
%TD*%
D14*
%TO.C,R2*%
X128903000Y-84455000D03*
X129923000Y-84455000D03*
%TD*%
D11*
%TO.C,R12*%
X116459000Y-80129000D03*
X116459000Y-81149000D03*
%TD*%
D17*
%TO.C,D2*%
X136245500Y-76105000D03*
X137820500Y-76105000D03*
%TD*%
D12*
%TO.C,C4*%
X112969000Y-76327000D03*
X114869000Y-76327000D03*
%TD*%
D18*
%TO.C,D1*%
X121007000Y-80645000D03*
X118007000Y-80645000D03*
%TD*%
D19*
%TO.C,R8*%
X143133000Y-76073000D03*
X142113000Y-76073000D03*
%TD*%
%TO.C,R7*%
X140593000Y-76073000D03*
X139573000Y-76073000D03*
%TD*%
D12*
%TO.C,C3*%
X151511000Y-83693000D03*
X153411000Y-83693000D03*
%TD*%
D20*
%TO.C,IC1*%
X118277000Y-82931000D03*
X118277000Y-83881000D03*
X118277000Y-84831000D03*
X120777000Y-84831000D03*
X120777000Y-82931000D03*
%TD*%
D11*
%TO.C,R9*%
X116459000Y-82419000D03*
X116459000Y-83439000D03*
%TD*%
D19*
%TO.C,R1*%
X127637000Y-84455000D03*
X126617000Y-84455000D03*
%TD*%
%TO.C,R13*%
X116717000Y-84709000D03*
X115697000Y-84709000D03*
%TD*%
D21*
%TO.C,C1*%
X113863000Y-85471000D03*
X112903000Y-85471000D03*
%TD*%
D22*
%TO.C,J1*%
X128772000Y-81854000D03*
D23*
X126752000Y-81854000D03*
D24*
X125522000Y-81854000D03*
D22*
X127772000Y-81854000D03*
D23*
X129792000Y-81854000D03*
D24*
X131022000Y-81854000D03*
%TD*%
D11*
%TO.C,R6*%
X111887000Y-80895000D03*
X111887000Y-81915000D03*
%TD*%
D25*
%TO.C,R5*%
X144653000Y-77091000D03*
X144653000Y-76071000D03*
%TD*%
D26*
%TO.C,U2*%
X146583000Y-76567000D03*
X146583000Y-78867000D03*
D27*
X152883000Y-78867000D03*
D26*
X146583000Y-81167000D03*
%TD*%
D16*
%TO.C,C10*%
X120457000Y-76073000D03*
X118557000Y-76073000D03*
%TD*%
D12*
%TO.C,C6*%
X104880000Y-83947000D03*
X106780000Y-83947000D03*
%TD*%
D28*
%TO.C,U1*%
X109918000Y-81167000D03*
X109918000Y-78867000D03*
D29*
X103618000Y-78867000D03*
D28*
X109918000Y-76567000D03*
%TD*%
M02*
