%TF.GenerationSoftware,KiCad,Pcbnew,(7.0.0-0)*%
%TF.CreationDate,2023-02-26T09:34:07-07:00*%
%TF.ProjectId,Breadboard Power Supply,42726561-6462-46f6-9172-6420506f7765,v2*%
%TF.SameCoordinates,Original*%
%TF.FileFunction,Soldermask,Top*%
%TF.FilePolarity,Negative*%
%FSLAX46Y46*%
G04 Gerber Fmt 4.6, Leading zero omitted, Abs format (unit mm)*
G04 Created by KiCad (PCBNEW (7.0.0-0)) date 2023-02-26 09:34:07*
%MOMM*%
%LPD*%
G01*
G04 APERTURE LIST*
G04 Aperture macros list*
%AMRoundRect*
0 Rectangle with rounded corners*
0 $1 Rounding radius*
0 $2 $3 $4 $5 $6 $7 $8 $9 X,Y pos of 4 corners*
0 Add a 4 corners polygon primitive as box body*
4,1,4,$2,$3,$4,$5,$6,$7,$8,$9,$2,$3,0*
0 Add four circle primitives for the rounded corners*
1,1,$1+$1,$2,$3*
1,1,$1+$1,$4,$5*
1,1,$1+$1,$6,$7*
1,1,$1+$1,$8,$9*
0 Add four rect primitives between the rounded corners*
20,1,$1+$1,$2,$3,$4,$5,0*
20,1,$1+$1,$4,$5,$6,$7,0*
20,1,$1+$1,$6,$7,$8,$9,0*
20,1,$1+$1,$8,$9,$2,$3,0*%
G04 Aperture macros list end*
%ADD10R,1.700000X1.700000*%
%ADD11O,1.700000X1.700000*%
%ADD12R,0.700000X1.200000*%
%ADD13R,0.760000X1.200000*%
%ADD14R,0.800000X1.200000*%
%ADD15C,2.010000*%
%ADD16RoundRect,0.250000X0.650000X-0.325000X0.650000X0.325000X-0.650000X0.325000X-0.650000X-0.325000X0*%
%ADD17C,1.980000*%
%ADD18RoundRect,0.200000X-0.275000X0.200000X-0.275000X-0.200000X0.275000X-0.200000X0.275000X0.200000X0*%
%ADD19RoundRect,0.225000X0.250000X-0.225000X0.250000X0.225000X-0.250000X0.225000X-0.250000X-0.225000X0*%
%ADD20RoundRect,0.225000X-0.225000X-0.250000X0.225000X-0.250000X0.225000X0.250000X-0.225000X0.250000X0*%
%ADD21RoundRect,0.200000X0.275000X-0.200000X0.275000X0.200000X-0.275000X0.200000X-0.275000X-0.200000X0*%
%ADD22RoundRect,0.250000X0.325000X0.650000X-0.325000X0.650000X-0.325000X-0.650000X0.325000X-0.650000X0*%
%ADD23RoundRect,0.250000X0.625000X-0.375000X0.625000X0.375000X-0.625000X0.375000X-0.625000X-0.375000X0*%
%ADD24RoundRect,0.225000X0.225000X0.250000X-0.225000X0.250000X-0.225000X-0.250000X0.225000X-0.250000X0*%
%ADD25R,2.000000X1.500000*%
%ADD26R,2.000000X3.800000*%
%ADD27RoundRect,0.250000X-0.325000X-0.650000X0.325000X-0.650000X0.325000X0.650000X-0.325000X0.650000X0*%
G04 APERTURE END LIST*
D10*
%TO.C,J3*%
X149097999Y-87497999D03*
D11*
X149097999Y-90037999D03*
%TD*%
D12*
%TO.C,J1*%
X128769999Y-82785999D03*
D13*
X126749999Y-82785999D03*
D14*
X125519999Y-82785999D03*
D12*
X127769999Y-82785999D03*
D13*
X129789999Y-82785999D03*
D14*
X131019999Y-82785999D03*
D15*
X132590000Y-78906000D03*
X123950000Y-78906000D03*
X132590000Y-82706000D03*
X123950000Y-82706000D03*
%TD*%
D16*
%TO.C,C5*%
X144526000Y-80088000D03*
X144526000Y-77138000D03*
%TD*%
D17*
%TO.C,TP3*%
X133350000Y-90678000D03*
X138430000Y-90678000D03*
%TD*%
%TO.C,TP4*%
X147955000Y-97028000D03*
X153035000Y-97028000D03*
%TD*%
D18*
%TO.C,R3*%
X121158000Y-81471000D03*
X121158000Y-83121000D03*
%TD*%
D19*
%TO.C,C8*%
X111379000Y-81674000D03*
X111379000Y-80124000D03*
%TD*%
D20*
%TO.C,C7*%
X146418000Y-77470000D03*
X147968000Y-77470000D03*
%TD*%
D17*
%TO.C,TP2*%
X123190000Y-90678000D03*
X118110000Y-90678000D03*
%TD*%
D10*
%TO.C,J4*%
X145287999Y-87502999D03*
D11*
X145287999Y-90042999D03*
%TD*%
D17*
%TO.C,TP1*%
X103505000Y-97028000D03*
X108585000Y-97028000D03*
%TD*%
D21*
%TO.C,R2*%
X135382000Y-82867000D03*
X135382000Y-81217000D03*
%TD*%
D19*
%TO.C,C2*%
X111379000Y-78613000D03*
X111379000Y-77063000D03*
%TD*%
D22*
%TO.C,C4*%
X109552000Y-77216000D03*
X106602000Y-77216000D03*
%TD*%
D10*
%TO.C,J7*%
X103631999Y-87502999D03*
D11*
X103631999Y-90042999D03*
%TD*%
D22*
%TO.C,C3*%
X145112000Y-84455000D03*
X142162000Y-84455000D03*
%TD*%
D23*
%TO.C,D1*%
X120777000Y-79886000D03*
X120777000Y-77086000D03*
%TD*%
D10*
%TO.C,J6*%
X107441999Y-87502999D03*
D11*
X107441999Y-90042999D03*
%TD*%
D24*
%TO.C,C1*%
X145174000Y-82423000D03*
X143624000Y-82423000D03*
%TD*%
D21*
%TO.C,R1*%
X135382000Y-79819000D03*
X135382000Y-78169000D03*
%TD*%
D10*
%TO.C,J2*%
X152907999Y-87497999D03*
D11*
X152907999Y-90037999D03*
%TD*%
D25*
%TO.C,U2*%
X147217999Y-79741999D03*
X147217999Y-82041999D03*
D26*
X153517999Y-82041999D03*
D25*
X147217999Y-84341999D03*
%TD*%
D10*
%TO.C,J5*%
X111251999Y-87502999D03*
D11*
X111251999Y-90042999D03*
%TD*%
D25*
%TO.C,U1*%
X109321999Y-84341999D03*
X109321999Y-82041999D03*
D26*
X103021999Y-82041999D03*
D25*
X109321999Y-79741999D03*
%TD*%
D27*
%TO.C,C6*%
X111428000Y-83566000D03*
X114378000Y-83566000D03*
%TD*%
D10*
%TO.C,J10*%
X115569999Y-78739999D03*
D11*
X118109999Y-78739999D03*
%TD*%
D10*
%TO.C,J8*%
X151129999Y-93979999D03*
D11*
X148589999Y-93979999D03*
%TD*%
D10*
%TO.C,J11*%
X140969999Y-78739999D03*
D11*
X138429999Y-78739999D03*
%TD*%
D10*
%TO.C,J9*%
X107949999Y-93979999D03*
D11*
X105409999Y-93979999D03*
%TD*%
M02*
