M48
; DRILL file {KiCad 8.0.2-1} date 2024-07-10T15:29:49-0400
; FORMAT={-:-/ absolute / inch / decimal}
; #@! TF.CreationDate,2024-07-10T15:29:49-04:00
; #@! TF.GenerationSoftware,Kicad,Pcbnew,8.0.2-1
; #@! TF.FileFunction,Plated,1,4,PTH
FMAT,2
INCH
; #@! TA.AperFunction,Plated,PTH,ViaDrill
T1C0.0157
; #@! TA.AperFunction,Plated,PTH,ComponentDrill
T2C0.0378
; #@! TA.AperFunction,Plated,PTH,ComponentDrill
T3C0.0394
; #@! TA.AperFunction,Plated,PTH,ComponentDrill
T4C0.0480
%
G90
G05
T1
X4.0535Y-3.355
X4.1835Y-3.355
X4.2535Y-3.355
X4.27Y-3.495
X4.3635Y-3.305
X4.3935Y-3.015
X4.4235Y-3.235
X4.4284Y-3.045
X4.685Y-3.065
X4.815Y-3.035
X4.825Y-3.105
X4.825Y-3.175
X4.965Y-3.175
X5.015Y-3.035
X5.045Y-3.135
X5.125Y-3.095
X5.125Y-3.175
X5.285Y-3.185
X5.465Y-3.225
X5.505Y-3.055
X5.705Y-3.195
X5.8791Y-3.3509
X5.9884Y-3.355
X6.035Y-3.295
T2
X4.88Y-3.0698
X4.88Y-3.2194
X5.2202Y-3.0698
X5.2202Y-3.2194
T3
X4.05Y-3.45
X4.05Y-3.55
X4.05Y-3.65
X4.05Y-3.75
X4.1125Y-3.9
X4.15Y-3.45
X4.15Y-3.55
X4.15Y-3.65
X4.15Y-3.75
X4.2125Y-3.9
X4.5Y-3.1
X4.5Y-3.2
X5.6Y-3.1
X5.6Y-3.2
X5.8875Y-3.9
X5.95Y-3.45
X5.95Y-3.55
X5.95Y-3.65
X5.95Y-3.75
X5.9875Y-3.9
X6.05Y-3.45
X6.05Y-3.55
X6.05Y-3.65
X6.05Y-3.75
T4
X4.085Y-4.0409
X4.285Y-4.0409
X5.815Y-4.0409
X6.015Y-4.0409
M30
