M48
; DRILL file {KiCad (7.0.0-0)} date Sunday, March 19, 2023 at 07:49:33 PM
; FORMAT={-:-/ absolute / inch / decimal}
; #@! TF.CreationDate,2023-03-19T19:49:33-06:00
; #@! TF.GenerationSoftware,Kicad,Pcbnew,(7.0.0-0)
; #@! TF.FileFunction,Plated,1,2,PTH
FMAT,2
INCH
; #@! TA.AperFunction,Plated,PTH,ViaDrill
T1C0.0157
; #@! TA.AperFunction,Plated,PTH,ComponentDrill
T2C0.0394
; #@! TA.AperFunction,Plated,PTH,ComponentDrill
T3C0.0480
; #@! TA.AperFunction,Plated,PTH,ComponentDrill
T4C0.0528
%
G90
G05
T1
X4.145Y-3.08
X4.19Y-2.93
X4.1961Y-3.2418
X4.255Y-3.18
X4.29Y-3.215
X4.415Y-3.08
X4.51Y-2.95
X4.54Y-3.21
X4.765Y-3.16
X5.275Y-3.095
X5.285Y-2.93
X5.285Y-3.05
X5.37Y-3.17
X5.555Y-3.215
X5.68Y-3.075
X5.7Y-2.925
X5.825Y-3.3017
X5.925Y-2.95
X5.9306Y-3.1306
T2
X4.0Y-3.3
X4.0Y-3.4
X4.1Y-3.3
X4.1Y-3.4
X4.1Y-3.7
X4.2Y-3.3
X4.2Y-3.4
X4.2Y-3.7
X4.5Y-3.1
X4.6Y-3.1
X5.5Y-3.1
X5.6Y-3.1
X5.9Y-3.2998
X5.9Y-3.3998
X5.9Y-3.7
X6.0Y-3.2998
X6.0Y-3.3998
X6.0Y-3.7
X6.1Y-3.2998
X6.1Y-3.3998
T3
X4.025Y-3.82
X4.225Y-3.82
X4.6Y-3.37
X4.8Y-3.37
X5.3Y-3.37
X5.5Y-3.37
X5.875Y-3.82
X6.075Y-3.82
T4
X4.8799Y-3.0065
X4.8799Y-3.1561
X5.2201Y-3.0065
X5.2201Y-3.1561
T0
M30
