%TF.GenerationSoftware,KiCad,Pcbnew,8.0.2-1*%
%TF.CreationDate,2024-07-10T15:29:45-04:00*%
%TF.ProjectId,Breadboard Power Supply,42726561-6462-46f6-9172-6420506f7765,v10*%
%TF.SameCoordinates,Original*%
%TF.FileFunction,Copper,L4,Bot*%
%TF.FilePolarity,Positive*%
%FSLAX46Y46*%
G04 Gerber Fmt 4.6, Leading zero omitted, Abs format (unit mm)*
G04 Created by KiCad (PCBNEW 8.0.2-1) date 2024-07-10 15:29:45*
%MOMM*%
%LPD*%
G01*
G04 APERTURE LIST*
%ADD10C,0.080000*%
%TA.AperFunction,NonConductor*%
%ADD11C,0.080000*%
%TD*%
%TA.AperFunction,ComponentPad*%
%ADD12R,1.700000X1.700000*%
%TD*%
%TA.AperFunction,ComponentPad*%
%ADD13O,1.700000X1.700000*%
%TD*%
%TA.AperFunction,ComponentPad*%
%ADD14C,1.450000*%
%TD*%
%TA.AperFunction,ComponentPad*%
%ADD15C,1.830000*%
%TD*%
%TA.AperFunction,SMDPad,CuDef*%
%ADD16R,0.550000X1.200000*%
%TD*%
%TA.AperFunction,ViaPad*%
%ADD17C,0.800000*%
%TD*%
%TA.AperFunction,Conductor*%
%ADD18C,0.750000*%
%TD*%
%TA.AperFunction,Conductor*%
%ADD19C,0.250000*%
%TD*%
G04 APERTURE END LIST*
D10*
D11*
X154146237Y-76300149D02*
X154431951Y-76300149D01*
X154289094Y-76300149D02*
X154289094Y-75800149D01*
X154289094Y-75800149D02*
X154336713Y-75871578D01*
X154336713Y-75871578D02*
X154384332Y-75919197D01*
X154384332Y-75919197D02*
X154431951Y-75943006D01*
X153979571Y-75800149D02*
X153646238Y-75800149D01*
X153646238Y-75800149D02*
X153860523Y-76300149D01*
D12*
%TO.P,J4,1,Pin_1*%
%TO.N,+1V8*%
X151130000Y-87630000D03*
D13*
%TO.P,J4,2,Pin_2*%
%TO.N,/TOP_POWER_RAIL*%
X153670000Y-87630000D03*
%TO.P,J4,3,Pin_3*%
%TO.N,+3.3V*%
X151130000Y-90170000D03*
%TO.P,J4,4,Pin_4*%
%TO.N,/TOP_POWER_RAIL*%
X153670000Y-90170000D03*
%TO.P,J4,5,Pin_5*%
%TO.N,VBUS*%
X151130000Y-92710000D03*
%TO.P,J4,6,Pin_6*%
%TO.N,/TOP_POWER_RAIL*%
X153670000Y-92710000D03*
%TO.P,J4,7,Pin_7*%
%TO.N,+12V*%
X151130000Y-95250000D03*
%TO.P,J4,8,Pin_8*%
%TO.N,/TOP_POWER_RAIL*%
X153670000Y-95250000D03*
%TD*%
D14*
%TO.P,J1,MH1,MH1*%
%TO.N,GND*%
X132592000Y-77974000D03*
%TO.P,J1,MH2,MH2*%
X123952000Y-77974000D03*
%TO.P,J1,MH3,MH3*%
X132592000Y-81774000D03*
%TO.P,J1,MH4,MH4*%
X123952000Y-81774000D03*
%TD*%
D12*
%TO.P,J5,1,Pin_1*%
%TO.N,/BOTTOM_POWER_RAIL*%
X102870000Y-87630000D03*
D13*
%TO.P,J5,2,Pin_2*%
%TO.N,+1V8*%
X105410000Y-87630000D03*
%TO.P,J5,3,Pin_3*%
%TO.N,/BOTTOM_POWER_RAIL*%
X102870000Y-90170000D03*
%TO.P,J5,4,Pin_4*%
%TO.N,+3.3V*%
X105410000Y-90170000D03*
%TO.P,J5,5,Pin_5*%
%TO.N,/BOTTOM_POWER_RAIL*%
X102870000Y-92710000D03*
%TO.P,J5,6,Pin_6*%
%TO.N,VBUS*%
X105410000Y-92710000D03*
%TO.P,J5,7,Pin_7*%
%TO.N,/BOTTOM_POWER_RAIL*%
X102870000Y-95250000D03*
%TO.P,J5,8,Pin_8*%
%TO.N,+12V*%
X105410000Y-95250000D03*
%TD*%
D15*
%TO.P,TP1,1,1*%
%TO.N,GND*%
X103759000Y-102638000D03*
%TO.P,TP1,2,2*%
X108839000Y-102638000D03*
%TD*%
%TO.P,TP4,1,1*%
%TO.N,GND*%
X147701000Y-102638000D03*
%TO.P,TP4,2,2*%
X152781000Y-102638000D03*
%TD*%
D12*
%TO.P,J10,1,Pin_1*%
%TO.N,GND*%
X114300000Y-78740000D03*
D13*
%TO.P,J10,2,Pin_2*%
X114300000Y-81280000D03*
%TD*%
D16*
%TO.P,IC1,1,SW*%
%TO.N,Net-(D1-A2)*%
X127213000Y-78399000D03*
%TO.P,IC1,2,GND*%
%TO.N,GND*%
X128163000Y-78399000D03*
%TO.P,IC1,3,FB*%
%TO.N,Net-(IC1-FB)*%
X129113000Y-78399000D03*
%TO.P,IC1,4,~{SHDN}*%
%TO.N,VBUS*%
X129113000Y-80899000D03*
%TO.P,IC1,5,VIN*%
X127213000Y-80899000D03*
%TD*%
D12*
%TO.P,J8,1,Pin_1*%
%TO.N,/TOP_POWER_RAIL*%
X152082500Y-99060000D03*
D13*
%TO.P,J8,2,Pin_2*%
%TO.N,GND*%
X149542500Y-99060000D03*
%TD*%
D12*
%TO.P,J11,1,Pin_1*%
%TO.N,GND*%
X142240000Y-78740000D03*
D13*
%TO.P,J11,2,Pin_2*%
X142240000Y-81280000D03*
%TD*%
D12*
%TO.P,J9,1,Pin_1*%
%TO.N,/BOTTOM_POWER_RAIL*%
X106997500Y-99060000D03*
D13*
%TO.P,J9,2,Pin_2*%
%TO.N,GND*%
X104457500Y-99060000D03*
%TD*%
D17*
%TO.N,GND*%
X112356000Y-82169000D03*
X128143000Y-79629000D03*
X138811000Y-81915000D03*
X153289000Y-83693000D03*
X149328930Y-85113070D03*
X118999000Y-77851000D03*
X106260000Y-85217000D03*
X110832000Y-83947000D03*
X102958000Y-85217000D03*
%TO.N,+1V8*%
X112481000Y-77343000D03*
%TO.N,+12V*%
X134239000Y-80899000D03*
X108458000Y-88773000D03*
X139827000Y-77597000D03*
%TO.N,Net-(IC1-FB)*%
X130175000Y-78613000D03*
%TO.N,VBUS*%
X126111000Y-80645000D03*
X111594000Y-76581000D03*
X144907000Y-81153000D03*
X152105000Y-85217000D03*
X130175000Y-80645000D03*
X108038000Y-85217000D03*
X122301000Y-77089000D03*
X122555000Y-80645000D03*
%TO.N,Net-(D1-A2)*%
X127381000Y-77089000D03*
X122555000Y-78867000D03*
%TD*%
D18*
%TO.N,GND*%
X128163000Y-78399000D02*
X128163000Y-79609000D01*
X128163000Y-79609000D02*
X128143000Y-79629000D01*
%TO.N,+1V8*%
X151130000Y-77978000D02*
X151130000Y-87630000D01*
X112522000Y-77343000D02*
X114173000Y-75692000D01*
X114173000Y-75692000D02*
X148844000Y-75692000D01*
X148844000Y-75692000D02*
X151130000Y-77978000D01*
X112481000Y-77343000D02*
X112522000Y-77343000D01*
%TO.N,+12V*%
X108458000Y-88773000D02*
X108458000Y-86845670D01*
X109832670Y-85471000D02*
X146812000Y-85471000D01*
X108458000Y-86845670D02*
X109832670Y-85471000D01*
X146812000Y-85471000D02*
X148717000Y-87376000D01*
X148717000Y-92837000D02*
X151130000Y-95250000D01*
X148717000Y-87376000D02*
X148717000Y-92837000D01*
D19*
%TO.N,Net-(IC1-FB)*%
X129113000Y-78399000D02*
X129961000Y-78399000D01*
X129961000Y-78399000D02*
X130175000Y-78613000D01*
D18*
%TO.N,VBUS*%
X126111000Y-80645000D02*
X126959000Y-80645000D01*
X126959000Y-80645000D02*
X127213000Y-80899000D01*
X129113000Y-80899000D02*
X127213000Y-80899000D01*
%TO.N,Net-(D1-A2)*%
X126338000Y-79274000D02*
X127213000Y-78399000D01*
X122962000Y-79274000D02*
X126338000Y-79274000D01*
X122555000Y-78867000D02*
X122962000Y-79274000D01*
X127213000Y-77257000D02*
X127213000Y-78399000D01*
X127381000Y-77089000D02*
X127213000Y-77257000D01*
%TD*%
%TA.AperFunction,Conductor*%
%TO.N,+12V*%
G36*
X121408961Y-76595185D02*
G01*
X121454716Y-76647989D01*
X121464660Y-76717147D01*
X121459853Y-76737818D01*
X121427138Y-76838505D01*
X121407458Y-76899072D01*
X121387496Y-77089000D01*
X121407458Y-77278928D01*
X121407459Y-77278931D01*
X121466470Y-77460549D01*
X121466473Y-77460556D01*
X121561960Y-77625944D01*
X121689747Y-77767866D01*
X121844248Y-77880118D01*
X121972600Y-77937263D01*
X122025835Y-77982512D01*
X122046157Y-78049361D01*
X122027112Y-78116585D01*
X121995050Y-78150859D01*
X121943746Y-78188134D01*
X121815959Y-78330057D01*
X121720473Y-78495443D01*
X121720470Y-78495450D01*
X121688740Y-78593106D01*
X121661458Y-78677072D01*
X121641496Y-78867000D01*
X121661458Y-79056928D01*
X121661459Y-79056931D01*
X121720470Y-79238549D01*
X121720473Y-79238556D01*
X121815960Y-79403944D01*
X121857328Y-79449888D01*
X121943741Y-79545861D01*
X121943745Y-79545863D01*
X121943747Y-79545866D01*
X122061859Y-79631679D01*
X122084546Y-79648162D01*
X122099342Y-79660799D01*
X122108052Y-79669509D01*
X122141537Y-79730832D01*
X122136553Y-79800524D01*
X122094681Y-79856457D01*
X122093257Y-79857508D01*
X121943745Y-79966135D01*
X121815959Y-80108057D01*
X121720473Y-80273443D01*
X121720470Y-80273450D01*
X121661459Y-80455068D01*
X121661458Y-80455072D01*
X121641496Y-80645000D01*
X121661458Y-80834928D01*
X121661459Y-80834931D01*
X121720470Y-81016549D01*
X121720473Y-81016556D01*
X121815960Y-81181944D01*
X121943747Y-81323866D01*
X122098248Y-81436118D01*
X122272712Y-81513794D01*
X122459513Y-81553500D01*
X122597757Y-81553500D01*
X122664796Y-81573185D01*
X122710551Y-81625989D01*
X122721285Y-81688307D01*
X122713788Y-81773998D01*
X122713788Y-81774001D01*
X122732598Y-81989007D01*
X122732600Y-81989018D01*
X122788458Y-82197485D01*
X122788460Y-82197489D01*
X122788461Y-82197493D01*
X122829989Y-82286549D01*
X122879676Y-82393105D01*
X122920876Y-82451944D01*
X123003475Y-82569907D01*
X123156093Y-82722525D01*
X123332894Y-82846323D01*
X123528507Y-82937539D01*
X123736987Y-82993401D01*
X123890567Y-83006837D01*
X123951998Y-83012212D01*
X123952000Y-83012212D01*
X123952002Y-83012212D01*
X124005753Y-83007509D01*
X124167013Y-82993401D01*
X124375493Y-82937539D01*
X124571106Y-82846323D01*
X124747907Y-82722525D01*
X124900525Y-82569907D01*
X125024323Y-82393106D01*
X125115539Y-82197493D01*
X125171401Y-81989013D01*
X125190212Y-81774000D01*
X125171401Y-81558987D01*
X125115539Y-81350507D01*
X125024323Y-81154894D01*
X124900525Y-80978093D01*
X124747907Y-80825475D01*
X124571106Y-80701677D01*
X124571107Y-80701677D01*
X124571105Y-80701676D01*
X124436152Y-80638747D01*
X124375493Y-80610461D01*
X124375489Y-80610460D01*
X124375485Y-80610458D01*
X124167018Y-80554600D01*
X124167014Y-80554599D01*
X124167013Y-80554599D01*
X124167012Y-80554598D01*
X124167007Y-80554598D01*
X123952002Y-80535788D01*
X123951998Y-80535788D01*
X123736992Y-80554598D01*
X123736981Y-80554600D01*
X123606854Y-80589467D01*
X123537004Y-80587804D01*
X123479142Y-80548641D01*
X123451638Y-80484412D01*
X123451440Y-80482649D01*
X123448542Y-80455074D01*
X123448542Y-80455072D01*
X123404595Y-80319818D01*
X123402600Y-80249977D01*
X123438680Y-80190144D01*
X123501381Y-80159316D01*
X123522526Y-80157500D01*
X125143474Y-80157500D01*
X125210513Y-80177185D01*
X125256268Y-80229989D01*
X125266212Y-80299147D01*
X125261404Y-80319818D01*
X125217458Y-80455072D01*
X125197496Y-80645000D01*
X125217458Y-80834928D01*
X125217459Y-80834931D01*
X125276470Y-81016549D01*
X125276473Y-81016556D01*
X125371960Y-81181944D01*
X125499747Y-81323866D01*
X125654248Y-81436118D01*
X125828712Y-81513794D01*
X126015513Y-81553500D01*
X126206486Y-81553500D01*
X126206487Y-81553500D01*
X126295652Y-81534547D01*
X126365319Y-81539863D01*
X126421052Y-81582000D01*
X126437614Y-81612502D01*
X126479602Y-81725072D01*
X126487111Y-81745204D01*
X126574739Y-81862261D01*
X126691796Y-81949889D01*
X126828799Y-82000989D01*
X126856050Y-82003918D01*
X126889345Y-82007499D01*
X126889362Y-82007500D01*
X127536638Y-82007500D01*
X127536654Y-82007499D01*
X127563692Y-82004591D01*
X127597201Y-82000989D01*
X127734204Y-81949889D01*
X127851261Y-81862261D01*
X127873771Y-81832191D01*
X127929704Y-81790319D01*
X127973039Y-81782500D01*
X128352961Y-81782500D01*
X128420000Y-81802185D01*
X128452229Y-81832191D01*
X128474739Y-81862261D01*
X128591796Y-81949889D01*
X128728799Y-82000989D01*
X128756050Y-82003918D01*
X128789345Y-82007499D01*
X128789362Y-82007500D01*
X129436638Y-82007500D01*
X129436654Y-82007499D01*
X129463692Y-82004591D01*
X129497201Y-82000989D01*
X129634204Y-81949889D01*
X129751261Y-81862261D01*
X129817334Y-81773998D01*
X131353788Y-81773998D01*
X131353788Y-81774001D01*
X131372598Y-81989007D01*
X131372600Y-81989018D01*
X131428458Y-82197485D01*
X131428460Y-82197489D01*
X131428461Y-82197493D01*
X131469989Y-82286549D01*
X131519676Y-82393105D01*
X131560876Y-82451944D01*
X131643475Y-82569907D01*
X131796093Y-82722525D01*
X131972894Y-82846323D01*
X132168507Y-82937539D01*
X132376987Y-82993401D01*
X132530567Y-83006837D01*
X132591998Y-83012212D01*
X132592000Y-83012212D01*
X132592002Y-83012212D01*
X132645753Y-83007509D01*
X132807013Y-82993401D01*
X133015493Y-82937539D01*
X133211106Y-82846323D01*
X133387907Y-82722525D01*
X133540525Y-82569907D01*
X133664323Y-82393106D01*
X133755539Y-82197493D01*
X133811401Y-81989013D01*
X133817876Y-81915000D01*
X137897496Y-81915000D01*
X137917458Y-82104928D01*
X137917459Y-82104931D01*
X137976470Y-82286549D01*
X137976473Y-82286556D01*
X138071960Y-82451944D01*
X138199747Y-82593866D01*
X138354248Y-82706118D01*
X138528712Y-82783794D01*
X138715513Y-82823500D01*
X138906487Y-82823500D01*
X139093288Y-82783794D01*
X139267752Y-82706118D01*
X139422253Y-82593866D01*
X139550040Y-82451944D01*
X139645527Y-82286556D01*
X139704542Y-82104928D01*
X139724504Y-81915000D01*
X139704542Y-81725072D01*
X139645527Y-81543444D01*
X139550040Y-81378056D01*
X139422253Y-81236134D01*
X139267752Y-81123882D01*
X139093288Y-81046206D01*
X139093286Y-81046205D01*
X138906487Y-81006500D01*
X138715513Y-81006500D01*
X138528714Y-81046205D01*
X138354246Y-81123883D01*
X138199745Y-81236135D01*
X138071959Y-81378057D01*
X137976473Y-81543443D01*
X137976470Y-81543450D01*
X137917459Y-81725068D01*
X137917458Y-81725072D01*
X137897496Y-81915000D01*
X133817876Y-81915000D01*
X133830212Y-81774000D01*
X133811401Y-81558987D01*
X133755539Y-81350507D01*
X133664323Y-81154894D01*
X133540525Y-80978093D01*
X133387907Y-80825475D01*
X133211106Y-80701677D01*
X133211107Y-80701677D01*
X133211105Y-80701676D01*
X133076152Y-80638747D01*
X133015493Y-80610461D01*
X133015489Y-80610460D01*
X133015485Y-80610458D01*
X132807018Y-80554600D01*
X132807014Y-80554599D01*
X132807013Y-80554599D01*
X132807012Y-80554598D01*
X132807007Y-80554598D01*
X132592002Y-80535788D01*
X132591998Y-80535788D01*
X132376992Y-80554598D01*
X132376981Y-80554600D01*
X132168514Y-80610458D01*
X132168505Y-80610462D01*
X131972894Y-80701676D01*
X131796092Y-80825475D01*
X131643475Y-80978092D01*
X131519676Y-81154894D01*
X131428462Y-81350505D01*
X131428458Y-81350514D01*
X131372600Y-81558981D01*
X131372598Y-81558992D01*
X131353788Y-81773998D01*
X129817334Y-81773998D01*
X129838889Y-81745204D01*
X129860111Y-81688307D01*
X129885447Y-81620380D01*
X129927318Y-81564446D01*
X129992783Y-81540030D01*
X130027402Y-81542423D01*
X130079513Y-81553500D01*
X130079516Y-81553500D01*
X130270487Y-81553500D01*
X130457288Y-81513794D01*
X130631752Y-81436118D01*
X130786253Y-81323866D01*
X130914040Y-81181944D01*
X131009527Y-81016556D01*
X131068542Y-80834928D01*
X131088504Y-80645000D01*
X131068542Y-80455072D01*
X131009527Y-80273444D01*
X130914040Y-80108056D01*
X130786253Y-79966134D01*
X130631752Y-79853882D01*
X130457288Y-79776206D01*
X130457286Y-79776205D01*
X130335363Y-79750290D01*
X130273881Y-79717098D01*
X130240105Y-79655935D01*
X130244757Y-79586220D01*
X130286362Y-79530088D01*
X130335363Y-79507710D01*
X130336356Y-79507499D01*
X130457288Y-79481794D01*
X130631752Y-79404118D01*
X130786253Y-79291866D01*
X130914040Y-79149944D01*
X131009527Y-78984556D01*
X131068542Y-78802928D01*
X131088504Y-78613000D01*
X131068542Y-78423072D01*
X131009527Y-78241444D01*
X130914040Y-78076056D01*
X130798981Y-77948270D01*
X130786254Y-77934135D01*
X130711907Y-77880118D01*
X130631752Y-77821882D01*
X130457288Y-77744206D01*
X130457286Y-77744205D01*
X130270487Y-77704500D01*
X130079513Y-77704500D01*
X130013582Y-77718513D01*
X129943917Y-77713197D01*
X129888184Y-77671059D01*
X129871623Y-77640557D01*
X129838889Y-77552796D01*
X129837174Y-77550505D01*
X129751261Y-77435739D01*
X129634204Y-77348111D01*
X129497203Y-77297011D01*
X129436654Y-77290500D01*
X129436638Y-77290500D01*
X128789362Y-77290500D01*
X128789345Y-77290500D01*
X128728802Y-77297010D01*
X128728791Y-77297012D01*
X128681332Y-77314714D01*
X128611640Y-77319698D01*
X128594668Y-77314714D01*
X128547208Y-77297012D01*
X128547197Y-77297010D01*
X128486654Y-77290500D01*
X128486638Y-77290500D01*
X128411041Y-77290500D01*
X128344002Y-77270815D01*
X128298247Y-77218011D01*
X128287720Y-77153541D01*
X128294504Y-77089000D01*
X128274542Y-76899072D01*
X128222147Y-76737818D01*
X128220152Y-76667977D01*
X128256232Y-76608144D01*
X128318933Y-76577316D01*
X128340078Y-76575500D01*
X132113055Y-76575500D01*
X132180094Y-76595185D01*
X132225849Y-76647989D01*
X132235793Y-76717147D01*
X132206768Y-76780703D01*
X132165460Y-76811882D01*
X131972894Y-76901676D01*
X131796092Y-77025475D01*
X131643475Y-77178092D01*
X131519676Y-77354894D01*
X131428462Y-77550505D01*
X131428458Y-77550514D01*
X131372600Y-77758981D01*
X131372598Y-77758992D01*
X131353788Y-77973998D01*
X131353788Y-77974001D01*
X131372598Y-78189007D01*
X131372600Y-78189018D01*
X131428458Y-78397485D01*
X131428460Y-78397489D01*
X131428461Y-78397493D01*
X131440387Y-78423068D01*
X131519676Y-78593105D01*
X131519677Y-78593106D01*
X131643475Y-78769907D01*
X131796093Y-78922525D01*
X131972894Y-79046323D01*
X132168507Y-79137539D01*
X132376987Y-79193401D01*
X132530567Y-79206837D01*
X132591998Y-79212212D01*
X132592000Y-79212212D01*
X132592002Y-79212212D01*
X132645753Y-79207509D01*
X132807013Y-79193401D01*
X133015493Y-79137539D01*
X133211106Y-79046323D01*
X133387907Y-78922525D01*
X133540525Y-78769907D01*
X133664323Y-78593106D01*
X133755539Y-78397493D01*
X133811401Y-78189013D01*
X133830212Y-77974000D01*
X133811401Y-77758987D01*
X133755539Y-77550507D01*
X133664323Y-77354894D01*
X133540525Y-77178093D01*
X133387907Y-77025475D01*
X133211106Y-76901677D01*
X133211107Y-76901677D01*
X133211105Y-76901676D01*
X133018540Y-76811882D01*
X132966101Y-76765710D01*
X132946949Y-76698516D01*
X132967165Y-76631635D01*
X133020330Y-76586300D01*
X133070945Y-76575500D01*
X140211000Y-76575500D01*
X140278039Y-76595185D01*
X140323794Y-76647989D01*
X140335000Y-76699500D01*
X140335000Y-85601000D01*
X140315315Y-85668039D01*
X140262511Y-85713794D01*
X140211000Y-85725000D01*
X116329000Y-85725000D01*
X116261961Y-85705315D01*
X116216206Y-85652511D01*
X116205000Y-85601000D01*
X116205000Y-77851000D01*
X118085496Y-77851000D01*
X118105458Y-78040928D01*
X118105459Y-78040931D01*
X118164470Y-78222549D01*
X118164473Y-78222556D01*
X118259960Y-78387944D01*
X118387747Y-78529866D01*
X118542248Y-78642118D01*
X118716712Y-78719794D01*
X118903513Y-78759500D01*
X119094487Y-78759500D01*
X119281288Y-78719794D01*
X119455752Y-78642118D01*
X119610253Y-78529866D01*
X119738040Y-78387944D01*
X119833527Y-78222556D01*
X119892542Y-78040928D01*
X119912504Y-77851000D01*
X119892542Y-77661072D01*
X119833527Y-77479444D01*
X119738040Y-77314056D01*
X119610253Y-77172134D01*
X119455752Y-77059882D01*
X119281288Y-76982206D01*
X119281286Y-76982205D01*
X119094487Y-76942500D01*
X118903513Y-76942500D01*
X118716714Y-76982205D01*
X118542246Y-77059883D01*
X118387745Y-77172135D01*
X118259959Y-77314057D01*
X118164473Y-77479443D01*
X118164470Y-77479450D01*
X118105459Y-77661068D01*
X118105458Y-77661072D01*
X118085496Y-77851000D01*
X116205000Y-77851000D01*
X116205000Y-76699500D01*
X116224685Y-76632461D01*
X116277489Y-76586706D01*
X116329000Y-76575500D01*
X121341922Y-76575500D01*
X121408961Y-76595185D01*
G37*
%TD.AperFunction*%
%TD*%
M02*
