%TF.GenerationSoftware,KiCad,Pcbnew,8.0.9*%
%TF.CreationDate,2025-08-25T15:10:49-06:00*%
%TF.ProjectId,Breadboard Power Supply,42726561-6462-46f6-9172-6420506f7765,v1*%
%TF.SameCoordinates,Original*%
%TF.FileFunction,Copper,L3,Inr*%
%TF.FilePolarity,Positive*%
%FSLAX46Y46*%
G04 Gerber Fmt 4.6, Leading zero omitted, Abs format (unit mm)*
G04 Created by KiCad (PCBNEW 8.0.9) date 2025-08-25 15:10:49*
%MOMM*%
%LPD*%
G01*
G04 APERTURE LIST*
%TA.AperFunction,ComponentPad*%
%ADD10R,1.700000X1.700000*%
%TD*%
%TA.AperFunction,ComponentPad*%
%ADD11O,1.700000X1.700000*%
%TD*%
%TA.AperFunction,ComponentPad*%
%ADD12C,1.450000*%
%TD*%
%TA.AperFunction,ComponentPad*%
%ADD13C,1.830000*%
%TD*%
%TA.AperFunction,ViaPad*%
%ADD14C,0.800000*%
%TD*%
G04 APERTURE END LIST*
D10*
%TO.N,+1V8*%
%TO.C,J4*%
X151130000Y-87630000D03*
D11*
%TO.N,/TOP_POWER_RAIL*%
X153670000Y-87630000D03*
%TO.N,+3.3V*%
X151130000Y-90170000D03*
%TO.N,/TOP_POWER_RAIL*%
X153670000Y-90170000D03*
%TO.N,+5V*%
X151130000Y-92710000D03*
%TO.N,/TOP_POWER_RAIL*%
X153670000Y-92710000D03*
%TO.N,+12V*%
X151130000Y-95250000D03*
%TO.N,/TOP_POWER_RAIL*%
X153670000Y-95250000D03*
%TD*%
D10*
%TO.N,/BOTTOM_POWER_RAIL*%
%TO.C,J5*%
X102870000Y-87630000D03*
D11*
%TO.N,+1V8*%
X105410000Y-87630000D03*
%TO.N,/BOTTOM_POWER_RAIL*%
X102870000Y-90170000D03*
%TO.N,+3.3V*%
X105410000Y-90170000D03*
%TO.N,/BOTTOM_POWER_RAIL*%
X102870000Y-92710000D03*
%TO.N,+5V*%
X105410000Y-92710000D03*
%TO.N,/BOTTOM_POWER_RAIL*%
X102870000Y-95250000D03*
%TO.N,+12V*%
X105410000Y-95250000D03*
%TD*%
D12*
%TO.N,GND*%
%TO.C,J1*%
X132592000Y-77974000D03*
X123952000Y-77974000D03*
X132592000Y-81774000D03*
X123952000Y-81774000D03*
%TD*%
D13*
%TO.N,GND*%
%TO.C,TP1*%
X103759000Y-102638000D03*
X108839000Y-102638000D03*
%TD*%
%TO.N,GND*%
%TO.C,TP4*%
X147701000Y-102638000D03*
X152781000Y-102638000D03*
%TD*%
D10*
%TO.N,GND*%
%TO.C,J10*%
X114300000Y-78740000D03*
D11*
X114300000Y-81280000D03*
%TD*%
D10*
%TO.N,/TOP_POWER_RAIL*%
%TO.C,J8*%
X152082500Y-99060000D03*
D11*
%TO.N,GND*%
X149542500Y-99060000D03*
%TD*%
D10*
%TO.N,GND*%
%TO.C,J11*%
X142240000Y-78740000D03*
D11*
X142240000Y-81280000D03*
%TD*%
D10*
%TO.N,/BOTTOM_POWER_RAIL*%
%TO.C,J9*%
X106997500Y-99060000D03*
D11*
%TO.N,GND*%
X104457500Y-99060000D03*
%TD*%
D14*
%TO.N,GND*%
X102133000Y-85331000D03*
X113370326Y-85181000D03*
X154559000Y-83693000D03*
X140833000Y-75831000D03*
X147033000Y-84842832D03*
X119633000Y-83831000D03*
X150433000Y-85181000D03*
X137033000Y-85181000D03*
X115064915Y-84842832D03*
X105383000Y-85331000D03*
X117729000Y-76667000D03*
%TO.N,+3.3V*%
X145455449Y-83736091D03*
X138033000Y-81381000D03*
%TO.N,+1V8*%
X111433000Y-85132400D03*
%TO.N,+12V*%
X115443000Y-83693000D03*
%TO.N,VBUS*%
X129921000Y-80645000D03*
X138811859Y-75981000D03*
X113105176Y-77398983D03*
X119435500Y-78381000D03*
%TO.N,Net-(D2-Pad2)*%
X134033000Y-77081000D03*
%TO.N,Net-(D1-A1)*%
X117157000Y-79387045D03*
X119383000Y-80581000D03*
%TO.N,Net-(D3-Pad2)*%
X134033000Y-82381000D03*
%TO.N,Net-(D4-Pad2)*%
X134033000Y-78831000D03*
%TO.N,Net-(D5-Pad2)*%
X134033000Y-80581000D03*
%TO.N,Net-(D6-Pad2)*%
X134033000Y-84016570D03*
%TO.N,Net-(U2-VO)*%
X145390239Y-80023944D03*
%TO.N,+5V*%
X132433000Y-83381000D03*
X125433000Y-79181000D03*
%TD*%
%TA.AperFunction,Conductor*%
%TO.N,GND*%
G36*
X114550000Y-80846988D02*
G01*
X114492993Y-80814075D01*
X114365826Y-80780000D01*
X114234174Y-80780000D01*
X114107007Y-80814075D01*
X114050000Y-80846988D01*
X114050000Y-79173012D01*
X114107007Y-79205925D01*
X114234174Y-79240000D01*
X114365826Y-79240000D01*
X114492993Y-79205925D01*
X114550000Y-79173012D01*
X114550000Y-80846988D01*
G37*
%TD.AperFunction*%
%TA.AperFunction,Conductor*%
G36*
X142490000Y-80846988D02*
G01*
X142432993Y-80814075D01*
X142305826Y-80780000D01*
X142174174Y-80780000D01*
X142047007Y-80814075D01*
X141990000Y-80846988D01*
X141990000Y-79173012D01*
X142047007Y-79205925D01*
X142174174Y-79240000D01*
X142305826Y-79240000D01*
X142432993Y-79205925D01*
X142490000Y-79173012D01*
X142490000Y-80846988D01*
G37*
%TD.AperFunction*%
%TA.AperFunction,Conductor*%
G36*
X138095505Y-75203685D02*
G01*
X138141260Y-75256489D01*
X138151204Y-75325647D01*
X138122179Y-75389203D01*
X138120616Y-75390972D01*
X138072818Y-75444057D01*
X137977332Y-75609443D01*
X137977329Y-75609450D01*
X137918318Y-75791068D01*
X137918317Y-75791072D01*
X137898355Y-75981000D01*
X137918317Y-76170928D01*
X137918318Y-76170931D01*
X137977329Y-76352549D01*
X137977332Y-76352556D01*
X138072819Y-76517944D01*
X138200606Y-76659866D01*
X138355107Y-76772118D01*
X138529571Y-76849794D01*
X138716372Y-76889500D01*
X138907346Y-76889500D01*
X139094147Y-76849794D01*
X139268611Y-76772118D01*
X139423112Y-76659866D01*
X139550899Y-76517944D01*
X139646386Y-76352556D01*
X139705401Y-76170928D01*
X139725363Y-75981000D01*
X139705401Y-75791072D01*
X139646386Y-75609444D01*
X139550899Y-75444056D01*
X139503101Y-75390971D01*
X139472872Y-75327981D01*
X139481497Y-75258645D01*
X139526239Y-75204980D01*
X139592891Y-75184022D01*
X139595252Y-75184000D01*
X154943000Y-75184000D01*
X155010039Y-75203685D01*
X155055794Y-75256489D01*
X155067000Y-75308000D01*
X155067000Y-86867976D01*
X155047315Y-86935015D01*
X154994511Y-86980770D01*
X154925353Y-86990714D01*
X154861797Y-86961689D01*
X154839192Y-86935798D01*
X154745723Y-86792734D01*
X154745715Y-86792723D01*
X154593243Y-86627097D01*
X154593238Y-86627092D01*
X154415577Y-86488812D01*
X154415572Y-86488808D01*
X154217580Y-86381661D01*
X154217577Y-86381659D01*
X154217574Y-86381658D01*
X154217571Y-86381657D01*
X154217569Y-86381656D01*
X154004637Y-86308556D01*
X153782569Y-86271500D01*
X153557431Y-86271500D01*
X153335362Y-86308556D01*
X153122430Y-86381656D01*
X153122419Y-86381661D01*
X152924427Y-86488808D01*
X152924422Y-86488812D01*
X152746761Y-86627092D01*
X152683548Y-86695760D01*
X152623661Y-86731750D01*
X152553823Y-86729649D01*
X152496207Y-86690124D01*
X152476138Y-86655110D01*
X152430889Y-86533796D01*
X152397214Y-86488812D01*
X152343261Y-86416739D01*
X152226204Y-86329111D01*
X152089203Y-86278011D01*
X152028654Y-86271500D01*
X152028638Y-86271500D01*
X150231362Y-86271500D01*
X150231345Y-86271500D01*
X150170797Y-86278011D01*
X150170795Y-86278011D01*
X150033795Y-86329111D01*
X149916739Y-86416739D01*
X149829111Y-86533795D01*
X149778011Y-86670795D01*
X149778011Y-86670797D01*
X149771500Y-86731345D01*
X149771500Y-88528654D01*
X149778011Y-88589202D01*
X149778011Y-88589204D01*
X149829111Y-88726204D01*
X149916739Y-88843261D01*
X150033796Y-88930889D01*
X150085737Y-88950262D01*
X150151595Y-88974827D01*
X150207528Y-89016699D01*
X150231944Y-89082163D01*
X150217092Y-89150436D01*
X150199490Y-89174991D01*
X150054279Y-89332730D01*
X150054276Y-89332734D01*
X149931140Y-89521207D01*
X149840703Y-89727385D01*
X149785436Y-89945628D01*
X149785434Y-89945640D01*
X149766844Y-90169994D01*
X149766844Y-90170005D01*
X149785434Y-90394359D01*
X149785436Y-90394371D01*
X149840703Y-90612614D01*
X149931140Y-90818792D01*
X150054276Y-91007265D01*
X150054284Y-91007276D01*
X150206756Y-91172902D01*
X150206760Y-91172906D01*
X150384424Y-91311189D01*
X150384429Y-91311191D01*
X150384431Y-91311193D01*
X150420930Y-91330946D01*
X150470520Y-91380165D01*
X150485628Y-91448382D01*
X150461457Y-91513937D01*
X150420930Y-91549054D01*
X150384431Y-91568806D01*
X150384422Y-91568812D01*
X150206761Y-91707092D01*
X150206756Y-91707097D01*
X150054284Y-91872723D01*
X150054276Y-91872734D01*
X149931140Y-92061207D01*
X149840703Y-92267385D01*
X149785436Y-92485628D01*
X149785434Y-92485640D01*
X149766844Y-92709994D01*
X149766844Y-92710005D01*
X149785434Y-92934359D01*
X149785436Y-92934371D01*
X149840703Y-93152614D01*
X149931140Y-93358792D01*
X150054276Y-93547265D01*
X150054284Y-93547276D01*
X150206756Y-93712902D01*
X150206760Y-93712906D01*
X150384424Y-93851189D01*
X150384429Y-93851191D01*
X150384431Y-93851193D01*
X150420930Y-93870946D01*
X150470520Y-93920165D01*
X150485628Y-93988382D01*
X150461457Y-94053937D01*
X150420930Y-94089054D01*
X150384431Y-94108806D01*
X150384422Y-94108812D01*
X150206761Y-94247092D01*
X150206756Y-94247097D01*
X150054284Y-94412723D01*
X150054276Y-94412734D01*
X149931140Y-94601207D01*
X149840703Y-94807385D01*
X149785436Y-95025628D01*
X149785434Y-95025640D01*
X149766844Y-95249994D01*
X149766844Y-95250005D01*
X149785434Y-95474359D01*
X149785436Y-95474371D01*
X149840703Y-95692614D01*
X149931140Y-95898792D01*
X150054276Y-96087265D01*
X150054284Y-96087276D01*
X150206756Y-96252902D01*
X150206760Y-96252906D01*
X150384424Y-96391189D01*
X150384425Y-96391189D01*
X150384427Y-96391191D01*
X150511135Y-96459761D01*
X150582426Y-96498342D01*
X150795365Y-96571444D01*
X151017431Y-96608500D01*
X151242569Y-96608500D01*
X151464635Y-96571444D01*
X151677574Y-96498342D01*
X151875576Y-96391189D01*
X152053240Y-96252906D01*
X152205722Y-96087268D01*
X152296193Y-95948790D01*
X152349338Y-95903437D01*
X152418569Y-95894013D01*
X152481905Y-95923515D01*
X152503804Y-95948787D01*
X152594278Y-96087268D01*
X152594283Y-96087273D01*
X152594284Y-96087276D01*
X152746756Y-96252902D01*
X152746760Y-96252906D01*
X152924424Y-96391189D01*
X152924425Y-96391189D01*
X152924427Y-96391191D01*
X153051135Y-96459761D01*
X153122426Y-96498342D01*
X153335365Y-96571444D01*
X153557431Y-96608500D01*
X153782569Y-96608500D01*
X154004635Y-96571444D01*
X154217574Y-96498342D01*
X154415576Y-96391189D01*
X154593240Y-96252906D01*
X154745722Y-96087268D01*
X154839193Y-95944198D01*
X154892338Y-95898845D01*
X154961569Y-95889421D01*
X155024905Y-95918923D01*
X155062236Y-95977983D01*
X155067000Y-96012023D01*
X155067000Y-103889000D01*
X155047315Y-103956039D01*
X154994511Y-104001794D01*
X154943000Y-104013000D01*
X153679362Y-104013000D01*
X153612323Y-103993315D01*
X153566568Y-103940511D01*
X153556624Y-103871353D01*
X153585649Y-103807797D01*
X153590344Y-103803342D01*
X153590487Y-103801040D01*
X152997873Y-103208427D01*
X153069944Y-103178575D01*
X153169853Y-103111818D01*
X153254818Y-103026853D01*
X153321575Y-102926944D01*
X153351427Y-102854873D01*
X153943024Y-103446471D01*
X154029720Y-103313775D01*
X154123918Y-103099025D01*
X154181485Y-102871696D01*
X154200850Y-102638005D01*
X154200850Y-102637994D01*
X154181485Y-102404303D01*
X154123918Y-102176974D01*
X154029722Y-101962229D01*
X153943024Y-101829527D01*
X153351427Y-102421125D01*
X153321575Y-102349056D01*
X153254818Y-102249147D01*
X153169853Y-102164182D01*
X153069944Y-102097425D01*
X152997873Y-102067572D01*
X153590486Y-101474958D01*
X153590486Y-101474957D01*
X153557585Y-101449350D01*
X153351348Y-101337739D01*
X153351339Y-101337736D01*
X153129555Y-101261597D01*
X152898250Y-101223000D01*
X152663750Y-101223000D01*
X152432444Y-101261597D01*
X152210660Y-101337736D01*
X152210652Y-101337739D01*
X152004411Y-101449352D01*
X151971512Y-101474957D01*
X151971512Y-101474959D01*
X152564126Y-102067572D01*
X152492056Y-102097425D01*
X152392147Y-102164182D01*
X152307182Y-102249147D01*
X152240425Y-102349056D01*
X152210572Y-102421126D01*
X151618973Y-101829527D01*
X151532278Y-101962226D01*
X151438081Y-102176974D01*
X151380514Y-102404303D01*
X151361150Y-102637994D01*
X151361150Y-102638005D01*
X151380514Y-102871696D01*
X151438081Y-103099025D01*
X151532278Y-103313773D01*
X151618973Y-103446470D01*
X152210571Y-102854871D01*
X152240425Y-102926944D01*
X152307182Y-103026853D01*
X152392147Y-103111818D01*
X152492056Y-103178575D01*
X152564126Y-103208427D01*
X151971512Y-103801040D01*
X151972040Y-103809546D01*
X151999612Y-103847857D01*
X152003287Y-103917630D01*
X151968655Y-103978313D01*
X151906714Y-104010640D01*
X151882637Y-104013000D01*
X148599362Y-104013000D01*
X148532323Y-103993315D01*
X148486568Y-103940511D01*
X148476624Y-103871353D01*
X148505649Y-103807797D01*
X148510344Y-103803342D01*
X148510487Y-103801040D01*
X147917873Y-103208427D01*
X147989944Y-103178575D01*
X148089853Y-103111818D01*
X148174818Y-103026853D01*
X148241575Y-102926944D01*
X148271427Y-102854873D01*
X148863024Y-103446471D01*
X148949720Y-103313775D01*
X149043918Y-103099025D01*
X149101485Y-102871696D01*
X149120850Y-102638005D01*
X149120850Y-102637994D01*
X149101485Y-102404303D01*
X149043918Y-102176974D01*
X148949722Y-101962229D01*
X148863024Y-101829527D01*
X148271427Y-102421125D01*
X148241575Y-102349056D01*
X148174818Y-102249147D01*
X148089853Y-102164182D01*
X147989944Y-102097425D01*
X147917873Y-102067572D01*
X148510486Y-101474958D01*
X148510486Y-101474957D01*
X148477585Y-101449350D01*
X148271348Y-101337739D01*
X148271339Y-101337736D01*
X148049555Y-101261597D01*
X147818250Y-101223000D01*
X147583750Y-101223000D01*
X147352444Y-101261597D01*
X147130660Y-101337736D01*
X147130652Y-101337739D01*
X146924411Y-101449352D01*
X146891512Y-101474957D01*
X146891512Y-101474959D01*
X147484126Y-102067572D01*
X147412056Y-102097425D01*
X147312147Y-102164182D01*
X147227182Y-102249147D01*
X147160425Y-102349056D01*
X147130572Y-102421126D01*
X146538973Y-101829527D01*
X146452278Y-101962226D01*
X146358081Y-102176974D01*
X146300514Y-102404303D01*
X146281150Y-102637994D01*
X146281150Y-102638005D01*
X146300514Y-102871696D01*
X146358081Y-103099025D01*
X146452278Y-103313773D01*
X146538973Y-103446470D01*
X147130572Y-102854872D01*
X147160425Y-102926944D01*
X147227182Y-103026853D01*
X147312147Y-103111818D01*
X147412056Y-103178575D01*
X147484126Y-103208427D01*
X146891512Y-103801040D01*
X146892040Y-103809546D01*
X146919612Y-103847857D01*
X146923287Y-103917630D01*
X146888655Y-103978313D01*
X146826714Y-104010640D01*
X146802637Y-104013000D01*
X145920000Y-104013000D01*
X145852961Y-103993315D01*
X145807206Y-103940511D01*
X145796000Y-103889000D01*
X145796000Y-98809999D01*
X148211864Y-98809999D01*
X148211864Y-98810000D01*
X149109488Y-98810000D01*
X149076575Y-98867007D01*
X149042500Y-98994174D01*
X149042500Y-99125826D01*
X149076575Y-99252993D01*
X149109488Y-99310000D01*
X148211864Y-99310000D01*
X148269067Y-99523486D01*
X148269070Y-99523492D01*
X148368899Y-99737578D01*
X148504394Y-99931082D01*
X148671417Y-100098105D01*
X148864921Y-100233600D01*
X149079007Y-100333429D01*
X149079016Y-100333433D01*
X149292500Y-100390634D01*
X149292500Y-99493012D01*
X149349507Y-99525925D01*
X149476674Y-99560000D01*
X149608326Y-99560000D01*
X149735493Y-99525925D01*
X149792500Y-99493012D01*
X149792500Y-100390633D01*
X150005983Y-100333433D01*
X150005992Y-100333429D01*
X150220078Y-100233600D01*
X150413578Y-100098108D01*
X150529414Y-99982272D01*
X150590737Y-99948787D01*
X150660429Y-99953771D01*
X150716363Y-99995642D01*
X150733277Y-100026619D01*
X150781610Y-100156203D01*
X150781611Y-100156204D01*
X150869239Y-100273261D01*
X150986296Y-100360889D01*
X151123299Y-100411989D01*
X151150550Y-100414918D01*
X151183845Y-100418499D01*
X151183862Y-100418500D01*
X152981138Y-100418500D01*
X152981154Y-100418499D01*
X153008192Y-100415591D01*
X153041701Y-100411989D01*
X153178704Y-100360889D01*
X153295761Y-100273261D01*
X153383389Y-100156204D01*
X153434489Y-100019201D01*
X153438459Y-99982272D01*
X153440999Y-99958654D01*
X153441000Y-99958637D01*
X153441000Y-98161362D01*
X153440999Y-98161345D01*
X153437657Y-98130270D01*
X153434489Y-98100799D01*
X153431722Y-98093381D01*
X153405059Y-98021894D01*
X153383389Y-97963796D01*
X153295761Y-97846739D01*
X153178704Y-97759111D01*
X153041703Y-97708011D01*
X152981154Y-97701500D01*
X152981138Y-97701500D01*
X151183862Y-97701500D01*
X151183845Y-97701500D01*
X151123297Y-97708011D01*
X151123295Y-97708011D01*
X150986295Y-97759111D01*
X150869239Y-97846739D01*
X150781611Y-97963795D01*
X150733277Y-98093381D01*
X150691405Y-98149314D01*
X150625941Y-98173730D01*
X150557668Y-98158878D01*
X150529415Y-98137727D01*
X150413582Y-98021894D01*
X150220078Y-97886399D01*
X150005992Y-97786570D01*
X150005986Y-97786567D01*
X149792500Y-97729364D01*
X149792500Y-98626988D01*
X149735493Y-98594075D01*
X149608326Y-98560000D01*
X149476674Y-98560000D01*
X149349507Y-98594075D01*
X149292500Y-98626988D01*
X149292500Y-97729364D01*
X149292499Y-97729364D01*
X149079013Y-97786567D01*
X149079007Y-97786570D01*
X148864922Y-97886399D01*
X148864920Y-97886400D01*
X148671426Y-98021886D01*
X148671420Y-98021891D01*
X148504391Y-98188920D01*
X148504386Y-98188926D01*
X148368900Y-98382420D01*
X148368899Y-98382422D01*
X148269070Y-98596507D01*
X148269067Y-98596513D01*
X148211864Y-98809999D01*
X145796000Y-98809999D01*
X145796000Y-87181000D01*
X110744000Y-87181000D01*
X110744000Y-103889000D01*
X110724315Y-103956039D01*
X110671511Y-104001794D01*
X110620000Y-104013000D01*
X109737362Y-104013000D01*
X109670323Y-103993315D01*
X109624568Y-103940511D01*
X109614624Y-103871353D01*
X109643649Y-103807797D01*
X109648344Y-103803342D01*
X109648487Y-103801040D01*
X109055873Y-103208427D01*
X109127944Y-103178575D01*
X109227853Y-103111818D01*
X109312818Y-103026853D01*
X109379575Y-102926944D01*
X109409427Y-102854873D01*
X110001024Y-103446471D01*
X110087720Y-103313775D01*
X110181918Y-103099025D01*
X110239485Y-102871696D01*
X110258850Y-102638005D01*
X110258850Y-102637994D01*
X110239485Y-102404303D01*
X110181918Y-102176974D01*
X110087722Y-101962229D01*
X110001024Y-101829527D01*
X109409427Y-102421125D01*
X109379575Y-102349056D01*
X109312818Y-102249147D01*
X109227853Y-102164182D01*
X109127944Y-102097425D01*
X109055873Y-102067572D01*
X109648486Y-101474958D01*
X109648486Y-101474957D01*
X109615585Y-101449350D01*
X109409348Y-101337739D01*
X109409339Y-101337736D01*
X109187555Y-101261597D01*
X108956250Y-101223000D01*
X108721750Y-101223000D01*
X108490444Y-101261597D01*
X108268660Y-101337736D01*
X108268652Y-101337739D01*
X108062411Y-101449352D01*
X108029512Y-101474957D01*
X108029512Y-101474959D01*
X108622126Y-102067572D01*
X108550056Y-102097425D01*
X108450147Y-102164182D01*
X108365182Y-102249147D01*
X108298425Y-102349056D01*
X108268572Y-102421126D01*
X107676973Y-101829527D01*
X107590278Y-101962226D01*
X107496081Y-102176974D01*
X107438514Y-102404303D01*
X107419150Y-102637994D01*
X107419150Y-102638005D01*
X107438514Y-102871696D01*
X107496081Y-103099025D01*
X107590278Y-103313773D01*
X107676973Y-103446470D01*
X108268572Y-102854872D01*
X108298425Y-102926944D01*
X108365182Y-103026853D01*
X108450147Y-103111818D01*
X108550056Y-103178575D01*
X108622126Y-103208427D01*
X108029512Y-103801040D01*
X108030040Y-103809546D01*
X108057612Y-103847857D01*
X108061287Y-103917630D01*
X108026655Y-103978313D01*
X107964714Y-104010640D01*
X107940637Y-104013000D01*
X104657362Y-104013000D01*
X104590323Y-103993315D01*
X104544568Y-103940511D01*
X104534624Y-103871353D01*
X104563649Y-103807797D01*
X104568344Y-103803342D01*
X104568487Y-103801040D01*
X103975873Y-103208427D01*
X104047944Y-103178575D01*
X104147853Y-103111818D01*
X104232818Y-103026853D01*
X104299575Y-102926944D01*
X104329427Y-102854873D01*
X104921024Y-103446471D01*
X105007720Y-103313775D01*
X105101918Y-103099025D01*
X105159485Y-102871696D01*
X105178850Y-102638005D01*
X105178850Y-102637994D01*
X105159485Y-102404303D01*
X105101918Y-102176974D01*
X105007722Y-101962229D01*
X104921024Y-101829527D01*
X104329427Y-102421125D01*
X104299575Y-102349056D01*
X104232818Y-102249147D01*
X104147853Y-102164182D01*
X104047944Y-102097425D01*
X103975873Y-102067572D01*
X104568486Y-101474958D01*
X104568486Y-101474957D01*
X104535585Y-101449350D01*
X104329348Y-101337739D01*
X104329339Y-101337736D01*
X104107555Y-101261597D01*
X103876250Y-101223000D01*
X103641750Y-101223000D01*
X103410444Y-101261597D01*
X103188660Y-101337736D01*
X103188652Y-101337739D01*
X102982411Y-101449352D01*
X102949512Y-101474957D01*
X102949512Y-101474959D01*
X103542126Y-102067572D01*
X103470056Y-102097425D01*
X103370147Y-102164182D01*
X103285182Y-102249147D01*
X103218425Y-102349056D01*
X103188572Y-102421126D01*
X102596973Y-101829527D01*
X102510278Y-101962226D01*
X102416081Y-102176974D01*
X102358514Y-102404303D01*
X102339150Y-102637994D01*
X102339150Y-102638005D01*
X102358514Y-102871696D01*
X102416081Y-103099025D01*
X102510278Y-103313773D01*
X102596973Y-103446470D01*
X103188572Y-102854872D01*
X103218425Y-102926944D01*
X103285182Y-103026853D01*
X103370147Y-103111818D01*
X103470056Y-103178575D01*
X103542126Y-103208427D01*
X102949512Y-103801040D01*
X102950040Y-103809546D01*
X102977612Y-103847857D01*
X102981287Y-103917630D01*
X102946655Y-103978313D01*
X102884714Y-104010640D01*
X102860637Y-104013000D01*
X101597000Y-104013000D01*
X101529961Y-103993315D01*
X101484206Y-103940511D01*
X101473000Y-103889000D01*
X101473000Y-98809999D01*
X103126864Y-98809999D01*
X103126864Y-98810000D01*
X104024488Y-98810000D01*
X103991575Y-98867007D01*
X103957500Y-98994174D01*
X103957500Y-99125826D01*
X103991575Y-99252993D01*
X104024488Y-99310000D01*
X103126864Y-99310000D01*
X103184067Y-99523486D01*
X103184070Y-99523492D01*
X103283899Y-99737578D01*
X103419394Y-99931082D01*
X103586417Y-100098105D01*
X103779921Y-100233600D01*
X103994007Y-100333429D01*
X103994016Y-100333433D01*
X104207500Y-100390634D01*
X104207500Y-99493012D01*
X104264507Y-99525925D01*
X104391674Y-99560000D01*
X104523326Y-99560000D01*
X104650493Y-99525925D01*
X104707500Y-99493012D01*
X104707500Y-100390633D01*
X104920983Y-100333433D01*
X104920992Y-100333429D01*
X105135078Y-100233600D01*
X105328578Y-100098108D01*
X105444414Y-99982272D01*
X105505737Y-99948787D01*
X105575429Y-99953771D01*
X105631363Y-99995642D01*
X105648277Y-100026619D01*
X105696610Y-100156203D01*
X105696611Y-100156204D01*
X105784239Y-100273261D01*
X105901296Y-100360889D01*
X106038299Y-100411989D01*
X106065550Y-100414918D01*
X106098845Y-100418499D01*
X106098862Y-100418500D01*
X107896138Y-100418500D01*
X107896154Y-100418499D01*
X107923192Y-100415591D01*
X107956701Y-100411989D01*
X108093704Y-100360889D01*
X108210761Y-100273261D01*
X108298389Y-100156204D01*
X108349489Y-100019201D01*
X108353459Y-99982272D01*
X108355999Y-99958654D01*
X108356000Y-99958637D01*
X108356000Y-98161362D01*
X108355999Y-98161345D01*
X108352657Y-98130270D01*
X108349489Y-98100799D01*
X108346722Y-98093381D01*
X108320059Y-98021894D01*
X108298389Y-97963796D01*
X108210761Y-97846739D01*
X108093704Y-97759111D01*
X107956703Y-97708011D01*
X107896154Y-97701500D01*
X107896138Y-97701500D01*
X106098862Y-97701500D01*
X106098845Y-97701500D01*
X106038297Y-97708011D01*
X106038295Y-97708011D01*
X105901295Y-97759111D01*
X105784239Y-97846739D01*
X105696611Y-97963795D01*
X105648277Y-98093381D01*
X105606405Y-98149314D01*
X105540941Y-98173730D01*
X105472668Y-98158878D01*
X105444415Y-98137727D01*
X105328582Y-98021894D01*
X105135078Y-97886399D01*
X104920992Y-97786570D01*
X104920986Y-97786567D01*
X104707500Y-97729364D01*
X104707500Y-98626988D01*
X104650493Y-98594075D01*
X104523326Y-98560000D01*
X104391674Y-98560000D01*
X104264507Y-98594075D01*
X104207500Y-98626988D01*
X104207500Y-97729364D01*
X104207499Y-97729364D01*
X103994013Y-97786567D01*
X103994007Y-97786570D01*
X103779922Y-97886399D01*
X103779920Y-97886400D01*
X103586426Y-98021886D01*
X103586420Y-98021891D01*
X103419391Y-98188920D01*
X103419386Y-98188926D01*
X103283900Y-98382420D01*
X103283899Y-98382422D01*
X103184070Y-98596507D01*
X103184067Y-98596513D01*
X103126864Y-98809999D01*
X101473000Y-98809999D01*
X101473000Y-96012023D01*
X101492685Y-95944984D01*
X101545489Y-95899229D01*
X101614647Y-95889285D01*
X101678203Y-95918310D01*
X101700804Y-95944195D01*
X101794278Y-96087268D01*
X101794283Y-96087273D01*
X101794284Y-96087276D01*
X101946756Y-96252902D01*
X101946760Y-96252906D01*
X102124424Y-96391189D01*
X102124425Y-96391189D01*
X102124427Y-96391191D01*
X102251135Y-96459761D01*
X102322426Y-96498342D01*
X102535365Y-96571444D01*
X102757431Y-96608500D01*
X102982569Y-96608500D01*
X103204635Y-96571444D01*
X103417574Y-96498342D01*
X103615576Y-96391189D01*
X103793240Y-96252906D01*
X103945722Y-96087268D01*
X104036193Y-95948790D01*
X104089338Y-95903437D01*
X104158569Y-95894013D01*
X104221905Y-95923515D01*
X104243804Y-95948787D01*
X104334278Y-96087268D01*
X104334283Y-96087273D01*
X104334284Y-96087276D01*
X104486756Y-96252902D01*
X104486760Y-96252906D01*
X104664424Y-96391189D01*
X104664425Y-96391189D01*
X104664427Y-96391191D01*
X104791135Y-96459761D01*
X104862426Y-96498342D01*
X105075365Y-96571444D01*
X105297431Y-96608500D01*
X105522569Y-96608500D01*
X105744635Y-96571444D01*
X105957574Y-96498342D01*
X106155576Y-96391189D01*
X106333240Y-96252906D01*
X106485722Y-96087268D01*
X106608860Y-95898791D01*
X106699296Y-95692616D01*
X106754564Y-95474368D01*
X106773156Y-95250000D01*
X106754564Y-95025632D01*
X106699296Y-94807384D01*
X106608860Y-94601209D01*
X106595706Y-94581076D01*
X106485723Y-94412734D01*
X106485715Y-94412723D01*
X106333243Y-94247097D01*
X106333238Y-94247092D01*
X106155577Y-94108812D01*
X106155578Y-94108812D01*
X106155576Y-94108811D01*
X106119070Y-94089055D01*
X106069479Y-94039836D01*
X106054371Y-93971619D01*
X106078541Y-93906064D01*
X106119070Y-93870945D01*
X106119084Y-93870936D01*
X106155576Y-93851189D01*
X106333240Y-93712906D01*
X106485722Y-93547268D01*
X106608860Y-93358791D01*
X106699296Y-93152616D01*
X106754564Y-92934368D01*
X106773156Y-92710000D01*
X106754564Y-92485632D01*
X106699296Y-92267384D01*
X106608860Y-92061209D01*
X106595706Y-92041076D01*
X106485723Y-91872734D01*
X106485715Y-91872723D01*
X106333243Y-91707097D01*
X106333238Y-91707092D01*
X106155577Y-91568812D01*
X106155578Y-91568812D01*
X106155576Y-91568811D01*
X106119070Y-91549055D01*
X106069479Y-91499836D01*
X106054371Y-91431619D01*
X106078541Y-91366064D01*
X106119070Y-91330945D01*
X106119084Y-91330936D01*
X106155576Y-91311189D01*
X106333240Y-91172906D01*
X106485722Y-91007268D01*
X106608860Y-90818791D01*
X106699296Y-90612616D01*
X106754564Y-90394368D01*
X106773156Y-90170000D01*
X106754564Y-89945632D01*
X106699296Y-89727384D01*
X106608860Y-89521209D01*
X106595706Y-89501076D01*
X106485723Y-89332734D01*
X106485715Y-89332723D01*
X106333243Y-89167097D01*
X106333238Y-89167092D01*
X106155577Y-89028812D01*
X106155578Y-89028812D01*
X106155576Y-89028811D01*
X106119070Y-89009055D01*
X106069479Y-88959836D01*
X106054371Y-88891619D01*
X106078541Y-88826064D01*
X106119070Y-88790945D01*
X106119084Y-88790936D01*
X106155576Y-88771189D01*
X106333240Y-88632906D01*
X106485722Y-88467268D01*
X106608860Y-88278791D01*
X106699296Y-88072616D01*
X106754564Y-87854368D01*
X106773156Y-87630000D01*
X106754564Y-87405632D01*
X106699296Y-87187384D01*
X106608860Y-86981209D01*
X106485722Y-86792732D01*
X106485719Y-86792729D01*
X106485715Y-86792723D01*
X106333243Y-86627097D01*
X106333238Y-86627092D01*
X106155577Y-86488812D01*
X106155572Y-86488808D01*
X105957580Y-86381661D01*
X105957577Y-86381659D01*
X105957574Y-86381658D01*
X105957571Y-86381657D01*
X105957569Y-86381656D01*
X105744637Y-86308556D01*
X105522569Y-86271500D01*
X105297431Y-86271500D01*
X105075362Y-86308556D01*
X104862430Y-86381656D01*
X104862419Y-86381661D01*
X104664427Y-86488808D01*
X104664422Y-86488812D01*
X104486761Y-86627092D01*
X104423548Y-86695760D01*
X104363661Y-86731750D01*
X104293823Y-86729649D01*
X104236207Y-86690124D01*
X104216138Y-86655110D01*
X104170889Y-86533796D01*
X104137214Y-86488812D01*
X104083261Y-86416739D01*
X103966204Y-86329111D01*
X103829203Y-86278011D01*
X103768654Y-86271500D01*
X103768638Y-86271500D01*
X101971362Y-86271500D01*
X101971345Y-86271500D01*
X101910797Y-86278011D01*
X101910795Y-86278011D01*
X101773795Y-86329111D01*
X101724530Y-86365991D01*
X101671309Y-86405831D01*
X101605847Y-86430248D01*
X101537574Y-86415396D01*
X101488168Y-86365991D01*
X101473000Y-86306564D01*
X101473000Y-85132400D01*
X110519496Y-85132400D01*
X110539458Y-85322328D01*
X110539459Y-85322331D01*
X110598470Y-85503949D01*
X110598473Y-85503956D01*
X110693960Y-85669344D01*
X110821747Y-85811266D01*
X110976248Y-85923518D01*
X111150712Y-86001194D01*
X111337513Y-86040900D01*
X111528487Y-86040900D01*
X111715288Y-86001194D01*
X111889752Y-85923518D01*
X112044253Y-85811266D01*
X112172040Y-85669344D01*
X112267527Y-85503956D01*
X112326542Y-85322328D01*
X112346504Y-85132400D01*
X112326542Y-84942472D01*
X112267527Y-84760844D01*
X112172040Y-84595456D01*
X112044253Y-84453534D01*
X111889752Y-84341282D01*
X111715288Y-84263606D01*
X111715286Y-84263605D01*
X111528487Y-84223900D01*
X111337513Y-84223900D01*
X111150714Y-84263605D01*
X110976246Y-84341283D01*
X110821745Y-84453535D01*
X110693959Y-84595457D01*
X110598473Y-84760843D01*
X110598470Y-84760850D01*
X110545112Y-84925070D01*
X110539458Y-84942472D01*
X110519496Y-85132400D01*
X101473000Y-85132400D01*
X101473000Y-83693000D01*
X114529496Y-83693000D01*
X114549458Y-83882928D01*
X114549459Y-83882931D01*
X114608470Y-84064549D01*
X114608473Y-84064556D01*
X114703960Y-84229944D01*
X114831747Y-84371866D01*
X114986248Y-84484118D01*
X115160712Y-84561794D01*
X115347513Y-84601500D01*
X115538487Y-84601500D01*
X115725288Y-84561794D01*
X115899752Y-84484118D01*
X116054253Y-84371866D01*
X116182040Y-84229944D01*
X116277527Y-84064556D01*
X116336542Y-83882928D01*
X116356504Y-83693000D01*
X116336542Y-83503072D01*
X116277527Y-83321444D01*
X116182040Y-83156056D01*
X116054253Y-83014134D01*
X115899752Y-82901882D01*
X115725288Y-82824206D01*
X115725286Y-82824205D01*
X115538487Y-82784500D01*
X115347513Y-82784500D01*
X115160714Y-82824205D01*
X114986246Y-82901883D01*
X114831745Y-83014135D01*
X114703959Y-83156057D01*
X114608473Y-83321443D01*
X114608470Y-83321450D01*
X114549459Y-83503068D01*
X114549458Y-83503072D01*
X114529496Y-83693000D01*
X101473000Y-83693000D01*
X101473000Y-77398983D01*
X112191672Y-77398983D01*
X112211634Y-77588911D01*
X112211950Y-77589883D01*
X112270646Y-77770532D01*
X112270649Y-77770539D01*
X112366136Y-77935927D01*
X112493923Y-78077849D01*
X112648424Y-78190101D01*
X112822888Y-78267777D01*
X112851783Y-78273919D01*
X112913262Y-78307109D01*
X112947039Y-78368272D01*
X112950000Y-78395208D01*
X112950000Y-78490000D01*
X113866988Y-78490000D01*
X113834075Y-78547007D01*
X113800000Y-78674174D01*
X113800000Y-78805826D01*
X113834075Y-78932993D01*
X113866988Y-78990000D01*
X112950000Y-78990000D01*
X112950000Y-79637844D01*
X112956401Y-79697372D01*
X112956403Y-79697379D01*
X113006645Y-79832086D01*
X113006649Y-79832093D01*
X113092809Y-79947187D01*
X113092812Y-79947190D01*
X113207906Y-80033350D01*
X113207913Y-80033354D01*
X113339986Y-80082614D01*
X113395920Y-80124485D01*
X113420337Y-80189949D01*
X113405486Y-80258222D01*
X113384335Y-80286477D01*
X113261886Y-80408926D01*
X113126400Y-80602420D01*
X113126399Y-80602422D01*
X113026570Y-80816507D01*
X113026567Y-80816513D01*
X112969364Y-81029999D01*
X112969364Y-81030000D01*
X113866988Y-81030000D01*
X113834075Y-81087007D01*
X113800000Y-81214174D01*
X113800000Y-81345826D01*
X113834075Y-81472993D01*
X113866988Y-81530000D01*
X112969364Y-81530000D01*
X113026567Y-81743486D01*
X113026570Y-81743492D01*
X113126399Y-81957578D01*
X113261894Y-82151082D01*
X113428917Y-82318105D01*
X113622421Y-82453600D01*
X113836507Y-82553429D01*
X113836516Y-82553433D01*
X114050000Y-82610634D01*
X114050000Y-81713012D01*
X114107007Y-81745925D01*
X114234174Y-81780000D01*
X114365826Y-81780000D01*
X114492993Y-81745925D01*
X114550000Y-81713012D01*
X114550000Y-82610633D01*
X114763483Y-82553433D01*
X114763492Y-82553429D01*
X114977578Y-82453600D01*
X115171082Y-82318105D01*
X115338105Y-82151082D01*
X115473600Y-81957578D01*
X115559203Y-81773999D01*
X122722321Y-81773999D01*
X122722321Y-81774000D01*
X122741002Y-81987527D01*
X122741004Y-81987537D01*
X122796477Y-82194567D01*
X122796481Y-82194576D01*
X122887066Y-82388838D01*
X122887067Y-82388840D01*
X122926825Y-82445620D01*
X122926825Y-82445621D01*
X123485366Y-81887079D01*
X123504711Y-81959273D01*
X123567904Y-82068727D01*
X123657273Y-82158096D01*
X123766727Y-82221289D01*
X123838919Y-82240632D01*
X123280377Y-82799173D01*
X123337161Y-82838933D01*
X123531423Y-82929518D01*
X123531432Y-82929522D01*
X123738462Y-82984995D01*
X123738472Y-82984997D01*
X123951999Y-83003679D01*
X123952001Y-83003679D01*
X124165527Y-82984997D01*
X124165537Y-82984995D01*
X124372567Y-82929522D01*
X124372576Y-82929518D01*
X124566839Y-82838933D01*
X124623621Y-82799173D01*
X124065080Y-82240632D01*
X124137273Y-82221289D01*
X124246727Y-82158096D01*
X124336096Y-82068727D01*
X124399289Y-81959273D01*
X124418632Y-81887080D01*
X124977173Y-82445621D01*
X125016933Y-82388839D01*
X125107518Y-82194576D01*
X125107522Y-82194567D01*
X125162995Y-81987537D01*
X125162997Y-81987527D01*
X125181679Y-81774000D01*
X125181679Y-81773999D01*
X125162997Y-81560472D01*
X125162995Y-81560462D01*
X125107522Y-81353432D01*
X125107518Y-81353423D01*
X125016933Y-81159162D01*
X124977173Y-81102378D01*
X124418632Y-81660919D01*
X124399289Y-81588727D01*
X124336096Y-81479273D01*
X124246727Y-81389904D01*
X124137273Y-81326711D01*
X124065079Y-81307366D01*
X124623621Y-80748825D01*
X124566840Y-80709067D01*
X124566838Y-80709066D01*
X124429447Y-80645000D01*
X129007496Y-80645000D01*
X129027458Y-80834928D01*
X129027459Y-80834931D01*
X129086470Y-81016549D01*
X129086473Y-81016556D01*
X129181960Y-81181944D01*
X129309747Y-81323866D01*
X129464248Y-81436118D01*
X129638712Y-81513794D01*
X129825513Y-81553500D01*
X130016487Y-81553500D01*
X130203288Y-81513794D01*
X130377752Y-81436118D01*
X130532253Y-81323866D01*
X130660040Y-81181944D01*
X130755527Y-81016556D01*
X130814542Y-80834928D01*
X130834504Y-80645000D01*
X130814542Y-80455072D01*
X130755527Y-80273444D01*
X130660040Y-80108056D01*
X130532253Y-79966134D01*
X130377752Y-79853882D01*
X130203288Y-79776206D01*
X130203286Y-79776205D01*
X130016487Y-79736500D01*
X129825513Y-79736500D01*
X129638714Y-79776205D01*
X129464246Y-79853883D01*
X129309745Y-79966135D01*
X129181959Y-80108057D01*
X129086473Y-80273443D01*
X129086470Y-80273450D01*
X129027459Y-80455068D01*
X129027458Y-80455072D01*
X129007496Y-80645000D01*
X124429447Y-80645000D01*
X124372576Y-80618481D01*
X124372567Y-80618477D01*
X124165537Y-80563004D01*
X124165527Y-80563002D01*
X123952001Y-80544321D01*
X123951999Y-80544321D01*
X123738472Y-80563002D01*
X123738462Y-80563004D01*
X123531432Y-80618477D01*
X123531423Y-80618481D01*
X123337158Y-80709068D01*
X123280378Y-80748824D01*
X123838920Y-81307366D01*
X123766727Y-81326711D01*
X123657273Y-81389904D01*
X123567904Y-81479273D01*
X123504711Y-81588727D01*
X123485366Y-81660920D01*
X122926824Y-81102378D01*
X122887068Y-81159158D01*
X122796481Y-81353423D01*
X122796477Y-81353432D01*
X122741004Y-81560462D01*
X122741002Y-81560472D01*
X122722321Y-81773999D01*
X115559203Y-81773999D01*
X115573429Y-81743492D01*
X115573432Y-81743486D01*
X115630636Y-81530000D01*
X114733012Y-81530000D01*
X114765925Y-81472993D01*
X114800000Y-81345826D01*
X114800000Y-81214174D01*
X114765925Y-81087007D01*
X114733012Y-81030000D01*
X115630636Y-81030000D01*
X115630635Y-81029999D01*
X115573432Y-80816513D01*
X115573429Y-80816507D01*
X115473600Y-80602422D01*
X115473599Y-80602420D01*
X115458601Y-80581000D01*
X118469496Y-80581000D01*
X118489458Y-80770928D01*
X118489459Y-80770931D01*
X118548470Y-80952549D01*
X118548473Y-80952556D01*
X118643960Y-81117944D01*
X118771747Y-81259866D01*
X118926248Y-81372118D01*
X119100712Y-81449794D01*
X119287513Y-81489500D01*
X119478487Y-81489500D01*
X119665288Y-81449794D01*
X119839752Y-81372118D01*
X119994253Y-81259866D01*
X120122040Y-81117944D01*
X120217527Y-80952556D01*
X120276542Y-80770928D01*
X120296504Y-80581000D01*
X120276542Y-80391072D01*
X120217527Y-80209444D01*
X120122040Y-80044056D01*
X119994253Y-79902134D01*
X119839752Y-79789882D01*
X119665288Y-79712206D01*
X119665286Y-79712205D01*
X119478487Y-79672500D01*
X119287513Y-79672500D01*
X119100714Y-79712205D01*
X118926246Y-79789883D01*
X118771745Y-79902135D01*
X118643959Y-80044057D01*
X118548473Y-80209443D01*
X118548470Y-80209450D01*
X118489459Y-80391068D01*
X118489458Y-80391072D01*
X118469496Y-80581000D01*
X115458601Y-80581000D01*
X115338113Y-80408926D01*
X115338108Y-80408920D01*
X115215665Y-80286477D01*
X115182180Y-80225154D01*
X115187164Y-80155462D01*
X115229036Y-80099529D01*
X115260013Y-80082614D01*
X115392086Y-80033354D01*
X115392093Y-80033350D01*
X115507187Y-79947190D01*
X115507190Y-79947187D01*
X115593350Y-79832093D01*
X115593354Y-79832086D01*
X115643596Y-79697379D01*
X115643598Y-79697372D01*
X115649999Y-79637844D01*
X115650000Y-79637827D01*
X115650000Y-79387045D01*
X116243496Y-79387045D01*
X116263458Y-79576973D01*
X116263459Y-79576976D01*
X116322470Y-79758594D01*
X116322473Y-79758601D01*
X116417960Y-79923989D01*
X116545747Y-80065911D01*
X116700248Y-80178163D01*
X116874712Y-80255839D01*
X117061513Y-80295545D01*
X117252487Y-80295545D01*
X117439288Y-80255839D01*
X117613752Y-80178163D01*
X117768253Y-80065911D01*
X117896040Y-79923989D01*
X117991527Y-79758601D01*
X118050542Y-79576973D01*
X118070504Y-79387045D01*
X118050542Y-79197117D01*
X117991527Y-79015489D01*
X117896040Y-78850101D01*
X117768253Y-78708179D01*
X117613752Y-78595927D01*
X117439288Y-78518251D01*
X117439286Y-78518250D01*
X117252487Y-78478545D01*
X117061513Y-78478545D01*
X116874714Y-78518250D01*
X116700246Y-78595928D01*
X116545745Y-78708180D01*
X116417959Y-78850102D01*
X116322473Y-79015488D01*
X116322470Y-79015495D01*
X116267396Y-79184996D01*
X116263458Y-79197117D01*
X116243496Y-79387045D01*
X115650000Y-79387045D01*
X115650000Y-78990000D01*
X114733012Y-78990000D01*
X114765925Y-78932993D01*
X114800000Y-78805826D01*
X114800000Y-78674174D01*
X114765925Y-78547007D01*
X114733012Y-78490000D01*
X115650000Y-78490000D01*
X115650000Y-78381000D01*
X118521996Y-78381000D01*
X118541958Y-78570928D01*
X118541959Y-78570931D01*
X118600970Y-78752549D01*
X118600973Y-78752556D01*
X118696460Y-78917944D01*
X118824247Y-79059866D01*
X118978748Y-79172118D01*
X119153212Y-79249794D01*
X119340013Y-79289500D01*
X119530987Y-79289500D01*
X119717788Y-79249794D01*
X119892252Y-79172118D01*
X120046753Y-79059866D01*
X120174540Y-78917944D01*
X120270027Y-78752556D01*
X120329042Y-78570928D01*
X120349004Y-78381000D01*
X120329042Y-78191072D01*
X120270027Y-78009444D01*
X120249563Y-77973999D01*
X122722321Y-77973999D01*
X122722321Y-77974000D01*
X122741002Y-78187527D01*
X122741004Y-78187537D01*
X122796477Y-78394567D01*
X122796481Y-78394576D01*
X122887066Y-78588838D01*
X122887067Y-78588840D01*
X122926825Y-78645620D01*
X122926825Y-78645621D01*
X123485366Y-78087079D01*
X123504711Y-78159273D01*
X123567904Y-78268727D01*
X123657273Y-78358096D01*
X123766727Y-78421289D01*
X123838919Y-78440632D01*
X123280377Y-78999173D01*
X123337161Y-79038933D01*
X123531423Y-79129518D01*
X123531432Y-79129522D01*
X123738462Y-79184995D01*
X123738472Y-79184997D01*
X123951999Y-79203679D01*
X123952001Y-79203679D01*
X124165527Y-79184997D01*
X124165533Y-79184996D01*
X124369970Y-79130217D01*
X124439820Y-79131880D01*
X124497683Y-79171042D01*
X124525187Y-79235270D01*
X124525383Y-79237019D01*
X124539458Y-79370928D01*
X124539459Y-79370931D01*
X124598470Y-79552549D01*
X124598473Y-79552556D01*
X124693960Y-79717944D01*
X124821747Y-79859866D01*
X124976248Y-79972118D01*
X125150712Y-80049794D01*
X125337513Y-80089500D01*
X125528487Y-80089500D01*
X125715288Y-80049794D01*
X125889752Y-79972118D01*
X126044253Y-79859866D01*
X126172040Y-79717944D01*
X126267527Y-79552556D01*
X126326542Y-79370928D01*
X126346504Y-79181000D01*
X126326542Y-78991072D01*
X126267527Y-78809444D01*
X126172040Y-78644056D01*
X126044253Y-78502134D01*
X125889752Y-78389882D01*
X125715288Y-78312206D01*
X125715286Y-78312205D01*
X125528487Y-78272500D01*
X125337513Y-78272500D01*
X125316027Y-78277067D01*
X125246360Y-78271749D01*
X125190627Y-78229611D01*
X125166523Y-78164031D01*
X125166720Y-78144968D01*
X125181679Y-77974000D01*
X125181679Y-77973999D01*
X131362321Y-77973999D01*
X131362321Y-77974000D01*
X131381002Y-78187527D01*
X131381004Y-78187537D01*
X131436477Y-78394567D01*
X131436481Y-78394576D01*
X131527066Y-78588838D01*
X131527067Y-78588840D01*
X131566825Y-78645620D01*
X131566825Y-78645621D01*
X132125366Y-78087079D01*
X132144711Y-78159273D01*
X132207904Y-78268727D01*
X132297273Y-78358096D01*
X132406727Y-78421289D01*
X132478918Y-78440632D01*
X131920377Y-78999173D01*
X131977161Y-79038933D01*
X132171423Y-79129518D01*
X132171432Y-79129522D01*
X132378462Y-79184995D01*
X132378472Y-79184997D01*
X132591999Y-79203679D01*
X132592001Y-79203679D01*
X132805527Y-79184997D01*
X132805537Y-79184995D01*
X133012567Y-79129522D01*
X133012575Y-79129519D01*
X133026375Y-79123084D01*
X133095452Y-79112589D01*
X133159237Y-79141107D01*
X133196715Y-79197147D01*
X133198469Y-79202547D01*
X133198473Y-79202556D01*
X133293960Y-79367944D01*
X133421747Y-79509866D01*
X133514116Y-79576976D01*
X133553626Y-79605682D01*
X133596291Y-79661012D01*
X133602270Y-79730626D01*
X133569664Y-79792421D01*
X133553626Y-79806318D01*
X133421745Y-79902135D01*
X133293959Y-80044057D01*
X133198473Y-80209443D01*
X133198470Y-80209450D01*
X133139459Y-80391068D01*
X133139458Y-80391072D01*
X133130900Y-80472500D01*
X133127912Y-80500928D01*
X133101327Y-80565543D01*
X133044030Y-80605527D01*
X132974211Y-80608187D01*
X132972498Y-80607741D01*
X132805537Y-80563004D01*
X132805527Y-80563002D01*
X132592001Y-80544321D01*
X132591999Y-80544321D01*
X132378472Y-80563002D01*
X132378462Y-80563004D01*
X132171432Y-80618477D01*
X132171423Y-80618481D01*
X131977158Y-80709068D01*
X131920378Y-80748824D01*
X132478920Y-81307366D01*
X132406727Y-81326711D01*
X132297273Y-81389904D01*
X132207904Y-81479273D01*
X132144711Y-81588727D01*
X132125366Y-81660920D01*
X131566824Y-81102378D01*
X131527068Y-81159158D01*
X131436481Y-81353423D01*
X131436477Y-81353432D01*
X131381004Y-81560462D01*
X131381002Y-81560472D01*
X131362321Y-81773999D01*
X131362321Y-81774000D01*
X131381002Y-81987527D01*
X131381004Y-81987537D01*
X131436477Y-82194567D01*
X131436481Y-82194576D01*
X131527066Y-82388838D01*
X131527067Y-82388840D01*
X131566825Y-82445620D01*
X131566825Y-82445621D01*
X132125366Y-81887079D01*
X132144711Y-81959273D01*
X132207904Y-82068727D01*
X132297273Y-82158096D01*
X132406727Y-82221289D01*
X132478919Y-82240632D01*
X132248607Y-82470945D01*
X132187284Y-82504430D01*
X132186709Y-82504554D01*
X132150713Y-82512205D01*
X131976244Y-82589884D01*
X131821745Y-82702135D01*
X131693959Y-82844057D01*
X131598473Y-83009443D01*
X131598470Y-83009450D01*
X131544953Y-83174160D01*
X131539458Y-83191072D01*
X131519496Y-83381000D01*
X131539458Y-83570928D01*
X131539459Y-83570931D01*
X131598470Y-83752549D01*
X131598473Y-83752556D01*
X131693960Y-83917944D01*
X131821747Y-84059866D01*
X131976248Y-84172118D01*
X132150712Y-84249794D01*
X132337513Y-84289500D01*
X132528487Y-84289500D01*
X132715288Y-84249794D01*
X132889752Y-84172118D01*
X132945248Y-84131796D01*
X133011052Y-84108317D01*
X133079106Y-84124142D01*
X133127802Y-84174247D01*
X133137266Y-84200377D01*
X133137450Y-84200318D01*
X133139239Y-84205826D01*
X133139424Y-84206335D01*
X133139459Y-84206503D01*
X133198470Y-84388119D01*
X133198473Y-84388126D01*
X133293960Y-84553514D01*
X133421747Y-84695436D01*
X133576248Y-84807688D01*
X133750712Y-84885364D01*
X133937513Y-84925070D01*
X134128487Y-84925070D01*
X134315288Y-84885364D01*
X134489752Y-84807688D01*
X134644253Y-84695436D01*
X134772040Y-84553514D01*
X134867527Y-84388126D01*
X134926542Y-84206498D01*
X134946504Y-84016570D01*
X134926542Y-83826642D01*
X134897120Y-83736091D01*
X144541945Y-83736091D01*
X144561907Y-83926019D01*
X144561908Y-83926022D01*
X144620919Y-84107640D01*
X144620922Y-84107647D01*
X144716409Y-84273035D01*
X144844196Y-84414957D01*
X144998697Y-84527209D01*
X145173161Y-84604885D01*
X145359962Y-84644591D01*
X145550936Y-84644591D01*
X145737737Y-84604885D01*
X145912201Y-84527209D01*
X146066702Y-84414957D01*
X146194489Y-84273035D01*
X146289976Y-84107647D01*
X146348991Y-83926019D01*
X146368953Y-83736091D01*
X146348991Y-83546163D01*
X146289976Y-83364535D01*
X146194489Y-83199147D01*
X146066702Y-83057225D01*
X145912201Y-82944973D01*
X145737737Y-82867297D01*
X145737735Y-82867296D01*
X145550936Y-82827591D01*
X145359962Y-82827591D01*
X145173163Y-82867296D01*
X144998695Y-82944974D01*
X144844194Y-83057226D01*
X144716408Y-83199148D01*
X144620922Y-83364534D01*
X144620919Y-83364541D01*
X144575908Y-83503072D01*
X144561907Y-83546163D01*
X144541945Y-83736091D01*
X134897120Y-83736091D01*
X134867527Y-83645014D01*
X134772040Y-83479626D01*
X134644253Y-83337704D01*
X134591122Y-83299102D01*
X134548457Y-83243774D01*
X134542478Y-83174160D01*
X134575083Y-83112365D01*
X134591123Y-83098467D01*
X134644253Y-83059866D01*
X134772040Y-82917944D01*
X134867527Y-82752556D01*
X134926542Y-82570928D01*
X134946504Y-82381000D01*
X134926542Y-82191072D01*
X134867527Y-82009444D01*
X134772040Y-81844056D01*
X134644253Y-81702134D01*
X134489752Y-81589882D01*
X134489751Y-81589881D01*
X134487169Y-81588391D01*
X134485972Y-81587135D01*
X134484494Y-81586062D01*
X134484690Y-81585791D01*
X134438950Y-81537827D01*
X134425723Y-81469221D01*
X134451687Y-81404354D01*
X134478639Y-81381000D01*
X137119496Y-81381000D01*
X137139458Y-81570928D01*
X137139459Y-81570931D01*
X137198470Y-81752549D01*
X137198473Y-81752556D01*
X137293960Y-81917944D01*
X137421747Y-82059866D01*
X137576248Y-82172118D01*
X137750712Y-82249794D01*
X137937513Y-82289500D01*
X138128487Y-82289500D01*
X138315288Y-82249794D01*
X138489752Y-82172118D01*
X138644253Y-82059866D01*
X138772040Y-81917944D01*
X138867527Y-81752556D01*
X138926542Y-81570928D01*
X138946504Y-81381000D01*
X138926542Y-81191072D01*
X138867527Y-81009444D01*
X138772040Y-80844056D01*
X138650496Y-80709068D01*
X138644254Y-80702135D01*
X138514947Y-80608187D01*
X138489752Y-80589882D01*
X138315288Y-80512206D01*
X138315286Y-80512205D01*
X138128487Y-80472500D01*
X137937513Y-80472500D01*
X137750714Y-80512205D01*
X137750712Y-80512206D01*
X137596198Y-80581000D01*
X137576246Y-80589883D01*
X137421745Y-80702135D01*
X137293959Y-80844057D01*
X137198473Y-81009443D01*
X137198470Y-81009450D01*
X137142424Y-81181944D01*
X137139458Y-81191072D01*
X137119496Y-81381000D01*
X134478639Y-81381000D01*
X134487169Y-81373609D01*
X134489747Y-81372119D01*
X134489752Y-81372118D01*
X134644253Y-81259866D01*
X134772040Y-81117944D01*
X134867527Y-80952556D01*
X134926542Y-80770928D01*
X134946504Y-80581000D01*
X134926542Y-80391072D01*
X134867527Y-80209444D01*
X134772040Y-80044056D01*
X134644253Y-79902134D01*
X134644251Y-79902132D01*
X134512374Y-79806318D01*
X134469708Y-79750988D01*
X134463729Y-79681375D01*
X134496335Y-79619580D01*
X134512374Y-79605682D01*
X134551884Y-79576976D01*
X134644253Y-79509866D01*
X134772040Y-79367944D01*
X134867527Y-79202556D01*
X134926542Y-79020928D01*
X134946504Y-78831000D01*
X134926542Y-78641072D01*
X134867527Y-78459444D01*
X134772040Y-78294056D01*
X134644253Y-78152134D01*
X134644251Y-78152132D01*
X134512374Y-78056318D01*
X134469708Y-78000988D01*
X134463729Y-77931375D01*
X134496335Y-77869580D01*
X134512374Y-77855682D01*
X134530992Y-77842155D01*
X140890000Y-77842155D01*
X140890000Y-78490000D01*
X141806988Y-78490000D01*
X141774075Y-78547007D01*
X141740000Y-78674174D01*
X141740000Y-78805826D01*
X141774075Y-78932993D01*
X141806988Y-78990000D01*
X140890000Y-78990000D01*
X140890000Y-79637844D01*
X140896401Y-79697372D01*
X140896403Y-79697379D01*
X140946645Y-79832086D01*
X140946649Y-79832093D01*
X141032809Y-79947187D01*
X141032812Y-79947190D01*
X141147906Y-80033350D01*
X141147913Y-80033354D01*
X141279986Y-80082614D01*
X141335920Y-80124485D01*
X141360337Y-80189949D01*
X141345486Y-80258222D01*
X141324335Y-80286477D01*
X141201886Y-80408926D01*
X141066400Y-80602420D01*
X141066399Y-80602422D01*
X140966570Y-80816507D01*
X140966567Y-80816513D01*
X140909364Y-81029999D01*
X140909364Y-81030000D01*
X141806988Y-81030000D01*
X141774075Y-81087007D01*
X141740000Y-81214174D01*
X141740000Y-81345826D01*
X141774075Y-81472993D01*
X141806988Y-81530000D01*
X140909364Y-81530000D01*
X140966567Y-81743486D01*
X140966570Y-81743492D01*
X141066399Y-81957578D01*
X141201894Y-82151082D01*
X141368917Y-82318105D01*
X141562421Y-82453600D01*
X141776507Y-82553429D01*
X141776516Y-82553433D01*
X141990000Y-82610634D01*
X141990000Y-81713012D01*
X142047007Y-81745925D01*
X142174174Y-81780000D01*
X142305826Y-81780000D01*
X142432993Y-81745925D01*
X142490000Y-81713012D01*
X142490000Y-82610633D01*
X142703483Y-82553433D01*
X142703492Y-82553429D01*
X142917578Y-82453600D01*
X143111082Y-82318105D01*
X143278105Y-82151082D01*
X143413600Y-81957578D01*
X143513429Y-81743492D01*
X143513432Y-81743486D01*
X143570636Y-81530000D01*
X142673012Y-81530000D01*
X142705925Y-81472993D01*
X142740000Y-81345826D01*
X142740000Y-81214174D01*
X142705925Y-81087007D01*
X142673012Y-81030000D01*
X143570636Y-81030000D01*
X143570635Y-81029999D01*
X143513432Y-80816513D01*
X143513429Y-80816507D01*
X143413600Y-80602422D01*
X143413599Y-80602420D01*
X143278113Y-80408926D01*
X143278108Y-80408920D01*
X143155665Y-80286477D01*
X143122180Y-80225154D01*
X143127164Y-80155462D01*
X143169036Y-80099529D01*
X143200013Y-80082614D01*
X143332086Y-80033354D01*
X143332093Y-80033350D01*
X143344658Y-80023944D01*
X144476735Y-80023944D01*
X144496697Y-80213872D01*
X144496698Y-80213875D01*
X144555709Y-80395493D01*
X144555712Y-80395500D01*
X144651199Y-80560888D01*
X144778986Y-80702810D01*
X144933487Y-80815062D01*
X145107951Y-80892738D01*
X145294752Y-80932444D01*
X145485726Y-80932444D01*
X145672527Y-80892738D01*
X145846991Y-80815062D01*
X146001492Y-80702810D01*
X146129279Y-80560888D01*
X146224766Y-80395500D01*
X146283781Y-80213872D01*
X146303743Y-80023944D01*
X146283781Y-79834016D01*
X146224766Y-79652388D01*
X146129279Y-79487000D01*
X146001492Y-79345078D01*
X145846991Y-79232826D01*
X145672527Y-79155150D01*
X145672525Y-79155149D01*
X145485726Y-79115444D01*
X145294752Y-79115444D01*
X145107953Y-79155149D01*
X144933485Y-79232827D01*
X144778984Y-79345079D01*
X144651198Y-79487001D01*
X144555712Y-79652387D01*
X144555709Y-79652394D01*
X144497324Y-79832086D01*
X144496697Y-79834016D01*
X144476735Y-80023944D01*
X143344658Y-80023944D01*
X143447187Y-79947190D01*
X143447190Y-79947187D01*
X143533350Y-79832093D01*
X143533354Y-79832086D01*
X143583596Y-79697379D01*
X143583598Y-79697372D01*
X143589999Y-79637844D01*
X143590000Y-79637827D01*
X143590000Y-78990000D01*
X142673012Y-78990000D01*
X142705925Y-78932993D01*
X142740000Y-78805826D01*
X142740000Y-78674174D01*
X142705925Y-78547007D01*
X142673012Y-78490000D01*
X143590000Y-78490000D01*
X143590000Y-77842172D01*
X143589999Y-77842155D01*
X143583598Y-77782627D01*
X143583596Y-77782620D01*
X143533354Y-77647913D01*
X143533350Y-77647906D01*
X143447190Y-77532812D01*
X143447187Y-77532809D01*
X143332093Y-77446649D01*
X143332086Y-77446645D01*
X143197379Y-77396403D01*
X143197372Y-77396401D01*
X143137844Y-77390000D01*
X142490000Y-77390000D01*
X142490000Y-78306988D01*
X142432993Y-78274075D01*
X142305826Y-78240000D01*
X142174174Y-78240000D01*
X142047007Y-78274075D01*
X141990000Y-78306988D01*
X141990000Y-77390000D01*
X141342155Y-77390000D01*
X141282627Y-77396401D01*
X141282620Y-77396403D01*
X141147913Y-77446645D01*
X141147906Y-77446649D01*
X141032812Y-77532809D01*
X141032809Y-77532812D01*
X140946649Y-77647906D01*
X140946645Y-77647913D01*
X140896403Y-77782620D01*
X140896401Y-77782627D01*
X140890000Y-77842155D01*
X134530992Y-77842155D01*
X134612925Y-77782627D01*
X134644253Y-77759866D01*
X134772040Y-77617944D01*
X134867527Y-77452556D01*
X134926542Y-77270928D01*
X134946504Y-77081000D01*
X134926542Y-76891072D01*
X134867527Y-76709444D01*
X134772040Y-76544056D01*
X134644253Y-76402134D01*
X134489752Y-76289882D01*
X134315288Y-76212206D01*
X134315286Y-76212205D01*
X134128487Y-76172500D01*
X133937513Y-76172500D01*
X133750714Y-76212205D01*
X133576246Y-76289883D01*
X133421745Y-76402135D01*
X133293959Y-76544057D01*
X133198473Y-76709443D01*
X133198469Y-76709451D01*
X133186555Y-76746119D01*
X133147116Y-76803794D01*
X133082757Y-76830990D01*
X133016224Y-76820182D01*
X133012570Y-76818478D01*
X132805537Y-76763004D01*
X132805527Y-76763002D01*
X132592001Y-76744321D01*
X132591999Y-76744321D01*
X132378472Y-76763002D01*
X132378462Y-76763004D01*
X132171432Y-76818477D01*
X132171423Y-76818481D01*
X131977158Y-76909068D01*
X131920378Y-76948824D01*
X132478920Y-77507366D01*
X132406727Y-77526711D01*
X132297273Y-77589904D01*
X132207904Y-77679273D01*
X132144711Y-77788727D01*
X132125366Y-77860920D01*
X131566824Y-77302378D01*
X131527068Y-77359158D01*
X131436481Y-77553423D01*
X131436477Y-77553432D01*
X131381004Y-77760462D01*
X131381002Y-77760472D01*
X131362321Y-77973999D01*
X125181679Y-77973999D01*
X125162997Y-77760472D01*
X125162995Y-77760462D01*
X125107522Y-77553432D01*
X125107518Y-77553423D01*
X125016933Y-77359162D01*
X124977173Y-77302378D01*
X124418632Y-77860920D01*
X124399289Y-77788727D01*
X124336096Y-77679273D01*
X124246727Y-77589904D01*
X124137273Y-77526711D01*
X124065079Y-77507366D01*
X124623621Y-76948825D01*
X124566840Y-76909067D01*
X124566838Y-76909066D01*
X124372576Y-76818481D01*
X124372567Y-76818477D01*
X124165537Y-76763004D01*
X124165527Y-76763002D01*
X123952001Y-76744321D01*
X123951999Y-76744321D01*
X123738472Y-76763002D01*
X123738462Y-76763004D01*
X123531432Y-76818477D01*
X123531423Y-76818481D01*
X123337158Y-76909068D01*
X123280378Y-76948824D01*
X123838920Y-77507366D01*
X123766727Y-77526711D01*
X123657273Y-77589904D01*
X123567904Y-77679273D01*
X123504711Y-77788727D01*
X123485366Y-77860920D01*
X122926824Y-77302378D01*
X122887068Y-77359158D01*
X122796481Y-77553423D01*
X122796477Y-77553432D01*
X122741004Y-77760462D01*
X122741002Y-77760472D01*
X122722321Y-77973999D01*
X120249563Y-77973999D01*
X120174540Y-77844056D01*
X120046753Y-77702134D01*
X119892252Y-77589882D01*
X119717788Y-77512206D01*
X119717786Y-77512205D01*
X119530987Y-77472500D01*
X119340013Y-77472500D01*
X119153214Y-77512205D01*
X118978746Y-77589883D01*
X118824245Y-77702135D01*
X118696459Y-77844057D01*
X118600973Y-78009443D01*
X118600970Y-78009450D01*
X118542274Y-78190099D01*
X118541958Y-78191072D01*
X118521996Y-78381000D01*
X115650000Y-78381000D01*
X115650000Y-77842172D01*
X115649999Y-77842155D01*
X115643598Y-77782627D01*
X115643596Y-77782620D01*
X115593354Y-77647913D01*
X115593350Y-77647906D01*
X115507190Y-77532812D01*
X115507187Y-77532809D01*
X115392093Y-77446649D01*
X115392086Y-77446645D01*
X115257379Y-77396403D01*
X115257372Y-77396401D01*
X115197844Y-77390000D01*
X114550000Y-77390000D01*
X114550000Y-78306988D01*
X114492993Y-78274075D01*
X114365826Y-78240000D01*
X114234174Y-78240000D01*
X114107007Y-78274075D01*
X114050000Y-78306988D01*
X114050000Y-77390000D01*
X114044996Y-77384996D01*
X114011511Y-77323673D01*
X114009357Y-77310287D01*
X113998718Y-77209055D01*
X113939703Y-77027427D01*
X113844216Y-76862039D01*
X113716429Y-76720117D01*
X113561928Y-76607865D01*
X113387464Y-76530189D01*
X113387462Y-76530188D01*
X113200663Y-76490483D01*
X113009689Y-76490483D01*
X112822890Y-76530188D01*
X112648422Y-76607866D01*
X112493921Y-76720118D01*
X112366135Y-76862040D01*
X112270649Y-77027426D01*
X112270646Y-77027433D01*
X112211635Y-77209051D01*
X112211634Y-77209055D01*
X112191672Y-77398983D01*
X101473000Y-77398983D01*
X101473000Y-75308000D01*
X101492685Y-75240961D01*
X101545489Y-75195206D01*
X101597000Y-75184000D01*
X138028466Y-75184000D01*
X138095505Y-75203685D01*
G37*
%TD.AperFunction*%
%TD*%
M02*
