M48
; DRILL file {KiCad (6.0.10-0)} date Sunday, February 05, 2023 at 07:28:50 PM
; FORMAT={-:-/ absolute / inch / decimal}
; #@! TF.CreationDate,2023-02-05T19:28:50-07:00
; #@! TF.GenerationSoftware,Kicad,Pcbnew,(6.0.10-0)
; #@! TF.FileFunction,MixedPlating,1,2
FMAT,2
INCH
; #@! TA.AperFunction,Plated,PTH,ViaDrill
T1C0.0157
; #@! TA.AperFunction,Plated,PTH,ComponentDrill
T2C0.0394
; #@! TA.AperFunction,Plated,PTH,ComponentDrill
T3C0.0520
%
G90
G05
T1
X4.285Y-3.35
X4.3558Y-3.1681
X4.415Y-3.415
X4.465Y-3.405
X4.485Y-3.05
X4.53Y-3.05
X4.56Y-3.17
X4.5649Y-3.0786
X4.735Y-3.25
X4.795Y-3.16
X4.855Y-3.255
X4.91Y-3.38
X5.14Y-3.11
X5.145Y-3.25
X5.26Y-3.255
X5.415Y-3.4
X5.42Y-3.22
X5.45Y-3.26
X5.4575Y-3.1075
X5.555Y-3.22
X5.655Y-3.085
X5.69Y-3.07
X5.775Y-3.585
X5.7879Y-3.2384
X5.79Y-3.275
X5.81Y-3.585
T2
X4.0998Y-3.67
X4.1Y-3.82
X4.1Y-3.97
X4.1Y-4.12
X4.1998Y-3.67
X4.2Y-3.82
X4.2Y-3.97
X4.2Y-4.12
X5.7949Y-3.67
X5.7958Y-3.82
X5.7958Y-3.97
X5.7958Y-4.12
X5.8949Y-3.67
X5.8958Y-3.82
X5.8958Y-3.97
X5.8958Y-4.12
T3
X4.305Y-3.52
X4.505Y-3.52
X4.7Y-3.52
X4.9Y-3.52
X5.095Y-3.52
X5.295Y-3.52
X5.49Y-3.52
X5.69Y-3.52
T0
M30
