%TF.GenerationSoftware,KiCad,Pcbnew,7.0.5-0*%
%TF.CreationDate,2023-06-28T20:17:45-06:00*%
%TF.ProjectId,Breadboard Power Supply,42726561-6462-46f6-9172-6420506f7765,v10*%
%TF.SameCoordinates,Original*%
%TF.FileFunction,Soldermask,Top*%
%TF.FilePolarity,Negative*%
%FSLAX46Y46*%
G04 Gerber Fmt 4.6, Leading zero omitted, Abs format (unit mm)*
G04 Created by KiCad (PCBNEW 7.0.5-0) date 2023-06-28 20:17:45*
%MOMM*%
%LPD*%
G01*
G04 APERTURE LIST*
G04 Aperture macros list*
%AMRoundRect*
0 Rectangle with rounded corners*
0 $1 Rounding radius*
0 $2 $3 $4 $5 $6 $7 $8 $9 X,Y pos of 4 corners*
0 Add a 4 corners polygon primitive as box body*
4,1,4,$2,$3,$4,$5,$6,$7,$8,$9,$2,$3,0*
0 Add four circle primitives for the rounded corners*
1,1,$1+$1,$2,$3*
1,1,$1+$1,$4,$5*
1,1,$1+$1,$6,$7*
1,1,$1+$1,$8,$9*
0 Add four rect primitives between the rounded corners*
20,1,$1+$1,$2,$3,$4,$5,0*
20,1,$1+$1,$4,$5,$6,$7,0*
20,1,$1+$1,$6,$7,$8,$9,0*
20,1,$1+$1,$8,$9,$2,$3,0*%
G04 Aperture macros list end*
%ADD10RoundRect,0.135000X0.135000X0.185000X-0.135000X0.185000X-0.135000X-0.185000X0.135000X-0.185000X0*%
%ADD11RoundRect,0.218750X0.218750X0.256250X-0.218750X0.256250X-0.218750X-0.256250X0.218750X-0.256250X0*%
%ADD12RoundRect,0.250000X0.475000X-0.250000X0.475000X0.250000X-0.475000X0.250000X-0.475000X-0.250000X0*%
%ADD13C,1.830000*%
%ADD14RoundRect,0.135000X-0.135000X-0.185000X0.135000X-0.185000X0.135000X0.185000X-0.135000X0.185000X0*%
%ADD15R,1.700000X1.700000*%
%ADD16O,1.700000X1.700000*%
%ADD17R,2.000000X1.600000*%
%ADD18R,2.000000X2.000000*%
%ADD19RoundRect,0.140000X-0.170000X0.140000X-0.170000X-0.140000X0.170000X-0.140000X0.170000X0.140000X0*%
%ADD20RoundRect,0.140000X0.170000X-0.140000X0.170000X0.140000X-0.170000X0.140000X-0.170000X-0.140000X0*%
%ADD21RoundRect,0.135000X-0.185000X0.135000X-0.185000X-0.135000X0.185000X-0.135000X0.185000X0.135000X0*%
%ADD22RoundRect,0.250000X-0.250000X-0.475000X0.250000X-0.475000X0.250000X0.475000X-0.250000X0.475000X0*%
%ADD23R,0.700000X1.200000*%
%ADD24R,0.760000X1.200000*%
%ADD25R,0.800000X1.200000*%
%ADD26C,1.450000*%
%ADD27RoundRect,0.135000X0.185000X-0.135000X0.185000X0.135000X-0.185000X0.135000X-0.185000X-0.135000X0*%
%ADD28R,2.000000X1.500000*%
%ADD29R,2.000000X3.800000*%
%ADD30RoundRect,0.250000X-0.475000X0.250000X-0.475000X-0.250000X0.475000X-0.250000X0.475000X0.250000X0*%
G04 APERTURE END LIST*
D10*
%TO.C,R4*%
X112905000Y-83439000D03*
X111885000Y-83439000D03*
%TD*%
D11*
%TO.C,D3*%
X118262500Y-76073000D03*
X116687500Y-76073000D03*
%TD*%
D12*
%TO.C,C5*%
X144018000Y-78989000D03*
X144018000Y-77089000D03*
%TD*%
D13*
%TO.C,TP3*%
X135890000Y-83082000D03*
X140970000Y-83082000D03*
%TD*%
D14*
%TO.C,R3*%
X119505000Y-76073000D03*
X120525000Y-76073000D03*
%TD*%
D15*
%TO.C,J2*%
X152893000Y-91313000D03*
D16*
X152893000Y-93853000D03*
X150353000Y-91313000D03*
X150353000Y-93853000D03*
X147813000Y-91313000D03*
X147813000Y-93853000D03*
%TD*%
D17*
%TO.C,RV2*%
X153955000Y-84795000D03*
D18*
X147955000Y-85970000D03*
D17*
X153955000Y-87145000D03*
%TD*%
D19*
%TO.C,C8*%
X113030000Y-79530000D03*
X113030000Y-80490000D03*
%TD*%
D20*
%TO.C,C7*%
X142494000Y-78900000D03*
X142494000Y-77940000D03*
%TD*%
D13*
%TO.C,TP2*%
X120650000Y-83038000D03*
X115570000Y-83038000D03*
%TD*%
D17*
%TO.C,RV1*%
X102743000Y-87186000D03*
D18*
X108743000Y-86011000D03*
D17*
X102743000Y-84836000D03*
%TD*%
D21*
%TO.C,R2*%
X135255000Y-79119000D03*
X135255000Y-80139000D03*
%TD*%
D22*
%TO.C,C4*%
X111191000Y-76327000D03*
X113091000Y-76327000D03*
%TD*%
D12*
%TO.C,C3*%
X144018000Y-82418000D03*
X144018000Y-80518000D03*
%TD*%
D23*
%TO.C,J1*%
X128772000Y-81854000D03*
D24*
X126752000Y-81854000D03*
D25*
X125522000Y-81854000D03*
D23*
X127772000Y-81854000D03*
D24*
X129792000Y-81854000D03*
D25*
X131022000Y-81854000D03*
D26*
X132592000Y-77974000D03*
X123952000Y-77974000D03*
X132592000Y-81774000D03*
X123952000Y-81774000D03*
%TD*%
D27*
%TO.C,R1*%
X135255000Y-78234000D03*
X135255000Y-77214000D03*
%TD*%
D15*
%TO.C,J3*%
X108585000Y-91313000D03*
D16*
X108585000Y-93853000D03*
X106045000Y-91313000D03*
X106045000Y-93853000D03*
X103505000Y-91313000D03*
X103505000Y-93853000D03*
%TD*%
D14*
%TO.C,R5*%
X143508000Y-83693000D03*
X144528000Y-83693000D03*
%TD*%
D28*
%TO.C,U2*%
X147472000Y-76567000D03*
X147472000Y-78867000D03*
D29*
X153772000Y-78867000D03*
D28*
X147472000Y-81167000D03*
%TD*%
D13*
%TO.C,TP1*%
X103759000Y-102638000D03*
X108839000Y-102638000D03*
%TD*%
%TO.C,TP4*%
X147701000Y-102638000D03*
X152781000Y-102638000D03*
%TD*%
D30*
%TO.C,C6*%
X111506000Y-79060000D03*
X111506000Y-80960000D03*
%TD*%
D28*
%TO.C,U1*%
X109068000Y-81167000D03*
X109068000Y-78867000D03*
D29*
X102768000Y-78867000D03*
D28*
X109068000Y-76567000D03*
%TD*%
D15*
%TO.C,J10*%
X116840000Y-78740000D03*
D16*
X119380000Y-78740000D03*
%TD*%
D15*
%TO.C,J8*%
X151765000Y-99060000D03*
D16*
X149225000Y-99060000D03*
%TD*%
D15*
%TO.C,J11*%
X139700000Y-78740000D03*
D16*
X137160000Y-78740000D03*
%TD*%
D15*
%TO.C,J9*%
X107315000Y-99060000D03*
D16*
X104775000Y-99060000D03*
%TD*%
M02*
