%TF.GenerationSoftware,KiCad,Pcbnew,(7.0.0-0)*%
%TF.CreationDate,2023-02-24T20:53:14-07:00*%
%TF.ProjectId,Breadboard Power Supply,42726561-6462-46f6-9172-6420506f7765,v2*%
%TF.SameCoordinates,Original*%
%TF.FileFunction,Copper,L1,Top*%
%TF.FilePolarity,Positive*%
%FSLAX46Y46*%
G04 Gerber Fmt 4.6, Leading zero omitted, Abs format (unit mm)*
G04 Created by KiCad (PCBNEW (7.0.0-0)) date 2023-02-24 20:53:14*
%MOMM*%
%LPD*%
G01*
G04 APERTURE LIST*
G04 Aperture macros list*
%AMRoundRect*
0 Rectangle with rounded corners*
0 $1 Rounding radius*
0 $2 $3 $4 $5 $6 $7 $8 $9 X,Y pos of 4 corners*
0 Add a 4 corners polygon primitive as box body*
4,1,4,$2,$3,$4,$5,$6,$7,$8,$9,$2,$3,0*
0 Add four circle primitives for the rounded corners*
1,1,$1+$1,$2,$3*
1,1,$1+$1,$4,$5*
1,1,$1+$1,$6,$7*
1,1,$1+$1,$8,$9*
0 Add four rect primitives between the rounded corners*
20,1,$1+$1,$2,$3,$4,$5,0*
20,1,$1+$1,$4,$5,$6,$7,0*
20,1,$1+$1,$6,$7,$8,$9,0*
20,1,$1+$1,$8,$9,$2,$3,0*%
G04 Aperture macros list end*
%TA.AperFunction,ComponentPad*%
%ADD10R,1.700000X1.700000*%
%TD*%
%TA.AperFunction,ComponentPad*%
%ADD11O,1.700000X1.700000*%
%TD*%
%TA.AperFunction,SMDPad,CuDef*%
%ADD12R,0.700000X1.200000*%
%TD*%
%TA.AperFunction,SMDPad,CuDef*%
%ADD13R,0.760000X1.200000*%
%TD*%
%TA.AperFunction,SMDPad,CuDef*%
%ADD14R,0.800000X1.200000*%
%TD*%
%TA.AperFunction,ComponentPad*%
%ADD15C,2.010000*%
%TD*%
%TA.AperFunction,SMDPad,CuDef*%
%ADD16RoundRect,0.250000X0.650000X-0.325000X0.650000X0.325000X-0.650000X0.325000X-0.650000X-0.325000X0*%
%TD*%
%TA.AperFunction,ComponentPad*%
%ADD17C,1.980000*%
%TD*%
%TA.AperFunction,SMDPad,CuDef*%
%ADD18RoundRect,0.200000X-0.275000X0.200000X-0.275000X-0.200000X0.275000X-0.200000X0.275000X0.200000X0*%
%TD*%
%TA.AperFunction,SMDPad,CuDef*%
%ADD19RoundRect,0.225000X0.250000X-0.225000X0.250000X0.225000X-0.250000X0.225000X-0.250000X-0.225000X0*%
%TD*%
%TA.AperFunction,SMDPad,CuDef*%
%ADD20RoundRect,0.225000X-0.225000X-0.250000X0.225000X-0.250000X0.225000X0.250000X-0.225000X0.250000X0*%
%TD*%
%TA.AperFunction,SMDPad,CuDef*%
%ADD21RoundRect,0.200000X0.275000X-0.200000X0.275000X0.200000X-0.275000X0.200000X-0.275000X-0.200000X0*%
%TD*%
%TA.AperFunction,SMDPad,CuDef*%
%ADD22RoundRect,0.250000X0.325000X0.650000X-0.325000X0.650000X-0.325000X-0.650000X0.325000X-0.650000X0*%
%TD*%
%TA.AperFunction,SMDPad,CuDef*%
%ADD23RoundRect,0.250000X0.625000X-0.375000X0.625000X0.375000X-0.625000X0.375000X-0.625000X-0.375000X0*%
%TD*%
%TA.AperFunction,SMDPad,CuDef*%
%ADD24RoundRect,0.225000X0.225000X0.250000X-0.225000X0.250000X-0.225000X-0.250000X0.225000X-0.250000X0*%
%TD*%
%TA.AperFunction,SMDPad,CuDef*%
%ADD25R,2.000000X1.500000*%
%TD*%
%TA.AperFunction,SMDPad,CuDef*%
%ADD26R,2.000000X3.800000*%
%TD*%
%TA.AperFunction,SMDPad,CuDef*%
%ADD27RoundRect,0.250000X-0.325000X-0.650000X0.325000X-0.650000X0.325000X0.650000X-0.325000X0.650000X0*%
%TD*%
%TA.AperFunction,ViaPad*%
%ADD28C,0.800000*%
%TD*%
%TA.AperFunction,Conductor*%
%ADD29C,0.250000*%
%TD*%
%TA.AperFunction,Conductor*%
%ADD30C,0.750000*%
%TD*%
G04 APERTURE END LIST*
D10*
%TO.P,J3,1,Pin_1*%
%TO.N,+3.3V*%
X149097999Y-87497999D03*
D11*
%TO.P,J3,2,Pin_2*%
%TO.N,/TOP_POWER_RAIL*%
X149097999Y-90037999D03*
%TD*%
D12*
%TO.P,J1,A5,CC1*%
%TO.N,Net-(J1-CC1)*%
X128769999Y-82785999D03*
D13*
%TO.P,J1,A9,VBUS_1*%
%TO.N,+5V*%
X126749999Y-82785999D03*
D14*
%TO.P,J1,A12,GND_1*%
%TO.N,GND*%
X125519999Y-82785999D03*
D12*
%TO.P,J1,B5,CC2*%
%TO.N,Net-(J1-CC2)*%
X127769999Y-82785999D03*
D13*
%TO.P,J1,B9,VBUS_2*%
%TO.N,+5V*%
X129789999Y-82785999D03*
D14*
%TO.P,J1,B12,GND_2*%
%TO.N,GND*%
X131019999Y-82785999D03*
D15*
%TO.P,J1,MH1,MH1*%
X132590000Y-78906000D03*
%TO.P,J1,MH2,MH2*%
X123950000Y-78906000D03*
%TO.P,J1,MH3,MH3*%
X132590000Y-82706000D03*
%TO.P,J1,MH4,MH4*%
X123950000Y-82706000D03*
%TD*%
D16*
%TO.P,C5,1*%
%TO.N,+3.3V*%
X144526000Y-80088000D03*
%TO.P,C5,2*%
%TO.N,GND*%
X144526000Y-77138000D03*
%TD*%
D17*
%TO.P,TP3,1,1*%
%TO.N,GND*%
X133350000Y-90678000D03*
%TO.P,TP3,2,2*%
X138430000Y-90678000D03*
%TD*%
%TO.P,TP4,1,1*%
%TO.N,GND*%
X147955000Y-97028000D03*
%TO.P,TP4,2,2*%
X153035000Y-97028000D03*
%TD*%
D18*
%TO.P,R3,1*%
%TO.N,Net-(D1-K)*%
X121158000Y-81471000D03*
%TO.P,R3,2*%
%TO.N,GND*%
X121158000Y-83121000D03*
%TD*%
D19*
%TO.P,C8,1*%
%TO.N,+1V8*%
X111379000Y-81674000D03*
%TO.P,C8,2*%
%TO.N,GND*%
X111379000Y-80124000D03*
%TD*%
D20*
%TO.P,C7,1*%
%TO.N,+3.3V*%
X146418000Y-77470000D03*
%TO.P,C7,2*%
%TO.N,GND*%
X147968000Y-77470000D03*
%TD*%
D17*
%TO.P,TP2,1,1*%
%TO.N,GND*%
X123190000Y-90678000D03*
%TO.P,TP2,2,2*%
X118110000Y-90678000D03*
%TD*%
D10*
%TO.P,J4,1,Pin_1*%
%TO.N,+1V8*%
X145287999Y-87502999D03*
D11*
%TO.P,J4,2,Pin_2*%
%TO.N,/TOP_POWER_RAIL*%
X145287999Y-90042999D03*
%TD*%
D17*
%TO.P,TP1,1,1*%
%TO.N,GND*%
X103505000Y-97028000D03*
%TO.P,TP1,2,2*%
X108585000Y-97028000D03*
%TD*%
D21*
%TO.P,R2,1*%
%TO.N,Net-(J1-CC1)*%
X135382000Y-82867000D03*
%TO.P,R2,2*%
%TO.N,GND*%
X135382000Y-81217000D03*
%TD*%
D19*
%TO.P,C2,1*%
%TO.N,+5V*%
X111379000Y-78613000D03*
%TO.P,C2,2*%
%TO.N,GND*%
X111379000Y-77063000D03*
%TD*%
D22*
%TO.P,C4,1*%
%TO.N,+5V*%
X109552000Y-77216000D03*
%TO.P,C4,2*%
%TO.N,GND*%
X106602000Y-77216000D03*
%TD*%
D10*
%TO.P,J7,1,Pin_1*%
%TO.N,+1V8*%
X103631999Y-87502999D03*
D11*
%TO.P,J7,2,Pin_2*%
%TO.N,/BOTTOM_POWER_RAIL*%
X103631999Y-90042999D03*
%TD*%
D22*
%TO.P,C3,1*%
%TO.N,+5V*%
X145112000Y-84455000D03*
%TO.P,C3,2*%
%TO.N,GND*%
X142162000Y-84455000D03*
%TD*%
D23*
%TO.P,D1,1,K*%
%TO.N,Net-(D1-K)*%
X120777000Y-79886000D03*
%TO.P,D1,2,A*%
%TO.N,+5V*%
X120777000Y-77086000D03*
%TD*%
D10*
%TO.P,J6,1,Pin_1*%
%TO.N,+3.3V*%
X107441999Y-87502999D03*
D11*
%TO.P,J6,2,Pin_2*%
%TO.N,/BOTTOM_POWER_RAIL*%
X107441999Y-90042999D03*
%TD*%
D24*
%TO.P,C1,1*%
%TO.N,+5V*%
X145174000Y-82423000D03*
%TO.P,C1,2*%
%TO.N,GND*%
X143624000Y-82423000D03*
%TD*%
D21*
%TO.P,R1,1*%
%TO.N,Net-(J1-CC2)*%
X135382000Y-79819000D03*
%TO.P,R1,2*%
%TO.N,GND*%
X135382000Y-78169000D03*
%TD*%
D10*
%TO.P,J2,1,Pin_1*%
%TO.N,+5V*%
X152907999Y-87497999D03*
D11*
%TO.P,J2,2,Pin_2*%
%TO.N,/TOP_POWER_RAIL*%
X152907999Y-90037999D03*
%TD*%
D25*
%TO.P,U2,1,GND*%
%TO.N,GND*%
X147217999Y-79741999D03*
D26*
%TO.P,U2,2,VO*%
%TO.N,+3.3V*%
X153517999Y-82041999D03*
D25*
X147217999Y-82041999D03*
%TO.P,U2,3,VI*%
%TO.N,+5V*%
X147217999Y-84341999D03*
%TD*%
D10*
%TO.P,J5,1,Pin_1*%
%TO.N,+5V*%
X111251999Y-87502999D03*
D11*
%TO.P,J5,2,Pin_2*%
%TO.N,/BOTTOM_POWER_RAIL*%
X111251999Y-90042999D03*
%TD*%
D25*
%TO.P,U1,1,GND*%
%TO.N,GND*%
X109321999Y-84341999D03*
D26*
%TO.P,U1,2,VO*%
%TO.N,+1V8*%
X103021999Y-82041999D03*
D25*
X109321999Y-82041999D03*
%TO.P,U1,3,VI*%
%TO.N,+5V*%
X109321999Y-79741999D03*
%TD*%
D27*
%TO.P,C6,1*%
%TO.N,+1V8*%
X111428000Y-83566000D03*
%TO.P,C6,2*%
%TO.N,GND*%
X114378000Y-83566000D03*
%TD*%
D10*
%TO.P,J10,1,Pin_1*%
%TO.N,unconnected-(J10-Pin_1-Pad1)*%
X115569999Y-78739999D03*
D11*
%TO.P,J10,2,Pin_2*%
%TO.N,unconnected-(J10-Pin_2-Pad2)*%
X118109999Y-78739999D03*
%TD*%
D10*
%TO.P,J8,1,Pin_1*%
%TO.N,/TOP_POWER_RAIL*%
X151129999Y-93979999D03*
D11*
%TO.P,J8,2,Pin_2*%
%TO.N,GND*%
X148589999Y-93979999D03*
%TD*%
D10*
%TO.P,J11,1,Pin_1*%
%TO.N,unconnected-(J11-Pin_1-Pad1)*%
X140969999Y-78739999D03*
D11*
%TO.P,J11,2,Pin_2*%
%TO.N,unconnected-(J11-Pin_2-Pad2)*%
X138429999Y-78739999D03*
%TD*%
D10*
%TO.P,J9,1,Pin_1*%
%TO.N,/BOTTOM_POWER_RAIL*%
X107949999Y-93979999D03*
D11*
%TO.P,J9,2,Pin_2*%
%TO.N,GND*%
X105409999Y-93979999D03*
%TD*%
D28*
%TO.N,GND*%
X147447000Y-78613000D03*
X112395000Y-77089000D03*
X125603000Y-81788000D03*
X121158000Y-84201000D03*
X143637000Y-84455000D03*
X130937000Y-81534000D03*
X105283000Y-78105000D03*
X112395000Y-80137000D03*
X107188000Y-84328000D03*
X114300000Y-81915000D03*
X144526000Y-78613000D03*
%TO.N,+3.3V*%
X114427000Y-86106000D03*
X142494000Y-87630000D03*
X115951000Y-87630000D03*
%TO.N,+1V8*%
X116713000Y-86614000D03*
X115316000Y-85217000D03*
%TO.N,+5V*%
X149098000Y-84328000D03*
%TD*%
D29*
%TO.N,GND*%
X135382000Y-81217000D02*
X134079000Y-81217000D01*
D30*
X114251000Y-81964000D02*
X114300000Y-81915000D01*
D29*
X134079000Y-81217000D02*
X132590000Y-82706000D01*
X132109000Y-82706000D02*
X130937000Y-81534000D01*
D30*
X112382000Y-80124000D02*
X111252000Y-80124000D01*
X109072000Y-84342000D02*
X107202000Y-84342000D01*
X106045000Y-77343000D02*
X105283000Y-78105000D01*
X143637000Y-84455000D02*
X142289000Y-84455000D01*
X112395000Y-80137000D02*
X112382000Y-80124000D01*
X144526000Y-77138000D02*
X144526000Y-78613000D01*
D29*
X131020000Y-82786000D02*
X131020000Y-81617000D01*
D30*
X147468000Y-78634000D02*
X147447000Y-78613000D01*
D29*
X131020000Y-81617000D02*
X130937000Y-81534000D01*
D30*
X111252000Y-77076000D02*
X112382000Y-77076000D01*
D29*
X121158000Y-83121000D02*
X121158000Y-84201000D01*
X125520000Y-81871000D02*
X125603000Y-81788000D01*
D30*
X106602000Y-77343000D02*
X106045000Y-77343000D01*
X112382000Y-77076000D02*
X112395000Y-77089000D01*
X107202000Y-84342000D02*
X107188000Y-84328000D01*
X147968000Y-78092000D02*
X147447000Y-78613000D01*
D29*
X125520000Y-82786000D02*
X125520000Y-81871000D01*
X134645000Y-78906000D02*
X132590000Y-78906000D01*
D30*
X143751000Y-84341000D02*
X143751000Y-82423000D01*
X147968000Y-77470000D02*
X147968000Y-78092000D01*
X147468000Y-79742000D02*
X147468000Y-78634000D01*
D29*
X135382000Y-78169000D02*
X134645000Y-78906000D01*
D30*
X114251000Y-83566000D02*
X114251000Y-81964000D01*
X143637000Y-84455000D02*
X143751000Y-84341000D01*
D29*
X132590000Y-82706000D02*
X132109000Y-82706000D01*
D30*
%TO.N,+3.3V*%
X146418000Y-77470000D02*
X146304000Y-77470000D01*
X145501000Y-78304726D02*
X145501000Y-79113000D01*
X146868000Y-82042000D02*
X147468000Y-82042000D01*
X149098000Y-87498000D02*
X149098000Y-86462000D01*
X145501000Y-79113000D02*
X144526000Y-80088000D01*
X142494000Y-87630000D02*
X115951000Y-87630000D01*
X108867000Y-86078000D02*
X107442000Y-87503000D01*
X113002000Y-86078000D02*
X108867000Y-86078000D01*
X146001000Y-77773000D02*
X146001000Y-77804726D01*
X146304000Y-77470000D02*
X146001000Y-77773000D01*
X114427000Y-86106000D02*
X113030000Y-86106000D01*
X149098000Y-86462000D02*
X153518000Y-82042000D01*
X153518000Y-82042000D02*
X147218000Y-82042000D01*
X144914000Y-80088000D02*
X146868000Y-82042000D01*
X144526000Y-80088000D02*
X144914000Y-80088000D01*
X113030000Y-86106000D02*
X113002000Y-86078000D01*
X146001000Y-77804726D02*
X145501000Y-78304726D01*
%TO.N,/TOP_POWER_RAIL*%
X145288000Y-90043000D02*
X149093000Y-90043000D01*
X149093000Y-90043000D02*
X149098000Y-90038000D01*
X151130000Y-93980000D02*
X151130000Y-91816000D01*
X149098000Y-90038000D02*
X152908000Y-90038000D01*
X151130000Y-91816000D02*
X152908000Y-90038000D01*
%TO.N,/BOTTOM_POWER_RAIL*%
X107950000Y-93980000D02*
X107950000Y-90551000D01*
X107950000Y-90551000D02*
X107442000Y-90043000D01*
X103632000Y-90043000D02*
X107442000Y-90043000D01*
X107442000Y-90043000D02*
X111252000Y-90043000D01*
D29*
%TO.N,Net-(D1-K)*%
X120777000Y-79886000D02*
X120777000Y-81090000D01*
X120777000Y-81090000D02*
X121158000Y-81471000D01*
%TO.N,Net-(J1-CC1)*%
X128770000Y-83396000D02*
X128770000Y-82786000D01*
X134213000Y-84036000D02*
X129410000Y-84036000D01*
X129410000Y-84036000D02*
X128770000Y-83396000D01*
X135382000Y-82867000D02*
X134213000Y-84036000D01*
%TO.N,Net-(J1-CC2)*%
X135382000Y-79819000D02*
X136182000Y-80619000D01*
X127770000Y-83246000D02*
X127770000Y-82786000D01*
X135097000Y-84486000D02*
X129010000Y-84486000D01*
X136182000Y-80619000D02*
X136182000Y-83401000D01*
X129010000Y-84486000D02*
X127770000Y-83246000D01*
X136182000Y-83401000D02*
X135097000Y-84486000D01*
D30*
%TO.N,+1V8*%
X116713000Y-86614000D02*
X144399000Y-86614000D01*
X115230000Y-85131000D02*
X113325000Y-85131000D01*
X111252000Y-81674000D02*
X109440000Y-81674000D01*
X144399000Y-86614000D02*
X145288000Y-87503000D01*
X103632000Y-82652000D02*
X103022000Y-82042000D01*
X111252000Y-81674000D02*
X111252000Y-83517000D01*
X111760000Y-83566000D02*
X111428000Y-83566000D01*
X115316000Y-85217000D02*
X115230000Y-85131000D01*
X109440000Y-81674000D02*
X109072000Y-82042000D01*
X103022000Y-82042000D02*
X109322000Y-82042000D01*
X113325000Y-85131000D02*
X111760000Y-83566000D01*
X111252000Y-83517000D02*
X111301000Y-83566000D01*
X103632000Y-87503000D02*
X103632000Y-82652000D01*
%TO.N,+5V*%
X126750000Y-82786000D02*
X126750000Y-81661000D01*
X129790000Y-82786000D02*
X129790000Y-81706000D01*
X137182859Y-85557000D02*
X126746000Y-85557000D01*
X110822000Y-78613000D02*
X109552000Y-77343000D01*
X116354859Y-82591000D02*
X116354859Y-85217000D01*
X145301000Y-84393000D02*
X145239000Y-84455000D01*
X111379000Y-78613000D02*
X110822000Y-78613000D01*
X126750000Y-79125000D02*
X124711000Y-77086000D01*
X111392000Y-78626000D02*
X111379000Y-78613000D01*
X129790000Y-81706000D02*
X129695000Y-81611000D01*
X144087371Y-81280000D02*
X141459859Y-81280000D01*
X126800000Y-81611000D02*
X126750000Y-81661000D01*
X126750000Y-81661000D02*
X126750000Y-79125000D01*
X111252000Y-87503000D02*
X114408859Y-87503000D01*
X110451000Y-78613000D02*
X111379000Y-78613000D01*
X145239000Y-84455000D02*
X147355000Y-84455000D01*
X114408859Y-87503000D02*
X116354859Y-85557000D01*
X126750000Y-82786000D02*
X126750000Y-85553000D01*
X126746000Y-85557000D02*
X116354859Y-85557000D01*
X145174000Y-82423000D02*
X145174000Y-82366629D01*
X149098000Y-84328000D02*
X147232000Y-84328000D01*
X129695000Y-81611000D02*
X126800000Y-81611000D01*
X112389859Y-78626000D02*
X116354859Y-82591000D01*
X126750000Y-85553000D02*
X126746000Y-85557000D01*
X141459859Y-81280000D02*
X137182859Y-85557000D01*
X145174000Y-82366629D02*
X144087371Y-81280000D01*
X109322000Y-79742000D02*
X110451000Y-78613000D01*
X124711000Y-77086000D02*
X120777000Y-77086000D01*
X112389859Y-78626000D02*
X111392000Y-78626000D01*
X145301000Y-82423000D02*
X145301000Y-84393000D01*
%TD*%
M02*
