%TF.GenerationSoftware,KiCad,Pcbnew,(7.0.0-0)*%
%TF.CreationDate,2023-05-25T14:02:10-06:00*%
%TF.ProjectId,Breadboard Power Supply,42726561-6462-46f6-9172-6420506f7765,v7*%
%TF.SameCoordinates,Original*%
%TF.FileFunction,Legend,Top*%
%TF.FilePolarity,Positive*%
%FSLAX46Y46*%
G04 Gerber Fmt 4.6, Leading zero omitted, Abs format (unit mm)*
G04 Created by KiCad (PCBNEW (7.0.0-0)) date 2023-05-25 14:02:10*
%MOMM*%
%LPD*%
G01*
G04 APERTURE LIST*
%ADD10C,0.150000*%
%ADD11C,0.100000*%
%ADD12C,0.120000*%
%ADD13C,0.127000*%
%ADD14C,0.200000*%
G04 APERTURE END LIST*
D10*
X152325380Y-89868238D02*
X152325380Y-90344428D01*
X152325380Y-90344428D02*
X152801571Y-90392047D01*
X152801571Y-90392047D02*
X152753952Y-90344428D01*
X152753952Y-90344428D02*
X152706333Y-90249190D01*
X152706333Y-90249190D02*
X152706333Y-90011095D01*
X152706333Y-90011095D02*
X152753952Y-89915857D01*
X152753952Y-89915857D02*
X152801571Y-89868238D01*
X152801571Y-89868238D02*
X152896809Y-89820619D01*
X152896809Y-89820619D02*
X153134904Y-89820619D01*
X153134904Y-89820619D02*
X153230142Y-89868238D01*
X153230142Y-89868238D02*
X153277761Y-89915857D01*
X153277761Y-89915857D02*
X153325380Y-90011095D01*
X153325380Y-90011095D02*
X153325380Y-90249190D01*
X153325380Y-90249190D02*
X153277761Y-90344428D01*
X153277761Y-90344428D02*
X153230142Y-90392047D01*
X152325380Y-89534904D02*
X153325380Y-89201571D01*
X153325380Y-89201571D02*
X152325380Y-88868238D01*
X105843380Y-91868237D02*
X105843380Y-91249190D01*
X105843380Y-91249190D02*
X106224333Y-91582523D01*
X106224333Y-91582523D02*
X106224333Y-91439666D01*
X106224333Y-91439666D02*
X106271952Y-91344428D01*
X106271952Y-91344428D02*
X106319571Y-91296809D01*
X106319571Y-91296809D02*
X106414809Y-91249190D01*
X106414809Y-91249190D02*
X106652904Y-91249190D01*
X106652904Y-91249190D02*
X106748142Y-91296809D01*
X106748142Y-91296809D02*
X106795761Y-91344428D01*
X106795761Y-91344428D02*
X106843380Y-91439666D01*
X106843380Y-91439666D02*
X106843380Y-91725380D01*
X106843380Y-91725380D02*
X106795761Y-91820618D01*
X106795761Y-91820618D02*
X106748142Y-91868237D01*
X106748142Y-90820618D02*
X106795761Y-90772999D01*
X106795761Y-90772999D02*
X106843380Y-90820618D01*
X106843380Y-90820618D02*
X106795761Y-90868237D01*
X106795761Y-90868237D02*
X106748142Y-90820618D01*
X106748142Y-90820618D02*
X106843380Y-90820618D01*
X105843380Y-90439666D02*
X105843380Y-89820619D01*
X105843380Y-89820619D02*
X106224333Y-90153952D01*
X106224333Y-90153952D02*
X106224333Y-90011095D01*
X106224333Y-90011095D02*
X106271952Y-89915857D01*
X106271952Y-89915857D02*
X106319571Y-89868238D01*
X106319571Y-89868238D02*
X106414809Y-89820619D01*
X106414809Y-89820619D02*
X106652904Y-89820619D01*
X106652904Y-89820619D02*
X106748142Y-89868238D01*
X106748142Y-89868238D02*
X106795761Y-89915857D01*
X106795761Y-89915857D02*
X106843380Y-90011095D01*
X106843380Y-90011095D02*
X106843380Y-90296809D01*
X106843380Y-90296809D02*
X106795761Y-90392047D01*
X106795761Y-90392047D02*
X106748142Y-90439666D01*
X105843380Y-89534904D02*
X106843380Y-89201571D01*
X106843380Y-89201571D02*
X105843380Y-88868238D01*
X104303380Y-91249190D02*
X104303380Y-91820618D01*
X104303380Y-91534904D02*
X103303380Y-91534904D01*
X103303380Y-91534904D02*
X103446238Y-91630142D01*
X103446238Y-91630142D02*
X103541476Y-91725380D01*
X103541476Y-91725380D02*
X103589095Y-91820618D01*
X104208142Y-90820618D02*
X104255761Y-90772999D01*
X104255761Y-90772999D02*
X104303380Y-90820618D01*
X104303380Y-90820618D02*
X104255761Y-90868237D01*
X104255761Y-90868237D02*
X104208142Y-90820618D01*
X104208142Y-90820618D02*
X104303380Y-90820618D01*
X103731952Y-90201571D02*
X103684333Y-90296809D01*
X103684333Y-90296809D02*
X103636714Y-90344428D01*
X103636714Y-90344428D02*
X103541476Y-90392047D01*
X103541476Y-90392047D02*
X103493857Y-90392047D01*
X103493857Y-90392047D02*
X103398619Y-90344428D01*
X103398619Y-90344428D02*
X103351000Y-90296809D01*
X103351000Y-90296809D02*
X103303380Y-90201571D01*
X103303380Y-90201571D02*
X103303380Y-90011095D01*
X103303380Y-90011095D02*
X103351000Y-89915857D01*
X103351000Y-89915857D02*
X103398619Y-89868238D01*
X103398619Y-89868238D02*
X103493857Y-89820619D01*
X103493857Y-89820619D02*
X103541476Y-89820619D01*
X103541476Y-89820619D02*
X103636714Y-89868238D01*
X103636714Y-89868238D02*
X103684333Y-89915857D01*
X103684333Y-89915857D02*
X103731952Y-90011095D01*
X103731952Y-90011095D02*
X103731952Y-90201571D01*
X103731952Y-90201571D02*
X103779571Y-90296809D01*
X103779571Y-90296809D02*
X103827190Y-90344428D01*
X103827190Y-90344428D02*
X103922428Y-90392047D01*
X103922428Y-90392047D02*
X104112904Y-90392047D01*
X104112904Y-90392047D02*
X104208142Y-90344428D01*
X104208142Y-90344428D02*
X104255761Y-90296809D01*
X104255761Y-90296809D02*
X104303380Y-90201571D01*
X104303380Y-90201571D02*
X104303380Y-90011095D01*
X104303380Y-90011095D02*
X104255761Y-89915857D01*
X104255761Y-89915857D02*
X104208142Y-89868238D01*
X104208142Y-89868238D02*
X104112904Y-89820619D01*
X104112904Y-89820619D02*
X103922428Y-89820619D01*
X103922428Y-89820619D02*
X103827190Y-89868238D01*
X103827190Y-89868238D02*
X103779571Y-89915857D01*
X103779571Y-89915857D02*
X103731952Y-90011095D01*
X103303380Y-89534904D02*
X104303380Y-89201571D01*
X104303380Y-89201571D02*
X103303380Y-88868238D01*
X149785380Y-91868237D02*
X149785380Y-91249190D01*
X149785380Y-91249190D02*
X150166333Y-91582523D01*
X150166333Y-91582523D02*
X150166333Y-91439666D01*
X150166333Y-91439666D02*
X150213952Y-91344428D01*
X150213952Y-91344428D02*
X150261571Y-91296809D01*
X150261571Y-91296809D02*
X150356809Y-91249190D01*
X150356809Y-91249190D02*
X150594904Y-91249190D01*
X150594904Y-91249190D02*
X150690142Y-91296809D01*
X150690142Y-91296809D02*
X150737761Y-91344428D01*
X150737761Y-91344428D02*
X150785380Y-91439666D01*
X150785380Y-91439666D02*
X150785380Y-91725380D01*
X150785380Y-91725380D02*
X150737761Y-91820618D01*
X150737761Y-91820618D02*
X150690142Y-91868237D01*
X150690142Y-90820618D02*
X150737761Y-90772999D01*
X150737761Y-90772999D02*
X150785380Y-90820618D01*
X150785380Y-90820618D02*
X150737761Y-90868237D01*
X150737761Y-90868237D02*
X150690142Y-90820618D01*
X150690142Y-90820618D02*
X150785380Y-90820618D01*
X149785380Y-90439666D02*
X149785380Y-89820619D01*
X149785380Y-89820619D02*
X150166333Y-90153952D01*
X150166333Y-90153952D02*
X150166333Y-90011095D01*
X150166333Y-90011095D02*
X150213952Y-89915857D01*
X150213952Y-89915857D02*
X150261571Y-89868238D01*
X150261571Y-89868238D02*
X150356809Y-89820619D01*
X150356809Y-89820619D02*
X150594904Y-89820619D01*
X150594904Y-89820619D02*
X150690142Y-89868238D01*
X150690142Y-89868238D02*
X150737761Y-89915857D01*
X150737761Y-89915857D02*
X150785380Y-90011095D01*
X150785380Y-90011095D02*
X150785380Y-90296809D01*
X150785380Y-90296809D02*
X150737761Y-90392047D01*
X150737761Y-90392047D02*
X150690142Y-90439666D01*
X149785380Y-89534904D02*
X150785380Y-89201571D01*
X150785380Y-89201571D02*
X149785380Y-88868238D01*
X148245380Y-91249190D02*
X148245380Y-91820618D01*
X148245380Y-91534904D02*
X147245380Y-91534904D01*
X147245380Y-91534904D02*
X147388238Y-91630142D01*
X147388238Y-91630142D02*
X147483476Y-91725380D01*
X147483476Y-91725380D02*
X147531095Y-91820618D01*
X148150142Y-90820618D02*
X148197761Y-90772999D01*
X148197761Y-90772999D02*
X148245380Y-90820618D01*
X148245380Y-90820618D02*
X148197761Y-90868237D01*
X148197761Y-90868237D02*
X148150142Y-90820618D01*
X148150142Y-90820618D02*
X148245380Y-90820618D01*
X147673952Y-90201571D02*
X147626333Y-90296809D01*
X147626333Y-90296809D02*
X147578714Y-90344428D01*
X147578714Y-90344428D02*
X147483476Y-90392047D01*
X147483476Y-90392047D02*
X147435857Y-90392047D01*
X147435857Y-90392047D02*
X147340619Y-90344428D01*
X147340619Y-90344428D02*
X147293000Y-90296809D01*
X147293000Y-90296809D02*
X147245380Y-90201571D01*
X147245380Y-90201571D02*
X147245380Y-90011095D01*
X147245380Y-90011095D02*
X147293000Y-89915857D01*
X147293000Y-89915857D02*
X147340619Y-89868238D01*
X147340619Y-89868238D02*
X147435857Y-89820619D01*
X147435857Y-89820619D02*
X147483476Y-89820619D01*
X147483476Y-89820619D02*
X147578714Y-89868238D01*
X147578714Y-89868238D02*
X147626333Y-89915857D01*
X147626333Y-89915857D02*
X147673952Y-90011095D01*
X147673952Y-90011095D02*
X147673952Y-90201571D01*
X147673952Y-90201571D02*
X147721571Y-90296809D01*
X147721571Y-90296809D02*
X147769190Y-90344428D01*
X147769190Y-90344428D02*
X147864428Y-90392047D01*
X147864428Y-90392047D02*
X148054904Y-90392047D01*
X148054904Y-90392047D02*
X148150142Y-90344428D01*
X148150142Y-90344428D02*
X148197761Y-90296809D01*
X148197761Y-90296809D02*
X148245380Y-90201571D01*
X148245380Y-90201571D02*
X148245380Y-90011095D01*
X148245380Y-90011095D02*
X148197761Y-89915857D01*
X148197761Y-89915857D02*
X148150142Y-89868238D01*
X148150142Y-89868238D02*
X148054904Y-89820619D01*
X148054904Y-89820619D02*
X147864428Y-89820619D01*
X147864428Y-89820619D02*
X147769190Y-89868238D01*
X147769190Y-89868238D02*
X147721571Y-89915857D01*
X147721571Y-89915857D02*
X147673952Y-90011095D01*
X147245380Y-89534904D02*
X148245380Y-89201571D01*
X148245380Y-89201571D02*
X147245380Y-88868238D01*
X108383380Y-89868238D02*
X108383380Y-90344428D01*
X108383380Y-90344428D02*
X108859571Y-90392047D01*
X108859571Y-90392047D02*
X108811952Y-90344428D01*
X108811952Y-90344428D02*
X108764333Y-90249190D01*
X108764333Y-90249190D02*
X108764333Y-90011095D01*
X108764333Y-90011095D02*
X108811952Y-89915857D01*
X108811952Y-89915857D02*
X108859571Y-89868238D01*
X108859571Y-89868238D02*
X108954809Y-89820619D01*
X108954809Y-89820619D02*
X109192904Y-89820619D01*
X109192904Y-89820619D02*
X109288142Y-89868238D01*
X109288142Y-89868238D02*
X109335761Y-89915857D01*
X109335761Y-89915857D02*
X109383380Y-90011095D01*
X109383380Y-90011095D02*
X109383380Y-90249190D01*
X109383380Y-90249190D02*
X109335761Y-90344428D01*
X109335761Y-90344428D02*
X109288142Y-90392047D01*
X108383380Y-89534904D02*
X109383380Y-89201571D01*
X109383380Y-89201571D02*
X108383380Y-88868238D01*
D11*
%TO.C,D3*%
X114579571Y-76493904D02*
X114579571Y-75693904D01*
X114579571Y-75693904D02*
X114770047Y-75693904D01*
X114770047Y-75693904D02*
X114884333Y-75732000D01*
X114884333Y-75732000D02*
X114960523Y-75808190D01*
X114960523Y-75808190D02*
X114998618Y-75884380D01*
X114998618Y-75884380D02*
X115036714Y-76036761D01*
X115036714Y-76036761D02*
X115036714Y-76151047D01*
X115036714Y-76151047D02*
X114998618Y-76303428D01*
X114998618Y-76303428D02*
X114960523Y-76379619D01*
X114960523Y-76379619D02*
X114884333Y-76455809D01*
X114884333Y-76455809D02*
X114770047Y-76493904D01*
X114770047Y-76493904D02*
X114579571Y-76493904D01*
X115303380Y-75693904D02*
X115798618Y-75693904D01*
X115798618Y-75693904D02*
X115531952Y-75998666D01*
X115531952Y-75998666D02*
X115646237Y-75998666D01*
X115646237Y-75998666D02*
X115722428Y-76036761D01*
X115722428Y-76036761D02*
X115760523Y-76074857D01*
X115760523Y-76074857D02*
X115798618Y-76151047D01*
X115798618Y-76151047D02*
X115798618Y-76341523D01*
X115798618Y-76341523D02*
X115760523Y-76417714D01*
X115760523Y-76417714D02*
X115722428Y-76455809D01*
X115722428Y-76455809D02*
X115646237Y-76493904D01*
X115646237Y-76493904D02*
X115417666Y-76493904D01*
X115417666Y-76493904D02*
X115341475Y-76455809D01*
X115341475Y-76455809D02*
X115303380Y-76417714D01*
%TO.C,C5*%
X144773667Y-76137714D02*
X144735571Y-76175809D01*
X144735571Y-76175809D02*
X144621286Y-76213904D01*
X144621286Y-76213904D02*
X144545095Y-76213904D01*
X144545095Y-76213904D02*
X144430809Y-76175809D01*
X144430809Y-76175809D02*
X144354619Y-76099619D01*
X144354619Y-76099619D02*
X144316524Y-76023428D01*
X144316524Y-76023428D02*
X144278428Y-75871047D01*
X144278428Y-75871047D02*
X144278428Y-75756761D01*
X144278428Y-75756761D02*
X144316524Y-75604380D01*
X144316524Y-75604380D02*
X144354619Y-75528190D01*
X144354619Y-75528190D02*
X144430809Y-75452000D01*
X144430809Y-75452000D02*
X144545095Y-75413904D01*
X144545095Y-75413904D02*
X144621286Y-75413904D01*
X144621286Y-75413904D02*
X144735571Y-75452000D01*
X144735571Y-75452000D02*
X144773667Y-75490095D01*
X145497476Y-75413904D02*
X145116524Y-75413904D01*
X145116524Y-75413904D02*
X145078428Y-75794857D01*
X145078428Y-75794857D02*
X145116524Y-75756761D01*
X145116524Y-75756761D02*
X145192714Y-75718666D01*
X145192714Y-75718666D02*
X145383190Y-75718666D01*
X145383190Y-75718666D02*
X145459381Y-75756761D01*
X145459381Y-75756761D02*
X145497476Y-75794857D01*
X145497476Y-75794857D02*
X145535571Y-75871047D01*
X145535571Y-75871047D02*
X145535571Y-76061523D01*
X145535571Y-76061523D02*
X145497476Y-76137714D01*
X145497476Y-76137714D02*
X145459381Y-76175809D01*
X145459381Y-76175809D02*
X145383190Y-76213904D01*
X145383190Y-76213904D02*
X145192714Y-76213904D01*
X145192714Y-76213904D02*
X145116524Y-76175809D01*
X145116524Y-76175809D02*
X145078428Y-76137714D01*
%TO.C,R3*%
X121678619Y-76493904D02*
X121411952Y-76112952D01*
X121221476Y-76493904D02*
X121221476Y-75693904D01*
X121221476Y-75693904D02*
X121526238Y-75693904D01*
X121526238Y-75693904D02*
X121602428Y-75732000D01*
X121602428Y-75732000D02*
X121640523Y-75770095D01*
X121640523Y-75770095D02*
X121678619Y-75846285D01*
X121678619Y-75846285D02*
X121678619Y-75960571D01*
X121678619Y-75960571D02*
X121640523Y-76036761D01*
X121640523Y-76036761D02*
X121602428Y-76074857D01*
X121602428Y-76074857D02*
X121526238Y-76112952D01*
X121526238Y-76112952D02*
X121221476Y-76112952D01*
X121945285Y-75693904D02*
X122440523Y-75693904D01*
X122440523Y-75693904D02*
X122173857Y-75998666D01*
X122173857Y-75998666D02*
X122288142Y-75998666D01*
X122288142Y-75998666D02*
X122364333Y-76036761D01*
X122364333Y-76036761D02*
X122402428Y-76074857D01*
X122402428Y-76074857D02*
X122440523Y-76151047D01*
X122440523Y-76151047D02*
X122440523Y-76341523D01*
X122440523Y-76341523D02*
X122402428Y-76417714D01*
X122402428Y-76417714D02*
X122364333Y-76455809D01*
X122364333Y-76455809D02*
X122288142Y-76493904D01*
X122288142Y-76493904D02*
X122059571Y-76493904D01*
X122059571Y-76493904D02*
X121983380Y-76455809D01*
X121983380Y-76455809D02*
X121945285Y-76417714D01*
%TO.C,J2*%
X153185047Y-81789904D02*
X153185047Y-82361333D01*
X153185047Y-82361333D02*
X153146952Y-82475619D01*
X153146952Y-82475619D02*
X153070761Y-82551809D01*
X153070761Y-82551809D02*
X152956476Y-82589904D01*
X152956476Y-82589904D02*
X152880285Y-82589904D01*
X153527904Y-81866095D02*
X153566000Y-81828000D01*
X153566000Y-81828000D02*
X153642190Y-81789904D01*
X153642190Y-81789904D02*
X153832666Y-81789904D01*
X153832666Y-81789904D02*
X153908857Y-81828000D01*
X153908857Y-81828000D02*
X153946952Y-81866095D01*
X153946952Y-81866095D02*
X153985047Y-81942285D01*
X153985047Y-81942285D02*
X153985047Y-82018476D01*
X153985047Y-82018476D02*
X153946952Y-82132761D01*
X153946952Y-82132761D02*
X153489809Y-82589904D01*
X153489809Y-82589904D02*
X153985047Y-82589904D01*
%TO.C,C8*%
X114274714Y-81243714D02*
X114236618Y-81281809D01*
X114236618Y-81281809D02*
X114122333Y-81319904D01*
X114122333Y-81319904D02*
X114046142Y-81319904D01*
X114046142Y-81319904D02*
X113931856Y-81281809D01*
X113931856Y-81281809D02*
X113855666Y-81205619D01*
X113855666Y-81205619D02*
X113817571Y-81129428D01*
X113817571Y-81129428D02*
X113779475Y-80977047D01*
X113779475Y-80977047D02*
X113779475Y-80862761D01*
X113779475Y-80862761D02*
X113817571Y-80710380D01*
X113817571Y-80710380D02*
X113855666Y-80634190D01*
X113855666Y-80634190D02*
X113931856Y-80558000D01*
X113931856Y-80558000D02*
X114046142Y-80519904D01*
X114046142Y-80519904D02*
X114122333Y-80519904D01*
X114122333Y-80519904D02*
X114236618Y-80558000D01*
X114236618Y-80558000D02*
X114274714Y-80596095D01*
X114731856Y-80862761D02*
X114655666Y-80824666D01*
X114655666Y-80824666D02*
X114617571Y-80786571D01*
X114617571Y-80786571D02*
X114579475Y-80710380D01*
X114579475Y-80710380D02*
X114579475Y-80672285D01*
X114579475Y-80672285D02*
X114617571Y-80596095D01*
X114617571Y-80596095D02*
X114655666Y-80558000D01*
X114655666Y-80558000D02*
X114731856Y-80519904D01*
X114731856Y-80519904D02*
X114884237Y-80519904D01*
X114884237Y-80519904D02*
X114960428Y-80558000D01*
X114960428Y-80558000D02*
X114998523Y-80596095D01*
X114998523Y-80596095D02*
X115036618Y-80672285D01*
X115036618Y-80672285D02*
X115036618Y-80710380D01*
X115036618Y-80710380D02*
X114998523Y-80786571D01*
X114998523Y-80786571D02*
X114960428Y-80824666D01*
X114960428Y-80824666D02*
X114884237Y-80862761D01*
X114884237Y-80862761D02*
X114731856Y-80862761D01*
X114731856Y-80862761D02*
X114655666Y-80900857D01*
X114655666Y-80900857D02*
X114617571Y-80938952D01*
X114617571Y-80938952D02*
X114579475Y-81015142D01*
X114579475Y-81015142D02*
X114579475Y-81167523D01*
X114579475Y-81167523D02*
X114617571Y-81243714D01*
X114617571Y-81243714D02*
X114655666Y-81281809D01*
X114655666Y-81281809D02*
X114731856Y-81319904D01*
X114731856Y-81319904D02*
X114884237Y-81319904D01*
X114884237Y-81319904D02*
X114960428Y-81281809D01*
X114960428Y-81281809D02*
X114998523Y-81243714D01*
X114998523Y-81243714D02*
X115036618Y-81167523D01*
X115036618Y-81167523D02*
X115036618Y-81015142D01*
X115036618Y-81015142D02*
X114998523Y-80938952D01*
X114998523Y-80938952D02*
X114960428Y-80900857D01*
X114960428Y-80900857D02*
X114884237Y-80862761D01*
%TO.C,C7*%
X141960714Y-78637714D02*
X141922618Y-78675809D01*
X141922618Y-78675809D02*
X141808333Y-78713904D01*
X141808333Y-78713904D02*
X141732142Y-78713904D01*
X141732142Y-78713904D02*
X141617856Y-78675809D01*
X141617856Y-78675809D02*
X141541666Y-78599619D01*
X141541666Y-78599619D02*
X141503571Y-78523428D01*
X141503571Y-78523428D02*
X141465475Y-78371047D01*
X141465475Y-78371047D02*
X141465475Y-78256761D01*
X141465475Y-78256761D02*
X141503571Y-78104380D01*
X141503571Y-78104380D02*
X141541666Y-78028190D01*
X141541666Y-78028190D02*
X141617856Y-77952000D01*
X141617856Y-77952000D02*
X141732142Y-77913904D01*
X141732142Y-77913904D02*
X141808333Y-77913904D01*
X141808333Y-77913904D02*
X141922618Y-77952000D01*
X141922618Y-77952000D02*
X141960714Y-77990095D01*
X142227380Y-77913904D02*
X142760714Y-77913904D01*
X142760714Y-77913904D02*
X142417856Y-78713904D01*
%TO.C,R2*%
X135121667Y-81533904D02*
X134855000Y-81152952D01*
X134664524Y-81533904D02*
X134664524Y-80733904D01*
X134664524Y-80733904D02*
X134969286Y-80733904D01*
X134969286Y-80733904D02*
X135045476Y-80772000D01*
X135045476Y-80772000D02*
X135083571Y-80810095D01*
X135083571Y-80810095D02*
X135121667Y-80886285D01*
X135121667Y-80886285D02*
X135121667Y-81000571D01*
X135121667Y-81000571D02*
X135083571Y-81076761D01*
X135083571Y-81076761D02*
X135045476Y-81114857D01*
X135045476Y-81114857D02*
X134969286Y-81152952D01*
X134969286Y-81152952D02*
X134664524Y-81152952D01*
X135426428Y-80810095D02*
X135464524Y-80772000D01*
X135464524Y-80772000D02*
X135540714Y-80733904D01*
X135540714Y-80733904D02*
X135731190Y-80733904D01*
X135731190Y-80733904D02*
X135807381Y-80772000D01*
X135807381Y-80772000D02*
X135845476Y-80810095D01*
X135845476Y-80810095D02*
X135883571Y-80886285D01*
X135883571Y-80886285D02*
X135883571Y-80962476D01*
X135883571Y-80962476D02*
X135845476Y-81076761D01*
X135845476Y-81076761D02*
X135388333Y-81533904D01*
X135388333Y-81533904D02*
X135883571Y-81533904D01*
%TO.C,C2*%
X114274714Y-78068714D02*
X114236618Y-78106809D01*
X114236618Y-78106809D02*
X114122333Y-78144904D01*
X114122333Y-78144904D02*
X114046142Y-78144904D01*
X114046142Y-78144904D02*
X113931856Y-78106809D01*
X113931856Y-78106809D02*
X113855666Y-78030619D01*
X113855666Y-78030619D02*
X113817571Y-77954428D01*
X113817571Y-77954428D02*
X113779475Y-77802047D01*
X113779475Y-77802047D02*
X113779475Y-77687761D01*
X113779475Y-77687761D02*
X113817571Y-77535380D01*
X113817571Y-77535380D02*
X113855666Y-77459190D01*
X113855666Y-77459190D02*
X113931856Y-77383000D01*
X113931856Y-77383000D02*
X114046142Y-77344904D01*
X114046142Y-77344904D02*
X114122333Y-77344904D01*
X114122333Y-77344904D02*
X114236618Y-77383000D01*
X114236618Y-77383000D02*
X114274714Y-77421095D01*
X114579475Y-77421095D02*
X114617571Y-77383000D01*
X114617571Y-77383000D02*
X114693761Y-77344904D01*
X114693761Y-77344904D02*
X114884237Y-77344904D01*
X114884237Y-77344904D02*
X114960428Y-77383000D01*
X114960428Y-77383000D02*
X114998523Y-77421095D01*
X114998523Y-77421095D02*
X115036618Y-77497285D01*
X115036618Y-77497285D02*
X115036618Y-77573476D01*
X115036618Y-77573476D02*
X114998523Y-77687761D01*
X114998523Y-77687761D02*
X114541380Y-78144904D01*
X114541380Y-78144904D02*
X115036618Y-78144904D01*
%TO.C,C4*%
X111503667Y-76076714D02*
X111465571Y-76114809D01*
X111465571Y-76114809D02*
X111351286Y-76152904D01*
X111351286Y-76152904D02*
X111275095Y-76152904D01*
X111275095Y-76152904D02*
X111160809Y-76114809D01*
X111160809Y-76114809D02*
X111084619Y-76038619D01*
X111084619Y-76038619D02*
X111046524Y-75962428D01*
X111046524Y-75962428D02*
X111008428Y-75810047D01*
X111008428Y-75810047D02*
X111008428Y-75695761D01*
X111008428Y-75695761D02*
X111046524Y-75543380D01*
X111046524Y-75543380D02*
X111084619Y-75467190D01*
X111084619Y-75467190D02*
X111160809Y-75391000D01*
X111160809Y-75391000D02*
X111275095Y-75352904D01*
X111275095Y-75352904D02*
X111351286Y-75352904D01*
X111351286Y-75352904D02*
X111465571Y-75391000D01*
X111465571Y-75391000D02*
X111503667Y-75429095D01*
X112189381Y-75619571D02*
X112189381Y-76152904D01*
X111998905Y-75314809D02*
X111808428Y-75886238D01*
X111808428Y-75886238D02*
X112303667Y-75886238D01*
%TO.C,C3*%
X144773667Y-84058714D02*
X144735571Y-84096809D01*
X144735571Y-84096809D02*
X144621286Y-84134904D01*
X144621286Y-84134904D02*
X144545095Y-84134904D01*
X144545095Y-84134904D02*
X144430809Y-84096809D01*
X144430809Y-84096809D02*
X144354619Y-84020619D01*
X144354619Y-84020619D02*
X144316524Y-83944428D01*
X144316524Y-83944428D02*
X144278428Y-83792047D01*
X144278428Y-83792047D02*
X144278428Y-83677761D01*
X144278428Y-83677761D02*
X144316524Y-83525380D01*
X144316524Y-83525380D02*
X144354619Y-83449190D01*
X144354619Y-83449190D02*
X144430809Y-83373000D01*
X144430809Y-83373000D02*
X144545095Y-83334904D01*
X144545095Y-83334904D02*
X144621286Y-83334904D01*
X144621286Y-83334904D02*
X144735571Y-83373000D01*
X144735571Y-83373000D02*
X144773667Y-83411095D01*
X145040333Y-83334904D02*
X145535571Y-83334904D01*
X145535571Y-83334904D02*
X145268905Y-83639666D01*
X145268905Y-83639666D02*
X145383190Y-83639666D01*
X145383190Y-83639666D02*
X145459381Y-83677761D01*
X145459381Y-83677761D02*
X145497476Y-83715857D01*
X145497476Y-83715857D02*
X145535571Y-83792047D01*
X145535571Y-83792047D02*
X145535571Y-83982523D01*
X145535571Y-83982523D02*
X145497476Y-84058714D01*
X145497476Y-84058714D02*
X145459381Y-84096809D01*
X145459381Y-84096809D02*
X145383190Y-84134904D01*
X145383190Y-84134904D02*
X145154619Y-84134904D01*
X145154619Y-84134904D02*
X145078428Y-84096809D01*
X145078428Y-84096809D02*
X145040333Y-84058714D01*
%TO.C,C1*%
X141960714Y-82066714D02*
X141922618Y-82104809D01*
X141922618Y-82104809D02*
X141808333Y-82142904D01*
X141808333Y-82142904D02*
X141732142Y-82142904D01*
X141732142Y-82142904D02*
X141617856Y-82104809D01*
X141617856Y-82104809D02*
X141541666Y-82028619D01*
X141541666Y-82028619D02*
X141503571Y-81952428D01*
X141503571Y-81952428D02*
X141465475Y-81800047D01*
X141465475Y-81800047D02*
X141465475Y-81685761D01*
X141465475Y-81685761D02*
X141503571Y-81533380D01*
X141503571Y-81533380D02*
X141541666Y-81457190D01*
X141541666Y-81457190D02*
X141617856Y-81381000D01*
X141617856Y-81381000D02*
X141732142Y-81342904D01*
X141732142Y-81342904D02*
X141808333Y-81342904D01*
X141808333Y-81342904D02*
X141922618Y-81381000D01*
X141922618Y-81381000D02*
X141960714Y-81419095D01*
X142722618Y-82142904D02*
X142265475Y-82142904D01*
X142494047Y-82142904D02*
X142494047Y-81342904D01*
X142494047Y-81342904D02*
X142417856Y-81457190D01*
X142417856Y-81457190D02*
X142341666Y-81533380D01*
X142341666Y-81533380D02*
X142265475Y-81571476D01*
%TO.C,R1*%
X133832714Y-78271904D02*
X133566047Y-77890952D01*
X133375571Y-78271904D02*
X133375571Y-77471904D01*
X133375571Y-77471904D02*
X133680333Y-77471904D01*
X133680333Y-77471904D02*
X133756523Y-77510000D01*
X133756523Y-77510000D02*
X133794618Y-77548095D01*
X133794618Y-77548095D02*
X133832714Y-77624285D01*
X133832714Y-77624285D02*
X133832714Y-77738571D01*
X133832714Y-77738571D02*
X133794618Y-77814761D01*
X133794618Y-77814761D02*
X133756523Y-77852857D01*
X133756523Y-77852857D02*
X133680333Y-77890952D01*
X133680333Y-77890952D02*
X133375571Y-77890952D01*
X134594618Y-78271904D02*
X134137475Y-78271904D01*
X134366047Y-78271904D02*
X134366047Y-77471904D01*
X134366047Y-77471904D02*
X134289856Y-77586190D01*
X134289856Y-77586190D02*
X134213666Y-77662380D01*
X134213666Y-77662380D02*
X134137475Y-77700476D01*
%TO.C,J1*%
X127936666Y-83772380D02*
X127936666Y-84486666D01*
X127936666Y-84486666D02*
X127889047Y-84629523D01*
X127889047Y-84629523D02*
X127793809Y-84724761D01*
X127793809Y-84724761D02*
X127650952Y-84772380D01*
X127650952Y-84772380D02*
X127555714Y-84772380D01*
X128936666Y-84772380D02*
X128365238Y-84772380D01*
X128650952Y-84772380D02*
X128650952Y-83772380D01*
X128650952Y-83772380D02*
X128555714Y-83915238D01*
X128555714Y-83915238D02*
X128460476Y-84010476D01*
X128460476Y-84010476D02*
X128365238Y-84058095D01*
%TO.C,J3*%
X102908047Y-81789904D02*
X102908047Y-82361333D01*
X102908047Y-82361333D02*
X102869952Y-82475619D01*
X102869952Y-82475619D02*
X102793761Y-82551809D01*
X102793761Y-82551809D02*
X102679476Y-82589904D01*
X102679476Y-82589904D02*
X102603285Y-82589904D01*
X103212809Y-81789904D02*
X103708047Y-81789904D01*
X103708047Y-81789904D02*
X103441381Y-82094666D01*
X103441381Y-82094666D02*
X103555666Y-82094666D01*
X103555666Y-82094666D02*
X103631857Y-82132761D01*
X103631857Y-82132761D02*
X103669952Y-82170857D01*
X103669952Y-82170857D02*
X103708047Y-82247047D01*
X103708047Y-82247047D02*
X103708047Y-82437523D01*
X103708047Y-82437523D02*
X103669952Y-82513714D01*
X103669952Y-82513714D02*
X103631857Y-82551809D01*
X103631857Y-82551809D02*
X103555666Y-82589904D01*
X103555666Y-82589904D02*
X103327095Y-82589904D01*
X103327095Y-82589904D02*
X103250904Y-82551809D01*
X103250904Y-82551809D02*
X103212809Y-82513714D01*
%TO.C,U2*%
X153187476Y-75693904D02*
X153187476Y-76341523D01*
X153187476Y-76341523D02*
X153225571Y-76417714D01*
X153225571Y-76417714D02*
X153263666Y-76455809D01*
X153263666Y-76455809D02*
X153339857Y-76493904D01*
X153339857Y-76493904D02*
X153492238Y-76493904D01*
X153492238Y-76493904D02*
X153568428Y-76455809D01*
X153568428Y-76455809D02*
X153606523Y-76417714D01*
X153606523Y-76417714D02*
X153644619Y-76341523D01*
X153644619Y-76341523D02*
X153644619Y-75693904D01*
X153987475Y-75770095D02*
X154025571Y-75732000D01*
X154025571Y-75732000D02*
X154101761Y-75693904D01*
X154101761Y-75693904D02*
X154292237Y-75693904D01*
X154292237Y-75693904D02*
X154368428Y-75732000D01*
X154368428Y-75732000D02*
X154406523Y-75770095D01*
X154406523Y-75770095D02*
X154444618Y-75846285D01*
X154444618Y-75846285D02*
X154444618Y-75922476D01*
X154444618Y-75922476D02*
X154406523Y-76036761D01*
X154406523Y-76036761D02*
X153949380Y-76493904D01*
X153949380Y-76493904D02*
X154444618Y-76493904D01*
%TO.C,U1*%
X102222476Y-75693904D02*
X102222476Y-76341523D01*
X102222476Y-76341523D02*
X102260571Y-76417714D01*
X102260571Y-76417714D02*
X102298666Y-76455809D01*
X102298666Y-76455809D02*
X102374857Y-76493904D01*
X102374857Y-76493904D02*
X102527238Y-76493904D01*
X102527238Y-76493904D02*
X102603428Y-76455809D01*
X102603428Y-76455809D02*
X102641523Y-76417714D01*
X102641523Y-76417714D02*
X102679619Y-76341523D01*
X102679619Y-76341523D02*
X102679619Y-75693904D01*
X103479618Y-76493904D02*
X103022475Y-76493904D01*
X103251047Y-76493904D02*
X103251047Y-75693904D01*
X103251047Y-75693904D02*
X103174856Y-75808190D01*
X103174856Y-75808190D02*
X103098666Y-75884380D01*
X103098666Y-75884380D02*
X103022475Y-75922476D01*
%TO.C,C6*%
X111499667Y-83969714D02*
X111461571Y-84007809D01*
X111461571Y-84007809D02*
X111347286Y-84045904D01*
X111347286Y-84045904D02*
X111271095Y-84045904D01*
X111271095Y-84045904D02*
X111156809Y-84007809D01*
X111156809Y-84007809D02*
X111080619Y-83931619D01*
X111080619Y-83931619D02*
X111042524Y-83855428D01*
X111042524Y-83855428D02*
X111004428Y-83703047D01*
X111004428Y-83703047D02*
X111004428Y-83588761D01*
X111004428Y-83588761D02*
X111042524Y-83436380D01*
X111042524Y-83436380D02*
X111080619Y-83360190D01*
X111080619Y-83360190D02*
X111156809Y-83284000D01*
X111156809Y-83284000D02*
X111271095Y-83245904D01*
X111271095Y-83245904D02*
X111347286Y-83245904D01*
X111347286Y-83245904D02*
X111461571Y-83284000D01*
X111461571Y-83284000D02*
X111499667Y-83322095D01*
X112185381Y-83245904D02*
X112033000Y-83245904D01*
X112033000Y-83245904D02*
X111956809Y-83284000D01*
X111956809Y-83284000D02*
X111918714Y-83322095D01*
X111918714Y-83322095D02*
X111842524Y-83436380D01*
X111842524Y-83436380D02*
X111804428Y-83588761D01*
X111804428Y-83588761D02*
X111804428Y-83893523D01*
X111804428Y-83893523D02*
X111842524Y-83969714D01*
X111842524Y-83969714D02*
X111880619Y-84007809D01*
X111880619Y-84007809D02*
X111956809Y-84045904D01*
X111956809Y-84045904D02*
X112109190Y-84045904D01*
X112109190Y-84045904D02*
X112185381Y-84007809D01*
X112185381Y-84007809D02*
X112223476Y-83969714D01*
X112223476Y-83969714D02*
X112261571Y-83893523D01*
X112261571Y-83893523D02*
X112261571Y-83703047D01*
X112261571Y-83703047D02*
X112223476Y-83626857D01*
X112223476Y-83626857D02*
X112185381Y-83588761D01*
X112185381Y-83588761D02*
X112109190Y-83550666D01*
X112109190Y-83550666D02*
X111956809Y-83550666D01*
X111956809Y-83550666D02*
X111880619Y-83588761D01*
X111880619Y-83588761D02*
X111842524Y-83626857D01*
X111842524Y-83626857D02*
X111804428Y-83703047D01*
D12*
%TO.C,D3*%
X118960000Y-76808000D02*
X118960000Y-75338000D01*
X118960000Y-75338000D02*
X116675000Y-75338000D01*
X116675000Y-76808000D02*
X118960000Y-76808000D01*
%TO.C,C5*%
X144172000Y-78300252D02*
X144172000Y-77777748D01*
X145642000Y-78300252D02*
X145642000Y-77777748D01*
D13*
%TO.C,TP3*%
X137100000Y-83568000D02*
X139700000Y-83568000D01*
X139700000Y-82548000D02*
X137100000Y-82548000D01*
D12*
%TO.C,R3*%
X119861359Y-75693000D02*
X120168641Y-75693000D01*
X119861359Y-76453000D02*
X120168641Y-76453000D01*
%TO.C,J2*%
X154096000Y-82998000D02*
X154096000Y-84328000D01*
X152766000Y-82998000D02*
X154096000Y-82998000D01*
X151496000Y-82998000D02*
X146356000Y-82998000D01*
X151496000Y-82998000D02*
X151496000Y-85598000D01*
X146356000Y-82998000D02*
X146356000Y-88198000D01*
X154096000Y-85598000D02*
X154096000Y-88198000D01*
X151496000Y-85598000D02*
X154096000Y-85598000D01*
X154096000Y-88198000D02*
X146356000Y-88198000D01*
%TO.C,C8*%
X113517000Y-81299164D02*
X113517000Y-81514836D01*
X112797000Y-81299164D02*
X112797000Y-81514836D01*
%TO.C,C7*%
X143023000Y-78527836D02*
X143023000Y-78312164D01*
X143743000Y-78527836D02*
X143743000Y-78312164D01*
D13*
%TO.C,TP2*%
X119440000Y-82552000D02*
X116840000Y-82552000D01*
X116840000Y-83572000D02*
X119440000Y-83572000D01*
D12*
%TO.C,R2*%
X135635000Y-79475359D02*
X135635000Y-79782641D01*
X134875000Y-79475359D02*
X134875000Y-79782641D01*
%TO.C,C2*%
X113513000Y-77616164D02*
X113513000Y-77831836D01*
X112793000Y-77616164D02*
X112793000Y-77831836D01*
%TO.C,C4*%
X112368000Y-77716748D02*
X112368000Y-78239252D01*
X110898000Y-77716748D02*
X110898000Y-78239252D01*
%TO.C,C3*%
X144172000Y-81729252D02*
X144172000Y-81206748D01*
X145642000Y-81729252D02*
X145642000Y-81206748D01*
%TO.C,C1*%
X143023000Y-81956836D02*
X143023000Y-81741164D01*
X143743000Y-81956836D02*
X143743000Y-81741164D01*
%TO.C,R1*%
X134875000Y-77877641D02*
X134875000Y-77570359D01*
X135635000Y-77877641D02*
X135635000Y-77570359D01*
D14*
%TO.C,J1*%
X132742000Y-80228000D02*
X132742000Y-79428000D01*
X132742000Y-76428000D02*
X132742000Y-75378000D01*
X132742000Y-75378000D02*
X123802000Y-75378000D01*
X128772000Y-83328000D02*
X128772000Y-83328000D01*
X128772000Y-83328000D02*
X128772000Y-83328000D01*
X128772000Y-83228000D02*
X128772000Y-83228000D01*
X123802000Y-80228000D02*
X123802000Y-79428000D01*
X123802000Y-75378000D02*
X123802000Y-76428000D01*
X128772000Y-83228000D02*
G75*
G03*
X128772000Y-83328000I0J-50000D01*
G01*
X128772000Y-83328000D02*
G75*
G03*
X128772000Y-83228000I0J50000D01*
G01*
X128772000Y-83328000D02*
G75*
G03*
X128772000Y-83228000I0J50000D01*
G01*
D12*
%TO.C,J3*%
X110154000Y-82998000D02*
X110154000Y-84328000D01*
X108824000Y-82998000D02*
X110154000Y-82998000D01*
X107554000Y-82998000D02*
X102414000Y-82998000D01*
X107554000Y-82998000D02*
X107554000Y-85598000D01*
X102414000Y-82998000D02*
X102414000Y-88198000D01*
X110154000Y-85598000D02*
X110154000Y-88198000D01*
X107554000Y-85598000D02*
X110154000Y-85598000D01*
X110154000Y-88198000D02*
X102414000Y-88198000D01*
%TO.C,U2*%
X146522000Y-75457000D02*
X152532000Y-75457000D01*
X148772000Y-82277000D02*
X152532000Y-82277000D01*
X152532000Y-75457000D02*
X152532000Y-76717000D01*
X152532000Y-82277000D02*
X152532000Y-81017000D01*
D13*
%TO.C,TP1*%
X104969000Y-97536000D02*
X107569000Y-97536000D01*
X107569000Y-96516000D02*
X104969000Y-96516000D01*
%TO.C,TP4*%
X148911000Y-97536000D02*
X151511000Y-97536000D01*
X151511000Y-96516000D02*
X148911000Y-96516000D01*
D12*
%TO.C,U1*%
X110018000Y-82277000D02*
X104008000Y-82277000D01*
X107768000Y-75457000D02*
X104008000Y-75457000D01*
X104008000Y-82277000D02*
X104008000Y-81017000D01*
X104008000Y-75457000D02*
X104008000Y-76717000D01*
%TO.C,C6*%
X112368000Y-81145748D02*
X112368000Y-81668252D01*
X110898000Y-81145748D02*
X110898000Y-81668252D01*
%TD*%
M02*
