%TF.GenerationSoftware,KiCad,Pcbnew,8.0.4*%
%TF.CreationDate,2024-07-31T19:42:57-06:00*%
%TF.ProjectId,Breadboard Power Supply,42726561-6462-46f6-9172-6420506f7765,v1*%
%TF.SameCoordinates,Original*%
%TF.FileFunction,Paste,Top*%
%TF.FilePolarity,Positive*%
%FSLAX46Y46*%
G04 Gerber Fmt 4.6, Leading zero omitted, Abs format (unit mm)*
G04 Created by KiCad (PCBNEW 8.0.4) date 2024-07-31 19:42:57*
%MOMM*%
%LPD*%
G01*
G04 APERTURE LIST*
G04 Aperture macros list*
%AMRoundRect*
0 Rectangle with rounded corners*
0 $1 Rounding radius*
0 $2 $3 $4 $5 $6 $7 $8 $9 X,Y pos of 4 corners*
0 Add a 4 corners polygon primitive as box body*
4,1,4,$2,$3,$4,$5,$6,$7,$8,$9,$2,$3,0*
0 Add four circle primitives for the rounded corners*
1,1,$1+$1,$2,$3*
1,1,$1+$1,$4,$5*
1,1,$1+$1,$6,$7*
1,1,$1+$1,$8,$9*
0 Add four rect primitives between the rounded corners*
20,1,$1+$1,$2,$3,$4,$5,0*
20,1,$1+$1,$4,$5,$6,$7,0*
20,1,$1+$1,$6,$7,$8,$9,0*
20,1,$1+$1,$8,$9,$2,$3,0*%
G04 Aperture macros list end*
%ADD10RoundRect,0.135000X-0.185000X0.135000X-0.185000X-0.135000X0.185000X-0.135000X0.185000X0.135000X0*%
%ADD11RoundRect,0.250000X-0.250000X-0.475000X0.250000X-0.475000X0.250000X0.475000X-0.250000X0.475000X0*%
%ADD12RoundRect,0.135000X-0.135000X-0.185000X0.135000X-0.185000X0.135000X0.185000X-0.135000X0.185000X0*%
%ADD13RoundRect,0.140000X-0.170000X0.140000X-0.170000X-0.140000X0.170000X-0.140000X0.170000X0.140000X0*%
%ADD14RoundRect,0.218750X-0.218750X-0.256250X0.218750X-0.256250X0.218750X0.256250X-0.218750X0.256250X0*%
%ADD15RoundRect,0.250000X0.250000X0.475000X-0.250000X0.475000X-0.250000X-0.475000X0.250000X-0.475000X0*%
%ADD16RoundRect,0.135000X0.135000X0.185000X-0.135000X0.185000X-0.135000X-0.185000X0.135000X-0.185000X0*%
%ADD17R,0.700000X1.200000*%
%ADD18R,0.760000X1.200000*%
%ADD19R,0.800000X1.200000*%
%ADD20R,1.200000X0.550000*%
%ADD21RoundRect,0.135000X0.185000X-0.135000X0.185000X0.135000X-0.185000X0.135000X-0.185000X-0.135000X0*%
%ADD22RoundRect,0.140000X-0.140000X-0.170000X0.140000X-0.170000X0.140000X0.170000X-0.140000X0.170000X0*%
%ADD23RoundRect,0.375000X-0.625000X-0.375000X0.625000X-0.375000X0.625000X0.375000X-0.625000X0.375000X0*%
%ADD24RoundRect,0.500000X-0.500000X-1.400000X0.500000X-1.400000X0.500000X1.400000X-0.500000X1.400000X0*%
%ADD25RoundRect,0.375000X0.625000X0.375000X-0.625000X0.375000X-0.625000X-0.375000X0.625000X-0.375000X0*%
%ADD26RoundRect,0.500000X0.500000X1.400000X-0.500000X1.400000X-0.500000X-1.400000X0.500000X-1.400000X0*%
G04 APERTURE END LIST*
D10*
%TO.C,R4*%
X111721000Y-78865000D03*
X111721000Y-79885000D03*
%TD*%
D11*
%TO.C,C5*%
X146751000Y-83693000D03*
X148651000Y-83693000D03*
%TD*%
D12*
%TO.C,R3*%
X136523000Y-78105000D03*
X137543000Y-78105000D03*
%TD*%
D13*
%TO.C,C8*%
X104013000Y-83467000D03*
X104013000Y-84427000D03*
%TD*%
%TO.C,C7*%
X145161000Y-83241000D03*
X145161000Y-84201000D03*
%TD*%
D12*
%TO.C,R2*%
X128903000Y-84455000D03*
X129923000Y-84455000D03*
%TD*%
D14*
%TO.C,D2*%
X136245500Y-76105000D03*
X137820500Y-76105000D03*
%TD*%
D15*
%TO.C,C4*%
X111291000Y-83947000D03*
X109391000Y-83947000D03*
%TD*%
D16*
%TO.C,R8*%
X143385000Y-75819000D03*
X142365000Y-75819000D03*
%TD*%
%TO.C,R7*%
X141101000Y-75819000D03*
X140081000Y-75819000D03*
%TD*%
D11*
%TO.C,C3*%
X151511000Y-83693000D03*
X153411000Y-83693000D03*
%TD*%
D17*
%TO.C,J1*%
X128772000Y-81854000D03*
D18*
X126752000Y-81854000D03*
D19*
X125522000Y-81854000D03*
D17*
X127772000Y-81854000D03*
D18*
X129792000Y-81854000D03*
D19*
X131022000Y-81854000D03*
%TD*%
D20*
%TO.C,IC1*%
X117007000Y-76205000D03*
X117007000Y-77155000D03*
X117007000Y-78105000D03*
X119507000Y-78105000D03*
X119507000Y-76205000D03*
%TD*%
D21*
%TO.C,R9*%
X121285000Y-80141000D03*
X121285000Y-79121000D03*
%TD*%
D16*
%TO.C,R1*%
X127637000Y-84455000D03*
X126617000Y-84455000D03*
%TD*%
D21*
%TO.C,R13*%
X121285000Y-77851000D03*
X121285000Y-76831000D03*
%TD*%
D22*
%TO.C,C1*%
X122357000Y-84455000D03*
X123317000Y-84455000D03*
%TD*%
D10*
%TO.C,R6*%
X111721000Y-81151000D03*
X111721000Y-82171000D03*
%TD*%
D21*
%TO.C,R5*%
X144653000Y-76837000D03*
X144653000Y-75817000D03*
%TD*%
D23*
%TO.C,U2*%
X146583000Y-76567000D03*
X146583000Y-78867000D03*
D24*
X152883000Y-78867000D03*
D23*
X146583000Y-81167000D03*
%TD*%
D11*
%TO.C,C6*%
X105642000Y-83947000D03*
X107542000Y-83947000D03*
%TD*%
D25*
%TO.C,U1*%
X109918000Y-81167000D03*
X109918000Y-78867000D03*
D26*
X103618000Y-78867000D03*
D25*
X109918000Y-76567000D03*
%TD*%
M02*
