M48
; DRILL file {KiCad (7.0.0-0)} date Thursday, April 13, 2023 at 07:26:32 PM
; FORMAT={-:-/ absolute / inch / decimal}
; #@! TF.CreationDate,2023-04-13T19:26:32-06:00
; #@! TF.GenerationSoftware,Kicad,Pcbnew,(7.0.0-0)
; #@! TF.FileFunction,Plated,1,2,PTH
FMAT,2
INCH
; #@! TA.AperFunction,Plated,PTH,ViaDrill
T1C0.0157
; #@! TA.AperFunction,Plated,PTH,ComponentDrill
T2C0.0394
; #@! TA.AperFunction,Plated,PTH,ComponentDrill
T3C0.0480
; #@! TA.AperFunction,Plated,PTH,ComponentDrill
T4C0.0528
%
G90
G05
T1
X4.11Y-2.98
X4.23Y-3.135
X4.245Y-3.31
X4.34Y-3.01
X4.43Y-3.43
X4.515Y-3.305
X4.68Y-3.23
X5.285Y-2.9899
X5.2901Y-3.1351
X5.31Y-3.2561
X5.655Y-3.22
X5.67Y-3.365
X5.73Y-3.1236
X5.78Y-3.005
X5.8766Y-3.345
X6.0075Y-3.0375
T2
X4.0844Y-3.41
X4.0844Y-3.51
X4.125Y-3.9
X4.1844Y-3.41
X4.1844Y-3.51
X4.225Y-3.9
X4.2844Y-3.41
X4.2844Y-3.51
X4.6Y-3.1
X4.7Y-3.1
X5.4Y-3.1
X5.5Y-3.1
X5.815Y-3.41
X5.815Y-3.51
X5.875Y-3.9
X5.915Y-3.41
X5.915Y-3.51
X5.975Y-3.9
X6.015Y-3.41
X6.015Y-3.51
T3
X4.085Y-3.78
X4.285Y-3.78
X4.55Y-3.37
X4.75Y-3.37
X5.35Y-3.37
X5.55Y-3.37
X5.815Y-3.78
X6.015Y-3.78
T4
X4.8799Y-3.0665
X4.8799Y-3.2161
X5.2201Y-3.0665
X5.2201Y-3.2161
T0
M30
