%TF.GenerationSoftware,KiCad,Pcbnew,(6.0.10-0)*%
%TF.CreationDate,2023-02-08T19:20:35-07:00*%
%TF.ProjectId,Breadboard Power Supply,42726561-6462-46f6-9172-6420506f7765,v1*%
%TF.SameCoordinates,Original*%
%TF.FileFunction,Copper,L1,Top*%
%TF.FilePolarity,Positive*%
%FSLAX46Y46*%
G04 Gerber Fmt 4.6, Leading zero omitted, Abs format (unit mm)*
G04 Created by KiCad (PCBNEW (6.0.10-0)) date 2023-02-08 19:20:35*
%MOMM*%
%LPD*%
G01*
G04 APERTURE LIST*
G04 Aperture macros list*
%AMRoundRect*
0 Rectangle with rounded corners*
0 $1 Rounding radius*
0 $2 $3 $4 $5 $6 $7 $8 $9 X,Y pos of 4 corners*
0 Add a 4 corners polygon primitive as box body*
4,1,4,$2,$3,$4,$5,$6,$7,$8,$9,$2,$3,0*
0 Add four circle primitives for the rounded corners*
1,1,$1+$1,$2,$3*
1,1,$1+$1,$4,$5*
1,1,$1+$1,$6,$7*
1,1,$1+$1,$8,$9*
0 Add four rect primitives between the rounded corners*
20,1,$1+$1,$2,$3,$4,$5,0*
20,1,$1+$1,$4,$5,$6,$7,0*
20,1,$1+$1,$6,$7,$8,$9,0*
20,1,$1+$1,$8,$9,$2,$3,0*%
G04 Aperture macros list end*
%TA.AperFunction,ComponentPad*%
%ADD10R,1.700000X1.700000*%
%TD*%
%TA.AperFunction,ComponentPad*%
%ADD11O,1.700000X1.700000*%
%TD*%
%TA.AperFunction,SMDPad,CuDef*%
%ADD12RoundRect,0.243750X0.456250X-0.243750X0.456250X0.243750X-0.456250X0.243750X-0.456250X-0.243750X0*%
%TD*%
%TA.AperFunction,SMDPad,CuDef*%
%ADD13RoundRect,0.250000X-0.262500X-0.450000X0.262500X-0.450000X0.262500X0.450000X-0.262500X0.450000X0*%
%TD*%
%TA.AperFunction,SMDPad,CuDef*%
%ADD14RoundRect,0.225000X-0.250000X0.225000X-0.250000X-0.225000X0.250000X-0.225000X0.250000X0.225000X0*%
%TD*%
%TA.AperFunction,SMDPad,CuDef*%
%ADD15RoundRect,0.250000X-0.450000X0.262500X-0.450000X-0.262500X0.450000X-0.262500X0.450000X0.262500X0*%
%TD*%
%TA.AperFunction,SMDPad,CuDef*%
%ADD16RoundRect,0.250000X-0.650000X0.325000X-0.650000X-0.325000X0.650000X-0.325000X0.650000X0.325000X0*%
%TD*%
%TA.AperFunction,ComponentPad*%
%ADD17C,1.980000*%
%TD*%
%TA.AperFunction,SMDPad,CuDef*%
%ADD18RoundRect,0.250000X-0.325000X-0.650000X0.325000X-0.650000X0.325000X0.650000X-0.325000X0.650000X0*%
%TD*%
%TA.AperFunction,SMDPad,CuDef*%
%ADD19R,2.150000X0.950000*%
%TD*%
%TA.AperFunction,SMDPad,CuDef*%
%ADD20R,2.150000X3.250000*%
%TD*%
%TA.AperFunction,SMDPad,CuDef*%
%ADD21RoundRect,0.250000X0.650000X-0.325000X0.650000X0.325000X-0.650000X0.325000X-0.650000X-0.325000X0*%
%TD*%
%TA.AperFunction,SMDPad,CuDef*%
%ADD22RoundRect,0.225000X0.250000X-0.225000X0.250000X0.225000X-0.250000X0.225000X-0.250000X-0.225000X0*%
%TD*%
%TA.AperFunction,SMDPad,CuDef*%
%ADD23R,0.700000X1.200000*%
%TD*%
%TA.AperFunction,SMDPad,CuDef*%
%ADD24R,0.760000X1.200000*%
%TD*%
%TA.AperFunction,SMDPad,CuDef*%
%ADD25R,0.800000X1.200000*%
%TD*%
%TA.AperFunction,SMDPad,CuDef*%
%ADD26R,1.800000X1.350000*%
%TD*%
%TA.AperFunction,SMDPad,CuDef*%
%ADD27R,1.800000X1.500000*%
%TD*%
%TA.AperFunction,SMDPad,CuDef*%
%ADD28RoundRect,0.250000X-0.275000X-0.700000X0.275000X-0.700000X0.275000X0.700000X-0.275000X0.700000X0*%
%TD*%
%TA.AperFunction,SMDPad,CuDef*%
%ADD29RoundRect,0.250000X-0.250000X-0.475000X0.250000X-0.475000X0.250000X0.475000X-0.250000X0.475000X0*%
%TD*%
%TA.AperFunction,SMDPad,CuDef*%
%ADD30RoundRect,0.250000X0.250000X0.475000X-0.250000X0.475000X-0.250000X-0.475000X0.250000X-0.475000X0*%
%TD*%
%TA.AperFunction,ViaPad*%
%ADD31C,0.800000*%
%TD*%
%TA.AperFunction,Conductor*%
%ADD32C,0.250000*%
%TD*%
%TA.AperFunction,Conductor*%
%ADD33C,0.750000*%
%TD*%
G04 APERTURE END LIST*
D10*
%TO.P,J3,1,Pin_1*%
%TO.N,+3.3V*%
X149753000Y-100838000D03*
D11*
%TO.P,J3,2,Pin_2*%
%TO.N,/TOP_POWER_RAIL*%
X147213000Y-100838000D03*
%TD*%
D12*
%TO.P,D1,1,K*%
%TO.N,Net-(D1-Pad1)*%
X119380000Y-79296500D03*
%TO.P,D1,2,A*%
%TO.N,VBUS*%
X119380000Y-77421500D03*
%TD*%
D13*
%TO.P,R2,1*%
%TO.N,Net-(J1-PadA5)*%
X134596500Y-81788000D03*
%TO.P,R2,2*%
%TO.N,GND*%
X136421500Y-81788000D03*
%TD*%
D14*
%TO.P,C2,1*%
%TO.N,+5V*%
X114554000Y-78805000D03*
%TO.P,C2,2*%
%TO.N,GND*%
X114554000Y-80355000D03*
%TD*%
D15*
%TO.P,R1,1*%
%TO.N,Net-(J1-PadB5)*%
X137033000Y-78081500D03*
%TO.P,R1,2*%
%TO.N,GND*%
X137033000Y-79906500D03*
%TD*%
D16*
%TO.P,C4,1*%
%TO.N,+5V*%
X112141000Y-77470000D03*
%TO.P,C4,2*%
%TO.N,GND*%
X112141000Y-80420000D03*
%TD*%
D17*
%TO.P,TP2,1,1*%
%TO.N,GND*%
X124460000Y-89408000D03*
%TO.P,TP2,2,2*%
X119380000Y-89408000D03*
%TD*%
D18*
%TO.P,C9,1*%
%TO.N,+5V*%
X134547000Y-84074000D03*
%TO.P,C9,2*%
%TO.N,GND*%
X137497000Y-84074000D03*
%TD*%
D10*
%TO.P,J4,1,Pin_1*%
%TO.N,+1V8*%
X149753000Y-104648000D03*
D11*
%TO.P,J4,2,Pin_2*%
%TO.N,/TOP_POWER_RAIL*%
X147213000Y-104648000D03*
%TD*%
D17*
%TO.P,TP1,1,1*%
%TO.N,GND*%
X109347000Y-89408000D03*
%TO.P,TP1,2,2*%
X114427000Y-89408000D03*
%TD*%
D15*
%TO.P,R3,1*%
%TO.N,Net-(D1-Pad1)*%
X117094000Y-77446500D03*
%TO.P,R3,2*%
%TO.N,GND*%
X117094000Y-79271500D03*
%TD*%
D10*
%TO.P,J7,1,Pin_1*%
%TO.N,+1V8*%
X106680000Y-104648000D03*
D11*
%TO.P,J7,2,Pin_2*%
%TO.N,/BOTTOM_POWER_RAIL*%
X104140000Y-104648000D03*
%TD*%
D15*
%TO.P,R4,1*%
%TO.N,Net-(J1-PadB5)*%
X134747000Y-78081500D03*
%TO.P,R4,2*%
%TO.N,Net-(J1-PadA5)*%
X134747000Y-79906500D03*
%TD*%
D10*
%TO.P,J6,1,Pin_1*%
%TO.N,+3.3V*%
X106680000Y-100838000D03*
D11*
%TO.P,J6,2,Pin_2*%
%TO.N,/BOTTOM_POWER_RAIL*%
X104140000Y-100838000D03*
%TD*%
D19*
%TO.P,U2,1,GND*%
%TO.N,GND*%
X108797000Y-83961000D03*
%TO.P,U2,2,VO*%
%TO.N,+1V8*%
X108797000Y-81661000D03*
%TO.P,U2,3,VI*%
%TO.N,+5V*%
X108797000Y-79361000D03*
D20*
%TO.P,U2,4*%
%TO.N,N/C*%
X102997000Y-81661000D03*
%TD*%
D21*
%TO.P,C3,1*%
%TO.N,+5V*%
X142240000Y-85549000D03*
%TO.P,C3,2*%
%TO.N,GND*%
X142240000Y-82599000D03*
%TD*%
D22*
%TO.P,C1,1*%
%TO.N,+5V*%
X139954000Y-84214000D03*
%TO.P,C1,2*%
%TO.N,GND*%
X139954000Y-82664000D03*
%TD*%
D23*
%TO.P,J1,A5,CC1*%
%TO.N,Net-(J1-PadA5)*%
X127500000Y-82686900D03*
D24*
%TO.P,J1,A9,VBUS*%
%TO.N,VBUS*%
X125480000Y-82686900D03*
D25*
%TO.P,J1,A12,GND*%
%TO.N,GND*%
X124250000Y-82686900D03*
D23*
%TO.P,J1,B5,CC2*%
%TO.N,Net-(J1-PadB5)*%
X126500000Y-82686900D03*
D24*
%TO.P,J1,B9,VBUS*%
%TO.N,VBUS*%
X128520000Y-82686900D03*
D25*
%TO.P,J1,B12,GND*%
%TO.N,GND*%
X129750000Y-82686900D03*
D26*
%TO.P,J1,S1,SHIELD*%
X121875000Y-82631900D03*
X132125000Y-82631900D03*
D27*
X132125000Y-79051900D03*
X121875000Y-79051900D03*
%TD*%
D22*
%TO.P,C10,1*%
%TO.N,+3.3V*%
X139954000Y-79388000D03*
%TO.P,C10,2*%
%TO.N,GND*%
X139954000Y-77838000D03*
%TD*%
D14*
%TO.P,C11,1*%
%TO.N,+1V8*%
X114554000Y-83807000D03*
%TO.P,C11,2*%
%TO.N,GND*%
X114554000Y-85357000D03*
%TD*%
D28*
%TO.P,L1,1,1*%
%TO.N,VBUS*%
X129616000Y-86106000D03*
%TO.P,L1,2,2*%
%TO.N,+5V*%
X132766000Y-86106000D03*
%TD*%
D10*
%TO.P,J2,1,Pin_1*%
%TO.N,+5V*%
X149753000Y-97028000D03*
D11*
%TO.P,J2,2,Pin_2*%
%TO.N,/TOP_POWER_RAIL*%
X147213000Y-97028000D03*
%TD*%
D17*
%TO.P,TP4,1,1*%
%TO.N,GND*%
X139446000Y-89408000D03*
%TO.P,TP4,2,2*%
X144526000Y-89408000D03*
%TD*%
D29*
%TO.P,C6,1*%
%TO.N,+5V*%
X134437000Y-86360000D03*
%TO.P,C6,2*%
%TO.N,GND*%
X136337000Y-86360000D03*
%TD*%
D10*
%TO.P,J5,1,Pin_1*%
%TO.N,+5V*%
X106680000Y-97028000D03*
D11*
%TO.P,J5,2,Pin_2*%
%TO.N,/BOTTOM_POWER_RAIL*%
X104140000Y-97028000D03*
%TD*%
D16*
%TO.P,C8,1*%
%TO.N,+1V8*%
X112141000Y-82550000D03*
%TO.P,C8,2*%
%TO.N,GND*%
X112141000Y-85500000D03*
%TD*%
D17*
%TO.P,TP3,1,1*%
%TO.N,GND*%
X129413000Y-89408000D03*
%TO.P,TP3,2,2*%
X134493000Y-89408000D03*
%TD*%
D19*
%TO.P,U1,1,GND*%
%TO.N,GND*%
X145182000Y-78980000D03*
%TO.P,U1,2,VO*%
%TO.N,+3.3V*%
X145182000Y-81280000D03*
%TO.P,U1,3,VI*%
%TO.N,+5V*%
X145182000Y-83580000D03*
D20*
%TO.P,U1,4*%
%TO.N,N/C*%
X150982000Y-81280000D03*
%TD*%
D21*
%TO.P,C7,1*%
%TO.N,+3.3V*%
X142240000Y-80723000D03*
%TO.P,C7,2*%
%TO.N,GND*%
X142240000Y-77773000D03*
%TD*%
D30*
%TO.P,C5,1*%
%TO.N,VBUS*%
X127823000Y-85852000D03*
%TO.P,C5,2*%
%TO.N,GND*%
X125923000Y-85852000D03*
%TD*%
D10*
%TO.P,J8,1,Pin_1*%
%TO.N,/TOP_POWER_RAIL*%
X147190000Y-93218000D03*
D11*
%TO.P,J8,2,Pin_2*%
%TO.N,GND*%
X149730000Y-93218000D03*
%TD*%
D10*
%TO.P,J9,1,Pin_1*%
%TO.N,/BOTTOM_POWER_RAIL*%
X104135000Y-93218000D03*
D11*
%TO.P,J9,2,Pin_2*%
%TO.N,GND*%
X106675000Y-93218000D03*
%TD*%
D31*
%TO.N,GND*%
X137668000Y-82423000D03*
X121793000Y-80264000D03*
X120269000Y-82550000D03*
X130556000Y-78994000D03*
X141097000Y-81788000D03*
X108839000Y-85090000D03*
X124714000Y-85852000D03*
X143637000Y-78359000D03*
X110638000Y-80469000D03*
X144526000Y-77978000D03*
X115824000Y-80518000D03*
X137541000Y-86360000D03*
X138620500Y-78930500D03*
X130683000Y-82550000D03*
X115947946Y-78195992D03*
X113411000Y-86487000D03*
X133604000Y-82677000D03*
X123317000Y-82677000D03*
%TO.N,+5V*%
X115062000Y-77470000D03*
X113919000Y-77470000D03*
X147011924Y-82254500D03*
X147066000Y-83185000D03*
%TO.N,+3.3V*%
X146685000Y-91059000D03*
X147574000Y-91059000D03*
%TD*%
D32*
%TO.N,GND*%
X112141000Y-85500000D02*
X112424000Y-85500000D01*
D33*
X106675000Y-93218000D02*
X106675000Y-91879497D01*
D32*
X143637000Y-78359000D02*
X143051000Y-77773000D01*
D33*
X109146497Y-89408000D02*
X109347000Y-89408000D01*
D32*
X108797000Y-85048000D02*
X108839000Y-85090000D01*
X143051000Y-77773000D02*
X142240000Y-77773000D01*
X114366000Y-85532000D02*
X114554000Y-85532000D01*
X137033000Y-81788000D02*
X137668000Y-82423000D01*
X132067100Y-78994000D02*
X132125000Y-79051900D01*
X112141000Y-80420000D02*
X110687000Y-80420000D01*
X133604000Y-82677000D02*
X132170100Y-82677000D01*
X141429000Y-81788000D02*
X142240000Y-82599000D01*
X137497000Y-84074000D02*
X137497000Y-82594000D01*
X120269000Y-82550000D02*
X121793100Y-82550000D01*
X136421500Y-81788000D02*
X137033000Y-81788000D01*
X141097000Y-81788000D02*
X141429000Y-81788000D01*
X121875000Y-80182000D02*
X121793000Y-80264000D01*
X130683000Y-82550000D02*
X129886900Y-82550000D01*
X139761000Y-77790000D02*
X139954000Y-77790000D01*
X138620500Y-78930500D02*
X139761000Y-77790000D01*
X130556000Y-78994000D02*
X132067100Y-78994000D01*
X110687000Y-80420000D02*
X110638000Y-80469000D01*
X123317000Y-82677000D02*
X124240100Y-82677000D01*
X117094000Y-79271500D02*
X117023454Y-79271500D01*
X144526000Y-77978000D02*
X145182000Y-78634000D01*
X139954000Y-82489000D02*
X140396000Y-82489000D01*
X137497000Y-82594000D02*
X137668000Y-82423000D01*
X115812000Y-80530000D02*
X114554000Y-80530000D01*
X124240100Y-82677000D02*
X124250000Y-82686900D01*
X115824000Y-80518000D02*
X115812000Y-80530000D01*
X132170100Y-82677000D02*
X132125000Y-82631900D01*
X137644500Y-79906500D02*
X137033000Y-79906500D01*
X129886900Y-82550000D02*
X129750000Y-82686900D01*
X140396000Y-82489000D02*
X141097000Y-81788000D01*
X145182000Y-78634000D02*
X145182000Y-78980000D01*
X113411000Y-86487000D02*
X114366000Y-85532000D01*
X121875000Y-79051900D02*
X121875000Y-80182000D01*
X121793100Y-82550000D02*
X121875000Y-82631900D01*
X108797000Y-83961000D02*
X108797000Y-85048000D01*
X125923000Y-85852000D02*
X124714000Y-85852000D01*
X112424000Y-85500000D02*
X113411000Y-86487000D01*
X117023454Y-79271500D02*
X115947946Y-78195992D01*
X136337000Y-86360000D02*
X137541000Y-86360000D01*
D33*
X106675000Y-91879497D02*
X109146497Y-89408000D01*
D32*
X138620500Y-78930500D02*
X137644500Y-79906500D01*
D33*
%TO.N,+5V*%
X135737000Y-87660000D02*
X140129000Y-87660000D01*
X112141000Y-77470000D02*
X113919000Y-77470000D01*
X104775000Y-95123000D02*
X106680000Y-97028000D01*
X102235000Y-94168000D02*
X103190000Y-95123000D01*
X103190000Y-95123000D02*
X104775000Y-95123000D01*
X102235000Y-92202000D02*
X102235000Y-94168000D01*
X134437000Y-86360000D02*
X135737000Y-87660000D01*
X113919000Y-77470000D02*
X115062000Y-77470000D01*
X147066000Y-82308576D02*
X147011924Y-82254500D01*
X107061000Y-87376000D02*
X102235000Y-92202000D01*
X147066000Y-83185000D02*
X146671000Y-83580000D01*
X107061000Y-81026000D02*
X107061000Y-87376000D01*
X108726000Y-79361000D02*
X107061000Y-81026000D01*
X108797000Y-79361000D02*
X108726000Y-79361000D01*
X140129000Y-87660000D02*
X142240000Y-85549000D01*
X146671000Y-83580000D02*
X145182000Y-83580000D01*
X147066000Y-83185000D02*
X147066000Y-82308576D01*
D32*
%TO.N,VBUS*%
X125480000Y-82686900D02*
X125480000Y-80356900D01*
X125480000Y-80356900D02*
X122544600Y-77421500D01*
X122544600Y-77421500D02*
X119380000Y-77421500D01*
D33*
%TO.N,+3.3V*%
X148209000Y-82042000D02*
X148209000Y-91059000D01*
X147891500Y-81724500D02*
X147447000Y-81280000D01*
X151765000Y-98826000D02*
X151765000Y-91186000D01*
X148209000Y-91059000D02*
X147574000Y-91059000D01*
X149753000Y-100838000D02*
X151765000Y-98826000D01*
X147574000Y-91059000D02*
X146558000Y-91059000D01*
X147891500Y-81724500D02*
X148209000Y-82042000D01*
X147447000Y-81280000D02*
X145582000Y-81280000D01*
X151638000Y-91059000D02*
X148209000Y-91059000D01*
X146558000Y-91059000D02*
X146685000Y-91059000D01*
X151765000Y-91186000D02*
X151638000Y-91059000D01*
%TO.N,+1V8*%
X108839000Y-102489000D02*
X106680000Y-104648000D01*
X145415000Y-104865255D02*
X145415000Y-91059000D01*
X108839000Y-91059000D02*
X108839000Y-102489000D01*
X110666000Y-88314000D02*
X110680500Y-88328500D01*
X111379000Y-89027000D02*
X111379000Y-91059000D01*
X110666000Y-84025000D02*
X110666000Y-88314000D01*
X145415000Y-91059000D02*
X108839000Y-91059000D01*
X110680500Y-88328500D02*
X111379000Y-89027000D01*
X148328000Y-106073000D02*
X146622745Y-106073000D01*
X149753000Y-104648000D02*
X148328000Y-106073000D01*
X112141000Y-82550000D02*
X110666000Y-84025000D01*
X146622745Y-106073000D02*
X145415000Y-104865255D01*
D32*
%TO.N,Net-(D1-Pad1)*%
X119380000Y-79296500D02*
X118944000Y-79296500D01*
X118944000Y-79296500D02*
X117094000Y-77446500D01*
%TO.N,Net-(J1-PadA5)*%
X134440400Y-81631900D02*
X134596500Y-81788000D01*
X127500000Y-81836900D02*
X127705000Y-81631900D01*
X127500000Y-82686900D02*
X127500000Y-81836900D01*
X127705000Y-81631900D02*
X134440400Y-81631900D01*
X134596500Y-81788000D02*
X134596500Y-80057000D01*
X134596500Y-80057000D02*
X134747000Y-79906500D01*
%TO.N,Net-(J1-PadB5)*%
X128906100Y-77976900D02*
X126500000Y-80383000D01*
X137033000Y-78081500D02*
X134747000Y-78081500D01*
X126500000Y-80383000D02*
X126500000Y-82686900D01*
X134642400Y-77976900D02*
X128906100Y-77976900D01*
X134747000Y-78081500D02*
X134642400Y-77976900D01*
D33*
%TO.N,/TOP_POWER_RAIL*%
X147190000Y-97005000D02*
X147213000Y-97028000D01*
X147213000Y-100838000D02*
X147213000Y-104648000D01*
X147213000Y-97028000D02*
X147213000Y-100838000D01*
X147190000Y-93218000D02*
X147190000Y-97005000D01*
%TD*%
%TA.AperFunction,Conductor*%
%TO.N,+1V8*%
G36*
X110060994Y-81173002D02*
G01*
X110066934Y-81177064D01*
X110166361Y-81249302D01*
X110181248Y-81260118D01*
X110187277Y-81262802D01*
X110187280Y-81262804D01*
X110208969Y-81272460D01*
X110222770Y-81278605D01*
X110260616Y-81304616D01*
X110490000Y-81534000D01*
X115571000Y-81534000D01*
X115639121Y-81554002D01*
X115685614Y-81607658D01*
X115697000Y-81660000D01*
X115697000Y-84329000D01*
X115676998Y-84397121D01*
X115623342Y-84443614D01*
X115571000Y-84455000D01*
X115113242Y-84455000D01*
X115073576Y-84448593D01*
X114953757Y-84408851D01*
X114946920Y-84408151D01*
X114946918Y-84408150D01*
X114905599Y-84403917D01*
X114852732Y-84398500D01*
X114255268Y-84398500D01*
X114252022Y-84398837D01*
X114252018Y-84398837D01*
X114217917Y-84402375D01*
X114152981Y-84409113D01*
X114146440Y-84411295D01*
X114146441Y-84411295D01*
X114034856Y-84448523D01*
X113994979Y-84455000D01*
X113050017Y-84455000D01*
X113010350Y-84448593D01*
X112995339Y-84443614D01*
X112945861Y-84427203D01*
X112939025Y-84426503D01*
X112939022Y-84426502D01*
X112895969Y-84422091D01*
X112841400Y-84416500D01*
X111440600Y-84416500D01*
X111437354Y-84416837D01*
X111437350Y-84416837D01*
X111341692Y-84426762D01*
X111341688Y-84426763D01*
X111334834Y-84427474D01*
X111328294Y-84429656D01*
X111328289Y-84429657D01*
X111325965Y-84430432D01*
X111324443Y-84430487D01*
X111321555Y-84431111D01*
X111321444Y-84430596D01*
X111255015Y-84433012D01*
X111197001Y-84400001D01*
X110417405Y-83620405D01*
X110383379Y-83558093D01*
X110380500Y-83531310D01*
X110380500Y-83437866D01*
X110373745Y-83375684D01*
X110322615Y-83239295D01*
X110235261Y-83122739D01*
X110118705Y-83035385D01*
X109982316Y-82984255D01*
X109920134Y-82977500D01*
X108070500Y-82977500D01*
X108002379Y-82957498D01*
X107955886Y-82903842D01*
X107944500Y-82851500D01*
X107944500Y-81759952D01*
X107964502Y-81691831D01*
X107988500Y-81664286D01*
X108549610Y-81183334D01*
X108614349Y-81154188D01*
X108631610Y-81153000D01*
X109992873Y-81153000D01*
X110060994Y-81173002D01*
G37*
%TD.AperFunction*%
%TD*%
%TA.AperFunction,Conductor*%
%TO.N,+5V*%
G36*
X115896133Y-76728502D02*
G01*
X115942626Y-76782158D01*
X115952730Y-76852432D01*
X115947606Y-76874163D01*
X115896203Y-77029139D01*
X115885500Y-77133600D01*
X115885500Y-77178436D01*
X115865498Y-77246557D01*
X115811842Y-77293050D01*
X115785699Y-77301682D01*
X115665658Y-77327198D01*
X115659628Y-77329883D01*
X115659627Y-77329883D01*
X115497224Y-77402189D01*
X115497222Y-77402190D01*
X115491194Y-77404874D01*
X115336693Y-77517126D01*
X115208906Y-77659048D01*
X115113419Y-77824436D01*
X115054404Y-78006064D01*
X115053714Y-78012625D01*
X115053714Y-78012627D01*
X115035881Y-78182303D01*
X115034442Y-78195992D01*
X115035132Y-78202557D01*
X115051576Y-78359009D01*
X115054404Y-78385920D01*
X115113419Y-78567548D01*
X115208906Y-78732936D01*
X115213324Y-78737843D01*
X115213325Y-78737844D01*
X115332271Y-78869947D01*
X115336693Y-78874858D01*
X115435789Y-78946856D01*
X115451954Y-78958600D01*
X115491194Y-78987110D01*
X115497222Y-78989794D01*
X115497224Y-78989795D01*
X115659627Y-79062101D01*
X115665658Y-79064786D01*
X115785698Y-79090301D01*
X115848170Y-79124029D01*
X115882492Y-79186179D01*
X115885500Y-79213548D01*
X115885500Y-79483500D01*
X115865498Y-79551621D01*
X115811842Y-79598114D01*
X115759500Y-79609500D01*
X115728513Y-79609500D01*
X115722061Y-79610872D01*
X115722056Y-79610872D01*
X115649725Y-79626247D01*
X115623528Y-79629000D01*
X115392518Y-79629000D01*
X115324397Y-79608998D01*
X115303500Y-79592173D01*
X115266883Y-79555619D01*
X115266878Y-79555615D01*
X115261702Y-79550448D01*
X115255471Y-79546607D01*
X115122331Y-79464538D01*
X115122329Y-79464537D01*
X115116101Y-79460698D01*
X114953757Y-79406851D01*
X114946920Y-79406151D01*
X114946918Y-79406150D01*
X114905599Y-79401917D01*
X114852732Y-79396500D01*
X114255268Y-79396500D01*
X114252022Y-79396837D01*
X114252018Y-79396837D01*
X114217917Y-79400375D01*
X114152981Y-79407113D01*
X114146440Y-79409295D01*
X114146441Y-79409295D01*
X113997676Y-79458927D01*
X113997674Y-79458928D01*
X113990732Y-79461244D01*
X113984508Y-79465096D01*
X113984507Y-79465096D01*
X113852787Y-79546607D01*
X113845287Y-79551248D01*
X113804587Y-79592019D01*
X113742307Y-79626097D01*
X113715416Y-79629000D01*
X113449967Y-79629000D01*
X113381846Y-79608998D01*
X113360949Y-79592173D01*
X113353163Y-79584400D01*
X113264303Y-79495695D01*
X113244519Y-79483500D01*
X113119968Y-79406725D01*
X113119966Y-79406724D01*
X113113738Y-79402885D01*
X112953254Y-79349655D01*
X112952389Y-79349368D01*
X112952387Y-79349368D01*
X112945861Y-79347203D01*
X112939025Y-79346503D01*
X112939022Y-79346502D01*
X112895969Y-79342091D01*
X112841400Y-79336500D01*
X111440600Y-79336500D01*
X111437354Y-79336837D01*
X111437350Y-79336837D01*
X111341692Y-79346762D01*
X111341688Y-79346763D01*
X111334834Y-79347474D01*
X111328298Y-79349655D01*
X111328296Y-79349655D01*
X111196194Y-79393728D01*
X111167054Y-79403450D01*
X111016652Y-79496522D01*
X111011483Y-79501700D01*
X111011478Y-79501704D01*
X110962780Y-79550487D01*
X110900497Y-79584565D01*
X110847411Y-79584715D01*
X110739944Y-79561872D01*
X110739939Y-79561872D01*
X110733487Y-79560500D01*
X110542513Y-79560500D01*
X110536061Y-79561872D01*
X110536056Y-79561872D01*
X110428591Y-79584715D01*
X110355712Y-79600206D01*
X110349679Y-79602892D01*
X110349676Y-79602893D01*
X110315505Y-79618107D01*
X110264257Y-79629000D01*
X107822000Y-79629000D01*
X107753879Y-79608998D01*
X107707386Y-79555342D01*
X107696000Y-79503000D01*
X107696000Y-76834500D01*
X107716002Y-76766379D01*
X107769658Y-76719886D01*
X107822000Y-76708500D01*
X115828012Y-76708500D01*
X115896133Y-76728502D01*
G37*
%TD.AperFunction*%
%TD*%
%TA.AperFunction,Conductor*%
%TO.N,VBUS*%
G36*
X125583621Y-82697002D02*
G01*
X125630114Y-82750658D01*
X125641500Y-82803000D01*
X125641500Y-83335034D01*
X125648255Y-83397216D01*
X125699385Y-83533605D01*
X125786739Y-83650161D01*
X125903295Y-83737515D01*
X126039684Y-83788645D01*
X126101866Y-83795400D01*
X126898134Y-83795400D01*
X126960316Y-83788645D01*
X126967715Y-83785871D01*
X126970854Y-83785125D01*
X127029146Y-83785125D01*
X127032285Y-83785871D01*
X127039684Y-83788645D01*
X127101866Y-83795400D01*
X127898134Y-83795400D01*
X127960316Y-83788645D01*
X128096705Y-83737515D01*
X128213261Y-83650161D01*
X128300615Y-83533605D01*
X128351745Y-83397216D01*
X128358500Y-83335034D01*
X128358500Y-82803000D01*
X128378502Y-82734879D01*
X128432158Y-82688386D01*
X128484500Y-82677000D01*
X128715500Y-82677000D01*
X128783621Y-82697002D01*
X128830114Y-82750658D01*
X128841500Y-82803000D01*
X128841500Y-83335034D01*
X128848255Y-83397216D01*
X128899385Y-83533605D01*
X128986739Y-83650161D01*
X129103295Y-83737515D01*
X129239684Y-83788645D01*
X129301866Y-83795400D01*
X129336210Y-83795400D01*
X129404331Y-83815402D01*
X129425305Y-83832305D01*
X129921000Y-84328000D01*
X130811000Y-84328000D01*
X130879121Y-84348002D01*
X130925614Y-84401658D01*
X130937000Y-84454000D01*
X130937000Y-86996000D01*
X130916998Y-87064121D01*
X130863342Y-87110614D01*
X130811000Y-87122000D01*
X126754985Y-87122000D01*
X126686864Y-87101998D01*
X126640371Y-87048342D01*
X126630267Y-86978068D01*
X126659761Y-86913488D01*
X126665812Y-86906982D01*
X126767134Y-86805483D01*
X126772305Y-86800303D01*
X126865115Y-86649738D01*
X126920797Y-86481861D01*
X126931500Y-86377400D01*
X126931500Y-85326600D01*
X126920526Y-85220834D01*
X126864550Y-85053054D01*
X126771478Y-84902652D01*
X126646303Y-84777695D01*
X126495738Y-84684885D01*
X126415995Y-84658436D01*
X126334389Y-84631368D01*
X126334387Y-84631368D01*
X126327861Y-84629203D01*
X126321022Y-84628502D01*
X126314290Y-84627059D01*
X126314782Y-84624766D01*
X126259179Y-84602061D01*
X126251471Y-84595172D01*
X126250812Y-84594812D01*
X126238000Y-84582000D01*
X125221000Y-84582000D01*
X125152879Y-84561998D01*
X125106386Y-84508342D01*
X125095000Y-84456000D01*
X125095000Y-83571425D01*
X125103018Y-83527195D01*
X125103767Y-83525197D01*
X125151745Y-83397216D01*
X125158500Y-83335034D01*
X125158500Y-82803000D01*
X125178502Y-82734879D01*
X125232158Y-82688386D01*
X125284500Y-82677000D01*
X125515500Y-82677000D01*
X125583621Y-82697002D01*
G37*
%TD.AperFunction*%
%TD*%
%TA.AperFunction,Conductor*%
%TO.N,+5V*%
G36*
X135669260Y-82824002D02*
G01*
X135679232Y-82831119D01*
X135680516Y-82832133D01*
X135685697Y-82837305D01*
X135691927Y-82841145D01*
X135829090Y-82925694D01*
X135836262Y-82930115D01*
X135931308Y-82961640D01*
X135989668Y-83002070D01*
X136016905Y-83067634D01*
X136017641Y-83080941D01*
X136021878Y-84910349D01*
X136002033Y-84978516D01*
X135984623Y-85000085D01*
X135824170Y-85159284D01*
X135775302Y-85189363D01*
X135770007Y-85191130D01*
X135770005Y-85191131D01*
X135763054Y-85193450D01*
X135612652Y-85286522D01*
X135487695Y-85411697D01*
X135394885Y-85562262D01*
X135383537Y-85596475D01*
X135381901Y-85595932D01*
X135380855Y-85600726D01*
X135382000Y-85601106D01*
X135382000Y-85601109D01*
X135379433Y-85608849D01*
X135378733Y-85610451D01*
X135378410Y-85611930D01*
X135377088Y-85615914D01*
X135377086Y-85615926D01*
X135375784Y-85619851D01*
X135375781Y-85619856D01*
X135341369Y-85723608D01*
X135339203Y-85730139D01*
X135328500Y-85834600D01*
X135328500Y-86885400D01*
X135328837Y-86888644D01*
X135328837Y-86888652D01*
X135338626Y-86982997D01*
X135325761Y-87052818D01*
X135277190Y-87104600D01*
X135213299Y-87122000D01*
X131571000Y-87122000D01*
X131502879Y-87101998D01*
X131456386Y-87048342D01*
X131445000Y-86996000D01*
X131445000Y-85015190D01*
X131465002Y-84947069D01*
X131481905Y-84926095D01*
X132043095Y-84364905D01*
X132105407Y-84330879D01*
X132132190Y-84328000D01*
X132715000Y-84328000D01*
X133320356Y-83722644D01*
X133333886Y-83710913D01*
X133381077Y-83675545D01*
X133388261Y-83670161D01*
X133393642Y-83662981D01*
X133393647Y-83662976D01*
X133413913Y-83635935D01*
X133470772Y-83593420D01*
X133514739Y-83585500D01*
X133699487Y-83585500D01*
X133705939Y-83584128D01*
X133705944Y-83584128D01*
X133792888Y-83565647D01*
X133886288Y-83545794D01*
X133892319Y-83543109D01*
X134054722Y-83470803D01*
X134054724Y-83470802D01*
X134060752Y-83468118D01*
X134215253Y-83355866D01*
X134343040Y-83213944D01*
X134432209Y-83059499D01*
X134483590Y-83010507D01*
X134541327Y-82996500D01*
X134909400Y-82996500D01*
X134912646Y-82996163D01*
X134912650Y-82996163D01*
X135008308Y-82986238D01*
X135008312Y-82986237D01*
X135015166Y-82985526D01*
X135021702Y-82983345D01*
X135021704Y-82983345D01*
X135153806Y-82939272D01*
X135182946Y-82929550D01*
X135265537Y-82878441D01*
X135327121Y-82840332D01*
X135327124Y-82840329D01*
X135333348Y-82836478D01*
X135338521Y-82831296D01*
X135338574Y-82831254D01*
X135404385Y-82804617D01*
X135416838Y-82804000D01*
X135601139Y-82804000D01*
X135669260Y-82824002D01*
G37*
%TD.AperFunction*%
%TD*%
%TA.AperFunction,Conductor*%
%TO.N,+5V*%
G36*
X146119121Y-83205002D02*
G01*
X146165614Y-83258658D01*
X146177000Y-83311000D01*
X146177000Y-83767810D01*
X146156998Y-83835931D01*
X146140095Y-83856905D01*
X143292905Y-86704095D01*
X143230593Y-86738121D01*
X143203810Y-86741000D01*
X140387190Y-86741000D01*
X140319069Y-86720998D01*
X140298095Y-86704095D01*
X138720905Y-85126905D01*
X138686879Y-85064593D01*
X138684000Y-85037810D01*
X138684000Y-83692000D01*
X138704002Y-83623879D01*
X138757658Y-83577386D01*
X138810000Y-83566000D01*
X139394758Y-83566000D01*
X139434424Y-83572407D01*
X139554243Y-83612149D01*
X139561080Y-83612849D01*
X139561082Y-83612850D01*
X139602401Y-83617083D01*
X139655268Y-83622500D01*
X140252732Y-83622500D01*
X140255978Y-83622163D01*
X140255982Y-83622163D01*
X140292064Y-83618419D01*
X140355019Y-83611887D01*
X140473144Y-83572477D01*
X140513021Y-83566000D01*
X141150247Y-83566000D01*
X141216361Y-83584739D01*
X141267262Y-83616115D01*
X141290670Y-83623879D01*
X141428611Y-83669632D01*
X141428613Y-83669632D01*
X141435139Y-83671797D01*
X141441975Y-83672497D01*
X141441978Y-83672498D01*
X141485031Y-83676909D01*
X141539600Y-83682500D01*
X142940400Y-83682500D01*
X142943646Y-83682163D01*
X142943650Y-83682163D01*
X143039308Y-83672238D01*
X143039312Y-83672237D01*
X143046166Y-83671526D01*
X143052702Y-83669345D01*
X143052704Y-83669345D01*
X143193114Y-83622500D01*
X143213946Y-83615550D01*
X143364348Y-83522478D01*
X143406834Y-83479917D01*
X143431179Y-83460893D01*
X143861074Y-83202955D01*
X143925899Y-83185000D01*
X146051000Y-83185000D01*
X146119121Y-83205002D01*
G37*
%TD.AperFunction*%
%TD*%
%TA.AperFunction,Conductor*%
%TO.N,+3.3V*%
G36*
X141216361Y-78758739D02*
G01*
X141267262Y-78790115D01*
X141347005Y-78816564D01*
X141428611Y-78843632D01*
X141428613Y-78843632D01*
X141435139Y-78845797D01*
X141441975Y-78846497D01*
X141441978Y-78846498D01*
X141485031Y-78850909D01*
X141539600Y-78856500D01*
X142718411Y-78856500D01*
X142786532Y-78876502D01*
X142798199Y-78884981D01*
X143568155Y-79514946D01*
X143606349Y-79568235D01*
X143623224Y-79613249D01*
X143656385Y-79701705D01*
X143743739Y-79818261D01*
X143860295Y-79905615D01*
X143996684Y-79956745D01*
X144058866Y-79963500D01*
X146305000Y-79963500D01*
X146373121Y-79983502D01*
X146419614Y-80037158D01*
X146431000Y-80089500D01*
X146431000Y-81493584D01*
X146410998Y-81561705D01*
X146398636Y-81577894D01*
X146286448Y-81702492D01*
X146272884Y-81717556D01*
X146232213Y-81788000D01*
X146190501Y-81860248D01*
X146177397Y-81882944D01*
X146118382Y-82064572D01*
X146098420Y-82254500D01*
X146099110Y-82261064D01*
X146114851Y-82410829D01*
X146102079Y-82480668D01*
X146053577Y-82532514D01*
X145989541Y-82550000D01*
X143950015Y-82550000D01*
X143881894Y-82529998D01*
X143853219Y-82504663D01*
X143677140Y-82293368D01*
X143648896Y-82228231D01*
X143648500Y-82223719D01*
X143648500Y-82223600D01*
X143637526Y-82117834D01*
X143619757Y-82064572D01*
X143583868Y-81957002D01*
X143581550Y-81950054D01*
X143488478Y-81799652D01*
X143363303Y-81674695D01*
X143238998Y-81598072D01*
X143218968Y-81585725D01*
X143218966Y-81585724D01*
X143212738Y-81581885D01*
X143129288Y-81554206D01*
X143051389Y-81528368D01*
X143051387Y-81528368D01*
X143044861Y-81526203D01*
X143038025Y-81525503D01*
X143038022Y-81525502D01*
X142994969Y-81521091D01*
X142940400Y-81515500D01*
X142104595Y-81515500D01*
X142036474Y-81495498D01*
X142015500Y-81478595D01*
X141932652Y-81395747D01*
X141925112Y-81387461D01*
X141921000Y-81380982D01*
X141912833Y-81373313D01*
X141889971Y-81344467D01*
X141839341Y-81256774D01*
X141836040Y-81251056D01*
X141780980Y-81189905D01*
X141712675Y-81114045D01*
X141712674Y-81114044D01*
X141708253Y-81109134D01*
X141553752Y-80996882D01*
X141547724Y-80994198D01*
X141547722Y-80994197D01*
X141385319Y-80921891D01*
X141385318Y-80921891D01*
X141379288Y-80919206D01*
X141285888Y-80899353D01*
X141198944Y-80880872D01*
X141198939Y-80880872D01*
X141192487Y-80879500D01*
X141001513Y-80879500D01*
X140995061Y-80880872D01*
X140995056Y-80880872D01*
X140908112Y-80899353D01*
X140814712Y-80919206D01*
X140808682Y-80921891D01*
X140808681Y-80921891D01*
X140646278Y-80994197D01*
X140646276Y-80994198D01*
X140640248Y-80996882D01*
X140485747Y-81109134D01*
X140481326Y-81114044D01*
X140481325Y-81114045D01*
X140413021Y-81189905D01*
X140357960Y-81251056D01*
X140262473Y-81416444D01*
X140203458Y-81598072D01*
X140202768Y-81604637D01*
X140202542Y-81605700D01*
X140168812Y-81668172D01*
X140106662Y-81702492D01*
X140079296Y-81705500D01*
X139655268Y-81705500D01*
X139652022Y-81705837D01*
X139652018Y-81705837D01*
X139617917Y-81709375D01*
X139552981Y-81716113D01*
X139390732Y-81770244D01*
X139384512Y-81774093D01*
X139380223Y-81776102D01*
X139326776Y-81788000D01*
X139244190Y-81788000D01*
X139176069Y-81767998D01*
X139155095Y-81751095D01*
X138593905Y-81189905D01*
X138559879Y-81127593D01*
X138557000Y-81100810D01*
X138557000Y-79965000D01*
X138577002Y-79896879D01*
X138630658Y-79850386D01*
X138683000Y-79839000D01*
X138715987Y-79839000D01*
X138722439Y-79837628D01*
X138722444Y-79837628D01*
X138813556Y-79818261D01*
X138902788Y-79799294D01*
X138908819Y-79796609D01*
X139071222Y-79724303D01*
X139071224Y-79724302D01*
X139077252Y-79721618D01*
X139231753Y-79609366D01*
X139256881Y-79581459D01*
X139355121Y-79472352D01*
X139355122Y-79472351D01*
X139359540Y-79467444D01*
X139455027Y-79302056D01*
X139514042Y-79120428D01*
X139531407Y-78955206D01*
X139558420Y-78889550D01*
X139567622Y-78879282D01*
X139613499Y-78833405D01*
X139675811Y-78799379D01*
X139702594Y-78796500D01*
X140252732Y-78796500D01*
X140255978Y-78796163D01*
X140255982Y-78796163D01*
X140292064Y-78792419D01*
X140355019Y-78785887D01*
X140473144Y-78746477D01*
X140513021Y-78740000D01*
X141150247Y-78740000D01*
X141216361Y-78758739D01*
G37*
%TD.AperFunction*%
%TD*%
M02*
