%TF.GenerationSoftware,KiCad,Pcbnew,(7.0.0-0)*%
%TF.CreationDate,2023-05-25T14:02:10-06:00*%
%TF.ProjectId,Breadboard Power Supply,42726561-6462-46f6-9172-6420506f7765,v7*%
%TF.SameCoordinates,Original*%
%TF.FileFunction,Legend,Bot*%
%TF.FilePolarity,Positive*%
%FSLAX46Y46*%
G04 Gerber Fmt 4.6, Leading zero omitted, Abs format (unit mm)*
G04 Created by KiCad (PCBNEW (7.0.0-0)) date 2023-05-25 14:02:10*
%MOMM*%
%LPD*%
G01*
G04 APERTURE LIST*
%ADD10C,0.300000*%
%ADD11C,0.100000*%
%ADD12C,0.150000*%
%ADD13C,0.010000*%
%ADD14C,0.120000*%
G04 APERTURE END LIST*
D10*
X153490714Y-76837357D02*
X153276428Y-76908785D01*
X153276428Y-76908785D02*
X153204999Y-76980214D01*
X153204999Y-76980214D02*
X153133571Y-77123071D01*
X153133571Y-77123071D02*
X153133571Y-77337357D01*
X153133571Y-77337357D02*
X153204999Y-77480214D01*
X153204999Y-77480214D02*
X153276428Y-77551642D01*
X153276428Y-77551642D02*
X153419285Y-77623071D01*
X153419285Y-77623071D02*
X153990714Y-77623071D01*
X153990714Y-77623071D02*
X153990714Y-76123071D01*
X153990714Y-76123071D02*
X153490714Y-76123071D01*
X153490714Y-76123071D02*
X153347857Y-76194500D01*
X153347857Y-76194500D02*
X153276428Y-76265928D01*
X153276428Y-76265928D02*
X153204999Y-76408785D01*
X153204999Y-76408785D02*
X153204999Y-76551642D01*
X153204999Y-76551642D02*
X153276428Y-76694500D01*
X153276428Y-76694500D02*
X153347857Y-76765928D01*
X153347857Y-76765928D02*
X153490714Y-76837357D01*
X153490714Y-76837357D02*
X153990714Y-76837357D01*
X152490714Y-77623071D02*
X152490714Y-76623071D01*
X152490714Y-76908785D02*
X152419285Y-76765928D01*
X152419285Y-76765928D02*
X152347857Y-76694500D01*
X152347857Y-76694500D02*
X152204999Y-76623071D01*
X152204999Y-76623071D02*
X152062142Y-76623071D01*
X150990714Y-77551642D02*
X151133571Y-77623071D01*
X151133571Y-77623071D02*
X151419286Y-77623071D01*
X151419286Y-77623071D02*
X151562143Y-77551642D01*
X151562143Y-77551642D02*
X151633571Y-77408785D01*
X151633571Y-77408785D02*
X151633571Y-76837357D01*
X151633571Y-76837357D02*
X151562143Y-76694500D01*
X151562143Y-76694500D02*
X151419286Y-76623071D01*
X151419286Y-76623071D02*
X151133571Y-76623071D01*
X151133571Y-76623071D02*
X150990714Y-76694500D01*
X150990714Y-76694500D02*
X150919286Y-76837357D01*
X150919286Y-76837357D02*
X150919286Y-76980214D01*
X150919286Y-76980214D02*
X151633571Y-77123071D01*
X149633572Y-77623071D02*
X149633572Y-76837357D01*
X149633572Y-76837357D02*
X149705000Y-76694500D01*
X149705000Y-76694500D02*
X149847857Y-76623071D01*
X149847857Y-76623071D02*
X150133572Y-76623071D01*
X150133572Y-76623071D02*
X150276429Y-76694500D01*
X149633572Y-77551642D02*
X149776429Y-77623071D01*
X149776429Y-77623071D02*
X150133572Y-77623071D01*
X150133572Y-77623071D02*
X150276429Y-77551642D01*
X150276429Y-77551642D02*
X150347857Y-77408785D01*
X150347857Y-77408785D02*
X150347857Y-77265928D01*
X150347857Y-77265928D02*
X150276429Y-77123071D01*
X150276429Y-77123071D02*
X150133572Y-77051642D01*
X150133572Y-77051642D02*
X149776429Y-77051642D01*
X149776429Y-77051642D02*
X149633572Y-76980214D01*
X148276429Y-77623071D02*
X148276429Y-76123071D01*
X148276429Y-77551642D02*
X148419286Y-77623071D01*
X148419286Y-77623071D02*
X148705000Y-77623071D01*
X148705000Y-77623071D02*
X148847857Y-77551642D01*
X148847857Y-77551642D02*
X148919286Y-77480214D01*
X148919286Y-77480214D02*
X148990714Y-77337357D01*
X148990714Y-77337357D02*
X148990714Y-76908785D01*
X148990714Y-76908785D02*
X148919286Y-76765928D01*
X148919286Y-76765928D02*
X148847857Y-76694500D01*
X148847857Y-76694500D02*
X148705000Y-76623071D01*
X148705000Y-76623071D02*
X148419286Y-76623071D01*
X148419286Y-76623071D02*
X148276429Y-76694500D01*
X147562143Y-77623071D02*
X147562143Y-76123071D01*
X147562143Y-76694500D02*
X147419286Y-76623071D01*
X147419286Y-76623071D02*
X147133571Y-76623071D01*
X147133571Y-76623071D02*
X146990714Y-76694500D01*
X146990714Y-76694500D02*
X146919286Y-76765928D01*
X146919286Y-76765928D02*
X146847857Y-76908785D01*
X146847857Y-76908785D02*
X146847857Y-77337357D01*
X146847857Y-77337357D02*
X146919286Y-77480214D01*
X146919286Y-77480214D02*
X146990714Y-77551642D01*
X146990714Y-77551642D02*
X147133571Y-77623071D01*
X147133571Y-77623071D02*
X147419286Y-77623071D01*
X147419286Y-77623071D02*
X147562143Y-77551642D01*
X145990714Y-77623071D02*
X146133571Y-77551642D01*
X146133571Y-77551642D02*
X146205000Y-77480214D01*
X146205000Y-77480214D02*
X146276428Y-77337357D01*
X146276428Y-77337357D02*
X146276428Y-76908785D01*
X146276428Y-76908785D02*
X146205000Y-76765928D01*
X146205000Y-76765928D02*
X146133571Y-76694500D01*
X146133571Y-76694500D02*
X145990714Y-76623071D01*
X145990714Y-76623071D02*
X145776428Y-76623071D01*
X145776428Y-76623071D02*
X145633571Y-76694500D01*
X145633571Y-76694500D02*
X145562143Y-76765928D01*
X145562143Y-76765928D02*
X145490714Y-76908785D01*
X145490714Y-76908785D02*
X145490714Y-77337357D01*
X145490714Y-77337357D02*
X145562143Y-77480214D01*
X145562143Y-77480214D02*
X145633571Y-77551642D01*
X145633571Y-77551642D02*
X145776428Y-77623071D01*
X145776428Y-77623071D02*
X145990714Y-77623071D01*
X144205000Y-77623071D02*
X144205000Y-76837357D01*
X144205000Y-76837357D02*
X144276428Y-76694500D01*
X144276428Y-76694500D02*
X144419285Y-76623071D01*
X144419285Y-76623071D02*
X144705000Y-76623071D01*
X144705000Y-76623071D02*
X144847857Y-76694500D01*
X144205000Y-77551642D02*
X144347857Y-77623071D01*
X144347857Y-77623071D02*
X144705000Y-77623071D01*
X144705000Y-77623071D02*
X144847857Y-77551642D01*
X144847857Y-77551642D02*
X144919285Y-77408785D01*
X144919285Y-77408785D02*
X144919285Y-77265928D01*
X144919285Y-77265928D02*
X144847857Y-77123071D01*
X144847857Y-77123071D02*
X144705000Y-77051642D01*
X144705000Y-77051642D02*
X144347857Y-77051642D01*
X144347857Y-77051642D02*
X144205000Y-76980214D01*
X143490714Y-77623071D02*
X143490714Y-76623071D01*
X143490714Y-76908785D02*
X143419285Y-76765928D01*
X143419285Y-76765928D02*
X143347857Y-76694500D01*
X143347857Y-76694500D02*
X143204999Y-76623071D01*
X143204999Y-76623071D02*
X143062142Y-76623071D01*
X141919286Y-77623071D02*
X141919286Y-76123071D01*
X141919286Y-77551642D02*
X142062143Y-77623071D01*
X142062143Y-77623071D02*
X142347857Y-77623071D01*
X142347857Y-77623071D02*
X142490714Y-77551642D01*
X142490714Y-77551642D02*
X142562143Y-77480214D01*
X142562143Y-77480214D02*
X142633571Y-77337357D01*
X142633571Y-77337357D02*
X142633571Y-76908785D01*
X142633571Y-76908785D02*
X142562143Y-76765928D01*
X142562143Y-76765928D02*
X142490714Y-76694500D01*
X142490714Y-76694500D02*
X142347857Y-76623071D01*
X142347857Y-76623071D02*
X142062143Y-76623071D01*
X142062143Y-76623071D02*
X141919286Y-76694500D01*
X150919285Y-80053071D02*
X150919285Y-78553071D01*
X150919285Y-78553071D02*
X150347856Y-78553071D01*
X150347856Y-78553071D02*
X150204999Y-78624500D01*
X150204999Y-78624500D02*
X150133570Y-78695928D01*
X150133570Y-78695928D02*
X150062142Y-78838785D01*
X150062142Y-78838785D02*
X150062142Y-79053071D01*
X150062142Y-79053071D02*
X150133570Y-79195928D01*
X150133570Y-79195928D02*
X150204999Y-79267357D01*
X150204999Y-79267357D02*
X150347856Y-79338785D01*
X150347856Y-79338785D02*
X150919285Y-79338785D01*
X149204999Y-80053071D02*
X149347856Y-79981642D01*
X149347856Y-79981642D02*
X149419285Y-79910214D01*
X149419285Y-79910214D02*
X149490713Y-79767357D01*
X149490713Y-79767357D02*
X149490713Y-79338785D01*
X149490713Y-79338785D02*
X149419285Y-79195928D01*
X149419285Y-79195928D02*
X149347856Y-79124500D01*
X149347856Y-79124500D02*
X149204999Y-79053071D01*
X149204999Y-79053071D02*
X148990713Y-79053071D01*
X148990713Y-79053071D02*
X148847856Y-79124500D01*
X148847856Y-79124500D02*
X148776428Y-79195928D01*
X148776428Y-79195928D02*
X148704999Y-79338785D01*
X148704999Y-79338785D02*
X148704999Y-79767357D01*
X148704999Y-79767357D02*
X148776428Y-79910214D01*
X148776428Y-79910214D02*
X148847856Y-79981642D01*
X148847856Y-79981642D02*
X148990713Y-80053071D01*
X148990713Y-80053071D02*
X149204999Y-80053071D01*
X148204999Y-79053071D02*
X147919285Y-80053071D01*
X147919285Y-80053071D02*
X147633570Y-79338785D01*
X147633570Y-79338785D02*
X147347856Y-80053071D01*
X147347856Y-80053071D02*
X147062142Y-79053071D01*
X145919284Y-79981642D02*
X146062141Y-80053071D01*
X146062141Y-80053071D02*
X146347856Y-80053071D01*
X146347856Y-80053071D02*
X146490713Y-79981642D01*
X146490713Y-79981642D02*
X146562141Y-79838785D01*
X146562141Y-79838785D02*
X146562141Y-79267357D01*
X146562141Y-79267357D02*
X146490713Y-79124500D01*
X146490713Y-79124500D02*
X146347856Y-79053071D01*
X146347856Y-79053071D02*
X146062141Y-79053071D01*
X146062141Y-79053071D02*
X145919284Y-79124500D01*
X145919284Y-79124500D02*
X145847856Y-79267357D01*
X145847856Y-79267357D02*
X145847856Y-79410214D01*
X145847856Y-79410214D02*
X146562141Y-79553071D01*
X145204999Y-80053071D02*
X145204999Y-79053071D01*
X145204999Y-79338785D02*
X145133570Y-79195928D01*
X145133570Y-79195928D02*
X145062142Y-79124500D01*
X145062142Y-79124500D02*
X144919284Y-79053071D01*
X144919284Y-79053071D02*
X144776427Y-79053071D01*
X151383570Y-82411642D02*
X151169285Y-82483071D01*
X151169285Y-82483071D02*
X150812142Y-82483071D01*
X150812142Y-82483071D02*
X150669285Y-82411642D01*
X150669285Y-82411642D02*
X150597856Y-82340214D01*
X150597856Y-82340214D02*
X150526427Y-82197357D01*
X150526427Y-82197357D02*
X150526427Y-82054500D01*
X150526427Y-82054500D02*
X150597856Y-81911642D01*
X150597856Y-81911642D02*
X150669285Y-81840214D01*
X150669285Y-81840214D02*
X150812142Y-81768785D01*
X150812142Y-81768785D02*
X151097856Y-81697357D01*
X151097856Y-81697357D02*
X151240713Y-81625928D01*
X151240713Y-81625928D02*
X151312142Y-81554500D01*
X151312142Y-81554500D02*
X151383570Y-81411642D01*
X151383570Y-81411642D02*
X151383570Y-81268785D01*
X151383570Y-81268785D02*
X151312142Y-81125928D01*
X151312142Y-81125928D02*
X151240713Y-81054500D01*
X151240713Y-81054500D02*
X151097856Y-80983071D01*
X151097856Y-80983071D02*
X150740713Y-80983071D01*
X150740713Y-80983071D02*
X150526427Y-81054500D01*
X149240714Y-81483071D02*
X149240714Y-82483071D01*
X149883571Y-81483071D02*
X149883571Y-82268785D01*
X149883571Y-82268785D02*
X149812142Y-82411642D01*
X149812142Y-82411642D02*
X149669285Y-82483071D01*
X149669285Y-82483071D02*
X149454999Y-82483071D01*
X149454999Y-82483071D02*
X149312142Y-82411642D01*
X149312142Y-82411642D02*
X149240714Y-82340214D01*
X148526428Y-81483071D02*
X148526428Y-82983071D01*
X148526428Y-81554500D02*
X148383571Y-81483071D01*
X148383571Y-81483071D02*
X148097856Y-81483071D01*
X148097856Y-81483071D02*
X147954999Y-81554500D01*
X147954999Y-81554500D02*
X147883571Y-81625928D01*
X147883571Y-81625928D02*
X147812142Y-81768785D01*
X147812142Y-81768785D02*
X147812142Y-82197357D01*
X147812142Y-82197357D02*
X147883571Y-82340214D01*
X147883571Y-82340214D02*
X147954999Y-82411642D01*
X147954999Y-82411642D02*
X148097856Y-82483071D01*
X148097856Y-82483071D02*
X148383571Y-82483071D01*
X148383571Y-82483071D02*
X148526428Y-82411642D01*
X147169285Y-81483071D02*
X147169285Y-82983071D01*
X147169285Y-81554500D02*
X147026428Y-81483071D01*
X147026428Y-81483071D02*
X146740713Y-81483071D01*
X146740713Y-81483071D02*
X146597856Y-81554500D01*
X146597856Y-81554500D02*
X146526428Y-81625928D01*
X146526428Y-81625928D02*
X146454999Y-81768785D01*
X146454999Y-81768785D02*
X146454999Y-82197357D01*
X146454999Y-82197357D02*
X146526428Y-82340214D01*
X146526428Y-82340214D02*
X146597856Y-82411642D01*
X146597856Y-82411642D02*
X146740713Y-82483071D01*
X146740713Y-82483071D02*
X147026428Y-82483071D01*
X147026428Y-82483071D02*
X147169285Y-82411642D01*
X145597856Y-82483071D02*
X145740713Y-82411642D01*
X145740713Y-82411642D02*
X145812142Y-82268785D01*
X145812142Y-82268785D02*
X145812142Y-80983071D01*
X145169285Y-81483071D02*
X144812142Y-82483071D01*
X144454999Y-81483071D02*
X144812142Y-82483071D01*
X144812142Y-82483071D02*
X144954999Y-82840214D01*
X144954999Y-82840214D02*
X145026428Y-82911642D01*
X145026428Y-82911642D02*
X145169285Y-82983071D01*
D11*
X113607238Y-82160571D02*
X113607238Y-82808190D01*
X113607238Y-82808190D02*
X113645333Y-82884380D01*
X113645333Y-82884380D02*
X113683429Y-82922476D01*
X113683429Y-82922476D02*
X113759619Y-82960571D01*
X113759619Y-82960571D02*
X113873905Y-82960571D01*
X113873905Y-82960571D02*
X113950095Y-82922476D01*
X113607238Y-82655809D02*
X113683429Y-82693904D01*
X113683429Y-82693904D02*
X113835810Y-82693904D01*
X113835810Y-82693904D02*
X113912000Y-82655809D01*
X113912000Y-82655809D02*
X113950095Y-82617714D01*
X113950095Y-82617714D02*
X113988191Y-82541523D01*
X113988191Y-82541523D02*
X113988191Y-82312952D01*
X113988191Y-82312952D02*
X113950095Y-82236761D01*
X113950095Y-82236761D02*
X113912000Y-82198666D01*
X113912000Y-82198666D02*
X113835810Y-82160571D01*
X113835810Y-82160571D02*
X113683429Y-82160571D01*
X113683429Y-82160571D02*
X113607238Y-82198666D01*
X113226285Y-82693904D02*
X113226285Y-82160571D01*
X113226285Y-81893904D02*
X113264381Y-81932000D01*
X113264381Y-81932000D02*
X113226285Y-81970095D01*
X113226285Y-81970095D02*
X113188190Y-81932000D01*
X113188190Y-81932000D02*
X113226285Y-81893904D01*
X113226285Y-81893904D02*
X113226285Y-81970095D01*
X112959619Y-82160571D02*
X112654857Y-82160571D01*
X112845333Y-81893904D02*
X112845333Y-82579619D01*
X112845333Y-82579619D02*
X112807238Y-82655809D01*
X112807238Y-82655809D02*
X112731048Y-82693904D01*
X112731048Y-82693904D02*
X112654857Y-82693904D01*
X112388190Y-82693904D02*
X112388190Y-81893904D01*
X112045333Y-82693904D02*
X112045333Y-82274857D01*
X112045333Y-82274857D02*
X112083428Y-82198666D01*
X112083428Y-82198666D02*
X112159619Y-82160571D01*
X112159619Y-82160571D02*
X112273905Y-82160571D01*
X112273905Y-82160571D02*
X112350095Y-82198666D01*
X112350095Y-82198666D02*
X112388190Y-82236761D01*
X111321523Y-82160571D02*
X111321523Y-82693904D01*
X111664380Y-82160571D02*
X111664380Y-82579619D01*
X111664380Y-82579619D02*
X111626285Y-82655809D01*
X111626285Y-82655809D02*
X111550095Y-82693904D01*
X111550095Y-82693904D02*
X111435809Y-82693904D01*
X111435809Y-82693904D02*
X111359618Y-82655809D01*
X111359618Y-82655809D02*
X111321523Y-82617714D01*
X110940570Y-82693904D02*
X110940570Y-81893904D01*
X110940570Y-82198666D02*
X110864380Y-82160571D01*
X110864380Y-82160571D02*
X110711999Y-82160571D01*
X110711999Y-82160571D02*
X110635808Y-82198666D01*
X110635808Y-82198666D02*
X110597713Y-82236761D01*
X110597713Y-82236761D02*
X110559618Y-82312952D01*
X110559618Y-82312952D02*
X110559618Y-82541523D01*
X110559618Y-82541523D02*
X110597713Y-82617714D01*
X110597713Y-82617714D02*
X110635808Y-82655809D01*
X110635808Y-82655809D02*
X110711999Y-82693904D01*
X110711999Y-82693904D02*
X110864380Y-82693904D01*
X110864380Y-82693904D02*
X110940570Y-82655809D01*
X110216760Y-82617714D02*
X110178665Y-82655809D01*
X110178665Y-82655809D02*
X110216760Y-82693904D01*
X110216760Y-82693904D02*
X110254856Y-82655809D01*
X110254856Y-82655809D02*
X110216760Y-82617714D01*
X110216760Y-82617714D02*
X110216760Y-82693904D01*
X109492951Y-82655809D02*
X109569142Y-82693904D01*
X109569142Y-82693904D02*
X109721523Y-82693904D01*
X109721523Y-82693904D02*
X109797713Y-82655809D01*
X109797713Y-82655809D02*
X109835808Y-82617714D01*
X109835808Y-82617714D02*
X109873904Y-82541523D01*
X109873904Y-82541523D02*
X109873904Y-82312952D01*
X109873904Y-82312952D02*
X109835808Y-82236761D01*
X109835808Y-82236761D02*
X109797713Y-82198666D01*
X109797713Y-82198666D02*
X109721523Y-82160571D01*
X109721523Y-82160571D02*
X109569142Y-82160571D01*
X109569142Y-82160571D02*
X109492951Y-82198666D01*
X109035809Y-82693904D02*
X109111999Y-82655809D01*
X109111999Y-82655809D02*
X109150094Y-82617714D01*
X109150094Y-82617714D02*
X109188190Y-82541523D01*
X109188190Y-82541523D02*
X109188190Y-82312952D01*
X109188190Y-82312952D02*
X109150094Y-82236761D01*
X109150094Y-82236761D02*
X109111999Y-82198666D01*
X109111999Y-82198666D02*
X109035809Y-82160571D01*
X109035809Y-82160571D02*
X108921523Y-82160571D01*
X108921523Y-82160571D02*
X108845332Y-82198666D01*
X108845332Y-82198666D02*
X108807237Y-82236761D01*
X108807237Y-82236761D02*
X108769142Y-82312952D01*
X108769142Y-82312952D02*
X108769142Y-82541523D01*
X108769142Y-82541523D02*
X108807237Y-82617714D01*
X108807237Y-82617714D02*
X108845332Y-82655809D01*
X108845332Y-82655809D02*
X108921523Y-82693904D01*
X108921523Y-82693904D02*
X109035809Y-82693904D01*
X108426284Y-82693904D02*
X108426284Y-82160571D01*
X108426284Y-82236761D02*
X108388189Y-82198666D01*
X108388189Y-82198666D02*
X108311999Y-82160571D01*
X108311999Y-82160571D02*
X108197713Y-82160571D01*
X108197713Y-82160571D02*
X108121522Y-82198666D01*
X108121522Y-82198666D02*
X108083427Y-82274857D01*
X108083427Y-82274857D02*
X108083427Y-82693904D01*
X108083427Y-82274857D02*
X108045332Y-82198666D01*
X108045332Y-82198666D02*
X107969141Y-82160571D01*
X107969141Y-82160571D02*
X107854856Y-82160571D01*
X107854856Y-82160571D02*
X107778665Y-82198666D01*
X107778665Y-82198666D02*
X107740570Y-82274857D01*
X107740570Y-82274857D02*
X107740570Y-82693904D01*
X106788189Y-81855809D02*
X107473903Y-82884380D01*
X106635808Y-82160571D02*
X106331046Y-82160571D01*
X106521522Y-81893904D02*
X106521522Y-82579619D01*
X106521522Y-82579619D02*
X106483427Y-82655809D01*
X106483427Y-82655809D02*
X106407237Y-82693904D01*
X106407237Y-82693904D02*
X106331046Y-82693904D01*
X106102475Y-82655809D02*
X106026284Y-82693904D01*
X106026284Y-82693904D02*
X105873903Y-82693904D01*
X105873903Y-82693904D02*
X105797713Y-82655809D01*
X105797713Y-82655809D02*
X105759617Y-82579619D01*
X105759617Y-82579619D02*
X105759617Y-82541523D01*
X105759617Y-82541523D02*
X105797713Y-82465333D01*
X105797713Y-82465333D02*
X105873903Y-82427238D01*
X105873903Y-82427238D02*
X105988189Y-82427238D01*
X105988189Y-82427238D02*
X106064379Y-82389142D01*
X106064379Y-82389142D02*
X106102475Y-82312952D01*
X106102475Y-82312952D02*
X106102475Y-82274857D01*
X106102475Y-82274857D02*
X106064379Y-82198666D01*
X106064379Y-82198666D02*
X105988189Y-82160571D01*
X105988189Y-82160571D02*
X105873903Y-82160571D01*
X105873903Y-82160571D02*
X105797713Y-82198666D01*
X105531046Y-82160571D02*
X105226284Y-82160571D01*
X105416760Y-81893904D02*
X105416760Y-82579619D01*
X105416760Y-82579619D02*
X105378665Y-82655809D01*
X105378665Y-82655809D02*
X105302475Y-82693904D01*
X105302475Y-82693904D02*
X105226284Y-82693904D01*
X104959617Y-82693904D02*
X104959617Y-82160571D01*
X104959617Y-81893904D02*
X104997713Y-81932000D01*
X104997713Y-81932000D02*
X104959617Y-81970095D01*
X104959617Y-81970095D02*
X104921522Y-81932000D01*
X104921522Y-81932000D02*
X104959617Y-81893904D01*
X104959617Y-81893904D02*
X104959617Y-81970095D01*
X104464380Y-82693904D02*
X104540570Y-82655809D01*
X104540570Y-82655809D02*
X104578665Y-82579619D01*
X104578665Y-82579619D02*
X104578665Y-81893904D01*
X104045332Y-82693904D02*
X104121522Y-82655809D01*
X104121522Y-82655809D02*
X104159617Y-82579619D01*
X104159617Y-82579619D02*
X104159617Y-81893904D01*
X103778665Y-82655809D02*
X103702474Y-82693904D01*
X103702474Y-82693904D02*
X103550093Y-82693904D01*
X103550093Y-82693904D02*
X103473903Y-82655809D01*
X103473903Y-82655809D02*
X103435807Y-82579619D01*
X103435807Y-82579619D02*
X103435807Y-82541523D01*
X103435807Y-82541523D02*
X103473903Y-82465333D01*
X103473903Y-82465333D02*
X103550093Y-82427238D01*
X103550093Y-82427238D02*
X103664379Y-82427238D01*
X103664379Y-82427238D02*
X103740569Y-82389142D01*
X103740569Y-82389142D02*
X103778665Y-82312952D01*
X103778665Y-82312952D02*
X103778665Y-82274857D01*
X103778665Y-82274857D02*
X103740569Y-82198666D01*
X103740569Y-82198666D02*
X103664379Y-82160571D01*
X103664379Y-82160571D02*
X103550093Y-82160571D01*
X103550093Y-82160571D02*
X103473903Y-82198666D01*
D12*
%TO.C,D2*%
X132397285Y-80250380D02*
X132397285Y-79250380D01*
X132397285Y-79250380D02*
X132159190Y-79250380D01*
X132159190Y-79250380D02*
X132016333Y-79298000D01*
X132016333Y-79298000D02*
X131921095Y-79393238D01*
X131921095Y-79393238D02*
X131873476Y-79488476D01*
X131873476Y-79488476D02*
X131825857Y-79678952D01*
X131825857Y-79678952D02*
X131825857Y-79821809D01*
X131825857Y-79821809D02*
X131873476Y-80012285D01*
X131873476Y-80012285D02*
X131921095Y-80107523D01*
X131921095Y-80107523D02*
X132016333Y-80202761D01*
X132016333Y-80202761D02*
X132159190Y-80250380D01*
X132159190Y-80250380D02*
X132397285Y-80250380D01*
X131444904Y-79345619D02*
X131397285Y-79298000D01*
X131397285Y-79298000D02*
X131302047Y-79250380D01*
X131302047Y-79250380D02*
X131063952Y-79250380D01*
X131063952Y-79250380D02*
X130968714Y-79298000D01*
X130968714Y-79298000D02*
X130921095Y-79345619D01*
X130921095Y-79345619D02*
X130873476Y-79440857D01*
X130873476Y-79440857D02*
X130873476Y-79536095D01*
X130873476Y-79536095D02*
X130921095Y-79678952D01*
X130921095Y-79678952D02*
X131492523Y-80250380D01*
X131492523Y-80250380D02*
X130873476Y-80250380D01*
D11*
%TO.C,J10*%
X118757619Y-80646904D02*
X118757619Y-81218333D01*
X118757619Y-81218333D02*
X118795714Y-81332619D01*
X118795714Y-81332619D02*
X118871905Y-81408809D01*
X118871905Y-81408809D02*
X118986190Y-81446904D01*
X118986190Y-81446904D02*
X119062381Y-81446904D01*
X117957619Y-81446904D02*
X118414762Y-81446904D01*
X118186190Y-81446904D02*
X118186190Y-80646904D01*
X118186190Y-80646904D02*
X118262381Y-80761190D01*
X118262381Y-80761190D02*
X118338571Y-80837380D01*
X118338571Y-80837380D02*
X118414762Y-80875476D01*
X117462380Y-80646904D02*
X117386190Y-80646904D01*
X117386190Y-80646904D02*
X117309999Y-80685000D01*
X117309999Y-80685000D02*
X117271904Y-80723095D01*
X117271904Y-80723095D02*
X117233809Y-80799285D01*
X117233809Y-80799285D02*
X117195714Y-80951666D01*
X117195714Y-80951666D02*
X117195714Y-81142142D01*
X117195714Y-81142142D02*
X117233809Y-81294523D01*
X117233809Y-81294523D02*
X117271904Y-81370714D01*
X117271904Y-81370714D02*
X117309999Y-81408809D01*
X117309999Y-81408809D02*
X117386190Y-81446904D01*
X117386190Y-81446904D02*
X117462380Y-81446904D01*
X117462380Y-81446904D02*
X117538571Y-81408809D01*
X117538571Y-81408809D02*
X117576666Y-81370714D01*
X117576666Y-81370714D02*
X117614761Y-81294523D01*
X117614761Y-81294523D02*
X117652857Y-81142142D01*
X117652857Y-81142142D02*
X117652857Y-80951666D01*
X117652857Y-80951666D02*
X117614761Y-80799285D01*
X117614761Y-80799285D02*
X117576666Y-80723095D01*
X117576666Y-80723095D02*
X117538571Y-80685000D01*
X117538571Y-80685000D02*
X117462380Y-80646904D01*
%TO.C,J8*%
X150634666Y-91314904D02*
X150634666Y-91886333D01*
X150634666Y-91886333D02*
X150672761Y-92000619D01*
X150672761Y-92000619D02*
X150748952Y-92076809D01*
X150748952Y-92076809D02*
X150863237Y-92114904D01*
X150863237Y-92114904D02*
X150939428Y-92114904D01*
X150139428Y-91657761D02*
X150215618Y-91619666D01*
X150215618Y-91619666D02*
X150253713Y-91581571D01*
X150253713Y-91581571D02*
X150291809Y-91505380D01*
X150291809Y-91505380D02*
X150291809Y-91467285D01*
X150291809Y-91467285D02*
X150253713Y-91391095D01*
X150253713Y-91391095D02*
X150215618Y-91353000D01*
X150215618Y-91353000D02*
X150139428Y-91314904D01*
X150139428Y-91314904D02*
X149987047Y-91314904D01*
X149987047Y-91314904D02*
X149910856Y-91353000D01*
X149910856Y-91353000D02*
X149872761Y-91391095D01*
X149872761Y-91391095D02*
X149834666Y-91467285D01*
X149834666Y-91467285D02*
X149834666Y-91505380D01*
X149834666Y-91505380D02*
X149872761Y-91581571D01*
X149872761Y-91581571D02*
X149910856Y-91619666D01*
X149910856Y-91619666D02*
X149987047Y-91657761D01*
X149987047Y-91657761D02*
X150139428Y-91657761D01*
X150139428Y-91657761D02*
X150215618Y-91695857D01*
X150215618Y-91695857D02*
X150253713Y-91733952D01*
X150253713Y-91733952D02*
X150291809Y-91810142D01*
X150291809Y-91810142D02*
X150291809Y-91962523D01*
X150291809Y-91962523D02*
X150253713Y-92038714D01*
X150253713Y-92038714D02*
X150215618Y-92076809D01*
X150215618Y-92076809D02*
X150139428Y-92114904D01*
X150139428Y-92114904D02*
X149987047Y-92114904D01*
X149987047Y-92114904D02*
X149910856Y-92076809D01*
X149910856Y-92076809D02*
X149872761Y-92038714D01*
X149872761Y-92038714D02*
X149834666Y-91962523D01*
X149834666Y-91962523D02*
X149834666Y-91810142D01*
X149834666Y-91810142D02*
X149872761Y-91733952D01*
X149872761Y-91733952D02*
X149910856Y-91695857D01*
X149910856Y-91695857D02*
X149987047Y-91657761D01*
%TO.C,J11*%
X139204619Y-80646904D02*
X139204619Y-81218333D01*
X139204619Y-81218333D02*
X139242714Y-81332619D01*
X139242714Y-81332619D02*
X139318905Y-81408809D01*
X139318905Y-81408809D02*
X139433190Y-81446904D01*
X139433190Y-81446904D02*
X139509381Y-81446904D01*
X138404619Y-81446904D02*
X138861762Y-81446904D01*
X138633190Y-81446904D02*
X138633190Y-80646904D01*
X138633190Y-80646904D02*
X138709381Y-80761190D01*
X138709381Y-80761190D02*
X138785571Y-80837380D01*
X138785571Y-80837380D02*
X138861762Y-80875476D01*
X137642714Y-81446904D02*
X138099857Y-81446904D01*
X137871285Y-81446904D02*
X137871285Y-80646904D01*
X137871285Y-80646904D02*
X137947476Y-80761190D01*
X137947476Y-80761190D02*
X138023666Y-80837380D01*
X138023666Y-80837380D02*
X138099857Y-80875476D01*
%TO.C,J9*%
X106184666Y-91314904D02*
X106184666Y-91886333D01*
X106184666Y-91886333D02*
X106222761Y-92000619D01*
X106222761Y-92000619D02*
X106298952Y-92076809D01*
X106298952Y-92076809D02*
X106413237Y-92114904D01*
X106413237Y-92114904D02*
X106489428Y-92114904D01*
X105765618Y-92114904D02*
X105613237Y-92114904D01*
X105613237Y-92114904D02*
X105537047Y-92076809D01*
X105537047Y-92076809D02*
X105498951Y-92038714D01*
X105498951Y-92038714D02*
X105422761Y-91924428D01*
X105422761Y-91924428D02*
X105384666Y-91772047D01*
X105384666Y-91772047D02*
X105384666Y-91467285D01*
X105384666Y-91467285D02*
X105422761Y-91391095D01*
X105422761Y-91391095D02*
X105460856Y-91353000D01*
X105460856Y-91353000D02*
X105537047Y-91314904D01*
X105537047Y-91314904D02*
X105689428Y-91314904D01*
X105689428Y-91314904D02*
X105765618Y-91353000D01*
X105765618Y-91353000D02*
X105803713Y-91391095D01*
X105803713Y-91391095D02*
X105841809Y-91467285D01*
X105841809Y-91467285D02*
X105841809Y-91657761D01*
X105841809Y-91657761D02*
X105803713Y-91733952D01*
X105803713Y-91733952D02*
X105765618Y-91772047D01*
X105765618Y-91772047D02*
X105689428Y-91810142D01*
X105689428Y-91810142D02*
X105537047Y-91810142D01*
X105537047Y-91810142D02*
X105460856Y-91772047D01*
X105460856Y-91772047D02*
X105422761Y-91733952D01*
X105422761Y-91733952D02*
X105384666Y-91657761D01*
%TO.C,SYM1*%
G36*
X106999128Y-79953945D02*
G01*
X107029954Y-79963568D01*
X107067916Y-79979563D01*
X107086296Y-79988159D01*
X107099561Y-79989713D01*
X107102495Y-79977798D01*
X107102498Y-79977461D01*
X107108709Y-79966087D01*
X107130131Y-79960256D01*
X107171653Y-79958614D01*
X107240812Y-79958614D01*
X107240812Y-80562179D01*
X107102495Y-80562179D01*
X107102495Y-80146027D01*
X107068110Y-80114161D01*
X107057368Y-80105104D01*
X107025370Y-80089630D01*
X106985965Y-80089010D01*
X106932312Y-80102664D01*
X106914225Y-80103529D01*
X106893008Y-80090283D01*
X106864768Y-80058800D01*
X106851069Y-80041385D01*
X106834868Y-80016797D01*
X106832371Y-80001145D01*
X106841442Y-79987941D01*
X106869289Y-79971245D01*
X106912540Y-79958030D01*
X106959464Y-79951478D01*
X106999128Y-79953945D01*
G37*
D13*
X106999128Y-79953945D02*
X107029954Y-79963568D01*
X107067916Y-79979563D01*
X107086296Y-79988159D01*
X107099561Y-79989713D01*
X107102495Y-79977798D01*
X107102498Y-79977461D01*
X107108709Y-79966087D01*
X107130131Y-79960256D01*
X107171653Y-79958614D01*
X107240812Y-79958614D01*
X107240812Y-80562179D01*
X107102495Y-80562179D01*
X107102495Y-80146027D01*
X107068110Y-80114161D01*
X107057368Y-80105104D01*
X107025370Y-80089630D01*
X106985965Y-80089010D01*
X106932312Y-80102664D01*
X106914225Y-80103529D01*
X106893008Y-80090283D01*
X106864768Y-80058800D01*
X106851069Y-80041385D01*
X106834868Y-80016797D01*
X106832371Y-80001145D01*
X106841442Y-79987941D01*
X106869289Y-79971245D01*
X106912540Y-79958030D01*
X106959464Y-79951478D01*
X106999128Y-79953945D01*
G36*
X107182265Y-80909965D02*
G01*
X107220255Y-80927745D01*
X107253386Y-80953806D01*
X107253386Y-80927745D01*
X107254211Y-80917849D01*
X107261893Y-80907358D01*
X107282667Y-80902725D01*
X107322544Y-80901683D01*
X107391703Y-80901683D01*
X107391703Y-81517822D01*
X107253386Y-81517822D01*
X107253386Y-81317226D01*
X107253369Y-81305710D01*
X107252189Y-81224758D01*
X107249294Y-81158817D01*
X107244888Y-81111258D01*
X107239181Y-81085452D01*
X107233940Y-81075710D01*
X107201676Y-81045156D01*
X107157730Y-81031631D01*
X107109743Y-81037941D01*
X107097973Y-81042217D01*
X107072898Y-81049776D01*
X107055762Y-81047428D01*
X107038518Y-81032064D01*
X107013124Y-81000571D01*
X106971936Y-80948568D01*
X107000886Y-80925125D01*
X107028405Y-80911015D01*
X107076745Y-80901486D01*
X107131230Y-80901174D01*
X107182265Y-80909965D01*
G37*
X107182265Y-80909965D02*
X107220255Y-80927745D01*
X107253386Y-80953806D01*
X107253386Y-80927745D01*
X107254211Y-80917849D01*
X107261893Y-80907358D01*
X107282667Y-80902725D01*
X107322544Y-80901683D01*
X107391703Y-80901683D01*
X107391703Y-81517822D01*
X107253386Y-81517822D01*
X107253386Y-81317226D01*
X107253369Y-81305710D01*
X107252189Y-81224758D01*
X107249294Y-81158817D01*
X107244888Y-81111258D01*
X107239181Y-81085452D01*
X107233940Y-81075710D01*
X107201676Y-81045156D01*
X107157730Y-81031631D01*
X107109743Y-81037941D01*
X107097973Y-81042217D01*
X107072898Y-81049776D01*
X107055762Y-81047428D01*
X107038518Y-81032064D01*
X107013124Y-81000571D01*
X106971936Y-80948568D01*
X107000886Y-80925125D01*
X107028405Y-80911015D01*
X107076745Y-80901486D01*
X107131230Y-80901174D01*
X107182265Y-80909965D01*
G36*
X109805960Y-81517822D02*
G01*
X109680218Y-81517822D01*
X109680218Y-81323740D01*
X109680078Y-81278594D01*
X109678649Y-81203823D01*
X109675029Y-81148467D01*
X109668434Y-81108702D01*
X109658079Y-81080700D01*
X109643178Y-81060635D01*
X109622946Y-81044681D01*
X109600859Y-81032792D01*
X109574705Y-81029421D01*
X109537508Y-81036917D01*
X109525555Y-81040038D01*
X109495718Y-81044735D01*
X109474383Y-81038005D01*
X109449655Y-81017177D01*
X109444963Y-81012647D01*
X109419020Y-80984626D01*
X109402291Y-80961843D01*
X109399996Y-80956355D01*
X109404543Y-80936088D01*
X109427602Y-80919884D01*
X109463995Y-80908513D01*
X109508544Y-80902740D01*
X109556072Y-80903334D01*
X109601400Y-80911063D01*
X109639351Y-80926694D01*
X109651381Y-80933993D01*
X109671632Y-80944676D01*
X109679129Y-80942230D01*
X109680218Y-80926647D01*
X109680473Y-80921053D01*
X109686539Y-80908660D01*
X109705356Y-80903020D01*
X109743089Y-80901683D01*
X109805960Y-80901683D01*
X109805960Y-81517822D01*
G37*
X109805960Y-81517822D02*
X109680218Y-81517822D01*
X109680218Y-81323740D01*
X109680078Y-81278594D01*
X109678649Y-81203823D01*
X109675029Y-81148467D01*
X109668434Y-81108702D01*
X109658079Y-81080700D01*
X109643178Y-81060635D01*
X109622946Y-81044681D01*
X109600859Y-81032792D01*
X109574705Y-81029421D01*
X109537508Y-81036917D01*
X109525555Y-81040038D01*
X109495718Y-81044735D01*
X109474383Y-81038005D01*
X109449655Y-81017177D01*
X109444963Y-81012647D01*
X109419020Y-80984626D01*
X109402291Y-80961843D01*
X109399996Y-80956355D01*
X109404543Y-80936088D01*
X109427602Y-80919884D01*
X109463995Y-80908513D01*
X109508544Y-80902740D01*
X109556072Y-80903334D01*
X109601400Y-80911063D01*
X109639351Y-80926694D01*
X109651381Y-80933993D01*
X109671632Y-80944676D01*
X109679129Y-80942230D01*
X109680218Y-80926647D01*
X109680473Y-80921053D01*
X109686539Y-80908660D01*
X109705356Y-80903020D01*
X109743089Y-80901683D01*
X109805960Y-80901683D01*
X109805960Y-81517822D01*
G36*
X107492297Y-80154342D02*
G01*
X107493357Y-80242394D01*
X107497509Y-80313510D01*
X107505921Y-80365199D01*
X107519757Y-80400360D01*
X107540182Y-80421889D01*
X107568364Y-80432682D01*
X107605465Y-80435636D01*
X107640890Y-80433000D01*
X107669500Y-80422679D01*
X107690296Y-80401772D01*
X107704442Y-80367381D01*
X107713103Y-80316610D01*
X107717445Y-80246563D01*
X107718633Y-80154342D01*
X107718633Y-79958614D01*
X107844376Y-79958614D01*
X107844376Y-80194578D01*
X107844160Y-80257561D01*
X107842484Y-80339007D01*
X107838277Y-80401121D01*
X107830521Y-80447458D01*
X107818196Y-80481573D01*
X107800285Y-80507022D01*
X107775767Y-80527362D01*
X107743623Y-80546147D01*
X107676125Y-80569928D01*
X107605681Y-80571480D01*
X107539264Y-80549580D01*
X107510286Y-80535383D01*
X107495909Y-80533261D01*
X107492297Y-80543293D01*
X107486299Y-80554556D01*
X107464830Y-80560489D01*
X107423138Y-80562179D01*
X107353980Y-80562179D01*
X107353980Y-79958614D01*
X107492297Y-79958614D01*
X107492297Y-80154342D01*
G37*
X107492297Y-80154342D02*
X107493357Y-80242394D01*
X107497509Y-80313510D01*
X107505921Y-80365199D01*
X107519757Y-80400360D01*
X107540182Y-80421889D01*
X107568364Y-80432682D01*
X107605465Y-80435636D01*
X107640890Y-80433000D01*
X107669500Y-80422679D01*
X107690296Y-80401772D01*
X107704442Y-80367381D01*
X107713103Y-80316610D01*
X107717445Y-80246563D01*
X107718633Y-80154342D01*
X107718633Y-79958614D01*
X107844376Y-79958614D01*
X107844376Y-80194578D01*
X107844160Y-80257561D01*
X107842484Y-80339007D01*
X107838277Y-80401121D01*
X107830521Y-80447458D01*
X107818196Y-80481573D01*
X107800285Y-80507022D01*
X107775767Y-80527362D01*
X107743623Y-80546147D01*
X107676125Y-80569928D01*
X107605681Y-80571480D01*
X107539264Y-80549580D01*
X107510286Y-80535383D01*
X107495909Y-80533261D01*
X107492297Y-80543293D01*
X107486299Y-80554556D01*
X107464830Y-80560489D01*
X107423138Y-80562179D01*
X107353980Y-80562179D01*
X107353980Y-79958614D01*
X107492297Y-79958614D01*
X107492297Y-80154342D01*
G36*
X109594605Y-79957424D02*
G01*
X109651926Y-79975434D01*
X109677199Y-79987674D01*
X109689910Y-79988938D01*
X109692792Y-79977798D01*
X109692795Y-79977461D01*
X109699006Y-79966087D01*
X109720428Y-79960256D01*
X109761950Y-79958614D01*
X109831109Y-79958614D01*
X109831109Y-80562179D01*
X109692792Y-80562179D01*
X109692792Y-80354132D01*
X109692697Y-80283879D01*
X109692051Y-80226170D01*
X109690320Y-80185787D01*
X109686974Y-80158615D01*
X109681481Y-80140540D01*
X109673310Y-80127447D01*
X109661928Y-80115221D01*
X109646424Y-80102217D01*
X109601843Y-80084745D01*
X109555047Y-80089873D01*
X109512180Y-80117507D01*
X109499927Y-80130368D01*
X109491132Y-80143384D01*
X109485233Y-80160706D01*
X109481651Y-80186501D01*
X109479809Y-80224939D01*
X109479128Y-80280189D01*
X109479030Y-80356418D01*
X109479030Y-80562179D01*
X109340713Y-80562179D01*
X109340989Y-80338985D01*
X109341008Y-80329044D01*
X109342207Y-80234106D01*
X109345891Y-80160358D01*
X109353006Y-80104214D01*
X109364500Y-80062087D01*
X109381318Y-80030391D01*
X109404409Y-80005541D01*
X109434717Y-79983950D01*
X109466012Y-79969002D01*
X109529037Y-79955421D01*
X109594605Y-79957424D01*
G37*
X109594605Y-79957424D02*
X109651926Y-79975434D01*
X109677199Y-79987674D01*
X109689910Y-79988938D01*
X109692792Y-79977798D01*
X109692795Y-79977461D01*
X109699006Y-79966087D01*
X109720428Y-79960256D01*
X109761950Y-79958614D01*
X109831109Y-79958614D01*
X109831109Y-80562179D01*
X109692792Y-80562179D01*
X109692792Y-80354132D01*
X109692697Y-80283879D01*
X109692051Y-80226170D01*
X109690320Y-80185787D01*
X109686974Y-80158615D01*
X109681481Y-80140540D01*
X109673310Y-80127447D01*
X109661928Y-80115221D01*
X109646424Y-80102217D01*
X109601843Y-80084745D01*
X109555047Y-80089873D01*
X109512180Y-80117507D01*
X109499927Y-80130368D01*
X109491132Y-80143384D01*
X109485233Y-80160706D01*
X109481651Y-80186501D01*
X109479809Y-80224939D01*
X109479128Y-80280189D01*
X109479030Y-80356418D01*
X109479030Y-80562179D01*
X109340713Y-80562179D01*
X109340989Y-80338985D01*
X109341008Y-80329044D01*
X109342207Y-80234106D01*
X109345891Y-80160358D01*
X109353006Y-80104214D01*
X109364500Y-80062087D01*
X109381318Y-80030391D01*
X109404409Y-80005541D01*
X109434717Y-79983950D01*
X109466012Y-79969002D01*
X109529037Y-79955421D01*
X109594605Y-79957424D01*
G36*
X106645409Y-79961493D02*
G01*
X106714021Y-79988224D01*
X106772048Y-80032351D01*
X106814907Y-80092958D01*
X106817801Y-80099137D01*
X106836176Y-80159409D01*
X106845357Y-80231407D01*
X106845285Y-80306369D01*
X106835901Y-80375536D01*
X106817149Y-80430149D01*
X106793995Y-80468212D01*
X106743030Y-80522135D01*
X106679306Y-80556411D01*
X106624785Y-80570272D01*
X106541767Y-80571785D01*
X106462326Y-80550882D01*
X106391879Y-80508464D01*
X106346284Y-80470880D01*
X106387351Y-80428510D01*
X106413296Y-80403409D01*
X106436764Y-80389434D01*
X106458524Y-80392511D01*
X106486356Y-80411287D01*
X106497454Y-80418638D01*
X106544337Y-80433683D01*
X106598224Y-80433673D01*
X106648675Y-80418168D01*
X106667672Y-80405716D01*
X106695537Y-80368946D01*
X106709506Y-80314939D01*
X106710405Y-80241331D01*
X106710403Y-80241289D01*
X106700009Y-80175433D01*
X106677114Y-80129772D01*
X106639439Y-80101528D01*
X106584708Y-80087920D01*
X106550241Y-80086090D01*
X106520126Y-80093584D01*
X106489240Y-80115295D01*
X106449272Y-80148926D01*
X106398656Y-80108250D01*
X106380163Y-80092667D01*
X106357065Y-80070340D01*
X106348039Y-80057183D01*
X106351236Y-80051253D01*
X106369646Y-80033048D01*
X106398973Y-80009895D01*
X106421920Y-79994830D01*
X106494774Y-79963880D01*
X106570799Y-79953073D01*
X106645409Y-79961493D01*
G37*
X106645409Y-79961493D02*
X106714021Y-79988224D01*
X106772048Y-80032351D01*
X106814907Y-80092958D01*
X106817801Y-80099137D01*
X106836176Y-80159409D01*
X106845357Y-80231407D01*
X106845285Y-80306369D01*
X106835901Y-80375536D01*
X106817149Y-80430149D01*
X106793995Y-80468212D01*
X106743030Y-80522135D01*
X106679306Y-80556411D01*
X106624785Y-80570272D01*
X106541767Y-80571785D01*
X106462326Y-80550882D01*
X106391879Y-80508464D01*
X106346284Y-80470880D01*
X106387351Y-80428510D01*
X106413296Y-80403409D01*
X106436764Y-80389434D01*
X106458524Y-80392511D01*
X106486356Y-80411287D01*
X106497454Y-80418638D01*
X106544337Y-80433683D01*
X106598224Y-80433673D01*
X106648675Y-80418168D01*
X106667672Y-80405716D01*
X106695537Y-80368946D01*
X106709506Y-80314939D01*
X106710405Y-80241331D01*
X106710403Y-80241289D01*
X106700009Y-80175433D01*
X106677114Y-80129772D01*
X106639439Y-80101528D01*
X106584708Y-80087920D01*
X106550241Y-80086090D01*
X106520126Y-80093584D01*
X106489240Y-80115295D01*
X106449272Y-80148926D01*
X106398656Y-80108250D01*
X106380163Y-80092667D01*
X106357065Y-80070340D01*
X106348039Y-80057183D01*
X106351236Y-80051253D01*
X106369646Y-80033048D01*
X106398973Y-80009895D01*
X106421920Y-79994830D01*
X106494774Y-79963880D01*
X106570799Y-79953073D01*
X106645409Y-79961493D01*
G36*
X108444410Y-80253766D02*
G01*
X108444857Y-80303771D01*
X108441349Y-80343565D01*
X108425844Y-80419538D01*
X108398110Y-80477511D01*
X108355898Y-80521300D01*
X108296960Y-80554722D01*
X108274076Y-80562676D01*
X108214812Y-80572601D01*
X108152447Y-80572331D01*
X108099823Y-80561430D01*
X108098789Y-80561034D01*
X108056381Y-80536087D01*
X108013537Y-80497468D01*
X107977986Y-80453306D01*
X107957459Y-80411727D01*
X107951374Y-80381334D01*
X107946164Y-80324429D01*
X107945291Y-80273705D01*
X108071976Y-80273705D01*
X108079549Y-80334545D01*
X108097341Y-80384538D01*
X108124296Y-80417204D01*
X108134513Y-80422812D01*
X108173473Y-80433007D01*
X108218536Y-80435104D01*
X108256448Y-80428020D01*
X108271244Y-80417861D01*
X108292014Y-80382334D01*
X108305083Y-80326732D01*
X108309624Y-80253766D01*
X108309551Y-80232762D01*
X108307974Y-80190203D01*
X108302728Y-80162439D01*
X108291723Y-80141925D01*
X108272868Y-80121112D01*
X108236989Y-80095887D01*
X108190280Y-80085573D01*
X108145151Y-80095396D01*
X108107680Y-80123805D01*
X108083943Y-80169253D01*
X108075675Y-80208497D01*
X108071976Y-80273705D01*
X107945291Y-80273705D01*
X107945049Y-80259621D01*
X107947844Y-80195116D01*
X107954366Y-80139121D01*
X107964432Y-80099842D01*
X107987877Y-80055372D01*
X108037637Y-80000692D01*
X108101238Y-79966055D01*
X108176790Y-79952345D01*
X108262399Y-79960448D01*
X108276644Y-79963899D01*
X108342982Y-79993664D01*
X108392971Y-80042530D01*
X108426612Y-80110501D01*
X108443906Y-80197580D01*
X108444410Y-80253766D01*
G37*
X108444410Y-80253766D02*
X108444857Y-80303771D01*
X108441349Y-80343565D01*
X108425844Y-80419538D01*
X108398110Y-80477511D01*
X108355898Y-80521300D01*
X108296960Y-80554722D01*
X108274076Y-80562676D01*
X108214812Y-80572601D01*
X108152447Y-80572331D01*
X108099823Y-80561430D01*
X108098789Y-80561034D01*
X108056381Y-80536087D01*
X108013537Y-80497468D01*
X107977986Y-80453306D01*
X107957459Y-80411727D01*
X107951374Y-80381334D01*
X107946164Y-80324429D01*
X107945291Y-80273705D01*
X108071976Y-80273705D01*
X108079549Y-80334545D01*
X108097341Y-80384538D01*
X108124296Y-80417204D01*
X108134513Y-80422812D01*
X108173473Y-80433007D01*
X108218536Y-80435104D01*
X108256448Y-80428020D01*
X108271244Y-80417861D01*
X108292014Y-80382334D01*
X108305083Y-80326732D01*
X108309624Y-80253766D01*
X108309551Y-80232762D01*
X108307974Y-80190203D01*
X108302728Y-80162439D01*
X108291723Y-80141925D01*
X108272868Y-80121112D01*
X108236989Y-80095887D01*
X108190280Y-80085573D01*
X108145151Y-80095396D01*
X108107680Y-80123805D01*
X108083943Y-80169253D01*
X108075675Y-80208497D01*
X108071976Y-80273705D01*
X107945291Y-80273705D01*
X107945049Y-80259621D01*
X107947844Y-80195116D01*
X107954366Y-80139121D01*
X107964432Y-80099842D01*
X107987877Y-80055372D01*
X108037637Y-80000692D01*
X108101238Y-79966055D01*
X108176790Y-79952345D01*
X108262399Y-79960448D01*
X108276644Y-79963899D01*
X108342982Y-79993664D01*
X108392971Y-80042530D01*
X108426612Y-80110501D01*
X108443906Y-80197580D01*
X108444410Y-80253766D01*
G36*
X108544997Y-81099130D02*
G01*
X108561997Y-81149850D01*
X108582107Y-81205997D01*
X108598899Y-81248532D01*
X108610986Y-81273990D01*
X108616980Y-81278903D01*
X108618426Y-81274630D01*
X108626254Y-81248422D01*
X108638723Y-81204649D01*
X108654447Y-81148211D01*
X108672043Y-81084010D01*
X108719914Y-80907971D01*
X108793007Y-80904152D01*
X108799177Y-80903846D01*
X108838592Y-80903441D01*
X108857533Y-80907487D01*
X108859945Y-80916726D01*
X108856898Y-80925749D01*
X108846874Y-80956632D01*
X108831180Y-81005544D01*
X108810934Y-81068987D01*
X108787256Y-81143462D01*
X108761263Y-81225471D01*
X108668736Y-81517822D01*
X108552993Y-81517822D01*
X108498457Y-81332352D01*
X108488386Y-81298294D01*
X108469775Y-81236378D01*
X108453872Y-81184787D01*
X108442109Y-81148130D01*
X108435918Y-81131018D01*
X108434154Y-81129741D01*
X108425571Y-81140779D01*
X108413316Y-81169969D01*
X108399426Y-81212750D01*
X108398692Y-81215263D01*
X108380096Y-81278400D01*
X108358818Y-81349889D01*
X108339321Y-81414734D01*
X108307705Y-81519122D01*
X108249402Y-81515328D01*
X108191098Y-81511535D01*
X108137098Y-81341782D01*
X108113390Y-81267193D01*
X108086833Y-81183539D01*
X108061404Y-81103342D01*
X108040354Y-81036857D01*
X107997609Y-80901683D01*
X108140612Y-80901683D01*
X108175274Y-81030570D01*
X108184488Y-81064625D01*
X108201915Y-81128115D01*
X108218054Y-81185874D01*
X108230322Y-81228614D01*
X108250709Y-81297773D01*
X108380745Y-80907971D01*
X108430476Y-80904237D01*
X108480206Y-80900504D01*
X108544997Y-81099130D01*
G37*
X108544997Y-81099130D02*
X108561997Y-81149850D01*
X108582107Y-81205997D01*
X108598899Y-81248532D01*
X108610986Y-81273990D01*
X108616980Y-81278903D01*
X108618426Y-81274630D01*
X108626254Y-81248422D01*
X108638723Y-81204649D01*
X108654447Y-81148211D01*
X108672043Y-81084010D01*
X108719914Y-80907971D01*
X108793007Y-80904152D01*
X108799177Y-80903846D01*
X108838592Y-80903441D01*
X108857533Y-80907487D01*
X108859945Y-80916726D01*
X108856898Y-80925749D01*
X108846874Y-80956632D01*
X108831180Y-81005544D01*
X108810934Y-81068987D01*
X108787256Y-81143462D01*
X108761263Y-81225471D01*
X108668736Y-81517822D01*
X108552993Y-81517822D01*
X108498457Y-81332352D01*
X108488386Y-81298294D01*
X108469775Y-81236378D01*
X108453872Y-81184787D01*
X108442109Y-81148130D01*
X108435918Y-81131018D01*
X108434154Y-81129741D01*
X108425571Y-81140779D01*
X108413316Y-81169969D01*
X108399426Y-81212750D01*
X108398692Y-81215263D01*
X108380096Y-81278400D01*
X108358818Y-81349889D01*
X108339321Y-81414734D01*
X108307705Y-81519122D01*
X108249402Y-81515328D01*
X108191098Y-81511535D01*
X108137098Y-81341782D01*
X108113390Y-81267193D01*
X108086833Y-81183539D01*
X108061404Y-81103342D01*
X108040354Y-81036857D01*
X107997609Y-80901683D01*
X108140612Y-80901683D01*
X108175274Y-81030570D01*
X108184488Y-81064625D01*
X108201915Y-81128115D01*
X108218054Y-81185874D01*
X108230322Y-81228614D01*
X108250709Y-81297773D01*
X108380745Y-80907971D01*
X108430476Y-80904237D01*
X108480206Y-80900504D01*
X108544997Y-81099130D01*
G36*
X111577672Y-80259219D02*
G01*
X111576997Y-80294931D01*
X111575373Y-80334310D01*
X111571688Y-80382332D01*
X111565410Y-80416368D01*
X111555044Y-80443338D01*
X111539092Y-80470158D01*
X111538412Y-80471175D01*
X111499132Y-80514629D01*
X111451072Y-80547772D01*
X111395185Y-80567439D01*
X111321666Y-80573824D01*
X111249609Y-80561268D01*
X111185201Y-80531011D01*
X111134627Y-80484294D01*
X111120108Y-80462221D01*
X111092993Y-80393602D01*
X111079546Y-80308939D01*
X111079776Y-80287523D01*
X111214920Y-80287523D01*
X111215174Y-80327574D01*
X111219421Y-80354313D01*
X111229096Y-80374859D01*
X111245638Y-80396331D01*
X111268593Y-80417639D01*
X111314505Y-80436653D01*
X111363802Y-80433122D01*
X111410917Y-80406694D01*
X111424207Y-80394072D01*
X111438397Y-80372465D01*
X111446266Y-80342094D01*
X111450726Y-80294770D01*
X111451955Y-80259219D01*
X111445224Y-80186620D01*
X111424567Y-80134642D01*
X111389894Y-80102999D01*
X111349249Y-80087847D01*
X111300777Y-80089123D01*
X111255845Y-80114703D01*
X111245103Y-80124442D01*
X111231548Y-80141480D01*
X111223505Y-80163772D01*
X111219043Y-80197947D01*
X111216228Y-80250638D01*
X111214920Y-80287523D01*
X111079776Y-80287523D01*
X111080583Y-80212351D01*
X111081907Y-80198651D01*
X111100374Y-80110908D01*
X111134540Y-80042793D01*
X111184479Y-79994231D01*
X111250261Y-79965148D01*
X111331961Y-79955471D01*
X111362828Y-79956379D01*
X111426128Y-79967493D01*
X111477889Y-79994021D01*
X111526147Y-80039436D01*
X111533865Y-80048551D01*
X111554681Y-80079248D01*
X111568362Y-80114007D01*
X111575948Y-80158056D01*
X111578479Y-80216621D01*
X111577672Y-80259219D01*
G37*
X111577672Y-80259219D02*
X111576997Y-80294931D01*
X111575373Y-80334310D01*
X111571688Y-80382332D01*
X111565410Y-80416368D01*
X111555044Y-80443338D01*
X111539092Y-80470158D01*
X111538412Y-80471175D01*
X111499132Y-80514629D01*
X111451072Y-80547772D01*
X111395185Y-80567439D01*
X111321666Y-80573824D01*
X111249609Y-80561268D01*
X111185201Y-80531011D01*
X111134627Y-80484294D01*
X111120108Y-80462221D01*
X111092993Y-80393602D01*
X111079546Y-80308939D01*
X111079776Y-80287523D01*
X111214920Y-80287523D01*
X111215174Y-80327574D01*
X111219421Y-80354313D01*
X111229096Y-80374859D01*
X111245638Y-80396331D01*
X111268593Y-80417639D01*
X111314505Y-80436653D01*
X111363802Y-80433122D01*
X111410917Y-80406694D01*
X111424207Y-80394072D01*
X111438397Y-80372465D01*
X111446266Y-80342094D01*
X111450726Y-80294770D01*
X111451955Y-80259219D01*
X111445224Y-80186620D01*
X111424567Y-80134642D01*
X111389894Y-80102999D01*
X111349249Y-80087847D01*
X111300777Y-80089123D01*
X111255845Y-80114703D01*
X111245103Y-80124442D01*
X111231548Y-80141480D01*
X111223505Y-80163772D01*
X111219043Y-80197947D01*
X111216228Y-80250638D01*
X111214920Y-80287523D01*
X111079776Y-80287523D01*
X111080583Y-80212351D01*
X111081907Y-80198651D01*
X111100374Y-80110908D01*
X111134540Y-80042793D01*
X111184479Y-79994231D01*
X111250261Y-79965148D01*
X111331961Y-79955471D01*
X111362828Y-79956379D01*
X111426128Y-79967493D01*
X111477889Y-79994021D01*
X111526147Y-80039436D01*
X111533865Y-80048551D01*
X111554681Y-80079248D01*
X111568362Y-80114007D01*
X111575948Y-80158056D01*
X111578479Y-80216621D01*
X111577672Y-80259219D01*
G36*
X109402633Y-81216155D02*
G01*
X109402761Y-81256813D01*
X109401167Y-81310571D01*
X109397962Y-81348018D01*
X109397413Y-81351450D01*
X109375838Y-81412835D01*
X109336438Y-81464877D01*
X109284752Y-81500135D01*
X109229248Y-81514729D01*
X109160977Y-81513597D01*
X109098173Y-81494029D01*
X109081815Y-81485771D01*
X109060779Y-81476923D01*
X109052774Y-81479676D01*
X109051505Y-81494029D01*
X109050922Y-81501186D01*
X109043394Y-81511772D01*
X109022488Y-81516645D01*
X108982346Y-81517822D01*
X108913188Y-81517822D01*
X108913188Y-81215930D01*
X109051505Y-81215930D01*
X109052496Y-81268230D01*
X109056519Y-81303050D01*
X109065108Y-81326905D01*
X109079797Y-81346895D01*
X109118584Y-81376618D01*
X109163974Y-81386582D01*
X109207989Y-81374260D01*
X109245060Y-81339888D01*
X109254859Y-81314735D01*
X109262097Y-81270194D01*
X109265279Y-81216155D01*
X109264277Y-81160728D01*
X109258961Y-81112022D01*
X109249204Y-81078148D01*
X109246087Y-81072593D01*
X109216038Y-81044674D01*
X109175315Y-81032306D01*
X109131579Y-81035183D01*
X109092491Y-81053000D01*
X109065710Y-81085452D01*
X109064603Y-81088181D01*
X109057963Y-81118634D01*
X109053278Y-81164139D01*
X109051505Y-81215930D01*
X108913188Y-81215930D01*
X108913188Y-80662773D01*
X109051505Y-80662773D01*
X109051505Y-80955878D01*
X109077124Y-80932693D01*
X109101792Y-80918282D01*
X109148480Y-80906236D01*
X109203056Y-80902354D01*
X109256354Y-80907120D01*
X109299207Y-80921014D01*
X109329878Y-80940779D01*
X109361471Y-80974449D01*
X109382733Y-81019730D01*
X109395514Y-81080981D01*
X109401664Y-81162563D01*
X109402568Y-81195540D01*
X109402633Y-81216155D01*
G37*
X109402633Y-81216155D02*
X109402761Y-81256813D01*
X109401167Y-81310571D01*
X109397962Y-81348018D01*
X109397413Y-81351450D01*
X109375838Y-81412835D01*
X109336438Y-81464877D01*
X109284752Y-81500135D01*
X109229248Y-81514729D01*
X109160977Y-81513597D01*
X109098173Y-81494029D01*
X109081815Y-81485771D01*
X109060779Y-81476923D01*
X109052774Y-81479676D01*
X109051505Y-81494029D01*
X109050922Y-81501186D01*
X109043394Y-81511772D01*
X109022488Y-81516645D01*
X108982346Y-81517822D01*
X108913188Y-81517822D01*
X108913188Y-81215930D01*
X109051505Y-81215930D01*
X109052496Y-81268230D01*
X109056519Y-81303050D01*
X109065108Y-81326905D01*
X109079797Y-81346895D01*
X109118584Y-81376618D01*
X109163974Y-81386582D01*
X109207989Y-81374260D01*
X109245060Y-81339888D01*
X109254859Y-81314735D01*
X109262097Y-81270194D01*
X109265279Y-81216155D01*
X109264277Y-81160728D01*
X109258961Y-81112022D01*
X109249204Y-81078148D01*
X109246087Y-81072593D01*
X109216038Y-81044674D01*
X109175315Y-81032306D01*
X109131579Y-81035183D01*
X109092491Y-81053000D01*
X109065710Y-81085452D01*
X109064603Y-81088181D01*
X109057963Y-81118634D01*
X109053278Y-81164139D01*
X109051505Y-81215930D01*
X108913188Y-81215930D01*
X108913188Y-80662773D01*
X109051505Y-80662773D01*
X109051505Y-80955878D01*
X109077124Y-80932693D01*
X109101792Y-80918282D01*
X109148480Y-80906236D01*
X109203056Y-80902354D01*
X109256354Y-80907120D01*
X109299207Y-80921014D01*
X109329878Y-80940779D01*
X109361471Y-80974449D01*
X109382733Y-81019730D01*
X109395514Y-81080981D01*
X109401664Y-81162563D01*
X109402568Y-81195540D01*
X109402633Y-81216155D01*
G36*
X106324900Y-80185542D02*
G01*
X106331444Y-80219878D01*
X106329825Y-80316121D01*
X106329615Y-80318014D01*
X106311535Y-80406325D01*
X106278870Y-80474986D01*
X106230601Y-80525506D01*
X106165713Y-80559393D01*
X106153801Y-80563268D01*
X106079971Y-80574688D01*
X106003614Y-80568320D01*
X105932626Y-80545563D01*
X105874904Y-80507819D01*
X105831667Y-80467872D01*
X105877625Y-80431532D01*
X105923583Y-80395193D01*
X105978969Y-80422101D01*
X106043056Y-80443905D01*
X106099632Y-80444558D01*
X106145920Y-80424525D01*
X106179230Y-80384315D01*
X106191171Y-80360222D01*
X106197837Y-80339630D01*
X106193980Y-80325720D01*
X106176675Y-80317181D01*
X106142997Y-80312704D01*
X106090021Y-80310978D01*
X106014822Y-80310693D01*
X105832495Y-80310693D01*
X105832495Y-80223492D01*
X105833857Y-80185210D01*
X105962234Y-80185210D01*
X105968399Y-80192251D01*
X105986654Y-80195916D01*
X106021352Y-80197306D01*
X106076846Y-80197525D01*
X106106603Y-80197176D01*
X106153562Y-80194867D01*
X106185416Y-80190822D01*
X106197148Y-80185542D01*
X106194146Y-80166062D01*
X106172988Y-80128786D01*
X106137731Y-80098164D01*
X106095699Y-80079668D01*
X106054220Y-80078773D01*
X106022997Y-80093604D01*
X105987618Y-80127355D01*
X105965122Y-80169233D01*
X105963805Y-80173690D01*
X105962234Y-80185210D01*
X105833857Y-80185210D01*
X105834136Y-80177371D01*
X105838955Y-80131740D01*
X105845840Y-80100893D01*
X105850859Y-80089117D01*
X105887390Y-80036667D01*
X105940175Y-79992921D01*
X106001904Y-79964279D01*
X106034102Y-79956457D01*
X106110820Y-79952896D01*
X106179179Y-79971009D01*
X106237299Y-80008779D01*
X106283302Y-80064191D01*
X106315310Y-80135229D01*
X106324900Y-80185542D01*
G37*
X106324900Y-80185542D02*
X106331444Y-80219878D01*
X106329825Y-80316121D01*
X106329615Y-80318014D01*
X106311535Y-80406325D01*
X106278870Y-80474986D01*
X106230601Y-80525506D01*
X106165713Y-80559393D01*
X106153801Y-80563268D01*
X106079971Y-80574688D01*
X106003614Y-80568320D01*
X105932626Y-80545563D01*
X105874904Y-80507819D01*
X105831667Y-80467872D01*
X105877625Y-80431532D01*
X105923583Y-80395193D01*
X105978969Y-80422101D01*
X106043056Y-80443905D01*
X106099632Y-80444558D01*
X106145920Y-80424525D01*
X106179230Y-80384315D01*
X106191171Y-80360222D01*
X106197837Y-80339630D01*
X106193980Y-80325720D01*
X106176675Y-80317181D01*
X106142997Y-80312704D01*
X106090021Y-80310978D01*
X106014822Y-80310693D01*
X105832495Y-80310693D01*
X105832495Y-80223492D01*
X105833857Y-80185210D01*
X105962234Y-80185210D01*
X105968399Y-80192251D01*
X105986654Y-80195916D01*
X106021352Y-80197306D01*
X106076846Y-80197525D01*
X106106603Y-80197176D01*
X106153562Y-80194867D01*
X106185416Y-80190822D01*
X106197148Y-80185542D01*
X106194146Y-80166062D01*
X106172988Y-80128786D01*
X106137731Y-80098164D01*
X106095699Y-80079668D01*
X106054220Y-80078773D01*
X106022997Y-80093604D01*
X105987618Y-80127355D01*
X105965122Y-80169233D01*
X105963805Y-80173690D01*
X105962234Y-80185210D01*
X105833857Y-80185210D01*
X105834136Y-80177371D01*
X105838955Y-80131740D01*
X105845840Y-80100893D01*
X105850859Y-80089117D01*
X105887390Y-80036667D01*
X105940175Y-79992921D01*
X106001904Y-79964279D01*
X106034102Y-79956457D01*
X106110820Y-79952896D01*
X106179179Y-79971009D01*
X106237299Y-80008779D01*
X106283302Y-80064191D01*
X106315310Y-80135229D01*
X106324900Y-80185542D01*
G36*
X108810874Y-79958207D02*
G01*
X108883495Y-79976408D01*
X108936546Y-80010144D01*
X108970329Y-80059642D01*
X108985147Y-80125126D01*
X108982147Y-80187820D01*
X108960493Y-80240699D01*
X108918967Y-80279796D01*
X108856736Y-80305873D01*
X108772969Y-80319695D01*
X108718540Y-80326940D01*
X108668860Y-80342615D01*
X108643211Y-80365314D01*
X108641662Y-80394998D01*
X108651984Y-80413507D01*
X108683951Y-80435443D01*
X108729395Y-80445818D01*
X108782649Y-80444399D01*
X108838048Y-80430952D01*
X108889928Y-80405243D01*
X108941653Y-80371013D01*
X108987148Y-80417049D01*
X109032643Y-80463084D01*
X108994921Y-80493876D01*
X108980253Y-80504574D01*
X108938983Y-80528880D01*
X108894327Y-80549825D01*
X108858984Y-80561845D01*
X108807234Y-80570552D01*
X108743435Y-80570667D01*
X108665200Y-80561081D01*
X108594722Y-80536783D01*
X108544836Y-80498188D01*
X108515423Y-80445198D01*
X108506365Y-80377718D01*
X108512921Y-80318354D01*
X108533970Y-80269752D01*
X108571864Y-80234946D01*
X108629004Y-80211798D01*
X108707785Y-80198170D01*
X108716834Y-80197183D01*
X108765885Y-80190892D01*
X108805675Y-80184309D01*
X108828312Y-80178708D01*
X108835866Y-80174197D01*
X108848637Y-80150941D01*
X108846563Y-80121171D01*
X108829495Y-80095327D01*
X108820533Y-80089691D01*
X108783188Y-80080660D01*
X108734950Y-80081267D01*
X108684650Y-80090878D01*
X108641115Y-80108858D01*
X108595372Y-80135847D01*
X108559890Y-80094384D01*
X108551280Y-80083850D01*
X108531883Y-80055632D01*
X108523897Y-80036508D01*
X108532283Y-80024781D01*
X108558226Y-80006476D01*
X108595688Y-79986777D01*
X108600966Y-79984370D01*
X108650366Y-79965482D01*
X108697983Y-79956452D01*
X108757072Y-79954639D01*
X108810874Y-79958207D01*
G37*
X108810874Y-79958207D02*
X108883495Y-79976408D01*
X108936546Y-80010144D01*
X108970329Y-80059642D01*
X108985147Y-80125126D01*
X108982147Y-80187820D01*
X108960493Y-80240699D01*
X108918967Y-80279796D01*
X108856736Y-80305873D01*
X108772969Y-80319695D01*
X108718540Y-80326940D01*
X108668860Y-80342615D01*
X108643211Y-80365314D01*
X108641662Y-80394998D01*
X108651984Y-80413507D01*
X108683951Y-80435443D01*
X108729395Y-80445818D01*
X108782649Y-80444399D01*
X108838048Y-80430952D01*
X108889928Y-80405243D01*
X108941653Y-80371013D01*
X108987148Y-80417049D01*
X109032643Y-80463084D01*
X108994921Y-80493876D01*
X108980253Y-80504574D01*
X108938983Y-80528880D01*
X108894327Y-80549825D01*
X108858984Y-80561845D01*
X108807234Y-80570552D01*
X108743435Y-80570667D01*
X108665200Y-80561081D01*
X108594722Y-80536783D01*
X108544836Y-80498188D01*
X108515423Y-80445198D01*
X108506365Y-80377718D01*
X108512921Y-80318354D01*
X108533970Y-80269752D01*
X108571864Y-80234946D01*
X108629004Y-80211798D01*
X108707785Y-80198170D01*
X108716834Y-80197183D01*
X108765885Y-80190892D01*
X108805675Y-80184309D01*
X108828312Y-80178708D01*
X108835866Y-80174197D01*
X108848637Y-80150941D01*
X108846563Y-80121171D01*
X108829495Y-80095327D01*
X108820533Y-80089691D01*
X108783188Y-80080660D01*
X108734950Y-80081267D01*
X108684650Y-80090878D01*
X108641115Y-80108858D01*
X108595372Y-80135847D01*
X108559890Y-80094384D01*
X108551280Y-80083850D01*
X108531883Y-80055632D01*
X108523897Y-80036508D01*
X108532283Y-80024781D01*
X108558226Y-80006476D01*
X108595688Y-79986777D01*
X108600966Y-79984370D01*
X108650366Y-79965482D01*
X108697983Y-79956452D01*
X108757072Y-79954639D01*
X108810874Y-79958207D01*
G36*
X106971579Y-81141413D02*
G01*
X106976353Y-81209753D01*
X106974718Y-81256692D01*
X106959827Y-81346459D01*
X106929185Y-81417045D01*
X106882524Y-81468952D01*
X106819574Y-81502686D01*
X106799235Y-81508647D01*
X106726612Y-81516971D01*
X106649928Y-81509946D01*
X106580663Y-81488265D01*
X106556262Y-81475959D01*
X106521275Y-81454879D01*
X106500072Y-81437534D01*
X106496942Y-81433571D01*
X106491085Y-81419077D01*
X106499524Y-81403321D01*
X106525221Y-81379460D01*
X106537622Y-81369072D01*
X106562052Y-81350063D01*
X106574861Y-81342293D01*
X106578530Y-81343094D01*
X106599561Y-81351745D01*
X106630960Y-81366931D01*
X106641197Y-81371926D01*
X106701590Y-81390475D01*
X106754057Y-81385694D01*
X106800065Y-81357500D01*
X106805419Y-81352291D01*
X106831013Y-81319659D01*
X106845637Y-81288342D01*
X106853736Y-81253763D01*
X106473782Y-81253763D01*
X106473852Y-81187748D01*
X106473892Y-81181182D01*
X106479022Y-81128218D01*
X106612099Y-81128218D01*
X106613670Y-81139203D01*
X106621738Y-81146773D01*
X106640967Y-81150975D01*
X106676019Y-81152783D01*
X106731554Y-81153169D01*
X106762429Y-81152768D01*
X106808002Y-81150429D01*
X106839348Y-81146465D01*
X106851010Y-81141413D01*
X106841064Y-81099827D01*
X106811947Y-81061013D01*
X106769952Y-81034086D01*
X106721440Y-81024772D01*
X106685723Y-81035272D01*
X106650020Y-81060940D01*
X106622879Y-81094381D01*
X106612099Y-81128218D01*
X106479022Y-81128218D01*
X106481758Y-81099965D01*
X106504655Y-81033895D01*
X106544607Y-80976940D01*
X106568979Y-80952848D01*
X106619315Y-80920597D01*
X106679419Y-80904970D01*
X106755338Y-80903871D01*
X106792010Y-80908179D01*
X106859703Y-80930549D01*
X106911530Y-80971263D01*
X106947945Y-81030949D01*
X106969401Y-81110236D01*
X106971579Y-81141413D01*
G37*
X106971579Y-81141413D02*
X106976353Y-81209753D01*
X106974718Y-81256692D01*
X106959827Y-81346459D01*
X106929185Y-81417045D01*
X106882524Y-81468952D01*
X106819574Y-81502686D01*
X106799235Y-81508647D01*
X106726612Y-81516971D01*
X106649928Y-81509946D01*
X106580663Y-81488265D01*
X106556262Y-81475959D01*
X106521275Y-81454879D01*
X106500072Y-81437534D01*
X106496942Y-81433571D01*
X106491085Y-81419077D01*
X106499524Y-81403321D01*
X106525221Y-81379460D01*
X106537622Y-81369072D01*
X106562052Y-81350063D01*
X106574861Y-81342293D01*
X106578530Y-81343094D01*
X106599561Y-81351745D01*
X106630960Y-81366931D01*
X106641197Y-81371926D01*
X106701590Y-81390475D01*
X106754057Y-81385694D01*
X106800065Y-81357500D01*
X106805419Y-81352291D01*
X106831013Y-81319659D01*
X106845637Y-81288342D01*
X106853736Y-81253763D01*
X106473782Y-81253763D01*
X106473852Y-81187748D01*
X106473892Y-81181182D01*
X106479022Y-81128218D01*
X106612099Y-81128218D01*
X106613670Y-81139203D01*
X106621738Y-81146773D01*
X106640967Y-81150975D01*
X106676019Y-81152783D01*
X106731554Y-81153169D01*
X106762429Y-81152768D01*
X106808002Y-81150429D01*
X106839348Y-81146465D01*
X106851010Y-81141413D01*
X106841064Y-81099827D01*
X106811947Y-81061013D01*
X106769952Y-81034086D01*
X106721440Y-81024772D01*
X106685723Y-81035272D01*
X106650020Y-81060940D01*
X106622879Y-81094381D01*
X106612099Y-81128218D01*
X106479022Y-81128218D01*
X106481758Y-81099965D01*
X106504655Y-81033895D01*
X106544607Y-80976940D01*
X106568979Y-80952848D01*
X106619315Y-80920597D01*
X106679419Y-80904970D01*
X106755338Y-80903871D01*
X106792010Y-80908179D01*
X106859703Y-80930549D01*
X106911530Y-80971263D01*
X106947945Y-81030949D01*
X106969401Y-81110236D01*
X106971579Y-81141413D01*
G36*
X110418482Y-80182299D02*
G01*
X110419022Y-80184861D01*
X110423421Y-80272936D01*
X110422322Y-80311371D01*
X110409926Y-80395367D01*
X110382608Y-80461595D01*
X110338941Y-80512784D01*
X110277495Y-80551663D01*
X110217888Y-80569812D01*
X110143110Y-80573284D01*
X110067664Y-80559930D01*
X110000366Y-80530425D01*
X109975428Y-80514012D01*
X109947951Y-80492973D01*
X109935414Y-80479129D01*
X109936124Y-80473417D01*
X109950158Y-80453955D01*
X109976533Y-80430376D01*
X110022240Y-80395513D01*
X110075799Y-80422262D01*
X110090282Y-80428882D01*
X110132916Y-80443273D01*
X110168649Y-80449010D01*
X110194998Y-80444282D01*
X110236347Y-80421514D01*
X110271104Y-80386170D01*
X110290983Y-80345273D01*
X110299083Y-80310693D01*
X109919129Y-80310693D01*
X109919199Y-80244679D01*
X109919774Y-80223757D01*
X109923972Y-80178862D01*
X110057445Y-80178862D01*
X110057690Y-80181434D01*
X110064604Y-80189443D01*
X110084141Y-80194364D01*
X110120467Y-80196843D01*
X110177748Y-80197525D01*
X110196575Y-80197517D01*
X110245470Y-80197065D01*
X110274863Y-80195113D01*
X110289115Y-80190558D01*
X110292582Y-80182299D01*
X110289625Y-80169233D01*
X110289173Y-80167752D01*
X110263699Y-80122285D01*
X110223539Y-80090981D01*
X110175651Y-80079327D01*
X110157949Y-80080259D01*
X110125094Y-80091408D01*
X110093575Y-80119763D01*
X110085085Y-80129789D01*
X110065336Y-80158423D01*
X110057445Y-80178862D01*
X109923972Y-80178862D01*
X109924512Y-80173091D01*
X109932459Y-80131166D01*
X109941168Y-80107696D01*
X109971790Y-80056646D01*
X110012799Y-80010283D01*
X110056168Y-79978514D01*
X110068699Y-79972614D01*
X110141661Y-79953046D01*
X110216168Y-79955109D01*
X110286217Y-79977931D01*
X110345807Y-80020639D01*
X110378038Y-80060025D01*
X110404392Y-80115510D01*
X110418482Y-80182299D01*
G37*
X110418482Y-80182299D02*
X110419022Y-80184861D01*
X110423421Y-80272936D01*
X110422322Y-80311371D01*
X110409926Y-80395367D01*
X110382608Y-80461595D01*
X110338941Y-80512784D01*
X110277495Y-80551663D01*
X110217888Y-80569812D01*
X110143110Y-80573284D01*
X110067664Y-80559930D01*
X110000366Y-80530425D01*
X109975428Y-80514012D01*
X109947951Y-80492973D01*
X109935414Y-80479129D01*
X109936124Y-80473417D01*
X109950158Y-80453955D01*
X109976533Y-80430376D01*
X110022240Y-80395513D01*
X110075799Y-80422262D01*
X110090282Y-80428882D01*
X110132916Y-80443273D01*
X110168649Y-80449010D01*
X110194998Y-80444282D01*
X110236347Y-80421514D01*
X110271104Y-80386170D01*
X110290983Y-80345273D01*
X110299083Y-80310693D01*
X109919129Y-80310693D01*
X109919199Y-80244679D01*
X109919774Y-80223757D01*
X109923972Y-80178862D01*
X110057445Y-80178862D01*
X110057690Y-80181434D01*
X110064604Y-80189443D01*
X110084141Y-80194364D01*
X110120467Y-80196843D01*
X110177748Y-80197525D01*
X110196575Y-80197517D01*
X110245470Y-80197065D01*
X110274863Y-80195113D01*
X110289115Y-80190558D01*
X110292582Y-80182299D01*
X110289625Y-80169233D01*
X110289173Y-80167752D01*
X110263699Y-80122285D01*
X110223539Y-80090981D01*
X110175651Y-80079327D01*
X110157949Y-80080259D01*
X110125094Y-80091408D01*
X110093575Y-80119763D01*
X110085085Y-80129789D01*
X110065336Y-80158423D01*
X110057445Y-80178862D01*
X109923972Y-80178862D01*
X109924512Y-80173091D01*
X109932459Y-80131166D01*
X109941168Y-80107696D01*
X109971790Y-80056646D01*
X110012799Y-80010283D01*
X110056168Y-79978514D01*
X110068699Y-79972614D01*
X110141661Y-79953046D01*
X110216168Y-79955109D01*
X110286217Y-79977931D01*
X110345807Y-80020639D01*
X110378038Y-80060025D01*
X110404392Y-80115510D01*
X110418482Y-80182299D01*
G36*
X108000254Y-81331824D02*
G01*
X108001413Y-81352333D01*
X107986244Y-81409419D01*
X107953277Y-81458255D01*
X107903270Y-81493386D01*
X107898362Y-81495521D01*
X107843646Y-81510903D01*
X107781993Y-81516899D01*
X107723376Y-81513233D01*
X107677767Y-81499629D01*
X107659549Y-81490754D01*
X107646179Y-81488637D01*
X107643188Y-81499706D01*
X107637524Y-81509942D01*
X107615607Y-81516038D01*
X107573068Y-81517822D01*
X107502948Y-81517822D01*
X107506680Y-81297773D01*
X107643188Y-81297773D01*
X107647924Y-81330666D01*
X107668336Y-81366931D01*
X107675871Y-81373597D01*
X107706753Y-81387620D01*
X107753213Y-81391228D01*
X107781090Y-81389819D01*
X107833255Y-81379204D01*
X107865587Y-81359425D01*
X107876492Y-81331824D01*
X107864374Y-81297743D01*
X107857304Y-81288824D01*
X107825724Y-81268818D01*
X107775744Y-81257395D01*
X107704487Y-81253763D01*
X107643188Y-81253763D01*
X107643188Y-81297773D01*
X107506680Y-81297773D01*
X107507053Y-81275768D01*
X107508169Y-81219794D01*
X107511106Y-81135996D01*
X107516058Y-81071920D01*
X107524002Y-81024073D01*
X107535917Y-80988962D01*
X107552780Y-80963093D01*
X107575572Y-80942974D01*
X107605269Y-80925110D01*
X107620589Y-80918290D01*
X107673589Y-80905417D01*
X107737513Y-80900095D01*
X107803602Y-80902227D01*
X107863099Y-80911714D01*
X107907247Y-80928461D01*
X107922604Y-80938185D01*
X107957960Y-80967005D01*
X107969926Y-80991137D01*
X107967020Y-80995800D01*
X107948909Y-81012088D01*
X107919672Y-81033817D01*
X107904725Y-81043987D01*
X107879270Y-81058397D01*
X107862728Y-81059773D01*
X107847370Y-81049827D01*
X107809094Y-81029684D01*
X107757590Y-81021400D01*
X107704957Y-81027742D01*
X107703961Y-81028030D01*
X107666838Y-81044158D01*
X107648463Y-81069405D01*
X107643380Y-81111158D01*
X107643188Y-81150879D01*
X107774423Y-81155168D01*
X107795331Y-81155873D01*
X107848043Y-81158326D01*
X107883381Y-81162180D01*
X107907267Y-81168878D01*
X107925624Y-81179864D01*
X107944376Y-81196580D01*
X107975337Y-81235244D01*
X107998029Y-81292456D01*
X108000254Y-81331824D01*
G37*
X108000254Y-81331824D02*
X108001413Y-81352333D01*
X107986244Y-81409419D01*
X107953277Y-81458255D01*
X107903270Y-81493386D01*
X107898362Y-81495521D01*
X107843646Y-81510903D01*
X107781993Y-81516899D01*
X107723376Y-81513233D01*
X107677767Y-81499629D01*
X107659549Y-81490754D01*
X107646179Y-81488637D01*
X107643188Y-81499706D01*
X107637524Y-81509942D01*
X107615607Y-81516038D01*
X107573068Y-81517822D01*
X107502948Y-81517822D01*
X107506680Y-81297773D01*
X107643188Y-81297773D01*
X107647924Y-81330666D01*
X107668336Y-81366931D01*
X107675871Y-81373597D01*
X107706753Y-81387620D01*
X107753213Y-81391228D01*
X107781090Y-81389819D01*
X107833255Y-81379204D01*
X107865587Y-81359425D01*
X107876492Y-81331824D01*
X107864374Y-81297743D01*
X107857304Y-81288824D01*
X107825724Y-81268818D01*
X107775744Y-81257395D01*
X107704487Y-81253763D01*
X107643188Y-81253763D01*
X107643188Y-81297773D01*
X107506680Y-81297773D01*
X107507053Y-81275768D01*
X107508169Y-81219794D01*
X107511106Y-81135996D01*
X107516058Y-81071920D01*
X107524002Y-81024073D01*
X107535917Y-80988962D01*
X107552780Y-80963093D01*
X107575572Y-80942974D01*
X107605269Y-80925110D01*
X107620589Y-80918290D01*
X107673589Y-80905417D01*
X107737513Y-80900095D01*
X107803602Y-80902227D01*
X107863099Y-80911714D01*
X107907247Y-80928461D01*
X107922604Y-80938185D01*
X107957960Y-80967005D01*
X107969926Y-80991137D01*
X107967020Y-80995800D01*
X107948909Y-81012088D01*
X107919672Y-81033817D01*
X107904725Y-81043987D01*
X107879270Y-81058397D01*
X107862728Y-81059773D01*
X107847370Y-81049827D01*
X107809094Y-81029684D01*
X107757590Y-81021400D01*
X107704957Y-81027742D01*
X107703961Y-81028030D01*
X107666838Y-81044158D01*
X107648463Y-81069405D01*
X107643380Y-81111158D01*
X107643188Y-81150879D01*
X107774423Y-81155168D01*
X107795331Y-81155873D01*
X107848043Y-81158326D01*
X107883381Y-81162180D01*
X107907267Y-81168878D01*
X107925624Y-81179864D01*
X107944376Y-81196580D01*
X107975337Y-81235244D01*
X107998029Y-81292456D01*
X108000254Y-81331824D01*
G36*
X110417955Y-81321566D02*
G01*
X110419299Y-81350223D01*
X110419157Y-81351882D01*
X110403835Y-81416479D01*
X110369753Y-81465063D01*
X110315218Y-81500072D01*
X110287036Y-81508589D01*
X110238764Y-81515228D01*
X110185978Y-81516813D01*
X110138353Y-81513160D01*
X110105566Y-81504083D01*
X110085652Y-81496813D01*
X110066155Y-81504083D01*
X110059023Y-81508295D01*
X110030557Y-81515126D01*
X109992059Y-81517822D01*
X109931703Y-81517822D01*
X109931703Y-81302111D01*
X110070020Y-81302111D01*
X110074668Y-81338904D01*
X110093015Y-81371269D01*
X110103514Y-81378274D01*
X110140988Y-81389191D01*
X110187773Y-81391917D01*
X110233652Y-81386379D01*
X110268410Y-81372505D01*
X110285726Y-81354161D01*
X110296356Y-81321566D01*
X110286929Y-81295729D01*
X110255764Y-81273263D01*
X110205667Y-81258850D01*
X110139582Y-81253763D01*
X110070020Y-81253763D01*
X110070020Y-81302111D01*
X109931703Y-81302111D01*
X109931703Y-81274484D01*
X109931707Y-81253440D01*
X109931937Y-81174122D01*
X109932797Y-81115154D01*
X109934679Y-81072616D01*
X109937974Y-81042592D01*
X109943073Y-81021163D01*
X109950366Y-81004411D01*
X109960246Y-80988419D01*
X109992023Y-80950948D01*
X110037055Y-80922339D01*
X110096210Y-80906555D01*
X110174161Y-80901703D01*
X110176695Y-80901708D01*
X110230880Y-80904155D01*
X110279380Y-80910256D01*
X110312478Y-80918809D01*
X110321552Y-80923096D01*
X110350433Y-80941248D01*
X110376568Y-80962822D01*
X110393764Y-80982236D01*
X110395825Y-80993909D01*
X110391803Y-80997063D01*
X110347976Y-81030739D01*
X110318671Y-81050600D01*
X110299294Y-81058613D01*
X110285253Y-81056746D01*
X110271957Y-81046965D01*
X110247418Y-81034756D01*
X110206064Y-81026615D01*
X110159326Y-81024503D01*
X110117034Y-81028800D01*
X110089017Y-81039887D01*
X110087543Y-81041236D01*
X110074953Y-81066581D01*
X110070020Y-81104411D01*
X110070020Y-81153169D01*
X110186331Y-81153216D01*
X110239760Y-81154061D01*
X110284735Y-81157740D01*
X110316907Y-81165309D01*
X110342899Y-81177808D01*
X110348948Y-81181647D01*
X110392710Y-81223845D01*
X110415987Y-81279647D01*
X110417955Y-81321566D01*
G37*
X110417955Y-81321566D02*
X110419299Y-81350223D01*
X110419157Y-81351882D01*
X110403835Y-81416479D01*
X110369753Y-81465063D01*
X110315218Y-81500072D01*
X110287036Y-81508589D01*
X110238764Y-81515228D01*
X110185978Y-81516813D01*
X110138353Y-81513160D01*
X110105566Y-81504083D01*
X110085652Y-81496813D01*
X110066155Y-81504083D01*
X110059023Y-81508295D01*
X110030557Y-81515126D01*
X109992059Y-81517822D01*
X109931703Y-81517822D01*
X109931703Y-81302111D01*
X110070020Y-81302111D01*
X110074668Y-81338904D01*
X110093015Y-81371269D01*
X110103514Y-81378274D01*
X110140988Y-81389191D01*
X110187773Y-81391917D01*
X110233652Y-81386379D01*
X110268410Y-81372505D01*
X110285726Y-81354161D01*
X110296356Y-81321566D01*
X110286929Y-81295729D01*
X110255764Y-81273263D01*
X110205667Y-81258850D01*
X110139582Y-81253763D01*
X110070020Y-81253763D01*
X110070020Y-81302111D01*
X109931703Y-81302111D01*
X109931703Y-81274484D01*
X109931707Y-81253440D01*
X109931937Y-81174122D01*
X109932797Y-81115154D01*
X109934679Y-81072616D01*
X109937974Y-81042592D01*
X109943073Y-81021163D01*
X109950366Y-81004411D01*
X109960246Y-80988419D01*
X109992023Y-80950948D01*
X110037055Y-80922339D01*
X110096210Y-80906555D01*
X110174161Y-80901703D01*
X110176695Y-80901708D01*
X110230880Y-80904155D01*
X110279380Y-80910256D01*
X110312478Y-80918809D01*
X110321552Y-80923096D01*
X110350433Y-80941248D01*
X110376568Y-80962822D01*
X110393764Y-80982236D01*
X110395825Y-80993909D01*
X110391803Y-80997063D01*
X110347976Y-81030739D01*
X110318671Y-81050600D01*
X110299294Y-81058613D01*
X110285253Y-81056746D01*
X110271957Y-81046965D01*
X110247418Y-81034756D01*
X110206064Y-81026615D01*
X110159326Y-81024503D01*
X110117034Y-81028800D01*
X110089017Y-81039887D01*
X110087543Y-81041236D01*
X110074953Y-81066581D01*
X110070020Y-81104411D01*
X110070020Y-81153169D01*
X110186331Y-81153216D01*
X110239760Y-81154061D01*
X110284735Y-81157740D01*
X110316907Y-81165309D01*
X110342899Y-81177808D01*
X110348948Y-81181647D01*
X110392710Y-81223845D01*
X110415987Y-81279647D01*
X110417955Y-81321566D01*
G36*
X110987940Y-80270650D02*
G01*
X110987940Y-81519136D01*
X110921926Y-81515336D01*
X110855911Y-81511535D01*
X110852772Y-81310347D01*
X110851844Y-81261425D01*
X110849208Y-81187926D01*
X110844683Y-81133991D01*
X110837438Y-81095995D01*
X110826642Y-81070313D01*
X110811462Y-81053320D01*
X110791066Y-81041389D01*
X110752797Y-81029205D01*
X110714738Y-81033940D01*
X110674549Y-81059979D01*
X110635861Y-81092533D01*
X110635861Y-81517822D01*
X110497544Y-81517822D01*
X110497544Y-81287176D01*
X110497677Y-81214882D01*
X110498413Y-81150641D01*
X110500181Y-81103618D01*
X110503411Y-81069548D01*
X110508530Y-81044170D01*
X110515967Y-81023221D01*
X110526150Y-81002436D01*
X110528564Y-80998024D01*
X110560675Y-80955047D01*
X110598256Y-80925013D01*
X110643564Y-80909243D01*
X110703561Y-80902222D01*
X110763643Y-80906025D01*
X110812525Y-80920868D01*
X110849624Y-80940052D01*
X110849624Y-80524859D01*
X110798792Y-80551354D01*
X110777558Y-80560980D01*
X110710536Y-80574592D01*
X110643930Y-80565184D01*
X110582187Y-80533905D01*
X110529757Y-80481902D01*
X110521543Y-80469680D01*
X110513649Y-80451763D01*
X110508500Y-80427404D01*
X110505527Y-80391927D01*
X110504161Y-80340656D01*
X110503915Y-80287236D01*
X110636749Y-80287236D01*
X110636861Y-80331849D01*
X110640272Y-80361601D01*
X110647937Y-80382835D01*
X110660814Y-80401896D01*
X110677171Y-80419617D01*
X110703329Y-80433028D01*
X110742742Y-80436436D01*
X110777559Y-80433471D01*
X110812020Y-80418631D01*
X110834215Y-80388569D01*
X110846097Y-80340254D01*
X110849624Y-80270650D01*
X110848712Y-80233624D01*
X110839609Y-80163728D01*
X110820828Y-80116464D01*
X110792476Y-80092168D01*
X110763840Y-80085332D01*
X110713970Y-80088537D01*
X110671833Y-80108380D01*
X110661749Y-80117480D01*
X110651063Y-80133223D01*
X110644456Y-80156658D01*
X110640532Y-80193604D01*
X110637897Y-80249880D01*
X110636749Y-80287236D01*
X110503915Y-80287236D01*
X110503831Y-80268917D01*
X110503944Y-80236184D01*
X110505872Y-80160044D01*
X110511240Y-80103166D01*
X110521406Y-80061249D01*
X110537725Y-80029996D01*
X110561553Y-80005106D01*
X110594247Y-79982282D01*
X110620759Y-79969184D01*
X110683615Y-79954739D01*
X110749869Y-79956707D01*
X110808757Y-79975433D01*
X110834030Y-79987673D01*
X110846742Y-79988938D01*
X110849624Y-79977798D01*
X110849626Y-79977461D01*
X110855838Y-79966087D01*
X110877260Y-79960256D01*
X110918782Y-79958614D01*
X110987940Y-79958614D01*
X110987940Y-80270650D01*
G37*
X110987940Y-80270650D02*
X110987940Y-81519136D01*
X110921926Y-81515336D01*
X110855911Y-81511535D01*
X110852772Y-81310347D01*
X110851844Y-81261425D01*
X110849208Y-81187926D01*
X110844683Y-81133991D01*
X110837438Y-81095995D01*
X110826642Y-81070313D01*
X110811462Y-81053320D01*
X110791066Y-81041389D01*
X110752797Y-81029205D01*
X110714738Y-81033940D01*
X110674549Y-81059979D01*
X110635861Y-81092533D01*
X110635861Y-81517822D01*
X110497544Y-81517822D01*
X110497544Y-81287176D01*
X110497677Y-81214882D01*
X110498413Y-81150641D01*
X110500181Y-81103618D01*
X110503411Y-81069548D01*
X110508530Y-81044170D01*
X110515967Y-81023221D01*
X110526150Y-81002436D01*
X110528564Y-80998024D01*
X110560675Y-80955047D01*
X110598256Y-80925013D01*
X110643564Y-80909243D01*
X110703561Y-80902222D01*
X110763643Y-80906025D01*
X110812525Y-80920868D01*
X110849624Y-80940052D01*
X110849624Y-80524859D01*
X110798792Y-80551354D01*
X110777558Y-80560980D01*
X110710536Y-80574592D01*
X110643930Y-80565184D01*
X110582187Y-80533905D01*
X110529757Y-80481902D01*
X110521543Y-80469680D01*
X110513649Y-80451763D01*
X110508500Y-80427404D01*
X110505527Y-80391927D01*
X110504161Y-80340656D01*
X110503915Y-80287236D01*
X110636749Y-80287236D01*
X110636861Y-80331849D01*
X110640272Y-80361601D01*
X110647937Y-80382835D01*
X110660814Y-80401896D01*
X110677171Y-80419617D01*
X110703329Y-80433028D01*
X110742742Y-80436436D01*
X110777559Y-80433471D01*
X110812020Y-80418631D01*
X110834215Y-80388569D01*
X110846097Y-80340254D01*
X110849624Y-80270650D01*
X110848712Y-80233624D01*
X110839609Y-80163728D01*
X110820828Y-80116464D01*
X110792476Y-80092168D01*
X110763840Y-80085332D01*
X110713970Y-80088537D01*
X110671833Y-80108380D01*
X110661749Y-80117480D01*
X110651063Y-80133223D01*
X110644456Y-80156658D01*
X110640532Y-80193604D01*
X110637897Y-80249880D01*
X110636749Y-80287236D01*
X110503915Y-80287236D01*
X110503831Y-80268917D01*
X110503944Y-80236184D01*
X110505872Y-80160044D01*
X110511240Y-80103166D01*
X110521406Y-80061249D01*
X110537725Y-80029996D01*
X110561553Y-80005106D01*
X110594247Y-79982282D01*
X110620759Y-79969184D01*
X110683615Y-79954739D01*
X110749869Y-79956707D01*
X110808757Y-79975433D01*
X110834030Y-79987673D01*
X110846742Y-79988938D01*
X110849624Y-79977798D01*
X110849626Y-79977461D01*
X110855838Y-79966087D01*
X110877260Y-79960256D01*
X110918782Y-79958614D01*
X110987940Y-79958614D01*
X110987940Y-80270650D01*
G36*
X109076389Y-75790018D02*
G01*
X109133237Y-76091570D01*
X109343001Y-76178041D01*
X109552764Y-76264512D01*
X109804410Y-76093395D01*
X109854216Y-76059661D01*
X109920244Y-76015381D01*
X109977410Y-75977561D01*
X110022744Y-75948142D01*
X110053280Y-75929067D01*
X110066046Y-75922278D01*
X110073887Y-75927106D01*
X110097325Y-75947339D01*
X110132794Y-75980543D01*
X110177289Y-76023670D01*
X110227805Y-76073670D01*
X110281336Y-76127495D01*
X110334877Y-76182095D01*
X110385423Y-76234423D01*
X110429968Y-76281428D01*
X110465507Y-76320063D01*
X110489034Y-76347278D01*
X110497544Y-76360024D01*
X110495565Y-76365500D01*
X110481857Y-76389927D01*
X110456825Y-76430129D01*
X110422499Y-76482952D01*
X110380907Y-76545247D01*
X110334079Y-76613862D01*
X110308380Y-76651283D01*
X110264173Y-76716432D01*
X110226272Y-76773289D01*
X110196698Y-76818770D01*
X110177472Y-76849793D01*
X110170614Y-76863274D01*
X110170726Y-76864021D01*
X110176776Y-76881110D01*
X110190654Y-76916006D01*
X110210427Y-76964151D01*
X110234160Y-77020986D01*
X110259918Y-77081953D01*
X110285766Y-77142492D01*
X110309771Y-77198047D01*
X110329998Y-77244057D01*
X110344511Y-77275965D01*
X110351377Y-77289212D01*
X110355439Y-77290387D01*
X110380121Y-77295687D01*
X110424111Y-77304467D01*
X110483887Y-77316040D01*
X110555929Y-77329721D01*
X110636716Y-77344823D01*
X110679294Y-77352830D01*
X110757445Y-77368107D01*
X110825775Y-77382215D01*
X110880551Y-77394345D01*
X110918037Y-77403686D01*
X110934500Y-77409427D01*
X110937457Y-77415119D01*
X110942362Y-77442930D01*
X110946216Y-77489250D01*
X110949021Y-77549720D01*
X110950781Y-77619983D01*
X110951499Y-77695680D01*
X110951177Y-77772453D01*
X110949819Y-77845944D01*
X110947428Y-77911794D01*
X110944006Y-77965645D01*
X110939556Y-78003138D01*
X110934082Y-78019916D01*
X110930760Y-78021809D01*
X110905987Y-78029926D01*
X110863011Y-78040666D01*
X110806802Y-78052853D01*
X110742325Y-78065310D01*
X110720570Y-78069277D01*
X110620093Y-78087729D01*
X110541126Y-78102559D01*
X110480934Y-78114380D01*
X110436778Y-78123809D01*
X110405920Y-78131460D01*
X110385625Y-78137948D01*
X110373154Y-78143888D01*
X110365771Y-78149894D01*
X110364913Y-78150902D01*
X110352838Y-78171919D01*
X110334971Y-78210376D01*
X110313042Y-78261761D01*
X110288784Y-78321563D01*
X110263927Y-78385270D01*
X110240205Y-78448371D01*
X110219347Y-78506355D01*
X110203087Y-78554709D01*
X110193156Y-78588922D01*
X110191285Y-78604483D01*
X110192536Y-78606502D01*
X110205486Y-78626028D01*
X110229840Y-78662042D01*
X110263340Y-78711228D01*
X110303727Y-78770267D01*
X110348745Y-78835842D01*
X110361100Y-78853884D01*
X110404545Y-78918599D01*
X110442091Y-78976476D01*
X110471594Y-79024082D01*
X110490914Y-79057985D01*
X110497905Y-79074752D01*
X110496398Y-79079161D01*
X110480695Y-79100882D01*
X110449714Y-79136354D01*
X110405673Y-79183188D01*
X110350790Y-79238996D01*
X110287286Y-79301392D01*
X110250988Y-79336317D01*
X110193595Y-79390711D01*
X110143361Y-79437302D01*
X110102984Y-79473636D01*
X110075161Y-79497261D01*
X110062590Y-79505724D01*
X110053952Y-79502587D01*
X110027360Y-79487747D01*
X109988741Y-79463477D01*
X109943134Y-79432852D01*
X109910707Y-79410503D01*
X109845970Y-79366122D01*
X109776886Y-79318987D01*
X109713787Y-79276155D01*
X109590178Y-79192547D01*
X109486417Y-79248650D01*
X109461984Y-79261599D01*
X109417552Y-79283749D01*
X109383191Y-79299041D01*
X109364828Y-79304743D01*
X109358818Y-79297421D01*
X109343895Y-79269541D01*
X109321852Y-79223575D01*
X109293917Y-79162441D01*
X109261317Y-79089055D01*
X109225276Y-79006335D01*
X109187023Y-78917197D01*
X109147783Y-78824559D01*
X109108783Y-78731337D01*
X109071249Y-78640450D01*
X109036409Y-78554814D01*
X109005488Y-78477345D01*
X108979714Y-78410962D01*
X108960311Y-78358582D01*
X108948508Y-78323121D01*
X108945531Y-78307496D01*
X108945732Y-78307039D01*
X108959601Y-78292595D01*
X108988611Y-78269974D01*
X109026772Y-78243864D01*
X109038817Y-78235892D01*
X109130469Y-78160256D01*
X109206323Y-78070169D01*
X109264581Y-77969381D01*
X109303448Y-77861640D01*
X109321128Y-77750697D01*
X109315826Y-77640303D01*
X109294347Y-77542115D01*
X109255782Y-77442966D01*
X109199562Y-77354512D01*
X109122410Y-77270487D01*
X109092095Y-77243645D01*
X108994094Y-77177510D01*
X108888227Y-77132970D01*
X108777561Y-77109625D01*
X108665164Y-77107078D01*
X108554105Y-77124929D01*
X108447451Y-77162780D01*
X108348270Y-77220232D01*
X108259631Y-77296887D01*
X108184600Y-77392345D01*
X108170175Y-77415985D01*
X108121143Y-77524034D01*
X108095103Y-77636548D01*
X108091372Y-77750614D01*
X108109268Y-77863318D01*
X108148109Y-77971745D01*
X108207214Y-78072982D01*
X108285900Y-78164114D01*
X108383485Y-78242228D01*
X108386654Y-78244333D01*
X108424411Y-78270940D01*
X108452709Y-78293561D01*
X108465634Y-78307496D01*
X108464003Y-78318421D01*
X108453864Y-78350231D01*
X108435884Y-78399534D01*
X108411292Y-78463413D01*
X108381311Y-78538948D01*
X108347170Y-78623223D01*
X108310092Y-78713320D01*
X108271306Y-78806321D01*
X108232036Y-78899308D01*
X108193509Y-78989364D01*
X108156950Y-79073571D01*
X108123586Y-79149010D01*
X108094643Y-79212765D01*
X108071346Y-79261917D01*
X108054923Y-79293549D01*
X108046598Y-79304743D01*
X108039674Y-79303227D01*
X108012477Y-79292331D01*
X107972280Y-79273228D01*
X107925009Y-79248650D01*
X107821248Y-79192547D01*
X107697639Y-79276155D01*
X107661120Y-79300913D01*
X107593194Y-79347171D01*
X107525475Y-79393503D01*
X107468291Y-79432852D01*
X107436732Y-79454297D01*
X107395714Y-79480939D01*
X107365301Y-79499178D01*
X107350446Y-79505941D01*
X107344065Y-79503070D01*
X107320996Y-79485485D01*
X107285433Y-79454523D01*
X107240471Y-79413231D01*
X107189206Y-79364653D01*
X107134733Y-79311835D01*
X107080148Y-79257823D01*
X107028547Y-79205661D01*
X106983024Y-79158396D01*
X106946675Y-79119072D01*
X106922595Y-79090736D01*
X106913881Y-79076432D01*
X106914383Y-79073711D01*
X106924755Y-79051560D01*
X106946912Y-79013235D01*
X106978712Y-78962200D01*
X107018016Y-78901914D01*
X107062681Y-78835842D01*
X107075207Y-78817617D01*
X107119193Y-78753485D01*
X107157937Y-78696789D01*
X107189182Y-78650844D01*
X107210669Y-78618970D01*
X107220140Y-78604483D01*
X107220373Y-78603862D01*
X107217578Y-78586139D01*
X107206903Y-78550235D01*
X107190081Y-78500662D01*
X107168843Y-78441932D01*
X107144921Y-78378556D01*
X107120046Y-78315046D01*
X107095950Y-78255913D01*
X107074365Y-78205669D01*
X107057023Y-78168826D01*
X107045655Y-78149894D01*
X107044516Y-78148719D01*
X107036376Y-78142773D01*
X107022629Y-78136776D01*
X107000537Y-78130114D01*
X106967363Y-78122173D01*
X106920370Y-78112337D01*
X106856820Y-78099991D01*
X106773976Y-78084520D01*
X106669100Y-78065310D01*
X106647348Y-78061267D01*
X106585036Y-78048769D01*
X106532619Y-78036927D01*
X106495066Y-78026917D01*
X106477343Y-78019916D01*
X106474378Y-78014075D01*
X106469435Y-77986016D01*
X106465518Y-77939500D01*
X106462629Y-77878886D01*
X106460773Y-77808532D01*
X106459952Y-77732796D01*
X106460168Y-77656037D01*
X106461426Y-77582612D01*
X106463728Y-77516880D01*
X106467076Y-77463200D01*
X106471474Y-77425930D01*
X106476926Y-77409427D01*
X106482491Y-77406989D01*
X106510178Y-77399305D01*
X106556979Y-77388436D01*
X106619157Y-77375192D01*
X106692979Y-77360384D01*
X106774710Y-77344823D01*
X106819336Y-77336509D01*
X106895824Y-77322092D01*
X106961660Y-77309467D01*
X107013323Y-77299321D01*
X107047293Y-77292341D01*
X107060048Y-77289212D01*
X107060528Y-77288568D01*
X107068651Y-77272181D01*
X107084137Y-77237852D01*
X107105050Y-77190136D01*
X107129455Y-77133586D01*
X107155416Y-77072758D01*
X107180997Y-77012206D01*
X107204262Y-76956485D01*
X107223277Y-76910150D01*
X107236105Y-76877755D01*
X107240812Y-76863855D01*
X107238736Y-76858965D01*
X107224920Y-76835692D01*
X107199860Y-76796519D01*
X107165568Y-76744520D01*
X107124059Y-76682768D01*
X107077346Y-76614336D01*
X107051718Y-76576860D01*
X107007490Y-76511156D01*
X106969570Y-76453492D01*
X106939980Y-76407014D01*
X106920743Y-76374865D01*
X106913881Y-76360190D01*
X106918649Y-76352230D01*
X106938593Y-76328446D01*
X106971313Y-76292451D01*
X107013805Y-76247295D01*
X107063065Y-76196028D01*
X107116091Y-76141701D01*
X107169877Y-76087364D01*
X107221421Y-76036067D01*
X107267720Y-75990859D01*
X107305769Y-75954792D01*
X107332565Y-75930914D01*
X107345105Y-75922278D01*
X107352066Y-75925636D01*
X107377627Y-75941210D01*
X107418874Y-75967715D01*
X107472837Y-76003210D01*
X107536542Y-76045750D01*
X107607016Y-76093395D01*
X107858662Y-76264512D01*
X108278188Y-76091570D01*
X108335036Y-75790018D01*
X108391885Y-75488466D01*
X109019540Y-75488466D01*
X109076389Y-75790018D01*
G37*
X109076389Y-75790018D02*
X109133237Y-76091570D01*
X109343001Y-76178041D01*
X109552764Y-76264512D01*
X109804410Y-76093395D01*
X109854216Y-76059661D01*
X109920244Y-76015381D01*
X109977410Y-75977561D01*
X110022744Y-75948142D01*
X110053280Y-75929067D01*
X110066046Y-75922278D01*
X110073887Y-75927106D01*
X110097325Y-75947339D01*
X110132794Y-75980543D01*
X110177289Y-76023670D01*
X110227805Y-76073670D01*
X110281336Y-76127495D01*
X110334877Y-76182095D01*
X110385423Y-76234423D01*
X110429968Y-76281428D01*
X110465507Y-76320063D01*
X110489034Y-76347278D01*
X110497544Y-76360024D01*
X110495565Y-76365500D01*
X110481857Y-76389927D01*
X110456825Y-76430129D01*
X110422499Y-76482952D01*
X110380907Y-76545247D01*
X110334079Y-76613862D01*
X110308380Y-76651283D01*
X110264173Y-76716432D01*
X110226272Y-76773289D01*
X110196698Y-76818770D01*
X110177472Y-76849793D01*
X110170614Y-76863274D01*
X110170726Y-76864021D01*
X110176776Y-76881110D01*
X110190654Y-76916006D01*
X110210427Y-76964151D01*
X110234160Y-77020986D01*
X110259918Y-77081953D01*
X110285766Y-77142492D01*
X110309771Y-77198047D01*
X110329998Y-77244057D01*
X110344511Y-77275965D01*
X110351377Y-77289212D01*
X110355439Y-77290387D01*
X110380121Y-77295687D01*
X110424111Y-77304467D01*
X110483887Y-77316040D01*
X110555929Y-77329721D01*
X110636716Y-77344823D01*
X110679294Y-77352830D01*
X110757445Y-77368107D01*
X110825775Y-77382215D01*
X110880551Y-77394345D01*
X110918037Y-77403686D01*
X110934500Y-77409427D01*
X110937457Y-77415119D01*
X110942362Y-77442930D01*
X110946216Y-77489250D01*
X110949021Y-77549720D01*
X110950781Y-77619983D01*
X110951499Y-77695680D01*
X110951177Y-77772453D01*
X110949819Y-77845944D01*
X110947428Y-77911794D01*
X110944006Y-77965645D01*
X110939556Y-78003138D01*
X110934082Y-78019916D01*
X110930760Y-78021809D01*
X110905987Y-78029926D01*
X110863011Y-78040666D01*
X110806802Y-78052853D01*
X110742325Y-78065310D01*
X110720570Y-78069277D01*
X110620093Y-78087729D01*
X110541126Y-78102559D01*
X110480934Y-78114380D01*
X110436778Y-78123809D01*
X110405920Y-78131460D01*
X110385625Y-78137948D01*
X110373154Y-78143888D01*
X110365771Y-78149894D01*
X110364913Y-78150902D01*
X110352838Y-78171919D01*
X110334971Y-78210376D01*
X110313042Y-78261761D01*
X110288784Y-78321563D01*
X110263927Y-78385270D01*
X110240205Y-78448371D01*
X110219347Y-78506355D01*
X110203087Y-78554709D01*
X110193156Y-78588922D01*
X110191285Y-78604483D01*
X110192536Y-78606502D01*
X110205486Y-78626028D01*
X110229840Y-78662042D01*
X110263340Y-78711228D01*
X110303727Y-78770267D01*
X110348745Y-78835842D01*
X110361100Y-78853884D01*
X110404545Y-78918599D01*
X110442091Y-78976476D01*
X110471594Y-79024082D01*
X110490914Y-79057985D01*
X110497905Y-79074752D01*
X110496398Y-79079161D01*
X110480695Y-79100882D01*
X110449714Y-79136354D01*
X110405673Y-79183188D01*
X110350790Y-79238996D01*
X110287286Y-79301392D01*
X110250988Y-79336317D01*
X110193595Y-79390711D01*
X110143361Y-79437302D01*
X110102984Y-79473636D01*
X110075161Y-79497261D01*
X110062590Y-79505724D01*
X110053952Y-79502587D01*
X110027360Y-79487747D01*
X109988741Y-79463477D01*
X109943134Y-79432852D01*
X109910707Y-79410503D01*
X109845970Y-79366122D01*
X109776886Y-79318987D01*
X109713787Y-79276155D01*
X109590178Y-79192547D01*
X109486417Y-79248650D01*
X109461984Y-79261599D01*
X109417552Y-79283749D01*
X109383191Y-79299041D01*
X109364828Y-79304743D01*
X109358818Y-79297421D01*
X109343895Y-79269541D01*
X109321852Y-79223575D01*
X109293917Y-79162441D01*
X109261317Y-79089055D01*
X109225276Y-79006335D01*
X109187023Y-78917197D01*
X109147783Y-78824559D01*
X109108783Y-78731337D01*
X109071249Y-78640450D01*
X109036409Y-78554814D01*
X109005488Y-78477345D01*
X108979714Y-78410962D01*
X108960311Y-78358582D01*
X108948508Y-78323121D01*
X108945531Y-78307496D01*
X108945732Y-78307039D01*
X108959601Y-78292595D01*
X108988611Y-78269974D01*
X109026772Y-78243864D01*
X109038817Y-78235892D01*
X109130469Y-78160256D01*
X109206323Y-78070169D01*
X109264581Y-77969381D01*
X109303448Y-77861640D01*
X109321128Y-77750697D01*
X109315826Y-77640303D01*
X109294347Y-77542115D01*
X109255782Y-77442966D01*
X109199562Y-77354512D01*
X109122410Y-77270487D01*
X109092095Y-77243645D01*
X108994094Y-77177510D01*
X108888227Y-77132970D01*
X108777561Y-77109625D01*
X108665164Y-77107078D01*
X108554105Y-77124929D01*
X108447451Y-77162780D01*
X108348270Y-77220232D01*
X108259631Y-77296887D01*
X108184600Y-77392345D01*
X108170175Y-77415985D01*
X108121143Y-77524034D01*
X108095103Y-77636548D01*
X108091372Y-77750614D01*
X108109268Y-77863318D01*
X108148109Y-77971745D01*
X108207214Y-78072982D01*
X108285900Y-78164114D01*
X108383485Y-78242228D01*
X108386654Y-78244333D01*
X108424411Y-78270940D01*
X108452709Y-78293561D01*
X108465634Y-78307496D01*
X108464003Y-78318421D01*
X108453864Y-78350231D01*
X108435884Y-78399534D01*
X108411292Y-78463413D01*
X108381311Y-78538948D01*
X108347170Y-78623223D01*
X108310092Y-78713320D01*
X108271306Y-78806321D01*
X108232036Y-78899308D01*
X108193509Y-78989364D01*
X108156950Y-79073571D01*
X108123586Y-79149010D01*
X108094643Y-79212765D01*
X108071346Y-79261917D01*
X108054923Y-79293549D01*
X108046598Y-79304743D01*
X108039674Y-79303227D01*
X108012477Y-79292331D01*
X107972280Y-79273228D01*
X107925009Y-79248650D01*
X107821248Y-79192547D01*
X107697639Y-79276155D01*
X107661120Y-79300913D01*
X107593194Y-79347171D01*
X107525475Y-79393503D01*
X107468291Y-79432852D01*
X107436732Y-79454297D01*
X107395714Y-79480939D01*
X107365301Y-79499178D01*
X107350446Y-79505941D01*
X107344065Y-79503070D01*
X107320996Y-79485485D01*
X107285433Y-79454523D01*
X107240471Y-79413231D01*
X107189206Y-79364653D01*
X107134733Y-79311835D01*
X107080148Y-79257823D01*
X107028547Y-79205661D01*
X106983024Y-79158396D01*
X106946675Y-79119072D01*
X106922595Y-79090736D01*
X106913881Y-79076432D01*
X106914383Y-79073711D01*
X106924755Y-79051560D01*
X106946912Y-79013235D01*
X106978712Y-78962200D01*
X107018016Y-78901914D01*
X107062681Y-78835842D01*
X107075207Y-78817617D01*
X107119193Y-78753485D01*
X107157937Y-78696789D01*
X107189182Y-78650844D01*
X107210669Y-78618970D01*
X107220140Y-78604483D01*
X107220373Y-78603862D01*
X107217578Y-78586139D01*
X107206903Y-78550235D01*
X107190081Y-78500662D01*
X107168843Y-78441932D01*
X107144921Y-78378556D01*
X107120046Y-78315046D01*
X107095950Y-78255913D01*
X107074365Y-78205669D01*
X107057023Y-78168826D01*
X107045655Y-78149894D01*
X107044516Y-78148719D01*
X107036376Y-78142773D01*
X107022629Y-78136776D01*
X107000537Y-78130114D01*
X106967363Y-78122173D01*
X106920370Y-78112337D01*
X106856820Y-78099991D01*
X106773976Y-78084520D01*
X106669100Y-78065310D01*
X106647348Y-78061267D01*
X106585036Y-78048769D01*
X106532619Y-78036927D01*
X106495066Y-78026917D01*
X106477343Y-78019916D01*
X106474378Y-78014075D01*
X106469435Y-77986016D01*
X106465518Y-77939500D01*
X106462629Y-77878886D01*
X106460773Y-77808532D01*
X106459952Y-77732796D01*
X106460168Y-77656037D01*
X106461426Y-77582612D01*
X106463728Y-77516880D01*
X106467076Y-77463200D01*
X106471474Y-77425930D01*
X106476926Y-77409427D01*
X106482491Y-77406989D01*
X106510178Y-77399305D01*
X106556979Y-77388436D01*
X106619157Y-77375192D01*
X106692979Y-77360384D01*
X106774710Y-77344823D01*
X106819336Y-77336509D01*
X106895824Y-77322092D01*
X106961660Y-77309467D01*
X107013323Y-77299321D01*
X107047293Y-77292341D01*
X107060048Y-77289212D01*
X107060528Y-77288568D01*
X107068651Y-77272181D01*
X107084137Y-77237852D01*
X107105050Y-77190136D01*
X107129455Y-77133586D01*
X107155416Y-77072758D01*
X107180997Y-77012206D01*
X107204262Y-76956485D01*
X107223277Y-76910150D01*
X107236105Y-76877755D01*
X107240812Y-76863855D01*
X107238736Y-76858965D01*
X107224920Y-76835692D01*
X107199860Y-76796519D01*
X107165568Y-76744520D01*
X107124059Y-76682768D01*
X107077346Y-76614336D01*
X107051718Y-76576860D01*
X107007490Y-76511156D01*
X106969570Y-76453492D01*
X106939980Y-76407014D01*
X106920743Y-76374865D01*
X106913881Y-76360190D01*
X106918649Y-76352230D01*
X106938593Y-76328446D01*
X106971313Y-76292451D01*
X107013805Y-76247295D01*
X107063065Y-76196028D01*
X107116091Y-76141701D01*
X107169877Y-76087364D01*
X107221421Y-76036067D01*
X107267720Y-75990859D01*
X107305769Y-75954792D01*
X107332565Y-75930914D01*
X107345105Y-75922278D01*
X107352066Y-75925636D01*
X107377627Y-75941210D01*
X107418874Y-75967715D01*
X107472837Y-76003210D01*
X107536542Y-76045750D01*
X107607016Y-76093395D01*
X107858662Y-76264512D01*
X108278188Y-76091570D01*
X108335036Y-75790018D01*
X108391885Y-75488466D01*
X109019540Y-75488466D01*
X109076389Y-75790018D01*
D14*
%TO.C,D2*%
X126120000Y-83543000D02*
X126120000Y-77733000D01*
X130420000Y-83543000D02*
X126120000Y-83543000D01*
X130420000Y-83543000D02*
X130420000Y-77733000D01*
%TO.C,J10*%
X120710000Y-77410000D02*
X120710000Y-80070000D01*
X118110000Y-77410000D02*
X120710000Y-77410000D01*
X118110000Y-77410000D02*
X118110000Y-80070000D01*
X116840000Y-77410000D02*
X115510000Y-77410000D01*
X115510000Y-77410000D02*
X115510000Y-78740000D01*
X118110000Y-80070000D02*
X120710000Y-80070000D01*
%TO.C,J8*%
X153095000Y-92650000D02*
X153095000Y-95310000D01*
X150495000Y-92650000D02*
X153095000Y-92650000D01*
X150495000Y-92650000D02*
X150495000Y-95310000D01*
X149225000Y-92650000D02*
X147895000Y-92650000D01*
X147895000Y-92650000D02*
X147895000Y-93980000D01*
X150495000Y-95310000D02*
X153095000Y-95310000D01*
%TO.C,J11*%
X135830000Y-80070000D02*
X135830000Y-77410000D01*
X138430000Y-80070000D02*
X135830000Y-80070000D01*
X138430000Y-80070000D02*
X138430000Y-77410000D01*
X139700000Y-80070000D02*
X141030000Y-80070000D01*
X141030000Y-80070000D02*
X141030000Y-78740000D01*
X138430000Y-77410000D02*
X135830000Y-77410000D01*
%TO.C,J9*%
X108645000Y-92650000D02*
X108645000Y-95310000D01*
X106045000Y-92650000D02*
X108645000Y-92650000D01*
X106045000Y-92650000D02*
X106045000Y-95310000D01*
X104775000Y-92650000D02*
X103445000Y-92650000D01*
X103445000Y-92650000D02*
X103445000Y-93980000D01*
X106045000Y-95310000D02*
X108645000Y-95310000D01*
%TD*%
M02*
