%TF.GenerationSoftware,KiCad,Pcbnew,(7.0.0-0)*%
%TF.CreationDate,2023-04-13T19:26:27-06:00*%
%TF.ProjectId,Breadboard Power Supply,42726561-6462-46f6-9172-6420506f7765,v4*%
%TF.SameCoordinates,Original*%
%TF.FileFunction,Legend,Top*%
%TF.FilePolarity,Positive*%
%FSLAX46Y46*%
G04 Gerber Fmt 4.6, Leading zero omitted, Abs format (unit mm)*
G04 Created by KiCad (PCBNEW (7.0.0-0)) date 2023-04-13 19:26:27*
%MOMM*%
%LPD*%
G01*
G04 APERTURE LIST*
%ADD10C,0.150000*%
%ADD11C,0.100000*%
%ADD12C,0.200000*%
%ADD13C,0.120000*%
%ADD14C,0.127000*%
G04 APERTURE END LIST*
D10*
X152325380Y-92154238D02*
X152325380Y-92630428D01*
X152325380Y-92630428D02*
X152801571Y-92678047D01*
X152801571Y-92678047D02*
X152753952Y-92630428D01*
X152753952Y-92630428D02*
X152706333Y-92535190D01*
X152706333Y-92535190D02*
X152706333Y-92297095D01*
X152706333Y-92297095D02*
X152753952Y-92201857D01*
X152753952Y-92201857D02*
X152801571Y-92154238D01*
X152801571Y-92154238D02*
X152896809Y-92106619D01*
X152896809Y-92106619D02*
X153134904Y-92106619D01*
X153134904Y-92106619D02*
X153230142Y-92154238D01*
X153230142Y-92154238D02*
X153277761Y-92201857D01*
X153277761Y-92201857D02*
X153325380Y-92297095D01*
X153325380Y-92297095D02*
X153325380Y-92535190D01*
X153325380Y-92535190D02*
X153277761Y-92630428D01*
X153277761Y-92630428D02*
X153230142Y-92678047D01*
X152325380Y-91820904D02*
X153325380Y-91487571D01*
X153325380Y-91487571D02*
X152325380Y-91154238D01*
X105843380Y-94154237D02*
X105843380Y-93535190D01*
X105843380Y-93535190D02*
X106224333Y-93868523D01*
X106224333Y-93868523D02*
X106224333Y-93725666D01*
X106224333Y-93725666D02*
X106271952Y-93630428D01*
X106271952Y-93630428D02*
X106319571Y-93582809D01*
X106319571Y-93582809D02*
X106414809Y-93535190D01*
X106414809Y-93535190D02*
X106652904Y-93535190D01*
X106652904Y-93535190D02*
X106748142Y-93582809D01*
X106748142Y-93582809D02*
X106795761Y-93630428D01*
X106795761Y-93630428D02*
X106843380Y-93725666D01*
X106843380Y-93725666D02*
X106843380Y-94011380D01*
X106843380Y-94011380D02*
X106795761Y-94106618D01*
X106795761Y-94106618D02*
X106748142Y-94154237D01*
X106748142Y-93106618D02*
X106795761Y-93058999D01*
X106795761Y-93058999D02*
X106843380Y-93106618D01*
X106843380Y-93106618D02*
X106795761Y-93154237D01*
X106795761Y-93154237D02*
X106748142Y-93106618D01*
X106748142Y-93106618D02*
X106843380Y-93106618D01*
X105843380Y-92725666D02*
X105843380Y-92106619D01*
X105843380Y-92106619D02*
X106224333Y-92439952D01*
X106224333Y-92439952D02*
X106224333Y-92297095D01*
X106224333Y-92297095D02*
X106271952Y-92201857D01*
X106271952Y-92201857D02*
X106319571Y-92154238D01*
X106319571Y-92154238D02*
X106414809Y-92106619D01*
X106414809Y-92106619D02*
X106652904Y-92106619D01*
X106652904Y-92106619D02*
X106748142Y-92154238D01*
X106748142Y-92154238D02*
X106795761Y-92201857D01*
X106795761Y-92201857D02*
X106843380Y-92297095D01*
X106843380Y-92297095D02*
X106843380Y-92582809D01*
X106843380Y-92582809D02*
X106795761Y-92678047D01*
X106795761Y-92678047D02*
X106748142Y-92725666D01*
X105843380Y-91820904D02*
X106843380Y-91487571D01*
X106843380Y-91487571D02*
X105843380Y-91154238D01*
X104303380Y-93535190D02*
X104303380Y-94106618D01*
X104303380Y-93820904D02*
X103303380Y-93820904D01*
X103303380Y-93820904D02*
X103446238Y-93916142D01*
X103446238Y-93916142D02*
X103541476Y-94011380D01*
X103541476Y-94011380D02*
X103589095Y-94106618D01*
X104208142Y-93106618D02*
X104255761Y-93058999D01*
X104255761Y-93058999D02*
X104303380Y-93106618D01*
X104303380Y-93106618D02*
X104255761Y-93154237D01*
X104255761Y-93154237D02*
X104208142Y-93106618D01*
X104208142Y-93106618D02*
X104303380Y-93106618D01*
X103731952Y-92487571D02*
X103684333Y-92582809D01*
X103684333Y-92582809D02*
X103636714Y-92630428D01*
X103636714Y-92630428D02*
X103541476Y-92678047D01*
X103541476Y-92678047D02*
X103493857Y-92678047D01*
X103493857Y-92678047D02*
X103398619Y-92630428D01*
X103398619Y-92630428D02*
X103351000Y-92582809D01*
X103351000Y-92582809D02*
X103303380Y-92487571D01*
X103303380Y-92487571D02*
X103303380Y-92297095D01*
X103303380Y-92297095D02*
X103351000Y-92201857D01*
X103351000Y-92201857D02*
X103398619Y-92154238D01*
X103398619Y-92154238D02*
X103493857Y-92106619D01*
X103493857Y-92106619D02*
X103541476Y-92106619D01*
X103541476Y-92106619D02*
X103636714Y-92154238D01*
X103636714Y-92154238D02*
X103684333Y-92201857D01*
X103684333Y-92201857D02*
X103731952Y-92297095D01*
X103731952Y-92297095D02*
X103731952Y-92487571D01*
X103731952Y-92487571D02*
X103779571Y-92582809D01*
X103779571Y-92582809D02*
X103827190Y-92630428D01*
X103827190Y-92630428D02*
X103922428Y-92678047D01*
X103922428Y-92678047D02*
X104112904Y-92678047D01*
X104112904Y-92678047D02*
X104208142Y-92630428D01*
X104208142Y-92630428D02*
X104255761Y-92582809D01*
X104255761Y-92582809D02*
X104303380Y-92487571D01*
X104303380Y-92487571D02*
X104303380Y-92297095D01*
X104303380Y-92297095D02*
X104255761Y-92201857D01*
X104255761Y-92201857D02*
X104208142Y-92154238D01*
X104208142Y-92154238D02*
X104112904Y-92106619D01*
X104112904Y-92106619D02*
X103922428Y-92106619D01*
X103922428Y-92106619D02*
X103827190Y-92154238D01*
X103827190Y-92154238D02*
X103779571Y-92201857D01*
X103779571Y-92201857D02*
X103731952Y-92297095D01*
X103303380Y-91820904D02*
X104303380Y-91487571D01*
X104303380Y-91487571D02*
X103303380Y-91154238D01*
X149785380Y-94154237D02*
X149785380Y-93535190D01*
X149785380Y-93535190D02*
X150166333Y-93868523D01*
X150166333Y-93868523D02*
X150166333Y-93725666D01*
X150166333Y-93725666D02*
X150213952Y-93630428D01*
X150213952Y-93630428D02*
X150261571Y-93582809D01*
X150261571Y-93582809D02*
X150356809Y-93535190D01*
X150356809Y-93535190D02*
X150594904Y-93535190D01*
X150594904Y-93535190D02*
X150690142Y-93582809D01*
X150690142Y-93582809D02*
X150737761Y-93630428D01*
X150737761Y-93630428D02*
X150785380Y-93725666D01*
X150785380Y-93725666D02*
X150785380Y-94011380D01*
X150785380Y-94011380D02*
X150737761Y-94106618D01*
X150737761Y-94106618D02*
X150690142Y-94154237D01*
X150690142Y-93106618D02*
X150737761Y-93058999D01*
X150737761Y-93058999D02*
X150785380Y-93106618D01*
X150785380Y-93106618D02*
X150737761Y-93154237D01*
X150737761Y-93154237D02*
X150690142Y-93106618D01*
X150690142Y-93106618D02*
X150785380Y-93106618D01*
X149785380Y-92725666D02*
X149785380Y-92106619D01*
X149785380Y-92106619D02*
X150166333Y-92439952D01*
X150166333Y-92439952D02*
X150166333Y-92297095D01*
X150166333Y-92297095D02*
X150213952Y-92201857D01*
X150213952Y-92201857D02*
X150261571Y-92154238D01*
X150261571Y-92154238D02*
X150356809Y-92106619D01*
X150356809Y-92106619D02*
X150594904Y-92106619D01*
X150594904Y-92106619D02*
X150690142Y-92154238D01*
X150690142Y-92154238D02*
X150737761Y-92201857D01*
X150737761Y-92201857D02*
X150785380Y-92297095D01*
X150785380Y-92297095D02*
X150785380Y-92582809D01*
X150785380Y-92582809D02*
X150737761Y-92678047D01*
X150737761Y-92678047D02*
X150690142Y-92725666D01*
X149785380Y-91820904D02*
X150785380Y-91487571D01*
X150785380Y-91487571D02*
X149785380Y-91154238D01*
X148245380Y-93535190D02*
X148245380Y-94106618D01*
X148245380Y-93820904D02*
X147245380Y-93820904D01*
X147245380Y-93820904D02*
X147388238Y-93916142D01*
X147388238Y-93916142D02*
X147483476Y-94011380D01*
X147483476Y-94011380D02*
X147531095Y-94106618D01*
X148150142Y-93106618D02*
X148197761Y-93058999D01*
X148197761Y-93058999D02*
X148245380Y-93106618D01*
X148245380Y-93106618D02*
X148197761Y-93154237D01*
X148197761Y-93154237D02*
X148150142Y-93106618D01*
X148150142Y-93106618D02*
X148245380Y-93106618D01*
X147673952Y-92487571D02*
X147626333Y-92582809D01*
X147626333Y-92582809D02*
X147578714Y-92630428D01*
X147578714Y-92630428D02*
X147483476Y-92678047D01*
X147483476Y-92678047D02*
X147435857Y-92678047D01*
X147435857Y-92678047D02*
X147340619Y-92630428D01*
X147340619Y-92630428D02*
X147293000Y-92582809D01*
X147293000Y-92582809D02*
X147245380Y-92487571D01*
X147245380Y-92487571D02*
X147245380Y-92297095D01*
X147245380Y-92297095D02*
X147293000Y-92201857D01*
X147293000Y-92201857D02*
X147340619Y-92154238D01*
X147340619Y-92154238D02*
X147435857Y-92106619D01*
X147435857Y-92106619D02*
X147483476Y-92106619D01*
X147483476Y-92106619D02*
X147578714Y-92154238D01*
X147578714Y-92154238D02*
X147626333Y-92201857D01*
X147626333Y-92201857D02*
X147673952Y-92297095D01*
X147673952Y-92297095D02*
X147673952Y-92487571D01*
X147673952Y-92487571D02*
X147721571Y-92582809D01*
X147721571Y-92582809D02*
X147769190Y-92630428D01*
X147769190Y-92630428D02*
X147864428Y-92678047D01*
X147864428Y-92678047D02*
X148054904Y-92678047D01*
X148054904Y-92678047D02*
X148150142Y-92630428D01*
X148150142Y-92630428D02*
X148197761Y-92582809D01*
X148197761Y-92582809D02*
X148245380Y-92487571D01*
X148245380Y-92487571D02*
X148245380Y-92297095D01*
X148245380Y-92297095D02*
X148197761Y-92201857D01*
X148197761Y-92201857D02*
X148150142Y-92154238D01*
X148150142Y-92154238D02*
X148054904Y-92106619D01*
X148054904Y-92106619D02*
X147864428Y-92106619D01*
X147864428Y-92106619D02*
X147769190Y-92154238D01*
X147769190Y-92154238D02*
X147721571Y-92201857D01*
X147721571Y-92201857D02*
X147673952Y-92297095D01*
X147245380Y-91820904D02*
X148245380Y-91487571D01*
X148245380Y-91487571D02*
X147245380Y-91154238D01*
X108383380Y-92154238D02*
X108383380Y-92630428D01*
X108383380Y-92630428D02*
X108859571Y-92678047D01*
X108859571Y-92678047D02*
X108811952Y-92630428D01*
X108811952Y-92630428D02*
X108764333Y-92535190D01*
X108764333Y-92535190D02*
X108764333Y-92297095D01*
X108764333Y-92297095D02*
X108811952Y-92201857D01*
X108811952Y-92201857D02*
X108859571Y-92154238D01*
X108859571Y-92154238D02*
X108954809Y-92106619D01*
X108954809Y-92106619D02*
X109192904Y-92106619D01*
X109192904Y-92106619D02*
X109288142Y-92154238D01*
X109288142Y-92154238D02*
X109335761Y-92201857D01*
X109335761Y-92201857D02*
X109383380Y-92297095D01*
X109383380Y-92297095D02*
X109383380Y-92535190D01*
X109383380Y-92535190D02*
X109335761Y-92630428D01*
X109335761Y-92630428D02*
X109288142Y-92678047D01*
X108383380Y-91820904D02*
X109383380Y-91487571D01*
X109383380Y-91487571D02*
X108383380Y-91154238D01*
D11*
%TO.C,J1*%
X122542333Y-75526904D02*
X122542333Y-76098333D01*
X122542333Y-76098333D02*
X122504238Y-76212619D01*
X122504238Y-76212619D02*
X122428047Y-76288809D01*
X122428047Y-76288809D02*
X122313762Y-76326904D01*
X122313762Y-76326904D02*
X122237571Y-76326904D01*
X123342333Y-76326904D02*
X122885190Y-76326904D01*
X123113762Y-76326904D02*
X123113762Y-75526904D01*
X123113762Y-75526904D02*
X123037571Y-75641190D01*
X123037571Y-75641190D02*
X122961381Y-75717380D01*
X122961381Y-75717380D02*
X122885190Y-75755476D01*
%TO.C,C5*%
X143884667Y-76671714D02*
X143846571Y-76709809D01*
X143846571Y-76709809D02*
X143732286Y-76747904D01*
X143732286Y-76747904D02*
X143656095Y-76747904D01*
X143656095Y-76747904D02*
X143541809Y-76709809D01*
X143541809Y-76709809D02*
X143465619Y-76633619D01*
X143465619Y-76633619D02*
X143427524Y-76557428D01*
X143427524Y-76557428D02*
X143389428Y-76405047D01*
X143389428Y-76405047D02*
X143389428Y-76290761D01*
X143389428Y-76290761D02*
X143427524Y-76138380D01*
X143427524Y-76138380D02*
X143465619Y-76062190D01*
X143465619Y-76062190D02*
X143541809Y-75986000D01*
X143541809Y-75986000D02*
X143656095Y-75947904D01*
X143656095Y-75947904D02*
X143732286Y-75947904D01*
X143732286Y-75947904D02*
X143846571Y-75986000D01*
X143846571Y-75986000D02*
X143884667Y-76024095D01*
X144608476Y-75947904D02*
X144227524Y-75947904D01*
X144227524Y-75947904D02*
X144189428Y-76328857D01*
X144189428Y-76328857D02*
X144227524Y-76290761D01*
X144227524Y-76290761D02*
X144303714Y-76252666D01*
X144303714Y-76252666D02*
X144494190Y-76252666D01*
X144494190Y-76252666D02*
X144570381Y-76290761D01*
X144570381Y-76290761D02*
X144608476Y-76328857D01*
X144608476Y-76328857D02*
X144646571Y-76405047D01*
X144646571Y-76405047D02*
X144646571Y-76595523D01*
X144646571Y-76595523D02*
X144608476Y-76671714D01*
X144608476Y-76671714D02*
X144570381Y-76709809D01*
X144570381Y-76709809D02*
X144494190Y-76747904D01*
X144494190Y-76747904D02*
X144303714Y-76747904D01*
X144303714Y-76747904D02*
X144227524Y-76709809D01*
X144227524Y-76709809D02*
X144189428Y-76671714D01*
%TO.C,R3*%
X120135667Y-82549904D02*
X119869000Y-82168952D01*
X119678524Y-82549904D02*
X119678524Y-81749904D01*
X119678524Y-81749904D02*
X119983286Y-81749904D01*
X119983286Y-81749904D02*
X120059476Y-81788000D01*
X120059476Y-81788000D02*
X120097571Y-81826095D01*
X120097571Y-81826095D02*
X120135667Y-81902285D01*
X120135667Y-81902285D02*
X120135667Y-82016571D01*
X120135667Y-82016571D02*
X120097571Y-82092761D01*
X120097571Y-82092761D02*
X120059476Y-82130857D01*
X120059476Y-82130857D02*
X119983286Y-82168952D01*
X119983286Y-82168952D02*
X119678524Y-82168952D01*
X120402333Y-81749904D02*
X120897571Y-81749904D01*
X120897571Y-81749904D02*
X120630905Y-82054666D01*
X120630905Y-82054666D02*
X120745190Y-82054666D01*
X120745190Y-82054666D02*
X120821381Y-82092761D01*
X120821381Y-82092761D02*
X120859476Y-82130857D01*
X120859476Y-82130857D02*
X120897571Y-82207047D01*
X120897571Y-82207047D02*
X120897571Y-82397523D01*
X120897571Y-82397523D02*
X120859476Y-82473714D01*
X120859476Y-82473714D02*
X120821381Y-82511809D01*
X120821381Y-82511809D02*
X120745190Y-82549904D01*
X120745190Y-82549904D02*
X120516619Y-82549904D01*
X120516619Y-82549904D02*
X120440428Y-82511809D01*
X120440428Y-82511809D02*
X120402333Y-82473714D01*
%TO.C,J2*%
X153200047Y-84075904D02*
X153200047Y-84647333D01*
X153200047Y-84647333D02*
X153161952Y-84761619D01*
X153161952Y-84761619D02*
X153085761Y-84837809D01*
X153085761Y-84837809D02*
X152971476Y-84875904D01*
X152971476Y-84875904D02*
X152895285Y-84875904D01*
X153542904Y-84152095D02*
X153581000Y-84114000D01*
X153581000Y-84114000D02*
X153657190Y-84075904D01*
X153657190Y-84075904D02*
X153847666Y-84075904D01*
X153847666Y-84075904D02*
X153923857Y-84114000D01*
X153923857Y-84114000D02*
X153961952Y-84152095D01*
X153961952Y-84152095D02*
X154000047Y-84228285D01*
X154000047Y-84228285D02*
X154000047Y-84304476D01*
X154000047Y-84304476D02*
X153961952Y-84418761D01*
X153961952Y-84418761D02*
X153504809Y-84875904D01*
X153504809Y-84875904D02*
X154000047Y-84875904D01*
%TO.C,C8*%
X112788619Y-79465714D02*
X112750523Y-79503809D01*
X112750523Y-79503809D02*
X112636238Y-79541904D01*
X112636238Y-79541904D02*
X112560047Y-79541904D01*
X112560047Y-79541904D02*
X112445761Y-79503809D01*
X112445761Y-79503809D02*
X112369571Y-79427619D01*
X112369571Y-79427619D02*
X112331476Y-79351428D01*
X112331476Y-79351428D02*
X112293380Y-79199047D01*
X112293380Y-79199047D02*
X112293380Y-79084761D01*
X112293380Y-79084761D02*
X112331476Y-78932380D01*
X112331476Y-78932380D02*
X112369571Y-78856190D01*
X112369571Y-78856190D02*
X112445761Y-78780000D01*
X112445761Y-78780000D02*
X112560047Y-78741904D01*
X112560047Y-78741904D02*
X112636238Y-78741904D01*
X112636238Y-78741904D02*
X112750523Y-78780000D01*
X112750523Y-78780000D02*
X112788619Y-78818095D01*
X113245761Y-79084761D02*
X113169571Y-79046666D01*
X113169571Y-79046666D02*
X113131476Y-79008571D01*
X113131476Y-79008571D02*
X113093380Y-78932380D01*
X113093380Y-78932380D02*
X113093380Y-78894285D01*
X113093380Y-78894285D02*
X113131476Y-78818095D01*
X113131476Y-78818095D02*
X113169571Y-78780000D01*
X113169571Y-78780000D02*
X113245761Y-78741904D01*
X113245761Y-78741904D02*
X113398142Y-78741904D01*
X113398142Y-78741904D02*
X113474333Y-78780000D01*
X113474333Y-78780000D02*
X113512428Y-78818095D01*
X113512428Y-78818095D02*
X113550523Y-78894285D01*
X113550523Y-78894285D02*
X113550523Y-78932380D01*
X113550523Y-78932380D02*
X113512428Y-79008571D01*
X113512428Y-79008571D02*
X113474333Y-79046666D01*
X113474333Y-79046666D02*
X113398142Y-79084761D01*
X113398142Y-79084761D02*
X113245761Y-79084761D01*
X113245761Y-79084761D02*
X113169571Y-79122857D01*
X113169571Y-79122857D02*
X113131476Y-79160952D01*
X113131476Y-79160952D02*
X113093380Y-79237142D01*
X113093380Y-79237142D02*
X113093380Y-79389523D01*
X113093380Y-79389523D02*
X113131476Y-79465714D01*
X113131476Y-79465714D02*
X113169571Y-79503809D01*
X113169571Y-79503809D02*
X113245761Y-79541904D01*
X113245761Y-79541904D02*
X113398142Y-79541904D01*
X113398142Y-79541904D02*
X113474333Y-79503809D01*
X113474333Y-79503809D02*
X113512428Y-79465714D01*
X113512428Y-79465714D02*
X113550523Y-79389523D01*
X113550523Y-79389523D02*
X113550523Y-79237142D01*
X113550523Y-79237142D02*
X113512428Y-79160952D01*
X113512428Y-79160952D02*
X113474333Y-79122857D01*
X113474333Y-79122857D02*
X113398142Y-79084761D01*
%TO.C,C7*%
X153028667Y-76671714D02*
X152990571Y-76709809D01*
X152990571Y-76709809D02*
X152876286Y-76747904D01*
X152876286Y-76747904D02*
X152800095Y-76747904D01*
X152800095Y-76747904D02*
X152685809Y-76709809D01*
X152685809Y-76709809D02*
X152609619Y-76633619D01*
X152609619Y-76633619D02*
X152571524Y-76557428D01*
X152571524Y-76557428D02*
X152533428Y-76405047D01*
X152533428Y-76405047D02*
X152533428Y-76290761D01*
X152533428Y-76290761D02*
X152571524Y-76138380D01*
X152571524Y-76138380D02*
X152609619Y-76062190D01*
X152609619Y-76062190D02*
X152685809Y-75986000D01*
X152685809Y-75986000D02*
X152800095Y-75947904D01*
X152800095Y-75947904D02*
X152876286Y-75947904D01*
X152876286Y-75947904D02*
X152990571Y-75986000D01*
X152990571Y-75986000D02*
X153028667Y-76024095D01*
X153295333Y-75947904D02*
X153828667Y-75947904D01*
X153828667Y-75947904D02*
X153485809Y-76747904D01*
%TO.C,R2*%
X135248667Y-82168904D02*
X134982000Y-81787952D01*
X134791524Y-82168904D02*
X134791524Y-81368904D01*
X134791524Y-81368904D02*
X135096286Y-81368904D01*
X135096286Y-81368904D02*
X135172476Y-81407000D01*
X135172476Y-81407000D02*
X135210571Y-81445095D01*
X135210571Y-81445095D02*
X135248667Y-81521285D01*
X135248667Y-81521285D02*
X135248667Y-81635571D01*
X135248667Y-81635571D02*
X135210571Y-81711761D01*
X135210571Y-81711761D02*
X135172476Y-81749857D01*
X135172476Y-81749857D02*
X135096286Y-81787952D01*
X135096286Y-81787952D02*
X134791524Y-81787952D01*
X135553428Y-81445095D02*
X135591524Y-81407000D01*
X135591524Y-81407000D02*
X135667714Y-81368904D01*
X135667714Y-81368904D02*
X135858190Y-81368904D01*
X135858190Y-81368904D02*
X135934381Y-81407000D01*
X135934381Y-81407000D02*
X135972476Y-81445095D01*
X135972476Y-81445095D02*
X136010571Y-81521285D01*
X136010571Y-81521285D02*
X136010571Y-81597476D01*
X136010571Y-81597476D02*
X135972476Y-81711761D01*
X135972476Y-81711761D02*
X135515333Y-82168904D01*
X135515333Y-82168904D02*
X136010571Y-82168904D01*
%TO.C,C2*%
X104006667Y-76798714D02*
X103968571Y-76836809D01*
X103968571Y-76836809D02*
X103854286Y-76874904D01*
X103854286Y-76874904D02*
X103778095Y-76874904D01*
X103778095Y-76874904D02*
X103663809Y-76836809D01*
X103663809Y-76836809D02*
X103587619Y-76760619D01*
X103587619Y-76760619D02*
X103549524Y-76684428D01*
X103549524Y-76684428D02*
X103511428Y-76532047D01*
X103511428Y-76532047D02*
X103511428Y-76417761D01*
X103511428Y-76417761D02*
X103549524Y-76265380D01*
X103549524Y-76265380D02*
X103587619Y-76189190D01*
X103587619Y-76189190D02*
X103663809Y-76113000D01*
X103663809Y-76113000D02*
X103778095Y-76074904D01*
X103778095Y-76074904D02*
X103854286Y-76074904D01*
X103854286Y-76074904D02*
X103968571Y-76113000D01*
X103968571Y-76113000D02*
X104006667Y-76151095D01*
X104311428Y-76151095D02*
X104349524Y-76113000D01*
X104349524Y-76113000D02*
X104425714Y-76074904D01*
X104425714Y-76074904D02*
X104616190Y-76074904D01*
X104616190Y-76074904D02*
X104692381Y-76113000D01*
X104692381Y-76113000D02*
X104730476Y-76151095D01*
X104730476Y-76151095D02*
X104768571Y-76227285D01*
X104768571Y-76227285D02*
X104768571Y-76303476D01*
X104768571Y-76303476D02*
X104730476Y-76417761D01*
X104730476Y-76417761D02*
X104273333Y-76874904D01*
X104273333Y-76874904D02*
X104768571Y-76874904D01*
%TO.C,C4*%
X113023667Y-76671714D02*
X112985571Y-76709809D01*
X112985571Y-76709809D02*
X112871286Y-76747904D01*
X112871286Y-76747904D02*
X112795095Y-76747904D01*
X112795095Y-76747904D02*
X112680809Y-76709809D01*
X112680809Y-76709809D02*
X112604619Y-76633619D01*
X112604619Y-76633619D02*
X112566524Y-76557428D01*
X112566524Y-76557428D02*
X112528428Y-76405047D01*
X112528428Y-76405047D02*
X112528428Y-76290761D01*
X112528428Y-76290761D02*
X112566524Y-76138380D01*
X112566524Y-76138380D02*
X112604619Y-76062190D01*
X112604619Y-76062190D02*
X112680809Y-75986000D01*
X112680809Y-75986000D02*
X112795095Y-75947904D01*
X112795095Y-75947904D02*
X112871286Y-75947904D01*
X112871286Y-75947904D02*
X112985571Y-75986000D01*
X112985571Y-75986000D02*
X113023667Y-76024095D01*
X113709381Y-76214571D02*
X113709381Y-76747904D01*
X113518905Y-75909809D02*
X113328428Y-76481238D01*
X113328428Y-76481238D02*
X113823667Y-76481238D01*
%TO.C,C3*%
X143503667Y-80481714D02*
X143465571Y-80519809D01*
X143465571Y-80519809D02*
X143351286Y-80557904D01*
X143351286Y-80557904D02*
X143275095Y-80557904D01*
X143275095Y-80557904D02*
X143160809Y-80519809D01*
X143160809Y-80519809D02*
X143084619Y-80443619D01*
X143084619Y-80443619D02*
X143046524Y-80367428D01*
X143046524Y-80367428D02*
X143008428Y-80215047D01*
X143008428Y-80215047D02*
X143008428Y-80100761D01*
X143008428Y-80100761D02*
X143046524Y-79948380D01*
X143046524Y-79948380D02*
X143084619Y-79872190D01*
X143084619Y-79872190D02*
X143160809Y-79796000D01*
X143160809Y-79796000D02*
X143275095Y-79757904D01*
X143275095Y-79757904D02*
X143351286Y-79757904D01*
X143351286Y-79757904D02*
X143465571Y-79796000D01*
X143465571Y-79796000D02*
X143503667Y-79834095D01*
X143770333Y-79757904D02*
X144265571Y-79757904D01*
X144265571Y-79757904D02*
X143998905Y-80062666D01*
X143998905Y-80062666D02*
X144113190Y-80062666D01*
X144113190Y-80062666D02*
X144189381Y-80100761D01*
X144189381Y-80100761D02*
X144227476Y-80138857D01*
X144227476Y-80138857D02*
X144265571Y-80215047D01*
X144265571Y-80215047D02*
X144265571Y-80405523D01*
X144265571Y-80405523D02*
X144227476Y-80481714D01*
X144227476Y-80481714D02*
X144189381Y-80519809D01*
X144189381Y-80519809D02*
X144113190Y-80557904D01*
X144113190Y-80557904D02*
X143884619Y-80557904D01*
X143884619Y-80557904D02*
X143808428Y-80519809D01*
X143808428Y-80519809D02*
X143770333Y-80481714D01*
%TO.C,D1*%
X117392524Y-76533904D02*
X117392524Y-75733904D01*
X117392524Y-75733904D02*
X117583000Y-75733904D01*
X117583000Y-75733904D02*
X117697286Y-75772000D01*
X117697286Y-75772000D02*
X117773476Y-75848190D01*
X117773476Y-75848190D02*
X117811571Y-75924380D01*
X117811571Y-75924380D02*
X117849667Y-76076761D01*
X117849667Y-76076761D02*
X117849667Y-76191047D01*
X117849667Y-76191047D02*
X117811571Y-76343428D01*
X117811571Y-76343428D02*
X117773476Y-76419619D01*
X117773476Y-76419619D02*
X117697286Y-76495809D01*
X117697286Y-76495809D02*
X117583000Y-76533904D01*
X117583000Y-76533904D02*
X117392524Y-76533904D01*
X118611571Y-76533904D02*
X118154428Y-76533904D01*
X118383000Y-76533904D02*
X118383000Y-75733904D01*
X118383000Y-75733904D02*
X118306809Y-75848190D01*
X118306809Y-75848190D02*
X118230619Y-75924380D01*
X118230619Y-75924380D02*
X118154428Y-75962476D01*
%TO.C,C1*%
X143611714Y-84799714D02*
X143573618Y-84837809D01*
X143573618Y-84837809D02*
X143459333Y-84875904D01*
X143459333Y-84875904D02*
X143383142Y-84875904D01*
X143383142Y-84875904D02*
X143268856Y-84837809D01*
X143268856Y-84837809D02*
X143192666Y-84761619D01*
X143192666Y-84761619D02*
X143154571Y-84685428D01*
X143154571Y-84685428D02*
X143116475Y-84533047D01*
X143116475Y-84533047D02*
X143116475Y-84418761D01*
X143116475Y-84418761D02*
X143154571Y-84266380D01*
X143154571Y-84266380D02*
X143192666Y-84190190D01*
X143192666Y-84190190D02*
X143268856Y-84114000D01*
X143268856Y-84114000D02*
X143383142Y-84075904D01*
X143383142Y-84075904D02*
X143459333Y-84075904D01*
X143459333Y-84075904D02*
X143573618Y-84114000D01*
X143573618Y-84114000D02*
X143611714Y-84152095D01*
X144373618Y-84875904D02*
X143916475Y-84875904D01*
X144145047Y-84875904D02*
X144145047Y-84075904D01*
X144145047Y-84075904D02*
X144068856Y-84190190D01*
X144068856Y-84190190D02*
X143992666Y-84266380D01*
X143992666Y-84266380D02*
X143916475Y-84304476D01*
%TO.C,R1*%
X136791619Y-77128904D02*
X136524952Y-76747952D01*
X136334476Y-77128904D02*
X136334476Y-76328904D01*
X136334476Y-76328904D02*
X136639238Y-76328904D01*
X136639238Y-76328904D02*
X136715428Y-76367000D01*
X136715428Y-76367000D02*
X136753523Y-76405095D01*
X136753523Y-76405095D02*
X136791619Y-76481285D01*
X136791619Y-76481285D02*
X136791619Y-76595571D01*
X136791619Y-76595571D02*
X136753523Y-76671761D01*
X136753523Y-76671761D02*
X136715428Y-76709857D01*
X136715428Y-76709857D02*
X136639238Y-76747952D01*
X136639238Y-76747952D02*
X136334476Y-76747952D01*
X137553523Y-77128904D02*
X137096380Y-77128904D01*
X137324952Y-77128904D02*
X137324952Y-76328904D01*
X137324952Y-76328904D02*
X137248761Y-76443190D01*
X137248761Y-76443190D02*
X137172571Y-76519380D01*
X137172571Y-76519380D02*
X137096380Y-76557476D01*
%TO.C,J3*%
X102908047Y-84075904D02*
X102908047Y-84647333D01*
X102908047Y-84647333D02*
X102869952Y-84761619D01*
X102869952Y-84761619D02*
X102793761Y-84837809D01*
X102793761Y-84837809D02*
X102679476Y-84875904D01*
X102679476Y-84875904D02*
X102603285Y-84875904D01*
X103212809Y-84075904D02*
X103708047Y-84075904D01*
X103708047Y-84075904D02*
X103441381Y-84380666D01*
X103441381Y-84380666D02*
X103555666Y-84380666D01*
X103555666Y-84380666D02*
X103631857Y-84418761D01*
X103631857Y-84418761D02*
X103669952Y-84456857D01*
X103669952Y-84456857D02*
X103708047Y-84533047D01*
X103708047Y-84533047D02*
X103708047Y-84723523D01*
X103708047Y-84723523D02*
X103669952Y-84799714D01*
X103669952Y-84799714D02*
X103631857Y-84837809D01*
X103631857Y-84837809D02*
X103555666Y-84875904D01*
X103555666Y-84875904D02*
X103327095Y-84875904D01*
X103327095Y-84875904D02*
X103250904Y-84837809D01*
X103250904Y-84837809D02*
X103212809Y-84799714D01*
%TO.C,U2*%
X152933476Y-77979904D02*
X152933476Y-78627523D01*
X152933476Y-78627523D02*
X152971571Y-78703714D01*
X152971571Y-78703714D02*
X153009666Y-78741809D01*
X153009666Y-78741809D02*
X153085857Y-78779904D01*
X153085857Y-78779904D02*
X153238238Y-78779904D01*
X153238238Y-78779904D02*
X153314428Y-78741809D01*
X153314428Y-78741809D02*
X153352523Y-78703714D01*
X153352523Y-78703714D02*
X153390619Y-78627523D01*
X153390619Y-78627523D02*
X153390619Y-77979904D01*
X153733475Y-78056095D02*
X153771571Y-78018000D01*
X153771571Y-78018000D02*
X153847761Y-77979904D01*
X153847761Y-77979904D02*
X154038237Y-77979904D01*
X154038237Y-77979904D02*
X154114428Y-78018000D01*
X154114428Y-78018000D02*
X154152523Y-78056095D01*
X154152523Y-78056095D02*
X154190618Y-78132285D01*
X154190618Y-78132285D02*
X154190618Y-78208476D01*
X154190618Y-78208476D02*
X154152523Y-78322761D01*
X154152523Y-78322761D02*
X153695380Y-78779904D01*
X153695380Y-78779904D02*
X154190618Y-78779904D01*
%TO.C,U1*%
X102476476Y-77979904D02*
X102476476Y-78627523D01*
X102476476Y-78627523D02*
X102514571Y-78703714D01*
X102514571Y-78703714D02*
X102552666Y-78741809D01*
X102552666Y-78741809D02*
X102628857Y-78779904D01*
X102628857Y-78779904D02*
X102781238Y-78779904D01*
X102781238Y-78779904D02*
X102857428Y-78741809D01*
X102857428Y-78741809D02*
X102895523Y-78703714D01*
X102895523Y-78703714D02*
X102933619Y-78627523D01*
X102933619Y-78627523D02*
X102933619Y-77979904D01*
X103733618Y-78779904D02*
X103276475Y-78779904D01*
X103505047Y-78779904D02*
X103505047Y-77979904D01*
X103505047Y-77979904D02*
X103428856Y-78094190D01*
X103428856Y-78094190D02*
X103352666Y-78170380D01*
X103352666Y-78170380D02*
X103276475Y-78208476D01*
%TO.C,C6*%
X113550619Y-83275714D02*
X113512523Y-83313809D01*
X113512523Y-83313809D02*
X113398238Y-83351904D01*
X113398238Y-83351904D02*
X113322047Y-83351904D01*
X113322047Y-83351904D02*
X113207761Y-83313809D01*
X113207761Y-83313809D02*
X113131571Y-83237619D01*
X113131571Y-83237619D02*
X113093476Y-83161428D01*
X113093476Y-83161428D02*
X113055380Y-83009047D01*
X113055380Y-83009047D02*
X113055380Y-82894761D01*
X113055380Y-82894761D02*
X113093476Y-82742380D01*
X113093476Y-82742380D02*
X113131571Y-82666190D01*
X113131571Y-82666190D02*
X113207761Y-82590000D01*
X113207761Y-82590000D02*
X113322047Y-82551904D01*
X113322047Y-82551904D02*
X113398238Y-82551904D01*
X113398238Y-82551904D02*
X113512523Y-82590000D01*
X113512523Y-82590000D02*
X113550619Y-82628095D01*
X114236333Y-82551904D02*
X114083952Y-82551904D01*
X114083952Y-82551904D02*
X114007761Y-82590000D01*
X114007761Y-82590000D02*
X113969666Y-82628095D01*
X113969666Y-82628095D02*
X113893476Y-82742380D01*
X113893476Y-82742380D02*
X113855380Y-82894761D01*
X113855380Y-82894761D02*
X113855380Y-83199523D01*
X113855380Y-83199523D02*
X113893476Y-83275714D01*
X113893476Y-83275714D02*
X113931571Y-83313809D01*
X113931571Y-83313809D02*
X114007761Y-83351904D01*
X114007761Y-83351904D02*
X114160142Y-83351904D01*
X114160142Y-83351904D02*
X114236333Y-83313809D01*
X114236333Y-83313809D02*
X114274428Y-83275714D01*
X114274428Y-83275714D02*
X114312523Y-83199523D01*
X114312523Y-83199523D02*
X114312523Y-83009047D01*
X114312523Y-83009047D02*
X114274428Y-82932857D01*
X114274428Y-82932857D02*
X114236333Y-82894761D01*
X114236333Y-82894761D02*
X114160142Y-82856666D01*
X114160142Y-82856666D02*
X114007761Y-82856666D01*
X114007761Y-82856666D02*
X113931571Y-82894761D01*
X113931571Y-82894761D02*
X113893476Y-82932857D01*
X113893476Y-82932857D02*
X113855380Y-83009047D01*
D12*
%TO.C,J1*%
X132740000Y-80138000D02*
X132740000Y-79338000D01*
X132740000Y-76338000D02*
X132740000Y-75288000D01*
X132740000Y-75288000D02*
X123800000Y-75288000D01*
X128770000Y-83238000D02*
X128770000Y-83238000D01*
X128770000Y-83238000D02*
X128770000Y-83238000D01*
X128770000Y-83138000D02*
X128770000Y-83138000D01*
X123800000Y-80138000D02*
X123800000Y-79338000D01*
X123800000Y-75288000D02*
X123800000Y-76338000D01*
X128770000Y-83138000D02*
G75*
G03*
X128770000Y-83238000I0J-50000D01*
G01*
X128770000Y-83238000D02*
G75*
G03*
X128770000Y-83138000I0J50000D01*
G01*
X128770000Y-83238000D02*
G75*
G03*
X128770000Y-83138000I0J50000D01*
G01*
D13*
%TO.C,C5*%
X147777252Y-77237000D02*
X146354748Y-77237000D01*
X147777252Y-75417000D02*
X146354748Y-75417000D01*
D14*
%TO.C,TP3*%
X137130000Y-86108000D02*
X139730000Y-86108000D01*
X139730000Y-85088000D02*
X137130000Y-85088000D01*
D13*
%TO.C,R3*%
X120633258Y-81421500D02*
X120158742Y-81421500D01*
X120633258Y-80376500D02*
X120158742Y-80376500D01*
%TO.C,J2*%
X154111000Y-85284000D02*
X154111000Y-86614000D01*
X152781000Y-85284000D02*
X154111000Y-85284000D01*
X151511000Y-85284000D02*
X146371000Y-85284000D01*
X151511000Y-85284000D02*
X151511000Y-87884000D01*
X146371000Y-85284000D02*
X146371000Y-90484000D01*
X154111000Y-87884000D02*
X154111000Y-90484000D01*
X151511000Y-87884000D02*
X154111000Y-87884000D01*
X154111000Y-90484000D02*
X146371000Y-90484000D01*
%TO.C,C8*%
X110996000Y-79388580D02*
X110996000Y-79107420D01*
X112016000Y-79388580D02*
X112016000Y-79107420D01*
%TO.C,C7*%
X150735420Y-75817000D02*
X151016580Y-75817000D01*
X150735420Y-76837000D02*
X151016580Y-76837000D01*
D14*
%TO.C,TP2*%
X119410000Y-85088000D02*
X116810000Y-85088000D01*
X116810000Y-86108000D02*
X119410000Y-86108000D01*
D13*
%TO.C,R2*%
X134859500Y-80054258D02*
X134859500Y-79579742D01*
X135904500Y-80054258D02*
X135904500Y-79579742D01*
%TO.C,C2*%
X106439580Y-76964000D02*
X106158420Y-76964000D01*
X106439580Y-75944000D02*
X106158420Y-75944000D01*
%TO.C,C4*%
X109397748Y-75417000D02*
X110820252Y-75417000D01*
X109397748Y-77237000D02*
X110820252Y-77237000D01*
%TO.C,C3*%
X144348252Y-82698000D02*
X142925748Y-82698000D01*
X144348252Y-80878000D02*
X142925748Y-80878000D01*
%TO.C,D1*%
X118911000Y-75338000D02*
X118911000Y-76808000D01*
X118911000Y-76808000D02*
X121196000Y-76808000D01*
X121196000Y-75338000D02*
X118911000Y-75338000D01*
%TO.C,C1*%
X145671000Y-84314420D02*
X145671000Y-84595580D01*
X144651000Y-84314420D02*
X144651000Y-84595580D01*
%TO.C,R1*%
X134859500Y-77006258D02*
X134859500Y-76531742D01*
X135904500Y-77006258D02*
X135904500Y-76531742D01*
%TO.C,J3*%
X110154000Y-85284000D02*
X110154000Y-86614000D01*
X108824000Y-85284000D02*
X110154000Y-85284000D01*
X107554000Y-85284000D02*
X102414000Y-85284000D01*
X107554000Y-85284000D02*
X107554000Y-87884000D01*
X102414000Y-85284000D02*
X102414000Y-90484000D01*
X110154000Y-87884000D02*
X110154000Y-90484000D01*
X107554000Y-87884000D02*
X110154000Y-87884000D01*
X110154000Y-90484000D02*
X102414000Y-90484000D01*
%TO.C,U2*%
X146268000Y-77743000D02*
X152278000Y-77743000D01*
X148518000Y-84563000D02*
X152278000Y-84563000D01*
X152278000Y-77743000D02*
X152278000Y-79003000D01*
X152278000Y-84563000D02*
X152278000Y-83303000D01*
D14*
%TO.C,TP1*%
X104999000Y-96522000D02*
X107599000Y-96522000D01*
X107599000Y-95502000D02*
X104999000Y-95502000D01*
%TO.C,TP4*%
X148941000Y-96522000D02*
X151541000Y-96522000D01*
X151541000Y-95502000D02*
X148941000Y-95502000D01*
D13*
%TO.C,U1*%
X110272000Y-84563000D02*
X104262000Y-84563000D01*
X108022000Y-77743000D02*
X104262000Y-77743000D01*
X104262000Y-84563000D02*
X104262000Y-83303000D01*
X104262000Y-77743000D02*
X104262000Y-79003000D01*
%TO.C,C6*%
X112797000Y-82346748D02*
X112797000Y-83769252D01*
X110977000Y-82346748D02*
X110977000Y-83769252D01*
%TD*%
M02*
