%TF.GenerationSoftware,KiCad,Pcbnew,8.0.2-1*%
%TF.CreationDate,2024-07-10T15:29:45-04:00*%
%TF.ProjectId,Breadboard Power Supply,42726561-6462-46f6-9172-6420506f7765,v10*%
%TF.SameCoordinates,Original*%
%TF.FileFunction,Copper,L1,Top*%
%TF.FilePolarity,Positive*%
%FSLAX46Y46*%
G04 Gerber Fmt 4.6, Leading zero omitted, Abs format (unit mm)*
G04 Created by KiCad (PCBNEW 8.0.2-1) date 2024-07-10 15:29:45*
%MOMM*%
%LPD*%
G01*
G04 APERTURE LIST*
G04 Aperture macros list*
%AMRoundRect*
0 Rectangle with rounded corners*
0 $1 Rounding radius*
0 $2 $3 $4 $5 $6 $7 $8 $9 X,Y pos of 4 corners*
0 Add a 4 corners polygon primitive as box body*
4,1,4,$2,$3,$4,$5,$6,$7,$8,$9,$2,$3,0*
0 Add four circle primitives for the rounded corners*
1,1,$1+$1,$2,$3*
1,1,$1+$1,$4,$5*
1,1,$1+$1,$6,$7*
1,1,$1+$1,$8,$9*
0 Add four rect primitives between the rounded corners*
20,1,$1+$1,$2,$3,$4,$5,0*
20,1,$1+$1,$4,$5,$6,$7,0*
20,1,$1+$1,$6,$7,$8,$9,0*
20,1,$1+$1,$8,$9,$2,$3,0*%
G04 Aperture macros list end*
%TA.AperFunction,ComponentPad*%
%ADD10R,1.700000X1.700000*%
%TD*%
%TA.AperFunction,ComponentPad*%
%ADD11O,1.700000X1.700000*%
%TD*%
%TA.AperFunction,SMDPad,CuDef*%
%ADD12RoundRect,0.135000X-0.185000X0.135000X-0.185000X-0.135000X0.185000X-0.135000X0.185000X0.135000X0*%
%TD*%
%TA.AperFunction,SMDPad,CuDef*%
%ADD13RoundRect,0.250000X-0.250000X-0.475000X0.250000X-0.475000X0.250000X0.475000X-0.250000X0.475000X0*%
%TD*%
%TA.AperFunction,SMDPad,CuDef*%
%ADD14RoundRect,0.218750X0.381250X-0.218750X0.381250X0.218750X-0.381250X0.218750X-0.381250X-0.218750X0*%
%TD*%
%TA.AperFunction,SMDPad,CuDef*%
%ADD15RoundRect,0.135000X0.135000X0.185000X-0.135000X0.185000X-0.135000X-0.185000X0.135000X-0.185000X0*%
%TD*%
%TA.AperFunction,SMDPad,CuDef*%
%ADD16RoundRect,0.140000X-0.170000X0.140000X-0.170000X-0.140000X0.170000X-0.140000X0.170000X0.140000X0*%
%TD*%
%TA.AperFunction,SMDPad,CuDef*%
%ADD17RoundRect,0.135000X-0.135000X-0.185000X0.135000X-0.185000X0.135000X0.185000X-0.135000X0.185000X0*%
%TD*%
%TA.AperFunction,SMDPad,CuDef*%
%ADD18RoundRect,0.218750X-0.218750X-0.256250X0.218750X-0.256250X0.218750X0.256250X-0.218750X0.256250X0*%
%TD*%
%TA.AperFunction,SMDPad,CuDef*%
%ADD19R,1.120000X1.370000*%
%TD*%
%TA.AperFunction,SMDPad,CuDef*%
%ADD20R,0.700000X1.200000*%
%TD*%
%TA.AperFunction,SMDPad,CuDef*%
%ADD21R,0.760000X1.200000*%
%TD*%
%TA.AperFunction,SMDPad,CuDef*%
%ADD22R,0.800000X1.200000*%
%TD*%
%TA.AperFunction,ComponentPad*%
%ADD23C,1.450000*%
%TD*%
%TA.AperFunction,SMDPad,CuDef*%
%ADD24RoundRect,0.135000X0.185000X-0.135000X0.185000X0.135000X-0.185000X0.135000X-0.185000X-0.135000X0*%
%TD*%
%TA.AperFunction,SMDPad,CuDef*%
%ADD25RoundRect,0.250000X0.250000X0.475000X-0.250000X0.475000X-0.250000X-0.475000X0.250000X-0.475000X0*%
%TD*%
%TA.AperFunction,SMDPad,CuDef*%
%ADD26RoundRect,0.375000X-0.625000X-0.375000X0.625000X-0.375000X0.625000X0.375000X-0.625000X0.375000X0*%
%TD*%
%TA.AperFunction,SMDPad,CuDef*%
%ADD27RoundRect,0.500000X-0.500000X-1.400000X0.500000X-1.400000X0.500000X1.400000X-0.500000X1.400000X0*%
%TD*%
%TA.AperFunction,ComponentPad*%
%ADD28C,1.830000*%
%TD*%
%TA.AperFunction,SMDPad,CuDef*%
%ADD29RoundRect,0.250000X0.475000X-0.250000X0.475000X0.250000X-0.475000X0.250000X-0.475000X-0.250000X0*%
%TD*%
%TA.AperFunction,SMDPad,CuDef*%
%ADD30RoundRect,0.375000X0.625000X0.375000X-0.625000X0.375000X-0.625000X-0.375000X0.625000X-0.375000X0*%
%TD*%
%TA.AperFunction,SMDPad,CuDef*%
%ADD31RoundRect,0.500000X0.500000X1.400000X-0.500000X1.400000X-0.500000X-1.400000X0.500000X-1.400000X0*%
%TD*%
%TA.AperFunction,ViaPad*%
%ADD32C,0.800000*%
%TD*%
%TA.AperFunction,Conductor*%
%ADD33C,0.750000*%
%TD*%
%TA.AperFunction,Conductor*%
%ADD34C,0.250000*%
%TD*%
G04 APERTURE END LIST*
D10*
%TO.P,J4,1,Pin_1*%
%TO.N,+1V8*%
X151130000Y-87630000D03*
D11*
%TO.P,J4,2,Pin_2*%
%TO.N,/TOP_POWER_RAIL*%
X153670000Y-87630000D03*
%TO.P,J4,3,Pin_3*%
%TO.N,+3.3V*%
X151130000Y-90170000D03*
%TO.P,J4,4,Pin_4*%
%TO.N,/TOP_POWER_RAIL*%
X153670000Y-90170000D03*
%TO.P,J4,5,Pin_5*%
%TO.N,VBUS*%
X151130000Y-92710000D03*
%TO.P,J4,6,Pin_6*%
%TO.N,/TOP_POWER_RAIL*%
X153670000Y-92710000D03*
%TO.P,J4,7,Pin_7*%
%TO.N,+12V*%
X151130000Y-95250000D03*
%TO.P,J4,8,Pin_8*%
%TO.N,/TOP_POWER_RAIL*%
X153670000Y-95250000D03*
%TD*%
D12*
%TO.P,R4,1*%
%TO.N,+1V8*%
X111721000Y-78103000D03*
%TO.P,R4,2*%
%TO.N,Net-(U1-ADJ)*%
X111721000Y-79123000D03*
%TD*%
D13*
%TO.P,C5,1*%
%TO.N,+3.3V*%
X146751000Y-83693000D03*
%TO.P,C5,2*%
%TO.N,GND*%
X148651000Y-83693000D03*
%TD*%
D14*
%TO.P,L2,1,1*%
%TO.N,VBUS*%
X121031000Y-80945500D03*
%TO.P,L2,2,2*%
%TO.N,Net-(D1-A2)*%
X121031000Y-78820500D03*
%TD*%
D15*
%TO.P,R3,1*%
%TO.N,VBUS*%
X121033000Y-76073000D03*
%TO.P,R3,2*%
%TO.N,Net-(D2-Pad2)*%
X120013000Y-76073000D03*
%TD*%
D16*
%TO.P,C8,1*%
%TO.N,+1V8*%
X103019000Y-83467000D03*
%TO.P,C8,2*%
%TO.N,GND*%
X103019000Y-84427000D03*
%TD*%
%TO.P,C7,1*%
%TO.N,+3.3V*%
X145161000Y-83241000D03*
%TO.P,C7,2*%
%TO.N,GND*%
X145161000Y-84201000D03*
%TD*%
D17*
%TO.P,R2,1*%
%TO.N,Net-(J1-CC1)*%
X128903000Y-84455000D03*
%TO.P,R2,2*%
%TO.N,GND*%
X129923000Y-84455000D03*
%TD*%
D12*
%TO.P,R12,1*%
%TO.N,+12V*%
X135255000Y-80897000D03*
%TO.P,R12,2*%
%TO.N,Net-(R12-Pad2)*%
X135255000Y-81917000D03*
%TD*%
D18*
%TO.P,D2,1*%
%TO.N,GND*%
X116941500Y-76105000D03*
%TO.P,D2,2*%
%TO.N,Net-(D2-Pad2)*%
X118516500Y-76105000D03*
%TD*%
D13*
%TO.P,C4,1*%
%TO.N,VBUS*%
X107850000Y-83947000D03*
%TO.P,C4,2*%
%TO.N,GND*%
X109750000Y-83947000D03*
%TD*%
D19*
%TO.P,D1,1,A1*%
%TO.N,+12V*%
X138811000Y-76581000D03*
%TO.P,D1,2,A2*%
%TO.N,Net-(D1-A2)*%
X135811000Y-76581000D03*
%TD*%
D15*
%TO.P,R8,1*%
%TO.N,Net-(U2-ADJ)*%
X143385000Y-75819000D03*
%TO.P,R8,2*%
%TO.N,Net-(R7-Pad1)*%
X142365000Y-75819000D03*
%TD*%
%TO.P,R7,1*%
%TO.N,Net-(R7-Pad1)*%
X141101000Y-75819000D03*
%TO.P,R7,2*%
%TO.N,GND*%
X140081000Y-75819000D03*
%TD*%
D13*
%TO.P,C3,1*%
%TO.N,VBUS*%
X150307000Y-83693000D03*
%TO.P,C3,2*%
%TO.N,GND*%
X152207000Y-83693000D03*
%TD*%
D20*
%TO.P,J1,A5,CC1*%
%TO.N,Net-(J1-CC1)*%
X128772000Y-81854000D03*
D21*
%TO.P,J1,A9,VBUS*%
%TO.N,VBUS*%
X126752000Y-81854000D03*
D22*
%TO.P,J1,A12,GND*%
%TO.N,GND*%
X125522000Y-81854000D03*
D20*
%TO.P,J1,B5,CC2*%
%TO.N,Net-(J1-CC2)*%
X127772000Y-81854000D03*
D21*
%TO.P,J1,B9,VBUS*%
%TO.N,VBUS*%
X129792000Y-81854000D03*
D22*
%TO.P,J1,B12,GND*%
%TO.N,GND*%
X131022000Y-81854000D03*
D23*
%TO.P,J1,MH1,MH1*%
X132592000Y-77974000D03*
%TO.P,J1,MH2,MH2*%
X123952000Y-77974000D03*
%TO.P,J1,MH3,MH3*%
X132592000Y-81774000D03*
%TO.P,J1,MH4,MH4*%
X123952000Y-81774000D03*
%TD*%
D10*
%TO.P,J5,1,Pin_1*%
%TO.N,/BOTTOM_POWER_RAIL*%
X102870000Y-87630000D03*
D11*
%TO.P,J5,2,Pin_2*%
%TO.N,+1V8*%
X105410000Y-87630000D03*
%TO.P,J5,3,Pin_3*%
%TO.N,/BOTTOM_POWER_RAIL*%
X102870000Y-90170000D03*
%TO.P,J5,4,Pin_4*%
%TO.N,+3.3V*%
X105410000Y-90170000D03*
%TO.P,J5,5,Pin_5*%
%TO.N,/BOTTOM_POWER_RAIL*%
X102870000Y-92710000D03*
%TO.P,J5,6,Pin_6*%
%TO.N,VBUS*%
X105410000Y-92710000D03*
%TO.P,J5,7,Pin_7*%
%TO.N,/BOTTOM_POWER_RAIL*%
X102870000Y-95250000D03*
%TO.P,J5,8,Pin_8*%
%TO.N,+12V*%
X105410000Y-95250000D03*
%TD*%
D24*
%TO.P,R9,1*%
%TO.N,Net-(R12-Pad2)*%
X136525000Y-81917000D03*
%TO.P,R9,2*%
%TO.N,Net-(IC1-FB)*%
X136525000Y-80897000D03*
%TD*%
D15*
%TO.P,R1,1*%
%TO.N,Net-(J1-CC2)*%
X127637000Y-84455000D03*
%TO.P,R1,2*%
%TO.N,GND*%
X126617000Y-84455000D03*
%TD*%
D12*
%TO.P,R13,1*%
%TO.N,Net-(IC1-FB)*%
X137795000Y-80897000D03*
%TO.P,R13,2*%
%TO.N,GND*%
X137795000Y-81917000D03*
%TD*%
D25*
%TO.P,C11,1*%
%TO.N,+12V*%
X138303000Y-78867000D03*
%TO.P,C11,2*%
%TO.N,GND*%
X136403000Y-78867000D03*
%TD*%
D16*
%TO.P,C1,1*%
%TO.N,+12V*%
X139827000Y-78359000D03*
%TO.P,C1,2*%
%TO.N,GND*%
X139827000Y-79319000D03*
%TD*%
D12*
%TO.P,R6,1*%
%TO.N,Net-(U1-ADJ)*%
X111721000Y-80643000D03*
%TO.P,R6,2*%
%TO.N,GND*%
X111721000Y-81663000D03*
%TD*%
D24*
%TO.P,R5,1*%
%TO.N,+3.3V*%
X144653000Y-76837000D03*
%TO.P,R5,2*%
%TO.N,Net-(U2-ADJ)*%
X144653000Y-75817000D03*
%TD*%
D26*
%TO.P,U2,1,ADJ*%
%TO.N,Net-(U2-ADJ)*%
X146583000Y-76567000D03*
%TO.P,U2,2,VO*%
%TO.N,+3.3V*%
X146583000Y-78867000D03*
D27*
X152883000Y-78867000D03*
D26*
%TO.P,U2,3,VI*%
%TO.N,VBUS*%
X146583000Y-81167000D03*
%TD*%
D28*
%TO.P,TP1,1,1*%
%TO.N,GND*%
X103759000Y-102638000D03*
%TO.P,TP1,2,2*%
X108839000Y-102638000D03*
%TD*%
%TO.P,TP4,1,1*%
%TO.N,GND*%
X147701000Y-102638000D03*
%TO.P,TP4,2,2*%
X152781000Y-102638000D03*
%TD*%
D29*
%TO.P,C10,1*%
%TO.N,VBUS*%
X118999000Y-80899000D03*
%TO.P,C10,2*%
%TO.N,GND*%
X118999000Y-78999000D03*
%TD*%
D13*
%TO.P,C6,1*%
%TO.N,+1V8*%
X104355000Y-83947000D03*
%TO.P,C6,2*%
%TO.N,GND*%
X106255000Y-83947000D03*
%TD*%
D30*
%TO.P,U1,1,ADJ*%
%TO.N,Net-(U1-ADJ)*%
X109918000Y-81167000D03*
%TO.P,U1,2,VO*%
%TO.N,+1V8*%
X109918000Y-78867000D03*
D31*
X103618000Y-78867000D03*
D30*
%TO.P,U1,3,VI*%
%TO.N,VBUS*%
X109918000Y-76567000D03*
%TD*%
D10*
%TO.P,J10,1,Pin_1*%
%TO.N,GND*%
X114300000Y-78740000D03*
D11*
%TO.P,J10,2,Pin_2*%
X114300000Y-81280000D03*
%TD*%
D10*
%TO.P,J8,1,Pin_1*%
%TO.N,/TOP_POWER_RAIL*%
X152082500Y-99060000D03*
D11*
%TO.P,J8,2,Pin_2*%
%TO.N,GND*%
X149542500Y-99060000D03*
%TD*%
D10*
%TO.P,J11,1,Pin_1*%
%TO.N,GND*%
X142240000Y-78740000D03*
D11*
%TO.P,J11,2,Pin_2*%
X142240000Y-81280000D03*
%TD*%
D10*
%TO.P,J9,1,Pin_1*%
%TO.N,/BOTTOM_POWER_RAIL*%
X106997500Y-99060000D03*
D11*
%TO.P,J9,2,Pin_2*%
%TO.N,GND*%
X104457500Y-99060000D03*
%TD*%
D32*
%TO.N,GND*%
X112356000Y-82169000D03*
X128143000Y-79629000D03*
X138811000Y-81915000D03*
X153289000Y-83693000D03*
X149328930Y-85113070D03*
X118999000Y-77851000D03*
X106260000Y-85217000D03*
X110832000Y-83947000D03*
X102958000Y-85217000D03*
%TO.N,+1V8*%
X112481000Y-77343000D03*
%TO.N,+12V*%
X134239000Y-80899000D03*
X108458000Y-88773000D03*
X139827000Y-77597000D03*
%TO.N,Net-(IC1-FB)*%
X130175000Y-78613000D03*
%TO.N,VBUS*%
X126111000Y-80645000D03*
X111594000Y-76581000D03*
X144907000Y-81153000D03*
X152105000Y-85217000D03*
X130175000Y-80645000D03*
X108038000Y-85217000D03*
X122301000Y-77089000D03*
X122555000Y-80645000D03*
%TO.N,Net-(D1-A2)*%
X127381000Y-77089000D03*
X122555000Y-78867000D03*
%TD*%
D33*
%TO.N,GND*%
X106255000Y-85212000D02*
X106260000Y-85217000D01*
X136403000Y-78867000D02*
X133485000Y-78867000D01*
X132512000Y-81854000D02*
X132592000Y-81774000D01*
D34*
X125522000Y-83360000D02*
X125522000Y-81854000D01*
X142240000Y-78740000D02*
X141224000Y-78740000D01*
X131022000Y-83356000D02*
X131022000Y-81854000D01*
X143863000Y-83212999D02*
X143863000Y-82903000D01*
X145161000Y-84201000D02*
X144851001Y-84201000D01*
X140645000Y-79319000D02*
X139827000Y-79319000D01*
X137795000Y-81917000D02*
X138809000Y-81917000D01*
X103019000Y-84427000D02*
X103019000Y-85156000D01*
X116941500Y-76105000D02*
X116935000Y-76105000D01*
X141224000Y-78740000D02*
X140645000Y-79319000D01*
X144851001Y-84201000D02*
X143863000Y-83212999D01*
X140081000Y-75819000D02*
X140081000Y-76073000D01*
D33*
X131022000Y-81854000D02*
X132512000Y-81854000D01*
X152207000Y-83693000D02*
X153289000Y-83693000D01*
D34*
X112356000Y-82169000D02*
X112227000Y-82169000D01*
X103019000Y-85156000D02*
X102958000Y-85217000D01*
D33*
X133485000Y-78867000D02*
X132592000Y-77974000D01*
X124032000Y-81854000D02*
X123952000Y-81774000D01*
D34*
X112227000Y-82169000D02*
X111721000Y-81663000D01*
D33*
X109750000Y-83947000D02*
X110832000Y-83947000D01*
X148651000Y-83693000D02*
X148651000Y-84435140D01*
X106255000Y-83947000D02*
X106255000Y-85212000D01*
X148651000Y-84435140D02*
X149328930Y-85113070D01*
D34*
X143863000Y-82903000D02*
X142240000Y-81280000D01*
X140081000Y-76073000D02*
X141224000Y-77216000D01*
D33*
X125522000Y-81854000D02*
X124032000Y-81854000D01*
X118999000Y-78999000D02*
X118999000Y-77851000D01*
D34*
X116935000Y-76105000D02*
X114300000Y-78740000D01*
X141224000Y-77216000D02*
X141224000Y-78740000D01*
X129923000Y-84455000D02*
X131022000Y-83356000D01*
X126617000Y-84455000D02*
X125522000Y-83360000D01*
X138809000Y-81917000D02*
X138811000Y-81915000D01*
D33*
%TO.N,+3.3V*%
X148463000Y-81981000D02*
X146751000Y-83693000D01*
X146177000Y-84267000D02*
X146751000Y-83693000D01*
D34*
X146751000Y-83693000D02*
X146411000Y-83353000D01*
D33*
X144653000Y-76980504D02*
X146539496Y-78867000D01*
X105410000Y-89838000D02*
X109777000Y-85471000D01*
X146583000Y-78867000D02*
X148463000Y-78867000D01*
X105410000Y-90170000D02*
X105410000Y-89838000D01*
X148308000Y-85471000D02*
X149578000Y-86741000D01*
X146177000Y-85471000D02*
X146177000Y-84267000D01*
X149578000Y-88618000D02*
X151130000Y-90170000D01*
X109777000Y-85471000D02*
X146177000Y-85471000D01*
D34*
X146411000Y-83353000D02*
X145273000Y-83353000D01*
D33*
X149578000Y-86741000D02*
X149578000Y-87475000D01*
X148463000Y-78867000D02*
X148463000Y-81981000D01*
X146177000Y-85471000D02*
X148308000Y-85471000D01*
X144653000Y-76837000D02*
X144653000Y-76980504D01*
X146539496Y-78867000D02*
X146583000Y-78867000D01*
X148463000Y-78867000D02*
X152883000Y-78867000D01*
X149578000Y-87475000D02*
X149578000Y-88618000D01*
%TO.N,/TOP_POWER_RAIL*%
X153670000Y-92710000D02*
X153670000Y-95250000D01*
X153670000Y-90170000D02*
X153670000Y-92710000D01*
X153670000Y-95250000D02*
X153670000Y-97472500D01*
X153670000Y-87630000D02*
X153670000Y-90170000D01*
X153670000Y-97472500D02*
X152082500Y-99060000D01*
%TO.N,/BOTTOM_POWER_RAIL*%
X107188000Y-99060000D02*
X107696000Y-99060000D01*
X102870000Y-90170000D02*
X102870000Y-92710000D01*
X103187500Y-95250000D02*
X106997500Y-99060000D01*
X102870000Y-92710000D02*
X102870000Y-95250000D01*
X102870000Y-95250000D02*
X103187500Y-95250000D01*
X102870000Y-87630000D02*
X102870000Y-90170000D01*
D34*
%TO.N,Net-(J1-CC1)*%
X128772000Y-81854000D02*
X128772000Y-84324000D01*
X128772000Y-84324000D02*
X128903000Y-84455000D01*
%TO.N,Net-(J1-CC2)*%
X127772000Y-84320000D02*
X127637000Y-84455000D01*
X127772000Y-81854000D02*
X127772000Y-84320000D01*
D33*
%TO.N,+1V8*%
X108292000Y-77851000D02*
X109308000Y-78867000D01*
X104736000Y-77851000D02*
X108292000Y-77851000D01*
X103618000Y-83210000D02*
X104355000Y-83947000D01*
X104355000Y-86575000D02*
X104355000Y-83947000D01*
X105410000Y-87630000D02*
X104355000Y-86575000D01*
X103019000Y-83467000D02*
X103361000Y-83467000D01*
X103361000Y-83467000D02*
X103618000Y-83210000D01*
X103720000Y-78867000D02*
X104736000Y-77851000D01*
X111721000Y-78103000D02*
X110682000Y-78103000D01*
X112481000Y-77343000D02*
X111721000Y-78103000D01*
X110682000Y-78103000D02*
X109918000Y-78867000D01*
X103618000Y-78867000D02*
X103618000Y-83210000D01*
X103618000Y-78867000D02*
X103720000Y-78867000D01*
X109308000Y-78867000D02*
X109918000Y-78867000D01*
D34*
%TO.N,Net-(U1-ADJ)*%
X111721000Y-80643000D02*
X110442000Y-80643000D01*
X110442000Y-80643000D02*
X109918000Y-81167000D01*
X111721000Y-79123000D02*
X111721000Y-80643000D01*
%TO.N,Net-(U2-ADJ)*%
X145833000Y-75817000D02*
X146583000Y-76567000D01*
X143385000Y-75819000D02*
X144651000Y-75819000D01*
X144653000Y-75817000D02*
X145833000Y-75817000D01*
X144651000Y-75819000D02*
X144653000Y-75817000D01*
%TO.N,Net-(R7-Pad1)*%
X141101000Y-75819000D02*
X142365000Y-75819000D01*
D33*
%TO.N,+12V*%
X108458000Y-88773000D02*
X108458000Y-92202000D01*
D34*
X139827000Y-78359000D02*
X138811000Y-78359000D01*
D33*
X138811000Y-77597000D02*
X138811000Y-78359000D01*
D34*
X134241000Y-80897000D02*
X134239000Y-80899000D01*
D33*
X138811000Y-77597000D02*
X139827000Y-77597000D01*
X138811000Y-78359000D02*
X138303000Y-78867000D01*
D34*
X135255000Y-80897000D02*
X134241000Y-80897000D01*
D33*
X138811000Y-76581000D02*
X138811000Y-77597000D01*
X108458000Y-92202000D02*
X105410000Y-95250000D01*
D34*
%TO.N,Net-(IC1-FB)*%
X131129000Y-79567000D02*
X130175000Y-78613000D01*
X136525000Y-80897000D02*
X136229280Y-80897000D01*
X134899280Y-79567000D02*
X131129000Y-79567000D01*
X136525000Y-80897000D02*
X137795000Y-80897000D01*
X136229280Y-80897000D02*
X134899280Y-79567000D01*
D33*
%TO.N,VBUS*%
X109918000Y-76567000D02*
X111580000Y-76567000D01*
X122254500Y-80945500D02*
X122555000Y-80645000D01*
X126752000Y-80934000D02*
X126463000Y-80645000D01*
X146583000Y-81167000D02*
X144921000Y-81167000D01*
D34*
X121285000Y-76073000D02*
X122301000Y-77089000D01*
D33*
X126752000Y-81854000D02*
X126752000Y-80934000D01*
X120984500Y-80899000D02*
X121031000Y-80945500D01*
X111580000Y-76567000D02*
X111594000Y-76581000D01*
X151831000Y-85217000D02*
X150307000Y-83693000D01*
X118999000Y-80899000D02*
X120984500Y-80899000D01*
X107850000Y-85029000D02*
X108038000Y-85217000D01*
X121031000Y-80945500D02*
X122254500Y-80945500D01*
X144921000Y-81167000D02*
X144907000Y-81153000D01*
X107850000Y-83947000D02*
X107850000Y-85029000D01*
X130175000Y-80645000D02*
X129792000Y-81028000D01*
X152105000Y-85217000D02*
X151831000Y-85217000D01*
D34*
X121033000Y-76073000D02*
X121285000Y-76073000D01*
D33*
X129792000Y-81028000D02*
X129792000Y-81854000D01*
X126463000Y-80645000D02*
X126111000Y-80645000D01*
D34*
%TO.N,Net-(R12-Pad2)*%
X136525000Y-81917000D02*
X135255000Y-81917000D01*
D33*
%TO.N,Net-(D1-A2)*%
X121031000Y-78820500D02*
X122508500Y-78820500D01*
X122508500Y-78820500D02*
X122555000Y-78867000D01*
X135811000Y-76581000D02*
X127889000Y-76581000D01*
X127889000Y-76581000D02*
X127381000Y-77089000D01*
D34*
%TO.N,Net-(D2-Pad2)*%
X118516500Y-76105000D02*
X119981000Y-76105000D01*
X119981000Y-76105000D02*
X120013000Y-76073000D01*
%TD*%
M02*
