%TF.GenerationSoftware,KiCad,Pcbnew,7.0.6-0*%
%TF.CreationDate,2023-07-20T20:41:53-06:00*%
%TF.ProjectId,Breadboard Power Supply,42726561-6462-46f6-9172-6420506f7765,v10*%
%TF.SameCoordinates,Original*%
%TF.FileFunction,Copper,L2,Inr*%
%TF.FilePolarity,Positive*%
%FSLAX46Y46*%
G04 Gerber Fmt 4.6, Leading zero omitted, Abs format (unit mm)*
G04 Created by KiCad (PCBNEW 7.0.6-0) date 2023-07-20 20:41:53*
%MOMM*%
%LPD*%
G01*
G04 APERTURE LIST*
%TA.AperFunction,ComponentPad*%
%ADD10R,1.700000X1.700000*%
%TD*%
%TA.AperFunction,ComponentPad*%
%ADD11O,1.700000X1.700000*%
%TD*%
%TA.AperFunction,ComponentPad*%
%ADD12C,1.450000*%
%TD*%
%TA.AperFunction,ComponentPad*%
%ADD13C,1.830000*%
%TD*%
%TA.AperFunction,ViaPad*%
%ADD14C,0.800000*%
%TD*%
G04 APERTURE END LIST*
D10*
%TO.N,+1V8*%
%TO.C,J4*%
X151003000Y-86360000D03*
D11*
%TO.N,/TOP_POWER_RAIL*%
X153543000Y-86360000D03*
%TO.N,+3.3V*%
X151003000Y-88900000D03*
%TO.N,/TOP_POWER_RAIL*%
X153543000Y-88900000D03*
%TO.N,+5V*%
X151003000Y-91440000D03*
%TO.N,/TOP_POWER_RAIL*%
X153543000Y-91440000D03*
%TO.N,VCC*%
X151003000Y-93980000D03*
%TO.N,/TOP_POWER_RAIL*%
X153543000Y-93980000D03*
%TD*%
D12*
%TO.N,GND*%
%TO.C,J1*%
X132592000Y-77974000D03*
X123952000Y-77974000D03*
X132592000Y-81774000D03*
X123952000Y-81774000D03*
%TD*%
D10*
%TO.N,/BOTTOM_POWER_RAIL*%
%TO.C,J5*%
X102997000Y-86360000D03*
D11*
%TO.N,+1V8*%
X105537000Y-86360000D03*
%TO.N,/BOTTOM_POWER_RAIL*%
X102997000Y-88900000D03*
%TO.N,+3.3V*%
X105537000Y-88900000D03*
%TO.N,/BOTTOM_POWER_RAIL*%
X102997000Y-91440000D03*
%TO.N,+5V*%
X105537000Y-91440000D03*
%TO.N,/BOTTOM_POWER_RAIL*%
X102997000Y-93980000D03*
%TO.N,VCC*%
X105537000Y-93980000D03*
%TD*%
D13*
%TO.N,GND*%
%TO.C,TP1*%
X103759000Y-102638000D03*
X108839000Y-102638000D03*
%TD*%
%TO.N,GND*%
%TO.C,TP4*%
X147701000Y-102638000D03*
X152781000Y-102638000D03*
%TD*%
D10*
%TO.N,GND*%
%TO.C,J10*%
X119380000Y-78740000D03*
D11*
X119380000Y-81280000D03*
%TD*%
D10*
%TO.N,/TOP_POWER_RAIL*%
%TO.C,J8*%
X151765000Y-99060000D03*
D11*
%TO.N,GND*%
X149225000Y-99060000D03*
%TD*%
D10*
%TO.N,GND*%
%TO.C,J11*%
X137160000Y-78740000D03*
D11*
X137160000Y-81280000D03*
%TD*%
D10*
%TO.N,/BOTTOM_POWER_RAIL*%
%TO.C,J9*%
X107315000Y-99060000D03*
D11*
%TO.N,GND*%
X104775000Y-99060000D03*
%TD*%
D14*
%TO.N,GND*%
X121539000Y-80899000D03*
X145542000Y-77701500D03*
X105537000Y-81915000D03*
X142367000Y-82296000D03*
X145415000Y-81130500D03*
X101981000Y-81407000D03*
X116840000Y-75645462D03*
X134493000Y-77724000D03*
X110045500Y-82867500D03*
%TO.N,+1V8*%
X143002000Y-75692000D03*
%TO.N,+5V*%
X118999000Y-77290498D03*
X107315000Y-85344000D03*
X148717000Y-81026000D03*
X124714000Y-83058000D03*
X107188000Y-80010000D03*
X144526000Y-82931000D03*
X130001171Y-81039428D03*
X107569000Y-76581000D03*
X126752000Y-81026000D03*
%TO.N,VCC*%
X120777000Y-82931000D03*
X108458000Y-87630000D03*
%TO.N,Net-(R10-Pad2)*%
X114551498Y-77892500D03*
X115697000Y-79841500D03*
%TO.N,Net-(U3-ADJ)*%
X129619502Y-83607500D03*
%TD*%
%TA.AperFunction,Conductor*%
%TO.N,+5V*%
G36*
X115930890Y-75204185D02*
G01*
X115976645Y-75256989D01*
X115986589Y-75326147D01*
X115981782Y-75346818D01*
X115946458Y-75455534D01*
X115926496Y-75645462D01*
X115946458Y-75835390D01*
X115946459Y-75835393D01*
X116005470Y-76017011D01*
X116005473Y-76017018D01*
X116100960Y-76182406D01*
X116228747Y-76324328D01*
X116383248Y-76436580D01*
X116557712Y-76514256D01*
X116744513Y-76553962D01*
X116935487Y-76553962D01*
X117122288Y-76514256D01*
X117296752Y-76436580D01*
X117451253Y-76324328D01*
X117579040Y-76182406D01*
X117674527Y-76017018D01*
X117733542Y-75835390D01*
X117753504Y-75645462D01*
X117733542Y-75455534D01*
X117698218Y-75346818D01*
X117696223Y-75276977D01*
X117732303Y-75217144D01*
X117795004Y-75186316D01*
X117816149Y-75184500D01*
X142040972Y-75184500D01*
X142108011Y-75204185D01*
X142153766Y-75256989D01*
X142163710Y-75326147D01*
X142158903Y-75346818D01*
X142123579Y-75455534D01*
X142108458Y-75502072D01*
X142088496Y-75692000D01*
X142108458Y-75881928D01*
X142108459Y-75881931D01*
X142167470Y-76063549D01*
X142167473Y-76063556D01*
X142262960Y-76228944D01*
X142390747Y-76370866D01*
X142545248Y-76483118D01*
X142719712Y-76560794D01*
X142906513Y-76600500D01*
X143097487Y-76600500D01*
X143284288Y-76560794D01*
X143458752Y-76483118D01*
X143613253Y-76370866D01*
X143741040Y-76228944D01*
X143836527Y-76063556D01*
X143895542Y-75881928D01*
X143915504Y-75692000D01*
X143895542Y-75502072D01*
X143845097Y-75346818D01*
X143843102Y-75276977D01*
X143879182Y-75217144D01*
X143941883Y-75186316D01*
X143963028Y-75184500D01*
X154942500Y-75184500D01*
X155009539Y-75204185D01*
X155055294Y-75256989D01*
X155066500Y-75308500D01*
X155066500Y-85859932D01*
X155046815Y-85926971D01*
X154994011Y-85972726D01*
X154924853Y-85982670D01*
X154861297Y-85953645D01*
X154828944Y-85909742D01*
X154741859Y-85711207D01*
X154618723Y-85522734D01*
X154618715Y-85522723D01*
X154466243Y-85357097D01*
X154466238Y-85357092D01*
X154288577Y-85218812D01*
X154288572Y-85218808D01*
X154090580Y-85111661D01*
X154090577Y-85111659D01*
X154090574Y-85111658D01*
X154090571Y-85111657D01*
X154090569Y-85111656D01*
X153877637Y-85038556D01*
X153655569Y-85001500D01*
X153430431Y-85001500D01*
X153208362Y-85038556D01*
X152995430Y-85111656D01*
X152995419Y-85111661D01*
X152797427Y-85218808D01*
X152797422Y-85218812D01*
X152619761Y-85357092D01*
X152556548Y-85425760D01*
X152496661Y-85461750D01*
X152426823Y-85459649D01*
X152369207Y-85420124D01*
X152349138Y-85385110D01*
X152303889Y-85263796D01*
X152270214Y-85218812D01*
X152216261Y-85146739D01*
X152099204Y-85059111D01*
X152099204Y-85059110D01*
X151962203Y-85008011D01*
X151901654Y-85001500D01*
X151901638Y-85001500D01*
X150104362Y-85001500D01*
X150104345Y-85001500D01*
X150043797Y-85008011D01*
X150043795Y-85008011D01*
X149906795Y-85059111D01*
X149789739Y-85146739D01*
X149702111Y-85263795D01*
X149651011Y-85400795D01*
X149651011Y-85400797D01*
X149644500Y-85461345D01*
X149644500Y-87258654D01*
X149651011Y-87319202D01*
X149651011Y-87319204D01*
X149696094Y-87440072D01*
X149702111Y-87456204D01*
X149789739Y-87573261D01*
X149906796Y-87660889D01*
X149958737Y-87680262D01*
X150024595Y-87704827D01*
X150080528Y-87746699D01*
X150104944Y-87812163D01*
X150090092Y-87880436D01*
X150072490Y-87904991D01*
X149927279Y-88062730D01*
X149927276Y-88062734D01*
X149804140Y-88251207D01*
X149713703Y-88457385D01*
X149658436Y-88675628D01*
X149658434Y-88675640D01*
X149639844Y-88899994D01*
X149639844Y-88900005D01*
X149658434Y-89124359D01*
X149658436Y-89124371D01*
X149713703Y-89342614D01*
X149804140Y-89548792D01*
X149927276Y-89737265D01*
X149927284Y-89737276D01*
X150079756Y-89902902D01*
X150079760Y-89902906D01*
X150257424Y-90041189D01*
X150293930Y-90060945D01*
X150300695Y-90064606D01*
X150350286Y-90113825D01*
X150365394Y-90182042D01*
X150341224Y-90247597D01*
X150312802Y-90275236D01*
X150131922Y-90401890D01*
X150131920Y-90401891D01*
X149964891Y-90568920D01*
X149964886Y-90568926D01*
X149829400Y-90762420D01*
X149829399Y-90762422D01*
X149729570Y-90976507D01*
X149729567Y-90976513D01*
X149672364Y-91189999D01*
X149672364Y-91190000D01*
X150569314Y-91190000D01*
X150543507Y-91230156D01*
X150503000Y-91368111D01*
X150503000Y-91511889D01*
X150543507Y-91649844D01*
X150569314Y-91690000D01*
X149672364Y-91690000D01*
X149729567Y-91903486D01*
X149729570Y-91903492D01*
X149829399Y-92117578D01*
X149964894Y-92311082D01*
X150131917Y-92478105D01*
X150312802Y-92604763D01*
X150356427Y-92659340D01*
X150363619Y-92728839D01*
X150332097Y-92791193D01*
X150300697Y-92815392D01*
X150257427Y-92838809D01*
X150257422Y-92838812D01*
X150079761Y-92977092D01*
X150079756Y-92977097D01*
X149927284Y-93142723D01*
X149927276Y-93142734D01*
X149804140Y-93331207D01*
X149713703Y-93537385D01*
X149658436Y-93755628D01*
X149658434Y-93755640D01*
X149639844Y-93979994D01*
X149639844Y-93980005D01*
X149658434Y-94204359D01*
X149658436Y-94204371D01*
X149713703Y-94422614D01*
X149804140Y-94628792D01*
X149927276Y-94817265D01*
X149927284Y-94817276D01*
X150079756Y-94982902D01*
X150079760Y-94982906D01*
X150257424Y-95121189D01*
X150257425Y-95121189D01*
X150257427Y-95121191D01*
X150384135Y-95189761D01*
X150455426Y-95228342D01*
X150668365Y-95301444D01*
X150890431Y-95338500D01*
X151115569Y-95338500D01*
X151337635Y-95301444D01*
X151550574Y-95228342D01*
X151748576Y-95121189D01*
X151926240Y-94982906D01*
X152078722Y-94817268D01*
X152169193Y-94678790D01*
X152222338Y-94633437D01*
X152291569Y-94624013D01*
X152354905Y-94653515D01*
X152376804Y-94678787D01*
X152467278Y-94817268D01*
X152467283Y-94817273D01*
X152467284Y-94817276D01*
X152619756Y-94982902D01*
X152619760Y-94982906D01*
X152797424Y-95121189D01*
X152797425Y-95121189D01*
X152797427Y-95121191D01*
X152924135Y-95189761D01*
X152995426Y-95228342D01*
X153208365Y-95301444D01*
X153430431Y-95338500D01*
X153655569Y-95338500D01*
X153877635Y-95301444D01*
X154090574Y-95228342D01*
X154288576Y-95121189D01*
X154466240Y-94982906D01*
X154618722Y-94817268D01*
X154741860Y-94628791D01*
X154828944Y-94430256D01*
X154873900Y-94376771D01*
X154940635Y-94356081D01*
X155007963Y-94374755D01*
X155054507Y-94426865D01*
X155066500Y-94480067D01*
X155066500Y-103888500D01*
X155046815Y-103955539D01*
X154994011Y-104001294D01*
X154942500Y-104012500D01*
X153693844Y-104012500D01*
X153626805Y-103992815D01*
X153581050Y-103940011D01*
X153571106Y-103870853D01*
X153600131Y-103807297D01*
X153617681Y-103790647D01*
X153635817Y-103776530D01*
X153748415Y-103688893D01*
X153908192Y-103515329D01*
X154037222Y-103317833D01*
X154131985Y-103101794D01*
X154189898Y-102873103D01*
X154209379Y-102638000D01*
X154189898Y-102402897D01*
X154131985Y-102174206D01*
X154037222Y-101958167D01*
X154037222Y-101958166D01*
X153908194Y-101760673D01*
X153880620Y-101730719D01*
X153748415Y-101587107D01*
X153748410Y-101587103D01*
X153748407Y-101587100D01*
X153562257Y-101442214D01*
X153562246Y-101442207D01*
X153354779Y-101329932D01*
X153354776Y-101329931D01*
X153354773Y-101329929D01*
X153354767Y-101329927D01*
X153354765Y-101329926D01*
X153131648Y-101253329D01*
X152898955Y-101214500D01*
X152663045Y-101214500D01*
X152430351Y-101253329D01*
X152207234Y-101329926D01*
X152207220Y-101329932D01*
X151999753Y-101442207D01*
X151999742Y-101442214D01*
X151813592Y-101587100D01*
X151813582Y-101587110D01*
X151653805Y-101760673D01*
X151524777Y-101958167D01*
X151430015Y-102174206D01*
X151372102Y-102402896D01*
X151372100Y-102402904D01*
X151352621Y-102637994D01*
X151352621Y-102638005D01*
X151372100Y-102873095D01*
X151372102Y-102873103D01*
X151430015Y-103101793D01*
X151524777Y-103317832D01*
X151653805Y-103515326D01*
X151653808Y-103515329D01*
X151813585Y-103688893D01*
X151907889Y-103762293D01*
X151944319Y-103790647D01*
X151985132Y-103847357D01*
X151988806Y-103917130D01*
X151954174Y-103977813D01*
X151892233Y-104010140D01*
X151868156Y-104012500D01*
X148613844Y-104012500D01*
X148546805Y-103992815D01*
X148501050Y-103940011D01*
X148491106Y-103870853D01*
X148520131Y-103807297D01*
X148537681Y-103790647D01*
X148555817Y-103776530D01*
X148668415Y-103688893D01*
X148828192Y-103515329D01*
X148957222Y-103317833D01*
X149051985Y-103101794D01*
X149109898Y-102873103D01*
X149129379Y-102638000D01*
X149109898Y-102402897D01*
X149051985Y-102174206D01*
X148957222Y-101958167D01*
X148957222Y-101958166D01*
X148828194Y-101760673D01*
X148800620Y-101730719D01*
X148668415Y-101587107D01*
X148668410Y-101587103D01*
X148668407Y-101587100D01*
X148482257Y-101442214D01*
X148482246Y-101442207D01*
X148274779Y-101329932D01*
X148274776Y-101329931D01*
X148274773Y-101329929D01*
X148274767Y-101329927D01*
X148274765Y-101329926D01*
X148051648Y-101253329D01*
X147818955Y-101214500D01*
X147583045Y-101214500D01*
X147350351Y-101253329D01*
X147127234Y-101329926D01*
X147127220Y-101329932D01*
X146919753Y-101442207D01*
X146919742Y-101442214D01*
X146733592Y-101587100D01*
X146733582Y-101587110D01*
X146573805Y-101760673D01*
X146444777Y-101958167D01*
X146350015Y-102174206D01*
X146292102Y-102402896D01*
X146292100Y-102402904D01*
X146272621Y-102637994D01*
X146272621Y-102638005D01*
X146292100Y-102873095D01*
X146292102Y-102873103D01*
X146350015Y-103101793D01*
X146444777Y-103317832D01*
X146573805Y-103515326D01*
X146573808Y-103515329D01*
X146733585Y-103688893D01*
X146827889Y-103762293D01*
X146864319Y-103790647D01*
X146905132Y-103847357D01*
X146908806Y-103917130D01*
X146874174Y-103977813D01*
X146812233Y-104010140D01*
X146788156Y-104012500D01*
X145920500Y-104012500D01*
X145853461Y-103992815D01*
X145807706Y-103940011D01*
X145796500Y-103888500D01*
X145796500Y-99060005D01*
X147861844Y-99060005D01*
X147880434Y-99284359D01*
X147880436Y-99284371D01*
X147935703Y-99502614D01*
X148026140Y-99708792D01*
X148149276Y-99897265D01*
X148149284Y-99897276D01*
X148275967Y-100034888D01*
X148301760Y-100062906D01*
X148479424Y-100201189D01*
X148479425Y-100201189D01*
X148479427Y-100201191D01*
X148606135Y-100269761D01*
X148677426Y-100308342D01*
X148890365Y-100381444D01*
X149112431Y-100418500D01*
X149337569Y-100418500D01*
X149559635Y-100381444D01*
X149772574Y-100308342D01*
X149970576Y-100201189D01*
X150148240Y-100062906D01*
X150211452Y-99994239D01*
X150271337Y-99958250D01*
X150341175Y-99960349D01*
X150398791Y-99999873D01*
X150418861Y-100034888D01*
X150464111Y-100156204D01*
X150551739Y-100273261D01*
X150668796Y-100360889D01*
X150805799Y-100411989D01*
X150833050Y-100414918D01*
X150866345Y-100418499D01*
X150866362Y-100418500D01*
X152663638Y-100418500D01*
X152663654Y-100418499D01*
X152690692Y-100415591D01*
X152724201Y-100411989D01*
X152861204Y-100360889D01*
X152978261Y-100273261D01*
X153065889Y-100156204D01*
X153116989Y-100019201D01*
X153120591Y-99985692D01*
X153123499Y-99958654D01*
X153123500Y-99958637D01*
X153123500Y-98161362D01*
X153123499Y-98161345D01*
X153119672Y-98125759D01*
X153116989Y-98100799D01*
X153065889Y-97963796D01*
X152978261Y-97846739D01*
X152861204Y-97759111D01*
X152861204Y-97759110D01*
X152724203Y-97708011D01*
X152663654Y-97701500D01*
X152663638Y-97701500D01*
X150866362Y-97701500D01*
X150866345Y-97701500D01*
X150805797Y-97708011D01*
X150805795Y-97708011D01*
X150668795Y-97759111D01*
X150551739Y-97846739D01*
X150464111Y-97963795D01*
X150418861Y-98085111D01*
X150376989Y-98141044D01*
X150311524Y-98165460D01*
X150243252Y-98150607D01*
X150211454Y-98125762D01*
X150148240Y-98057094D01*
X149970576Y-97918811D01*
X149970575Y-97918810D01*
X149970572Y-97918808D01*
X149772580Y-97811661D01*
X149772577Y-97811659D01*
X149772574Y-97811658D01*
X149772571Y-97811657D01*
X149772569Y-97811656D01*
X149559637Y-97738556D01*
X149337569Y-97701500D01*
X149112431Y-97701500D01*
X148890362Y-97738556D01*
X148677430Y-97811656D01*
X148677419Y-97811661D01*
X148479427Y-97918808D01*
X148479422Y-97918812D01*
X148301761Y-98057092D01*
X148301756Y-98057097D01*
X148149284Y-98222723D01*
X148149276Y-98222734D01*
X148026140Y-98411207D01*
X147935703Y-98617385D01*
X147880436Y-98835628D01*
X147880434Y-98835640D01*
X147861844Y-99059994D01*
X147861844Y-99060005D01*
X145796500Y-99060005D01*
X145796500Y-85114759D01*
X145796528Y-85114616D01*
X145796524Y-85114616D01*
X145796539Y-85090002D01*
X145796541Y-85090000D01*
X145796462Y-85089808D01*
X145796384Y-85089618D01*
X145796382Y-85089616D01*
X145796099Y-85089500D01*
X145796000Y-85089459D01*
X145771446Y-85089459D01*
X145771240Y-85089500D01*
X110768760Y-85089500D01*
X110768554Y-85089459D01*
X110744000Y-85089459D01*
X110743901Y-85089500D01*
X110743617Y-85089616D01*
X110743615Y-85089618D01*
X110743459Y-85089999D01*
X110743476Y-85114616D01*
X110743471Y-85114616D01*
X110743500Y-85114759D01*
X110743500Y-103888500D01*
X110723815Y-103955539D01*
X110671011Y-104001294D01*
X110619500Y-104012500D01*
X109751844Y-104012500D01*
X109684805Y-103992815D01*
X109639050Y-103940011D01*
X109629106Y-103870853D01*
X109658131Y-103807297D01*
X109675681Y-103790647D01*
X109693817Y-103776530D01*
X109806415Y-103688893D01*
X109966192Y-103515329D01*
X110095222Y-103317833D01*
X110189985Y-103101794D01*
X110247898Y-102873103D01*
X110267379Y-102638000D01*
X110247898Y-102402897D01*
X110189985Y-102174206D01*
X110095222Y-101958167D01*
X110095221Y-101958167D01*
X109966194Y-101760673D01*
X109938620Y-101730719D01*
X109806415Y-101587107D01*
X109806410Y-101587103D01*
X109806407Y-101587100D01*
X109620257Y-101442214D01*
X109620246Y-101442207D01*
X109412779Y-101329932D01*
X109412776Y-101329931D01*
X109412773Y-101329929D01*
X109412767Y-101329927D01*
X109412765Y-101329926D01*
X109189648Y-101253329D01*
X108956955Y-101214500D01*
X108721045Y-101214500D01*
X108488351Y-101253329D01*
X108265234Y-101329926D01*
X108265220Y-101329932D01*
X108057753Y-101442207D01*
X108057742Y-101442214D01*
X107871592Y-101587100D01*
X107871582Y-101587110D01*
X107711805Y-101760673D01*
X107582777Y-101958167D01*
X107488015Y-102174206D01*
X107430102Y-102402896D01*
X107430100Y-102402904D01*
X107410621Y-102637994D01*
X107410621Y-102638005D01*
X107430100Y-102873095D01*
X107430102Y-102873103D01*
X107488015Y-103101793D01*
X107582777Y-103317832D01*
X107711805Y-103515326D01*
X107711808Y-103515329D01*
X107871585Y-103688893D01*
X107965889Y-103762293D01*
X108002319Y-103790647D01*
X108043132Y-103847357D01*
X108046806Y-103917130D01*
X108012174Y-103977813D01*
X107950233Y-104010140D01*
X107926156Y-104012500D01*
X104671844Y-104012500D01*
X104604805Y-103992815D01*
X104559050Y-103940011D01*
X104549106Y-103870853D01*
X104578131Y-103807297D01*
X104595681Y-103790647D01*
X104613817Y-103776530D01*
X104726415Y-103688893D01*
X104886192Y-103515329D01*
X105015222Y-103317833D01*
X105109985Y-103101794D01*
X105167898Y-102873103D01*
X105187379Y-102638000D01*
X105167898Y-102402897D01*
X105109985Y-102174206D01*
X105015222Y-101958167D01*
X105015221Y-101958167D01*
X104886194Y-101760673D01*
X104858620Y-101730719D01*
X104726415Y-101587107D01*
X104726410Y-101587103D01*
X104726407Y-101587100D01*
X104540257Y-101442214D01*
X104540246Y-101442207D01*
X104332779Y-101329932D01*
X104332776Y-101329931D01*
X104332773Y-101329929D01*
X104332767Y-101329927D01*
X104332765Y-101329926D01*
X104109648Y-101253329D01*
X103876955Y-101214500D01*
X103641045Y-101214500D01*
X103408351Y-101253329D01*
X103185234Y-101329926D01*
X103185220Y-101329932D01*
X102977753Y-101442207D01*
X102977742Y-101442214D01*
X102791592Y-101587100D01*
X102791582Y-101587110D01*
X102631805Y-101760673D01*
X102502777Y-101958167D01*
X102408015Y-102174206D01*
X102350102Y-102402896D01*
X102350100Y-102402904D01*
X102330621Y-102637994D01*
X102330621Y-102638005D01*
X102350100Y-102873095D01*
X102350102Y-102873103D01*
X102408015Y-103101793D01*
X102502777Y-103317832D01*
X102631805Y-103515326D01*
X102631808Y-103515329D01*
X102791585Y-103688893D01*
X102885889Y-103762293D01*
X102922319Y-103790647D01*
X102963132Y-103847357D01*
X102966806Y-103917130D01*
X102932174Y-103977813D01*
X102870233Y-104010140D01*
X102846156Y-104012500D01*
X101597500Y-104012500D01*
X101530461Y-103992815D01*
X101484706Y-103940011D01*
X101473500Y-103888500D01*
X101473500Y-99060005D01*
X103411844Y-99060005D01*
X103430434Y-99284359D01*
X103430436Y-99284371D01*
X103485703Y-99502614D01*
X103576140Y-99708792D01*
X103699276Y-99897265D01*
X103699284Y-99897276D01*
X103825967Y-100034888D01*
X103851760Y-100062906D01*
X104029424Y-100201189D01*
X104029425Y-100201189D01*
X104029427Y-100201191D01*
X104156135Y-100269761D01*
X104227426Y-100308342D01*
X104440365Y-100381444D01*
X104662431Y-100418500D01*
X104887569Y-100418500D01*
X105109635Y-100381444D01*
X105322574Y-100308342D01*
X105520576Y-100201189D01*
X105698240Y-100062906D01*
X105761452Y-99994239D01*
X105821337Y-99958250D01*
X105891175Y-99960349D01*
X105948791Y-99999873D01*
X105968861Y-100034888D01*
X106014110Y-100156203D01*
X106014111Y-100156204D01*
X106101739Y-100273261D01*
X106218796Y-100360889D01*
X106355799Y-100411989D01*
X106383050Y-100414918D01*
X106416345Y-100418499D01*
X106416362Y-100418500D01*
X108213638Y-100418500D01*
X108213654Y-100418499D01*
X108240692Y-100415591D01*
X108274201Y-100411989D01*
X108411204Y-100360889D01*
X108528261Y-100273261D01*
X108615889Y-100156204D01*
X108666989Y-100019201D01*
X108670591Y-99985692D01*
X108673499Y-99958654D01*
X108673500Y-99958637D01*
X108673500Y-98161362D01*
X108673499Y-98161345D01*
X108669672Y-98125759D01*
X108666989Y-98100799D01*
X108615889Y-97963796D01*
X108528261Y-97846739D01*
X108411204Y-97759111D01*
X108411204Y-97759110D01*
X108274203Y-97708011D01*
X108213654Y-97701500D01*
X108213638Y-97701500D01*
X106416362Y-97701500D01*
X106416345Y-97701500D01*
X106355797Y-97708011D01*
X106355795Y-97708011D01*
X106218795Y-97759111D01*
X106101739Y-97846739D01*
X106014111Y-97963795D01*
X105968861Y-98085111D01*
X105926989Y-98141044D01*
X105861524Y-98165460D01*
X105793252Y-98150607D01*
X105761454Y-98125762D01*
X105698240Y-98057094D01*
X105520576Y-97918811D01*
X105520575Y-97918810D01*
X105520572Y-97918808D01*
X105322580Y-97811661D01*
X105322577Y-97811659D01*
X105322574Y-97811658D01*
X105322571Y-97811657D01*
X105322569Y-97811656D01*
X105109637Y-97738556D01*
X104887569Y-97701500D01*
X104662431Y-97701500D01*
X104440362Y-97738556D01*
X104227430Y-97811656D01*
X104227419Y-97811661D01*
X104029427Y-97918808D01*
X104029422Y-97918812D01*
X103851761Y-98057092D01*
X103851756Y-98057097D01*
X103699284Y-98222723D01*
X103699276Y-98222734D01*
X103576140Y-98411207D01*
X103485703Y-98617385D01*
X103430436Y-98835628D01*
X103430434Y-98835640D01*
X103411844Y-99059994D01*
X103411844Y-99060005D01*
X101473500Y-99060005D01*
X101473500Y-94480067D01*
X101493185Y-94413028D01*
X101545989Y-94367273D01*
X101615147Y-94357329D01*
X101678703Y-94386354D01*
X101711056Y-94430257D01*
X101798140Y-94628792D01*
X101921276Y-94817265D01*
X101921284Y-94817276D01*
X102073756Y-94982902D01*
X102073760Y-94982906D01*
X102251424Y-95121189D01*
X102251425Y-95121189D01*
X102251427Y-95121191D01*
X102378135Y-95189761D01*
X102449426Y-95228342D01*
X102662365Y-95301444D01*
X102884431Y-95338500D01*
X103109569Y-95338500D01*
X103331635Y-95301444D01*
X103544574Y-95228342D01*
X103742576Y-95121189D01*
X103920240Y-94982906D01*
X104072722Y-94817268D01*
X104163193Y-94678790D01*
X104216338Y-94633437D01*
X104285569Y-94624013D01*
X104348905Y-94653515D01*
X104370804Y-94678787D01*
X104461278Y-94817268D01*
X104461283Y-94817273D01*
X104461284Y-94817276D01*
X104613756Y-94982902D01*
X104613760Y-94982906D01*
X104791424Y-95121189D01*
X104791425Y-95121189D01*
X104791427Y-95121191D01*
X104918135Y-95189761D01*
X104989426Y-95228342D01*
X105202365Y-95301444D01*
X105424431Y-95338500D01*
X105649569Y-95338500D01*
X105871635Y-95301444D01*
X106084574Y-95228342D01*
X106282576Y-95121189D01*
X106460240Y-94982906D01*
X106612722Y-94817268D01*
X106735860Y-94628791D01*
X106826296Y-94422616D01*
X106881564Y-94204368D01*
X106900156Y-93980000D01*
X106881564Y-93755632D01*
X106826296Y-93537384D01*
X106735860Y-93331209D01*
X106719706Y-93306484D01*
X106612723Y-93142734D01*
X106612715Y-93142723D01*
X106460243Y-92977097D01*
X106460238Y-92977092D01*
X106282577Y-92838812D01*
X106282577Y-92838811D01*
X106239303Y-92815393D01*
X106189713Y-92766173D01*
X106174605Y-92697957D01*
X106198775Y-92632401D01*
X106227198Y-92604763D01*
X106408079Y-92478108D01*
X106575105Y-92311082D01*
X106710600Y-92117578D01*
X106810429Y-91903492D01*
X106810432Y-91903486D01*
X106867636Y-91690000D01*
X105970686Y-91690000D01*
X105996493Y-91649844D01*
X106037000Y-91511889D01*
X106037000Y-91368111D01*
X105996493Y-91230156D01*
X105970686Y-91190000D01*
X106867636Y-91190000D01*
X106867635Y-91189999D01*
X106810432Y-90976513D01*
X106810429Y-90976507D01*
X106710600Y-90762422D01*
X106710599Y-90762420D01*
X106575113Y-90568926D01*
X106575108Y-90568920D01*
X106408082Y-90401894D01*
X106227197Y-90275236D01*
X106183572Y-90220659D01*
X106176380Y-90151160D01*
X106207902Y-90088806D01*
X106239300Y-90064608D01*
X106282576Y-90041189D01*
X106460240Y-89902906D01*
X106612722Y-89737268D01*
X106735860Y-89548791D01*
X106826296Y-89342616D01*
X106881564Y-89124368D01*
X106900156Y-88900000D01*
X106881564Y-88675632D01*
X106826296Y-88457384D01*
X106735860Y-88251209D01*
X106719706Y-88226484D01*
X106612723Y-88062734D01*
X106612715Y-88062723D01*
X106460243Y-87897097D01*
X106460238Y-87897092D01*
X106282577Y-87758812D01*
X106282578Y-87758812D01*
X106282576Y-87758811D01*
X106246070Y-87739055D01*
X106196479Y-87689836D01*
X106183227Y-87630000D01*
X107544496Y-87630000D01*
X107564458Y-87819928D01*
X107564459Y-87819931D01*
X107623470Y-88001549D01*
X107623473Y-88001556D01*
X107718960Y-88166944D01*
X107846747Y-88308866D01*
X108001248Y-88421118D01*
X108175712Y-88498794D01*
X108362513Y-88538500D01*
X108553487Y-88538500D01*
X108740288Y-88498794D01*
X108914752Y-88421118D01*
X109069253Y-88308866D01*
X109197040Y-88166944D01*
X109292527Y-88001556D01*
X109351542Y-87819928D01*
X109371504Y-87630000D01*
X109351542Y-87440072D01*
X109292527Y-87258444D01*
X109197040Y-87093056D01*
X109069253Y-86951134D01*
X108914752Y-86838882D01*
X108740288Y-86761206D01*
X108740286Y-86761205D01*
X108553487Y-86721500D01*
X108362513Y-86721500D01*
X108175714Y-86761205D01*
X108001246Y-86838883D01*
X107846745Y-86951135D01*
X107718959Y-87093057D01*
X107623473Y-87258443D01*
X107623470Y-87258450D01*
X107565236Y-87437678D01*
X107564458Y-87440072D01*
X107544496Y-87630000D01*
X106183227Y-87630000D01*
X106181371Y-87621619D01*
X106205541Y-87556064D01*
X106246070Y-87520945D01*
X106246084Y-87520936D01*
X106282576Y-87501189D01*
X106460240Y-87362906D01*
X106612722Y-87197268D01*
X106735860Y-87008791D01*
X106826296Y-86802616D01*
X106881564Y-86584368D01*
X106900156Y-86360000D01*
X106881564Y-86135632D01*
X106826296Y-85917384D01*
X106735860Y-85711209D01*
X106612722Y-85522732D01*
X106612719Y-85522729D01*
X106612715Y-85522723D01*
X106460243Y-85357097D01*
X106460238Y-85357092D01*
X106282577Y-85218812D01*
X106282572Y-85218808D01*
X106084580Y-85111661D01*
X106084577Y-85111659D01*
X106084574Y-85111658D01*
X106084571Y-85111657D01*
X106084569Y-85111656D01*
X105871637Y-85038556D01*
X105649569Y-85001500D01*
X105424431Y-85001500D01*
X105202362Y-85038556D01*
X104989430Y-85111656D01*
X104989419Y-85111661D01*
X104791427Y-85218808D01*
X104791422Y-85218812D01*
X104613761Y-85357092D01*
X104550548Y-85425760D01*
X104490661Y-85461750D01*
X104420823Y-85459649D01*
X104363207Y-85420124D01*
X104343138Y-85385110D01*
X104297889Y-85263796D01*
X104264214Y-85218812D01*
X104210261Y-85146739D01*
X104093204Y-85059111D01*
X104093204Y-85059110D01*
X103956203Y-85008011D01*
X103895654Y-85001500D01*
X103895638Y-85001500D01*
X102098362Y-85001500D01*
X102098345Y-85001500D01*
X102037797Y-85008011D01*
X102037795Y-85008011D01*
X101900795Y-85059111D01*
X101783739Y-85146739D01*
X101696767Y-85262919D01*
X101640833Y-85304790D01*
X101571141Y-85309774D01*
X101509818Y-85276289D01*
X101476334Y-85214965D01*
X101473500Y-85188608D01*
X101473500Y-82867500D01*
X109131996Y-82867500D01*
X109151958Y-83057428D01*
X109151959Y-83057431D01*
X109210970Y-83239049D01*
X109210973Y-83239056D01*
X109306460Y-83404444D01*
X109434247Y-83546366D01*
X109588748Y-83658618D01*
X109763212Y-83736294D01*
X109950013Y-83776000D01*
X110140987Y-83776000D01*
X110327788Y-83736294D01*
X110502252Y-83658618D01*
X110656753Y-83546366D01*
X110784540Y-83404444D01*
X110880027Y-83239056D01*
X110939042Y-83057428D01*
X110959004Y-82867500D01*
X110939042Y-82677572D01*
X110880027Y-82495944D01*
X110784540Y-82330556D01*
X110664730Y-82197493D01*
X110656754Y-82188635D01*
X110618058Y-82160520D01*
X110502252Y-82076382D01*
X110327788Y-81998706D01*
X110327786Y-81998705D01*
X110140987Y-81959000D01*
X109950013Y-81959000D01*
X109763214Y-81998705D01*
X109588746Y-82076383D01*
X109434245Y-82188635D01*
X109306459Y-82330557D01*
X109210973Y-82495943D01*
X109210970Y-82495950D01*
X109155212Y-82667556D01*
X109151958Y-82677572D01*
X109131996Y-82867500D01*
X101473500Y-82867500D01*
X101473500Y-82366466D01*
X101493185Y-82299427D01*
X101545989Y-82253672D01*
X101615147Y-82243728D01*
X101647934Y-82253186D01*
X101698712Y-82275794D01*
X101885513Y-82315500D01*
X102076487Y-82315500D01*
X102263288Y-82275794D01*
X102437752Y-82198118D01*
X102592253Y-82085866D01*
X102720040Y-81943944D01*
X102736751Y-81915000D01*
X104623496Y-81915000D01*
X104643458Y-82104928D01*
X104643459Y-82104931D01*
X104702470Y-82286549D01*
X104702473Y-82286556D01*
X104797960Y-82451944D01*
X104925747Y-82593866D01*
X105080248Y-82706118D01*
X105254712Y-82783794D01*
X105441513Y-82823500D01*
X105632487Y-82823500D01*
X105819288Y-82783794D01*
X105993752Y-82706118D01*
X106148253Y-82593866D01*
X106276040Y-82451944D01*
X106371527Y-82286556D01*
X106430542Y-82104928D01*
X106450504Y-81915000D01*
X106430542Y-81725072D01*
X106371527Y-81543444D01*
X106276040Y-81378056D01*
X106187755Y-81280005D01*
X118016844Y-81280005D01*
X118035434Y-81504359D01*
X118035436Y-81504371D01*
X118090703Y-81722614D01*
X118181140Y-81928792D01*
X118304276Y-82117265D01*
X118304284Y-82117276D01*
X118456756Y-82282902D01*
X118456761Y-82282907D01*
X118473583Y-82296000D01*
X118634424Y-82421189D01*
X118634425Y-82421189D01*
X118634427Y-82421191D01*
X118691254Y-82451944D01*
X118832426Y-82528342D01*
X119045365Y-82601444D01*
X119267431Y-82638500D01*
X119492569Y-82638500D01*
X119714635Y-82601444D01*
X119721681Y-82599024D01*
X119791479Y-82595870D01*
X119851903Y-82630951D01*
X119883768Y-82693132D01*
X119883327Y-82734524D01*
X119884138Y-82734610D01*
X119883459Y-82741068D01*
X119883458Y-82741072D01*
X119863496Y-82931000D01*
X119883458Y-83120928D01*
X119883459Y-83120931D01*
X119942470Y-83302549D01*
X119942473Y-83302556D01*
X120037960Y-83467944D01*
X120140290Y-83581594D01*
X120163616Y-83607500D01*
X120165747Y-83609866D01*
X120320248Y-83722118D01*
X120494712Y-83799794D01*
X120681513Y-83839500D01*
X120872487Y-83839500D01*
X121059288Y-83799794D01*
X121233752Y-83722118D01*
X121388253Y-83609866D01*
X121390383Y-83607500D01*
X128705998Y-83607500D01*
X128725960Y-83797428D01*
X128725961Y-83797431D01*
X128784972Y-83979049D01*
X128784975Y-83979056D01*
X128880462Y-84144444D01*
X129008249Y-84286366D01*
X129162750Y-84398618D01*
X129337214Y-84476294D01*
X129524015Y-84516000D01*
X129714989Y-84516000D01*
X129901790Y-84476294D01*
X130076254Y-84398618D01*
X130230755Y-84286366D01*
X130358542Y-84144444D01*
X130454029Y-83979056D01*
X130513044Y-83797428D01*
X130533006Y-83607500D01*
X130513044Y-83417572D01*
X130454029Y-83235944D01*
X130358542Y-83070556D01*
X130232885Y-82931000D01*
X130230756Y-82928635D01*
X130146612Y-82867500D01*
X130076254Y-82816382D01*
X129901790Y-82738706D01*
X129901788Y-82738705D01*
X129714989Y-82699000D01*
X129524015Y-82699000D01*
X129337216Y-82738705D01*
X129162748Y-82816383D01*
X129008247Y-82928635D01*
X128880461Y-83070557D01*
X128784975Y-83235943D01*
X128784972Y-83235950D01*
X128725961Y-83417568D01*
X128725960Y-83417572D01*
X128705998Y-83607500D01*
X121390383Y-83607500D01*
X121516040Y-83467944D01*
X121611527Y-83302556D01*
X121670542Y-83120928D01*
X121690504Y-82931000D01*
X121670542Y-82741072D01*
X121611527Y-82559444D01*
X121516040Y-82394056D01*
X121388253Y-82252134D01*
X121233752Y-82139882D01*
X121059288Y-82062206D01*
X121059286Y-82062205D01*
X120872487Y-82022500D01*
X120727551Y-82022500D01*
X120660512Y-82002815D01*
X120614757Y-81950011D01*
X120604813Y-81880853D01*
X120613995Y-81848690D01*
X120631245Y-81809364D01*
X120669296Y-81722616D01*
X120697641Y-81610682D01*
X120733179Y-81550529D01*
X120795599Y-81519136D01*
X120865082Y-81526474D01*
X120909995Y-81558151D01*
X120927744Y-81577863D01*
X120927747Y-81577866D01*
X121082248Y-81690118D01*
X121256712Y-81767794D01*
X121443513Y-81807500D01*
X121634487Y-81807500D01*
X121792087Y-81774001D01*
X122713788Y-81774001D01*
X122732598Y-81989007D01*
X122732600Y-81989018D01*
X122788458Y-82197485D01*
X122788460Y-82197489D01*
X122788461Y-82197493D01*
X122828288Y-82282902D01*
X122879676Y-82393105D01*
X122974368Y-82528338D01*
X123003475Y-82569907D01*
X123156093Y-82722525D01*
X123332894Y-82846323D01*
X123528507Y-82937539D01*
X123736987Y-82993401D01*
X123890567Y-83006837D01*
X123951998Y-83012212D01*
X123952000Y-83012212D01*
X123952002Y-83012212D01*
X124005753Y-83007509D01*
X124167013Y-82993401D01*
X124375493Y-82937539D01*
X124571106Y-82846323D01*
X124747907Y-82722525D01*
X124900525Y-82569907D01*
X125024323Y-82393106D01*
X125115539Y-82197493D01*
X125171401Y-81989013D01*
X125190212Y-81774001D01*
X131353788Y-81774001D01*
X131372598Y-81989007D01*
X131372600Y-81989018D01*
X131428458Y-82197485D01*
X131428460Y-82197489D01*
X131428461Y-82197493D01*
X131468288Y-82282902D01*
X131519676Y-82393105D01*
X131614368Y-82528338D01*
X131643475Y-82569907D01*
X131796093Y-82722525D01*
X131972894Y-82846323D01*
X132168507Y-82937539D01*
X132376987Y-82993401D01*
X132530567Y-83006837D01*
X132591998Y-83012212D01*
X132592000Y-83012212D01*
X132592002Y-83012212D01*
X132645753Y-83007509D01*
X132807013Y-82993401D01*
X133015493Y-82937539D01*
X133211106Y-82846323D01*
X133387907Y-82722525D01*
X133540525Y-82569907D01*
X133664323Y-82393106D01*
X133755539Y-82197493D01*
X133811401Y-81989013D01*
X133830212Y-81774000D01*
X133811401Y-81558987D01*
X133755539Y-81350507D01*
X133722663Y-81280005D01*
X135796844Y-81280005D01*
X135815434Y-81504359D01*
X135815436Y-81504371D01*
X135870703Y-81722614D01*
X135961140Y-81928792D01*
X136084276Y-82117265D01*
X136084284Y-82117276D01*
X136236756Y-82282902D01*
X136236761Y-82282907D01*
X136253583Y-82296000D01*
X136414424Y-82421189D01*
X136414425Y-82421189D01*
X136414427Y-82421191D01*
X136471254Y-82451944D01*
X136612426Y-82528342D01*
X136825365Y-82601444D01*
X137047431Y-82638500D01*
X137272569Y-82638500D01*
X137494635Y-82601444D01*
X137707574Y-82528342D01*
X137905576Y-82421189D01*
X138066417Y-82296000D01*
X141453496Y-82296000D01*
X141473458Y-82485928D01*
X141473459Y-82485931D01*
X141532470Y-82667549D01*
X141532473Y-82667556D01*
X141627960Y-82832944D01*
X141755747Y-82974866D01*
X141910248Y-83087118D01*
X142084712Y-83164794D01*
X142271513Y-83204500D01*
X142462487Y-83204500D01*
X142649288Y-83164794D01*
X142823752Y-83087118D01*
X142978253Y-82974866D01*
X143106040Y-82832944D01*
X143201527Y-82667556D01*
X143260542Y-82485928D01*
X143280504Y-82296000D01*
X143260542Y-82106072D01*
X143201527Y-81924444D01*
X143106040Y-81759056D01*
X142978253Y-81617134D01*
X142823752Y-81504882D01*
X142649288Y-81427206D01*
X142649286Y-81427205D01*
X142462487Y-81387500D01*
X142271513Y-81387500D01*
X142084714Y-81427205D01*
X142065086Y-81435944D01*
X141911403Y-81504368D01*
X141910246Y-81504883D01*
X141755745Y-81617135D01*
X141627959Y-81759057D01*
X141532473Y-81924443D01*
X141532470Y-81924450D01*
X141473459Y-82106068D01*
X141473458Y-82106072D01*
X141453496Y-82296000D01*
X138066417Y-82296000D01*
X138083240Y-82282906D01*
X138235722Y-82117268D01*
X138358860Y-81928791D01*
X138449296Y-81722616D01*
X138504564Y-81504368D01*
X138510958Y-81427205D01*
X138523156Y-81280005D01*
X138523156Y-81279994D01*
X138510768Y-81130500D01*
X144501496Y-81130500D01*
X144521458Y-81320428D01*
X144521459Y-81320431D01*
X144580470Y-81502049D01*
X144580473Y-81502056D01*
X144675960Y-81667444D01*
X144803747Y-81809366D01*
X144958248Y-81921618D01*
X145132712Y-81999294D01*
X145319513Y-82039000D01*
X145510487Y-82039000D01*
X145697288Y-81999294D01*
X145871752Y-81921618D01*
X146026253Y-81809366D01*
X146154040Y-81667444D01*
X146249527Y-81502056D01*
X146308542Y-81320428D01*
X146328504Y-81130500D01*
X146308542Y-80940572D01*
X146249527Y-80758944D01*
X146154040Y-80593556D01*
X146026253Y-80451634D01*
X145871752Y-80339382D01*
X145697288Y-80261706D01*
X145697286Y-80261705D01*
X145510487Y-80222000D01*
X145319513Y-80222000D01*
X145132714Y-80261705D01*
X144958246Y-80339383D01*
X144803745Y-80451635D01*
X144675959Y-80593557D01*
X144580473Y-80758943D01*
X144580470Y-80758950D01*
X144521459Y-80940568D01*
X144521458Y-80940572D01*
X144514529Y-81006500D01*
X144502192Y-81123882D01*
X144501496Y-81130500D01*
X138510768Y-81130500D01*
X138504565Y-81055640D01*
X138504563Y-81055628D01*
X138457570Y-80870057D01*
X138449296Y-80837384D01*
X138358860Y-80631209D01*
X138348846Y-80615882D01*
X138272157Y-80498500D01*
X138235722Y-80442732D01*
X138235719Y-80442729D01*
X138235715Y-80442723D01*
X138090510Y-80284991D01*
X138059587Y-80222337D01*
X138067447Y-80152911D01*
X138111594Y-80098755D01*
X138138405Y-80084827D01*
X138218584Y-80054920D01*
X138256204Y-80040889D01*
X138373261Y-79953261D01*
X138460889Y-79836204D01*
X138511989Y-79699201D01*
X138515591Y-79665692D01*
X138518499Y-79638654D01*
X138518500Y-79638637D01*
X138518500Y-77841362D01*
X138518499Y-77841345D01*
X138515157Y-77810270D01*
X138511989Y-77780799D01*
X138503855Y-77758992D01*
X138489522Y-77720564D01*
X138482411Y-77701500D01*
X144628496Y-77701500D01*
X144648458Y-77891428D01*
X144648459Y-77891431D01*
X144707470Y-78073049D01*
X144707473Y-78073056D01*
X144802960Y-78238444D01*
X144930747Y-78380366D01*
X145085248Y-78492618D01*
X145259712Y-78570294D01*
X145446513Y-78610000D01*
X145637487Y-78610000D01*
X145824288Y-78570294D01*
X145998752Y-78492618D01*
X146153253Y-78380366D01*
X146281040Y-78238444D01*
X146376527Y-78073056D01*
X146435542Y-77891428D01*
X146455504Y-77701500D01*
X146435542Y-77511572D01*
X146376527Y-77329944D01*
X146281040Y-77164556D01*
X146153253Y-77022634D01*
X145998752Y-76910382D01*
X145824288Y-76832706D01*
X145824286Y-76832705D01*
X145637487Y-76793000D01*
X145446513Y-76793000D01*
X145259714Y-76832705D01*
X145085246Y-76910383D01*
X144930745Y-77022635D01*
X144802959Y-77164557D01*
X144707473Y-77329943D01*
X144707470Y-77329950D01*
X144672002Y-77439111D01*
X144648458Y-77511572D01*
X144628496Y-77701500D01*
X138482411Y-77701500D01*
X138460889Y-77643796D01*
X138373261Y-77526739D01*
X138256204Y-77439111D01*
X138256204Y-77439110D01*
X138119203Y-77388011D01*
X138058654Y-77381500D01*
X138058638Y-77381500D01*
X136261362Y-77381500D01*
X136261345Y-77381500D01*
X136200797Y-77388011D01*
X136200795Y-77388011D01*
X136063795Y-77439111D01*
X135946739Y-77526739D01*
X135859111Y-77643795D01*
X135808011Y-77780795D01*
X135808011Y-77780797D01*
X135801500Y-77841345D01*
X135801500Y-79638654D01*
X135808011Y-79699202D01*
X135808011Y-79699204D01*
X135859110Y-79836204D01*
X135859111Y-79836204D01*
X135946739Y-79953261D01*
X136063796Y-80040889D01*
X136115737Y-80060262D01*
X136181595Y-80084827D01*
X136237528Y-80126699D01*
X136261944Y-80192163D01*
X136247092Y-80260436D01*
X136229490Y-80284991D01*
X136084279Y-80442730D01*
X136084276Y-80442734D01*
X135961140Y-80631207D01*
X135870703Y-80837385D01*
X135815436Y-81055628D01*
X135815434Y-81055640D01*
X135796844Y-81279994D01*
X135796844Y-81280005D01*
X133722663Y-81280005D01*
X133664323Y-81154894D01*
X133540525Y-80978093D01*
X133387907Y-80825475D01*
X133387907Y-80825474D01*
X133211105Y-80701676D01*
X133106186Y-80652752D01*
X133015493Y-80610461D01*
X133015489Y-80610460D01*
X133015485Y-80610458D01*
X132807018Y-80554600D01*
X132807014Y-80554599D01*
X132807013Y-80554599D01*
X132807012Y-80554598D01*
X132807007Y-80554598D01*
X132592002Y-80535788D01*
X132591998Y-80535788D01*
X132376992Y-80554598D01*
X132376981Y-80554600D01*
X132168514Y-80610458D01*
X132168505Y-80610462D01*
X131972894Y-80701676D01*
X131796092Y-80825475D01*
X131643475Y-80978092D01*
X131519676Y-81154894D01*
X131428462Y-81350505D01*
X131428458Y-81350514D01*
X131372600Y-81558981D01*
X131372598Y-81558992D01*
X131353788Y-81773998D01*
X131353788Y-81774001D01*
X125190212Y-81774001D01*
X125190212Y-81774000D01*
X125171401Y-81558987D01*
X125115539Y-81350507D01*
X125024323Y-81154894D01*
X124900525Y-80978093D01*
X124747907Y-80825475D01*
X124747906Y-80825474D01*
X124571105Y-80701676D01*
X124466186Y-80652752D01*
X124375493Y-80610461D01*
X124375489Y-80610460D01*
X124375485Y-80610458D01*
X124167018Y-80554600D01*
X124167014Y-80554599D01*
X124167013Y-80554599D01*
X124167012Y-80554598D01*
X124167007Y-80554598D01*
X123952002Y-80535788D01*
X123951998Y-80535788D01*
X123736992Y-80554598D01*
X123736981Y-80554600D01*
X123528514Y-80610458D01*
X123528505Y-80610462D01*
X123332894Y-80701676D01*
X123156092Y-80825475D01*
X123003475Y-80978092D01*
X122879676Y-81154894D01*
X122788462Y-81350505D01*
X122788458Y-81350514D01*
X122732600Y-81558981D01*
X122732598Y-81558992D01*
X122713788Y-81773998D01*
X122713788Y-81774001D01*
X121792087Y-81774001D01*
X121821288Y-81767794D01*
X121995752Y-81690118D01*
X122150253Y-81577866D01*
X122278040Y-81435944D01*
X122373527Y-81270556D01*
X122432542Y-81088928D01*
X122452504Y-80899000D01*
X122432542Y-80709072D01*
X122373527Y-80527444D01*
X122278040Y-80362056D01*
X122150253Y-80220134D01*
X121995752Y-80107882D01*
X121821288Y-80030206D01*
X121821286Y-80030205D01*
X121634487Y-79990500D01*
X121443513Y-79990500D01*
X121256714Y-80030205D01*
X121232720Y-80040888D01*
X121103321Y-80098500D01*
X121082246Y-80107883D01*
X120927745Y-80220135D01*
X120799960Y-80362055D01*
X120714602Y-80509899D01*
X120664035Y-80558114D01*
X120595427Y-80571336D01*
X120530563Y-80545368D01*
X120503408Y-80515721D01*
X120455722Y-80442732D01*
X120455717Y-80442727D01*
X120455715Y-80442723D01*
X120310510Y-80284991D01*
X120279587Y-80222337D01*
X120287447Y-80152911D01*
X120331594Y-80098755D01*
X120358405Y-80084827D01*
X120438584Y-80054920D01*
X120476204Y-80040889D01*
X120593261Y-79953261D01*
X120680889Y-79836204D01*
X120731989Y-79699201D01*
X120735591Y-79665692D01*
X120738499Y-79638654D01*
X120738499Y-79638647D01*
X120738500Y-79638638D01*
X120738500Y-77974001D01*
X122713788Y-77974001D01*
X122732598Y-78189007D01*
X122732600Y-78189018D01*
X122788458Y-78397485D01*
X122788460Y-78397489D01*
X122788461Y-78397493D01*
X122798010Y-78417970D01*
X122879676Y-78593105D01*
X122879677Y-78593106D01*
X123003475Y-78769907D01*
X123156093Y-78922525D01*
X123332894Y-79046323D01*
X123528507Y-79137539D01*
X123736987Y-79193401D01*
X123890567Y-79206837D01*
X123951998Y-79212212D01*
X123952000Y-79212212D01*
X123952002Y-79212212D01*
X124005753Y-79207509D01*
X124167013Y-79193401D01*
X124375493Y-79137539D01*
X124571106Y-79046323D01*
X124747907Y-78922525D01*
X124900525Y-78769907D01*
X125024323Y-78593106D01*
X125115539Y-78397493D01*
X125171401Y-78189013D01*
X125190212Y-77974001D01*
X131353788Y-77974001D01*
X131372598Y-78189007D01*
X131372600Y-78189018D01*
X131428458Y-78397485D01*
X131428460Y-78397489D01*
X131428461Y-78397493D01*
X131438010Y-78417970D01*
X131519676Y-78593105D01*
X131519677Y-78593106D01*
X131643475Y-78769907D01*
X131796093Y-78922525D01*
X131972894Y-79046323D01*
X132168507Y-79137539D01*
X132376987Y-79193401D01*
X132530567Y-79206837D01*
X132591998Y-79212212D01*
X132592000Y-79212212D01*
X132592002Y-79212212D01*
X132645753Y-79207509D01*
X132807013Y-79193401D01*
X133015493Y-79137539D01*
X133211106Y-79046323D01*
X133387907Y-78922525D01*
X133540525Y-78769907D01*
X133664323Y-78593106D01*
X133722033Y-78469345D01*
X133768205Y-78416906D01*
X133835398Y-78397754D01*
X133902280Y-78417970D01*
X133907297Y-78421429D01*
X134036248Y-78515118D01*
X134210712Y-78592794D01*
X134397513Y-78632500D01*
X134588487Y-78632500D01*
X134775288Y-78592794D01*
X134949752Y-78515118D01*
X135104253Y-78402866D01*
X135232040Y-78260944D01*
X135327527Y-78095556D01*
X135386542Y-77913928D01*
X135406504Y-77724000D01*
X135386542Y-77534072D01*
X135331495Y-77364658D01*
X135327529Y-77352450D01*
X135327528Y-77352449D01*
X135327527Y-77352444D01*
X135232040Y-77187056D01*
X135104253Y-77045134D01*
X134949752Y-76932882D01*
X134775288Y-76855206D01*
X134775286Y-76855205D01*
X134588487Y-76815500D01*
X134397513Y-76815500D01*
X134210714Y-76855205D01*
X134036246Y-76932883D01*
X133881745Y-77045135D01*
X133753956Y-77187060D01*
X133750642Y-77191621D01*
X133695308Y-77234281D01*
X133625694Y-77240254D01*
X133563902Y-77207642D01*
X133548757Y-77189849D01*
X133540525Y-77178093D01*
X133387907Y-77025475D01*
X133255671Y-76932882D01*
X133211105Y-76901676D01*
X133063195Y-76832705D01*
X133015493Y-76810461D01*
X133015489Y-76810460D01*
X133015485Y-76810458D01*
X132807018Y-76754600D01*
X132807014Y-76754599D01*
X132807013Y-76754599D01*
X132807012Y-76754598D01*
X132807007Y-76754598D01*
X132592002Y-76735788D01*
X132591998Y-76735788D01*
X132376992Y-76754598D01*
X132376981Y-76754600D01*
X132168514Y-76810458D01*
X132168505Y-76810462D01*
X131972894Y-76901676D01*
X131796092Y-77025475D01*
X131643475Y-77178092D01*
X131519676Y-77354894D01*
X131428462Y-77550505D01*
X131428458Y-77550514D01*
X131372600Y-77758981D01*
X131372598Y-77758992D01*
X131353788Y-77973998D01*
X131353788Y-77974001D01*
X125190212Y-77974001D01*
X125190212Y-77974000D01*
X125171401Y-77758987D01*
X125115539Y-77550507D01*
X125024323Y-77354894D01*
X124900525Y-77178093D01*
X124747907Y-77025475D01*
X124615671Y-76932882D01*
X124571105Y-76901676D01*
X124423195Y-76832705D01*
X124375493Y-76810461D01*
X124375489Y-76810460D01*
X124375485Y-76810458D01*
X124167018Y-76754600D01*
X124167014Y-76754599D01*
X124167013Y-76754599D01*
X124167012Y-76754598D01*
X124167007Y-76754598D01*
X123952002Y-76735788D01*
X123951998Y-76735788D01*
X123736992Y-76754598D01*
X123736981Y-76754600D01*
X123528514Y-76810458D01*
X123528505Y-76810462D01*
X123332894Y-76901676D01*
X123156092Y-77025475D01*
X123003475Y-77178092D01*
X122879676Y-77354894D01*
X122788462Y-77550505D01*
X122788458Y-77550514D01*
X122732600Y-77758981D01*
X122732598Y-77758992D01*
X122713788Y-77973998D01*
X122713788Y-77974001D01*
X120738500Y-77974001D01*
X120738500Y-77841362D01*
X120738499Y-77841352D01*
X120738499Y-77841345D01*
X120735157Y-77810270D01*
X120731989Y-77780799D01*
X120723855Y-77758992D01*
X120709522Y-77720564D01*
X120680889Y-77643796D01*
X120593261Y-77526739D01*
X120476204Y-77439111D01*
X120476203Y-77439110D01*
X120339203Y-77388011D01*
X120278654Y-77381500D01*
X120278638Y-77381500D01*
X118481362Y-77381500D01*
X118481345Y-77381500D01*
X118420797Y-77388011D01*
X118420795Y-77388011D01*
X118283795Y-77439111D01*
X118166739Y-77526739D01*
X118079111Y-77643795D01*
X118028011Y-77780795D01*
X118028011Y-77780797D01*
X118021500Y-77841345D01*
X118021500Y-79638654D01*
X118028011Y-79699202D01*
X118028011Y-79699204D01*
X118079110Y-79836204D01*
X118079111Y-79836204D01*
X118166739Y-79953261D01*
X118283796Y-80040889D01*
X118335737Y-80060262D01*
X118401595Y-80084827D01*
X118457528Y-80126699D01*
X118481944Y-80192163D01*
X118467092Y-80260436D01*
X118449490Y-80284991D01*
X118304279Y-80442730D01*
X118304276Y-80442734D01*
X118181140Y-80631207D01*
X118090703Y-80837385D01*
X118035436Y-81055628D01*
X118035434Y-81055640D01*
X118016844Y-81279994D01*
X118016844Y-81280005D01*
X106187755Y-81280005D01*
X106148253Y-81236134D01*
X105993752Y-81123882D01*
X105819288Y-81046206D01*
X105819286Y-81046205D01*
X105632487Y-81006500D01*
X105441513Y-81006500D01*
X105254714Y-81046205D01*
X105080246Y-81123883D01*
X104925745Y-81236135D01*
X104797959Y-81378057D01*
X104702473Y-81543443D01*
X104702470Y-81543450D01*
X104644256Y-81722616D01*
X104643458Y-81725072D01*
X104623496Y-81915000D01*
X102736751Y-81915000D01*
X102815527Y-81778556D01*
X102874542Y-81596928D01*
X102894504Y-81407000D01*
X102874542Y-81217072D01*
X102815527Y-81035444D01*
X102720040Y-80870056D01*
X102592253Y-80728134D01*
X102437752Y-80615882D01*
X102263288Y-80538206D01*
X102263286Y-80538205D01*
X102076487Y-80498500D01*
X101885513Y-80498500D01*
X101698713Y-80538205D01*
X101698710Y-80538206D01*
X101647934Y-80560813D01*
X101578684Y-80570097D01*
X101515408Y-80540468D01*
X101478195Y-80481332D01*
X101473500Y-80447533D01*
X101473500Y-79841500D01*
X114783496Y-79841500D01*
X114803458Y-80031428D01*
X114803459Y-80031431D01*
X114862470Y-80213049D01*
X114862473Y-80213056D01*
X114957960Y-80378444D01*
X115085747Y-80520366D01*
X115240248Y-80632618D01*
X115414712Y-80710294D01*
X115601513Y-80750000D01*
X115792487Y-80750000D01*
X115979288Y-80710294D01*
X116153752Y-80632618D01*
X116308253Y-80520366D01*
X116436040Y-80378444D01*
X116531527Y-80213056D01*
X116590542Y-80031428D01*
X116610504Y-79841500D01*
X116590542Y-79651572D01*
X116531527Y-79469944D01*
X116436040Y-79304556D01*
X116308253Y-79162634D01*
X116153752Y-79050382D01*
X115979288Y-78972706D01*
X115979286Y-78972705D01*
X115792487Y-78933000D01*
X115601513Y-78933000D01*
X115414714Y-78972705D01*
X115240246Y-79050383D01*
X115085745Y-79162635D01*
X114957959Y-79304557D01*
X114862473Y-79469943D01*
X114862470Y-79469950D01*
X114807655Y-79638654D01*
X114803458Y-79651572D01*
X114783496Y-79841500D01*
X101473500Y-79841500D01*
X101473500Y-77892500D01*
X113637994Y-77892500D01*
X113657956Y-78082428D01*
X113657957Y-78082431D01*
X113716968Y-78264049D01*
X113716971Y-78264056D01*
X113812458Y-78429444D01*
X113940245Y-78571366D01*
X114094746Y-78683618D01*
X114269210Y-78761294D01*
X114456011Y-78801000D01*
X114646985Y-78801000D01*
X114833786Y-78761294D01*
X115008250Y-78683618D01*
X115162751Y-78571366D01*
X115290538Y-78429444D01*
X115386025Y-78264056D01*
X115445040Y-78082428D01*
X115465002Y-77892500D01*
X115445040Y-77702572D01*
X115386025Y-77520944D01*
X115290538Y-77355556D01*
X115162751Y-77213634D01*
X115008250Y-77101382D01*
X114833786Y-77023706D01*
X114833784Y-77023705D01*
X114646985Y-76984000D01*
X114456011Y-76984000D01*
X114269212Y-77023705D01*
X114094744Y-77101383D01*
X113940243Y-77213635D01*
X113812457Y-77355557D01*
X113716971Y-77520943D01*
X113716968Y-77520950D01*
X113658304Y-77701500D01*
X113657956Y-77702572D01*
X113637994Y-77892500D01*
X101473500Y-77892500D01*
X101473500Y-75308500D01*
X101493185Y-75241461D01*
X101545989Y-75195706D01*
X101597500Y-75184500D01*
X115863851Y-75184500D01*
X115930890Y-75204185D01*
G37*
%TD.AperFunction*%
%TD*%
M02*
