%TF.GenerationSoftware,KiCad,Pcbnew,7.0.9*%
%TF.CreationDate,2024-02-01T17:40:57-07:00*%
%TF.ProjectId,Breadboard Power Supply,42726561-6462-46f6-9172-6420506f7765,v10*%
%TF.SameCoordinates,Original*%
%TF.FileFunction,Copper,L2,Inr*%
%TF.FilePolarity,Positive*%
%FSLAX46Y46*%
G04 Gerber Fmt 4.6, Leading zero omitted, Abs format (unit mm)*
G04 Created by KiCad (PCBNEW 7.0.9) date 2024-02-01 17:40:57*
%MOMM*%
%LPD*%
G01*
G04 APERTURE LIST*
%TA.AperFunction,ComponentPad*%
%ADD10C,1.830000*%
%TD*%
%TA.AperFunction,ComponentPad*%
%ADD11R,1.700000X1.700000*%
%TD*%
%TA.AperFunction,ComponentPad*%
%ADD12O,1.700000X1.700000*%
%TD*%
%TA.AperFunction,ComponentPad*%
%ADD13C,1.450000*%
%TD*%
%TA.AperFunction,ViaPad*%
%ADD14C,0.800000*%
%TD*%
G04 APERTURE END LIST*
D10*
%TO.N,GND*%
%TO.C,TP1*%
X103759000Y-102638000D03*
X108839000Y-102638000D03*
%TD*%
D11*
%TO.N,+1V8*%
%TO.C,J4*%
X151130000Y-87630000D03*
D12*
%TO.N,/TOP_POWER_RAIL*%
X153670000Y-87630000D03*
%TO.N,+3.3V*%
X151130000Y-90170000D03*
%TO.N,/TOP_POWER_RAIL*%
X153670000Y-90170000D03*
%TO.N,VBUS*%
X151130000Y-92710000D03*
%TO.N,/TOP_POWER_RAIL*%
X153670000Y-92710000D03*
%TO.N,+12V*%
X151130000Y-95250000D03*
%TO.N,/TOP_POWER_RAIL*%
X153670000Y-95250000D03*
%TD*%
D13*
%TO.N,GND*%
%TO.C,J1*%
X132592000Y-77974000D03*
X123952000Y-77974000D03*
X132592000Y-81774000D03*
X123952000Y-81774000D03*
%TD*%
D11*
%TO.N,/BOTTOM_POWER_RAIL*%
%TO.C,J5*%
X102870000Y-87630000D03*
D12*
%TO.N,+1V8*%
X105410000Y-87630000D03*
%TO.N,/BOTTOM_POWER_RAIL*%
X102870000Y-90170000D03*
%TO.N,+3.3V*%
X105410000Y-90170000D03*
%TO.N,/BOTTOM_POWER_RAIL*%
X102870000Y-92710000D03*
%TO.N,VBUS*%
X105410000Y-92710000D03*
%TO.N,/BOTTOM_POWER_RAIL*%
X102870000Y-95250000D03*
%TO.N,+12V*%
X105410000Y-95250000D03*
%TD*%
D10*
%TO.N,GND*%
%TO.C,TP4*%
X147701000Y-102638000D03*
X152781000Y-102638000D03*
%TD*%
D11*
%TO.N,GND*%
%TO.C,J10*%
X114300000Y-78740000D03*
D12*
X114300000Y-81280000D03*
%TD*%
D11*
%TO.N,/TOP_POWER_RAIL*%
%TO.C,J8*%
X151384000Y-99060000D03*
D12*
%TO.N,GND*%
X148844000Y-99060000D03*
%TD*%
D11*
%TO.N,GND*%
%TO.C,J11*%
X142240000Y-78740000D03*
D12*
X142240000Y-81280000D03*
%TD*%
D11*
%TO.N,/BOTTOM_POWER_RAIL*%
%TO.C,J9*%
X107696000Y-99060000D03*
D12*
%TO.N,GND*%
X105156000Y-99060000D03*
%TD*%
D14*
%TO.N,GND*%
X149987000Y-81153000D03*
X140081000Y-76666500D03*
X111379000Y-82169000D03*
X117983000Y-82423000D03*
X136271000Y-81661000D03*
X105283000Y-85217000D03*
X109855000Y-83947000D03*
X127381000Y-78613000D03*
X101981000Y-85217000D03*
%TO.N,+1V8*%
X112141000Y-77343000D03*
%TO.N,+12V*%
X119253000Y-77089000D03*
X108458000Y-88773000D03*
%TO.N,VBUS*%
X129866751Y-83088500D03*
X110617000Y-76581000D03*
X134239000Y-78867000D03*
X148971000Y-80645000D03*
X126365000Y-83439000D03*
X107061000Y-85217000D03*
%TO.N,Net-(D1-A2)*%
X125603000Y-79883000D03*
%TD*%
%TA.AperFunction,Conductor*%
%TO.N,VBUS*%
G36*
X155009539Y-75204185D02*
G01*
X155055294Y-75256989D01*
X155066500Y-75308500D01*
X155066500Y-86867210D01*
X155046815Y-86934249D01*
X154994011Y-86980004D01*
X154924853Y-86989948D01*
X154861297Y-86960923D01*
X154838692Y-86935032D01*
X154745723Y-86792734D01*
X154745715Y-86792723D01*
X154593243Y-86627097D01*
X154593238Y-86627092D01*
X154415577Y-86488812D01*
X154415572Y-86488808D01*
X154217580Y-86381661D01*
X154217577Y-86381659D01*
X154217574Y-86381658D01*
X154217571Y-86381657D01*
X154217569Y-86381656D01*
X154004637Y-86308556D01*
X153782569Y-86271500D01*
X153557431Y-86271500D01*
X153335362Y-86308556D01*
X153122430Y-86381656D01*
X153122419Y-86381661D01*
X152924427Y-86488808D01*
X152924422Y-86488812D01*
X152746761Y-86627092D01*
X152683548Y-86695760D01*
X152623661Y-86731750D01*
X152553823Y-86729649D01*
X152496207Y-86690124D01*
X152476138Y-86655110D01*
X152430889Y-86533796D01*
X152397214Y-86488812D01*
X152343261Y-86416739D01*
X152226204Y-86329111D01*
X152191141Y-86316033D01*
X152089203Y-86278011D01*
X152028654Y-86271500D01*
X152028638Y-86271500D01*
X150231362Y-86271500D01*
X150231345Y-86271500D01*
X150170797Y-86278011D01*
X150170795Y-86278011D01*
X150033795Y-86329111D01*
X149916739Y-86416739D01*
X149829111Y-86533795D01*
X149778011Y-86670795D01*
X149778011Y-86670797D01*
X149771500Y-86731345D01*
X149771500Y-88528654D01*
X149778011Y-88589202D01*
X149778011Y-88589204D01*
X149829111Y-88726204D01*
X149916739Y-88843261D01*
X150033796Y-88930889D01*
X150085737Y-88950262D01*
X150151595Y-88974827D01*
X150207528Y-89016699D01*
X150231944Y-89082163D01*
X150217092Y-89150436D01*
X150199490Y-89174991D01*
X150054279Y-89332730D01*
X150054276Y-89332734D01*
X149931140Y-89521207D01*
X149840703Y-89727385D01*
X149785436Y-89945628D01*
X149785434Y-89945640D01*
X149766844Y-90169994D01*
X149766844Y-90170005D01*
X149785434Y-90394359D01*
X149785436Y-90394371D01*
X149840703Y-90612614D01*
X149931140Y-90818792D01*
X150054276Y-91007265D01*
X150054284Y-91007276D01*
X150206756Y-91172902D01*
X150206760Y-91172906D01*
X150384424Y-91311189D01*
X150420930Y-91330945D01*
X150427695Y-91334606D01*
X150477286Y-91383825D01*
X150492394Y-91452042D01*
X150468224Y-91517597D01*
X150439802Y-91545236D01*
X150258922Y-91671890D01*
X150258920Y-91671891D01*
X150091891Y-91838920D01*
X150091886Y-91838926D01*
X149956400Y-92032420D01*
X149956399Y-92032422D01*
X149856570Y-92246507D01*
X149856567Y-92246513D01*
X149799364Y-92459999D01*
X149799364Y-92460000D01*
X150696314Y-92460000D01*
X150670507Y-92500156D01*
X150630000Y-92638111D01*
X150630000Y-92781889D01*
X150670507Y-92919844D01*
X150696314Y-92960000D01*
X149799364Y-92960000D01*
X149856567Y-93173486D01*
X149856570Y-93173492D01*
X149956399Y-93387578D01*
X150091894Y-93581082D01*
X150258917Y-93748105D01*
X150439802Y-93874763D01*
X150483427Y-93929340D01*
X150490619Y-93998839D01*
X150459097Y-94061193D01*
X150427697Y-94085392D01*
X150384427Y-94108809D01*
X150384422Y-94108812D01*
X150206761Y-94247092D01*
X150206756Y-94247097D01*
X150054284Y-94412723D01*
X150054276Y-94412734D01*
X149931140Y-94601207D01*
X149840703Y-94807385D01*
X149785436Y-95025628D01*
X149785434Y-95025640D01*
X149766844Y-95249994D01*
X149766844Y-95250005D01*
X149785434Y-95474359D01*
X149785436Y-95474371D01*
X149840703Y-95692614D01*
X149931140Y-95898792D01*
X150054276Y-96087265D01*
X150054284Y-96087276D01*
X150206756Y-96252902D01*
X150206760Y-96252906D01*
X150384424Y-96391189D01*
X150384425Y-96391189D01*
X150384427Y-96391191D01*
X150511135Y-96459761D01*
X150582426Y-96498342D01*
X150795365Y-96571444D01*
X151017431Y-96608500D01*
X151242569Y-96608500D01*
X151464635Y-96571444D01*
X151677574Y-96498342D01*
X151875576Y-96391189D01*
X152053240Y-96252906D01*
X152205722Y-96087268D01*
X152296193Y-95948790D01*
X152349338Y-95903437D01*
X152418569Y-95894013D01*
X152481905Y-95923515D01*
X152503804Y-95948787D01*
X152594278Y-96087268D01*
X152594283Y-96087273D01*
X152594284Y-96087276D01*
X152746756Y-96252902D01*
X152746760Y-96252906D01*
X152924424Y-96391189D01*
X152924425Y-96391189D01*
X152924427Y-96391191D01*
X153051135Y-96459761D01*
X153122426Y-96498342D01*
X153335365Y-96571444D01*
X153557431Y-96608500D01*
X153782569Y-96608500D01*
X154004635Y-96571444D01*
X154217574Y-96498342D01*
X154415576Y-96391189D01*
X154593240Y-96252906D01*
X154745722Y-96087268D01*
X154838692Y-95944965D01*
X154891838Y-95899611D01*
X154961069Y-95890187D01*
X155024405Y-95919689D01*
X155061736Y-95978750D01*
X155066500Y-96012789D01*
X155066500Y-103888500D01*
X155046815Y-103955539D01*
X154994011Y-104001294D01*
X154942500Y-104012500D01*
X153693844Y-104012500D01*
X153626805Y-103992815D01*
X153581050Y-103940011D01*
X153571106Y-103870853D01*
X153600131Y-103807297D01*
X153617681Y-103790647D01*
X153635817Y-103776530D01*
X153748415Y-103688893D01*
X153908192Y-103515329D01*
X154037222Y-103317833D01*
X154131985Y-103101794D01*
X154189898Y-102873103D01*
X154209379Y-102638000D01*
X154189898Y-102402897D01*
X154131985Y-102174206D01*
X154037222Y-101958167D01*
X153908194Y-101760673D01*
X153880620Y-101730719D01*
X153748415Y-101587107D01*
X153748410Y-101587103D01*
X153748407Y-101587100D01*
X153562257Y-101442214D01*
X153562246Y-101442207D01*
X153354779Y-101329932D01*
X153354776Y-101329931D01*
X153354773Y-101329929D01*
X153354767Y-101329927D01*
X153354765Y-101329926D01*
X153131648Y-101253329D01*
X152898955Y-101214500D01*
X152663045Y-101214500D01*
X152430351Y-101253329D01*
X152207234Y-101329926D01*
X152207220Y-101329932D01*
X151999753Y-101442207D01*
X151999742Y-101442214D01*
X151813592Y-101587100D01*
X151813582Y-101587110D01*
X151653805Y-101760673D01*
X151524777Y-101958167D01*
X151430015Y-102174206D01*
X151372102Y-102402896D01*
X151372100Y-102402904D01*
X151352621Y-102637994D01*
X151352621Y-102638005D01*
X151372100Y-102873095D01*
X151372102Y-102873103D01*
X151430015Y-103101793D01*
X151524777Y-103317832D01*
X151653805Y-103515326D01*
X151653808Y-103515329D01*
X151813585Y-103688893D01*
X151907889Y-103762293D01*
X151944319Y-103790647D01*
X151985132Y-103847357D01*
X151988806Y-103917130D01*
X151954174Y-103977813D01*
X151892233Y-104010140D01*
X151868156Y-104012500D01*
X148613844Y-104012500D01*
X148546805Y-103992815D01*
X148501050Y-103940011D01*
X148491106Y-103870853D01*
X148520131Y-103807297D01*
X148537681Y-103790647D01*
X148555817Y-103776530D01*
X148668415Y-103688893D01*
X148828192Y-103515329D01*
X148957222Y-103317833D01*
X149051985Y-103101794D01*
X149109898Y-102873103D01*
X149129379Y-102638000D01*
X149109898Y-102402897D01*
X149051985Y-102174206D01*
X148957222Y-101958167D01*
X148828194Y-101760673D01*
X148800620Y-101730719D01*
X148668415Y-101587107D01*
X148668410Y-101587103D01*
X148668407Y-101587100D01*
X148482257Y-101442214D01*
X148482246Y-101442207D01*
X148274779Y-101329932D01*
X148274776Y-101329931D01*
X148274773Y-101329929D01*
X148274767Y-101329927D01*
X148274765Y-101329926D01*
X148051648Y-101253329D01*
X147818955Y-101214500D01*
X147583045Y-101214500D01*
X147350351Y-101253329D01*
X147127234Y-101329926D01*
X147127220Y-101329932D01*
X146919753Y-101442207D01*
X146919742Y-101442214D01*
X146733592Y-101587100D01*
X146733582Y-101587110D01*
X146573805Y-101760673D01*
X146444777Y-101958167D01*
X146350015Y-102174206D01*
X146292102Y-102402896D01*
X146292100Y-102402904D01*
X146272621Y-102637994D01*
X146272621Y-102638005D01*
X146292100Y-102873095D01*
X146292102Y-102873103D01*
X146350015Y-103101793D01*
X146444777Y-103317832D01*
X146573805Y-103515326D01*
X146573808Y-103515329D01*
X146733585Y-103688893D01*
X146827889Y-103762293D01*
X146864319Y-103790647D01*
X146905132Y-103847357D01*
X146908806Y-103917130D01*
X146874174Y-103977813D01*
X146812233Y-104010140D01*
X146788156Y-104012500D01*
X145920500Y-104012500D01*
X145853461Y-103992815D01*
X145807706Y-103940011D01*
X145796500Y-103888500D01*
X145796500Y-99060005D01*
X147480844Y-99060005D01*
X147499434Y-99284359D01*
X147499436Y-99284371D01*
X147554703Y-99502614D01*
X147645140Y-99708792D01*
X147768276Y-99897265D01*
X147768284Y-99897276D01*
X147894967Y-100034888D01*
X147920760Y-100062906D01*
X148098424Y-100201189D01*
X148098425Y-100201189D01*
X148098427Y-100201191D01*
X148225135Y-100269761D01*
X148296426Y-100308342D01*
X148509365Y-100381444D01*
X148731431Y-100418500D01*
X148956569Y-100418500D01*
X149178635Y-100381444D01*
X149391574Y-100308342D01*
X149589576Y-100201189D01*
X149767240Y-100062906D01*
X149830452Y-99994239D01*
X149890337Y-99958250D01*
X149960175Y-99960349D01*
X150017791Y-99999873D01*
X150037861Y-100034888D01*
X150083111Y-100156204D01*
X150170739Y-100273261D01*
X150287796Y-100360889D01*
X150424799Y-100411989D01*
X150452050Y-100414918D01*
X150485345Y-100418499D01*
X150485362Y-100418500D01*
X152282638Y-100418500D01*
X152282654Y-100418499D01*
X152309692Y-100415591D01*
X152343201Y-100411989D01*
X152480204Y-100360889D01*
X152597261Y-100273261D01*
X152684889Y-100156204D01*
X152735989Y-100019201D01*
X152739591Y-99985692D01*
X152742499Y-99958654D01*
X152742500Y-99958637D01*
X152742500Y-98161362D01*
X152742499Y-98161345D01*
X152738672Y-98125759D01*
X152735989Y-98100799D01*
X152684889Y-97963796D01*
X152597261Y-97846739D01*
X152480204Y-97759111D01*
X152343203Y-97708011D01*
X152282654Y-97701500D01*
X152282638Y-97701500D01*
X150485362Y-97701500D01*
X150485345Y-97701500D01*
X150424797Y-97708011D01*
X150424795Y-97708011D01*
X150287795Y-97759111D01*
X150170739Y-97846739D01*
X150083111Y-97963795D01*
X150037861Y-98085111D01*
X149995989Y-98141044D01*
X149930524Y-98165460D01*
X149862252Y-98150607D01*
X149830454Y-98125762D01*
X149767240Y-98057094D01*
X149589576Y-97918811D01*
X149589575Y-97918810D01*
X149589572Y-97918808D01*
X149391580Y-97811661D01*
X149391577Y-97811659D01*
X149391574Y-97811658D01*
X149391571Y-97811657D01*
X149391569Y-97811656D01*
X149178637Y-97738556D01*
X148956569Y-97701500D01*
X148731431Y-97701500D01*
X148509362Y-97738556D01*
X148296430Y-97811656D01*
X148296419Y-97811661D01*
X148098427Y-97918808D01*
X148098422Y-97918812D01*
X147920761Y-98057092D01*
X147920756Y-98057097D01*
X147768284Y-98222723D01*
X147768276Y-98222734D01*
X147645140Y-98411207D01*
X147554703Y-98617385D01*
X147499436Y-98835628D01*
X147499434Y-98835640D01*
X147480844Y-99059994D01*
X147480844Y-99060005D01*
X145796500Y-99060005D01*
X145796500Y-85114759D01*
X145796528Y-85114616D01*
X145796524Y-85114616D01*
X145796539Y-85090002D01*
X145796541Y-85090000D01*
X145796462Y-85089808D01*
X145796384Y-85089618D01*
X145796382Y-85089616D01*
X145796099Y-85089500D01*
X145796000Y-85089459D01*
X145771446Y-85089459D01*
X145771240Y-85089500D01*
X110768760Y-85089500D01*
X110768554Y-85089459D01*
X110744000Y-85089459D01*
X110743901Y-85089500D01*
X110743617Y-85089616D01*
X110743615Y-85089618D01*
X110743459Y-85089999D01*
X110743476Y-85114616D01*
X110743471Y-85114616D01*
X110743500Y-85114759D01*
X110743500Y-103888500D01*
X110723815Y-103955539D01*
X110671011Y-104001294D01*
X110619500Y-104012500D01*
X109751844Y-104012500D01*
X109684805Y-103992815D01*
X109639050Y-103940011D01*
X109629106Y-103870853D01*
X109658131Y-103807297D01*
X109675681Y-103790647D01*
X109693817Y-103776530D01*
X109806415Y-103688893D01*
X109966192Y-103515329D01*
X110095222Y-103317833D01*
X110189985Y-103101794D01*
X110247898Y-102873103D01*
X110267379Y-102638000D01*
X110247898Y-102402897D01*
X110189985Y-102174206D01*
X110095222Y-101958167D01*
X109966194Y-101760673D01*
X109938620Y-101730719D01*
X109806415Y-101587107D01*
X109806410Y-101587103D01*
X109806407Y-101587100D01*
X109620257Y-101442214D01*
X109620246Y-101442207D01*
X109412779Y-101329932D01*
X109412776Y-101329931D01*
X109412773Y-101329929D01*
X109412767Y-101329927D01*
X109412765Y-101329926D01*
X109189648Y-101253329D01*
X108956955Y-101214500D01*
X108721045Y-101214500D01*
X108488351Y-101253329D01*
X108265234Y-101329926D01*
X108265220Y-101329932D01*
X108057753Y-101442207D01*
X108057742Y-101442214D01*
X107871592Y-101587100D01*
X107871582Y-101587110D01*
X107711805Y-101760673D01*
X107582777Y-101958167D01*
X107488015Y-102174206D01*
X107430102Y-102402896D01*
X107430100Y-102402904D01*
X107410621Y-102637994D01*
X107410621Y-102638005D01*
X107430100Y-102873095D01*
X107430102Y-102873103D01*
X107488015Y-103101793D01*
X107582777Y-103317832D01*
X107711805Y-103515326D01*
X107711808Y-103515329D01*
X107871585Y-103688893D01*
X107965889Y-103762293D01*
X108002319Y-103790647D01*
X108043132Y-103847357D01*
X108046806Y-103917130D01*
X108012174Y-103977813D01*
X107950233Y-104010140D01*
X107926156Y-104012500D01*
X104671844Y-104012500D01*
X104604805Y-103992815D01*
X104559050Y-103940011D01*
X104549106Y-103870853D01*
X104578131Y-103807297D01*
X104595681Y-103790647D01*
X104613817Y-103776530D01*
X104726415Y-103688893D01*
X104886192Y-103515329D01*
X105015222Y-103317833D01*
X105109985Y-103101794D01*
X105167898Y-102873103D01*
X105187379Y-102638000D01*
X105167898Y-102402897D01*
X105109985Y-102174206D01*
X105015222Y-101958167D01*
X104886194Y-101760673D01*
X104858620Y-101730719D01*
X104726415Y-101587107D01*
X104726410Y-101587103D01*
X104726407Y-101587100D01*
X104540257Y-101442214D01*
X104540246Y-101442207D01*
X104332779Y-101329932D01*
X104332776Y-101329931D01*
X104332773Y-101329929D01*
X104332767Y-101329927D01*
X104332765Y-101329926D01*
X104109648Y-101253329D01*
X103876955Y-101214500D01*
X103641045Y-101214500D01*
X103408351Y-101253329D01*
X103185234Y-101329926D01*
X103185220Y-101329932D01*
X102977753Y-101442207D01*
X102977742Y-101442214D01*
X102791592Y-101587100D01*
X102791582Y-101587110D01*
X102631805Y-101760673D01*
X102502777Y-101958167D01*
X102408015Y-102174206D01*
X102350102Y-102402896D01*
X102350100Y-102402904D01*
X102330621Y-102637994D01*
X102330621Y-102638005D01*
X102350100Y-102873095D01*
X102350102Y-102873103D01*
X102408015Y-103101793D01*
X102502777Y-103317832D01*
X102631805Y-103515326D01*
X102631808Y-103515329D01*
X102791585Y-103688893D01*
X102885889Y-103762293D01*
X102922319Y-103790647D01*
X102963132Y-103847357D01*
X102966806Y-103917130D01*
X102932174Y-103977813D01*
X102870233Y-104010140D01*
X102846156Y-104012500D01*
X101597500Y-104012500D01*
X101530461Y-103992815D01*
X101484706Y-103940011D01*
X101473500Y-103888500D01*
X101473500Y-99060005D01*
X103792844Y-99060005D01*
X103811434Y-99284359D01*
X103811436Y-99284371D01*
X103866703Y-99502614D01*
X103957140Y-99708792D01*
X104080276Y-99897265D01*
X104080284Y-99897276D01*
X104206967Y-100034888D01*
X104232760Y-100062906D01*
X104410424Y-100201189D01*
X104410425Y-100201189D01*
X104410427Y-100201191D01*
X104537135Y-100269761D01*
X104608426Y-100308342D01*
X104821365Y-100381444D01*
X105043431Y-100418500D01*
X105268569Y-100418500D01*
X105490635Y-100381444D01*
X105703574Y-100308342D01*
X105901576Y-100201189D01*
X106079240Y-100062906D01*
X106142452Y-99994239D01*
X106202337Y-99958250D01*
X106272175Y-99960349D01*
X106329791Y-99999873D01*
X106349861Y-100034888D01*
X106395111Y-100156204D01*
X106482739Y-100273261D01*
X106599796Y-100360889D01*
X106736799Y-100411989D01*
X106764050Y-100414918D01*
X106797345Y-100418499D01*
X106797362Y-100418500D01*
X108594638Y-100418500D01*
X108594654Y-100418499D01*
X108621692Y-100415591D01*
X108655201Y-100411989D01*
X108792204Y-100360889D01*
X108909261Y-100273261D01*
X108996889Y-100156204D01*
X109047989Y-100019201D01*
X109051591Y-99985692D01*
X109054499Y-99958654D01*
X109054500Y-99958637D01*
X109054500Y-98161362D01*
X109054499Y-98161345D01*
X109050672Y-98125759D01*
X109047989Y-98100799D01*
X108996889Y-97963796D01*
X108909261Y-97846739D01*
X108792204Y-97759111D01*
X108655203Y-97708011D01*
X108594654Y-97701500D01*
X108594638Y-97701500D01*
X106797362Y-97701500D01*
X106797345Y-97701500D01*
X106736797Y-97708011D01*
X106736795Y-97708011D01*
X106599795Y-97759111D01*
X106482739Y-97846739D01*
X106395111Y-97963795D01*
X106349861Y-98085111D01*
X106307989Y-98141044D01*
X106242524Y-98165460D01*
X106174252Y-98150607D01*
X106142454Y-98125762D01*
X106079240Y-98057094D01*
X105901576Y-97918811D01*
X105901575Y-97918810D01*
X105901572Y-97918808D01*
X105703580Y-97811661D01*
X105703577Y-97811659D01*
X105703574Y-97811658D01*
X105703571Y-97811657D01*
X105703569Y-97811656D01*
X105490637Y-97738556D01*
X105268569Y-97701500D01*
X105043431Y-97701500D01*
X104821362Y-97738556D01*
X104608430Y-97811656D01*
X104608419Y-97811661D01*
X104410427Y-97918808D01*
X104410422Y-97918812D01*
X104232761Y-98057092D01*
X104232756Y-98057097D01*
X104080284Y-98222723D01*
X104080276Y-98222734D01*
X103957140Y-98411207D01*
X103866703Y-98617385D01*
X103811436Y-98835628D01*
X103811434Y-98835640D01*
X103792844Y-99059994D01*
X103792844Y-99060005D01*
X101473500Y-99060005D01*
X101473500Y-96012789D01*
X101493185Y-95945750D01*
X101545989Y-95899995D01*
X101615147Y-95890051D01*
X101678703Y-95919076D01*
X101701306Y-95944963D01*
X101794278Y-96087268D01*
X101794283Y-96087273D01*
X101794284Y-96087276D01*
X101946756Y-96252902D01*
X101946760Y-96252906D01*
X102124424Y-96391189D01*
X102124425Y-96391189D01*
X102124427Y-96391191D01*
X102251135Y-96459761D01*
X102322426Y-96498342D01*
X102535365Y-96571444D01*
X102757431Y-96608500D01*
X102982569Y-96608500D01*
X103204635Y-96571444D01*
X103417574Y-96498342D01*
X103615576Y-96391189D01*
X103793240Y-96252906D01*
X103945722Y-96087268D01*
X104036193Y-95948790D01*
X104089338Y-95903437D01*
X104158569Y-95894013D01*
X104221905Y-95923515D01*
X104243804Y-95948787D01*
X104334278Y-96087268D01*
X104334283Y-96087273D01*
X104334284Y-96087276D01*
X104486756Y-96252902D01*
X104486760Y-96252906D01*
X104664424Y-96391189D01*
X104664425Y-96391189D01*
X104664427Y-96391191D01*
X104791135Y-96459761D01*
X104862426Y-96498342D01*
X105075365Y-96571444D01*
X105297431Y-96608500D01*
X105522569Y-96608500D01*
X105744635Y-96571444D01*
X105957574Y-96498342D01*
X106155576Y-96391189D01*
X106333240Y-96252906D01*
X106485722Y-96087268D01*
X106608860Y-95898791D01*
X106699296Y-95692616D01*
X106754564Y-95474368D01*
X106773156Y-95250000D01*
X106754564Y-95025632D01*
X106699296Y-94807384D01*
X106608860Y-94601209D01*
X106608324Y-94600389D01*
X106485723Y-94412734D01*
X106485715Y-94412723D01*
X106333243Y-94247097D01*
X106333238Y-94247092D01*
X106155577Y-94108812D01*
X106155577Y-94108811D01*
X106112303Y-94085393D01*
X106062713Y-94036173D01*
X106047605Y-93967957D01*
X106071775Y-93902401D01*
X106100198Y-93874763D01*
X106281079Y-93748108D01*
X106448105Y-93581082D01*
X106583600Y-93387578D01*
X106683429Y-93173492D01*
X106683432Y-93173486D01*
X106740636Y-92960000D01*
X105843686Y-92960000D01*
X105869493Y-92919844D01*
X105910000Y-92781889D01*
X105910000Y-92638111D01*
X105869493Y-92500156D01*
X105843686Y-92460000D01*
X106740636Y-92460000D01*
X106740635Y-92459999D01*
X106683432Y-92246513D01*
X106683429Y-92246507D01*
X106583600Y-92032422D01*
X106583599Y-92032420D01*
X106448113Y-91838926D01*
X106448108Y-91838920D01*
X106281082Y-91671894D01*
X106100197Y-91545236D01*
X106056572Y-91490659D01*
X106049380Y-91421160D01*
X106080902Y-91358806D01*
X106112300Y-91334608D01*
X106155576Y-91311189D01*
X106333240Y-91172906D01*
X106485722Y-91007268D01*
X106608860Y-90818791D01*
X106699296Y-90612616D01*
X106754564Y-90394368D01*
X106773156Y-90170000D01*
X106754564Y-89945632D01*
X106699296Y-89727384D01*
X106608860Y-89521209D01*
X106608324Y-89520389D01*
X106485723Y-89332734D01*
X106485715Y-89332723D01*
X106333243Y-89167097D01*
X106333238Y-89167092D01*
X106155577Y-89028812D01*
X106155578Y-89028812D01*
X106155576Y-89028811D01*
X106119070Y-89009055D01*
X106069479Y-88959836D01*
X106054371Y-88891619D01*
X106078541Y-88826064D01*
X106119070Y-88790945D01*
X106119084Y-88790936D01*
X106152229Y-88773000D01*
X107544496Y-88773000D01*
X107564458Y-88962928D01*
X107564459Y-88962931D01*
X107623470Y-89144549D01*
X107623473Y-89144556D01*
X107718960Y-89309944D01*
X107846747Y-89451866D01*
X108001248Y-89564118D01*
X108175712Y-89641794D01*
X108362513Y-89681500D01*
X108553487Y-89681500D01*
X108740288Y-89641794D01*
X108914752Y-89564118D01*
X109069253Y-89451866D01*
X109197040Y-89309944D01*
X109292527Y-89144556D01*
X109351542Y-88962928D01*
X109371504Y-88773000D01*
X109351542Y-88583072D01*
X109292527Y-88401444D01*
X109197040Y-88236056D01*
X109069253Y-88094134D01*
X108914752Y-87981882D01*
X108740288Y-87904206D01*
X108740286Y-87904205D01*
X108553487Y-87864500D01*
X108362513Y-87864500D01*
X108175714Y-87904205D01*
X108001246Y-87981883D01*
X107846745Y-88094135D01*
X107718959Y-88236057D01*
X107623473Y-88401443D01*
X107623470Y-88401450D01*
X107575543Y-88548956D01*
X107564458Y-88583072D01*
X107544496Y-88773000D01*
X106152229Y-88773000D01*
X106155576Y-88771189D01*
X106333240Y-88632906D01*
X106485722Y-88467268D01*
X106608860Y-88278791D01*
X106699296Y-88072616D01*
X106754564Y-87854368D01*
X106773156Y-87630000D01*
X106754564Y-87405632D01*
X106699296Y-87187384D01*
X106608860Y-86981209D01*
X106485722Y-86792732D01*
X106485719Y-86792729D01*
X106485715Y-86792723D01*
X106333243Y-86627097D01*
X106333238Y-86627092D01*
X106155577Y-86488812D01*
X106155572Y-86488808D01*
X105957580Y-86381661D01*
X105957577Y-86381659D01*
X105957574Y-86381658D01*
X105957571Y-86381657D01*
X105957569Y-86381656D01*
X105744638Y-86308556D01*
X105656976Y-86293928D01*
X105594091Y-86263477D01*
X105557651Y-86203862D01*
X105559227Y-86134010D01*
X105598317Y-86076099D01*
X105626945Y-86058342D01*
X105739752Y-86008118D01*
X105894253Y-85895866D01*
X106022040Y-85753944D01*
X106117527Y-85588556D01*
X106176542Y-85406928D01*
X106196504Y-85217000D01*
X106176542Y-85027072D01*
X106117527Y-84845444D01*
X106022040Y-84680056D01*
X105894253Y-84538134D01*
X105739752Y-84425882D01*
X105565288Y-84348206D01*
X105565286Y-84348205D01*
X105378487Y-84308500D01*
X105187513Y-84308500D01*
X105000714Y-84348205D01*
X104826246Y-84425883D01*
X104671745Y-84538135D01*
X104543959Y-84680057D01*
X104448473Y-84845443D01*
X104448470Y-84845450D01*
X104389459Y-85027068D01*
X104389458Y-85027072D01*
X104369496Y-85217000D01*
X104389458Y-85406928D01*
X104389459Y-85406931D01*
X104448470Y-85588549D01*
X104448473Y-85588556D01*
X104543960Y-85753944D01*
X104671747Y-85895866D01*
X104826248Y-86008118D01*
X105000712Y-86085794D01*
X105009428Y-86087646D01*
X105070910Y-86120837D01*
X105104689Y-86181999D01*
X105100038Y-86251713D01*
X105058435Y-86307847D01*
X105023914Y-86326218D01*
X104862426Y-86381658D01*
X104862419Y-86381661D01*
X104664427Y-86488808D01*
X104664422Y-86488812D01*
X104486761Y-86627092D01*
X104423548Y-86695760D01*
X104363661Y-86731750D01*
X104293823Y-86729649D01*
X104236207Y-86690124D01*
X104216138Y-86655110D01*
X104170889Y-86533796D01*
X104137214Y-86488812D01*
X104083261Y-86416739D01*
X103966204Y-86329111D01*
X103931141Y-86316033D01*
X103829203Y-86278011D01*
X103768654Y-86271500D01*
X103768638Y-86271500D01*
X102429559Y-86271500D01*
X102362520Y-86251815D01*
X102316765Y-86199011D01*
X102306821Y-86129853D01*
X102335846Y-86066297D01*
X102379121Y-86034221D01*
X102437752Y-86008118D01*
X102592253Y-85895866D01*
X102720040Y-85753944D01*
X102815527Y-85588556D01*
X102874542Y-85406928D01*
X102894504Y-85217000D01*
X102874542Y-85027072D01*
X102815527Y-84845444D01*
X102720040Y-84680056D01*
X102592253Y-84538134D01*
X102437752Y-84425882D01*
X102263288Y-84348206D01*
X102263286Y-84348205D01*
X102076487Y-84308500D01*
X101885513Y-84308500D01*
X101698713Y-84348205D01*
X101698710Y-84348206D01*
X101647934Y-84370813D01*
X101578684Y-84380097D01*
X101515408Y-84350468D01*
X101478195Y-84291332D01*
X101473500Y-84257533D01*
X101473500Y-83947000D01*
X108941496Y-83947000D01*
X108961458Y-84136928D01*
X108961459Y-84136931D01*
X109020470Y-84318549D01*
X109020473Y-84318556D01*
X109115960Y-84483944D01*
X109243747Y-84625866D01*
X109398248Y-84738118D01*
X109572712Y-84815794D01*
X109759513Y-84855500D01*
X109950487Y-84855500D01*
X110137288Y-84815794D01*
X110311752Y-84738118D01*
X110466253Y-84625866D01*
X110594040Y-84483944D01*
X110689527Y-84318556D01*
X110748542Y-84136928D01*
X110768504Y-83947000D01*
X110748542Y-83757072D01*
X110689527Y-83575444D01*
X110594040Y-83410056D01*
X110466253Y-83268134D01*
X110311752Y-83155882D01*
X110137288Y-83078206D01*
X110137286Y-83078205D01*
X109950487Y-83038500D01*
X109759513Y-83038500D01*
X109572714Y-83078205D01*
X109398246Y-83155883D01*
X109243745Y-83268135D01*
X109115959Y-83410057D01*
X109020473Y-83575443D01*
X109020470Y-83575450D01*
X108961459Y-83757068D01*
X108961458Y-83757072D01*
X108941496Y-83947000D01*
X101473500Y-83947000D01*
X101473500Y-82169000D01*
X110465496Y-82169000D01*
X110485458Y-82358928D01*
X110485459Y-82358931D01*
X110544470Y-82540549D01*
X110544473Y-82540556D01*
X110639960Y-82705944D01*
X110654889Y-82722524D01*
X110766357Y-82846323D01*
X110767747Y-82847866D01*
X110922248Y-82960118D01*
X111096712Y-83037794D01*
X111283513Y-83077500D01*
X111474487Y-83077500D01*
X111661288Y-83037794D01*
X111835752Y-82960118D01*
X111990253Y-82847866D01*
X112118040Y-82705944D01*
X112213527Y-82540556D01*
X112272542Y-82358928D01*
X112292504Y-82169000D01*
X112272542Y-81979072D01*
X112213527Y-81797444D01*
X112118040Y-81632056D01*
X111990253Y-81490134D01*
X111835752Y-81377882D01*
X111661288Y-81300206D01*
X111661286Y-81300205D01*
X111474487Y-81260500D01*
X111283513Y-81260500D01*
X111096714Y-81300205D01*
X110922246Y-81377883D01*
X110767745Y-81490135D01*
X110639959Y-81632057D01*
X110544473Y-81797443D01*
X110544470Y-81797450D01*
X110501795Y-81928791D01*
X110485458Y-81979072D01*
X110465496Y-82169000D01*
X101473500Y-82169000D01*
X101473500Y-77343000D01*
X111227496Y-77343000D01*
X111247458Y-77532928D01*
X111247459Y-77532931D01*
X111306470Y-77714549D01*
X111306473Y-77714556D01*
X111401960Y-77879944D01*
X111529747Y-78021866D01*
X111684248Y-78134118D01*
X111858712Y-78211794D01*
X112045513Y-78251500D01*
X112236487Y-78251500D01*
X112423288Y-78211794D01*
X112597752Y-78134118D01*
X112744616Y-78027413D01*
X112810420Y-78003935D01*
X112878474Y-78019760D01*
X112927169Y-78069866D01*
X112941500Y-78127733D01*
X112941500Y-79638654D01*
X112948011Y-79699202D01*
X112948011Y-79699204D01*
X112999111Y-79836204D01*
X113086739Y-79953261D01*
X113203796Y-80040889D01*
X113255737Y-80060262D01*
X113321595Y-80084827D01*
X113377528Y-80126699D01*
X113401944Y-80192163D01*
X113387092Y-80260436D01*
X113369490Y-80284991D01*
X113224279Y-80442730D01*
X113224276Y-80442734D01*
X113101140Y-80631207D01*
X113010703Y-80837385D01*
X112955436Y-81055628D01*
X112955434Y-81055640D01*
X112936844Y-81279994D01*
X112936844Y-81280005D01*
X112955434Y-81504359D01*
X112955436Y-81504371D01*
X113010703Y-81722614D01*
X113101140Y-81928792D01*
X113224276Y-82117265D01*
X113224284Y-82117276D01*
X113376756Y-82282902D01*
X113376760Y-82282906D01*
X113554424Y-82421189D01*
X113554425Y-82421189D01*
X113554427Y-82421191D01*
X113557770Y-82423000D01*
X113752426Y-82528342D01*
X113965365Y-82601444D01*
X114187431Y-82638500D01*
X114412569Y-82638500D01*
X114634635Y-82601444D01*
X114847574Y-82528342D01*
X115042230Y-82423000D01*
X117069496Y-82423000D01*
X117089458Y-82612928D01*
X117089459Y-82612931D01*
X117148470Y-82794549D01*
X117148473Y-82794556D01*
X117243960Y-82959944D01*
X117371747Y-83101866D01*
X117526248Y-83214118D01*
X117700712Y-83291794D01*
X117887513Y-83331500D01*
X118078487Y-83331500D01*
X118265288Y-83291794D01*
X118439752Y-83214118D01*
X118594253Y-83101866D01*
X118722040Y-82959944D01*
X118817527Y-82794556D01*
X118876542Y-82612928D01*
X118896504Y-82423000D01*
X118876542Y-82233072D01*
X118817527Y-82051444D01*
X118722040Y-81886056D01*
X118621145Y-81774001D01*
X122713788Y-81774001D01*
X122732598Y-81989007D01*
X122732600Y-81989018D01*
X122788458Y-82197485D01*
X122788460Y-82197489D01*
X122788461Y-82197493D01*
X122805050Y-82233068D01*
X122879676Y-82393105D01*
X122899341Y-82421189D01*
X123003475Y-82569907D01*
X123156093Y-82722525D01*
X123332894Y-82846323D01*
X123528507Y-82937539D01*
X123736987Y-82993401D01*
X123890567Y-83006837D01*
X123951998Y-83012212D01*
X123952000Y-83012212D01*
X123952002Y-83012212D01*
X124005753Y-83007509D01*
X124167013Y-82993401D01*
X124375493Y-82937539D01*
X124571106Y-82846323D01*
X124747907Y-82722525D01*
X124900525Y-82569907D01*
X125024323Y-82393106D01*
X125115539Y-82197493D01*
X125171401Y-81989013D01*
X125190212Y-81774001D01*
X131353788Y-81774001D01*
X131372598Y-81989007D01*
X131372600Y-81989018D01*
X131428458Y-82197485D01*
X131428460Y-82197489D01*
X131428461Y-82197493D01*
X131445050Y-82233068D01*
X131519676Y-82393105D01*
X131539341Y-82421189D01*
X131643475Y-82569907D01*
X131796093Y-82722525D01*
X131972894Y-82846323D01*
X132168507Y-82937539D01*
X132376987Y-82993401D01*
X132530567Y-83006837D01*
X132591998Y-83012212D01*
X132592000Y-83012212D01*
X132592002Y-83012212D01*
X132645753Y-83007509D01*
X132807013Y-82993401D01*
X133015493Y-82937539D01*
X133211106Y-82846323D01*
X133387907Y-82722525D01*
X133540525Y-82569907D01*
X133664323Y-82393106D01*
X133755539Y-82197493D01*
X133811401Y-81989013D01*
X133830212Y-81774000D01*
X133820326Y-81661000D01*
X135357496Y-81661000D01*
X135377458Y-81850928D01*
X135377459Y-81850931D01*
X135436470Y-82032549D01*
X135436473Y-82032556D01*
X135531960Y-82197944D01*
X135659747Y-82339866D01*
X135814248Y-82452118D01*
X135988712Y-82529794D01*
X136175513Y-82569500D01*
X136366487Y-82569500D01*
X136553288Y-82529794D01*
X136727752Y-82452118D01*
X136882253Y-82339866D01*
X137010040Y-82197944D01*
X137105527Y-82032556D01*
X137164542Y-81850928D01*
X137184504Y-81661000D01*
X137164542Y-81471072D01*
X137105527Y-81289444D01*
X137100077Y-81280005D01*
X140876844Y-81280005D01*
X140895434Y-81504359D01*
X140895436Y-81504371D01*
X140950703Y-81722614D01*
X141041140Y-81928792D01*
X141164276Y-82117265D01*
X141164284Y-82117276D01*
X141316756Y-82282902D01*
X141316760Y-82282906D01*
X141494424Y-82421189D01*
X141494425Y-82421189D01*
X141494427Y-82421191D01*
X141497770Y-82423000D01*
X141692426Y-82528342D01*
X141905365Y-82601444D01*
X142127431Y-82638500D01*
X142352569Y-82638500D01*
X142574635Y-82601444D01*
X142787574Y-82528342D01*
X142985576Y-82421189D01*
X143163240Y-82282906D01*
X143315722Y-82117268D01*
X143438860Y-81928791D01*
X143529296Y-81722616D01*
X143584564Y-81504368D01*
X143584565Y-81504359D01*
X143603156Y-81280005D01*
X143603156Y-81279994D01*
X143592633Y-81153000D01*
X149073496Y-81153000D01*
X149093458Y-81342928D01*
X149093459Y-81342931D01*
X149152470Y-81524549D01*
X149152473Y-81524556D01*
X149247960Y-81689944D01*
X149375747Y-81831866D01*
X149530248Y-81944118D01*
X149704712Y-82021794D01*
X149891513Y-82061500D01*
X150082487Y-82061500D01*
X150269288Y-82021794D01*
X150443752Y-81944118D01*
X150598253Y-81831866D01*
X150726040Y-81689944D01*
X150821527Y-81524556D01*
X150880542Y-81342928D01*
X150900504Y-81153000D01*
X150880542Y-80963072D01*
X150821527Y-80781444D01*
X150726040Y-80616056D01*
X150598253Y-80474134D01*
X150443752Y-80361882D01*
X150269288Y-80284206D01*
X150269286Y-80284205D01*
X150082487Y-80244500D01*
X149891513Y-80244500D01*
X149704714Y-80284205D01*
X149530246Y-80361883D01*
X149375745Y-80474135D01*
X149247959Y-80616057D01*
X149152473Y-80781443D01*
X149152470Y-80781450D01*
X149123737Y-80869883D01*
X149093458Y-80963072D01*
X149073496Y-81153000D01*
X143592633Y-81153000D01*
X143584565Y-81055640D01*
X143584563Y-81055628D01*
X143564928Y-80978092D01*
X143529296Y-80837384D01*
X143438860Y-80631209D01*
X143425305Y-80610462D01*
X143376518Y-80535788D01*
X143315722Y-80442732D01*
X143315719Y-80442729D01*
X143315715Y-80442723D01*
X143170510Y-80284991D01*
X143139587Y-80222337D01*
X143147447Y-80152911D01*
X143191594Y-80098755D01*
X143218405Y-80084827D01*
X143298584Y-80054920D01*
X143336204Y-80040889D01*
X143453261Y-79953261D01*
X143540889Y-79836204D01*
X143591989Y-79699201D01*
X143595591Y-79665692D01*
X143598499Y-79638654D01*
X143598500Y-79638637D01*
X143598500Y-77841362D01*
X143598499Y-77841345D01*
X143595157Y-77810270D01*
X143591989Y-77780799D01*
X143587165Y-77767866D01*
X143563531Y-77704500D01*
X143540889Y-77643796D01*
X143453261Y-77526739D01*
X143336204Y-77439111D01*
X143320214Y-77433147D01*
X143199203Y-77388011D01*
X143138654Y-77381500D01*
X143138638Y-77381500D01*
X141341362Y-77381500D01*
X141341345Y-77381500D01*
X141280797Y-77388011D01*
X141280795Y-77388011D01*
X141143795Y-77439111D01*
X141026739Y-77526739D01*
X140939111Y-77643795D01*
X140888011Y-77780795D01*
X140888011Y-77780797D01*
X140881500Y-77841345D01*
X140881500Y-79638654D01*
X140888011Y-79699202D01*
X140888011Y-79699204D01*
X140939111Y-79836204D01*
X141026739Y-79953261D01*
X141143796Y-80040889D01*
X141195737Y-80060262D01*
X141261595Y-80084827D01*
X141317528Y-80126699D01*
X141341944Y-80192163D01*
X141327092Y-80260436D01*
X141309490Y-80284991D01*
X141164279Y-80442730D01*
X141164276Y-80442734D01*
X141041140Y-80631207D01*
X140950703Y-80837385D01*
X140895436Y-81055628D01*
X140895434Y-81055640D01*
X140876844Y-81279994D01*
X140876844Y-81280005D01*
X137100077Y-81280005D01*
X137010040Y-81124056D01*
X136882253Y-80982134D01*
X136727752Y-80869882D01*
X136553288Y-80792206D01*
X136553286Y-80792205D01*
X136366487Y-80752500D01*
X136175513Y-80752500D01*
X135988714Y-80792205D01*
X135814246Y-80869883D01*
X135659745Y-80982135D01*
X135531959Y-81124057D01*
X135436473Y-81289443D01*
X135436470Y-81289450D01*
X135407737Y-81377883D01*
X135377458Y-81471072D01*
X135357496Y-81661000D01*
X133820326Y-81661000D01*
X133811401Y-81558987D01*
X133755539Y-81350507D01*
X133664323Y-81154894D01*
X133540525Y-80978093D01*
X133387907Y-80825475D01*
X133325023Y-80781443D01*
X133211105Y-80701676D01*
X133059987Y-80631209D01*
X133015493Y-80610461D01*
X133015489Y-80610460D01*
X133015485Y-80610458D01*
X132807018Y-80554600D01*
X132807014Y-80554599D01*
X132807013Y-80554599D01*
X132807012Y-80554598D01*
X132807007Y-80554598D01*
X132592002Y-80535788D01*
X132591998Y-80535788D01*
X132376992Y-80554598D01*
X132376981Y-80554600D01*
X132168514Y-80610458D01*
X132168505Y-80610462D01*
X131972894Y-80701676D01*
X131796092Y-80825475D01*
X131643475Y-80978092D01*
X131519676Y-81154894D01*
X131428462Y-81350505D01*
X131428458Y-81350514D01*
X131372600Y-81558981D01*
X131372598Y-81558992D01*
X131353788Y-81773998D01*
X131353788Y-81774001D01*
X125190212Y-81774001D01*
X125190212Y-81774000D01*
X125171401Y-81558987D01*
X125115539Y-81350507D01*
X125024323Y-81154894D01*
X124900525Y-80978093D01*
X124747907Y-80825475D01*
X124685023Y-80781443D01*
X124571105Y-80701676D01*
X124419987Y-80631209D01*
X124375493Y-80610461D01*
X124375489Y-80610460D01*
X124375485Y-80610458D01*
X124167018Y-80554600D01*
X124167014Y-80554599D01*
X124167013Y-80554599D01*
X124167012Y-80554598D01*
X124167007Y-80554598D01*
X123952002Y-80535788D01*
X123951998Y-80535788D01*
X123736992Y-80554598D01*
X123736981Y-80554600D01*
X123528514Y-80610458D01*
X123528505Y-80610462D01*
X123332894Y-80701676D01*
X123156092Y-80825475D01*
X123003475Y-80978092D01*
X122879676Y-81154894D01*
X122788462Y-81350505D01*
X122788458Y-81350514D01*
X122732600Y-81558981D01*
X122732598Y-81558992D01*
X122713788Y-81773998D01*
X122713788Y-81774001D01*
X118621145Y-81774001D01*
X118594253Y-81744134D01*
X118439752Y-81631882D01*
X118265288Y-81554206D01*
X118265286Y-81554205D01*
X118078487Y-81514500D01*
X117887513Y-81514500D01*
X117700714Y-81554205D01*
X117526246Y-81631883D01*
X117371745Y-81744135D01*
X117243959Y-81886057D01*
X117148473Y-82051443D01*
X117148470Y-82051450D01*
X117089459Y-82233068D01*
X117089458Y-82233072D01*
X117069496Y-82423000D01*
X115042230Y-82423000D01*
X115045576Y-82421189D01*
X115223240Y-82282906D01*
X115375722Y-82117268D01*
X115498860Y-81928791D01*
X115589296Y-81722616D01*
X115644564Y-81504368D01*
X115644565Y-81504359D01*
X115663156Y-81280005D01*
X115663156Y-81279994D01*
X115644565Y-81055640D01*
X115644563Y-81055628D01*
X115624928Y-80978092D01*
X115589296Y-80837384D01*
X115498860Y-80631209D01*
X115485305Y-80610462D01*
X115436518Y-80535788D01*
X115375722Y-80442732D01*
X115375719Y-80442729D01*
X115375715Y-80442723D01*
X115230510Y-80284991D01*
X115199587Y-80222337D01*
X115207447Y-80152911D01*
X115251594Y-80098755D01*
X115278405Y-80084827D01*
X115358584Y-80054920D01*
X115396204Y-80040889D01*
X115513261Y-79953261D01*
X115565858Y-79883000D01*
X124689496Y-79883000D01*
X124709458Y-80072928D01*
X124709459Y-80072931D01*
X124768470Y-80254549D01*
X124768473Y-80254556D01*
X124863960Y-80419944D01*
X124991747Y-80561866D01*
X125146248Y-80674118D01*
X125320712Y-80751794D01*
X125507513Y-80791500D01*
X125698487Y-80791500D01*
X125885288Y-80751794D01*
X126059752Y-80674118D01*
X126214253Y-80561866D01*
X126342040Y-80419944D01*
X126437527Y-80254556D01*
X126496542Y-80072928D01*
X126516504Y-79883000D01*
X126496542Y-79693072D01*
X126437527Y-79511444D01*
X126342040Y-79346056D01*
X126214253Y-79204134D01*
X126059752Y-79091882D01*
X125885288Y-79014206D01*
X125885286Y-79014205D01*
X125698487Y-78974500D01*
X125507513Y-78974500D01*
X125320714Y-79014205D01*
X125146246Y-79091883D01*
X124991745Y-79204135D01*
X124863959Y-79346057D01*
X124768473Y-79511443D01*
X124768470Y-79511450D01*
X124709459Y-79693068D01*
X124709458Y-79693072D01*
X124689496Y-79883000D01*
X115565858Y-79883000D01*
X115600889Y-79836204D01*
X115651989Y-79699201D01*
X115655591Y-79665692D01*
X115658499Y-79638654D01*
X115658500Y-79638637D01*
X115658500Y-77841362D01*
X115658499Y-77841345D01*
X115655157Y-77810270D01*
X115651989Y-77780799D01*
X115647165Y-77767866D01*
X115623531Y-77704500D01*
X115600889Y-77643796D01*
X115513261Y-77526739D01*
X115396204Y-77439111D01*
X115380214Y-77433147D01*
X115259203Y-77388011D01*
X115198654Y-77381500D01*
X115198638Y-77381500D01*
X113401362Y-77381500D01*
X113401345Y-77381500D01*
X113340797Y-77388011D01*
X113340792Y-77388012D01*
X113219784Y-77433147D01*
X113150093Y-77438132D01*
X113088769Y-77404648D01*
X113055284Y-77343325D01*
X113053131Y-77329944D01*
X113034542Y-77153072D01*
X113013724Y-77089000D01*
X118339496Y-77089000D01*
X118359458Y-77278928D01*
X118359459Y-77278931D01*
X118418470Y-77460549D01*
X118418473Y-77460556D01*
X118513960Y-77625944D01*
X118641747Y-77767866D01*
X118796248Y-77880118D01*
X118970712Y-77957794D01*
X119157513Y-77997500D01*
X119348487Y-77997500D01*
X119459040Y-77974001D01*
X122713788Y-77974001D01*
X122732598Y-78189007D01*
X122732600Y-78189018D01*
X122788458Y-78397485D01*
X122788460Y-78397489D01*
X122788461Y-78397493D01*
X122800387Y-78423068D01*
X122879676Y-78593105D01*
X122879677Y-78593106D01*
X123003475Y-78769907D01*
X123156093Y-78922525D01*
X123332894Y-79046323D01*
X123528507Y-79137539D01*
X123736987Y-79193401D01*
X123890567Y-79206837D01*
X123951998Y-79212212D01*
X123952000Y-79212212D01*
X123952002Y-79212212D01*
X124005753Y-79207509D01*
X124167013Y-79193401D01*
X124375493Y-79137539D01*
X124571106Y-79046323D01*
X124747907Y-78922525D01*
X124900525Y-78769907D01*
X125010393Y-78613000D01*
X126467496Y-78613000D01*
X126487458Y-78802928D01*
X126487459Y-78802931D01*
X126546470Y-78984549D01*
X126546473Y-78984556D01*
X126641960Y-79149944D01*
X126769747Y-79291866D01*
X126924248Y-79404118D01*
X127098712Y-79481794D01*
X127285513Y-79521500D01*
X127476487Y-79521500D01*
X127663288Y-79481794D01*
X127837752Y-79404118D01*
X127992253Y-79291866D01*
X128120040Y-79149944D01*
X128215527Y-78984556D01*
X128274542Y-78802928D01*
X128294504Y-78613000D01*
X128274542Y-78423072D01*
X128215527Y-78241444D01*
X128120040Y-78076056D01*
X128028149Y-77974001D01*
X131353788Y-77974001D01*
X131372598Y-78189007D01*
X131372600Y-78189018D01*
X131428458Y-78397485D01*
X131428460Y-78397489D01*
X131428461Y-78397493D01*
X131440387Y-78423068D01*
X131519676Y-78593105D01*
X131519677Y-78593106D01*
X131643475Y-78769907D01*
X131796093Y-78922525D01*
X131972894Y-79046323D01*
X132168507Y-79137539D01*
X132376987Y-79193401D01*
X132530567Y-79206837D01*
X132591998Y-79212212D01*
X132592000Y-79212212D01*
X132592002Y-79212212D01*
X132645753Y-79207509D01*
X132807013Y-79193401D01*
X133015493Y-79137539D01*
X133211106Y-79046323D01*
X133387907Y-78922525D01*
X133540525Y-78769907D01*
X133664323Y-78593106D01*
X133755539Y-78397493D01*
X133811401Y-78189013D01*
X133830212Y-77974000D01*
X133811401Y-77758987D01*
X133755539Y-77550507D01*
X133664323Y-77354894D01*
X133540525Y-77178093D01*
X133387907Y-77025475D01*
X133211106Y-76901677D01*
X133211107Y-76901677D01*
X133211105Y-76901676D01*
X133113299Y-76856069D01*
X133015493Y-76810461D01*
X133015489Y-76810460D01*
X133015485Y-76810458D01*
X132807018Y-76754600D01*
X132807014Y-76754599D01*
X132807013Y-76754599D01*
X132807012Y-76754598D01*
X132807007Y-76754598D01*
X132592002Y-76735788D01*
X132591998Y-76735788D01*
X132376992Y-76754598D01*
X132376981Y-76754600D01*
X132168514Y-76810458D01*
X132168505Y-76810462D01*
X131972894Y-76901676D01*
X131796092Y-77025475D01*
X131643475Y-77178092D01*
X131519676Y-77354894D01*
X131428462Y-77550505D01*
X131428458Y-77550514D01*
X131372600Y-77758981D01*
X131372598Y-77758992D01*
X131353788Y-77973998D01*
X131353788Y-77974001D01*
X128028149Y-77974001D01*
X127992253Y-77934134D01*
X127837752Y-77821882D01*
X127663288Y-77744206D01*
X127663286Y-77744205D01*
X127476487Y-77704500D01*
X127285513Y-77704500D01*
X127098714Y-77744205D01*
X126924246Y-77821883D01*
X126769745Y-77934135D01*
X126641959Y-78076057D01*
X126546473Y-78241443D01*
X126546470Y-78241450D01*
X126487459Y-78423068D01*
X126487458Y-78423072D01*
X126467496Y-78613000D01*
X125010393Y-78613000D01*
X125024323Y-78593106D01*
X125115539Y-78397493D01*
X125171401Y-78189013D01*
X125190212Y-77974000D01*
X125171401Y-77758987D01*
X125115539Y-77550507D01*
X125024323Y-77354894D01*
X124900525Y-77178093D01*
X124747907Y-77025475D01*
X124571106Y-76901677D01*
X124571107Y-76901677D01*
X124571105Y-76901676D01*
X124473299Y-76856069D01*
X124375493Y-76810461D01*
X124375489Y-76810460D01*
X124375485Y-76810458D01*
X124167018Y-76754600D01*
X124167014Y-76754599D01*
X124167013Y-76754599D01*
X124167012Y-76754598D01*
X124167007Y-76754598D01*
X123952002Y-76735788D01*
X123951998Y-76735788D01*
X123736992Y-76754598D01*
X123736981Y-76754600D01*
X123528514Y-76810458D01*
X123528505Y-76810462D01*
X123332894Y-76901676D01*
X123156092Y-77025475D01*
X123003475Y-77178092D01*
X122879676Y-77354894D01*
X122788462Y-77550505D01*
X122788458Y-77550514D01*
X122732600Y-77758981D01*
X122732598Y-77758992D01*
X122713788Y-77973998D01*
X122713788Y-77974001D01*
X119459040Y-77974001D01*
X119535288Y-77957794D01*
X119709752Y-77880118D01*
X119864253Y-77767866D01*
X119992040Y-77625944D01*
X120087527Y-77460556D01*
X120146542Y-77278928D01*
X120166504Y-77089000D01*
X120146542Y-76899072D01*
X120087527Y-76717444D01*
X120058114Y-76666500D01*
X139167496Y-76666500D01*
X139187458Y-76856428D01*
X139187459Y-76856431D01*
X139246470Y-77038049D01*
X139246473Y-77038056D01*
X139341960Y-77203444D01*
X139409926Y-77278928D01*
X139467616Y-77343000D01*
X139469747Y-77345366D01*
X139624248Y-77457618D01*
X139798712Y-77535294D01*
X139985513Y-77575000D01*
X140176487Y-77575000D01*
X140363288Y-77535294D01*
X140537752Y-77457618D01*
X140692253Y-77345366D01*
X140820040Y-77203444D01*
X140915527Y-77038056D01*
X140974542Y-76856428D01*
X140994504Y-76666500D01*
X140974542Y-76476572D01*
X140915527Y-76294944D01*
X140820040Y-76129556D01*
X140692253Y-75987634D01*
X140537752Y-75875382D01*
X140363288Y-75797706D01*
X140363286Y-75797705D01*
X140176487Y-75758000D01*
X139985513Y-75758000D01*
X139798714Y-75797705D01*
X139624246Y-75875383D01*
X139469745Y-75987635D01*
X139341959Y-76129557D01*
X139246473Y-76294943D01*
X139246470Y-76294950D01*
X139187459Y-76476568D01*
X139187458Y-76476572D01*
X139167496Y-76666500D01*
X120058114Y-76666500D01*
X119992040Y-76552056D01*
X119864253Y-76410134D01*
X119709752Y-76297882D01*
X119535288Y-76220206D01*
X119535286Y-76220205D01*
X119348487Y-76180500D01*
X119157513Y-76180500D01*
X118970714Y-76220205D01*
X118970712Y-76220206D01*
X118802834Y-76294950D01*
X118796246Y-76297883D01*
X118641745Y-76410135D01*
X118513959Y-76552057D01*
X118418473Y-76717443D01*
X118418470Y-76717450D01*
X118388249Y-76810462D01*
X118359458Y-76899072D01*
X118339496Y-77089000D01*
X113013724Y-77089000D01*
X112975527Y-76971444D01*
X112880040Y-76806056D01*
X112752253Y-76664134D01*
X112597752Y-76551882D01*
X112423288Y-76474206D01*
X112423286Y-76474205D01*
X112236487Y-76434500D01*
X112045513Y-76434500D01*
X111858714Y-76474205D01*
X111684246Y-76551883D01*
X111529745Y-76664135D01*
X111401959Y-76806057D01*
X111306473Y-76971443D01*
X111306470Y-76971450D01*
X111268276Y-77089000D01*
X111247458Y-77153072D01*
X111227496Y-77343000D01*
X101473500Y-77343000D01*
X101473500Y-75308500D01*
X101493185Y-75241461D01*
X101545989Y-75195706D01*
X101597500Y-75184500D01*
X154942500Y-75184500D01*
X155009539Y-75204185D01*
G37*
%TD.AperFunction*%
%TD*%
M02*
