M48
; DRILL file {KiCad 8.0.4} date 2024-08-21T15:04:33-0600
; FORMAT={-:-/ absolute / inch / decimal}
; #@! TF.CreationDate,2024-08-21T15:04:33-06:00
; #@! TF.GenerationSoftware,Kicad,Pcbnew,8.0.4
; #@! TF.FileFunction,Plated,1,6,PTH
FMAT,2
INCH
; #@! TA.AperFunction,Plated,PTH,ViaDrill
T1C0.0157
; #@! TA.AperFunction,Plated,PTH,ComponentDrill
T2C0.0378
; #@! TA.AperFunction,Plated,PTH,ComponentDrill
T3C0.0394
; #@! TA.AperFunction,Plated,PTH,ComponentDrill
T4C0.0480
%
G90
G05
T1
X4.015Y-3.105
X4.065Y-3.255
X4.065Y-3.355
X4.205Y-3.355
X4.395Y-2.985
X4.405Y-3.035
X4.545Y-3.295
X4.555Y-3.365
X4.585Y-3.115
X4.635Y-3.0184
X4.705Y-3.305
X4.795Y-3.0184
X4.795Y-3.085
X4.815Y-3.175
X4.815Y-3.335
X4.985Y-3.175
X5.115Y-3.175
X5.345Y-3.075
X5.495Y-3.025
X5.675Y-3.315
X5.695Y-3.095
X5.705Y-3.195
X5.775Y-3.345
X5.8791Y-3.3509
X5.9116Y-3.285
X6.075Y-3.105
X6.085Y-3.295
T2
X4.88Y-3.0698
X4.88Y-3.2194
X5.2202Y-3.0698
X5.2202Y-3.2194
T3
X4.05Y-3.45
X4.05Y-3.55
X4.05Y-3.65
X4.05Y-3.75
X4.1125Y-3.9
X4.15Y-3.45
X4.15Y-3.55
X4.15Y-3.65
X4.15Y-3.75
X4.2125Y-3.9
X4.5Y-3.1
X4.5Y-3.2
X5.6Y-3.1
X5.6Y-3.2
X5.8875Y-3.9
X5.95Y-3.45
X5.95Y-3.55
X5.95Y-3.65
X5.95Y-3.75
X5.9875Y-3.9
X6.05Y-3.45
X6.05Y-3.55
X6.05Y-3.65
X6.05Y-3.75
T4
X4.085Y-4.0409
X4.285Y-4.0409
X5.815Y-4.0409
X6.015Y-4.0409
M30
