%TF.GenerationSoftware,KiCad,Pcbnew,8.0.4*%
%TF.CreationDate,2024-09-01T16:29:35-06:00*%
%TF.ProjectId,Breadboard Power Supply,42726561-6462-46f6-9172-6420506f7765,v1*%
%TF.SameCoordinates,Original*%
%TF.FileFunction,Copper,L6,Bot*%
%TF.FilePolarity,Positive*%
%FSLAX46Y46*%
G04 Gerber Fmt 4.6, Leading zero omitted, Abs format (unit mm)*
G04 Created by KiCad (PCBNEW 8.0.4) date 2024-09-01 16:29:35*
%MOMM*%
%LPD*%
G01*
G04 APERTURE LIST*
%ADD10C,0.080000*%
%TA.AperFunction,NonConductor*%
%ADD11C,0.080000*%
%TD*%
%TA.AperFunction,ComponentPad*%
%ADD12R,1.700000X1.700000*%
%TD*%
%TA.AperFunction,ComponentPad*%
%ADD13O,1.700000X1.700000*%
%TD*%
%TA.AperFunction,ComponentPad*%
%ADD14C,1.450000*%
%TD*%
%TA.AperFunction,ComponentPad*%
%ADD15C,1.830000*%
%TD*%
%TA.AperFunction,ViaPad*%
%ADD16C,0.800000*%
%TD*%
G04 APERTURE END LIST*
D10*
D11*
X153908142Y-76300149D02*
X154193856Y-76300149D01*
X154050999Y-76300149D02*
X154050999Y-75800149D01*
X154050999Y-75800149D02*
X154098618Y-75871578D01*
X154098618Y-75871578D02*
X154146237Y-75919197D01*
X154146237Y-75919197D02*
X154193856Y-75943006D01*
D12*
%TO.P,J4,1,Pin_1*%
%TO.N,+1V8*%
X151130000Y-87630000D03*
D13*
%TO.P,J4,2,Pin_2*%
%TO.N,/TOP_POWER_RAIL*%
X153670000Y-87630000D03*
%TO.P,J4,3,Pin_3*%
%TO.N,+3.3V*%
X151130000Y-90170000D03*
%TO.P,J4,4,Pin_4*%
%TO.N,/TOP_POWER_RAIL*%
X153670000Y-90170000D03*
%TO.P,J4,5,Pin_5*%
%TO.N,VBUS*%
X151130000Y-92710000D03*
%TO.P,J4,6,Pin_6*%
%TO.N,/TOP_POWER_RAIL*%
X153670000Y-92710000D03*
%TO.P,J4,7,Pin_7*%
%TO.N,+12V*%
X151130000Y-95250000D03*
%TO.P,J4,8,Pin_8*%
%TO.N,/TOP_POWER_RAIL*%
X153670000Y-95250000D03*
%TD*%
D12*
%TO.P,J5,1,Pin_1*%
%TO.N,/BOTTOM_POWER_RAIL*%
X102870000Y-87630000D03*
D13*
%TO.P,J5,2,Pin_2*%
%TO.N,+1V8*%
X105410000Y-87630000D03*
%TO.P,J5,3,Pin_3*%
%TO.N,/BOTTOM_POWER_RAIL*%
X102870000Y-90170000D03*
%TO.P,J5,4,Pin_4*%
%TO.N,+3.3V*%
X105410000Y-90170000D03*
%TO.P,J5,5,Pin_5*%
%TO.N,/BOTTOM_POWER_RAIL*%
X102870000Y-92710000D03*
%TO.P,J5,6,Pin_6*%
%TO.N,VBUS*%
X105410000Y-92710000D03*
%TO.P,J5,7,Pin_7*%
%TO.N,/BOTTOM_POWER_RAIL*%
X102870000Y-95250000D03*
%TO.P,J5,8,Pin_8*%
%TO.N,+12V*%
X105410000Y-95250000D03*
%TD*%
D14*
%TO.P,J1,MH1,MH1*%
%TO.N,GND*%
X132592000Y-77974000D03*
%TO.P,J1,MH2,MH2*%
X123952000Y-77974000D03*
%TO.P,J1,MH3,MH3*%
X132592000Y-81774000D03*
%TO.P,J1,MH4,MH4*%
X123952000Y-81774000D03*
%TD*%
D15*
%TO.P,TP1,1,1*%
%TO.N,GND*%
X103759000Y-102638000D03*
%TO.P,TP1,2,2*%
X108839000Y-102638000D03*
%TD*%
%TO.P,TP4,1,1*%
%TO.N,GND*%
X147701000Y-102638000D03*
%TO.P,TP4,2,2*%
X152781000Y-102638000D03*
%TD*%
D12*
%TO.P,J10,1,Pin_1*%
%TO.N,GND*%
X114300000Y-78740000D03*
D13*
%TO.P,J10,2,Pin_2*%
X114300000Y-81280000D03*
%TD*%
D12*
%TO.P,J8,1,Pin_1*%
%TO.N,/TOP_POWER_RAIL*%
X152082500Y-99060000D03*
D13*
%TO.P,J8,2,Pin_2*%
%TO.N,GND*%
X149542500Y-99060000D03*
%TD*%
D12*
%TO.P,J11,1,Pin_1*%
%TO.N,GND*%
X142240000Y-78740000D03*
D13*
%TO.P,J11,2,Pin_2*%
X142240000Y-81280000D03*
%TD*%
D12*
%TO.P,J9,1,Pin_1*%
%TO.N,/BOTTOM_POWER_RAIL*%
X106997500Y-99060000D03*
D13*
%TO.P,J9,2,Pin_2*%
%TO.N,GND*%
X104457500Y-99060000D03*
%TD*%
D16*
%TO.N,GND*%
X154559000Y-83693000D03*
X139573000Y-76835000D03*
X149328930Y-85113070D03*
X144145000Y-84201000D03*
X119507000Y-83947000D03*
X103251000Y-85217000D03*
X106807000Y-85217000D03*
X117729000Y-76667000D03*
X115697000Y-85471000D03*
%TO.N,+3.3V*%
X154305000Y-78867000D03*
X144653000Y-78613000D03*
X146685000Y-84963000D03*
%TO.N,+1V8*%
X103251000Y-82677000D03*
X111887000Y-77089000D03*
X101981000Y-78867000D03*
%TO.N,+12V*%
X115443000Y-83693000D03*
X116459000Y-79121000D03*
X122301000Y-80645000D03*
%TO.N,VBUS*%
X126619000Y-80645000D03*
X121793000Y-76667000D03*
X129921000Y-80645000D03*
X144907000Y-81153000D03*
X111633000Y-75819000D03*
X150155000Y-83439000D03*
X122301000Y-84709000D03*
X135763000Y-78105000D03*
X121793000Y-78359000D03*
%TD*%
%TA.AperFunction,Conductor*%
%TO.N,+1V8*%
G36*
X110739174Y-75330685D02*
G01*
X110784929Y-75383489D01*
X110794873Y-75452647D01*
X110790066Y-75473317D01*
X110739458Y-75629072D01*
X110719496Y-75819000D01*
X110739458Y-76008928D01*
X110739459Y-76008931D01*
X110798470Y-76190549D01*
X110798473Y-76190556D01*
X110893960Y-76355944D01*
X111021747Y-76497866D01*
X111176248Y-76610118D01*
X111350712Y-76687794D01*
X111537513Y-76727500D01*
X111728487Y-76727500D01*
X111915288Y-76687794D01*
X111961992Y-76667000D01*
X116815496Y-76667000D01*
X116835458Y-76856928D01*
X116835459Y-76856931D01*
X116894470Y-77038549D01*
X116894473Y-77038556D01*
X116989960Y-77203944D01*
X117117747Y-77345866D01*
X117272248Y-77458118D01*
X117446712Y-77535794D01*
X117633513Y-77575500D01*
X117824487Y-77575500D01*
X118011288Y-77535794D01*
X118185752Y-77458118D01*
X118340253Y-77345866D01*
X118468040Y-77203944D01*
X118563527Y-77038556D01*
X118622542Y-76856928D01*
X118642504Y-76667000D01*
X120879496Y-76667000D01*
X120899458Y-76856928D01*
X120899459Y-76856931D01*
X120958470Y-77038549D01*
X120958473Y-77038556D01*
X121053960Y-77203944D01*
X121181747Y-77345866D01*
X121273711Y-77412682D01*
X121316376Y-77468012D01*
X121322355Y-77537626D01*
X121289749Y-77599421D01*
X121273711Y-77613318D01*
X121181745Y-77680135D01*
X121053959Y-77822057D01*
X120958473Y-77987443D01*
X120958470Y-77987450D01*
X120899459Y-78169068D01*
X120899458Y-78169072D01*
X120879496Y-78359000D01*
X120899458Y-78548928D01*
X120899459Y-78548931D01*
X120958470Y-78730549D01*
X120958473Y-78730556D01*
X121053960Y-78895944D01*
X121181747Y-79037866D01*
X121336248Y-79150118D01*
X121510712Y-79227794D01*
X121697513Y-79267500D01*
X121888487Y-79267500D01*
X122075288Y-79227794D01*
X122249752Y-79150118D01*
X122404253Y-79037866D01*
X122532040Y-78895944D01*
X122627527Y-78730556D01*
X122661098Y-78627234D01*
X122700535Y-78569560D01*
X122764894Y-78542361D01*
X122833740Y-78554275D01*
X122880602Y-78594427D01*
X123003475Y-78769907D01*
X123156093Y-78922525D01*
X123332894Y-79046323D01*
X123528507Y-79137539D01*
X123528513Y-79137540D01*
X123528514Y-79137541D01*
X123578690Y-79150985D01*
X123736987Y-79193401D01*
X123890567Y-79206837D01*
X123951998Y-79212212D01*
X123952000Y-79212212D01*
X123952002Y-79212212D01*
X124005753Y-79207509D01*
X124167013Y-79193401D01*
X124375493Y-79137539D01*
X124571106Y-79046323D01*
X124747907Y-78922525D01*
X124900525Y-78769907D01*
X125024323Y-78593106D01*
X125115539Y-78397493D01*
X125171401Y-78189013D01*
X125190212Y-77974000D01*
X125190212Y-77973998D01*
X131353788Y-77973998D01*
X131353788Y-77974001D01*
X131372598Y-78189007D01*
X131372600Y-78189018D01*
X131428458Y-78397485D01*
X131428460Y-78397489D01*
X131428461Y-78397493D01*
X131465329Y-78476556D01*
X131519676Y-78593105D01*
X131553874Y-78641944D01*
X131643475Y-78769907D01*
X131796093Y-78922525D01*
X131972894Y-79046323D01*
X132168507Y-79137539D01*
X132168513Y-79137540D01*
X132168514Y-79137541D01*
X132218690Y-79150985D01*
X132376987Y-79193401D01*
X132530567Y-79206837D01*
X132591998Y-79212212D01*
X132592000Y-79212212D01*
X132592002Y-79212212D01*
X132645753Y-79207509D01*
X132807013Y-79193401D01*
X133015493Y-79137539D01*
X133211106Y-79046323D01*
X133387907Y-78922525D01*
X133540525Y-78769907D01*
X133664323Y-78593106D01*
X133755539Y-78397493D01*
X133811401Y-78189013D01*
X133818751Y-78105000D01*
X134849496Y-78105000D01*
X134869458Y-78294928D01*
X134869459Y-78294931D01*
X134928470Y-78476549D01*
X134928473Y-78476556D01*
X135023960Y-78641944D01*
X135151747Y-78783866D01*
X135306248Y-78896118D01*
X135480712Y-78973794D01*
X135667513Y-79013500D01*
X135858487Y-79013500D01*
X136045288Y-78973794D01*
X136219752Y-78896118D01*
X136374253Y-78783866D01*
X136502040Y-78641944D01*
X136597527Y-78476556D01*
X136656542Y-78294928D01*
X136676504Y-78105000D01*
X136656542Y-77915072D01*
X136597527Y-77733444D01*
X136502040Y-77568056D01*
X136374253Y-77426134D01*
X136219752Y-77313882D01*
X136045288Y-77236206D01*
X136045286Y-77236205D01*
X135858487Y-77196500D01*
X135667513Y-77196500D01*
X135480714Y-77236205D01*
X135306246Y-77313883D01*
X135151745Y-77426135D01*
X135023959Y-77568057D01*
X134928473Y-77733443D01*
X134928470Y-77733450D01*
X134890977Y-77848843D01*
X134869458Y-77915072D01*
X134849496Y-78105000D01*
X133818751Y-78105000D01*
X133830212Y-77974000D01*
X133811401Y-77758987D01*
X133755539Y-77550507D01*
X133664323Y-77354894D01*
X133540525Y-77178093D01*
X133387907Y-77025475D01*
X133211106Y-76901677D01*
X133211107Y-76901677D01*
X133211105Y-76901676D01*
X133108110Y-76853649D01*
X133068117Y-76835000D01*
X138659496Y-76835000D01*
X138679458Y-77024928D01*
X138679459Y-77024931D01*
X138738470Y-77206549D01*
X138738473Y-77206556D01*
X138833960Y-77371944D01*
X138961747Y-77513866D01*
X139116248Y-77626118D01*
X139290712Y-77703794D01*
X139477513Y-77743500D01*
X139668487Y-77743500D01*
X139855288Y-77703794D01*
X140029752Y-77626118D01*
X140184253Y-77513866D01*
X140312040Y-77371944D01*
X140407527Y-77206556D01*
X140466542Y-77024928D01*
X140486504Y-76835000D01*
X140466542Y-76645072D01*
X140407527Y-76463444D01*
X140312040Y-76298056D01*
X140184253Y-76156134D01*
X140029752Y-76043882D01*
X139855288Y-75966206D01*
X139855286Y-75966205D01*
X139668487Y-75926500D01*
X139477513Y-75926500D01*
X139290714Y-75966205D01*
X139116246Y-76043883D01*
X138961745Y-76156135D01*
X138833959Y-76298057D01*
X138738473Y-76463443D01*
X138738470Y-76463450D01*
X138690816Y-76610116D01*
X138679458Y-76645072D01*
X138659496Y-76835000D01*
X133068117Y-76835000D01*
X133015493Y-76810461D01*
X133015489Y-76810460D01*
X133015485Y-76810458D01*
X132807018Y-76754600D01*
X132807014Y-76754599D01*
X132807013Y-76754599D01*
X132807012Y-76754598D01*
X132807007Y-76754598D01*
X132592002Y-76735788D01*
X132591998Y-76735788D01*
X132376992Y-76754598D01*
X132376981Y-76754600D01*
X132168514Y-76810458D01*
X132168505Y-76810462D01*
X131972894Y-76901676D01*
X131796092Y-77025475D01*
X131643475Y-77178092D01*
X131519676Y-77354894D01*
X131428462Y-77550505D01*
X131428458Y-77550514D01*
X131372600Y-77758981D01*
X131372598Y-77758992D01*
X131353788Y-77973998D01*
X125190212Y-77973998D01*
X125171401Y-77758987D01*
X125115539Y-77550507D01*
X125024323Y-77354894D01*
X124900525Y-77178093D01*
X124747907Y-77025475D01*
X124571106Y-76901677D01*
X124571107Y-76901677D01*
X124571105Y-76901676D01*
X124468110Y-76853649D01*
X124375493Y-76810461D01*
X124375489Y-76810460D01*
X124375485Y-76810458D01*
X124167018Y-76754600D01*
X124167014Y-76754599D01*
X124167013Y-76754599D01*
X124167012Y-76754598D01*
X124167007Y-76754598D01*
X123952002Y-76735788D01*
X123951998Y-76735788D01*
X123736992Y-76754598D01*
X123736981Y-76754600D01*
X123528514Y-76810458D01*
X123528505Y-76810462D01*
X123332894Y-76901676D01*
X123156092Y-77025475D01*
X123003475Y-77178092D01*
X122879676Y-77354894D01*
X122788462Y-77550505D01*
X122788459Y-77550511D01*
X122732688Y-77758654D01*
X122696323Y-77818314D01*
X122633476Y-77848843D01*
X122564100Y-77840548D01*
X122520763Y-77809532D01*
X122474952Y-77758654D01*
X122404253Y-77680134D01*
X122404251Y-77680132D01*
X122312289Y-77613318D01*
X122269623Y-77557988D01*
X122263644Y-77488375D01*
X122296250Y-77426580D01*
X122312289Y-77412682D01*
X122404253Y-77345866D01*
X122532040Y-77203944D01*
X122627527Y-77038556D01*
X122686542Y-76856928D01*
X122706504Y-76667000D01*
X122686542Y-76477072D01*
X122627527Y-76295444D01*
X122532040Y-76130056D01*
X122404253Y-75988134D01*
X122249752Y-75875882D01*
X122075288Y-75798206D01*
X122075286Y-75798205D01*
X121888487Y-75758500D01*
X121697513Y-75758500D01*
X121510714Y-75798205D01*
X121336246Y-75875883D01*
X121181745Y-75988135D01*
X121053959Y-76130057D01*
X120958473Y-76295443D01*
X120958470Y-76295450D01*
X120903886Y-76463443D01*
X120899458Y-76477072D01*
X120879496Y-76667000D01*
X118642504Y-76667000D01*
X118622542Y-76477072D01*
X118563527Y-76295444D01*
X118468040Y-76130056D01*
X118340253Y-75988134D01*
X118185752Y-75875882D01*
X118011288Y-75798206D01*
X118011286Y-75798205D01*
X117824487Y-75758500D01*
X117633513Y-75758500D01*
X117446714Y-75798205D01*
X117272246Y-75875883D01*
X117117745Y-75988135D01*
X116989959Y-76130057D01*
X116894473Y-76295443D01*
X116894470Y-76295450D01*
X116839886Y-76463443D01*
X116835458Y-76477072D01*
X116815496Y-76667000D01*
X111961992Y-76667000D01*
X112089752Y-76610118D01*
X112244253Y-76497866D01*
X112372040Y-76355944D01*
X112467527Y-76190556D01*
X112526542Y-76008928D01*
X112546504Y-75819000D01*
X112526542Y-75629072D01*
X112475933Y-75473317D01*
X112473939Y-75403477D01*
X112510019Y-75343644D01*
X112572720Y-75312816D01*
X112593865Y-75311000D01*
X153230642Y-75311000D01*
X153297681Y-75330685D01*
X153343436Y-75383489D01*
X153354642Y-75435000D01*
X153354642Y-76853649D01*
X154750286Y-76853649D01*
X154750286Y-75435000D01*
X154769971Y-75367961D01*
X154822775Y-75322206D01*
X154874286Y-75311000D01*
X154943000Y-75311000D01*
X155010039Y-75330685D01*
X155055794Y-75383489D01*
X155067000Y-75435000D01*
X155067000Y-78054294D01*
X155047315Y-78121333D01*
X154994511Y-78167088D01*
X154925353Y-78177032D01*
X154870114Y-78154612D01*
X154761752Y-78075882D01*
X154587288Y-77998206D01*
X154587286Y-77998205D01*
X154400487Y-77958500D01*
X154209513Y-77958500D01*
X154022714Y-77998205D01*
X153848246Y-78075883D01*
X153693745Y-78188135D01*
X153565959Y-78330057D01*
X153470473Y-78495443D01*
X153470470Y-78495450D01*
X153411459Y-78677068D01*
X153411458Y-78677072D01*
X153391496Y-78867000D01*
X153411458Y-79056928D01*
X153411459Y-79056931D01*
X153470470Y-79238549D01*
X153470473Y-79238556D01*
X153565960Y-79403944D01*
X153693747Y-79545866D01*
X153848248Y-79658118D01*
X154022712Y-79735794D01*
X154209513Y-79775500D01*
X154400487Y-79775500D01*
X154587288Y-79735794D01*
X154761752Y-79658118D01*
X154870116Y-79579385D01*
X154935920Y-79555907D01*
X155003974Y-79571732D01*
X155052669Y-79621837D01*
X155067000Y-79679705D01*
X155067000Y-82733756D01*
X155047315Y-82800795D01*
X154994511Y-82846550D01*
X154925353Y-82856494D01*
X154892565Y-82847036D01*
X154841288Y-82824206D01*
X154841286Y-82824205D01*
X154654487Y-82784500D01*
X154463513Y-82784500D01*
X154276714Y-82824205D01*
X154102246Y-82901883D01*
X153947745Y-83014135D01*
X153819959Y-83156057D01*
X153724473Y-83321443D01*
X153724470Y-83321450D01*
X153686276Y-83439000D01*
X153665458Y-83503072D01*
X153645496Y-83693000D01*
X153665458Y-83882928D01*
X153665459Y-83882931D01*
X153724470Y-84064549D01*
X153724473Y-84064556D01*
X153819960Y-84229944D01*
X153947747Y-84371866D01*
X154102248Y-84484118D01*
X154276712Y-84561794D01*
X154463513Y-84601500D01*
X154654487Y-84601500D01*
X154841288Y-84561794D01*
X154892565Y-84538963D01*
X154961813Y-84529679D01*
X155025090Y-84559307D01*
X155062304Y-84618441D01*
X155067000Y-84652243D01*
X155067000Y-85601000D01*
X155047315Y-85668039D01*
X154994511Y-85713794D01*
X154943000Y-85725000D01*
X152527000Y-85725000D01*
X152527000Y-86317181D01*
X152507315Y-86384220D01*
X152454511Y-86429975D01*
X152385353Y-86439919D01*
X152328689Y-86416448D01*
X152222088Y-86336646D01*
X152222086Y-86336645D01*
X152087379Y-86286403D01*
X152087372Y-86286401D01*
X152027844Y-86280000D01*
X151380000Y-86280000D01*
X151380000Y-87196988D01*
X151322993Y-87164075D01*
X151195826Y-87130000D01*
X151064174Y-87130000D01*
X150937007Y-87164075D01*
X150880000Y-87196988D01*
X150880000Y-86280000D01*
X150232155Y-86280000D01*
X150172627Y-86286401D01*
X150172620Y-86286403D01*
X150037913Y-86336645D01*
X150037906Y-86336649D01*
X149922812Y-86422809D01*
X149922809Y-86422812D01*
X149836649Y-86537906D01*
X149836645Y-86537913D01*
X149786403Y-86672620D01*
X149786401Y-86672627D01*
X149780000Y-86732155D01*
X149780000Y-87380000D01*
X150696988Y-87380000D01*
X150664075Y-87437007D01*
X150630000Y-87564174D01*
X150630000Y-87695826D01*
X150664075Y-87822993D01*
X150696988Y-87880000D01*
X149780000Y-87880000D01*
X149780000Y-88527844D01*
X149786401Y-88587372D01*
X149786403Y-88587379D01*
X149836645Y-88722086D01*
X149836646Y-88722088D01*
X149916448Y-88828689D01*
X149940865Y-88894153D01*
X149926014Y-88962426D01*
X149876609Y-89011832D01*
X149817181Y-89027000D01*
X146047000Y-89027000D01*
X145979961Y-89007315D01*
X145934206Y-88954511D01*
X145923000Y-88903000D01*
X145923000Y-85979000D01*
X116657865Y-85979000D01*
X116590826Y-85959315D01*
X116545071Y-85906511D01*
X116535127Y-85837353D01*
X116539934Y-85816682D01*
X116590542Y-85660928D01*
X116610504Y-85471000D01*
X116590542Y-85281072D01*
X116531527Y-85099444D01*
X116436040Y-84934056D01*
X116308253Y-84792134D01*
X116153752Y-84679882D01*
X116025400Y-84622736D01*
X115972163Y-84577486D01*
X115951842Y-84510637D01*
X115970887Y-84443414D01*
X116002951Y-84409139D01*
X116054253Y-84371866D01*
X116182040Y-84229944D01*
X116277527Y-84064556D01*
X116315724Y-83947000D01*
X118593496Y-83947000D01*
X118613458Y-84136928D01*
X118613459Y-84136931D01*
X118672470Y-84318549D01*
X118672473Y-84318556D01*
X118767960Y-84483944D01*
X118838692Y-84562500D01*
X118892929Y-84622737D01*
X118895747Y-84625866D01*
X119050248Y-84738118D01*
X119224712Y-84815794D01*
X119411513Y-84855500D01*
X119602487Y-84855500D01*
X119789288Y-84815794D01*
X119963752Y-84738118D01*
X120003829Y-84709000D01*
X121387496Y-84709000D01*
X121407458Y-84898928D01*
X121407459Y-84898931D01*
X121466470Y-85080549D01*
X121466473Y-85080556D01*
X121561960Y-85245944D01*
X121689747Y-85387866D01*
X121844248Y-85500118D01*
X122018712Y-85577794D01*
X122205513Y-85617500D01*
X122396487Y-85617500D01*
X122583288Y-85577794D01*
X122757752Y-85500118D01*
X122912253Y-85387866D01*
X123040040Y-85245944D01*
X123135527Y-85080556D01*
X123194542Y-84898928D01*
X123214504Y-84709000D01*
X123194542Y-84519072D01*
X123135527Y-84337444D01*
X123056751Y-84201000D01*
X143231496Y-84201000D01*
X143251458Y-84390928D01*
X143251459Y-84390931D01*
X143310470Y-84572549D01*
X143310473Y-84572556D01*
X143405960Y-84737944D01*
X143533747Y-84879866D01*
X143688248Y-84992118D01*
X143862712Y-85069794D01*
X144049513Y-85109500D01*
X144240487Y-85109500D01*
X144427288Y-85069794D01*
X144601752Y-84992118D01*
X144641829Y-84963000D01*
X145771496Y-84963000D01*
X145791458Y-85152928D01*
X145791459Y-85152931D01*
X145850470Y-85334549D01*
X145850473Y-85334556D01*
X145945960Y-85499944D01*
X146073747Y-85641866D01*
X146228248Y-85754118D01*
X146402712Y-85831794D01*
X146589513Y-85871500D01*
X146780487Y-85871500D01*
X146967288Y-85831794D01*
X147141752Y-85754118D01*
X147296253Y-85641866D01*
X147424040Y-85499944D01*
X147519527Y-85334556D01*
X147578542Y-85152928D01*
X147582731Y-85113070D01*
X148415426Y-85113070D01*
X148435388Y-85302998D01*
X148435389Y-85303001D01*
X148494400Y-85484619D01*
X148494403Y-85484626D01*
X148589890Y-85650014D01*
X148717677Y-85791936D01*
X148872178Y-85904188D01*
X149046642Y-85981864D01*
X149233443Y-86021570D01*
X149424417Y-86021570D01*
X149611218Y-85981864D01*
X149785682Y-85904188D01*
X149940183Y-85791936D01*
X150067970Y-85650014D01*
X150163457Y-85484626D01*
X150222472Y-85302998D01*
X150242434Y-85113070D01*
X150222472Y-84923142D01*
X150163457Y-84741514D01*
X150111916Y-84652243D01*
X150067971Y-84576127D01*
X150048472Y-84554471D01*
X150018243Y-84491480D01*
X150026869Y-84422144D01*
X150071611Y-84368479D01*
X150138263Y-84347522D01*
X150140623Y-84347500D01*
X150250487Y-84347500D01*
X150437288Y-84307794D01*
X150611752Y-84230118D01*
X150766253Y-84117866D01*
X150894040Y-83975944D01*
X150989527Y-83810556D01*
X151048542Y-83628928D01*
X151068504Y-83439000D01*
X151048542Y-83249072D01*
X150989527Y-83067444D01*
X150894040Y-82902056D01*
X150766253Y-82760134D01*
X150611752Y-82647882D01*
X150437288Y-82570206D01*
X150437286Y-82570205D01*
X150250487Y-82530500D01*
X150059513Y-82530500D01*
X149872714Y-82570205D01*
X149872712Y-82570206D01*
X149719321Y-82638500D01*
X149698246Y-82647883D01*
X149543745Y-82760135D01*
X149415959Y-82902057D01*
X149320473Y-83067443D01*
X149320470Y-83067450D01*
X149261459Y-83249068D01*
X149261458Y-83249072D01*
X149241496Y-83439000D01*
X149261458Y-83628928D01*
X149261459Y-83628931D01*
X149320470Y-83810549D01*
X149320473Y-83810556D01*
X149415958Y-83975942D01*
X149435458Y-83997599D01*
X149465687Y-84060590D01*
X149457061Y-84129926D01*
X149412319Y-84183591D01*
X149345667Y-84204548D01*
X149343307Y-84204570D01*
X149233443Y-84204570D01*
X149046644Y-84244275D01*
X149046642Y-84244276D01*
X148879822Y-84318549D01*
X148872176Y-84321953D01*
X148717675Y-84434205D01*
X148589889Y-84576127D01*
X148494403Y-84741513D01*
X148494400Y-84741520D01*
X148435389Y-84923138D01*
X148435388Y-84923142D01*
X148415426Y-85113070D01*
X147582731Y-85113070D01*
X147598504Y-84963000D01*
X147578542Y-84773072D01*
X147519527Y-84591444D01*
X147424040Y-84426056D01*
X147296253Y-84284134D01*
X147141752Y-84171882D01*
X146967288Y-84094206D01*
X146967286Y-84094205D01*
X146780487Y-84054500D01*
X146589513Y-84054500D01*
X146402714Y-84094205D01*
X146228246Y-84171883D01*
X146073745Y-84284135D01*
X145945959Y-84426057D01*
X145850473Y-84591443D01*
X145850470Y-84591450D01*
X145791459Y-84773068D01*
X145791458Y-84773072D01*
X145771496Y-84963000D01*
X144641829Y-84963000D01*
X144756253Y-84879866D01*
X144884040Y-84737944D01*
X144979527Y-84572556D01*
X145038542Y-84390928D01*
X145058504Y-84201000D01*
X145038542Y-84011072D01*
X144979527Y-83829444D01*
X144884040Y-83664056D01*
X144756253Y-83522134D01*
X144601752Y-83409882D01*
X144427288Y-83332206D01*
X144427286Y-83332205D01*
X144240487Y-83292500D01*
X144049513Y-83292500D01*
X143862714Y-83332205D01*
X143688246Y-83409883D01*
X143533745Y-83522135D01*
X143405959Y-83664057D01*
X143310473Y-83829443D01*
X143310470Y-83829450D01*
X143251459Y-84011068D01*
X143251458Y-84011072D01*
X143231496Y-84201000D01*
X123056751Y-84201000D01*
X123040040Y-84172056D01*
X122912253Y-84030134D01*
X122757752Y-83917882D01*
X122583288Y-83840206D01*
X122583286Y-83840205D01*
X122396487Y-83800500D01*
X122205513Y-83800500D01*
X122018714Y-83840205D01*
X121844246Y-83917883D01*
X121689745Y-84030135D01*
X121561959Y-84172057D01*
X121466473Y-84337443D01*
X121466470Y-84337450D01*
X121407459Y-84519068D01*
X121407458Y-84519072D01*
X121387496Y-84709000D01*
X120003829Y-84709000D01*
X120118253Y-84625866D01*
X120246040Y-84483944D01*
X120341527Y-84318556D01*
X120400542Y-84136928D01*
X120420504Y-83947000D01*
X120400542Y-83757072D01*
X120341527Y-83575444D01*
X120246040Y-83410056D01*
X120118253Y-83268134D01*
X119963752Y-83155882D01*
X119789288Y-83078206D01*
X119789286Y-83078205D01*
X119602487Y-83038500D01*
X119411513Y-83038500D01*
X119224714Y-83078205D01*
X119050246Y-83155883D01*
X118895745Y-83268135D01*
X118767959Y-83410057D01*
X118672473Y-83575443D01*
X118672470Y-83575450D01*
X118634276Y-83693000D01*
X118613458Y-83757072D01*
X118593496Y-83947000D01*
X116315724Y-83947000D01*
X116336542Y-83882928D01*
X116356504Y-83693000D01*
X116336542Y-83503072D01*
X116277527Y-83321444D01*
X116182040Y-83156056D01*
X116054253Y-83014134D01*
X115899752Y-82901882D01*
X115725288Y-82824206D01*
X115725286Y-82824205D01*
X115538487Y-82784500D01*
X115347513Y-82784500D01*
X115160714Y-82824205D01*
X114986246Y-82901883D01*
X114831745Y-83014135D01*
X114703959Y-83156057D01*
X114608473Y-83321443D01*
X114608470Y-83321450D01*
X114570276Y-83439000D01*
X114549458Y-83503072D01*
X114529496Y-83693000D01*
X114549458Y-83882928D01*
X114549459Y-83882931D01*
X114608470Y-84064549D01*
X114608473Y-84064556D01*
X114703960Y-84229944D01*
X114831747Y-84371866D01*
X114986248Y-84484118D01*
X115114600Y-84541263D01*
X115167835Y-84586512D01*
X115188157Y-84653361D01*
X115169112Y-84720585D01*
X115137050Y-84754859D01*
X115085746Y-84792134D01*
X114957959Y-84934057D01*
X114862473Y-85099443D01*
X114862470Y-85099450D01*
X114803459Y-85281068D01*
X114803458Y-85281072D01*
X114783496Y-85471000D01*
X114803458Y-85660928D01*
X114803459Y-85660931D01*
X114854066Y-85816682D01*
X114856061Y-85886523D01*
X114819981Y-85946356D01*
X114757280Y-85977184D01*
X114736135Y-85979000D01*
X110617000Y-85979000D01*
X110617000Y-88903000D01*
X110597315Y-88970039D01*
X110544511Y-89015794D01*
X110493000Y-89027000D01*
X106183631Y-89027000D01*
X106124612Y-89012054D01*
X106112302Y-89005392D01*
X106062712Y-88956172D01*
X106047605Y-88887956D01*
X106071776Y-88822400D01*
X106100198Y-88794763D01*
X106281079Y-88668108D01*
X106448105Y-88501082D01*
X106583600Y-88307578D01*
X106683429Y-88093492D01*
X106683432Y-88093486D01*
X106740636Y-87880000D01*
X105843012Y-87880000D01*
X105875925Y-87822993D01*
X105910000Y-87695826D01*
X105910000Y-87564174D01*
X105875925Y-87437007D01*
X105843012Y-87380000D01*
X106740636Y-87380000D01*
X106740635Y-87379999D01*
X106683432Y-87166513D01*
X106683429Y-87166507D01*
X106583600Y-86952422D01*
X106583599Y-86952420D01*
X106448113Y-86758926D01*
X106448108Y-86758920D01*
X106281082Y-86591894D01*
X106087578Y-86456399D01*
X105873492Y-86356570D01*
X105873486Y-86356567D01*
X105660000Y-86299364D01*
X105660000Y-87196988D01*
X105602993Y-87164075D01*
X105475826Y-87130000D01*
X105344174Y-87130000D01*
X105217007Y-87164075D01*
X105160000Y-87196988D01*
X105160000Y-86299364D01*
X105159999Y-86299364D01*
X104946513Y-86356567D01*
X104946507Y-86356570D01*
X104732422Y-86456399D01*
X104732420Y-86456400D01*
X104538926Y-86591886D01*
X104446098Y-86684714D01*
X104384774Y-86718198D01*
X104315083Y-86713214D01*
X104259150Y-86671342D01*
X104234733Y-86605877D01*
X104234925Y-86585815D01*
X104267000Y-86233000D01*
X103779861Y-86233000D01*
X103712822Y-86213315D01*
X103667067Y-86160511D01*
X103657123Y-86091353D01*
X103686148Y-86027797D01*
X103706975Y-86008682D01*
X103707750Y-86008118D01*
X103707752Y-86008118D01*
X103862253Y-85895866D01*
X103990040Y-85753944D01*
X104085527Y-85588556D01*
X104144542Y-85406928D01*
X104164504Y-85217000D01*
X105893496Y-85217000D01*
X105913458Y-85406928D01*
X105913459Y-85406931D01*
X105972470Y-85588549D01*
X105972473Y-85588556D01*
X106067960Y-85753944D01*
X106143062Y-85837353D01*
X106187334Y-85886523D01*
X106195747Y-85895866D01*
X106350248Y-86008118D01*
X106524712Y-86085794D01*
X106711513Y-86125500D01*
X106902487Y-86125500D01*
X107089288Y-86085794D01*
X107263752Y-86008118D01*
X107418253Y-85895866D01*
X107546040Y-85753944D01*
X107641527Y-85588556D01*
X107700542Y-85406928D01*
X107720504Y-85217000D01*
X107700542Y-85027072D01*
X107641527Y-84845444D01*
X107546040Y-84680056D01*
X107430981Y-84552270D01*
X107418254Y-84538135D01*
X107406616Y-84529679D01*
X107263752Y-84425882D01*
X107089288Y-84348206D01*
X107089286Y-84348205D01*
X106902487Y-84308500D01*
X106711513Y-84308500D01*
X106524714Y-84348205D01*
X106350246Y-84425883D01*
X106195745Y-84538135D01*
X106067959Y-84680057D01*
X105972473Y-84845443D01*
X105972470Y-84845450D01*
X105934276Y-84963000D01*
X105913458Y-85027072D01*
X105893496Y-85217000D01*
X104164504Y-85217000D01*
X104144542Y-85027072D01*
X104085527Y-84845444D01*
X103990040Y-84680056D01*
X103874981Y-84552270D01*
X103862254Y-84538135D01*
X103850616Y-84529679D01*
X103707752Y-84425882D01*
X103533288Y-84348206D01*
X103533286Y-84348205D01*
X103346487Y-84308500D01*
X103155513Y-84308500D01*
X102968714Y-84348205D01*
X102794246Y-84425883D01*
X102639745Y-84538135D01*
X102511959Y-84680057D01*
X102416473Y-84845443D01*
X102416470Y-84845450D01*
X102378276Y-84963000D01*
X102357458Y-85027072D01*
X102337496Y-85217000D01*
X102357458Y-85406928D01*
X102357459Y-85406931D01*
X102416470Y-85588549D01*
X102416473Y-85588556D01*
X102511960Y-85753944D01*
X102587062Y-85837353D01*
X102631334Y-85886523D01*
X102639747Y-85895866D01*
X102794248Y-86008118D01*
X102794249Y-86008118D01*
X102795025Y-86008682D01*
X102837690Y-86064012D01*
X102843669Y-86133625D01*
X102811063Y-86195420D01*
X102750224Y-86229778D01*
X102722139Y-86233000D01*
X101597000Y-86233000D01*
X101529961Y-86213315D01*
X101484206Y-86160511D01*
X101473000Y-86109000D01*
X101473000Y-81279994D01*
X112936844Y-81279994D01*
X112936844Y-81280005D01*
X112955434Y-81504359D01*
X112955436Y-81504371D01*
X113010703Y-81722614D01*
X113101140Y-81928792D01*
X113224276Y-82117265D01*
X113224284Y-82117276D01*
X113376756Y-82282902D01*
X113376760Y-82282906D01*
X113554424Y-82421189D01*
X113554425Y-82421189D01*
X113554427Y-82421191D01*
X113681135Y-82489761D01*
X113752426Y-82528342D01*
X113965365Y-82601444D01*
X114187431Y-82638500D01*
X114412569Y-82638500D01*
X114634635Y-82601444D01*
X114847574Y-82528342D01*
X115045576Y-82421189D01*
X115223240Y-82282906D01*
X115375722Y-82117268D01*
X115498860Y-81928791D01*
X115589296Y-81722616D01*
X115644564Y-81504368D01*
X115644565Y-81504359D01*
X115663156Y-81280005D01*
X115663156Y-81279994D01*
X115644565Y-81055640D01*
X115644563Y-81055628D01*
X115624928Y-80978092D01*
X115589296Y-80837384D01*
X115504909Y-80645000D01*
X121387496Y-80645000D01*
X121407458Y-80834928D01*
X121407459Y-80834931D01*
X121466470Y-81016549D01*
X121466473Y-81016556D01*
X121561960Y-81181944D01*
X121689747Y-81323866D01*
X121844248Y-81436118D01*
X122018712Y-81513794D01*
X122205513Y-81553500D01*
X122396487Y-81553500D01*
X122575543Y-81515440D01*
X122645209Y-81520756D01*
X122700942Y-81562893D01*
X122725048Y-81628472D01*
X122724851Y-81647536D01*
X122713788Y-81773996D01*
X122713788Y-81774001D01*
X122732598Y-81989007D01*
X122732600Y-81989018D01*
X122788458Y-82197485D01*
X122788460Y-82197489D01*
X122788461Y-82197493D01*
X122828288Y-82282902D01*
X122879676Y-82393105D01*
X122899341Y-82421189D01*
X123003475Y-82569907D01*
X123156093Y-82722525D01*
X123332894Y-82846323D01*
X123528507Y-82937539D01*
X123736987Y-82993401D01*
X123890567Y-83006837D01*
X123951998Y-83012212D01*
X123952000Y-83012212D01*
X123952002Y-83012212D01*
X124005753Y-83007509D01*
X124167013Y-82993401D01*
X124375493Y-82937539D01*
X124571106Y-82846323D01*
X124747907Y-82722525D01*
X124900525Y-82569907D01*
X125024323Y-82393106D01*
X125115539Y-82197493D01*
X125171401Y-81989013D01*
X125190212Y-81774000D01*
X125190212Y-81773998D01*
X131353788Y-81773998D01*
X131353788Y-81774001D01*
X131372598Y-81989007D01*
X131372600Y-81989018D01*
X131428458Y-82197485D01*
X131428460Y-82197489D01*
X131428461Y-82197493D01*
X131468288Y-82282902D01*
X131519676Y-82393105D01*
X131539341Y-82421189D01*
X131643475Y-82569907D01*
X131796093Y-82722525D01*
X131972894Y-82846323D01*
X132168507Y-82937539D01*
X132376987Y-82993401D01*
X132530567Y-83006837D01*
X132591998Y-83012212D01*
X132592000Y-83012212D01*
X132592002Y-83012212D01*
X132645753Y-83007509D01*
X132807013Y-82993401D01*
X133015493Y-82937539D01*
X133211106Y-82846323D01*
X133387907Y-82722525D01*
X133540525Y-82569907D01*
X133664323Y-82393106D01*
X133755539Y-82197493D01*
X133811401Y-81989013D01*
X133830212Y-81774000D01*
X133811401Y-81558987D01*
X133755539Y-81350507D01*
X133722658Y-81279994D01*
X140876844Y-81279994D01*
X140876844Y-81280005D01*
X140895434Y-81504359D01*
X140895436Y-81504371D01*
X140950703Y-81722614D01*
X141041140Y-81928792D01*
X141164276Y-82117265D01*
X141164284Y-82117276D01*
X141316756Y-82282902D01*
X141316760Y-82282906D01*
X141494424Y-82421189D01*
X141494425Y-82421189D01*
X141494427Y-82421191D01*
X141621135Y-82489761D01*
X141692426Y-82528342D01*
X141905365Y-82601444D01*
X142127431Y-82638500D01*
X142352569Y-82638500D01*
X142574635Y-82601444D01*
X142787574Y-82528342D01*
X142985576Y-82421189D01*
X143163240Y-82282906D01*
X143315722Y-82117268D01*
X143438860Y-81928791D01*
X143529296Y-81722616D01*
X143584564Y-81504368D01*
X143584565Y-81504359D01*
X143603156Y-81280005D01*
X143603156Y-81279994D01*
X143592633Y-81153000D01*
X143993496Y-81153000D01*
X144013458Y-81342928D01*
X144013459Y-81342931D01*
X144072470Y-81524549D01*
X144072473Y-81524556D01*
X144167960Y-81689944D01*
X144295747Y-81831866D01*
X144450248Y-81944118D01*
X144624712Y-82021794D01*
X144811513Y-82061500D01*
X145002487Y-82061500D01*
X145189288Y-82021794D01*
X145363752Y-81944118D01*
X145518253Y-81831866D01*
X145646040Y-81689944D01*
X145741527Y-81524556D01*
X145800542Y-81342928D01*
X145820504Y-81153000D01*
X145800542Y-80963072D01*
X145741527Y-80781444D01*
X145646040Y-80616056D01*
X145518253Y-80474134D01*
X145363752Y-80361882D01*
X145189288Y-80284206D01*
X145189286Y-80284205D01*
X145002487Y-80244500D01*
X144811513Y-80244500D01*
X144624714Y-80284205D01*
X144450246Y-80361883D01*
X144295745Y-80474135D01*
X144167959Y-80616057D01*
X144072473Y-80781443D01*
X144072470Y-80781450D01*
X144013459Y-80963068D01*
X144013458Y-80963072D01*
X143993496Y-81153000D01*
X143592633Y-81153000D01*
X143584565Y-81055640D01*
X143584563Y-81055628D01*
X143564928Y-80978092D01*
X143529296Y-80837384D01*
X143438860Y-80631209D01*
X143425305Y-80610462D01*
X143376518Y-80535788D01*
X143315722Y-80442732D01*
X143315719Y-80442729D01*
X143315715Y-80442723D01*
X143170510Y-80284991D01*
X143139587Y-80222337D01*
X143147447Y-80152911D01*
X143191594Y-80098755D01*
X143218405Y-80084827D01*
X143298584Y-80054920D01*
X143336204Y-80040889D01*
X143453261Y-79953261D01*
X143540889Y-79836204D01*
X143591989Y-79699201D01*
X143596406Y-79658116D01*
X143598499Y-79638654D01*
X143598500Y-79638637D01*
X143598500Y-79066325D01*
X143618185Y-78999286D01*
X143670989Y-78953531D01*
X143740147Y-78943587D01*
X143803703Y-78972612D01*
X143829885Y-79004323D01*
X143913960Y-79149944D01*
X144041747Y-79291866D01*
X144196248Y-79404118D01*
X144370712Y-79481794D01*
X144557513Y-79521500D01*
X144748487Y-79521500D01*
X144935288Y-79481794D01*
X145109752Y-79404118D01*
X145264253Y-79291866D01*
X145392040Y-79149944D01*
X145487527Y-78984556D01*
X145546542Y-78802928D01*
X145566504Y-78613000D01*
X145546542Y-78423072D01*
X145487527Y-78241444D01*
X145392040Y-78076056D01*
X145264253Y-77934134D01*
X145109752Y-77821882D01*
X144935288Y-77744206D01*
X144935286Y-77744205D01*
X144748487Y-77704500D01*
X144557513Y-77704500D01*
X144370714Y-77744205D01*
X144196246Y-77821883D01*
X144041745Y-77934135D01*
X143913959Y-78076057D01*
X143829887Y-78221674D01*
X143779320Y-78269890D01*
X143710713Y-78283113D01*
X143645848Y-78257145D01*
X143605320Y-78200230D01*
X143598500Y-78159674D01*
X143598500Y-77841362D01*
X143598499Y-77841345D01*
X143595078Y-77809532D01*
X143591989Y-77780799D01*
X143583855Y-77758992D01*
X143554443Y-77680135D01*
X143540889Y-77643796D01*
X143453261Y-77526739D01*
X143336204Y-77439111D01*
X143199203Y-77388011D01*
X143138654Y-77381500D01*
X143138638Y-77381500D01*
X141341362Y-77381500D01*
X141341345Y-77381500D01*
X141280797Y-77388011D01*
X141280795Y-77388011D01*
X141143795Y-77439111D01*
X141026739Y-77526739D01*
X140939111Y-77643795D01*
X140888011Y-77780795D01*
X140888011Y-77780797D01*
X140881500Y-77841345D01*
X140881500Y-79638654D01*
X140888011Y-79699202D01*
X140888011Y-79699204D01*
X140925557Y-79799866D01*
X140939111Y-79836204D01*
X141026739Y-79953261D01*
X141143796Y-80040889D01*
X141195737Y-80060262D01*
X141261595Y-80084827D01*
X141317528Y-80126699D01*
X141341944Y-80192163D01*
X141327092Y-80260436D01*
X141309490Y-80284991D01*
X141164279Y-80442730D01*
X141164276Y-80442734D01*
X141041140Y-80631207D01*
X140950703Y-80837385D01*
X140895436Y-81055628D01*
X140895434Y-81055640D01*
X140876844Y-81279994D01*
X133722658Y-81279994D01*
X133664323Y-81154894D01*
X133540525Y-80978093D01*
X133387907Y-80825475D01*
X133211106Y-80701677D01*
X133211107Y-80701677D01*
X133211105Y-80701676D01*
X133059987Y-80631209D01*
X133015493Y-80610461D01*
X133015489Y-80610460D01*
X133015485Y-80610458D01*
X132807018Y-80554600D01*
X132807014Y-80554599D01*
X132807013Y-80554599D01*
X132807012Y-80554598D01*
X132807007Y-80554598D01*
X132592002Y-80535788D01*
X132591998Y-80535788D01*
X132376992Y-80554598D01*
X132376981Y-80554600D01*
X132168514Y-80610458D01*
X132168505Y-80610462D01*
X131972894Y-80701676D01*
X131796092Y-80825475D01*
X131643475Y-80978092D01*
X131519676Y-81154894D01*
X131428462Y-81350505D01*
X131428458Y-81350514D01*
X131372600Y-81558981D01*
X131372598Y-81558992D01*
X131353788Y-81773998D01*
X125190212Y-81773998D01*
X125171401Y-81558987D01*
X125115539Y-81350507D01*
X125024323Y-81154894D01*
X124900525Y-80978093D01*
X124747907Y-80825475D01*
X124571106Y-80701677D01*
X124571107Y-80701677D01*
X124571105Y-80701676D01*
X124449562Y-80645000D01*
X125705496Y-80645000D01*
X125725458Y-80834928D01*
X125725459Y-80834931D01*
X125784470Y-81016549D01*
X125784473Y-81016556D01*
X125879960Y-81181944D01*
X126007747Y-81323866D01*
X126162248Y-81436118D01*
X126336712Y-81513794D01*
X126523513Y-81553500D01*
X126714487Y-81553500D01*
X126901288Y-81513794D01*
X127075752Y-81436118D01*
X127230253Y-81323866D01*
X127358040Y-81181944D01*
X127453527Y-81016556D01*
X127512542Y-80834928D01*
X127532504Y-80645000D01*
X129007496Y-80645000D01*
X129027458Y-80834928D01*
X129027459Y-80834931D01*
X129086470Y-81016549D01*
X129086473Y-81016556D01*
X129181960Y-81181944D01*
X129309747Y-81323866D01*
X129464248Y-81436118D01*
X129638712Y-81513794D01*
X129825513Y-81553500D01*
X130016487Y-81553500D01*
X130203288Y-81513794D01*
X130377752Y-81436118D01*
X130532253Y-81323866D01*
X130660040Y-81181944D01*
X130755527Y-81016556D01*
X130814542Y-80834928D01*
X130834504Y-80645000D01*
X130814542Y-80455072D01*
X130755527Y-80273444D01*
X130660040Y-80108056D01*
X130532253Y-79966134D01*
X130377752Y-79853882D01*
X130203288Y-79776206D01*
X130203286Y-79776205D01*
X130016487Y-79736500D01*
X129825513Y-79736500D01*
X129638714Y-79776205D01*
X129464246Y-79853883D01*
X129309745Y-79966135D01*
X129181959Y-80108057D01*
X129086473Y-80273443D01*
X129086470Y-80273450D01*
X129031467Y-80442734D01*
X129027458Y-80455072D01*
X129007496Y-80645000D01*
X127532504Y-80645000D01*
X127512542Y-80455072D01*
X127453527Y-80273444D01*
X127358040Y-80108056D01*
X127230253Y-79966134D01*
X127075752Y-79853882D01*
X126901288Y-79776206D01*
X126901286Y-79776205D01*
X126714487Y-79736500D01*
X126523513Y-79736500D01*
X126336714Y-79776205D01*
X126162246Y-79853883D01*
X126007745Y-79966135D01*
X125879959Y-80108057D01*
X125784473Y-80273443D01*
X125784470Y-80273450D01*
X125729467Y-80442734D01*
X125725458Y-80455072D01*
X125705496Y-80645000D01*
X124449562Y-80645000D01*
X124419987Y-80631209D01*
X124375493Y-80610461D01*
X124375489Y-80610460D01*
X124375485Y-80610458D01*
X124167018Y-80554600D01*
X124167014Y-80554599D01*
X124167013Y-80554599D01*
X124167012Y-80554598D01*
X124167007Y-80554598D01*
X123952002Y-80535788D01*
X123951998Y-80535788D01*
X123736992Y-80554598D01*
X123736981Y-80554600D01*
X123528514Y-80610458D01*
X123528505Y-80610462D01*
X123383268Y-80678187D01*
X123314190Y-80688679D01*
X123250406Y-80660159D01*
X123212167Y-80601682D01*
X123207543Y-80578772D01*
X123194542Y-80455072D01*
X123135527Y-80273444D01*
X123040040Y-80108056D01*
X122912253Y-79966134D01*
X122757752Y-79853882D01*
X122583288Y-79776206D01*
X122583286Y-79776205D01*
X122396487Y-79736500D01*
X122205513Y-79736500D01*
X122018714Y-79776205D01*
X121844246Y-79853883D01*
X121689745Y-79966135D01*
X121561959Y-80108057D01*
X121466473Y-80273443D01*
X121466470Y-80273450D01*
X121411467Y-80442734D01*
X121407458Y-80455072D01*
X121387496Y-80645000D01*
X115504909Y-80645000D01*
X115498860Y-80631209D01*
X115485305Y-80610462D01*
X115436518Y-80535788D01*
X115375722Y-80442732D01*
X115375719Y-80442729D01*
X115375715Y-80442723D01*
X115230510Y-80284991D01*
X115199587Y-80222337D01*
X115207447Y-80152911D01*
X115251594Y-80098755D01*
X115278405Y-80084827D01*
X115358584Y-80054920D01*
X115396204Y-80040889D01*
X115513261Y-79953261D01*
X115600889Y-79836204D01*
X115611303Y-79808282D01*
X115653172Y-79752350D01*
X115718637Y-79727932D01*
X115786910Y-79742783D01*
X115819633Y-79768643D01*
X115826443Y-79776206D01*
X115847747Y-79799866D01*
X116002248Y-79912118D01*
X116176712Y-79989794D01*
X116363513Y-80029500D01*
X116554487Y-80029500D01*
X116741288Y-79989794D01*
X116915752Y-79912118D01*
X117070253Y-79799866D01*
X117198040Y-79657944D01*
X117293527Y-79492556D01*
X117352542Y-79310928D01*
X117372504Y-79121000D01*
X117352542Y-78931072D01*
X117293527Y-78749444D01*
X117198040Y-78584056D01*
X117070253Y-78442134D01*
X116915752Y-78329882D01*
X116741288Y-78252206D01*
X116741286Y-78252205D01*
X116554487Y-78212500D01*
X116363513Y-78212500D01*
X116176714Y-78252205D01*
X116002246Y-78329883D01*
X115913814Y-78394133D01*
X115873984Y-78423072D01*
X115855386Y-78436584D01*
X115789579Y-78460064D01*
X115721525Y-78444239D01*
X115672830Y-78394133D01*
X115658500Y-78336266D01*
X115658500Y-77841362D01*
X115658499Y-77841345D01*
X115655078Y-77809532D01*
X115651989Y-77780799D01*
X115643855Y-77758992D01*
X115614443Y-77680135D01*
X115600889Y-77643796D01*
X115513261Y-77526739D01*
X115396204Y-77439111D01*
X115259203Y-77388011D01*
X115198654Y-77381500D01*
X115198638Y-77381500D01*
X113401362Y-77381500D01*
X113401345Y-77381500D01*
X113340797Y-77388011D01*
X113340795Y-77388011D01*
X113203795Y-77439111D01*
X113086739Y-77526739D01*
X112999111Y-77643795D01*
X112948011Y-77780795D01*
X112948011Y-77780797D01*
X112941500Y-77841345D01*
X112941500Y-79638654D01*
X112948011Y-79699202D01*
X112948011Y-79699204D01*
X112985557Y-79799866D01*
X112999111Y-79836204D01*
X113086739Y-79953261D01*
X113203796Y-80040889D01*
X113255737Y-80060262D01*
X113321595Y-80084827D01*
X113377528Y-80126699D01*
X113401944Y-80192163D01*
X113387092Y-80260436D01*
X113369490Y-80284991D01*
X113224279Y-80442730D01*
X113224276Y-80442734D01*
X113101140Y-80631207D01*
X113010703Y-80837385D01*
X112955436Y-81055628D01*
X112955434Y-81055640D01*
X112936844Y-81279994D01*
X101473000Y-81279994D01*
X101473000Y-75435000D01*
X101492685Y-75367961D01*
X101545489Y-75322206D01*
X101597000Y-75311000D01*
X110672135Y-75311000D01*
X110739174Y-75330685D01*
G37*
%TD.AperFunction*%
%TD*%
M02*
