%TF.GenerationSoftware,KiCad,Pcbnew,(6.0.10-0)*%
%TF.CreationDate,2023-02-08T19:20:36-07:00*%
%TF.ProjectId,Breadboard Power Supply,42726561-6462-46f6-9172-6420506f7765,v1*%
%TF.SameCoordinates,Original*%
%TF.FileFunction,Legend,Top*%
%TF.FilePolarity,Positive*%
%FSLAX46Y46*%
G04 Gerber Fmt 4.6, Leading zero omitted, Abs format (unit mm)*
G04 Created by KiCad (PCBNEW (6.0.10-0)) date 2023-02-08 19:20:36*
%MOMM*%
%LPD*%
G01*
G04 APERTURE LIST*
%ADD10C,0.100000*%
%ADD11C,0.120000*%
%ADD12C,0.127000*%
%ADD13C,0.200000*%
G04 APERTURE END LIST*
D10*
X145604666Y-105375000D02*
X145604666Y-105775000D01*
X145604666Y-105575000D02*
X144904666Y-105575000D01*
X145004666Y-105641666D01*
X145071333Y-105708333D01*
X145104666Y-105775000D01*
X145538000Y-105075000D02*
X145571333Y-105041666D01*
X145604666Y-105075000D01*
X145571333Y-105108333D01*
X145538000Y-105075000D01*
X145604666Y-105075000D01*
X145204666Y-104641666D02*
X145171333Y-104708333D01*
X145138000Y-104741666D01*
X145071333Y-104775000D01*
X145038000Y-104775000D01*
X144971333Y-104741666D01*
X144938000Y-104708333D01*
X144904666Y-104641666D01*
X144904666Y-104508333D01*
X144938000Y-104441666D01*
X144971333Y-104408333D01*
X145038000Y-104375000D01*
X145071333Y-104375000D01*
X145138000Y-104408333D01*
X145171333Y-104441666D01*
X145204666Y-104508333D01*
X145204666Y-104641666D01*
X145238000Y-104708333D01*
X145271333Y-104741666D01*
X145338000Y-104775000D01*
X145471333Y-104775000D01*
X145538000Y-104741666D01*
X145571333Y-104708333D01*
X145604666Y-104641666D01*
X145604666Y-104508333D01*
X145571333Y-104441666D01*
X145538000Y-104408333D01*
X145471333Y-104375000D01*
X145338000Y-104375000D01*
X145271333Y-104408333D01*
X145238000Y-104441666D01*
X145204666Y-104508333D01*
X144904666Y-104175000D02*
X145604666Y-103941666D01*
X144904666Y-103708333D01*
X103873333Y-106984000D02*
X104406666Y-106984000D01*
X104140000Y-107250666D02*
X104140000Y-106717333D01*
X144904666Y-101998333D02*
X144904666Y-101565000D01*
X145171333Y-101798333D01*
X145171333Y-101698333D01*
X145204666Y-101631666D01*
X145238000Y-101598333D01*
X145304666Y-101565000D01*
X145471333Y-101565000D01*
X145538000Y-101598333D01*
X145571333Y-101631666D01*
X145604666Y-101698333D01*
X145604666Y-101898333D01*
X145571333Y-101965000D01*
X145538000Y-101998333D01*
X145538000Y-101265000D02*
X145571333Y-101231666D01*
X145604666Y-101265000D01*
X145571333Y-101298333D01*
X145538000Y-101265000D01*
X145604666Y-101265000D01*
X144904666Y-100998333D02*
X144904666Y-100565000D01*
X145171333Y-100798333D01*
X145171333Y-100698333D01*
X145204666Y-100631666D01*
X145238000Y-100598333D01*
X145304666Y-100565000D01*
X145471333Y-100565000D01*
X145538000Y-100598333D01*
X145571333Y-100631666D01*
X145604666Y-100698333D01*
X145604666Y-100898333D01*
X145571333Y-100965000D01*
X145538000Y-100998333D01*
X144904666Y-100365000D02*
X145604666Y-100131666D01*
X144904666Y-99898333D01*
X108328666Y-101998333D02*
X108328666Y-101565000D01*
X108595333Y-101798333D01*
X108595333Y-101698333D01*
X108628666Y-101631666D01*
X108662000Y-101598333D01*
X108728666Y-101565000D01*
X108895333Y-101565000D01*
X108962000Y-101598333D01*
X108995333Y-101631666D01*
X109028666Y-101698333D01*
X109028666Y-101898333D01*
X108995333Y-101965000D01*
X108962000Y-101998333D01*
X108962000Y-101265000D02*
X108995333Y-101231666D01*
X109028666Y-101265000D01*
X108995333Y-101298333D01*
X108962000Y-101265000D01*
X109028666Y-101265000D01*
X108328666Y-100998333D02*
X108328666Y-100565000D01*
X108595333Y-100798333D01*
X108595333Y-100698333D01*
X108628666Y-100631666D01*
X108662000Y-100598333D01*
X108728666Y-100565000D01*
X108895333Y-100565000D01*
X108962000Y-100598333D01*
X108995333Y-100631666D01*
X109028666Y-100698333D01*
X109028666Y-100898333D01*
X108995333Y-100965000D01*
X108962000Y-100998333D01*
X108328666Y-100365000D02*
X109028666Y-100131666D01*
X108328666Y-99898333D01*
X149466333Y-106984000D02*
X149999666Y-106984000D01*
X146926333Y-106984000D02*
X147459666Y-106984000D01*
X147193000Y-107250666D02*
X147193000Y-106717333D01*
X109028666Y-105375000D02*
X109028666Y-105775000D01*
X109028666Y-105575000D02*
X108328666Y-105575000D01*
X108428666Y-105641666D01*
X108495333Y-105708333D01*
X108528666Y-105775000D01*
X108962000Y-105075000D02*
X108995333Y-105041666D01*
X109028666Y-105075000D01*
X108995333Y-105108333D01*
X108962000Y-105075000D01*
X109028666Y-105075000D01*
X108628666Y-104641666D02*
X108595333Y-104708333D01*
X108562000Y-104741666D01*
X108495333Y-104775000D01*
X108462000Y-104775000D01*
X108395333Y-104741666D01*
X108362000Y-104708333D01*
X108328666Y-104641666D01*
X108328666Y-104508333D01*
X108362000Y-104441666D01*
X108395333Y-104408333D01*
X108462000Y-104375000D01*
X108495333Y-104375000D01*
X108562000Y-104408333D01*
X108595333Y-104441666D01*
X108628666Y-104508333D01*
X108628666Y-104641666D01*
X108662000Y-104708333D01*
X108695333Y-104741666D01*
X108762000Y-104775000D01*
X108895333Y-104775000D01*
X108962000Y-104741666D01*
X108995333Y-104708333D01*
X109028666Y-104641666D01*
X109028666Y-104508333D01*
X108995333Y-104441666D01*
X108962000Y-104408333D01*
X108895333Y-104375000D01*
X108762000Y-104375000D01*
X108695333Y-104408333D01*
X108662000Y-104441666D01*
X108628666Y-104508333D01*
X108328666Y-104175000D02*
X109028666Y-103941666D01*
X108328666Y-103708333D01*
X108328666Y-97288333D02*
X108328666Y-97621666D01*
X108662000Y-97655000D01*
X108628666Y-97621666D01*
X108595333Y-97555000D01*
X108595333Y-97388333D01*
X108628666Y-97321666D01*
X108662000Y-97288333D01*
X108728666Y-97255000D01*
X108895333Y-97255000D01*
X108962000Y-97288333D01*
X108995333Y-97321666D01*
X109028666Y-97388333D01*
X109028666Y-97555000D01*
X108995333Y-97621666D01*
X108962000Y-97655000D01*
X108328666Y-97055000D02*
X109028666Y-96821666D01*
X108328666Y-96588333D01*
X106413333Y-106984000D02*
X106946666Y-106984000D01*
X144904666Y-97288333D02*
X144904666Y-97621666D01*
X145238000Y-97655000D01*
X145204666Y-97621666D01*
X145171333Y-97555000D01*
X145171333Y-97388333D01*
X145204666Y-97321666D01*
X145238000Y-97288333D01*
X145304666Y-97255000D01*
X145471333Y-97255000D01*
X145538000Y-97288333D01*
X145571333Y-97321666D01*
X145604666Y-97388333D01*
X145604666Y-97555000D01*
X145571333Y-97621666D01*
X145538000Y-97655000D01*
X144904666Y-97055000D02*
X145604666Y-96821666D01*
X144904666Y-96588333D01*
%TO.C,J3*%
X151274666Y-101071333D02*
X151774666Y-101071333D01*
X151874666Y-101104666D01*
X151941333Y-101171333D01*
X151974666Y-101271333D01*
X151974666Y-101338000D01*
X151274666Y-100804666D02*
X151274666Y-100371333D01*
X151541333Y-100604666D01*
X151541333Y-100504666D01*
X151574666Y-100438000D01*
X151608000Y-100404666D01*
X151674666Y-100371333D01*
X151841333Y-100371333D01*
X151908000Y-100404666D01*
X151941333Y-100438000D01*
X151974666Y-100504666D01*
X151974666Y-100704666D01*
X151941333Y-100771333D01*
X151908000Y-100804666D01*
%TO.C,D1*%
X121149333Y-78040666D02*
X121149333Y-77340666D01*
X121316000Y-77340666D01*
X121416000Y-77374000D01*
X121482666Y-77440666D01*
X121516000Y-77507333D01*
X121549333Y-77640666D01*
X121549333Y-77740666D01*
X121516000Y-77874000D01*
X121482666Y-77940666D01*
X121416000Y-78007333D01*
X121316000Y-78040666D01*
X121149333Y-78040666D01*
X122216000Y-78040666D02*
X121816000Y-78040666D01*
X122016000Y-78040666D02*
X122016000Y-77340666D01*
X121949333Y-77440666D01*
X121882666Y-77507333D01*
X121816000Y-77540666D01*
%TO.C,R2*%
X137805333Y-81596666D02*
X137572000Y-81263333D01*
X137405333Y-81596666D02*
X137405333Y-80896666D01*
X137672000Y-80896666D01*
X137738666Y-80930000D01*
X137772000Y-80963333D01*
X137805333Y-81030000D01*
X137805333Y-81130000D01*
X137772000Y-81196666D01*
X137738666Y-81230000D01*
X137672000Y-81263333D01*
X137405333Y-81263333D01*
X138072000Y-80963333D02*
X138105333Y-80930000D01*
X138172000Y-80896666D01*
X138338666Y-80896666D01*
X138405333Y-80930000D01*
X138438666Y-80963333D01*
X138472000Y-81030000D01*
X138472000Y-81096666D01*
X138438666Y-81196666D01*
X138038666Y-81596666D01*
X138472000Y-81596666D01*
%TO.C,C2*%
X114437333Y-81911000D02*
X114404000Y-81944333D01*
X114304000Y-81977666D01*
X114237333Y-81977666D01*
X114137333Y-81944333D01*
X114070666Y-81877666D01*
X114037333Y-81811000D01*
X114004000Y-81677666D01*
X114004000Y-81577666D01*
X114037333Y-81444333D01*
X114070666Y-81377666D01*
X114137333Y-81311000D01*
X114237333Y-81277666D01*
X114304000Y-81277666D01*
X114404000Y-81311000D01*
X114437333Y-81344333D01*
X114704000Y-81344333D02*
X114737333Y-81311000D01*
X114804000Y-81277666D01*
X114970666Y-81277666D01*
X115037333Y-81311000D01*
X115070666Y-81344333D01*
X115104000Y-81411000D01*
X115104000Y-81477666D01*
X115070666Y-81577666D01*
X114670666Y-81977666D01*
X115104000Y-81977666D01*
%TO.C,R1*%
X136916333Y-77151666D02*
X136683000Y-76818333D01*
X136516333Y-77151666D02*
X136516333Y-76451666D01*
X136783000Y-76451666D01*
X136849666Y-76485000D01*
X136883000Y-76518333D01*
X136916333Y-76585000D01*
X136916333Y-76685000D01*
X136883000Y-76751666D01*
X136849666Y-76785000D01*
X136783000Y-76818333D01*
X136516333Y-76818333D01*
X137583000Y-77151666D02*
X137183000Y-77151666D01*
X137383000Y-77151666D02*
X137383000Y-76451666D01*
X137316333Y-76551666D01*
X137249666Y-76618333D01*
X137183000Y-76651666D01*
%TO.C,C4*%
X110140333Y-77720000D02*
X110107000Y-77753333D01*
X110007000Y-77786666D01*
X109940333Y-77786666D01*
X109840333Y-77753333D01*
X109773666Y-77686666D01*
X109740333Y-77620000D01*
X109707000Y-77486666D01*
X109707000Y-77386666D01*
X109740333Y-77253333D01*
X109773666Y-77186666D01*
X109840333Y-77120000D01*
X109940333Y-77086666D01*
X110007000Y-77086666D01*
X110107000Y-77120000D01*
X110140333Y-77153333D01*
X110740333Y-77320000D02*
X110740333Y-77786666D01*
X110573666Y-77053333D02*
X110407000Y-77553333D01*
X110840333Y-77553333D01*
%TO.C,TP2*%
X121036666Y-88008666D02*
X121436666Y-88008666D01*
X121236666Y-88708666D02*
X121236666Y-88008666D01*
X121670000Y-88708666D02*
X121670000Y-88008666D01*
X121936666Y-88008666D01*
X122003333Y-88042000D01*
X122036666Y-88075333D01*
X122070000Y-88142000D01*
X122070000Y-88242000D01*
X122036666Y-88308666D01*
X122003333Y-88342000D01*
X121936666Y-88375333D01*
X121670000Y-88375333D01*
X122336666Y-88075333D02*
X122370000Y-88042000D01*
X122436666Y-88008666D01*
X122603333Y-88008666D01*
X122670000Y-88042000D01*
X122703333Y-88075333D01*
X122736666Y-88142000D01*
X122736666Y-88208666D01*
X122703333Y-88308666D01*
X122303333Y-88708666D01*
X122736666Y-88708666D01*
%TO.C,C9*%
X137932333Y-85975000D02*
X137899000Y-86008333D01*
X137799000Y-86041666D01*
X137732333Y-86041666D01*
X137632333Y-86008333D01*
X137565666Y-85941666D01*
X137532333Y-85875000D01*
X137499000Y-85741666D01*
X137499000Y-85641666D01*
X137532333Y-85508333D01*
X137565666Y-85441666D01*
X137632333Y-85375000D01*
X137732333Y-85341666D01*
X137799000Y-85341666D01*
X137899000Y-85375000D01*
X137932333Y-85408333D01*
X138265666Y-86041666D02*
X138399000Y-86041666D01*
X138465666Y-86008333D01*
X138499000Y-85975000D01*
X138565666Y-85875000D01*
X138599000Y-85741666D01*
X138599000Y-85475000D01*
X138565666Y-85408333D01*
X138532333Y-85375000D01*
X138465666Y-85341666D01*
X138332333Y-85341666D01*
X138265666Y-85375000D01*
X138232333Y-85408333D01*
X138199000Y-85475000D01*
X138199000Y-85641666D01*
X138232333Y-85708333D01*
X138265666Y-85741666D01*
X138332333Y-85775000D01*
X138465666Y-85775000D01*
X138532333Y-85741666D01*
X138565666Y-85708333D01*
X138599000Y-85641666D01*
%TO.C,J4*%
X151274666Y-104881333D02*
X151774666Y-104881333D01*
X151874666Y-104914666D01*
X151941333Y-104981333D01*
X151974666Y-105081333D01*
X151974666Y-105148000D01*
X151508000Y-104248000D02*
X151974666Y-104248000D01*
X151241333Y-104414666D02*
X151741333Y-104581333D01*
X151741333Y-104148000D01*
%TO.C,TP1*%
X110876666Y-88008666D02*
X111276666Y-88008666D01*
X111076666Y-88708666D02*
X111076666Y-88008666D01*
X111510000Y-88708666D02*
X111510000Y-88008666D01*
X111776666Y-88008666D01*
X111843333Y-88042000D01*
X111876666Y-88075333D01*
X111910000Y-88142000D01*
X111910000Y-88242000D01*
X111876666Y-88308666D01*
X111843333Y-88342000D01*
X111776666Y-88375333D01*
X111510000Y-88375333D01*
X112576666Y-88708666D02*
X112176666Y-88708666D01*
X112376666Y-88708666D02*
X112376666Y-88008666D01*
X112310000Y-88108666D01*
X112243333Y-88175333D01*
X112176666Y-88208666D01*
%TO.C,R3*%
X116977333Y-80834666D02*
X116744000Y-80501333D01*
X116577333Y-80834666D02*
X116577333Y-80134666D01*
X116844000Y-80134666D01*
X116910666Y-80168000D01*
X116944000Y-80201333D01*
X116977333Y-80268000D01*
X116977333Y-80368000D01*
X116944000Y-80434666D01*
X116910666Y-80468000D01*
X116844000Y-80501333D01*
X116577333Y-80501333D01*
X117210666Y-80134666D02*
X117644000Y-80134666D01*
X117410666Y-80401333D01*
X117510666Y-80401333D01*
X117577333Y-80434666D01*
X117610666Y-80468000D01*
X117644000Y-80534666D01*
X117644000Y-80701333D01*
X117610666Y-80768000D01*
X117577333Y-80801333D01*
X117510666Y-80834666D01*
X117310666Y-80834666D01*
X117244000Y-80801333D01*
X117210666Y-80768000D01*
%TO.C,J7*%
X101851666Y-104754333D02*
X102351666Y-104754333D01*
X102451666Y-104787666D01*
X102518333Y-104854333D01*
X102551666Y-104954333D01*
X102551666Y-105021000D01*
X101851666Y-104487666D02*
X101851666Y-104021000D01*
X102551666Y-104321000D01*
%TO.C,R4*%
X134630333Y-77151666D02*
X134397000Y-76818333D01*
X134230333Y-77151666D02*
X134230333Y-76451666D01*
X134497000Y-76451666D01*
X134563666Y-76485000D01*
X134597000Y-76518333D01*
X134630333Y-76585000D01*
X134630333Y-76685000D01*
X134597000Y-76751666D01*
X134563666Y-76785000D01*
X134497000Y-76818333D01*
X134230333Y-76818333D01*
X135230333Y-76685000D02*
X135230333Y-77151666D01*
X135063666Y-76418333D02*
X134897000Y-76918333D01*
X135330333Y-76918333D01*
%TO.C,J6*%
X101851666Y-101071333D02*
X102351666Y-101071333D01*
X102451666Y-101104666D01*
X102518333Y-101171333D01*
X102551666Y-101271333D01*
X102551666Y-101338000D01*
X101851666Y-100438000D02*
X101851666Y-100571333D01*
X101885000Y-100638000D01*
X101918333Y-100671333D01*
X102018333Y-100738000D01*
X102151666Y-100771333D01*
X102418333Y-100771333D01*
X102485000Y-100738000D01*
X102518333Y-100704666D01*
X102551666Y-100638000D01*
X102551666Y-100504666D01*
X102518333Y-100438000D01*
X102485000Y-100404666D01*
X102418333Y-100371333D01*
X102251666Y-100371333D01*
X102185000Y-100404666D01*
X102151666Y-100438000D01*
X102118333Y-100504666D01*
X102118333Y-100638000D01*
X102151666Y-100704666D01*
X102185000Y-100738000D01*
X102251666Y-100771333D01*
%TO.C,U2*%
X105384666Y-77340666D02*
X105384666Y-77907333D01*
X105418000Y-77974000D01*
X105451333Y-78007333D01*
X105518000Y-78040666D01*
X105651333Y-78040666D01*
X105718000Y-78007333D01*
X105751333Y-77974000D01*
X105784666Y-77907333D01*
X105784666Y-77340666D01*
X106084666Y-77407333D02*
X106118000Y-77374000D01*
X106184666Y-77340666D01*
X106351333Y-77340666D01*
X106418000Y-77374000D01*
X106451333Y-77407333D01*
X106484666Y-77474000D01*
X106484666Y-77540666D01*
X106451333Y-77640666D01*
X106051333Y-78040666D01*
X106484666Y-78040666D01*
%TO.C,C3*%
X142123333Y-87245000D02*
X142090000Y-87278333D01*
X141990000Y-87311666D01*
X141923333Y-87311666D01*
X141823333Y-87278333D01*
X141756666Y-87211666D01*
X141723333Y-87145000D01*
X141690000Y-87011666D01*
X141690000Y-86911666D01*
X141723333Y-86778333D01*
X141756666Y-86711666D01*
X141823333Y-86645000D01*
X141923333Y-86611666D01*
X141990000Y-86611666D01*
X142090000Y-86645000D01*
X142123333Y-86678333D01*
X142356666Y-86611666D02*
X142790000Y-86611666D01*
X142556666Y-86878333D01*
X142656666Y-86878333D01*
X142723333Y-86911666D01*
X142756666Y-86945000D01*
X142790000Y-87011666D01*
X142790000Y-87178333D01*
X142756666Y-87245000D01*
X142723333Y-87278333D01*
X142656666Y-87311666D01*
X142456666Y-87311666D01*
X142390000Y-87278333D01*
X142356666Y-87245000D01*
%TO.C,C1*%
X139837333Y-85721000D02*
X139804000Y-85754333D01*
X139704000Y-85787666D01*
X139637333Y-85787666D01*
X139537333Y-85754333D01*
X139470666Y-85687666D01*
X139437333Y-85621000D01*
X139404000Y-85487666D01*
X139404000Y-85387666D01*
X139437333Y-85254333D01*
X139470666Y-85187666D01*
X139537333Y-85121000D01*
X139637333Y-85087666D01*
X139704000Y-85087666D01*
X139804000Y-85121000D01*
X139837333Y-85154333D01*
X140504000Y-85787666D02*
X140104000Y-85787666D01*
X140304000Y-85787666D02*
X140304000Y-85087666D01*
X140237333Y-85187666D01*
X140170666Y-85254333D01*
X140104000Y-85287666D01*
%TO.C,J1*%
X121051666Y-80515666D02*
X121051666Y-81015666D01*
X121018333Y-81115666D01*
X120951666Y-81182333D01*
X120851666Y-81215666D01*
X120785000Y-81215666D01*
X121751666Y-81215666D02*
X121351666Y-81215666D01*
X121551666Y-81215666D02*
X121551666Y-80515666D01*
X121485000Y-80615666D01*
X121418333Y-80682333D01*
X121351666Y-80715666D01*
%TO.C,C10*%
X139504000Y-80895000D02*
X139470666Y-80928333D01*
X139370666Y-80961666D01*
X139304000Y-80961666D01*
X139204000Y-80928333D01*
X139137333Y-80861666D01*
X139104000Y-80795000D01*
X139070666Y-80661666D01*
X139070666Y-80561666D01*
X139104000Y-80428333D01*
X139137333Y-80361666D01*
X139204000Y-80295000D01*
X139304000Y-80261666D01*
X139370666Y-80261666D01*
X139470666Y-80295000D01*
X139504000Y-80328333D01*
X140170666Y-80961666D02*
X139770666Y-80961666D01*
X139970666Y-80961666D02*
X139970666Y-80261666D01*
X139904000Y-80361666D01*
X139837333Y-80428333D01*
X139770666Y-80461666D01*
X140604000Y-80261666D02*
X140670666Y-80261666D01*
X140737333Y-80295000D01*
X140770666Y-80328333D01*
X140804000Y-80395000D01*
X140837333Y-80528333D01*
X140837333Y-80695000D01*
X140804000Y-80828333D01*
X140770666Y-80895000D01*
X140737333Y-80928333D01*
X140670666Y-80961666D01*
X140604000Y-80961666D01*
X140537333Y-80928333D01*
X140504000Y-80895000D01*
X140470666Y-80828333D01*
X140437333Y-80695000D01*
X140437333Y-80528333D01*
X140470666Y-80395000D01*
X140504000Y-80328333D01*
X140537333Y-80295000D01*
X140604000Y-80261666D01*
%TO.C,C11*%
X115882000Y-84832000D02*
X115848666Y-84865333D01*
X115748666Y-84898666D01*
X115682000Y-84898666D01*
X115582000Y-84865333D01*
X115515333Y-84798666D01*
X115482000Y-84732000D01*
X115448666Y-84598666D01*
X115448666Y-84498666D01*
X115482000Y-84365333D01*
X115515333Y-84298666D01*
X115582000Y-84232000D01*
X115682000Y-84198666D01*
X115748666Y-84198666D01*
X115848666Y-84232000D01*
X115882000Y-84265333D01*
X116548666Y-84898666D02*
X116148666Y-84898666D01*
X116348666Y-84898666D02*
X116348666Y-84198666D01*
X116282000Y-84298666D01*
X116215333Y-84365333D01*
X116148666Y-84398666D01*
X117215333Y-84898666D02*
X116815333Y-84898666D01*
X117015333Y-84898666D02*
X117015333Y-84198666D01*
X116948666Y-84298666D01*
X116882000Y-84365333D01*
X116815333Y-84398666D01*
%TO.C,L1*%
X131074333Y-84644666D02*
X130741000Y-84644666D01*
X130741000Y-83944666D01*
X131674333Y-84644666D02*
X131274333Y-84644666D01*
X131474333Y-84644666D02*
X131474333Y-83944666D01*
X131407666Y-84044666D01*
X131341000Y-84111333D01*
X131274333Y-84144666D01*
%TO.C,J2*%
X151274666Y-97261333D02*
X151774666Y-97261333D01*
X151874666Y-97294666D01*
X151941333Y-97361333D01*
X151974666Y-97461333D01*
X151974666Y-97528000D01*
X151341333Y-96961333D02*
X151308000Y-96928000D01*
X151274666Y-96861333D01*
X151274666Y-96694666D01*
X151308000Y-96628000D01*
X151341333Y-96594666D01*
X151408000Y-96561333D01*
X151474666Y-96561333D01*
X151574666Y-96594666D01*
X151974666Y-96994666D01*
X151974666Y-96561333D01*
%TO.C,TP4*%
X141102666Y-88008666D02*
X141502666Y-88008666D01*
X141302666Y-88708666D02*
X141302666Y-88008666D01*
X141736000Y-88708666D02*
X141736000Y-88008666D01*
X142002666Y-88008666D01*
X142069333Y-88042000D01*
X142102666Y-88075333D01*
X142136000Y-88142000D01*
X142136000Y-88242000D01*
X142102666Y-88308666D01*
X142069333Y-88342000D01*
X142002666Y-88375333D01*
X141736000Y-88375333D01*
X142736000Y-88242000D02*
X142736000Y-88708666D01*
X142569333Y-87975333D02*
X142402666Y-88475333D01*
X142836000Y-88475333D01*
%TO.C,C6*%
X135265333Y-88261000D02*
X135232000Y-88294333D01*
X135132000Y-88327666D01*
X135065333Y-88327666D01*
X134965333Y-88294333D01*
X134898666Y-88227666D01*
X134865333Y-88161000D01*
X134832000Y-88027666D01*
X134832000Y-87927666D01*
X134865333Y-87794333D01*
X134898666Y-87727666D01*
X134965333Y-87661000D01*
X135065333Y-87627666D01*
X135132000Y-87627666D01*
X135232000Y-87661000D01*
X135265333Y-87694333D01*
X135865333Y-87627666D02*
X135732000Y-87627666D01*
X135665333Y-87661000D01*
X135632000Y-87694333D01*
X135565333Y-87794333D01*
X135532000Y-87927666D01*
X135532000Y-88194333D01*
X135565333Y-88261000D01*
X135598666Y-88294333D01*
X135665333Y-88327666D01*
X135798666Y-88327666D01*
X135865333Y-88294333D01*
X135898666Y-88261000D01*
X135932000Y-88194333D01*
X135932000Y-88027666D01*
X135898666Y-87961000D01*
X135865333Y-87927666D01*
X135798666Y-87894333D01*
X135665333Y-87894333D01*
X135598666Y-87927666D01*
X135565333Y-87961000D01*
X135532000Y-88027666D01*
%TO.C,J5*%
X101851666Y-97134333D02*
X102351666Y-97134333D01*
X102451666Y-97167666D01*
X102518333Y-97234333D01*
X102551666Y-97334333D01*
X102551666Y-97401000D01*
X101851666Y-96467666D02*
X101851666Y-96801000D01*
X102185000Y-96834333D01*
X102151666Y-96801000D01*
X102118333Y-96734333D01*
X102118333Y-96567666D01*
X102151666Y-96501000D01*
X102185000Y-96467666D01*
X102251666Y-96434333D01*
X102418333Y-96434333D01*
X102485000Y-96467666D01*
X102518333Y-96501000D01*
X102551666Y-96567666D01*
X102551666Y-96734333D01*
X102518333Y-96801000D01*
X102485000Y-96834333D01*
%TO.C,C8*%
X112024333Y-87118000D02*
X111991000Y-87151333D01*
X111891000Y-87184666D01*
X111824333Y-87184666D01*
X111724333Y-87151333D01*
X111657666Y-87084666D01*
X111624333Y-87018000D01*
X111591000Y-86884666D01*
X111591000Y-86784666D01*
X111624333Y-86651333D01*
X111657666Y-86584666D01*
X111724333Y-86518000D01*
X111824333Y-86484666D01*
X111891000Y-86484666D01*
X111991000Y-86518000D01*
X112024333Y-86551333D01*
X112424333Y-86784666D02*
X112357666Y-86751333D01*
X112324333Y-86718000D01*
X112291000Y-86651333D01*
X112291000Y-86618000D01*
X112324333Y-86551333D01*
X112357666Y-86518000D01*
X112424333Y-86484666D01*
X112557666Y-86484666D01*
X112624333Y-86518000D01*
X112657666Y-86551333D01*
X112691000Y-86618000D01*
X112691000Y-86651333D01*
X112657666Y-86718000D01*
X112624333Y-86751333D01*
X112557666Y-86784666D01*
X112424333Y-86784666D01*
X112357666Y-86818000D01*
X112324333Y-86851333D01*
X112291000Y-86918000D01*
X112291000Y-87051333D01*
X112324333Y-87118000D01*
X112357666Y-87151333D01*
X112424333Y-87184666D01*
X112557666Y-87184666D01*
X112624333Y-87151333D01*
X112657666Y-87118000D01*
X112691000Y-87051333D01*
X112691000Y-86918000D01*
X112657666Y-86851333D01*
X112624333Y-86818000D01*
X112557666Y-86784666D01*
%TO.C,TP3*%
X131069666Y-88008666D02*
X131469666Y-88008666D01*
X131269666Y-88708666D02*
X131269666Y-88008666D01*
X131703000Y-88708666D02*
X131703000Y-88008666D01*
X131969666Y-88008666D01*
X132036333Y-88042000D01*
X132069666Y-88075333D01*
X132103000Y-88142000D01*
X132103000Y-88242000D01*
X132069666Y-88308666D01*
X132036333Y-88342000D01*
X131969666Y-88375333D01*
X131703000Y-88375333D01*
X132336333Y-88008666D02*
X132769666Y-88008666D01*
X132536333Y-88275333D01*
X132636333Y-88275333D01*
X132703000Y-88308666D01*
X132736333Y-88342000D01*
X132769666Y-88408666D01*
X132769666Y-88575333D01*
X132736333Y-88642000D01*
X132703000Y-88675333D01*
X132636333Y-88708666D01*
X132436333Y-88708666D01*
X132369666Y-88675333D01*
X132336333Y-88642000D01*
%TO.C,U1*%
X147548666Y-85087666D02*
X147548666Y-85654333D01*
X147582000Y-85721000D01*
X147615333Y-85754333D01*
X147682000Y-85787666D01*
X147815333Y-85787666D01*
X147882000Y-85754333D01*
X147915333Y-85721000D01*
X147948666Y-85654333D01*
X147948666Y-85087666D01*
X148648666Y-85787666D02*
X148248666Y-85787666D01*
X148448666Y-85787666D02*
X148448666Y-85087666D01*
X148382000Y-85187666D01*
X148315333Y-85254333D01*
X148248666Y-85287666D01*
%TO.C,C7*%
X142123333Y-76958000D02*
X142090000Y-76991333D01*
X141990000Y-77024666D01*
X141923333Y-77024666D01*
X141823333Y-76991333D01*
X141756666Y-76924666D01*
X141723333Y-76858000D01*
X141690000Y-76724666D01*
X141690000Y-76624666D01*
X141723333Y-76491333D01*
X141756666Y-76424666D01*
X141823333Y-76358000D01*
X141923333Y-76324666D01*
X141990000Y-76324666D01*
X142090000Y-76358000D01*
X142123333Y-76391333D01*
X142356666Y-76324666D02*
X142823333Y-76324666D01*
X142523333Y-77024666D01*
%TO.C,C5*%
X126756333Y-84578000D02*
X126723000Y-84611333D01*
X126623000Y-84644666D01*
X126556333Y-84644666D01*
X126456333Y-84611333D01*
X126389666Y-84544666D01*
X126356333Y-84478000D01*
X126323000Y-84344666D01*
X126323000Y-84244666D01*
X126356333Y-84111333D01*
X126389666Y-84044666D01*
X126456333Y-83978000D01*
X126556333Y-83944666D01*
X126623000Y-83944666D01*
X126723000Y-83978000D01*
X126756333Y-84011333D01*
X127389666Y-83944666D02*
X127056333Y-83944666D01*
X127023000Y-84278000D01*
X127056333Y-84244666D01*
X127123000Y-84211333D01*
X127289666Y-84211333D01*
X127356333Y-84244666D01*
X127389666Y-84278000D01*
X127423000Y-84344666D01*
X127423000Y-84511333D01*
X127389666Y-84578000D01*
X127356333Y-84611333D01*
X127289666Y-84644666D01*
X127123000Y-84644666D01*
X127056333Y-84611333D01*
X127023000Y-84578000D01*
D11*
%TO.C,J3*%
X148483000Y-99508000D02*
X148483000Y-102168000D01*
X148483000Y-102168000D02*
X145883000Y-102168000D01*
X149753000Y-99508000D02*
X151083000Y-99508000D01*
X151083000Y-99508000D02*
X151083000Y-100838000D01*
X145883000Y-99508000D02*
X145883000Y-102168000D01*
X148483000Y-99508000D02*
X145883000Y-99508000D01*
%TO.C,D1*%
X120340000Y-80044000D02*
X120340000Y-77359000D01*
X118420000Y-77359000D02*
X118420000Y-80044000D01*
X118420000Y-80044000D02*
X120340000Y-80044000D01*
%TO.C,R2*%
X135281936Y-82523000D02*
X135736064Y-82523000D01*
X135281936Y-81053000D02*
X135736064Y-81053000D01*
%TO.C,C2*%
X115064000Y-79439420D02*
X115064000Y-79720580D01*
X114044000Y-79439420D02*
X114044000Y-79720580D01*
%TO.C,R1*%
X137768000Y-78766936D02*
X137768000Y-79221064D01*
X136298000Y-78766936D02*
X136298000Y-79221064D01*
%TO.C,C4*%
X111231000Y-78233748D02*
X111231000Y-79656252D01*
X113051000Y-78233748D02*
X113051000Y-79656252D01*
D10*
%TO.C,TP2*%
X125520000Y-89658000D02*
X125880000Y-89658000D01*
X117960000Y-89158000D02*
X117960000Y-89608000D01*
X123320000Y-89658000D02*
X120520000Y-89658000D01*
X117960000Y-89658000D02*
X118320000Y-89658000D01*
X118320000Y-89158000D02*
X117960000Y-89158000D01*
X125880000Y-89158000D02*
X125520000Y-89158000D01*
X125880000Y-89658000D02*
X125880000Y-89158000D01*
X117960000Y-89608000D02*
X117960000Y-89658000D01*
X123320000Y-89158000D02*
X120520000Y-89158000D01*
D11*
%TO.C,C9*%
X135310748Y-83164000D02*
X136733252Y-83164000D01*
X135310748Y-84984000D02*
X136733252Y-84984000D01*
%TO.C,J4*%
X145883000Y-103318000D02*
X145883000Y-105978000D01*
X151083000Y-103318000D02*
X151083000Y-104648000D01*
X148483000Y-103318000D02*
X148483000Y-105978000D01*
X149753000Y-103318000D02*
X151083000Y-103318000D01*
X148483000Y-105978000D02*
X145883000Y-105978000D01*
X148483000Y-103318000D02*
X145883000Y-103318000D01*
D10*
%TO.C,TP1*%
X107927000Y-89158000D02*
X107927000Y-89658000D01*
X110487000Y-89158000D02*
X113287000Y-89158000D01*
X115847000Y-89158000D02*
X115487000Y-89158000D01*
X107927000Y-89658000D02*
X108287000Y-89658000D01*
X115487000Y-89658000D02*
X115847000Y-89658000D01*
X110487000Y-89658000D02*
X113287000Y-89658000D01*
X115847000Y-89658000D02*
X115847000Y-89208000D01*
X115847000Y-89208000D02*
X115847000Y-89158000D01*
X108287000Y-89158000D02*
X107927000Y-89158000D01*
D11*
%TO.C,R3*%
X116359000Y-78131936D02*
X116359000Y-78586064D01*
X117829000Y-78131936D02*
X117829000Y-78586064D01*
%TO.C,J7*%
X105410000Y-105978000D02*
X102810000Y-105978000D01*
X108010000Y-103318000D02*
X108010000Y-104648000D01*
X102810000Y-103318000D02*
X102810000Y-105978000D01*
X105410000Y-103318000D02*
X105410000Y-105978000D01*
X106680000Y-103318000D02*
X108010000Y-103318000D01*
X105410000Y-103318000D02*
X102810000Y-103318000D01*
%TO.C,R4*%
X135482000Y-78766936D02*
X135482000Y-79221064D01*
X134012000Y-78766936D02*
X134012000Y-79221064D01*
%TO.C,J6*%
X102810000Y-99508000D02*
X102810000Y-102168000D01*
X105410000Y-102168000D02*
X102810000Y-102168000D01*
X108010000Y-99508000D02*
X108010000Y-100838000D01*
X106680000Y-99508000D02*
X108010000Y-99508000D01*
X105410000Y-99508000D02*
X102810000Y-99508000D01*
X105410000Y-99508000D02*
X105410000Y-102168000D01*
D12*
%TO.C,U2*%
X107647000Y-78411000D02*
X104147000Y-78411000D01*
X107647000Y-84911000D02*
X104147000Y-84911000D01*
X104147000Y-78411000D02*
X104147000Y-79651000D01*
X104147000Y-84911000D02*
X104147000Y-83671000D01*
D13*
X110597000Y-83961000D02*
G75*
G03*
X110597000Y-83961000I-100000J0D01*
G01*
D11*
%TO.C,C3*%
X141330000Y-84785252D02*
X141330000Y-83362748D01*
X143150000Y-84785252D02*
X143150000Y-83362748D01*
%TO.C,C1*%
X140464000Y-83579580D02*
X140464000Y-83298420D01*
X139444000Y-83579580D02*
X139444000Y-83298420D01*
%TO.C,J1*%
X131600000Y-81756900D02*
X131600000Y-80001900D01*
X131600000Y-78054400D02*
X131600000Y-76654400D01*
X122400000Y-81756900D02*
X122400000Y-80001900D01*
X122400000Y-78054400D02*
X122400000Y-76654400D01*
%TO.C,C10*%
X139444000Y-78753580D02*
X139444000Y-78472420D01*
X140464000Y-78753580D02*
X140464000Y-78472420D01*
%TO.C,C11*%
X114044000Y-84441420D02*
X114044000Y-84722580D01*
X115064000Y-84441420D02*
X115064000Y-84722580D01*
%TO.C,L1*%
X130355758Y-85196000D02*
X132026242Y-85196000D01*
X130355758Y-87016000D02*
X132026242Y-87016000D01*
%TO.C,J2*%
X145883000Y-95698000D02*
X145883000Y-98358000D01*
X149753000Y-95698000D02*
X151083000Y-95698000D01*
X151083000Y-95698000D02*
X151083000Y-97028000D01*
X148483000Y-95698000D02*
X148483000Y-98358000D01*
X148483000Y-95698000D02*
X145883000Y-95698000D01*
X148483000Y-98358000D02*
X145883000Y-98358000D01*
D10*
%TO.C,TP4*%
X145586000Y-89658000D02*
X145946000Y-89658000D01*
X145946000Y-89208000D02*
X145946000Y-89158000D01*
X140586000Y-89658000D02*
X143386000Y-89658000D01*
X138386000Y-89158000D02*
X138026000Y-89158000D01*
X145946000Y-89158000D02*
X145586000Y-89158000D01*
X145946000Y-89658000D02*
X145946000Y-89208000D01*
X138026000Y-89158000D02*
X138026000Y-89658000D01*
X140586000Y-89158000D02*
X143386000Y-89158000D01*
X138026000Y-89658000D02*
X138386000Y-89658000D01*
D11*
%TO.C,C6*%
X135125748Y-87095000D02*
X135648252Y-87095000D01*
X135125748Y-85625000D02*
X135648252Y-85625000D01*
%TO.C,J5*%
X108010000Y-95698000D02*
X108010000Y-97028000D01*
X102810000Y-95698000D02*
X102810000Y-98358000D01*
X105410000Y-95698000D02*
X102810000Y-95698000D01*
X105410000Y-95698000D02*
X105410000Y-98358000D01*
X105410000Y-98358000D02*
X102810000Y-98358000D01*
X106680000Y-95698000D02*
X108010000Y-95698000D01*
%TO.C,C8*%
X113051000Y-83313748D02*
X113051000Y-84736252D01*
X111231000Y-83313748D02*
X111231000Y-84736252D01*
D10*
%TO.C,TP3*%
X135913000Y-89208000D02*
X135913000Y-89158000D01*
X135913000Y-89658000D02*
X135913000Y-89208000D01*
X127993000Y-89158000D02*
X127993000Y-89658000D01*
X135553000Y-89658000D02*
X135913000Y-89658000D01*
X127993000Y-89658000D02*
X128353000Y-89658000D01*
X130553000Y-89658000D02*
X133353000Y-89658000D01*
X130553000Y-89158000D02*
X133353000Y-89158000D01*
X128353000Y-89158000D02*
X127993000Y-89158000D01*
X135913000Y-89158000D02*
X135553000Y-89158000D01*
D12*
%TO.C,U1*%
X149832000Y-78030000D02*
X149832000Y-79270000D01*
X149832000Y-84530000D02*
X149832000Y-83290000D01*
X146332000Y-84530000D02*
X149832000Y-84530000D01*
X146332000Y-78030000D02*
X149832000Y-78030000D01*
D13*
X143582000Y-78980000D02*
G75*
G03*
X143582000Y-78980000I-100000J0D01*
G01*
D11*
%TO.C,C7*%
X141330000Y-79959252D02*
X141330000Y-78536748D01*
X143150000Y-79959252D02*
X143150000Y-78536748D01*
%TO.C,C5*%
X127134252Y-86587000D02*
X126611748Y-86587000D01*
X127134252Y-85117000D02*
X126611748Y-85117000D01*
%TD*%
M02*
