%TF.GenerationSoftware,KiCad,Pcbnew,8.0.4*%
%TF.CreationDate,2024-09-01T16:29:35-06:00*%
%TF.ProjectId,Breadboard Power Supply,42726561-6462-46f6-9172-6420506f7765,v1*%
%TF.SameCoordinates,Original*%
%TF.FileFunction,Copper,L4,Inr*%
%TF.FilePolarity,Positive*%
%FSLAX46Y46*%
G04 Gerber Fmt 4.6, Leading zero omitted, Abs format (unit mm)*
G04 Created by KiCad (PCBNEW 8.0.4) date 2024-09-01 16:29:35*
%MOMM*%
%LPD*%
G01*
G04 APERTURE LIST*
%TA.AperFunction,ComponentPad*%
%ADD10R,1.700000X1.700000*%
%TD*%
%TA.AperFunction,ComponentPad*%
%ADD11O,1.700000X1.700000*%
%TD*%
%TA.AperFunction,ComponentPad*%
%ADD12C,1.450000*%
%TD*%
%TA.AperFunction,ComponentPad*%
%ADD13C,1.830000*%
%TD*%
%TA.AperFunction,ViaPad*%
%ADD14C,0.800000*%
%TD*%
G04 APERTURE END LIST*
D10*
%TO.N,+1V8*%
%TO.C,J4*%
X151130000Y-87630000D03*
D11*
%TO.N,/TOP_POWER_RAIL*%
X153670000Y-87630000D03*
%TO.N,+3.3V*%
X151130000Y-90170000D03*
%TO.N,/TOP_POWER_RAIL*%
X153670000Y-90170000D03*
%TO.N,VBUS*%
X151130000Y-92710000D03*
%TO.N,/TOP_POWER_RAIL*%
X153670000Y-92710000D03*
%TO.N,+12V*%
X151130000Y-95250000D03*
%TO.N,/TOP_POWER_RAIL*%
X153670000Y-95250000D03*
%TD*%
D10*
%TO.N,/BOTTOM_POWER_RAIL*%
%TO.C,J5*%
X102870000Y-87630000D03*
D11*
%TO.N,+1V8*%
X105410000Y-87630000D03*
%TO.N,/BOTTOM_POWER_RAIL*%
X102870000Y-90170000D03*
%TO.N,+3.3V*%
X105410000Y-90170000D03*
%TO.N,/BOTTOM_POWER_RAIL*%
X102870000Y-92710000D03*
%TO.N,VBUS*%
X105410000Y-92710000D03*
%TO.N,/BOTTOM_POWER_RAIL*%
X102870000Y-95250000D03*
%TO.N,+12V*%
X105410000Y-95250000D03*
%TD*%
D12*
%TO.N,GND*%
%TO.C,J1*%
X132592000Y-77974000D03*
X123952000Y-77974000D03*
X132592000Y-81774000D03*
X123952000Y-81774000D03*
%TD*%
D13*
%TO.N,GND*%
%TO.C,TP1*%
X103759000Y-102638000D03*
X108839000Y-102638000D03*
%TD*%
%TO.N,GND*%
%TO.C,TP4*%
X147701000Y-102638000D03*
X152781000Y-102638000D03*
%TD*%
D10*
%TO.N,GND*%
%TO.C,J10*%
X114300000Y-78740000D03*
D11*
X114300000Y-81280000D03*
%TD*%
D10*
%TO.N,/TOP_POWER_RAIL*%
%TO.C,J8*%
X152082500Y-99060000D03*
D11*
%TO.N,GND*%
X149542500Y-99060000D03*
%TD*%
D10*
%TO.N,GND*%
%TO.C,J11*%
X142240000Y-78740000D03*
D11*
X142240000Y-81280000D03*
%TD*%
D10*
%TO.N,/BOTTOM_POWER_RAIL*%
%TO.C,J9*%
X106997500Y-99060000D03*
D11*
%TO.N,GND*%
X104457500Y-99060000D03*
%TD*%
D14*
%TO.N,GND*%
X154559000Y-83693000D03*
X139573000Y-76835000D03*
X149328930Y-85113070D03*
X144145000Y-84201000D03*
X119507000Y-83947000D03*
X103251000Y-85217000D03*
X106807000Y-85217000D03*
X117729000Y-76667000D03*
X115697000Y-85471000D03*
%TO.N,+3.3V*%
X154305000Y-78867000D03*
X144653000Y-78613000D03*
X146685000Y-84963000D03*
%TO.N,+1V8*%
X103251000Y-82677000D03*
X111887000Y-77089000D03*
X101981000Y-78867000D03*
%TO.N,+12V*%
X115443000Y-83693000D03*
X116459000Y-79121000D03*
X122301000Y-80645000D03*
%TO.N,VBUS*%
X126619000Y-80645000D03*
X121793000Y-76667000D03*
X129921000Y-80645000D03*
X144907000Y-81153000D03*
X111633000Y-75819000D03*
X150155000Y-83439000D03*
X122301000Y-84709000D03*
X135763000Y-78105000D03*
X121793000Y-78359000D03*
%TD*%
%TA.AperFunction,Conductor*%
%TO.N,+12V*%
G36*
X110739174Y-75330685D02*
G01*
X110784929Y-75383489D01*
X110794873Y-75452647D01*
X110790066Y-75473317D01*
X110739458Y-75629072D01*
X110719496Y-75819000D01*
X110739458Y-76008928D01*
X110739459Y-76008931D01*
X110798470Y-76190549D01*
X110798471Y-76190551D01*
X110798473Y-76190556D01*
X110893960Y-76355944D01*
X110929257Y-76395145D01*
X111021741Y-76497861D01*
X111021748Y-76497867D01*
X111042376Y-76512854D01*
X111085042Y-76568184D01*
X111091021Y-76637797D01*
X111076878Y-76675172D01*
X111052473Y-76717442D01*
X110993459Y-76899068D01*
X110993458Y-76899072D01*
X110973496Y-77089000D01*
X110993458Y-77278928D01*
X110993459Y-77278931D01*
X111052470Y-77460549D01*
X111052473Y-77460556D01*
X111147960Y-77625944D01*
X111275747Y-77767866D01*
X111430248Y-77880118D01*
X111604712Y-77957794D01*
X111791513Y-77997500D01*
X111982487Y-77997500D01*
X112169288Y-77957794D01*
X112343752Y-77880118D01*
X112498253Y-77767866D01*
X112626040Y-77625944D01*
X112721527Y-77460556D01*
X112780542Y-77278928D01*
X112800504Y-77089000D01*
X112780542Y-76899072D01*
X112721527Y-76717444D01*
X112692403Y-76667000D01*
X116815496Y-76667000D01*
X116835458Y-76856928D01*
X116835459Y-76856931D01*
X116894470Y-77038549D01*
X116894473Y-77038556D01*
X116989960Y-77203944D01*
X117117747Y-77345866D01*
X117272248Y-77458118D01*
X117446712Y-77535794D01*
X117633513Y-77575500D01*
X117824487Y-77575500D01*
X118011288Y-77535794D01*
X118185752Y-77458118D01*
X118340253Y-77345866D01*
X118468040Y-77203944D01*
X118563527Y-77038556D01*
X118622542Y-76856928D01*
X118642504Y-76667000D01*
X120879496Y-76667000D01*
X120899458Y-76856928D01*
X120899459Y-76856931D01*
X120958470Y-77038549D01*
X120958473Y-77038556D01*
X121053960Y-77203944D01*
X121181747Y-77345866D01*
X121273711Y-77412682D01*
X121316376Y-77468012D01*
X121322355Y-77537626D01*
X121289749Y-77599421D01*
X121273711Y-77613318D01*
X121181745Y-77680135D01*
X121053959Y-77822057D01*
X120958473Y-77987443D01*
X120958470Y-77987450D01*
X120899459Y-78169068D01*
X120899458Y-78169072D01*
X120879496Y-78359000D01*
X120899458Y-78548928D01*
X120899459Y-78548931D01*
X120958470Y-78730549D01*
X120958473Y-78730556D01*
X121053960Y-78895944D01*
X121181747Y-79037866D01*
X121336248Y-79150118D01*
X121510712Y-79227794D01*
X121697513Y-79267500D01*
X121888487Y-79267500D01*
X122075288Y-79227794D01*
X122249752Y-79150118D01*
X122404253Y-79037866D01*
X122532040Y-78895944D01*
X122627527Y-78730556D01*
X122661098Y-78627234D01*
X122700535Y-78569560D01*
X122764894Y-78542361D01*
X122833740Y-78554275D01*
X122880602Y-78594427D01*
X123003475Y-78769907D01*
X123156093Y-78922525D01*
X123332894Y-79046323D01*
X123528507Y-79137539D01*
X123528513Y-79137540D01*
X123528514Y-79137541D01*
X123578690Y-79150985D01*
X123736987Y-79193401D01*
X123890567Y-79206837D01*
X123951998Y-79212212D01*
X123952000Y-79212212D01*
X123952002Y-79212212D01*
X124005753Y-79207509D01*
X124167013Y-79193401D01*
X124375493Y-79137539D01*
X124571106Y-79046323D01*
X124747907Y-78922525D01*
X124900525Y-78769907D01*
X125024323Y-78593106D01*
X125115539Y-78397493D01*
X125171401Y-78189013D01*
X125190212Y-77974000D01*
X125190212Y-77973998D01*
X131353788Y-77973998D01*
X131353788Y-77974001D01*
X131372598Y-78189007D01*
X131372600Y-78189018D01*
X131428458Y-78397485D01*
X131428460Y-78397489D01*
X131428461Y-78397493D01*
X131465329Y-78476556D01*
X131519676Y-78593105D01*
X131553874Y-78641944D01*
X131643475Y-78769907D01*
X131796093Y-78922525D01*
X131972894Y-79046323D01*
X132168507Y-79137539D01*
X132168513Y-79137540D01*
X132168514Y-79137541D01*
X132218690Y-79150985D01*
X132376987Y-79193401D01*
X132530567Y-79206837D01*
X132591998Y-79212212D01*
X132592000Y-79212212D01*
X132592002Y-79212212D01*
X132645753Y-79207509D01*
X132807013Y-79193401D01*
X133015493Y-79137539D01*
X133211106Y-79046323D01*
X133387907Y-78922525D01*
X133540525Y-78769907D01*
X133664323Y-78593106D01*
X133755539Y-78397493D01*
X133811401Y-78189013D01*
X133818751Y-78105000D01*
X134849496Y-78105000D01*
X134869458Y-78294928D01*
X134869459Y-78294931D01*
X134928470Y-78476549D01*
X134928473Y-78476556D01*
X135023960Y-78641944D01*
X135151747Y-78783866D01*
X135306248Y-78896118D01*
X135480712Y-78973794D01*
X135667513Y-79013500D01*
X135858487Y-79013500D01*
X136045288Y-78973794D01*
X136219752Y-78896118D01*
X136374253Y-78783866D01*
X136502040Y-78641944D01*
X136597527Y-78476556D01*
X136656542Y-78294928D01*
X136676504Y-78105000D01*
X136656542Y-77915072D01*
X136597527Y-77733444D01*
X136502040Y-77568056D01*
X136374253Y-77426134D01*
X136219752Y-77313882D01*
X136045288Y-77236206D01*
X136045286Y-77236205D01*
X135858487Y-77196500D01*
X135667513Y-77196500D01*
X135480714Y-77236205D01*
X135306246Y-77313883D01*
X135151745Y-77426135D01*
X135023959Y-77568057D01*
X134928473Y-77733443D01*
X134928470Y-77733450D01*
X134890977Y-77848843D01*
X134869458Y-77915072D01*
X134849496Y-78105000D01*
X133818751Y-78105000D01*
X133830212Y-77974000D01*
X133811401Y-77758987D01*
X133755539Y-77550507D01*
X133664323Y-77354894D01*
X133540525Y-77178093D01*
X133387907Y-77025475D01*
X133211106Y-76901677D01*
X133211107Y-76901677D01*
X133211105Y-76901676D01*
X133113299Y-76856069D01*
X133068117Y-76835000D01*
X138659496Y-76835000D01*
X138679458Y-77024928D01*
X138679459Y-77024931D01*
X138738470Y-77206549D01*
X138738473Y-77206556D01*
X138833960Y-77371944D01*
X138961747Y-77513866D01*
X139116248Y-77626118D01*
X139290712Y-77703794D01*
X139477513Y-77743500D01*
X139668487Y-77743500D01*
X139855288Y-77703794D01*
X140029752Y-77626118D01*
X140184253Y-77513866D01*
X140312040Y-77371944D01*
X140407527Y-77206556D01*
X140466542Y-77024928D01*
X140486504Y-76835000D01*
X140466542Y-76645072D01*
X140407527Y-76463444D01*
X140312040Y-76298056D01*
X140184253Y-76156134D01*
X140029752Y-76043882D01*
X139855288Y-75966206D01*
X139855286Y-75966205D01*
X139668487Y-75926500D01*
X139477513Y-75926500D01*
X139290714Y-75966205D01*
X139116246Y-76043883D01*
X138961745Y-76156135D01*
X138833959Y-76298057D01*
X138738473Y-76463443D01*
X138738470Y-76463450D01*
X138679459Y-76645068D01*
X138679458Y-76645072D01*
X138659496Y-76835000D01*
X133068117Y-76835000D01*
X133015493Y-76810461D01*
X133015489Y-76810460D01*
X133015485Y-76810458D01*
X132807018Y-76754600D01*
X132807014Y-76754599D01*
X132807013Y-76754599D01*
X132807012Y-76754598D01*
X132807007Y-76754598D01*
X132592002Y-76735788D01*
X132591998Y-76735788D01*
X132376992Y-76754598D01*
X132376981Y-76754600D01*
X132168514Y-76810458D01*
X132168505Y-76810462D01*
X131972894Y-76901676D01*
X131796092Y-77025475D01*
X131643475Y-77178092D01*
X131519676Y-77354894D01*
X131428462Y-77550505D01*
X131428458Y-77550514D01*
X131372600Y-77758981D01*
X131372598Y-77758992D01*
X131353788Y-77973998D01*
X125190212Y-77973998D01*
X125171401Y-77758987D01*
X125115539Y-77550507D01*
X125024323Y-77354894D01*
X124900525Y-77178093D01*
X124747907Y-77025475D01*
X124571106Y-76901677D01*
X124571107Y-76901677D01*
X124571105Y-76901676D01*
X124473299Y-76856069D01*
X124375493Y-76810461D01*
X124375489Y-76810460D01*
X124375485Y-76810458D01*
X124167018Y-76754600D01*
X124167014Y-76754599D01*
X124167013Y-76754599D01*
X124167012Y-76754598D01*
X124167007Y-76754598D01*
X123952002Y-76735788D01*
X123951998Y-76735788D01*
X123736992Y-76754598D01*
X123736981Y-76754600D01*
X123528514Y-76810458D01*
X123528505Y-76810462D01*
X123332894Y-76901676D01*
X123156092Y-77025475D01*
X123003475Y-77178092D01*
X122879676Y-77354894D01*
X122788462Y-77550505D01*
X122788459Y-77550511D01*
X122732688Y-77758654D01*
X122696323Y-77818314D01*
X122633476Y-77848843D01*
X122564100Y-77840548D01*
X122520763Y-77809532D01*
X122474952Y-77758654D01*
X122404253Y-77680134D01*
X122404251Y-77680132D01*
X122312289Y-77613318D01*
X122269623Y-77557988D01*
X122263644Y-77488375D01*
X122296250Y-77426580D01*
X122312289Y-77412682D01*
X122404253Y-77345866D01*
X122532040Y-77203944D01*
X122627527Y-77038556D01*
X122686542Y-76856928D01*
X122706504Y-76667000D01*
X122686542Y-76477072D01*
X122627527Y-76295444D01*
X122532040Y-76130056D01*
X122404253Y-75988134D01*
X122249752Y-75875882D01*
X122075288Y-75798206D01*
X122075286Y-75798205D01*
X121888487Y-75758500D01*
X121697513Y-75758500D01*
X121510714Y-75798205D01*
X121336246Y-75875883D01*
X121181745Y-75988135D01*
X121053959Y-76130057D01*
X120958473Y-76295443D01*
X120958470Y-76295450D01*
X120921206Y-76410138D01*
X120899458Y-76477072D01*
X120879496Y-76667000D01*
X118642504Y-76667000D01*
X118622542Y-76477072D01*
X118563527Y-76295444D01*
X118468040Y-76130056D01*
X118340253Y-75988134D01*
X118185752Y-75875882D01*
X118011288Y-75798206D01*
X118011286Y-75798205D01*
X117824487Y-75758500D01*
X117633513Y-75758500D01*
X117446714Y-75798205D01*
X117272246Y-75875883D01*
X117117745Y-75988135D01*
X116989959Y-76130057D01*
X116894473Y-76295443D01*
X116894470Y-76295450D01*
X116857206Y-76410138D01*
X116835458Y-76477072D01*
X116815496Y-76667000D01*
X112692403Y-76667000D01*
X112626040Y-76552056D01*
X112546259Y-76463450D01*
X112498258Y-76410138D01*
X112498255Y-76410136D01*
X112498254Y-76410135D01*
X112498253Y-76410134D01*
X112477621Y-76395144D01*
X112434957Y-76339814D01*
X112428978Y-76270201D01*
X112443118Y-76232832D01*
X112467527Y-76190556D01*
X112526542Y-76008928D01*
X112546504Y-75819000D01*
X112526542Y-75629072D01*
X112475933Y-75473317D01*
X112473939Y-75403477D01*
X112510019Y-75343644D01*
X112572720Y-75312816D01*
X112593865Y-75311000D01*
X154943000Y-75311000D01*
X155010039Y-75330685D01*
X155055794Y-75383489D01*
X155067000Y-75435000D01*
X155067000Y-78054294D01*
X155047315Y-78121333D01*
X154994511Y-78167088D01*
X154925353Y-78177032D01*
X154870114Y-78154612D01*
X154761752Y-78075882D01*
X154587288Y-77998206D01*
X154587286Y-77998205D01*
X154400487Y-77958500D01*
X154209513Y-77958500D01*
X154022714Y-77998205D01*
X153848246Y-78075883D01*
X153693745Y-78188135D01*
X153565959Y-78330057D01*
X153470473Y-78495443D01*
X153470470Y-78495450D01*
X153411459Y-78677068D01*
X153411458Y-78677072D01*
X153391496Y-78867000D01*
X153411458Y-79056928D01*
X153411459Y-79056931D01*
X153470470Y-79238549D01*
X153470473Y-79238556D01*
X153565960Y-79403944D01*
X153693747Y-79545866D01*
X153848248Y-79658118D01*
X154022712Y-79735794D01*
X154209513Y-79775500D01*
X154400487Y-79775500D01*
X154587288Y-79735794D01*
X154761752Y-79658118D01*
X154870116Y-79579385D01*
X154935920Y-79555907D01*
X155003974Y-79571732D01*
X155052669Y-79621837D01*
X155067000Y-79679705D01*
X155067000Y-82733756D01*
X155047315Y-82800795D01*
X154994511Y-82846550D01*
X154925353Y-82856494D01*
X154892565Y-82847036D01*
X154841288Y-82824206D01*
X154841286Y-82824205D01*
X154654487Y-82784500D01*
X154463513Y-82784500D01*
X154276714Y-82824205D01*
X154102246Y-82901883D01*
X153947745Y-83014135D01*
X153819959Y-83156057D01*
X153724473Y-83321443D01*
X153724470Y-83321450D01*
X153686276Y-83439000D01*
X153665458Y-83503072D01*
X153645496Y-83693000D01*
X153665458Y-83882928D01*
X153665459Y-83882931D01*
X153724470Y-84064549D01*
X153724473Y-84064556D01*
X153819960Y-84229944D01*
X153947747Y-84371866D01*
X154102248Y-84484118D01*
X154276712Y-84561794D01*
X154463513Y-84601500D01*
X154654487Y-84601500D01*
X154841288Y-84561794D01*
X154892565Y-84538963D01*
X154961813Y-84529679D01*
X155025090Y-84559307D01*
X155062304Y-84618441D01*
X155067000Y-84652243D01*
X155067000Y-86867976D01*
X155047315Y-86935015D01*
X154994511Y-86980770D01*
X154925353Y-86990714D01*
X154861797Y-86961689D01*
X154839192Y-86935798D01*
X154745723Y-86792734D01*
X154745715Y-86792723D01*
X154593243Y-86627097D01*
X154593238Y-86627092D01*
X154415577Y-86488812D01*
X154415572Y-86488808D01*
X154217580Y-86381661D01*
X154217577Y-86381659D01*
X154217574Y-86381658D01*
X154217571Y-86381657D01*
X154217569Y-86381656D01*
X154004637Y-86308556D01*
X153782569Y-86271500D01*
X153557431Y-86271500D01*
X153335362Y-86308556D01*
X153122430Y-86381656D01*
X153122419Y-86381661D01*
X152924427Y-86488808D01*
X152924422Y-86488812D01*
X152746761Y-86627092D01*
X152683548Y-86695760D01*
X152623661Y-86731750D01*
X152553823Y-86729649D01*
X152496207Y-86690124D01*
X152476138Y-86655110D01*
X152430889Y-86533796D01*
X152397214Y-86488812D01*
X152343261Y-86416739D01*
X152226204Y-86329111D01*
X152089203Y-86278011D01*
X152028654Y-86271500D01*
X152028638Y-86271500D01*
X150231362Y-86271500D01*
X150231345Y-86271500D01*
X150170797Y-86278011D01*
X150170795Y-86278011D01*
X150033795Y-86329111D01*
X149916739Y-86416739D01*
X149829111Y-86533795D01*
X149778011Y-86670795D01*
X149778011Y-86670797D01*
X149771500Y-86731345D01*
X149771500Y-88528654D01*
X149778011Y-88589202D01*
X149778011Y-88589204D01*
X149829111Y-88726204D01*
X149916739Y-88843261D01*
X150033796Y-88930889D01*
X150085737Y-88950262D01*
X150151595Y-88974827D01*
X150207528Y-89016699D01*
X150231944Y-89082163D01*
X150217092Y-89150436D01*
X150199490Y-89174991D01*
X150054279Y-89332730D01*
X150054276Y-89332734D01*
X149931140Y-89521207D01*
X149840703Y-89727385D01*
X149785436Y-89945628D01*
X149785434Y-89945640D01*
X149766844Y-90169994D01*
X149766844Y-90170005D01*
X149785434Y-90394359D01*
X149785436Y-90394371D01*
X149840703Y-90612614D01*
X149931140Y-90818792D01*
X150054276Y-91007265D01*
X150054284Y-91007276D01*
X150206756Y-91172902D01*
X150206760Y-91172906D01*
X150384424Y-91311189D01*
X150384429Y-91311191D01*
X150384431Y-91311193D01*
X150420930Y-91330946D01*
X150470520Y-91380165D01*
X150485628Y-91448382D01*
X150461457Y-91513937D01*
X150420930Y-91549054D01*
X150384431Y-91568806D01*
X150384422Y-91568812D01*
X150206761Y-91707092D01*
X150206756Y-91707097D01*
X150054284Y-91872723D01*
X150054276Y-91872734D01*
X149931140Y-92061207D01*
X149840703Y-92267385D01*
X149785436Y-92485628D01*
X149785434Y-92485640D01*
X149766844Y-92709994D01*
X149766844Y-92710005D01*
X149785434Y-92934359D01*
X149785436Y-92934371D01*
X149840703Y-93152614D01*
X149931140Y-93358792D01*
X150054276Y-93547265D01*
X150054284Y-93547276D01*
X150206756Y-93712902D01*
X150206760Y-93712906D01*
X150384424Y-93851189D01*
X150420930Y-93870945D01*
X150427695Y-93874606D01*
X150477286Y-93923825D01*
X150492394Y-93992042D01*
X150468224Y-94057597D01*
X150439802Y-94085236D01*
X150258922Y-94211890D01*
X150258920Y-94211891D01*
X150091891Y-94378920D01*
X150091886Y-94378926D01*
X149956400Y-94572420D01*
X149956399Y-94572422D01*
X149856570Y-94786507D01*
X149856567Y-94786513D01*
X149799364Y-94999999D01*
X149799364Y-95000000D01*
X150696988Y-95000000D01*
X150664075Y-95057007D01*
X150630000Y-95184174D01*
X150630000Y-95315826D01*
X150664075Y-95442993D01*
X150696988Y-95500000D01*
X149799364Y-95500000D01*
X149856567Y-95713486D01*
X149856570Y-95713492D01*
X149956399Y-95927578D01*
X150091894Y-96121082D01*
X150258917Y-96288105D01*
X150452421Y-96423600D01*
X150666507Y-96523429D01*
X150666516Y-96523433D01*
X150880000Y-96580634D01*
X150880000Y-95683012D01*
X150937007Y-95715925D01*
X151064174Y-95750000D01*
X151195826Y-95750000D01*
X151322993Y-95715925D01*
X151380000Y-95683012D01*
X151380000Y-96580633D01*
X151593483Y-96523433D01*
X151593492Y-96523429D01*
X151807578Y-96423600D01*
X152001082Y-96288105D01*
X152168105Y-96121082D01*
X152294868Y-95940048D01*
X152349445Y-95896423D01*
X152418944Y-95889231D01*
X152481298Y-95920753D01*
X152500251Y-95943350D01*
X152594276Y-96087265D01*
X152594284Y-96087276D01*
X152746756Y-96252902D01*
X152746760Y-96252906D01*
X152924424Y-96391189D01*
X152924425Y-96391189D01*
X152924427Y-96391191D01*
X152984314Y-96423600D01*
X153122426Y-96498342D01*
X153335365Y-96571444D01*
X153557431Y-96608500D01*
X153782569Y-96608500D01*
X154004635Y-96571444D01*
X154217574Y-96498342D01*
X154415576Y-96391189D01*
X154593240Y-96252906D01*
X154714594Y-96121082D01*
X154745715Y-96087276D01*
X154745715Y-96087275D01*
X154745722Y-96087268D01*
X154839193Y-95944198D01*
X154892338Y-95898845D01*
X154961569Y-95889421D01*
X155024905Y-95918923D01*
X155062236Y-95977983D01*
X155067000Y-96012023D01*
X155067000Y-103889000D01*
X155047315Y-103956039D01*
X154994511Y-104001794D01*
X154943000Y-104013000D01*
X153693201Y-104013000D01*
X153626162Y-103993315D01*
X153580407Y-103940511D01*
X153570463Y-103871353D01*
X153599488Y-103807797D01*
X153617039Y-103791147D01*
X153656632Y-103760329D01*
X153748415Y-103688893D01*
X153908192Y-103515329D01*
X154037222Y-103317833D01*
X154131985Y-103101794D01*
X154189898Y-102873103D01*
X154209379Y-102638000D01*
X154189898Y-102402897D01*
X154131985Y-102174206D01*
X154037222Y-101958167D01*
X153908194Y-101760673D01*
X153880620Y-101730719D01*
X153748415Y-101587107D01*
X153748410Y-101587103D01*
X153748407Y-101587100D01*
X153562257Y-101442214D01*
X153562246Y-101442207D01*
X153354779Y-101329932D01*
X153354776Y-101329931D01*
X153354773Y-101329929D01*
X153354767Y-101329927D01*
X153354765Y-101329926D01*
X153131648Y-101253329D01*
X152898955Y-101214500D01*
X152663045Y-101214500D01*
X152430351Y-101253329D01*
X152207234Y-101329926D01*
X152207220Y-101329932D01*
X151999753Y-101442207D01*
X151999742Y-101442214D01*
X151813592Y-101587100D01*
X151813582Y-101587110D01*
X151653805Y-101760673D01*
X151524777Y-101958167D01*
X151430015Y-102174206D01*
X151372102Y-102402896D01*
X151372100Y-102402904D01*
X151352621Y-102637994D01*
X151352621Y-102638005D01*
X151372100Y-102873095D01*
X151372102Y-102873103D01*
X151430015Y-103101793D01*
X151524777Y-103317832D01*
X151653805Y-103515326D01*
X151653808Y-103515329D01*
X151813585Y-103688893D01*
X151873840Y-103735791D01*
X151944961Y-103791147D01*
X151985774Y-103847857D01*
X151989449Y-103917630D01*
X151954817Y-103978313D01*
X151892876Y-104010640D01*
X151868799Y-104013000D01*
X148613201Y-104013000D01*
X148546162Y-103993315D01*
X148500407Y-103940511D01*
X148490463Y-103871353D01*
X148519488Y-103807797D01*
X148537039Y-103791147D01*
X148576632Y-103760329D01*
X148668415Y-103688893D01*
X148828192Y-103515329D01*
X148957222Y-103317833D01*
X149051985Y-103101794D01*
X149109898Y-102873103D01*
X149129379Y-102638000D01*
X149109898Y-102402897D01*
X149051985Y-102174206D01*
X148957222Y-101958167D01*
X148828194Y-101760673D01*
X148800620Y-101730719D01*
X148668415Y-101587107D01*
X148668410Y-101587103D01*
X148668407Y-101587100D01*
X148482257Y-101442214D01*
X148482246Y-101442207D01*
X148274779Y-101329932D01*
X148274776Y-101329931D01*
X148274773Y-101329929D01*
X148274767Y-101329927D01*
X148274765Y-101329926D01*
X148051648Y-101253329D01*
X147818955Y-101214500D01*
X147583045Y-101214500D01*
X147350351Y-101253329D01*
X147127234Y-101329926D01*
X147127220Y-101329932D01*
X146919753Y-101442207D01*
X146919742Y-101442214D01*
X146733592Y-101587100D01*
X146733582Y-101587110D01*
X146573805Y-101760673D01*
X146444777Y-101958167D01*
X146350015Y-102174206D01*
X146292102Y-102402896D01*
X146292100Y-102402904D01*
X146272621Y-102637994D01*
X146272621Y-102638005D01*
X146292100Y-102873095D01*
X146292102Y-102873103D01*
X146350015Y-103101793D01*
X146444777Y-103317832D01*
X146573805Y-103515326D01*
X146573808Y-103515329D01*
X146733585Y-103688893D01*
X146793840Y-103735791D01*
X146864961Y-103791147D01*
X146905774Y-103847857D01*
X146909449Y-103917630D01*
X146874817Y-103978313D01*
X146812876Y-104010640D01*
X146788799Y-104013000D01*
X146047000Y-104013000D01*
X145979961Y-103993315D01*
X145934206Y-103940511D01*
X145923000Y-103889000D01*
X145923000Y-99059994D01*
X148179344Y-99059994D01*
X148179344Y-99060005D01*
X148197934Y-99284359D01*
X148197936Y-99284371D01*
X148253203Y-99502614D01*
X148343640Y-99708792D01*
X148466776Y-99897265D01*
X148466784Y-99897276D01*
X148593467Y-100034888D01*
X148619260Y-100062906D01*
X148796924Y-100201189D01*
X148796925Y-100201189D01*
X148796927Y-100201191D01*
X148923635Y-100269761D01*
X148994926Y-100308342D01*
X149207865Y-100381444D01*
X149429931Y-100418500D01*
X149655069Y-100418500D01*
X149877135Y-100381444D01*
X150090074Y-100308342D01*
X150288076Y-100201189D01*
X150465740Y-100062906D01*
X150528952Y-99994239D01*
X150588837Y-99958250D01*
X150658675Y-99960349D01*
X150716291Y-99999873D01*
X150736361Y-100034888D01*
X150781611Y-100156204D01*
X150869239Y-100273261D01*
X150986296Y-100360889D01*
X151123299Y-100411989D01*
X151150550Y-100414918D01*
X151183845Y-100418499D01*
X151183862Y-100418500D01*
X152981138Y-100418500D01*
X152981154Y-100418499D01*
X153008192Y-100415591D01*
X153041701Y-100411989D01*
X153178704Y-100360889D01*
X153295761Y-100273261D01*
X153383389Y-100156204D01*
X153434489Y-100019201D01*
X153438091Y-99985692D01*
X153440999Y-99958654D01*
X153441000Y-99958637D01*
X153441000Y-98161362D01*
X153440999Y-98161345D01*
X153437172Y-98125759D01*
X153434489Y-98100799D01*
X153383389Y-97963796D01*
X153295761Y-97846739D01*
X153178704Y-97759111D01*
X153041703Y-97708011D01*
X152981154Y-97701500D01*
X152981138Y-97701500D01*
X151183862Y-97701500D01*
X151183845Y-97701500D01*
X151123297Y-97708011D01*
X151123295Y-97708011D01*
X150986295Y-97759111D01*
X150869239Y-97846739D01*
X150781611Y-97963795D01*
X150736361Y-98085111D01*
X150694489Y-98141044D01*
X150629024Y-98165460D01*
X150560752Y-98150607D01*
X150528954Y-98125762D01*
X150465740Y-98057094D01*
X150288076Y-97918811D01*
X150288075Y-97918810D01*
X150288072Y-97918808D01*
X150090080Y-97811661D01*
X150090077Y-97811659D01*
X150090074Y-97811658D01*
X150090071Y-97811657D01*
X150090069Y-97811656D01*
X149877137Y-97738556D01*
X149655069Y-97701500D01*
X149429931Y-97701500D01*
X149207862Y-97738556D01*
X148994930Y-97811656D01*
X148994919Y-97811661D01*
X148796927Y-97918808D01*
X148796922Y-97918812D01*
X148619261Y-98057092D01*
X148619256Y-98057097D01*
X148466784Y-98222723D01*
X148466776Y-98222734D01*
X148343640Y-98411207D01*
X148253203Y-98617385D01*
X148197936Y-98835628D01*
X148197934Y-98835640D01*
X148179344Y-99059994D01*
X145923000Y-99059994D01*
X145923000Y-85979000D01*
X116657865Y-85979000D01*
X116590826Y-85959315D01*
X116545071Y-85906511D01*
X116535127Y-85837353D01*
X116539934Y-85816682D01*
X116590542Y-85660928D01*
X116610504Y-85471000D01*
X116590542Y-85281072D01*
X116531527Y-85099444D01*
X116436040Y-84934056D01*
X116308253Y-84792134D01*
X116153752Y-84679882D01*
X115979288Y-84602206D01*
X115979286Y-84602205D01*
X115792487Y-84562500D01*
X115601513Y-84562500D01*
X115414714Y-84602205D01*
X115240246Y-84679883D01*
X115085745Y-84792135D01*
X114957959Y-84934057D01*
X114862473Y-85099443D01*
X114862470Y-85099450D01*
X114803459Y-85281068D01*
X114803458Y-85281072D01*
X114783496Y-85471000D01*
X114803458Y-85660928D01*
X114803459Y-85660931D01*
X114854066Y-85816682D01*
X114856061Y-85886523D01*
X114819981Y-85946356D01*
X114757280Y-85977184D01*
X114736135Y-85979000D01*
X110617000Y-85979000D01*
X110617000Y-103889000D01*
X110597315Y-103956039D01*
X110544511Y-104001794D01*
X110493000Y-104013000D01*
X109751201Y-104013000D01*
X109684162Y-103993315D01*
X109638407Y-103940511D01*
X109628463Y-103871353D01*
X109657488Y-103807797D01*
X109675039Y-103791147D01*
X109714632Y-103760329D01*
X109806415Y-103688893D01*
X109966192Y-103515329D01*
X110095222Y-103317833D01*
X110189985Y-103101794D01*
X110247898Y-102873103D01*
X110267379Y-102638000D01*
X110247898Y-102402897D01*
X110189985Y-102174206D01*
X110095222Y-101958167D01*
X109966194Y-101760673D01*
X109938620Y-101730719D01*
X109806415Y-101587107D01*
X109806410Y-101587103D01*
X109806407Y-101587100D01*
X109620257Y-101442214D01*
X109620246Y-101442207D01*
X109412779Y-101329932D01*
X109412776Y-101329931D01*
X109412773Y-101329929D01*
X109412767Y-101329927D01*
X109412765Y-101329926D01*
X109189648Y-101253329D01*
X108956955Y-101214500D01*
X108721045Y-101214500D01*
X108488351Y-101253329D01*
X108265234Y-101329926D01*
X108265220Y-101329932D01*
X108057753Y-101442207D01*
X108057742Y-101442214D01*
X107871592Y-101587100D01*
X107871582Y-101587110D01*
X107711805Y-101760673D01*
X107582777Y-101958167D01*
X107488015Y-102174206D01*
X107430102Y-102402896D01*
X107430100Y-102402904D01*
X107410621Y-102637994D01*
X107410621Y-102638005D01*
X107430100Y-102873095D01*
X107430102Y-102873103D01*
X107488015Y-103101793D01*
X107582777Y-103317832D01*
X107711805Y-103515326D01*
X107711808Y-103515329D01*
X107871585Y-103688893D01*
X107931840Y-103735791D01*
X108002961Y-103791147D01*
X108043774Y-103847857D01*
X108047449Y-103917630D01*
X108012817Y-103978313D01*
X107950876Y-104010640D01*
X107926799Y-104013000D01*
X104671201Y-104013000D01*
X104604162Y-103993315D01*
X104558407Y-103940511D01*
X104548463Y-103871353D01*
X104577488Y-103807797D01*
X104595039Y-103791147D01*
X104634632Y-103760329D01*
X104726415Y-103688893D01*
X104886192Y-103515329D01*
X105015222Y-103317833D01*
X105109985Y-103101794D01*
X105167898Y-102873103D01*
X105187379Y-102638000D01*
X105167898Y-102402897D01*
X105109985Y-102174206D01*
X105015222Y-101958167D01*
X104886194Y-101760673D01*
X104858620Y-101730719D01*
X104726415Y-101587107D01*
X104726410Y-101587103D01*
X104726407Y-101587100D01*
X104540257Y-101442214D01*
X104540246Y-101442207D01*
X104332779Y-101329932D01*
X104332776Y-101329931D01*
X104332773Y-101329929D01*
X104332767Y-101329927D01*
X104332765Y-101329926D01*
X104109648Y-101253329D01*
X103876955Y-101214500D01*
X103641045Y-101214500D01*
X103408351Y-101253329D01*
X103185234Y-101329926D01*
X103185220Y-101329932D01*
X102977753Y-101442207D01*
X102977742Y-101442214D01*
X102791592Y-101587100D01*
X102791582Y-101587110D01*
X102631805Y-101760673D01*
X102502777Y-101958167D01*
X102408015Y-102174206D01*
X102350102Y-102402896D01*
X102350100Y-102402904D01*
X102330621Y-102637994D01*
X102330621Y-102638005D01*
X102350100Y-102873095D01*
X102350102Y-102873103D01*
X102408015Y-103101793D01*
X102502777Y-103317832D01*
X102631805Y-103515326D01*
X102631808Y-103515329D01*
X102791585Y-103688893D01*
X102851840Y-103735791D01*
X102922961Y-103791147D01*
X102963774Y-103847857D01*
X102967449Y-103917630D01*
X102932817Y-103978313D01*
X102870876Y-104010640D01*
X102846799Y-104013000D01*
X101597000Y-104013000D01*
X101529961Y-103993315D01*
X101484206Y-103940511D01*
X101473000Y-103889000D01*
X101473000Y-99059994D01*
X103094344Y-99059994D01*
X103094344Y-99060005D01*
X103112934Y-99284359D01*
X103112936Y-99284371D01*
X103168203Y-99502614D01*
X103258640Y-99708792D01*
X103381776Y-99897265D01*
X103381784Y-99897276D01*
X103508467Y-100034888D01*
X103534260Y-100062906D01*
X103711924Y-100201189D01*
X103711925Y-100201189D01*
X103711927Y-100201191D01*
X103838635Y-100269761D01*
X103909926Y-100308342D01*
X104122865Y-100381444D01*
X104344931Y-100418500D01*
X104570069Y-100418500D01*
X104792135Y-100381444D01*
X105005074Y-100308342D01*
X105203076Y-100201189D01*
X105380740Y-100062906D01*
X105443952Y-99994239D01*
X105503837Y-99958250D01*
X105573675Y-99960349D01*
X105631291Y-99999873D01*
X105651361Y-100034888D01*
X105696611Y-100156204D01*
X105784239Y-100273261D01*
X105901296Y-100360889D01*
X106038299Y-100411989D01*
X106065550Y-100414918D01*
X106098845Y-100418499D01*
X106098862Y-100418500D01*
X107896138Y-100418500D01*
X107896154Y-100418499D01*
X107923192Y-100415591D01*
X107956701Y-100411989D01*
X108093704Y-100360889D01*
X108210761Y-100273261D01*
X108298389Y-100156204D01*
X108349489Y-100019201D01*
X108353091Y-99985692D01*
X108355999Y-99958654D01*
X108356000Y-99958637D01*
X108356000Y-98161362D01*
X108355999Y-98161345D01*
X108352172Y-98125759D01*
X108349489Y-98100799D01*
X108298389Y-97963796D01*
X108210761Y-97846739D01*
X108093704Y-97759111D01*
X107956703Y-97708011D01*
X107896154Y-97701500D01*
X107896138Y-97701500D01*
X106098862Y-97701500D01*
X106098845Y-97701500D01*
X106038297Y-97708011D01*
X106038295Y-97708011D01*
X105901295Y-97759111D01*
X105784239Y-97846739D01*
X105696611Y-97963795D01*
X105651361Y-98085111D01*
X105609489Y-98141044D01*
X105544024Y-98165460D01*
X105475752Y-98150607D01*
X105443954Y-98125762D01*
X105380740Y-98057094D01*
X105203076Y-97918811D01*
X105203075Y-97918810D01*
X105203072Y-97918808D01*
X105005080Y-97811661D01*
X105005077Y-97811659D01*
X105005074Y-97811658D01*
X105005071Y-97811657D01*
X105005069Y-97811656D01*
X104792137Y-97738556D01*
X104570069Y-97701500D01*
X104344931Y-97701500D01*
X104122862Y-97738556D01*
X103909930Y-97811656D01*
X103909919Y-97811661D01*
X103711927Y-97918808D01*
X103711922Y-97918812D01*
X103534261Y-98057092D01*
X103534256Y-98057097D01*
X103381784Y-98222723D01*
X103381776Y-98222734D01*
X103258640Y-98411207D01*
X103168203Y-98617385D01*
X103112936Y-98835628D01*
X103112934Y-98835640D01*
X103094344Y-99059994D01*
X101473000Y-99059994D01*
X101473000Y-96012023D01*
X101492685Y-95944984D01*
X101545489Y-95899229D01*
X101614647Y-95889285D01*
X101678203Y-95918310D01*
X101700804Y-95944195D01*
X101794278Y-96087268D01*
X101794283Y-96087273D01*
X101794284Y-96087276D01*
X101946756Y-96252902D01*
X101946760Y-96252906D01*
X102124424Y-96391189D01*
X102124425Y-96391189D01*
X102124427Y-96391191D01*
X102184314Y-96423600D01*
X102322426Y-96498342D01*
X102535365Y-96571444D01*
X102757431Y-96608500D01*
X102982569Y-96608500D01*
X103204635Y-96571444D01*
X103417574Y-96498342D01*
X103615576Y-96391189D01*
X103793240Y-96252906D01*
X103914594Y-96121082D01*
X103945715Y-96087276D01*
X103945715Y-96087275D01*
X103945722Y-96087268D01*
X104039749Y-95943347D01*
X104092894Y-95897994D01*
X104162125Y-95888570D01*
X104225461Y-95918072D01*
X104245130Y-95940048D01*
X104371890Y-96121078D01*
X104538917Y-96288105D01*
X104732421Y-96423600D01*
X104946507Y-96523429D01*
X104946516Y-96523433D01*
X105160000Y-96580634D01*
X105160000Y-95683012D01*
X105217007Y-95715925D01*
X105344174Y-95750000D01*
X105475826Y-95750000D01*
X105602993Y-95715925D01*
X105660000Y-95683012D01*
X105660000Y-96580633D01*
X105873483Y-96523433D01*
X105873492Y-96523429D01*
X106087578Y-96423600D01*
X106281082Y-96288105D01*
X106448105Y-96121082D01*
X106583600Y-95927578D01*
X106683429Y-95713492D01*
X106683432Y-95713486D01*
X106740636Y-95500000D01*
X105843012Y-95500000D01*
X105875925Y-95442993D01*
X105910000Y-95315826D01*
X105910000Y-95184174D01*
X105875925Y-95057007D01*
X105843012Y-95000000D01*
X106740636Y-95000000D01*
X106740635Y-94999999D01*
X106683432Y-94786513D01*
X106683429Y-94786507D01*
X106583600Y-94572422D01*
X106583599Y-94572420D01*
X106448113Y-94378926D01*
X106448108Y-94378920D01*
X106281082Y-94211894D01*
X106100197Y-94085236D01*
X106056572Y-94030659D01*
X106049380Y-93961160D01*
X106080902Y-93898806D01*
X106112300Y-93874608D01*
X106155576Y-93851189D01*
X106333240Y-93712906D01*
X106485722Y-93547268D01*
X106608860Y-93358791D01*
X106699296Y-93152616D01*
X106754564Y-92934368D01*
X106773156Y-92710000D01*
X106754564Y-92485632D01*
X106699296Y-92267384D01*
X106608860Y-92061209D01*
X106595706Y-92041076D01*
X106485723Y-91872734D01*
X106485715Y-91872723D01*
X106333243Y-91707097D01*
X106333238Y-91707092D01*
X106155577Y-91568812D01*
X106155578Y-91568812D01*
X106155576Y-91568811D01*
X106119070Y-91549055D01*
X106069479Y-91499836D01*
X106054371Y-91431619D01*
X106078541Y-91366064D01*
X106119070Y-91330945D01*
X106119084Y-91330936D01*
X106155576Y-91311189D01*
X106333240Y-91172906D01*
X106485722Y-91007268D01*
X106608860Y-90818791D01*
X106699296Y-90612616D01*
X106754564Y-90394368D01*
X106773156Y-90170000D01*
X106754564Y-89945632D01*
X106699296Y-89727384D01*
X106608860Y-89521209D01*
X106595706Y-89501076D01*
X106485723Y-89332734D01*
X106485715Y-89332723D01*
X106333243Y-89167097D01*
X106333238Y-89167092D01*
X106155577Y-89028812D01*
X106155578Y-89028812D01*
X106155576Y-89028811D01*
X106119070Y-89009055D01*
X106069479Y-88959836D01*
X106054371Y-88891619D01*
X106078541Y-88826064D01*
X106119070Y-88790945D01*
X106119084Y-88790936D01*
X106155576Y-88771189D01*
X106333240Y-88632906D01*
X106485722Y-88467268D01*
X106608860Y-88278791D01*
X106699296Y-88072616D01*
X106754564Y-87854368D01*
X106773156Y-87630000D01*
X106754564Y-87405632D01*
X106699296Y-87187384D01*
X106608860Y-86981209D01*
X106485722Y-86792732D01*
X106485719Y-86792729D01*
X106485715Y-86792723D01*
X106333243Y-86627097D01*
X106333238Y-86627092D01*
X106155577Y-86488812D01*
X106155572Y-86488808D01*
X105957580Y-86381661D01*
X105957577Y-86381659D01*
X105957574Y-86381658D01*
X105957571Y-86381657D01*
X105957569Y-86381656D01*
X105744637Y-86308556D01*
X105522569Y-86271500D01*
X105297431Y-86271500D01*
X105075362Y-86308556D01*
X104862430Y-86381656D01*
X104862419Y-86381661D01*
X104664427Y-86488808D01*
X104664422Y-86488812D01*
X104486761Y-86627092D01*
X104423548Y-86695760D01*
X104363661Y-86731750D01*
X104293823Y-86729649D01*
X104236207Y-86690124D01*
X104216138Y-86655110D01*
X104170889Y-86533796D01*
X104137214Y-86488812D01*
X104083261Y-86416739D01*
X103966204Y-86329111D01*
X103829203Y-86278011D01*
X103768654Y-86271500D01*
X103768638Y-86271500D01*
X103699559Y-86271500D01*
X103632520Y-86251815D01*
X103586765Y-86199011D01*
X103576821Y-86129853D01*
X103605846Y-86066297D01*
X103649121Y-86034221D01*
X103707752Y-86008118D01*
X103862253Y-85895866D01*
X103990040Y-85753944D01*
X104085527Y-85588556D01*
X104144542Y-85406928D01*
X104164504Y-85217000D01*
X105893496Y-85217000D01*
X105913458Y-85406928D01*
X105913459Y-85406931D01*
X105972470Y-85588549D01*
X105972473Y-85588556D01*
X106067960Y-85753944D01*
X106143062Y-85837353D01*
X106187334Y-85886523D01*
X106195747Y-85895866D01*
X106350248Y-86008118D01*
X106524712Y-86085794D01*
X106711513Y-86125500D01*
X106902487Y-86125500D01*
X107089288Y-86085794D01*
X107263752Y-86008118D01*
X107418253Y-85895866D01*
X107546040Y-85753944D01*
X107641527Y-85588556D01*
X107700542Y-85406928D01*
X107720504Y-85217000D01*
X107700542Y-85027072D01*
X107641527Y-84845444D01*
X107546040Y-84680056D01*
X107418253Y-84538134D01*
X107263752Y-84425882D01*
X107089288Y-84348206D01*
X107089286Y-84348205D01*
X106902487Y-84308500D01*
X106711513Y-84308500D01*
X106524714Y-84348205D01*
X106350246Y-84425883D01*
X106195745Y-84538135D01*
X106067959Y-84680057D01*
X105972473Y-84845443D01*
X105972470Y-84845450D01*
X105934276Y-84963000D01*
X105913458Y-85027072D01*
X105893496Y-85217000D01*
X104164504Y-85217000D01*
X104144542Y-85027072D01*
X104085527Y-84845444D01*
X103990040Y-84680056D01*
X103862253Y-84538134D01*
X103707752Y-84425882D01*
X103533288Y-84348206D01*
X103533286Y-84348205D01*
X103346487Y-84308500D01*
X103155513Y-84308500D01*
X102968714Y-84348205D01*
X102794246Y-84425883D01*
X102639745Y-84538135D01*
X102511959Y-84680057D01*
X102416473Y-84845443D01*
X102416470Y-84845450D01*
X102378276Y-84963000D01*
X102357458Y-85027072D01*
X102337496Y-85217000D01*
X102357458Y-85406928D01*
X102357459Y-85406931D01*
X102416470Y-85588549D01*
X102416473Y-85588556D01*
X102511960Y-85753944D01*
X102587062Y-85837353D01*
X102631334Y-85886523D01*
X102639747Y-85895866D01*
X102794248Y-86008118D01*
X102852877Y-86034221D01*
X102906113Y-86079470D01*
X102926435Y-86146319D01*
X102907390Y-86213543D01*
X102855024Y-86259799D01*
X102802441Y-86271500D01*
X101971345Y-86271500D01*
X101910797Y-86278011D01*
X101910795Y-86278011D01*
X101773795Y-86329111D01*
X101724530Y-86365991D01*
X101671309Y-86405831D01*
X101605847Y-86430248D01*
X101537574Y-86415396D01*
X101488168Y-86365991D01*
X101473000Y-86306564D01*
X101473000Y-83947000D01*
X118593496Y-83947000D01*
X118613458Y-84136928D01*
X118613459Y-84136931D01*
X118672470Y-84318549D01*
X118672473Y-84318556D01*
X118767960Y-84483944D01*
X118838692Y-84562500D01*
X118889061Y-84618441D01*
X118895747Y-84625866D01*
X119050248Y-84738118D01*
X119224712Y-84815794D01*
X119411513Y-84855500D01*
X119602487Y-84855500D01*
X119789288Y-84815794D01*
X119963752Y-84738118D01*
X120003829Y-84709000D01*
X121387496Y-84709000D01*
X121407458Y-84898928D01*
X121407459Y-84898931D01*
X121466470Y-85080549D01*
X121466473Y-85080556D01*
X121561960Y-85245944D01*
X121689747Y-85387866D01*
X121844248Y-85500118D01*
X122018712Y-85577794D01*
X122205513Y-85617500D01*
X122396487Y-85617500D01*
X122583288Y-85577794D01*
X122757752Y-85500118D01*
X122912253Y-85387866D01*
X123040040Y-85245944D01*
X123135527Y-85080556D01*
X123194542Y-84898928D01*
X123214504Y-84709000D01*
X123194542Y-84519072D01*
X123135527Y-84337444D01*
X123056751Y-84201000D01*
X143231496Y-84201000D01*
X143251458Y-84390928D01*
X143251459Y-84390931D01*
X143310470Y-84572549D01*
X143310473Y-84572556D01*
X143405960Y-84737944D01*
X143533747Y-84879866D01*
X143688248Y-84992118D01*
X143862712Y-85069794D01*
X144049513Y-85109500D01*
X144240487Y-85109500D01*
X144427288Y-85069794D01*
X144601752Y-84992118D01*
X144641829Y-84963000D01*
X145771496Y-84963000D01*
X145791458Y-85152928D01*
X145791459Y-85152931D01*
X145850470Y-85334549D01*
X145850473Y-85334556D01*
X145945960Y-85499944D01*
X146073747Y-85641866D01*
X146228248Y-85754118D01*
X146402712Y-85831794D01*
X146589513Y-85871500D01*
X146780487Y-85871500D01*
X146967288Y-85831794D01*
X147141752Y-85754118D01*
X147296253Y-85641866D01*
X147424040Y-85499944D01*
X147519527Y-85334556D01*
X147578542Y-85152928D01*
X147582731Y-85113070D01*
X148415426Y-85113070D01*
X148435388Y-85302998D01*
X148435389Y-85303001D01*
X148494400Y-85484619D01*
X148494403Y-85484626D01*
X148589890Y-85650014D01*
X148717677Y-85791936D01*
X148872178Y-85904188D01*
X149046642Y-85981864D01*
X149233443Y-86021570D01*
X149424417Y-86021570D01*
X149611218Y-85981864D01*
X149785682Y-85904188D01*
X149940183Y-85791936D01*
X150067970Y-85650014D01*
X150163457Y-85484626D01*
X150222472Y-85302998D01*
X150242434Y-85113070D01*
X150222472Y-84923142D01*
X150163457Y-84741514D01*
X150111916Y-84652243D01*
X150067971Y-84576127D01*
X150048472Y-84554471D01*
X150018243Y-84491480D01*
X150026869Y-84422144D01*
X150071611Y-84368479D01*
X150138263Y-84347522D01*
X150140623Y-84347500D01*
X150250487Y-84347500D01*
X150437288Y-84307794D01*
X150611752Y-84230118D01*
X150766253Y-84117866D01*
X150894040Y-83975944D01*
X150989527Y-83810556D01*
X151048542Y-83628928D01*
X151068504Y-83439000D01*
X151048542Y-83249072D01*
X150989527Y-83067444D01*
X150894040Y-82902056D01*
X150766253Y-82760134D01*
X150611752Y-82647882D01*
X150437288Y-82570206D01*
X150437286Y-82570205D01*
X150250487Y-82530500D01*
X150059513Y-82530500D01*
X149872714Y-82570205D01*
X149872712Y-82570206D01*
X149719321Y-82638500D01*
X149698246Y-82647883D01*
X149543745Y-82760135D01*
X149415959Y-82902057D01*
X149320473Y-83067443D01*
X149320470Y-83067450D01*
X149261459Y-83249068D01*
X149261458Y-83249072D01*
X149241496Y-83439000D01*
X149261458Y-83628928D01*
X149261459Y-83628931D01*
X149320470Y-83810549D01*
X149320473Y-83810556D01*
X149415958Y-83975942D01*
X149435458Y-83997599D01*
X149465687Y-84060590D01*
X149457061Y-84129926D01*
X149412319Y-84183591D01*
X149345667Y-84204548D01*
X149343307Y-84204570D01*
X149233443Y-84204570D01*
X149046644Y-84244275D01*
X149046642Y-84244276D01*
X148879822Y-84318549D01*
X148872176Y-84321953D01*
X148717675Y-84434205D01*
X148589889Y-84576127D01*
X148494403Y-84741513D01*
X148494400Y-84741520D01*
X148435389Y-84923138D01*
X148435388Y-84923142D01*
X148415426Y-85113070D01*
X147582731Y-85113070D01*
X147598504Y-84963000D01*
X147578542Y-84773072D01*
X147519527Y-84591444D01*
X147424040Y-84426056D01*
X147296253Y-84284134D01*
X147141752Y-84171882D01*
X146967288Y-84094206D01*
X146967286Y-84094205D01*
X146780487Y-84054500D01*
X146589513Y-84054500D01*
X146402714Y-84094205D01*
X146228246Y-84171883D01*
X146073745Y-84284135D01*
X145945959Y-84426057D01*
X145850473Y-84591443D01*
X145850470Y-84591450D01*
X145801710Y-84741520D01*
X145791458Y-84773072D01*
X145771496Y-84963000D01*
X144641829Y-84963000D01*
X144756253Y-84879866D01*
X144884040Y-84737944D01*
X144979527Y-84572556D01*
X145038542Y-84390928D01*
X145058504Y-84201000D01*
X145038542Y-84011072D01*
X144979527Y-83829444D01*
X144884040Y-83664056D01*
X144756253Y-83522134D01*
X144601752Y-83409882D01*
X144427288Y-83332206D01*
X144427286Y-83332205D01*
X144240487Y-83292500D01*
X144049513Y-83292500D01*
X143862714Y-83332205D01*
X143688246Y-83409883D01*
X143533745Y-83522135D01*
X143405959Y-83664057D01*
X143310473Y-83829443D01*
X143310470Y-83829450D01*
X143251459Y-84011068D01*
X143251458Y-84011072D01*
X143231496Y-84201000D01*
X123056751Y-84201000D01*
X123040040Y-84172056D01*
X122912253Y-84030134D01*
X122757752Y-83917882D01*
X122583288Y-83840206D01*
X122583286Y-83840205D01*
X122396487Y-83800500D01*
X122205513Y-83800500D01*
X122018714Y-83840205D01*
X121844246Y-83917883D01*
X121689745Y-84030135D01*
X121561959Y-84172057D01*
X121466473Y-84337443D01*
X121466470Y-84337450D01*
X121418816Y-84484116D01*
X121407458Y-84519072D01*
X121387496Y-84709000D01*
X120003829Y-84709000D01*
X120118253Y-84625866D01*
X120246040Y-84483944D01*
X120341527Y-84318556D01*
X120400542Y-84136928D01*
X120420504Y-83947000D01*
X120400542Y-83757072D01*
X120341527Y-83575444D01*
X120246040Y-83410056D01*
X120118253Y-83268134D01*
X119963752Y-83155882D01*
X119789288Y-83078206D01*
X119789286Y-83078205D01*
X119602487Y-83038500D01*
X119411513Y-83038500D01*
X119224714Y-83078205D01*
X119050246Y-83155883D01*
X118895745Y-83268135D01*
X118767959Y-83410057D01*
X118672473Y-83575443D01*
X118672470Y-83575450D01*
X118634276Y-83693000D01*
X118613458Y-83757072D01*
X118593496Y-83947000D01*
X101473000Y-83947000D01*
X101473000Y-82677000D01*
X102337496Y-82677000D01*
X102357458Y-82866928D01*
X102357459Y-82866931D01*
X102416470Y-83048549D01*
X102416473Y-83048556D01*
X102511960Y-83213944D01*
X102639747Y-83355866D01*
X102794248Y-83468118D01*
X102968712Y-83545794D01*
X103155513Y-83585500D01*
X103346487Y-83585500D01*
X103533288Y-83545794D01*
X103707752Y-83468118D01*
X103862253Y-83355866D01*
X103990040Y-83213944D01*
X104085527Y-83048556D01*
X104144542Y-82866928D01*
X104164504Y-82677000D01*
X104144542Y-82487072D01*
X104085527Y-82305444D01*
X103990040Y-82140056D01*
X103862253Y-81998134D01*
X103707752Y-81885882D01*
X103533288Y-81808206D01*
X103533286Y-81808205D01*
X103346487Y-81768500D01*
X103155513Y-81768500D01*
X102968714Y-81808205D01*
X102794246Y-81885883D01*
X102639745Y-81998135D01*
X102511959Y-82140057D01*
X102416473Y-82305443D01*
X102416470Y-82305450D01*
X102378864Y-82421191D01*
X102357458Y-82487072D01*
X102337496Y-82677000D01*
X101473000Y-82677000D01*
X101473000Y-81279994D01*
X112936844Y-81279994D01*
X112936844Y-81280005D01*
X112955434Y-81504359D01*
X112955436Y-81504371D01*
X113010703Y-81722614D01*
X113101140Y-81928792D01*
X113224276Y-82117265D01*
X113224284Y-82117276D01*
X113376756Y-82282902D01*
X113376760Y-82282906D01*
X113554424Y-82421189D01*
X113554425Y-82421189D01*
X113554427Y-82421191D01*
X113676158Y-82487068D01*
X113752426Y-82528342D01*
X113965365Y-82601444D01*
X114187431Y-82638500D01*
X114412569Y-82638500D01*
X114634635Y-82601444D01*
X114847574Y-82528342D01*
X115045576Y-82421189D01*
X115223240Y-82282906D01*
X115375722Y-82117268D01*
X115498860Y-81928791D01*
X115566758Y-81773998D01*
X122713788Y-81773998D01*
X122713788Y-81774001D01*
X122732598Y-81989007D01*
X122732600Y-81989018D01*
X122788458Y-82197485D01*
X122788460Y-82197489D01*
X122788461Y-82197493D01*
X122828288Y-82282902D01*
X122879676Y-82393105D01*
X122899341Y-82421189D01*
X123003475Y-82569907D01*
X123156093Y-82722525D01*
X123332894Y-82846323D01*
X123528507Y-82937539D01*
X123736987Y-82993401D01*
X123890567Y-83006837D01*
X123951998Y-83012212D01*
X123952000Y-83012212D01*
X123952002Y-83012212D01*
X124005753Y-83007509D01*
X124167013Y-82993401D01*
X124375493Y-82937539D01*
X124571106Y-82846323D01*
X124747907Y-82722525D01*
X124900525Y-82569907D01*
X125024323Y-82393106D01*
X125115539Y-82197493D01*
X125171401Y-81989013D01*
X125190212Y-81774000D01*
X125190212Y-81773998D01*
X131353788Y-81773998D01*
X131353788Y-81774001D01*
X131372598Y-81989007D01*
X131372600Y-81989018D01*
X131428458Y-82197485D01*
X131428460Y-82197489D01*
X131428461Y-82197493D01*
X131468288Y-82282902D01*
X131519676Y-82393105D01*
X131539341Y-82421189D01*
X131643475Y-82569907D01*
X131796093Y-82722525D01*
X131972894Y-82846323D01*
X132168507Y-82937539D01*
X132376987Y-82993401D01*
X132530567Y-83006837D01*
X132591998Y-83012212D01*
X132592000Y-83012212D01*
X132592002Y-83012212D01*
X132645753Y-83007509D01*
X132807013Y-82993401D01*
X133015493Y-82937539D01*
X133211106Y-82846323D01*
X133387907Y-82722525D01*
X133540525Y-82569907D01*
X133664323Y-82393106D01*
X133755539Y-82197493D01*
X133811401Y-81989013D01*
X133830212Y-81774000D01*
X133811401Y-81558987D01*
X133755539Y-81350507D01*
X133722658Y-81279994D01*
X140876844Y-81279994D01*
X140876844Y-81280005D01*
X140895434Y-81504359D01*
X140895436Y-81504371D01*
X140950703Y-81722614D01*
X141041140Y-81928792D01*
X141164276Y-82117265D01*
X141164284Y-82117276D01*
X141316756Y-82282902D01*
X141316760Y-82282906D01*
X141494424Y-82421189D01*
X141494425Y-82421189D01*
X141494427Y-82421191D01*
X141616158Y-82487068D01*
X141692426Y-82528342D01*
X141905365Y-82601444D01*
X142127431Y-82638500D01*
X142352569Y-82638500D01*
X142574635Y-82601444D01*
X142787574Y-82528342D01*
X142985576Y-82421189D01*
X143163240Y-82282906D01*
X143315722Y-82117268D01*
X143438860Y-81928791D01*
X143529296Y-81722616D01*
X143584564Y-81504368D01*
X143584565Y-81504359D01*
X143603156Y-81280005D01*
X143603156Y-81279994D01*
X143592633Y-81153000D01*
X143993496Y-81153000D01*
X144013458Y-81342928D01*
X144013459Y-81342931D01*
X144072470Y-81524549D01*
X144072473Y-81524556D01*
X144167960Y-81689944D01*
X144295747Y-81831866D01*
X144450248Y-81944118D01*
X144624712Y-82021794D01*
X144811513Y-82061500D01*
X145002487Y-82061500D01*
X145189288Y-82021794D01*
X145363752Y-81944118D01*
X145518253Y-81831866D01*
X145646040Y-81689944D01*
X145741527Y-81524556D01*
X145800542Y-81342928D01*
X145820504Y-81153000D01*
X145800542Y-80963072D01*
X145741527Y-80781444D01*
X145646040Y-80616056D01*
X145518253Y-80474134D01*
X145363752Y-80361882D01*
X145189288Y-80284206D01*
X145189286Y-80284205D01*
X145002487Y-80244500D01*
X144811513Y-80244500D01*
X144624714Y-80284205D01*
X144450246Y-80361883D01*
X144295745Y-80474135D01*
X144167959Y-80616057D01*
X144072473Y-80781443D01*
X144072470Y-80781450D01*
X144013459Y-80963068D01*
X144013458Y-80963072D01*
X143993496Y-81153000D01*
X143592633Y-81153000D01*
X143584565Y-81055640D01*
X143584563Y-81055628D01*
X143564928Y-80978092D01*
X143529296Y-80837384D01*
X143438860Y-80631209D01*
X143425305Y-80610462D01*
X143376518Y-80535788D01*
X143315722Y-80442732D01*
X143315719Y-80442729D01*
X143315715Y-80442723D01*
X143170510Y-80284991D01*
X143139587Y-80222337D01*
X143147447Y-80152911D01*
X143191594Y-80098755D01*
X143218405Y-80084827D01*
X143298584Y-80054920D01*
X143336204Y-80040889D01*
X143453261Y-79953261D01*
X143540889Y-79836204D01*
X143591989Y-79699201D01*
X143596406Y-79658116D01*
X143598499Y-79638654D01*
X143598500Y-79638637D01*
X143598500Y-79066325D01*
X143618185Y-78999286D01*
X143670989Y-78953531D01*
X143740147Y-78943587D01*
X143803703Y-78972612D01*
X143829885Y-79004323D01*
X143913960Y-79149944D01*
X144041747Y-79291866D01*
X144196248Y-79404118D01*
X144370712Y-79481794D01*
X144557513Y-79521500D01*
X144748487Y-79521500D01*
X144935288Y-79481794D01*
X145109752Y-79404118D01*
X145264253Y-79291866D01*
X145392040Y-79149944D01*
X145487527Y-78984556D01*
X145546542Y-78802928D01*
X145566504Y-78613000D01*
X145546542Y-78423072D01*
X145487527Y-78241444D01*
X145392040Y-78076056D01*
X145264253Y-77934134D01*
X145109752Y-77821882D01*
X144935288Y-77744206D01*
X144935286Y-77744205D01*
X144748487Y-77704500D01*
X144557513Y-77704500D01*
X144370714Y-77744205D01*
X144196246Y-77821883D01*
X144041745Y-77934135D01*
X143913959Y-78076057D01*
X143829887Y-78221674D01*
X143779320Y-78269890D01*
X143710713Y-78283113D01*
X143645848Y-78257145D01*
X143605320Y-78200230D01*
X143598500Y-78159674D01*
X143598500Y-77841362D01*
X143598499Y-77841345D01*
X143595078Y-77809532D01*
X143591989Y-77780799D01*
X143587165Y-77767866D01*
X143554443Y-77680135D01*
X143540889Y-77643796D01*
X143453261Y-77526739D01*
X143336204Y-77439111D01*
X143199203Y-77388011D01*
X143138654Y-77381500D01*
X143138638Y-77381500D01*
X141341362Y-77381500D01*
X141341345Y-77381500D01*
X141280797Y-77388011D01*
X141280795Y-77388011D01*
X141143795Y-77439111D01*
X141026739Y-77526739D01*
X140939111Y-77643795D01*
X140888011Y-77780795D01*
X140888011Y-77780797D01*
X140881500Y-77841345D01*
X140881500Y-79638654D01*
X140888011Y-79699202D01*
X140888011Y-79699204D01*
X140935396Y-79826243D01*
X140939111Y-79836204D01*
X141026739Y-79953261D01*
X141143796Y-80040889D01*
X141195737Y-80060262D01*
X141261595Y-80084827D01*
X141317528Y-80126699D01*
X141341944Y-80192163D01*
X141327092Y-80260436D01*
X141309490Y-80284991D01*
X141164279Y-80442730D01*
X141164276Y-80442734D01*
X141041140Y-80631207D01*
X140950703Y-80837385D01*
X140895436Y-81055628D01*
X140895434Y-81055640D01*
X140876844Y-81279994D01*
X133722658Y-81279994D01*
X133664323Y-81154894D01*
X133540525Y-80978093D01*
X133387907Y-80825475D01*
X133211106Y-80701677D01*
X133211107Y-80701677D01*
X133211105Y-80701676D01*
X133059987Y-80631209D01*
X133015493Y-80610461D01*
X133015489Y-80610460D01*
X133015485Y-80610458D01*
X132807018Y-80554600D01*
X132807014Y-80554599D01*
X132807013Y-80554599D01*
X132807012Y-80554598D01*
X132807007Y-80554598D01*
X132592002Y-80535788D01*
X132591998Y-80535788D01*
X132376992Y-80554598D01*
X132376981Y-80554600D01*
X132168514Y-80610458D01*
X132168505Y-80610462D01*
X131972894Y-80701676D01*
X131796092Y-80825475D01*
X131643475Y-80978092D01*
X131519676Y-81154894D01*
X131428462Y-81350505D01*
X131428458Y-81350514D01*
X131372600Y-81558981D01*
X131372598Y-81558992D01*
X131353788Y-81773998D01*
X125190212Y-81773998D01*
X125171401Y-81558987D01*
X125115539Y-81350507D01*
X125024323Y-81154894D01*
X124900525Y-80978093D01*
X124747907Y-80825475D01*
X124571106Y-80701677D01*
X124571107Y-80701677D01*
X124571105Y-80701676D01*
X124449562Y-80645000D01*
X125705496Y-80645000D01*
X125725458Y-80834928D01*
X125725459Y-80834931D01*
X125784470Y-81016549D01*
X125784473Y-81016556D01*
X125879960Y-81181944D01*
X126007747Y-81323866D01*
X126162248Y-81436118D01*
X126336712Y-81513794D01*
X126523513Y-81553500D01*
X126714487Y-81553500D01*
X126901288Y-81513794D01*
X127075752Y-81436118D01*
X127230253Y-81323866D01*
X127358040Y-81181944D01*
X127453527Y-81016556D01*
X127512542Y-80834928D01*
X127532504Y-80645000D01*
X129007496Y-80645000D01*
X129027458Y-80834928D01*
X129027459Y-80834931D01*
X129086470Y-81016549D01*
X129086473Y-81016556D01*
X129181960Y-81181944D01*
X129309747Y-81323866D01*
X129464248Y-81436118D01*
X129638712Y-81513794D01*
X129825513Y-81553500D01*
X130016487Y-81553500D01*
X130203288Y-81513794D01*
X130377752Y-81436118D01*
X130532253Y-81323866D01*
X130660040Y-81181944D01*
X130755527Y-81016556D01*
X130814542Y-80834928D01*
X130834504Y-80645000D01*
X130814542Y-80455072D01*
X130755527Y-80273444D01*
X130660040Y-80108056D01*
X130532253Y-79966134D01*
X130377752Y-79853882D01*
X130203288Y-79776206D01*
X130203286Y-79776205D01*
X130016487Y-79736500D01*
X129825513Y-79736500D01*
X129638714Y-79776205D01*
X129464246Y-79853883D01*
X129309745Y-79966135D01*
X129181959Y-80108057D01*
X129086473Y-80273443D01*
X129086470Y-80273450D01*
X129031467Y-80442734D01*
X129027458Y-80455072D01*
X129007496Y-80645000D01*
X127532504Y-80645000D01*
X127512542Y-80455072D01*
X127453527Y-80273444D01*
X127358040Y-80108056D01*
X127230253Y-79966134D01*
X127075752Y-79853882D01*
X126901288Y-79776206D01*
X126901286Y-79776205D01*
X126714487Y-79736500D01*
X126523513Y-79736500D01*
X126336714Y-79776205D01*
X126162246Y-79853883D01*
X126007745Y-79966135D01*
X125879959Y-80108057D01*
X125784473Y-80273443D01*
X125784470Y-80273450D01*
X125729467Y-80442734D01*
X125725458Y-80455072D01*
X125705496Y-80645000D01*
X124449562Y-80645000D01*
X124419987Y-80631209D01*
X124375493Y-80610461D01*
X124375489Y-80610460D01*
X124375485Y-80610458D01*
X124167018Y-80554600D01*
X124167014Y-80554599D01*
X124167013Y-80554599D01*
X124167012Y-80554598D01*
X124167007Y-80554598D01*
X123952002Y-80535788D01*
X123951998Y-80535788D01*
X123736992Y-80554598D01*
X123736981Y-80554600D01*
X123528514Y-80610458D01*
X123528505Y-80610462D01*
X123332894Y-80701676D01*
X123156092Y-80825475D01*
X123003475Y-80978092D01*
X122879676Y-81154894D01*
X122788462Y-81350505D01*
X122788458Y-81350514D01*
X122732600Y-81558981D01*
X122732598Y-81558992D01*
X122713788Y-81773998D01*
X115566758Y-81773998D01*
X115589296Y-81722616D01*
X115644564Y-81504368D01*
X115644565Y-81504359D01*
X115663156Y-81280005D01*
X115663156Y-81279994D01*
X115644565Y-81055640D01*
X115644563Y-81055628D01*
X115624928Y-80978092D01*
X115589296Y-80837384D01*
X115498860Y-80631209D01*
X115485305Y-80610462D01*
X115436518Y-80535788D01*
X115375722Y-80442732D01*
X115375719Y-80442729D01*
X115375715Y-80442723D01*
X115230510Y-80284991D01*
X115199587Y-80222337D01*
X115207447Y-80152911D01*
X115251594Y-80098755D01*
X115278405Y-80084827D01*
X115358584Y-80054920D01*
X115396204Y-80040889D01*
X115513261Y-79953261D01*
X115600889Y-79836204D01*
X115651989Y-79699201D01*
X115656406Y-79658116D01*
X115658499Y-79638654D01*
X115658500Y-79638637D01*
X115658500Y-77841362D01*
X115658499Y-77841345D01*
X115655078Y-77809532D01*
X115651989Y-77780799D01*
X115647165Y-77767866D01*
X115614443Y-77680135D01*
X115600889Y-77643796D01*
X115513261Y-77526739D01*
X115396204Y-77439111D01*
X115259203Y-77388011D01*
X115198654Y-77381500D01*
X115198638Y-77381500D01*
X113401362Y-77381500D01*
X113401345Y-77381500D01*
X113340797Y-77388011D01*
X113340795Y-77388011D01*
X113203795Y-77439111D01*
X113086739Y-77526739D01*
X112999111Y-77643795D01*
X112948011Y-77780795D01*
X112948011Y-77780797D01*
X112941500Y-77841345D01*
X112941500Y-79638654D01*
X112948011Y-79699202D01*
X112948011Y-79699204D01*
X112995396Y-79826243D01*
X112999111Y-79836204D01*
X113086739Y-79953261D01*
X113203796Y-80040889D01*
X113255737Y-80060262D01*
X113321595Y-80084827D01*
X113377528Y-80126699D01*
X113401944Y-80192163D01*
X113387092Y-80260436D01*
X113369490Y-80284991D01*
X113224279Y-80442730D01*
X113224276Y-80442734D01*
X113101140Y-80631207D01*
X113010703Y-80837385D01*
X112955436Y-81055628D01*
X112955434Y-81055640D01*
X112936844Y-81279994D01*
X101473000Y-81279994D01*
X101473000Y-79826243D01*
X101492685Y-79759204D01*
X101545489Y-79713449D01*
X101614647Y-79703505D01*
X101647432Y-79712962D01*
X101698712Y-79735794D01*
X101885513Y-79775500D01*
X102076487Y-79775500D01*
X102263288Y-79735794D01*
X102437752Y-79658118D01*
X102592253Y-79545866D01*
X102720040Y-79403944D01*
X102815527Y-79238556D01*
X102874542Y-79056928D01*
X102894504Y-78867000D01*
X102874542Y-78677072D01*
X102815527Y-78495444D01*
X102720040Y-78330056D01*
X102593049Y-78189018D01*
X102592254Y-78188135D01*
X102566017Y-78169072D01*
X102437752Y-78075882D01*
X102263288Y-77998206D01*
X102263286Y-77998205D01*
X102076487Y-77958500D01*
X101885513Y-77958500D01*
X101698714Y-77998205D01*
X101647435Y-78021036D01*
X101578185Y-78030320D01*
X101514908Y-78000691D01*
X101477696Y-77941556D01*
X101473000Y-77907756D01*
X101473000Y-75435000D01*
X101492685Y-75367961D01*
X101545489Y-75322206D01*
X101597000Y-75311000D01*
X110672135Y-75311000D01*
X110739174Y-75330685D01*
G37*
%TD.AperFunction*%
%TD*%
M02*
