%TF.GenerationSoftware,KiCad,Pcbnew,7.0.5-0*%
%TF.CreationDate,2023-06-14T11:28:47-06:00*%
%TF.ProjectId,Breadboard Power Supply,42726561-6462-46f6-9172-6420506f7765,v9*%
%TF.SameCoordinates,Original*%
%TF.FileFunction,Copper,L2,Bot*%
%TF.FilePolarity,Positive*%
%FSLAX46Y46*%
G04 Gerber Fmt 4.6, Leading zero omitted, Abs format (unit mm)*
G04 Created by KiCad (PCBNEW 7.0.5-0) date 2023-06-14 11:28:47*
%MOMM*%
%LPD*%
G01*
G04 APERTURE LIST*
G04 Aperture macros list*
%AMRoundRect*
0 Rectangle with rounded corners*
0 $1 Rounding radius*
0 $2 $3 $4 $5 $6 $7 $8 $9 X,Y pos of 4 corners*
0 Add a 4 corners polygon primitive as box body*
4,1,4,$2,$3,$4,$5,$6,$7,$8,$9,$2,$3,0*
0 Add four circle primitives for the rounded corners*
1,1,$1+$1,$2,$3*
1,1,$1+$1,$4,$5*
1,1,$1+$1,$6,$7*
1,1,$1+$1,$8,$9*
0 Add four rect primitives between the rounded corners*
20,1,$1+$1,$2,$3,$4,$5,0*
20,1,$1+$1,$4,$5,$6,$7,0*
20,1,$1+$1,$6,$7,$8,$9,0*
20,1,$1+$1,$8,$9,$2,$3,0*%
G04 Aperture macros list end*
%TA.AperFunction,ComponentPad*%
%ADD10C,1.830000*%
%TD*%
%TA.AperFunction,ComponentPad*%
%ADD11R,1.700000X1.700000*%
%TD*%
%TA.AperFunction,ComponentPad*%
%ADD12O,1.700000X1.700000*%
%TD*%
%TA.AperFunction,ComponentPad*%
%ADD13C,1.450000*%
%TD*%
%TA.AperFunction,SMDPad,CuDef*%
%ADD14RoundRect,0.250000X0.900000X-1.000000X0.900000X1.000000X-0.900000X1.000000X-0.900000X-1.000000X0*%
%TD*%
%TA.AperFunction,ViaPad*%
%ADD15C,0.800000*%
%TD*%
%TA.AperFunction,Conductor*%
%ADD16C,0.750000*%
%TD*%
G04 APERTURE END LIST*
D10*
%TO.P,TP3,1,1*%
%TO.N,GND*%
X135860000Y-83058000D03*
%TO.P,TP3,2,2*%
X140940000Y-83058000D03*
%TD*%
D11*
%TO.P,J2,1,Pin_1*%
%TO.N,+5V*%
X152766000Y-84328000D03*
D12*
%TO.P,J2,2,Pin_2*%
%TO.N,/TOP_POWER_RAIL*%
X152766000Y-86868000D03*
%TO.P,J2,3,Pin_3*%
%TO.N,+3.3V*%
X150226000Y-84328000D03*
%TO.P,J2,4,Pin_4*%
%TO.N,/TOP_POWER_RAIL*%
X150226000Y-86868000D03*
%TO.P,J2,5,Pin_5*%
%TO.N,+1V8*%
X147686000Y-84328000D03*
%TO.P,J2,6,Pin_6*%
%TO.N,/TOP_POWER_RAIL*%
X147686000Y-86868000D03*
%TD*%
D10*
%TO.P,TP2,1,1*%
%TO.N,GND*%
X120680000Y-83062000D03*
%TO.P,TP2,2,2*%
X115600000Y-83062000D03*
%TD*%
D13*
%TO.P,J1,MH1,MH1*%
%TO.N,GND*%
X132592000Y-77978000D03*
%TO.P,J1,MH2,MH2*%
X123952000Y-77978000D03*
%TO.P,J1,MH3,MH3*%
X132592000Y-81778000D03*
%TO.P,J1,MH4,MH4*%
X123952000Y-81778000D03*
%TD*%
D11*
%TO.P,J3,1,Pin_1*%
%TO.N,+5V*%
X108824000Y-84328000D03*
D12*
%TO.P,J3,2,Pin_2*%
%TO.N,/BOTTOM_POWER_RAIL*%
X108824000Y-86868000D03*
%TO.P,J3,3,Pin_3*%
%TO.N,+3.3V*%
X106284000Y-84328000D03*
%TO.P,J3,4,Pin_4*%
%TO.N,/BOTTOM_POWER_RAIL*%
X106284000Y-86868000D03*
%TO.P,J3,5,Pin_5*%
%TO.N,+1V8*%
X103744000Y-84328000D03*
%TO.P,J3,6,Pin_6*%
%TO.N,/BOTTOM_POWER_RAIL*%
X103744000Y-86868000D03*
%TD*%
D10*
%TO.P,TP1,1,1*%
%TO.N,GND*%
X103729000Y-97026000D03*
%TO.P,TP1,2,2*%
X108809000Y-97026000D03*
%TD*%
%TO.P,TP4,1,1*%
%TO.N,GND*%
X147671000Y-97026000D03*
%TO.P,TP4,2,2*%
X152751000Y-97026000D03*
%TD*%
D14*
%TO.P,D2,1,K*%
%TO.N,+5V*%
X128270000Y-82033000D03*
%TO.P,D2,2,A*%
%TO.N,GND*%
X128270000Y-77733000D03*
%TD*%
D11*
%TO.P,J10,1,Pin_1*%
%TO.N,unconnected-(J10-Pin_1-Pad1)*%
X116840000Y-78740000D03*
D12*
%TO.P,J10,2,Pin_2*%
%TO.N,unconnected-(J10-Pin_2-Pad2)*%
X119380000Y-78740000D03*
%TD*%
D11*
%TO.P,J8,1,Pin_1*%
%TO.N,/TOP_POWER_RAIL*%
X151765000Y-93980000D03*
D12*
%TO.P,J8,2,Pin_2*%
%TO.N,GND*%
X149225000Y-93980000D03*
%TD*%
D11*
%TO.P,J11,1,Pin_1*%
%TO.N,unconnected-(J11-Pin_1-Pad1)*%
X139700000Y-78740000D03*
D12*
%TO.P,J11,2,Pin_2*%
%TO.N,unconnected-(J11-Pin_2-Pad2)*%
X137160000Y-78740000D03*
%TD*%
D11*
%TO.P,J9,1,Pin_1*%
%TO.N,/BOTTOM_POWER_RAIL*%
X107315000Y-93980000D03*
D12*
%TO.P,J9,2,Pin_2*%
%TO.N,GND*%
X104775000Y-93980000D03*
%TD*%
D15*
%TO.N,GND*%
X134366000Y-80392500D03*
X149362896Y-76666500D03*
X105791000Y-81153000D03*
X113585005Y-78692995D03*
X136144000Y-76962000D03*
X143510000Y-80452000D03*
%TO.N,+3.3V*%
X147094000Y-82903000D03*
%TO.N,+1V8*%
X148844000Y-88317419D03*
X151638000Y-88317419D03*
X107482182Y-75689648D03*
X154559000Y-81366502D03*
%TO.N,+5V*%
X130371817Y-83243064D03*
X126225300Y-83372700D03*
X114901000Y-81568000D03*
X148971000Y-80772000D03*
%TD*%
D16*
%TO.N,+3.3V*%
X150226000Y-84328000D02*
X148801000Y-82903000D01*
X148801000Y-82903000D02*
X147094000Y-82903000D01*
%TO.N,+1V8*%
X154559000Y-81366502D02*
X154559000Y-75692000D01*
X154556648Y-75689648D02*
X114046000Y-75689648D01*
X154559000Y-75692000D02*
X154556648Y-75689648D01*
X107482182Y-75689648D02*
X114046000Y-75689648D01*
X151638000Y-88317419D02*
X148844000Y-88317419D01*
%TO.N,+5V*%
X152766000Y-84328000D02*
X152527000Y-84328000D01*
X152527000Y-84328000D02*
X148971000Y-80772000D01*
X112141000Y-84328000D02*
X108824000Y-84328000D01*
X128270000Y-81927700D02*
X129056453Y-81927700D01*
X129056453Y-81927700D02*
X130371817Y-83243064D01*
X114901000Y-81568000D02*
X112141000Y-84328000D01*
X128270000Y-81927700D02*
X127670300Y-81927700D01*
X127670300Y-81927700D02*
X126225300Y-83372700D01*
%TD*%
%TA.AperFunction,Conductor*%
%TO.N,GND*%
G36*
X106546327Y-75330685D02*
G01*
X106592082Y-75383489D01*
X106602026Y-75452647D01*
X106597221Y-75473308D01*
X106590668Y-75493477D01*
X106588640Y-75499719D01*
X106585405Y-75530495D01*
X106568678Y-75689648D01*
X106588640Y-75879576D01*
X106588641Y-75879579D01*
X106647652Y-76061197D01*
X106647655Y-76061204D01*
X106743142Y-76226592D01*
X106870929Y-76368514D01*
X107025430Y-76480766D01*
X107199894Y-76558442D01*
X107386695Y-76598148D01*
X107577669Y-76598148D01*
X107682535Y-76575858D01*
X107708316Y-76573148D01*
X113999694Y-76573148D01*
X123520070Y-76573148D01*
X123587109Y-76592833D01*
X123632864Y-76645637D01*
X123642808Y-76714795D01*
X123613783Y-76778351D01*
X123555005Y-76816125D01*
X123552163Y-76816923D01*
X123531432Y-76822477D01*
X123531423Y-76822481D01*
X123337158Y-76913068D01*
X123280378Y-76952824D01*
X123837133Y-77509579D01*
X123815378Y-77512707D01*
X123689824Y-77570046D01*
X123585510Y-77660434D01*
X123510887Y-77776550D01*
X123485035Y-77864589D01*
X122926824Y-77306378D01*
X122887068Y-77363158D01*
X122796481Y-77557423D01*
X122796477Y-77557432D01*
X122741004Y-77764462D01*
X122741002Y-77764472D01*
X122722321Y-77977999D01*
X122722321Y-77978000D01*
X122741002Y-78191527D01*
X122741004Y-78191537D01*
X122796477Y-78398567D01*
X122796481Y-78398576D01*
X122887067Y-78592839D01*
X122926825Y-78649620D01*
X123485035Y-78091409D01*
X123510887Y-78179450D01*
X123585510Y-78295566D01*
X123689824Y-78385954D01*
X123815378Y-78443293D01*
X123837131Y-78446420D01*
X123280378Y-79003173D01*
X123337160Y-79042933D01*
X123531423Y-79133518D01*
X123531432Y-79133522D01*
X123738462Y-79188995D01*
X123738472Y-79188997D01*
X123951999Y-79207679D01*
X123952001Y-79207679D01*
X124165527Y-79188997D01*
X124165537Y-79188995D01*
X124372567Y-79133522D01*
X124372581Y-79133517D01*
X124566835Y-79042935D01*
X124623620Y-79003173D01*
X124066868Y-78446420D01*
X124088622Y-78443293D01*
X124214176Y-78385954D01*
X124318490Y-78295566D01*
X124393113Y-78179450D01*
X124418963Y-78091411D01*
X124977173Y-78649619D01*
X125016935Y-78592835D01*
X125107517Y-78398581D01*
X125107522Y-78398567D01*
X125162995Y-78191537D01*
X125162997Y-78191527D01*
X125181242Y-77983000D01*
X126620001Y-77983000D01*
X126620001Y-78782986D01*
X126630494Y-78885697D01*
X126685641Y-79052119D01*
X126685643Y-79052124D01*
X126777684Y-79201345D01*
X126901654Y-79325315D01*
X127050875Y-79417356D01*
X127050880Y-79417358D01*
X127217302Y-79472505D01*
X127217309Y-79472506D01*
X127320019Y-79482999D01*
X128019998Y-79482999D01*
X128019999Y-79482998D01*
X128020000Y-77983000D01*
X128520000Y-77983000D01*
X128520000Y-79482999D01*
X129219972Y-79482999D01*
X129219986Y-79482998D01*
X129322697Y-79472505D01*
X129489119Y-79417358D01*
X129489124Y-79417356D01*
X129638345Y-79325315D01*
X129762315Y-79201345D01*
X129854356Y-79052124D01*
X129854358Y-79052119D01*
X129909505Y-78885697D01*
X129909506Y-78885690D01*
X129919999Y-78782986D01*
X129920000Y-78782973D01*
X129920000Y-77983000D01*
X128520000Y-77983000D01*
X128020000Y-77983000D01*
X126620001Y-77983000D01*
X125181242Y-77983000D01*
X125181679Y-77978000D01*
X125181679Y-77977999D01*
X125162997Y-77764472D01*
X125162995Y-77764462D01*
X125107522Y-77557432D01*
X125107518Y-77557423D01*
X125016933Y-77363162D01*
X124977173Y-77306378D01*
X124418963Y-77864587D01*
X124393113Y-77776550D01*
X124318490Y-77660434D01*
X124214176Y-77570046D01*
X124088622Y-77512707D01*
X124066867Y-77509579D01*
X124623620Y-76952825D01*
X124566839Y-76913067D01*
X124372576Y-76822481D01*
X124372567Y-76822477D01*
X124351837Y-76816923D01*
X124292176Y-76780558D01*
X124261647Y-76717711D01*
X124269942Y-76648336D01*
X124314427Y-76594458D01*
X124380979Y-76573183D01*
X124383930Y-76573148D01*
X126496000Y-76573148D01*
X126563039Y-76592833D01*
X126608794Y-76645637D01*
X126620000Y-76697148D01*
X126620000Y-77483000D01*
X129919999Y-77483000D01*
X129919999Y-76697148D01*
X129939684Y-76630109D01*
X129992488Y-76584354D01*
X130043999Y-76573148D01*
X132160070Y-76573148D01*
X132227109Y-76592833D01*
X132272864Y-76645637D01*
X132282808Y-76714795D01*
X132253783Y-76778351D01*
X132195005Y-76816125D01*
X132192163Y-76816923D01*
X132171432Y-76822477D01*
X132171423Y-76822481D01*
X131977158Y-76913068D01*
X131920378Y-76952824D01*
X132477133Y-77509579D01*
X132455378Y-77512707D01*
X132329824Y-77570046D01*
X132225510Y-77660434D01*
X132150887Y-77776550D01*
X132125036Y-77864588D01*
X131566825Y-77306378D01*
X131566824Y-77306378D01*
X131527068Y-77363158D01*
X131436481Y-77557423D01*
X131436477Y-77557432D01*
X131381004Y-77764462D01*
X131381002Y-77764472D01*
X131362321Y-77977999D01*
X131362321Y-77978000D01*
X131381002Y-78191527D01*
X131381004Y-78191537D01*
X131436477Y-78398567D01*
X131436481Y-78398576D01*
X131527067Y-78592839D01*
X131566825Y-78649620D01*
X132125035Y-78091409D01*
X132150887Y-78179450D01*
X132225510Y-78295566D01*
X132329824Y-78385954D01*
X132455378Y-78443293D01*
X132477131Y-78446420D01*
X131920378Y-79003173D01*
X131977160Y-79042933D01*
X132171423Y-79133518D01*
X132171432Y-79133522D01*
X132378462Y-79188995D01*
X132378472Y-79188997D01*
X132591999Y-79207679D01*
X132592001Y-79207679D01*
X132805527Y-79188997D01*
X132805537Y-79188995D01*
X133012567Y-79133522D01*
X133012581Y-79133517D01*
X133206835Y-79042935D01*
X133263620Y-79003173D01*
X133000452Y-78740005D01*
X135796844Y-78740005D01*
X135815434Y-78964359D01*
X135815436Y-78964371D01*
X135870703Y-79182614D01*
X135961140Y-79388792D01*
X136084276Y-79577265D01*
X136084284Y-79577276D01*
X136210967Y-79714888D01*
X136236760Y-79742906D01*
X136414424Y-79881189D01*
X136414425Y-79881189D01*
X136414427Y-79881191D01*
X136455106Y-79903205D01*
X136612426Y-79988342D01*
X136825365Y-80061444D01*
X137047431Y-80098500D01*
X137272569Y-80098500D01*
X137494635Y-80061444D01*
X137707574Y-79988342D01*
X137905576Y-79881189D01*
X138083240Y-79742906D01*
X138146452Y-79674239D01*
X138206337Y-79638250D01*
X138276175Y-79640349D01*
X138333791Y-79679873D01*
X138353861Y-79714888D01*
X138399110Y-79836204D01*
X138399111Y-79836204D01*
X138486739Y-79953261D01*
X138603796Y-80040889D01*
X138740799Y-80091989D01*
X138768050Y-80094918D01*
X138801345Y-80098499D01*
X138801362Y-80098500D01*
X140598638Y-80098500D01*
X140598654Y-80098499D01*
X140625692Y-80095591D01*
X140659201Y-80091989D01*
X140796204Y-80040889D01*
X140913261Y-79953261D01*
X141000889Y-79836204D01*
X141051989Y-79699201D01*
X141057344Y-79649391D01*
X141058499Y-79638654D01*
X141058500Y-79638637D01*
X141058500Y-77841362D01*
X141058499Y-77841345D01*
X141055157Y-77810270D01*
X141051989Y-77780799D01*
X141050404Y-77776550D01*
X141029522Y-77720564D01*
X141000889Y-77643796D01*
X140913261Y-77526739D01*
X140796204Y-77439111D01*
X140796204Y-77439110D01*
X140659203Y-77388011D01*
X140598654Y-77381500D01*
X140598638Y-77381500D01*
X138801362Y-77381500D01*
X138801345Y-77381500D01*
X138740797Y-77388011D01*
X138740795Y-77388011D01*
X138603795Y-77439111D01*
X138486739Y-77526739D01*
X138399111Y-77643795D01*
X138353861Y-77765111D01*
X138311989Y-77821044D01*
X138246524Y-77845460D01*
X138178252Y-77830607D01*
X138146454Y-77805762D01*
X138083240Y-77737094D01*
X137905576Y-77598811D01*
X137905575Y-77598810D01*
X137905572Y-77598808D01*
X137707580Y-77491661D01*
X137707577Y-77491659D01*
X137707574Y-77491658D01*
X137707571Y-77491657D01*
X137707569Y-77491656D01*
X137494637Y-77418556D01*
X137272569Y-77381500D01*
X137047431Y-77381500D01*
X136825362Y-77418556D01*
X136612430Y-77491656D01*
X136612419Y-77491661D01*
X136414427Y-77598808D01*
X136414422Y-77598812D01*
X136236761Y-77737092D01*
X136236756Y-77737097D01*
X136084284Y-77902723D01*
X136084276Y-77902734D01*
X135961140Y-78091207D01*
X135870703Y-78297385D01*
X135815436Y-78515628D01*
X135815434Y-78515640D01*
X135796844Y-78739994D01*
X135796844Y-78740005D01*
X133000452Y-78740005D01*
X132706868Y-78446420D01*
X132728622Y-78443293D01*
X132854176Y-78385954D01*
X132958490Y-78295566D01*
X133033113Y-78179450D01*
X133058963Y-78091410D01*
X133617173Y-78649619D01*
X133656935Y-78592835D01*
X133747517Y-78398581D01*
X133747522Y-78398567D01*
X133802995Y-78191537D01*
X133802997Y-78191527D01*
X133821679Y-77978000D01*
X133821679Y-77977999D01*
X133802997Y-77764472D01*
X133802995Y-77764462D01*
X133747522Y-77557432D01*
X133747518Y-77557423D01*
X133656933Y-77363162D01*
X133617173Y-77306378D01*
X133058963Y-77864588D01*
X133033113Y-77776550D01*
X132958490Y-77660434D01*
X132854176Y-77570046D01*
X132728622Y-77512707D01*
X132706867Y-77509579D01*
X133263620Y-76952825D01*
X133206839Y-76913067D01*
X133012576Y-76822481D01*
X133012567Y-76822477D01*
X132991837Y-76816923D01*
X132932176Y-76780558D01*
X132901647Y-76717711D01*
X132909942Y-76648336D01*
X132954427Y-76594458D01*
X133020979Y-76573183D01*
X133023930Y-76573148D01*
X153551500Y-76573148D01*
X153618539Y-76592833D01*
X153664294Y-76645637D01*
X153675500Y-76697148D01*
X153675500Y-81126028D01*
X153669431Y-81164345D01*
X153665459Y-81176568D01*
X153665458Y-81176572D01*
X153665458Y-81176574D01*
X153645496Y-81366502D01*
X153665458Y-81556430D01*
X153665459Y-81556433D01*
X153724470Y-81738051D01*
X153724473Y-81738058D01*
X153819960Y-81903446D01*
X153901945Y-81994500D01*
X153935356Y-82031607D01*
X153947747Y-82045368D01*
X154102248Y-82157620D01*
X154276712Y-82235296D01*
X154463513Y-82275002D01*
X154654487Y-82275002D01*
X154790219Y-82246151D01*
X154859886Y-82251467D01*
X154915620Y-82293604D01*
X154939725Y-82359184D01*
X154940000Y-82367441D01*
X154940000Y-98174000D01*
X154920315Y-98241039D01*
X154867511Y-98286794D01*
X154816000Y-98298000D01*
X153685659Y-98298000D01*
X153618620Y-98278315D01*
X153572865Y-98225511D01*
X153567385Y-98195938D01*
X152967714Y-97596267D01*
X153047205Y-97564795D01*
X153171892Y-97474205D01*
X153270133Y-97355452D01*
X153322570Y-97244017D01*
X153913023Y-97834471D01*
X153999718Y-97701777D01*
X153999723Y-97701769D01*
X154093918Y-97487025D01*
X154151485Y-97259696D01*
X154170850Y-97026005D01*
X154170850Y-97025994D01*
X154151485Y-96792303D01*
X154093918Y-96564974D01*
X153999723Y-96350230D01*
X153999718Y-96350222D01*
X153913023Y-96217527D01*
X153321802Y-96808748D01*
X153307331Y-96764210D01*
X153224749Y-96634081D01*
X153112399Y-96528578D01*
X152977341Y-96454329D01*
X152970798Y-96452649D01*
X153560487Y-95862959D01*
X153560487Y-95862958D01*
X153527585Y-95837350D01*
X153321348Y-95725739D01*
X153321339Y-95725736D01*
X153099555Y-95649597D01*
X152868250Y-95611000D01*
X152633750Y-95611000D01*
X152402444Y-95649597D01*
X152180660Y-95725736D01*
X152180651Y-95725739D01*
X151974413Y-95837350D01*
X151974407Y-95837354D01*
X151941512Y-95862957D01*
X151941512Y-95862959D01*
X152534285Y-96455732D01*
X152454795Y-96487205D01*
X152330108Y-96577795D01*
X152231867Y-96696548D01*
X152179430Y-96807981D01*
X151588975Y-96217527D01*
X151502277Y-96350229D01*
X151408081Y-96564974D01*
X151350514Y-96792303D01*
X151331150Y-97025994D01*
X151331150Y-97026005D01*
X151350514Y-97259696D01*
X151408081Y-97487025D01*
X151502279Y-97701775D01*
X151588975Y-97834471D01*
X152180196Y-97243249D01*
X152194669Y-97287790D01*
X152277251Y-97417919D01*
X152389601Y-97523422D01*
X152524659Y-97597671D01*
X152531201Y-97599350D01*
X151932997Y-98197553D01*
X151924607Y-98234449D01*
X151874738Y-98283387D01*
X151816339Y-98298000D01*
X148605659Y-98298000D01*
X148538620Y-98278315D01*
X148492865Y-98225511D01*
X148487385Y-98195938D01*
X147887714Y-97596267D01*
X147967205Y-97564795D01*
X148091892Y-97474205D01*
X148190133Y-97355452D01*
X148242569Y-97244017D01*
X148833023Y-97834471D01*
X148919718Y-97701777D01*
X148919723Y-97701769D01*
X149013918Y-97487025D01*
X149071485Y-97259696D01*
X149090850Y-97026005D01*
X149090850Y-97025994D01*
X149071485Y-96792303D01*
X149013918Y-96564974D01*
X148919723Y-96350230D01*
X148919718Y-96350222D01*
X148833023Y-96217527D01*
X148241802Y-96808748D01*
X148227331Y-96764210D01*
X148144749Y-96634081D01*
X148032399Y-96528578D01*
X147897341Y-96454329D01*
X147890798Y-96452649D01*
X148480487Y-95862959D01*
X148480487Y-95862958D01*
X148447585Y-95837350D01*
X148241348Y-95725739D01*
X148241339Y-95725736D01*
X148019555Y-95649597D01*
X147788250Y-95611000D01*
X147553750Y-95611000D01*
X147322444Y-95649597D01*
X147100660Y-95725736D01*
X147100651Y-95725739D01*
X146894413Y-95837350D01*
X146894407Y-95837354D01*
X146861512Y-95862957D01*
X146861512Y-95862959D01*
X147454285Y-96455732D01*
X147374795Y-96487205D01*
X147250108Y-96577795D01*
X147151867Y-96696548D01*
X147099430Y-96807981D01*
X146508975Y-96217527D01*
X146422277Y-96350229D01*
X146328081Y-96564974D01*
X146270514Y-96792303D01*
X146251150Y-97025994D01*
X146251150Y-97026005D01*
X146270514Y-97259696D01*
X146328081Y-97487025D01*
X146422279Y-97701775D01*
X146508975Y-97834471D01*
X147100196Y-97243249D01*
X147114669Y-97287790D01*
X147197251Y-97417919D01*
X147309601Y-97523422D01*
X147444659Y-97597671D01*
X147451201Y-97599350D01*
X146852997Y-98197553D01*
X146844607Y-98234449D01*
X146794738Y-98283387D01*
X146736339Y-98298000D01*
X146047000Y-98298000D01*
X145979961Y-98278315D01*
X145934206Y-98225511D01*
X145923000Y-98174000D01*
X145923000Y-94230000D01*
X147894364Y-94230000D01*
X147951567Y-94443486D01*
X147951570Y-94443492D01*
X148051399Y-94657578D01*
X148186894Y-94851082D01*
X148353917Y-95018105D01*
X148547421Y-95153600D01*
X148761507Y-95253429D01*
X148761516Y-95253433D01*
X148975000Y-95310634D01*
X148975000Y-94415501D01*
X149082685Y-94464680D01*
X149189237Y-94480000D01*
X149260763Y-94480000D01*
X149367315Y-94464680D01*
X149475000Y-94415501D01*
X149475000Y-95310633D01*
X149688483Y-95253433D01*
X149688492Y-95253429D01*
X149902578Y-95153600D01*
X150096078Y-95018108D01*
X150211914Y-94902272D01*
X150273237Y-94868787D01*
X150342929Y-94873771D01*
X150398863Y-94915642D01*
X150415777Y-94946619D01*
X150464110Y-95076203D01*
X150464111Y-95076204D01*
X150551739Y-95193261D01*
X150668796Y-95280889D01*
X150805799Y-95331989D01*
X150833050Y-95334918D01*
X150866345Y-95338499D01*
X150866362Y-95338500D01*
X152663638Y-95338500D01*
X152663654Y-95338499D01*
X152690692Y-95335591D01*
X152724201Y-95331989D01*
X152861204Y-95280889D01*
X152978261Y-95193261D01*
X153065889Y-95076204D01*
X153116989Y-94939201D01*
X153120959Y-94902272D01*
X153123499Y-94878654D01*
X153123500Y-94878637D01*
X153123500Y-93081362D01*
X153123499Y-93081345D01*
X153120157Y-93050270D01*
X153116989Y-93020799D01*
X153114222Y-93013381D01*
X153087559Y-92941894D01*
X153065889Y-92883796D01*
X152978261Y-92766739D01*
X152861204Y-92679111D01*
X152861204Y-92679110D01*
X152724203Y-92628011D01*
X152663654Y-92621500D01*
X152663638Y-92621500D01*
X150866362Y-92621500D01*
X150866345Y-92621500D01*
X150805797Y-92628011D01*
X150805795Y-92628011D01*
X150668795Y-92679111D01*
X150551739Y-92766739D01*
X150464111Y-92883795D01*
X150415777Y-93013381D01*
X150373905Y-93069314D01*
X150308441Y-93093730D01*
X150240168Y-93078878D01*
X150211915Y-93057727D01*
X150096082Y-92941894D01*
X149902578Y-92806399D01*
X149688492Y-92706570D01*
X149688486Y-92706567D01*
X149475000Y-92649364D01*
X149475000Y-93544498D01*
X149367315Y-93495320D01*
X149260763Y-93480000D01*
X149189237Y-93480000D01*
X149082685Y-93495320D01*
X148975000Y-93544498D01*
X148975000Y-92649364D01*
X148974999Y-92649364D01*
X148761513Y-92706567D01*
X148761507Y-92706570D01*
X148547422Y-92806399D01*
X148547420Y-92806400D01*
X148353926Y-92941886D01*
X148353920Y-92941891D01*
X148186891Y-93108920D01*
X148186886Y-93108926D01*
X148051400Y-93302420D01*
X148051399Y-93302422D01*
X147951570Y-93516507D01*
X147951567Y-93516513D01*
X147894364Y-93729999D01*
X147894364Y-93730000D01*
X148791314Y-93730000D01*
X148765507Y-93770156D01*
X148725000Y-93908111D01*
X148725000Y-94051889D01*
X148765507Y-94189844D01*
X148791314Y-94230000D01*
X147894364Y-94230000D01*
X145923000Y-94230000D01*
X145923000Y-84963000D01*
X113054819Y-84963000D01*
X112987780Y-84943315D01*
X112942025Y-84890511D01*
X112932081Y-84821353D01*
X112961106Y-84757797D01*
X112967138Y-84751319D01*
X113245457Y-84473000D01*
X114109954Y-83608502D01*
X114171273Y-83575020D01*
X114240964Y-83580004D01*
X114296898Y-83621875D01*
X114311187Y-83646375D01*
X114351280Y-83737777D01*
X114437975Y-83870471D01*
X115029197Y-83279249D01*
X115043669Y-83323790D01*
X115126251Y-83453919D01*
X115238601Y-83559422D01*
X115373659Y-83633671D01*
X115380201Y-83635350D01*
X114790511Y-84225039D01*
X114790512Y-84225040D01*
X114823413Y-84250648D01*
X114823414Y-84250649D01*
X115029651Y-84362260D01*
X115029660Y-84362263D01*
X115251444Y-84438402D01*
X115482750Y-84477000D01*
X115717250Y-84477000D01*
X115948555Y-84438402D01*
X116170339Y-84362263D01*
X116170347Y-84362260D01*
X116376586Y-84250649D01*
X116376589Y-84250647D01*
X116409486Y-84225040D01*
X116409486Y-84225039D01*
X115816714Y-83632267D01*
X115896205Y-83600795D01*
X116020892Y-83510205D01*
X116119133Y-83391452D01*
X116171569Y-83280017D01*
X116762023Y-83870471D01*
X116848718Y-83737777D01*
X116848723Y-83737769D01*
X116942918Y-83523025D01*
X117000485Y-83295696D01*
X117019850Y-83062005D01*
X119260150Y-83062005D01*
X119279514Y-83295696D01*
X119337081Y-83523025D01*
X119431279Y-83737775D01*
X119517975Y-83870471D01*
X120109196Y-83279249D01*
X120123669Y-83323790D01*
X120206251Y-83453919D01*
X120318601Y-83559422D01*
X120453659Y-83633671D01*
X120460201Y-83635350D01*
X119870511Y-84225039D01*
X119870512Y-84225040D01*
X119903413Y-84250648D01*
X119903414Y-84250649D01*
X120109651Y-84362260D01*
X120109660Y-84362263D01*
X120331444Y-84438402D01*
X120562750Y-84477000D01*
X120797250Y-84477000D01*
X121028555Y-84438402D01*
X121250339Y-84362263D01*
X121250347Y-84362260D01*
X121456586Y-84250649D01*
X121456589Y-84250647D01*
X121489486Y-84225040D01*
X121489486Y-84225039D01*
X120896714Y-83632267D01*
X120976205Y-83600795D01*
X121100892Y-83510205D01*
X121199133Y-83391452D01*
X121251569Y-83280017D01*
X121842023Y-83870471D01*
X121928718Y-83737777D01*
X121928723Y-83737769D01*
X122022918Y-83523025D01*
X122060985Y-83372700D01*
X125311796Y-83372700D01*
X125331758Y-83562628D01*
X125331759Y-83562631D01*
X125390770Y-83744249D01*
X125390773Y-83744256D01*
X125486260Y-83909644D01*
X125614047Y-84051566D01*
X125768548Y-84163818D01*
X125943012Y-84241494D01*
X126129813Y-84281200D01*
X126320787Y-84281200D01*
X126507588Y-84241494D01*
X126682052Y-84163818D01*
X126836553Y-84051566D01*
X126953278Y-83921930D01*
X126964336Y-83909649D01*
X126964336Y-83909647D01*
X126964340Y-83909644D01*
X126992416Y-83861012D01*
X127012115Y-83835341D01*
X127049575Y-83797881D01*
X127110896Y-83764398D01*
X127176254Y-83767857D01*
X127215574Y-83780887D01*
X127319455Y-83791500D01*
X129220544Y-83791499D01*
X129324426Y-83780887D01*
X129487804Y-83726749D01*
X129557627Y-83724348D01*
X129617669Y-83760080D01*
X129628658Y-83774963D01*
X129628955Y-83774748D01*
X129632775Y-83780006D01*
X129749502Y-83909644D01*
X129760564Y-83921930D01*
X129915065Y-84034182D01*
X130089529Y-84111858D01*
X130276330Y-84151564D01*
X130467304Y-84151564D01*
X130654105Y-84111858D01*
X130828569Y-84034182D01*
X130983070Y-83921930D01*
X131110857Y-83780008D01*
X131206344Y-83614620D01*
X131265359Y-83432992D01*
X131285321Y-83243064D01*
X131265871Y-83058005D01*
X134440150Y-83058005D01*
X134459514Y-83291696D01*
X134517081Y-83519025D01*
X134611279Y-83733775D01*
X134697975Y-83866471D01*
X135289197Y-83275249D01*
X135303669Y-83319790D01*
X135386251Y-83449919D01*
X135498601Y-83555422D01*
X135633659Y-83629671D01*
X135640201Y-83631350D01*
X135050511Y-84221039D01*
X135050512Y-84221040D01*
X135083413Y-84246648D01*
X135083414Y-84246649D01*
X135289651Y-84358260D01*
X135289660Y-84358263D01*
X135511444Y-84434402D01*
X135742750Y-84473000D01*
X135977250Y-84473000D01*
X136208555Y-84434402D01*
X136430339Y-84358263D01*
X136430347Y-84358260D01*
X136636586Y-84246649D01*
X136636589Y-84246647D01*
X136669486Y-84221040D01*
X136669486Y-84221039D01*
X136076714Y-83628267D01*
X136156205Y-83596795D01*
X136280892Y-83506205D01*
X136379133Y-83387452D01*
X136431570Y-83276017D01*
X137022023Y-83866471D01*
X137108718Y-83733777D01*
X137108723Y-83733769D01*
X137202918Y-83519025D01*
X137260485Y-83291696D01*
X137279850Y-83058005D01*
X139520150Y-83058005D01*
X139539514Y-83291696D01*
X139597081Y-83519025D01*
X139691279Y-83733775D01*
X139777975Y-83866471D01*
X140369196Y-83275249D01*
X140383669Y-83319790D01*
X140466251Y-83449919D01*
X140578601Y-83555422D01*
X140713659Y-83629671D01*
X140720201Y-83631350D01*
X140130511Y-84221039D01*
X140130512Y-84221040D01*
X140163413Y-84246648D01*
X140163414Y-84246649D01*
X140369651Y-84358260D01*
X140369660Y-84358263D01*
X140591444Y-84434402D01*
X140822750Y-84473000D01*
X141057250Y-84473000D01*
X141288555Y-84434402D01*
X141510339Y-84358263D01*
X141510347Y-84358260D01*
X141716586Y-84246649D01*
X141716589Y-84246647D01*
X141749486Y-84221040D01*
X141749486Y-84221039D01*
X141156714Y-83628267D01*
X141236205Y-83596795D01*
X141360892Y-83506205D01*
X141459133Y-83387452D01*
X141511570Y-83276017D01*
X142102023Y-83866471D01*
X142188718Y-83733777D01*
X142188723Y-83733769D01*
X142282918Y-83519025D01*
X142340485Y-83291696D01*
X142359850Y-83058005D01*
X142359850Y-83057994D01*
X142347006Y-82903000D01*
X146180496Y-82903000D01*
X146200458Y-83092928D01*
X146200459Y-83092931D01*
X146259470Y-83274549D01*
X146259473Y-83274556D01*
X146354960Y-83439944D01*
X146414622Y-83506205D01*
X146460854Y-83557552D01*
X146491084Y-83620544D01*
X146482458Y-83689879D01*
X146482260Y-83690334D01*
X146396703Y-83885385D01*
X146341436Y-84103628D01*
X146341434Y-84103640D01*
X146322844Y-84327994D01*
X146322844Y-84328005D01*
X146341434Y-84552359D01*
X146341436Y-84552371D01*
X146396703Y-84770614D01*
X146487140Y-84976792D01*
X146610276Y-85165265D01*
X146610284Y-85165276D01*
X146736967Y-85302888D01*
X146762760Y-85330906D01*
X146940424Y-85469189D01*
X146940429Y-85469191D01*
X146940431Y-85469193D01*
X146976930Y-85488946D01*
X147026520Y-85538165D01*
X147041628Y-85606382D01*
X147017457Y-85671937D01*
X146976930Y-85707054D01*
X146940431Y-85726806D01*
X146940422Y-85726812D01*
X146762761Y-85865092D01*
X146762756Y-85865097D01*
X146610284Y-86030723D01*
X146610276Y-86030734D01*
X146487140Y-86219207D01*
X146396703Y-86425385D01*
X146341436Y-86643628D01*
X146341434Y-86643640D01*
X146322844Y-86867994D01*
X146322844Y-86868005D01*
X146341434Y-87092359D01*
X146341436Y-87092371D01*
X146396703Y-87310614D01*
X146487140Y-87516792D01*
X146610276Y-87705265D01*
X146610284Y-87705276D01*
X146762756Y-87870902D01*
X146762760Y-87870906D01*
X146940424Y-88009189D01*
X146940425Y-88009189D01*
X146940427Y-88009191D01*
X147067135Y-88077761D01*
X147138426Y-88116342D01*
X147351365Y-88189444D01*
X147573431Y-88226500D01*
X147798564Y-88226500D01*
X147798569Y-88226500D01*
X147798573Y-88226499D01*
X147798986Y-88226465D01*
X147799156Y-88226500D01*
X147803698Y-88226500D01*
X147803697Y-88227433D01*
X147867424Y-88240538D01*
X147917389Y-88289377D01*
X147932562Y-88337078D01*
X147936908Y-88378428D01*
X147950458Y-88507347D01*
X147950459Y-88507350D01*
X148009470Y-88688968D01*
X148009473Y-88688975D01*
X148104960Y-88854363D01*
X148232747Y-88996285D01*
X148387248Y-89108537D01*
X148561712Y-89186213D01*
X148748513Y-89225919D01*
X148939487Y-89225919D01*
X149044353Y-89203629D01*
X149070134Y-89200919D01*
X151411866Y-89200919D01*
X151437647Y-89203629D01*
X151542513Y-89225919D01*
X151733487Y-89225919D01*
X151920288Y-89186213D01*
X152094752Y-89108537D01*
X152249253Y-88996285D01*
X152377040Y-88854363D01*
X152472527Y-88688975D01*
X152531542Y-88507347D01*
X152549389Y-88337536D01*
X152575974Y-88272924D01*
X152633271Y-88232939D01*
X152672710Y-88226500D01*
X152878569Y-88226500D01*
X153100635Y-88189444D01*
X153313574Y-88116342D01*
X153511576Y-88009189D01*
X153689240Y-87870906D01*
X153841722Y-87705268D01*
X153964860Y-87516791D01*
X154055296Y-87310616D01*
X154110564Y-87092368D01*
X154129156Y-86868000D01*
X154110564Y-86643632D01*
X154055296Y-86425384D01*
X153964860Y-86219209D01*
X153948706Y-86194484D01*
X153841723Y-86030734D01*
X153841715Y-86030723D01*
X153696510Y-85872991D01*
X153665587Y-85810337D01*
X153673447Y-85740911D01*
X153717594Y-85686755D01*
X153744405Y-85672827D01*
X153824584Y-85642920D01*
X153862204Y-85628889D01*
X153979261Y-85541261D01*
X154066889Y-85424204D01*
X154117989Y-85287201D01*
X154123469Y-85236232D01*
X154124499Y-85226654D01*
X154124500Y-85226637D01*
X154124500Y-83429362D01*
X154124499Y-83429345D01*
X154118334Y-83372011D01*
X154117989Y-83368799D01*
X154116137Y-83363834D01*
X154072932Y-83247998D01*
X154066889Y-83231796D01*
X153979261Y-83114739D01*
X153862204Y-83027111D01*
X153852236Y-83023393D01*
X153725203Y-82976011D01*
X153664654Y-82969500D01*
X153664638Y-82969500D01*
X152469320Y-82969500D01*
X152402281Y-82949815D01*
X152381639Y-82933181D01*
X149757819Y-80309361D01*
X149738113Y-80283679D01*
X149710043Y-80235060D01*
X149710041Y-80235057D01*
X149582254Y-80093135D01*
X149580676Y-80091988D01*
X149427752Y-79980882D01*
X149253288Y-79903206D01*
X149253286Y-79903205D01*
X149066487Y-79863500D01*
X148875513Y-79863500D01*
X148688714Y-79903205D01*
X148514246Y-79980883D01*
X148359745Y-80093135D01*
X148231959Y-80235057D01*
X148136473Y-80400443D01*
X148136470Y-80400450D01*
X148082354Y-80567004D01*
X148077458Y-80582072D01*
X148057496Y-80772000D01*
X148077458Y-80961928D01*
X148077459Y-80961931D01*
X148136470Y-81143549D01*
X148136473Y-81143556D01*
X148231960Y-81308944D01*
X148275611Y-81357423D01*
X148359741Y-81450861D01*
X148359747Y-81450866D01*
X148496589Y-81550288D01*
X148500544Y-81553161D01*
X148515340Y-81565798D01*
X148757361Y-81807819D01*
X148790846Y-81869142D01*
X148785862Y-81938834D01*
X148743990Y-81994767D01*
X148678526Y-82019184D01*
X148669680Y-82019500D01*
X147320134Y-82019500D01*
X147294353Y-82016790D01*
X147189487Y-81994500D01*
X146998513Y-81994500D01*
X146811714Y-82034205D01*
X146637246Y-82111883D01*
X146482745Y-82224135D01*
X146354959Y-82366057D01*
X146259473Y-82531443D01*
X146259470Y-82531450D01*
X146200459Y-82713068D01*
X146200458Y-82713072D01*
X146180496Y-82903000D01*
X142347006Y-82903000D01*
X142340485Y-82824303D01*
X142282918Y-82596974D01*
X142188723Y-82382230D01*
X142188718Y-82382222D01*
X142102023Y-82249527D01*
X141510802Y-82840748D01*
X141496331Y-82796210D01*
X141413749Y-82666081D01*
X141301399Y-82560578D01*
X141166341Y-82486329D01*
X141159798Y-82484649D01*
X141749487Y-81894959D01*
X141749487Y-81894958D01*
X141716585Y-81869350D01*
X141510348Y-81757739D01*
X141510339Y-81757736D01*
X141288555Y-81681597D01*
X141057250Y-81643000D01*
X140822750Y-81643000D01*
X140591444Y-81681597D01*
X140369660Y-81757736D01*
X140369651Y-81757739D01*
X140163413Y-81869350D01*
X140163407Y-81869354D01*
X140130512Y-81894957D01*
X140130512Y-81894959D01*
X140723285Y-82487732D01*
X140643795Y-82519205D01*
X140519108Y-82609795D01*
X140420867Y-82728548D01*
X140368430Y-82839981D01*
X139777975Y-82249527D01*
X139691277Y-82382229D01*
X139597081Y-82596974D01*
X139539514Y-82824303D01*
X139520150Y-83057994D01*
X139520150Y-83058005D01*
X137279850Y-83058005D01*
X137279850Y-83057994D01*
X137260485Y-82824303D01*
X137202918Y-82596974D01*
X137108723Y-82382230D01*
X137108718Y-82382222D01*
X137022023Y-82249527D01*
X136430802Y-82840748D01*
X136416331Y-82796210D01*
X136333749Y-82666081D01*
X136221399Y-82560578D01*
X136086341Y-82486329D01*
X136079798Y-82484649D01*
X136669487Y-81894959D01*
X136669487Y-81894958D01*
X136636585Y-81869350D01*
X136430348Y-81757739D01*
X136430339Y-81757736D01*
X136208555Y-81681597D01*
X135977250Y-81643000D01*
X135742750Y-81643000D01*
X135511444Y-81681597D01*
X135289660Y-81757736D01*
X135289651Y-81757739D01*
X135083413Y-81869350D01*
X135083407Y-81869354D01*
X135050512Y-81894957D01*
X135050512Y-81894959D01*
X135643285Y-82487732D01*
X135563795Y-82519205D01*
X135439108Y-82609795D01*
X135340867Y-82728548D01*
X135288430Y-82839982D01*
X134697975Y-82249527D01*
X134611277Y-82382229D01*
X134517081Y-82596974D01*
X134459514Y-82824303D01*
X134440150Y-83057994D01*
X134440150Y-83058005D01*
X131265871Y-83058005D01*
X131265359Y-83053136D01*
X131206344Y-82871508D01*
X131110857Y-82706120D01*
X130983070Y-82564198D01*
X130937989Y-82531444D01*
X130842264Y-82461894D01*
X130827469Y-82449258D01*
X130156211Y-81778000D01*
X131362321Y-81778000D01*
X131381002Y-81991527D01*
X131381004Y-81991537D01*
X131436477Y-82198567D01*
X131436481Y-82198576D01*
X131527067Y-82392839D01*
X131566825Y-82449620D01*
X132125035Y-81891409D01*
X132150887Y-81979450D01*
X132225510Y-82095566D01*
X132329824Y-82185954D01*
X132455378Y-82243293D01*
X132477131Y-82246420D01*
X131920378Y-82803173D01*
X131977160Y-82842933D01*
X132171423Y-82933518D01*
X132171432Y-82933522D01*
X132378462Y-82988995D01*
X132378472Y-82988997D01*
X132591999Y-83007679D01*
X132592001Y-83007679D01*
X132805527Y-82988997D01*
X132805537Y-82988995D01*
X133012567Y-82933522D01*
X133012581Y-82933517D01*
X133206835Y-82842935D01*
X133263620Y-82803173D01*
X132706868Y-82246420D01*
X132728622Y-82243293D01*
X132854176Y-82185954D01*
X132958490Y-82095566D01*
X133033113Y-81979450D01*
X133058963Y-81891410D01*
X133617173Y-82449619D01*
X133656935Y-82392835D01*
X133747517Y-82198581D01*
X133747522Y-82198567D01*
X133802995Y-81991537D01*
X133802997Y-81991527D01*
X133821679Y-81778000D01*
X133821679Y-81777999D01*
X133802997Y-81564472D01*
X133802995Y-81564462D01*
X133747522Y-81357432D01*
X133747518Y-81357423D01*
X133656933Y-81163162D01*
X133617173Y-81106378D01*
X133058963Y-81664588D01*
X133033113Y-81576550D01*
X132958490Y-81460434D01*
X132854176Y-81370046D01*
X132728622Y-81312707D01*
X132706867Y-81309579D01*
X133263620Y-80752825D01*
X133206839Y-80713067D01*
X133012576Y-80622481D01*
X133012567Y-80622477D01*
X132805537Y-80567004D01*
X132805527Y-80567002D01*
X132592001Y-80548321D01*
X132591999Y-80548321D01*
X132378472Y-80567002D01*
X132378462Y-80567004D01*
X132171432Y-80622477D01*
X132171423Y-80622481D01*
X131977158Y-80713068D01*
X131920378Y-80752824D01*
X132477133Y-81309579D01*
X132455378Y-81312707D01*
X132329824Y-81370046D01*
X132225510Y-81460434D01*
X132150887Y-81576550D01*
X132125035Y-81664589D01*
X131566824Y-81106378D01*
X131527068Y-81163158D01*
X131436481Y-81357423D01*
X131436477Y-81357432D01*
X131381004Y-81564462D01*
X131381002Y-81564472D01*
X131362321Y-81777999D01*
X131362321Y-81778000D01*
X130156211Y-81778000D01*
X129964818Y-81586607D01*
X129931333Y-81525284D01*
X129928499Y-81498926D01*
X129928499Y-80982462D01*
X129928498Y-80982446D01*
X129926402Y-80961928D01*
X129917887Y-80878574D01*
X129862115Y-80710262D01*
X129769030Y-80559348D01*
X129643652Y-80433970D01*
X129492738Y-80340885D01*
X129492735Y-80340884D01*
X129324427Y-80285113D01*
X129220545Y-80274500D01*
X127319462Y-80274500D01*
X127319446Y-80274501D01*
X127215572Y-80285113D01*
X127047264Y-80340884D01*
X127047259Y-80340886D01*
X126896346Y-80433971D01*
X126770971Y-80559346D01*
X126677886Y-80710259D01*
X126677884Y-80710264D01*
X126622113Y-80878572D01*
X126611500Y-80982447D01*
X126611500Y-81685679D01*
X126591815Y-81752718D01*
X126575181Y-81773360D01*
X125769644Y-82578896D01*
X125754850Y-82591532D01*
X125614046Y-82693834D01*
X125486259Y-82835757D01*
X125390773Y-83001143D01*
X125390770Y-83001150D01*
X125333565Y-83177211D01*
X125331758Y-83182772D01*
X125311796Y-83372700D01*
X122060985Y-83372700D01*
X122080485Y-83295696D01*
X122099850Y-83062005D01*
X122099850Y-83061994D01*
X122080485Y-82828303D01*
X122022918Y-82600974D01*
X121928723Y-82386230D01*
X121928718Y-82386222D01*
X121842023Y-82253527D01*
X121250802Y-82844748D01*
X121236331Y-82800210D01*
X121153749Y-82670081D01*
X121041399Y-82564578D01*
X120906341Y-82490329D01*
X120899798Y-82488649D01*
X121489487Y-81898959D01*
X121489487Y-81898958D01*
X121456585Y-81873350D01*
X121280395Y-81778000D01*
X122722321Y-81778000D01*
X122741002Y-81991527D01*
X122741004Y-81991537D01*
X122796477Y-82198567D01*
X122796481Y-82198576D01*
X122887067Y-82392839D01*
X122926825Y-82449620D01*
X123485035Y-81891409D01*
X123510887Y-81979450D01*
X123585510Y-82095566D01*
X123689824Y-82185954D01*
X123815378Y-82243293D01*
X123837131Y-82246420D01*
X123280378Y-82803173D01*
X123337160Y-82842933D01*
X123531423Y-82933518D01*
X123531432Y-82933522D01*
X123738462Y-82988995D01*
X123738472Y-82988997D01*
X123951999Y-83007679D01*
X123952001Y-83007679D01*
X124165527Y-82988997D01*
X124165537Y-82988995D01*
X124372567Y-82933522D01*
X124372581Y-82933517D01*
X124566835Y-82842935D01*
X124623620Y-82803173D01*
X124066868Y-82246420D01*
X124088622Y-82243293D01*
X124214176Y-82185954D01*
X124318490Y-82095566D01*
X124393113Y-81979450D01*
X124418963Y-81891411D01*
X124977173Y-82449619D01*
X125016935Y-82392835D01*
X125107517Y-82198581D01*
X125107522Y-82198567D01*
X125162995Y-81991537D01*
X125162997Y-81991527D01*
X125181679Y-81778000D01*
X125181679Y-81777999D01*
X125162997Y-81564472D01*
X125162995Y-81564462D01*
X125107522Y-81357432D01*
X125107518Y-81357423D01*
X125016933Y-81163162D01*
X124977173Y-81106378D01*
X124418963Y-81664587D01*
X124393113Y-81576550D01*
X124318490Y-81460434D01*
X124214176Y-81370046D01*
X124088622Y-81312707D01*
X124066867Y-81309579D01*
X124623620Y-80752825D01*
X124566839Y-80713067D01*
X124372576Y-80622481D01*
X124372567Y-80622477D01*
X124165537Y-80567004D01*
X124165527Y-80567002D01*
X123952001Y-80548321D01*
X123951999Y-80548321D01*
X123738472Y-80567002D01*
X123738462Y-80567004D01*
X123531432Y-80622477D01*
X123531423Y-80622481D01*
X123337158Y-80713068D01*
X123280378Y-80752824D01*
X123837133Y-81309579D01*
X123815378Y-81312707D01*
X123689824Y-81370046D01*
X123585510Y-81460434D01*
X123510887Y-81576550D01*
X123485035Y-81664589D01*
X122926824Y-81106378D01*
X122887068Y-81163158D01*
X122796481Y-81357423D01*
X122796477Y-81357432D01*
X122741004Y-81564462D01*
X122741002Y-81564472D01*
X122722321Y-81777999D01*
X122722321Y-81778000D01*
X121280395Y-81778000D01*
X121250348Y-81761739D01*
X121250339Y-81761736D01*
X121028555Y-81685597D01*
X120797250Y-81647000D01*
X120562750Y-81647000D01*
X120331444Y-81685597D01*
X120109660Y-81761736D01*
X120109651Y-81761739D01*
X119903413Y-81873350D01*
X119903407Y-81873354D01*
X119870512Y-81898957D01*
X119870512Y-81898959D01*
X120463285Y-82491732D01*
X120383795Y-82523205D01*
X120259108Y-82613795D01*
X120160867Y-82732548D01*
X120108429Y-82843982D01*
X119517975Y-82253527D01*
X119431277Y-82386229D01*
X119337081Y-82600974D01*
X119279514Y-82828303D01*
X119260150Y-83061994D01*
X119260150Y-83062005D01*
X117019850Y-83062005D01*
X117019850Y-83061994D01*
X117000485Y-82828303D01*
X116942918Y-82600974D01*
X116848723Y-82386230D01*
X116848718Y-82386222D01*
X116762023Y-82253527D01*
X116170802Y-82844748D01*
X116156331Y-82800210D01*
X116073749Y-82670081D01*
X115961399Y-82564578D01*
X115826341Y-82490329D01*
X115819797Y-82488648D01*
X116409487Y-81898959D01*
X116409487Y-81898958D01*
X116376585Y-81873350D01*
X116170348Y-81761739D01*
X116170339Y-81761736D01*
X115948557Y-81685597D01*
X115917740Y-81680455D01*
X115854855Y-81650004D01*
X115818416Y-81590388D01*
X115814830Y-81571107D01*
X115814503Y-81568002D01*
X115814504Y-81568000D01*
X115794542Y-81378072D01*
X115735527Y-81196444D01*
X115640040Y-81031056D01*
X115512253Y-80889134D01*
X115357752Y-80776882D01*
X115183288Y-80699206D01*
X115183286Y-80699205D01*
X114996487Y-80659500D01*
X114805513Y-80659500D01*
X114618714Y-80699205D01*
X114587577Y-80713068D01*
X114455216Y-80771999D01*
X114444246Y-80776883D01*
X114289745Y-80889135D01*
X114161962Y-81031053D01*
X114161958Y-81031058D01*
X114133886Y-81079680D01*
X114114181Y-81105359D01*
X111811361Y-83408181D01*
X111750038Y-83441666D01*
X111723680Y-83444500D01*
X110290319Y-83444500D01*
X110223280Y-83424815D01*
X110177525Y-83372011D01*
X110174138Y-83363834D01*
X110124889Y-83231796D01*
X110091214Y-83186812D01*
X110037261Y-83114739D01*
X109920204Y-83027111D01*
X109910236Y-83023393D01*
X109783203Y-82976011D01*
X109722654Y-82969500D01*
X109722638Y-82969500D01*
X107925362Y-82969500D01*
X107925345Y-82969500D01*
X107864797Y-82976011D01*
X107864795Y-82976011D01*
X107727795Y-83027111D01*
X107610739Y-83114739D01*
X107523111Y-83231795D01*
X107477861Y-83353111D01*
X107435989Y-83409044D01*
X107370524Y-83433460D01*
X107302252Y-83418607D01*
X107270454Y-83393762D01*
X107207240Y-83325094D01*
X107029576Y-83186811D01*
X107029575Y-83186810D01*
X107029572Y-83186808D01*
X106831580Y-83079661D01*
X106831577Y-83079659D01*
X106831574Y-83079658D01*
X106831571Y-83079657D01*
X106831569Y-83079656D01*
X106618637Y-83006556D01*
X106396569Y-82969500D01*
X106171431Y-82969500D01*
X105949362Y-83006556D01*
X105736430Y-83079656D01*
X105736419Y-83079661D01*
X105538427Y-83186808D01*
X105538422Y-83186812D01*
X105360761Y-83325092D01*
X105360756Y-83325097D01*
X105208284Y-83490723D01*
X105208276Y-83490734D01*
X105117808Y-83629206D01*
X105064662Y-83674562D01*
X104995431Y-83683986D01*
X104932095Y-83654484D01*
X104910192Y-83629206D01*
X104819723Y-83490734D01*
X104819715Y-83490723D01*
X104667243Y-83325097D01*
X104667238Y-83325092D01*
X104489577Y-83186812D01*
X104489572Y-83186808D01*
X104291580Y-83079661D01*
X104291577Y-83079659D01*
X104291574Y-83079658D01*
X104291571Y-83079657D01*
X104291569Y-83079656D01*
X104078637Y-83006556D01*
X103856569Y-82969500D01*
X103631431Y-82969500D01*
X103409362Y-83006556D01*
X103196430Y-83079656D01*
X103196419Y-83079661D01*
X102998427Y-83186808D01*
X102998422Y-83186812D01*
X102820761Y-83325092D01*
X102820756Y-83325097D01*
X102668284Y-83490723D01*
X102668276Y-83490734D01*
X102545140Y-83679207D01*
X102454703Y-83885385D01*
X102399436Y-84103628D01*
X102399434Y-84103640D01*
X102380844Y-84327994D01*
X102380844Y-84328005D01*
X102399434Y-84552359D01*
X102399436Y-84552371D01*
X102454703Y-84770614D01*
X102545140Y-84976792D01*
X102668276Y-85165265D01*
X102668284Y-85165276D01*
X102794967Y-85302888D01*
X102820760Y-85330906D01*
X102998424Y-85469189D01*
X102998429Y-85469191D01*
X102998431Y-85469193D01*
X103034930Y-85488946D01*
X103084520Y-85538165D01*
X103099628Y-85606382D01*
X103075457Y-85671937D01*
X103034930Y-85707054D01*
X102998431Y-85726806D01*
X102998422Y-85726812D01*
X102820761Y-85865092D01*
X102820756Y-85865097D01*
X102668284Y-86030723D01*
X102668276Y-86030734D01*
X102545140Y-86219207D01*
X102454703Y-86425385D01*
X102399436Y-86643628D01*
X102399434Y-86643640D01*
X102380844Y-86867994D01*
X102380844Y-86868005D01*
X102399434Y-87092359D01*
X102399436Y-87092371D01*
X102454703Y-87310614D01*
X102545140Y-87516792D01*
X102668276Y-87705265D01*
X102668284Y-87705276D01*
X102820756Y-87870902D01*
X102820760Y-87870906D01*
X102998424Y-88009189D01*
X102998425Y-88009189D01*
X102998427Y-88009191D01*
X103125135Y-88077761D01*
X103196426Y-88116342D01*
X103409365Y-88189444D01*
X103631431Y-88226500D01*
X103856569Y-88226500D01*
X104078635Y-88189444D01*
X104291574Y-88116342D01*
X104489576Y-88009189D01*
X104667240Y-87870906D01*
X104819722Y-87705268D01*
X104910193Y-87566791D01*
X104963336Y-87521437D01*
X105032567Y-87512013D01*
X105095903Y-87541515D01*
X105117807Y-87566793D01*
X105208276Y-87705265D01*
X105208284Y-87705276D01*
X105360756Y-87870902D01*
X105360760Y-87870906D01*
X105538424Y-88009189D01*
X105538425Y-88009189D01*
X105538427Y-88009191D01*
X105665135Y-88077761D01*
X105736426Y-88116342D01*
X105949365Y-88189444D01*
X106171431Y-88226500D01*
X106396569Y-88226500D01*
X106618635Y-88189444D01*
X106831574Y-88116342D01*
X107029576Y-88009189D01*
X107207240Y-87870906D01*
X107359722Y-87705268D01*
X107450193Y-87566790D01*
X107503338Y-87521437D01*
X107572569Y-87512013D01*
X107635905Y-87541515D01*
X107657804Y-87566787D01*
X107748278Y-87705268D01*
X107748283Y-87705273D01*
X107748284Y-87705276D01*
X107900756Y-87870902D01*
X107900760Y-87870906D01*
X108078424Y-88009189D01*
X108078425Y-88009189D01*
X108078427Y-88009191D01*
X108205135Y-88077761D01*
X108276426Y-88116342D01*
X108489365Y-88189444D01*
X108711431Y-88226500D01*
X108936569Y-88226500D01*
X109158635Y-88189444D01*
X109371574Y-88116342D01*
X109569576Y-88009189D01*
X109747240Y-87870906D01*
X109899722Y-87705268D01*
X110022860Y-87516791D01*
X110113296Y-87310616D01*
X110168564Y-87092368D01*
X110187156Y-86868000D01*
X110168564Y-86643632D01*
X110113296Y-86425384D01*
X110022860Y-86219209D01*
X110006706Y-86194484D01*
X109899723Y-86030734D01*
X109899715Y-86030723D01*
X109754510Y-85872991D01*
X109723587Y-85810337D01*
X109731447Y-85740911D01*
X109775594Y-85686755D01*
X109802405Y-85672827D01*
X109882584Y-85642920D01*
X109920204Y-85628889D01*
X110037261Y-85541261D01*
X110124889Y-85424204D01*
X110139688Y-85384525D01*
X110174138Y-85292166D01*
X110216009Y-85236232D01*
X110281474Y-85211816D01*
X110290319Y-85211500D01*
X110493000Y-85211500D01*
X110560039Y-85231185D01*
X110605794Y-85283989D01*
X110617000Y-85335500D01*
X110617000Y-98174000D01*
X110597315Y-98241039D01*
X110544511Y-98286794D01*
X110493000Y-98298000D01*
X109743659Y-98298000D01*
X109676620Y-98278315D01*
X109630865Y-98225511D01*
X109625385Y-98195938D01*
X109025714Y-97596267D01*
X109105205Y-97564795D01*
X109229892Y-97474205D01*
X109328133Y-97355452D01*
X109380570Y-97244016D01*
X109971023Y-97834471D01*
X110057718Y-97701777D01*
X110057723Y-97701769D01*
X110151918Y-97487025D01*
X110209485Y-97259696D01*
X110228850Y-97026005D01*
X110228850Y-97025994D01*
X110209485Y-96792303D01*
X110151918Y-96564974D01*
X110057723Y-96350230D01*
X110057718Y-96350222D01*
X109971023Y-96217527D01*
X109379802Y-96808748D01*
X109365331Y-96764210D01*
X109282749Y-96634081D01*
X109170399Y-96528578D01*
X109035341Y-96454329D01*
X109028798Y-96452649D01*
X109618487Y-95862959D01*
X109618487Y-95862958D01*
X109585585Y-95837350D01*
X109379348Y-95725739D01*
X109379339Y-95725736D01*
X109157555Y-95649597D01*
X108926250Y-95611000D01*
X108691750Y-95611000D01*
X108460444Y-95649597D01*
X108238660Y-95725736D01*
X108238651Y-95725739D01*
X108032413Y-95837350D01*
X108032407Y-95837354D01*
X107999512Y-95862957D01*
X107999512Y-95862959D01*
X108592285Y-96455732D01*
X108512795Y-96487205D01*
X108388108Y-96577795D01*
X108289867Y-96696548D01*
X108237430Y-96807982D01*
X107646975Y-96217527D01*
X107560277Y-96350229D01*
X107466081Y-96564974D01*
X107408514Y-96792303D01*
X107389150Y-97025994D01*
X107389150Y-97026005D01*
X107408514Y-97259696D01*
X107466081Y-97487025D01*
X107560279Y-97701775D01*
X107646975Y-97834471D01*
X108238197Y-97243249D01*
X108252669Y-97287790D01*
X108335251Y-97417919D01*
X108447601Y-97523422D01*
X108582659Y-97597671D01*
X108589201Y-97599350D01*
X107990997Y-98197553D01*
X107982607Y-98234449D01*
X107932738Y-98283387D01*
X107874339Y-98298000D01*
X104663659Y-98298000D01*
X104596620Y-98278315D01*
X104550865Y-98225511D01*
X104545385Y-98195938D01*
X103945714Y-97596267D01*
X104025205Y-97564795D01*
X104149892Y-97474205D01*
X104248133Y-97355452D01*
X104300569Y-97244017D01*
X104891023Y-97834471D01*
X104977718Y-97701777D01*
X104977723Y-97701769D01*
X105071918Y-97487025D01*
X105129485Y-97259696D01*
X105148850Y-97026005D01*
X105148850Y-97025994D01*
X105129485Y-96792303D01*
X105071918Y-96564974D01*
X104977723Y-96350230D01*
X104977718Y-96350222D01*
X104891023Y-96217527D01*
X104299802Y-96808748D01*
X104285331Y-96764210D01*
X104202749Y-96634081D01*
X104090399Y-96528578D01*
X103955341Y-96454329D01*
X103948797Y-96452648D01*
X104538487Y-95862959D01*
X104538486Y-95862958D01*
X104505585Y-95837350D01*
X104299348Y-95725739D01*
X104299339Y-95725736D01*
X104077555Y-95649597D01*
X103846250Y-95611000D01*
X103611750Y-95611000D01*
X103380444Y-95649597D01*
X103158660Y-95725736D01*
X103158651Y-95725739D01*
X102952413Y-95837350D01*
X102952407Y-95837354D01*
X102919512Y-95862957D01*
X102919512Y-95862959D01*
X103512284Y-96455732D01*
X103432795Y-96487205D01*
X103308108Y-96577795D01*
X103209867Y-96696548D01*
X103157430Y-96807982D01*
X102566975Y-96217527D01*
X102480277Y-96350229D01*
X102386081Y-96564974D01*
X102328514Y-96792303D01*
X102309150Y-97025994D01*
X102309150Y-97026005D01*
X102328514Y-97259696D01*
X102386081Y-97487025D01*
X102480279Y-97701775D01*
X102566975Y-97834471D01*
X103158197Y-97243249D01*
X103172669Y-97287790D01*
X103255251Y-97417919D01*
X103367601Y-97523422D01*
X103502659Y-97597671D01*
X103509201Y-97599350D01*
X102910997Y-98197553D01*
X102902607Y-98234449D01*
X102852738Y-98283387D01*
X102794339Y-98298000D01*
X101724000Y-98298000D01*
X101656961Y-98278315D01*
X101611206Y-98225511D01*
X101600000Y-98174000D01*
X101600000Y-94230000D01*
X103444364Y-94230000D01*
X103501567Y-94443486D01*
X103501570Y-94443492D01*
X103601399Y-94657578D01*
X103736894Y-94851082D01*
X103903917Y-95018105D01*
X104097421Y-95153600D01*
X104311507Y-95253429D01*
X104311516Y-95253433D01*
X104525000Y-95310634D01*
X104525000Y-94415501D01*
X104632685Y-94464680D01*
X104739237Y-94480000D01*
X104810763Y-94480000D01*
X104917315Y-94464680D01*
X105025000Y-94415501D01*
X105025000Y-95310633D01*
X105238483Y-95253433D01*
X105238492Y-95253429D01*
X105452578Y-95153600D01*
X105646078Y-95018108D01*
X105761914Y-94902272D01*
X105823237Y-94868787D01*
X105892929Y-94873771D01*
X105948863Y-94915642D01*
X105965777Y-94946619D01*
X106014110Y-95076203D01*
X106014111Y-95076204D01*
X106101739Y-95193261D01*
X106218796Y-95280889D01*
X106355799Y-95331989D01*
X106383050Y-95334918D01*
X106416345Y-95338499D01*
X106416362Y-95338500D01*
X108213638Y-95338500D01*
X108213654Y-95338499D01*
X108240692Y-95335591D01*
X108274201Y-95331989D01*
X108411204Y-95280889D01*
X108528261Y-95193261D01*
X108615889Y-95076204D01*
X108666989Y-94939201D01*
X108670959Y-94902272D01*
X108673499Y-94878654D01*
X108673500Y-94878637D01*
X108673500Y-93081362D01*
X108673499Y-93081345D01*
X108670157Y-93050270D01*
X108666989Y-93020799D01*
X108664222Y-93013381D01*
X108637559Y-92941894D01*
X108615889Y-92883796D01*
X108528261Y-92766739D01*
X108411204Y-92679111D01*
X108411204Y-92679110D01*
X108274203Y-92628011D01*
X108213654Y-92621500D01*
X108213638Y-92621500D01*
X106416362Y-92621500D01*
X106416345Y-92621500D01*
X106355797Y-92628011D01*
X106355795Y-92628011D01*
X106218795Y-92679111D01*
X106101739Y-92766739D01*
X106014111Y-92883795D01*
X105965777Y-93013381D01*
X105923905Y-93069314D01*
X105858441Y-93093730D01*
X105790168Y-93078878D01*
X105761915Y-93057727D01*
X105646082Y-92941894D01*
X105452578Y-92806399D01*
X105238492Y-92706570D01*
X105238486Y-92706567D01*
X105025000Y-92649364D01*
X105025000Y-93544498D01*
X104917315Y-93495320D01*
X104810763Y-93480000D01*
X104739237Y-93480000D01*
X104632685Y-93495320D01*
X104525000Y-93544498D01*
X104525000Y-92649364D01*
X104524999Y-92649364D01*
X104311513Y-92706567D01*
X104311507Y-92706570D01*
X104097422Y-92806399D01*
X104097420Y-92806400D01*
X103903926Y-92941886D01*
X103903920Y-92941891D01*
X103736891Y-93108920D01*
X103736886Y-93108926D01*
X103601400Y-93302420D01*
X103601399Y-93302422D01*
X103501570Y-93516507D01*
X103501567Y-93516513D01*
X103444364Y-93729999D01*
X103444364Y-93730000D01*
X104341314Y-93730000D01*
X104315507Y-93770156D01*
X104275000Y-93908111D01*
X104275000Y-94051889D01*
X104315507Y-94189844D01*
X104341314Y-94230000D01*
X103444364Y-94230000D01*
X101600000Y-94230000D01*
X101600000Y-79638654D01*
X115481500Y-79638654D01*
X115488011Y-79699202D01*
X115488011Y-79699204D01*
X115539110Y-79836204D01*
X115539111Y-79836204D01*
X115626739Y-79953261D01*
X115743796Y-80040889D01*
X115880799Y-80091989D01*
X115908050Y-80094918D01*
X115941345Y-80098499D01*
X115941362Y-80098500D01*
X117738638Y-80098500D01*
X117738654Y-80098499D01*
X117765692Y-80095591D01*
X117799201Y-80091989D01*
X117936204Y-80040889D01*
X118053261Y-79953261D01*
X118140889Y-79836204D01*
X118186138Y-79714887D01*
X118228009Y-79658956D01*
X118293474Y-79634539D01*
X118361746Y-79649391D01*
X118393545Y-79674236D01*
X118456760Y-79742906D01*
X118634424Y-79881189D01*
X118634425Y-79881189D01*
X118634427Y-79881191D01*
X118675106Y-79903205D01*
X118832426Y-79988342D01*
X119045365Y-80061444D01*
X119267431Y-80098500D01*
X119492569Y-80098500D01*
X119714635Y-80061444D01*
X119927574Y-79988342D01*
X120125576Y-79881189D01*
X120303240Y-79742906D01*
X120455722Y-79577268D01*
X120578860Y-79388791D01*
X120669296Y-79182616D01*
X120724564Y-78964368D01*
X120743156Y-78740000D01*
X120730961Y-78592835D01*
X120724565Y-78515640D01*
X120724563Y-78515628D01*
X120706245Y-78443293D01*
X120669296Y-78297384D01*
X120578860Y-78091209D01*
X120455722Y-77902732D01*
X120455719Y-77902729D01*
X120455715Y-77902723D01*
X120303243Y-77737097D01*
X120303238Y-77737092D01*
X120125577Y-77598812D01*
X120125572Y-77598808D01*
X119927580Y-77491661D01*
X119927577Y-77491659D01*
X119927574Y-77491658D01*
X119927571Y-77491657D01*
X119927569Y-77491656D01*
X119714637Y-77418556D01*
X119492569Y-77381500D01*
X119267431Y-77381500D01*
X119045362Y-77418556D01*
X118832430Y-77491656D01*
X118832419Y-77491661D01*
X118634427Y-77598808D01*
X118634422Y-77598812D01*
X118456761Y-77737092D01*
X118393548Y-77805760D01*
X118333661Y-77841750D01*
X118263823Y-77839649D01*
X118206207Y-77800124D01*
X118186138Y-77765110D01*
X118140889Y-77643796D01*
X118107214Y-77598812D01*
X118053261Y-77526739D01*
X117936204Y-77439111D01*
X117936203Y-77439110D01*
X117799203Y-77388011D01*
X117738654Y-77381500D01*
X117738638Y-77381500D01*
X115941362Y-77381500D01*
X115941345Y-77381500D01*
X115880797Y-77388011D01*
X115880795Y-77388011D01*
X115743795Y-77439111D01*
X115626739Y-77526739D01*
X115539111Y-77643795D01*
X115488011Y-77780795D01*
X115488011Y-77780797D01*
X115481500Y-77841345D01*
X115481500Y-79638654D01*
X101600000Y-79638654D01*
X101600000Y-75435000D01*
X101619685Y-75367961D01*
X101672489Y-75322206D01*
X101724000Y-75311000D01*
X106479288Y-75311000D01*
X106546327Y-75330685D01*
G37*
%TD.AperFunction*%
%TD*%
M02*
