%TF.GenerationSoftware,KiCad,Pcbnew,8.0.2-1*%
%TF.CreationDate,2024-07-10T15:29:45-04:00*%
%TF.ProjectId,Breadboard Power Supply,42726561-6462-46f6-9172-6420506f7765,v10*%
%TF.SameCoordinates,Original*%
%TF.FileFunction,Soldermask,Top*%
%TF.FilePolarity,Negative*%
%FSLAX46Y46*%
G04 Gerber Fmt 4.6, Leading zero omitted, Abs format (unit mm)*
G04 Created by KiCad (PCBNEW 8.0.2-1) date 2024-07-10 15:29:45*
%MOMM*%
%LPD*%
G01*
G04 APERTURE LIST*
G04 Aperture macros list*
%AMRoundRect*
0 Rectangle with rounded corners*
0 $1 Rounding radius*
0 $2 $3 $4 $5 $6 $7 $8 $9 X,Y pos of 4 corners*
0 Add a 4 corners polygon primitive as box body*
4,1,4,$2,$3,$4,$5,$6,$7,$8,$9,$2,$3,0*
0 Add four circle primitives for the rounded corners*
1,1,$1+$1,$2,$3*
1,1,$1+$1,$4,$5*
1,1,$1+$1,$6,$7*
1,1,$1+$1,$8,$9*
0 Add four rect primitives between the rounded corners*
20,1,$1+$1,$2,$3,$4,$5,0*
20,1,$1+$1,$4,$5,$6,$7,0*
20,1,$1+$1,$6,$7,$8,$9,0*
20,1,$1+$1,$8,$9,$2,$3,0*%
G04 Aperture macros list end*
%ADD10R,1.700000X1.700000*%
%ADD11O,1.700000X1.700000*%
%ADD12RoundRect,0.135000X-0.185000X0.135000X-0.185000X-0.135000X0.185000X-0.135000X0.185000X0.135000X0*%
%ADD13RoundRect,0.250000X-0.250000X-0.475000X0.250000X-0.475000X0.250000X0.475000X-0.250000X0.475000X0*%
%ADD14RoundRect,0.218750X0.381250X-0.218750X0.381250X0.218750X-0.381250X0.218750X-0.381250X-0.218750X0*%
%ADD15RoundRect,0.135000X0.135000X0.185000X-0.135000X0.185000X-0.135000X-0.185000X0.135000X-0.185000X0*%
%ADD16RoundRect,0.140000X-0.170000X0.140000X-0.170000X-0.140000X0.170000X-0.140000X0.170000X0.140000X0*%
%ADD17RoundRect,0.135000X-0.135000X-0.185000X0.135000X-0.185000X0.135000X0.185000X-0.135000X0.185000X0*%
%ADD18RoundRect,0.218750X-0.218750X-0.256250X0.218750X-0.256250X0.218750X0.256250X-0.218750X0.256250X0*%
%ADD19R,1.120000X1.370000*%
%ADD20R,0.700000X1.200000*%
%ADD21R,0.760000X1.200000*%
%ADD22R,0.800000X1.200000*%
%ADD23C,1.450000*%
%ADD24RoundRect,0.135000X0.185000X-0.135000X0.185000X0.135000X-0.185000X0.135000X-0.185000X-0.135000X0*%
%ADD25RoundRect,0.250000X0.250000X0.475000X-0.250000X0.475000X-0.250000X-0.475000X0.250000X-0.475000X0*%
%ADD26RoundRect,0.375000X-0.625000X-0.375000X0.625000X-0.375000X0.625000X0.375000X-0.625000X0.375000X0*%
%ADD27RoundRect,0.500000X-0.500000X-1.400000X0.500000X-1.400000X0.500000X1.400000X-0.500000X1.400000X0*%
%ADD28C,1.830000*%
%ADD29RoundRect,0.250000X0.475000X-0.250000X0.475000X0.250000X-0.475000X0.250000X-0.475000X-0.250000X0*%
%ADD30RoundRect,0.375000X0.625000X0.375000X-0.625000X0.375000X-0.625000X-0.375000X0.625000X-0.375000X0*%
%ADD31RoundRect,0.500000X0.500000X1.400000X-0.500000X1.400000X-0.500000X-1.400000X0.500000X-1.400000X0*%
G04 APERTURE END LIST*
D10*
%TO.C,J4*%
X151130000Y-87630000D03*
D11*
X153670000Y-87630000D03*
X151130000Y-90170000D03*
X153670000Y-90170000D03*
X151130000Y-92710000D03*
X153670000Y-92710000D03*
X151130000Y-95250000D03*
X153670000Y-95250000D03*
%TD*%
D12*
%TO.C,R4*%
X111721000Y-78103000D03*
X111721000Y-79123000D03*
%TD*%
D13*
%TO.C,C5*%
X146751000Y-83693000D03*
X148651000Y-83693000D03*
%TD*%
D14*
%TO.C,L2*%
X121031000Y-80945500D03*
X121031000Y-78820500D03*
%TD*%
D15*
%TO.C,R3*%
X121033000Y-76073000D03*
X120013000Y-76073000D03*
%TD*%
D16*
%TO.C,C8*%
X103019000Y-83467000D03*
X103019000Y-84427000D03*
%TD*%
%TO.C,C7*%
X145161000Y-83241000D03*
X145161000Y-84201000D03*
%TD*%
D17*
%TO.C,R2*%
X128903000Y-84455000D03*
X129923000Y-84455000D03*
%TD*%
D12*
%TO.C,R12*%
X135255000Y-80897000D03*
X135255000Y-81917000D03*
%TD*%
D18*
%TO.C,D2*%
X116941500Y-76105000D03*
X118516500Y-76105000D03*
%TD*%
D13*
%TO.C,C4*%
X107850000Y-83947000D03*
X109750000Y-83947000D03*
%TD*%
D19*
%TO.C,D1*%
X138811000Y-76581000D03*
X135811000Y-76581000D03*
%TD*%
D15*
%TO.C,R8*%
X143385000Y-75819000D03*
X142365000Y-75819000D03*
%TD*%
%TO.C,R7*%
X141101000Y-75819000D03*
X140081000Y-75819000D03*
%TD*%
D13*
%TO.C,C3*%
X150307000Y-83693000D03*
X152207000Y-83693000D03*
%TD*%
D20*
%TO.C,J1*%
X128772000Y-81854000D03*
D21*
X126752000Y-81854000D03*
D22*
X125522000Y-81854000D03*
D20*
X127772000Y-81854000D03*
D21*
X129792000Y-81854000D03*
D22*
X131022000Y-81854000D03*
D23*
X132592000Y-77974000D03*
X123952000Y-77974000D03*
X132592000Y-81774000D03*
X123952000Y-81774000D03*
%TD*%
D10*
%TO.C,J5*%
X102870000Y-87630000D03*
D11*
X105410000Y-87630000D03*
X102870000Y-90170000D03*
X105410000Y-90170000D03*
X102870000Y-92710000D03*
X105410000Y-92710000D03*
X102870000Y-95250000D03*
X105410000Y-95250000D03*
%TD*%
D24*
%TO.C,R9*%
X136525000Y-81917000D03*
X136525000Y-80897000D03*
%TD*%
D15*
%TO.C,R1*%
X127637000Y-84455000D03*
X126617000Y-84455000D03*
%TD*%
D12*
%TO.C,R13*%
X137795000Y-80897000D03*
X137795000Y-81917000D03*
%TD*%
D25*
%TO.C,C11*%
X138303000Y-78867000D03*
X136403000Y-78867000D03*
%TD*%
D16*
%TO.C,C1*%
X139827000Y-78359000D03*
X139827000Y-79319000D03*
%TD*%
D12*
%TO.C,R6*%
X111721000Y-80643000D03*
X111721000Y-81663000D03*
%TD*%
D24*
%TO.C,R5*%
X144653000Y-76837000D03*
X144653000Y-75817000D03*
%TD*%
D26*
%TO.C,U2*%
X146583000Y-76567000D03*
X146583000Y-78867000D03*
D27*
X152883000Y-78867000D03*
D26*
X146583000Y-81167000D03*
%TD*%
D28*
%TO.C,TP1*%
X103759000Y-102638000D03*
X108839000Y-102638000D03*
%TD*%
%TO.C,TP4*%
X147701000Y-102638000D03*
X152781000Y-102638000D03*
%TD*%
D29*
%TO.C,C10*%
X118999000Y-80899000D03*
X118999000Y-78999000D03*
%TD*%
D13*
%TO.C,C6*%
X104355000Y-83947000D03*
X106255000Y-83947000D03*
%TD*%
D30*
%TO.C,U1*%
X109918000Y-81167000D03*
X109918000Y-78867000D03*
D31*
X103618000Y-78867000D03*
D30*
X109918000Y-76567000D03*
%TD*%
D10*
%TO.C,J10*%
X114300000Y-78740000D03*
D11*
X114300000Y-81280000D03*
%TD*%
D10*
%TO.C,J8*%
X152082500Y-99060000D03*
D11*
X149542500Y-99060000D03*
%TD*%
D10*
%TO.C,J11*%
X142240000Y-78740000D03*
D11*
X142240000Y-81280000D03*
%TD*%
D10*
%TO.C,J9*%
X106997500Y-99060000D03*
D11*
X104457500Y-99060000D03*
%TD*%
M02*
