%TF.GenerationSoftware,KiCad,Pcbnew,8.0.9*%
%TF.CreationDate,2025-08-25T15:10:49-06:00*%
%TF.ProjectId,Breadboard Power Supply,42726561-6462-46f6-9172-6420506f7765,v1*%
%TF.SameCoordinates,Original*%
%TF.FileFunction,Copper,L2,Inr*%
%TF.FilePolarity,Positive*%
%FSLAX46Y46*%
G04 Gerber Fmt 4.6, Leading zero omitted, Abs format (unit mm)*
G04 Created by KiCad (PCBNEW 8.0.9) date 2025-08-25 15:10:49*
%MOMM*%
%LPD*%
G01*
G04 APERTURE LIST*
%TA.AperFunction,ComponentPad*%
%ADD10R,1.700000X1.700000*%
%TD*%
%TA.AperFunction,ComponentPad*%
%ADD11O,1.700000X1.700000*%
%TD*%
%TA.AperFunction,ComponentPad*%
%ADD12C,1.450000*%
%TD*%
%TA.AperFunction,ComponentPad*%
%ADD13C,1.830000*%
%TD*%
%TA.AperFunction,ViaPad*%
%ADD14C,0.800000*%
%TD*%
G04 APERTURE END LIST*
D10*
%TO.N,+1V8*%
%TO.C,J4*%
X151130000Y-87630000D03*
D11*
%TO.N,/TOP_POWER_RAIL*%
X153670000Y-87630000D03*
%TO.N,+3.3V*%
X151130000Y-90170000D03*
%TO.N,/TOP_POWER_RAIL*%
X153670000Y-90170000D03*
%TO.N,+5V*%
X151130000Y-92710000D03*
%TO.N,/TOP_POWER_RAIL*%
X153670000Y-92710000D03*
%TO.N,+12V*%
X151130000Y-95250000D03*
%TO.N,/TOP_POWER_RAIL*%
X153670000Y-95250000D03*
%TD*%
D10*
%TO.N,/BOTTOM_POWER_RAIL*%
%TO.C,J5*%
X102870000Y-87630000D03*
D11*
%TO.N,+1V8*%
X105410000Y-87630000D03*
%TO.N,/BOTTOM_POWER_RAIL*%
X102870000Y-90170000D03*
%TO.N,+3.3V*%
X105410000Y-90170000D03*
%TO.N,/BOTTOM_POWER_RAIL*%
X102870000Y-92710000D03*
%TO.N,+5V*%
X105410000Y-92710000D03*
%TO.N,/BOTTOM_POWER_RAIL*%
X102870000Y-95250000D03*
%TO.N,+12V*%
X105410000Y-95250000D03*
%TD*%
D12*
%TO.N,GND*%
%TO.C,J1*%
X132592000Y-77974000D03*
X123952000Y-77974000D03*
X132592000Y-81774000D03*
X123952000Y-81774000D03*
%TD*%
D13*
%TO.N,GND*%
%TO.C,TP1*%
X103759000Y-102638000D03*
X108839000Y-102638000D03*
%TD*%
%TO.N,GND*%
%TO.C,TP4*%
X147701000Y-102638000D03*
X152781000Y-102638000D03*
%TD*%
D10*
%TO.N,GND*%
%TO.C,J10*%
X114300000Y-78740000D03*
D11*
X114300000Y-81280000D03*
%TD*%
D10*
%TO.N,/TOP_POWER_RAIL*%
%TO.C,J8*%
X152082500Y-99060000D03*
D11*
%TO.N,GND*%
X149542500Y-99060000D03*
%TD*%
D10*
%TO.N,GND*%
%TO.C,J11*%
X142240000Y-78740000D03*
D11*
X142240000Y-81280000D03*
%TD*%
D10*
%TO.N,/BOTTOM_POWER_RAIL*%
%TO.C,J9*%
X106997500Y-99060000D03*
D11*
%TO.N,GND*%
X104457500Y-99060000D03*
%TD*%
D14*
%TO.N,GND*%
X102133000Y-85331000D03*
X113370326Y-85181000D03*
X154559000Y-83693000D03*
X140833000Y-75831000D03*
X147033000Y-84842832D03*
X119633000Y-83831000D03*
X150433000Y-85181000D03*
X137033000Y-85181000D03*
X115064915Y-84842832D03*
X105383000Y-85331000D03*
X117729000Y-76667000D03*
%TO.N,+3.3V*%
X145455449Y-83736091D03*
X138033000Y-81381000D03*
%TO.N,+1V8*%
X111433000Y-85132400D03*
%TO.N,+12V*%
X115443000Y-83693000D03*
%TO.N,VBUS*%
X129921000Y-80645000D03*
X138811859Y-75981000D03*
X113105176Y-77398983D03*
X119435500Y-78381000D03*
%TO.N,Net-(D2-Pad2)*%
X134033000Y-77081000D03*
%TO.N,Net-(D1-A1)*%
X117157000Y-79387045D03*
X119383000Y-80581000D03*
%TO.N,Net-(D3-Pad2)*%
X134033000Y-82381000D03*
%TO.N,Net-(D4-Pad2)*%
X134033000Y-78831000D03*
%TO.N,Net-(D5-Pad2)*%
X134033000Y-80581000D03*
%TO.N,Net-(D6-Pad2)*%
X134033000Y-84016570D03*
%TO.N,Net-(U2-VO)*%
X145390239Y-80023944D03*
%TO.N,+5V*%
X132433000Y-83381000D03*
X125433000Y-79181000D03*
%TD*%
%TA.AperFunction,Conductor*%
%TO.N,+1V8*%
G36*
X113100039Y-75203685D02*
G01*
X113145794Y-75256489D01*
X113157000Y-75308000D01*
X113157000Y-76366483D01*
X113137315Y-76433522D01*
X113084511Y-76479277D01*
X113033000Y-76490483D01*
X113009689Y-76490483D01*
X112822890Y-76530188D01*
X112648422Y-76607866D01*
X112493921Y-76720118D01*
X112366135Y-76862040D01*
X112270649Y-77027426D01*
X112270646Y-77027433D01*
X112259415Y-77062000D01*
X112211634Y-77209055D01*
X112191672Y-77398983D01*
X112211634Y-77588911D01*
X112211635Y-77588914D01*
X112270646Y-77770532D01*
X112270649Y-77770539D01*
X112366136Y-77935927D01*
X112493923Y-78077849D01*
X112648424Y-78190101D01*
X112822888Y-78267777D01*
X112843280Y-78272111D01*
X112904761Y-78305301D01*
X112938539Y-78366464D01*
X112941500Y-78393401D01*
X112941500Y-79638654D01*
X112948011Y-79699202D01*
X112948011Y-79699204D01*
X112999111Y-79836204D01*
X113086739Y-79953261D01*
X113086740Y-79953262D01*
X113086741Y-79953263D01*
X113094675Y-79959202D01*
X113107309Y-79968659D01*
X113149181Y-80024590D01*
X113157000Y-80067927D01*
X113157000Y-80508791D01*
X113137315Y-80575830D01*
X113136809Y-80576612D01*
X113101139Y-80631208D01*
X113010703Y-80837385D01*
X112955436Y-81055628D01*
X112955434Y-81055640D01*
X112936844Y-81279994D01*
X112936844Y-81280005D01*
X112955434Y-81504359D01*
X112955436Y-81504371D01*
X113010703Y-81722614D01*
X113101139Y-81928790D01*
X113136809Y-81983387D01*
X113156996Y-82050276D01*
X113157000Y-82051208D01*
X113157000Y-82235023D01*
X113137315Y-82302062D01*
X113114204Y-82328735D01*
X113094414Y-82345883D01*
X112998705Y-82456335D01*
X112998701Y-82456341D01*
X112937987Y-82589283D01*
X112918300Y-82656328D01*
X112897500Y-82801001D01*
X112897500Y-84160437D01*
X112900575Y-84216559D01*
X112903532Y-84243458D01*
X112903536Y-84243482D01*
X112913723Y-84304953D01*
X112911004Y-84305403D01*
X112909381Y-84363595D01*
X112869982Y-84421296D01*
X112864311Y-84425672D01*
X112759076Y-84502131D01*
X112759072Y-84502134D01*
X112631285Y-84644057D01*
X112535799Y-84809443D01*
X112535796Y-84809450D01*
X112476785Y-84991068D01*
X112476784Y-84991072D01*
X112456822Y-85181000D01*
X112476784Y-85370928D01*
X112476785Y-85370931D01*
X112535796Y-85552549D01*
X112535799Y-85552556D01*
X112631285Y-85717943D01*
X112679983Y-85772028D01*
X112710213Y-85835020D01*
X112701587Y-85904355D01*
X112656846Y-85958021D01*
X112590193Y-85978978D01*
X112587833Y-85979000D01*
X106022045Y-85979000D01*
X106122040Y-85867944D01*
X106217527Y-85702556D01*
X106276542Y-85520928D01*
X106296504Y-85331000D01*
X106276542Y-85141072D01*
X106217527Y-84959444D01*
X106122040Y-84794056D01*
X105994253Y-84652134D01*
X105839752Y-84539882D01*
X105665288Y-84462206D01*
X105665286Y-84462205D01*
X105478487Y-84422500D01*
X105287513Y-84422500D01*
X105100714Y-84462205D01*
X104926246Y-84539883D01*
X104771745Y-84652135D01*
X104643959Y-84794057D01*
X104548473Y-84959443D01*
X104548470Y-84959450D01*
X104491498Y-85134794D01*
X104489458Y-85141072D01*
X104469496Y-85331000D01*
X104489458Y-85520928D01*
X104489459Y-85520931D01*
X104548470Y-85702549D01*
X104548473Y-85702556D01*
X104600691Y-85793000D01*
X104617164Y-85860900D01*
X104594311Y-85926927D01*
X104539390Y-85970118D01*
X104493304Y-85979000D01*
X103022696Y-85979000D01*
X102955657Y-85959315D01*
X102909902Y-85906511D01*
X102899958Y-85837353D01*
X102915309Y-85793000D01*
X102927417Y-85772028D01*
X102967527Y-85702556D01*
X103026542Y-85520928D01*
X103046504Y-85331000D01*
X103026542Y-85141072D01*
X102967527Y-84959444D01*
X102872040Y-84794056D01*
X102744253Y-84652134D01*
X102589752Y-84539882D01*
X102415288Y-84462206D01*
X102415286Y-84462205D01*
X102228487Y-84422500D01*
X102037513Y-84422500D01*
X101850714Y-84462205D01*
X101850712Y-84462206D01*
X101761221Y-84502050D01*
X101676244Y-84539884D01*
X101669883Y-84544506D01*
X101604076Y-84567984D01*
X101536023Y-84552157D01*
X101487329Y-84502050D01*
X101473000Y-84444186D01*
X101473000Y-75308000D01*
X101492685Y-75240961D01*
X101545489Y-75195206D01*
X101597000Y-75184000D01*
X113033000Y-75184000D01*
X113100039Y-75203685D01*
G37*
%TD.AperFunction*%
%TD*%
%TA.AperFunction,Conductor*%
%TO.N,+3.3V*%
G36*
X146937513Y-85751332D02*
G01*
X147128487Y-85751332D01*
X147252369Y-85725000D01*
X149700313Y-85725000D01*
X149821747Y-85859866D01*
X149976248Y-85972118D01*
X150150712Y-86049794D01*
X150150713Y-86049794D01*
X150156649Y-86052437D01*
X150156117Y-86053631D01*
X150207994Y-86089104D01*
X150235192Y-86153462D01*
X150223277Y-86222309D01*
X150176033Y-86273784D01*
X150155335Y-86283778D01*
X150033795Y-86329111D01*
X149916739Y-86416739D01*
X149829111Y-86533795D01*
X149778011Y-86670795D01*
X149778011Y-86670797D01*
X149771500Y-86731345D01*
X149771500Y-88528654D01*
X149778011Y-88589202D01*
X149778011Y-88589204D01*
X149829111Y-88726204D01*
X149916739Y-88843261D01*
X150033796Y-88930889D01*
X150163382Y-88979222D01*
X150219313Y-89021093D01*
X150243730Y-89086557D01*
X150228878Y-89154830D01*
X150207728Y-89183084D01*
X150091886Y-89298926D01*
X149956400Y-89492420D01*
X149956399Y-89492422D01*
X149856570Y-89706507D01*
X149856567Y-89706513D01*
X149799364Y-89919999D01*
X149799364Y-89920000D01*
X150696988Y-89920000D01*
X150664075Y-89977007D01*
X150630000Y-90104174D01*
X150630000Y-90235826D01*
X150664075Y-90362993D01*
X150696988Y-90420000D01*
X149799364Y-90420000D01*
X149856567Y-90633486D01*
X149858419Y-90638572D01*
X149856166Y-90639391D01*
X149864610Y-90698864D01*
X149835473Y-90762369D01*
X149776628Y-90800039D01*
X149741904Y-90805000D01*
X145920000Y-90805000D01*
X145852961Y-90785315D01*
X145807206Y-90732511D01*
X145796000Y-90681000D01*
X145796000Y-87181000D01*
X145793000Y-87181000D01*
X145725961Y-87161315D01*
X145680206Y-87108511D01*
X145669000Y-87057000D01*
X145669000Y-85725000D01*
X146813631Y-85725000D01*
X146937513Y-85751332D01*
G37*
%TD.AperFunction*%
%TA.AperFunction,Conductor*%
G36*
X155067000Y-86867976D02*
G01*
X155047315Y-86935015D01*
X154994511Y-86980770D01*
X154925353Y-86990714D01*
X154861797Y-86961689D01*
X154839192Y-86935798D01*
X154745723Y-86792734D01*
X154745715Y-86792723D01*
X154593243Y-86627097D01*
X154593238Y-86627092D01*
X154415577Y-86488812D01*
X154415572Y-86488808D01*
X154217580Y-86381661D01*
X154217577Y-86381659D01*
X154217574Y-86381658D01*
X154217571Y-86381657D01*
X154217569Y-86381656D01*
X154004637Y-86308556D01*
X153782569Y-86271500D01*
X153557431Y-86271500D01*
X153335362Y-86308556D01*
X153122430Y-86381656D01*
X153122419Y-86381661D01*
X152924427Y-86488808D01*
X152924422Y-86488812D01*
X152746761Y-86627092D01*
X152683548Y-86695760D01*
X152623661Y-86731750D01*
X152553823Y-86729649D01*
X152496207Y-86690124D01*
X152476138Y-86655110D01*
X152430889Y-86533796D01*
X152397214Y-86488812D01*
X152343261Y-86416739D01*
X152226204Y-86329111D01*
X152089203Y-86278011D01*
X152028654Y-86271500D01*
X152028638Y-86271500D01*
X150800702Y-86271500D01*
X150733663Y-86251815D01*
X150687908Y-86199011D01*
X150677964Y-86129853D01*
X150706989Y-86066297D01*
X150750265Y-86034221D01*
X150889752Y-85972118D01*
X151044253Y-85859866D01*
X151165687Y-85725000D01*
X155067000Y-85725000D01*
X155067000Y-86867976D01*
G37*
%TD.AperFunction*%
%TD*%
%TA.AperFunction,Conductor*%
%TO.N,+3.3V*%
G36*
X155010039Y-75203685D02*
G01*
X155055794Y-75256489D01*
X155067000Y-75308000D01*
X155067000Y-82733756D01*
X155047315Y-82800795D01*
X154994511Y-82846550D01*
X154925353Y-82856494D01*
X154892565Y-82847036D01*
X154841288Y-82824206D01*
X154841286Y-82824205D01*
X154654487Y-82784500D01*
X154463513Y-82784500D01*
X154276714Y-82824205D01*
X154102246Y-82901883D01*
X153947745Y-83014135D01*
X153819959Y-83156057D01*
X153724473Y-83321443D01*
X153724470Y-83321450D01*
X153665459Y-83503068D01*
X153665458Y-83503072D01*
X153645496Y-83693000D01*
X153665458Y-83882928D01*
X153665459Y-83882931D01*
X153724470Y-84064549D01*
X153724473Y-84064556D01*
X153819960Y-84229944D01*
X153947747Y-84371866D01*
X154102248Y-84484118D01*
X154276712Y-84561794D01*
X154463513Y-84601500D01*
X154654487Y-84601500D01*
X154841288Y-84561794D01*
X154892565Y-84538963D01*
X154961813Y-84529679D01*
X155025090Y-84559307D01*
X155062304Y-84618441D01*
X155067000Y-84652243D01*
X155067000Y-85725000D01*
X151165687Y-85725000D01*
X151172040Y-85717944D01*
X151267527Y-85552556D01*
X151326542Y-85370928D01*
X151346504Y-85181000D01*
X151326542Y-84991072D01*
X151267527Y-84809444D01*
X151172040Y-84644056D01*
X151044253Y-84502134D01*
X150889752Y-84389882D01*
X150715288Y-84312206D01*
X150715286Y-84312205D01*
X150528487Y-84272500D01*
X150337513Y-84272500D01*
X150150714Y-84312205D01*
X149976246Y-84389883D01*
X149821745Y-84502135D01*
X149693959Y-84644057D01*
X149598473Y-84809443D01*
X149598470Y-84809450D01*
X149587624Y-84842832D01*
X149539458Y-84991072D01*
X149519496Y-85181000D01*
X149539458Y-85370928D01*
X149539459Y-85370931D01*
X149598470Y-85552549D01*
X149598473Y-85552556D01*
X149693960Y-85717944D01*
X149700313Y-85725000D01*
X147252369Y-85725000D01*
X147315288Y-85711626D01*
X147489752Y-85633950D01*
X147644253Y-85521698D01*
X147772040Y-85379776D01*
X147867527Y-85214388D01*
X147926542Y-85032760D01*
X147946504Y-84842832D01*
X147926542Y-84652904D01*
X147867527Y-84471276D01*
X147772040Y-84305888D01*
X147644253Y-84163966D01*
X147489752Y-84051714D01*
X147315288Y-83974038D01*
X147315286Y-83974037D01*
X147128487Y-83934332D01*
X146937513Y-83934332D01*
X146750714Y-83974037D01*
X146576246Y-84051715D01*
X146421745Y-84163967D01*
X146293959Y-84305889D01*
X146198473Y-84471275D01*
X146198470Y-84471282D01*
X146139459Y-84652900D01*
X146139458Y-84652904D01*
X146119496Y-84842832D01*
X146139458Y-85032760D01*
X146139459Y-85032763D01*
X146198470Y-85214381D01*
X146198473Y-85214388D01*
X146293960Y-85379776D01*
X146421747Y-85521698D01*
X146576248Y-85633950D01*
X146750712Y-85711626D01*
X146813631Y-85725000D01*
X144269000Y-85725000D01*
X144201961Y-85705315D01*
X144156206Y-85652511D01*
X144145000Y-85601000D01*
X144145000Y-80023944D01*
X144476735Y-80023944D01*
X144496697Y-80213872D01*
X144496698Y-80213875D01*
X144555709Y-80395493D01*
X144555712Y-80395500D01*
X144651199Y-80560888D01*
X144778986Y-80702810D01*
X144933487Y-80815062D01*
X145107951Y-80892738D01*
X145294752Y-80932444D01*
X145485726Y-80932444D01*
X145672527Y-80892738D01*
X145846991Y-80815062D01*
X146001492Y-80702810D01*
X146129279Y-80560888D01*
X146224766Y-80395500D01*
X146283781Y-80213872D01*
X146303743Y-80023944D01*
X146283781Y-79834016D01*
X146224766Y-79652388D01*
X146129279Y-79487000D01*
X146001492Y-79345078D01*
X145846991Y-79232826D01*
X145672527Y-79155150D01*
X145672525Y-79155149D01*
X145485726Y-79115444D01*
X145294752Y-79115444D01*
X145107953Y-79155149D01*
X144933485Y-79232827D01*
X144778984Y-79345079D01*
X144651198Y-79487001D01*
X144555712Y-79652387D01*
X144555709Y-79652394D01*
X144496698Y-79834012D01*
X144496697Y-79834016D01*
X144476735Y-80023944D01*
X144145000Y-80023944D01*
X144145000Y-75308000D01*
X144164685Y-75240961D01*
X144217489Y-75195206D01*
X144269000Y-75184000D01*
X154943000Y-75184000D01*
X155010039Y-75203685D01*
G37*
%TD.AperFunction*%
%TD*%
%TA.AperFunction,Conductor*%
%TO.N,+12V*%
G36*
X119450039Y-75203685D02*
G01*
X119495794Y-75256489D01*
X119507000Y-75308000D01*
X119507000Y-77348500D01*
X119487315Y-77415539D01*
X119434511Y-77461294D01*
X119383000Y-77472500D01*
X119340013Y-77472500D01*
X119153214Y-77512205D01*
X118978746Y-77589883D01*
X118824245Y-77702135D01*
X118696459Y-77844057D01*
X118600973Y-78009443D01*
X118600970Y-78009450D01*
X118542627Y-78189013D01*
X118541958Y-78191072D01*
X118521996Y-78381000D01*
X118541958Y-78570928D01*
X118541959Y-78570931D01*
X118600970Y-78752549D01*
X118600973Y-78752556D01*
X118696460Y-78917944D01*
X118824247Y-79059866D01*
X118978748Y-79172118D01*
X119153212Y-79249794D01*
X119340013Y-79289500D01*
X119383000Y-79289500D01*
X119450039Y-79309185D01*
X119495794Y-79361989D01*
X119496295Y-79364295D01*
X119507000Y-79375000D01*
X122939000Y-79375000D01*
X123006039Y-79394685D01*
X123051794Y-79447489D01*
X123063000Y-79499000D01*
X123063000Y-80867206D01*
X123043315Y-80934245D01*
X123026681Y-80954887D01*
X123003478Y-80978089D01*
X123003475Y-80978092D01*
X122879676Y-81154894D01*
X122788462Y-81350505D01*
X122788458Y-81350514D01*
X122732600Y-81558981D01*
X122732598Y-81558992D01*
X122718283Y-81722616D01*
X122713788Y-81774000D01*
X122714329Y-81780190D01*
X122700565Y-81848689D01*
X122651951Y-81898874D01*
X122590802Y-81915000D01*
X119507000Y-81915000D01*
X119507000Y-82828572D01*
X119487315Y-82895611D01*
X119434511Y-82941366D01*
X119408783Y-82949862D01*
X119350712Y-82962205D01*
X119176244Y-83039884D01*
X119021745Y-83152135D01*
X118893959Y-83294057D01*
X118798473Y-83459443D01*
X118798470Y-83459450D01*
X118739459Y-83641068D01*
X118739458Y-83641072D01*
X118719496Y-83831000D01*
X118739458Y-84020928D01*
X118739459Y-84020931D01*
X118798470Y-84202549D01*
X118798473Y-84202556D01*
X118893960Y-84367944D01*
X119021747Y-84509866D01*
X119176248Y-84622118D01*
X119350712Y-84699794D01*
X119408781Y-84712137D01*
X119470263Y-84745329D01*
X119504039Y-84806492D01*
X119507000Y-84833427D01*
X119507000Y-85855000D01*
X119487315Y-85922039D01*
X119434511Y-85967794D01*
X119383000Y-85979000D01*
X115269088Y-85979000D01*
X115202049Y-85959315D01*
X115156294Y-85906511D01*
X115146350Y-85837353D01*
X115175375Y-85773797D01*
X115234153Y-85736023D01*
X115243307Y-85733710D01*
X115257409Y-85730712D01*
X115347203Y-85711626D01*
X115521667Y-85633950D01*
X115676168Y-85521698D01*
X115803955Y-85379776D01*
X115899442Y-85214388D01*
X115958457Y-85032760D01*
X115978419Y-84842832D01*
X115958457Y-84652904D01*
X115899442Y-84471276D01*
X115803955Y-84305888D01*
X115676168Y-84163966D01*
X115521667Y-84051714D01*
X115347203Y-83974038D01*
X115347201Y-83974037D01*
X115160402Y-83934332D01*
X114969428Y-83934332D01*
X114782629Y-83974037D01*
X114608161Y-84051715D01*
X114453660Y-84163967D01*
X114325874Y-84305889D01*
X114230388Y-84471275D01*
X114230386Y-84471279D01*
X114223412Y-84492745D01*
X114183974Y-84550420D01*
X114119615Y-84577618D01*
X114050769Y-84565703D01*
X114013331Y-84537398D01*
X113981580Y-84502135D01*
X113939107Y-84471276D01*
X113827078Y-84389882D01*
X113652614Y-84312206D01*
X113652612Y-84312205D01*
X113652611Y-84312205D01*
X113509219Y-84281726D01*
X113447737Y-84248533D01*
X113413961Y-84187370D01*
X113411000Y-84160436D01*
X113411000Y-82801000D01*
X113430685Y-82733961D01*
X113483489Y-82688206D01*
X113535000Y-82677000D01*
X115697000Y-82677000D01*
X115697000Y-80581000D01*
X118469496Y-80581000D01*
X118489458Y-80770928D01*
X118489459Y-80770931D01*
X118548470Y-80952549D01*
X118548473Y-80952556D01*
X118643960Y-81117944D01*
X118771747Y-81259866D01*
X118926248Y-81372118D01*
X119100712Y-81449794D01*
X119287513Y-81489500D01*
X119478487Y-81489500D01*
X119665288Y-81449794D01*
X119839752Y-81372118D01*
X119994253Y-81259866D01*
X120122040Y-81117944D01*
X120217527Y-80952556D01*
X120276542Y-80770928D01*
X120296504Y-80581000D01*
X120276542Y-80391072D01*
X120217527Y-80209444D01*
X120122040Y-80044056D01*
X119994253Y-79902134D01*
X119839752Y-79789882D01*
X119665288Y-79712206D01*
X119665286Y-79712205D01*
X119478487Y-79672500D01*
X119287513Y-79672500D01*
X119100714Y-79712205D01*
X118926246Y-79789883D01*
X118771745Y-79902135D01*
X118643959Y-80044057D01*
X118548473Y-80209443D01*
X118548470Y-80209450D01*
X118489459Y-80391068D01*
X118489458Y-80391072D01*
X118469496Y-80581000D01*
X115697000Y-80581000D01*
X115697000Y-79387045D01*
X116243496Y-79387045D01*
X116263458Y-79576973D01*
X116263459Y-79576976D01*
X116322470Y-79758594D01*
X116322473Y-79758601D01*
X116417960Y-79923989D01*
X116545747Y-80065911D01*
X116700248Y-80178163D01*
X116874712Y-80255839D01*
X117061513Y-80295545D01*
X117252487Y-80295545D01*
X117439288Y-80255839D01*
X117613752Y-80178163D01*
X117768253Y-80065911D01*
X117896040Y-79923989D01*
X117991527Y-79758601D01*
X118050542Y-79576973D01*
X118070504Y-79387045D01*
X118050542Y-79197117D01*
X117991527Y-79015489D01*
X117896040Y-78850101D01*
X117768253Y-78708179D01*
X117613752Y-78595927D01*
X117439288Y-78518251D01*
X117439286Y-78518250D01*
X117252487Y-78478545D01*
X117061513Y-78478545D01*
X116874714Y-78518250D01*
X116700246Y-78595928D01*
X116545745Y-78708180D01*
X116417959Y-78850102D01*
X116322473Y-79015488D01*
X116322470Y-79015495D01*
X116264665Y-79193401D01*
X116263458Y-79197117D01*
X116243496Y-79387045D01*
X115697000Y-79387045D01*
X115697000Y-76667000D01*
X116815496Y-76667000D01*
X116835458Y-76856928D01*
X116835459Y-76856931D01*
X116894470Y-77038549D01*
X116894473Y-77038556D01*
X116989960Y-77203944D01*
X117117747Y-77345866D01*
X117272248Y-77458118D01*
X117446712Y-77535794D01*
X117633513Y-77575500D01*
X117824487Y-77575500D01*
X118011288Y-77535794D01*
X118185752Y-77458118D01*
X118340253Y-77345866D01*
X118468040Y-77203944D01*
X118563527Y-77038556D01*
X118622542Y-76856928D01*
X118642504Y-76667000D01*
X118622542Y-76477072D01*
X118563527Y-76295444D01*
X118468040Y-76130056D01*
X118340253Y-75988134D01*
X118185752Y-75875882D01*
X118011288Y-75798206D01*
X118011286Y-75798205D01*
X117824487Y-75758500D01*
X117633513Y-75758500D01*
X117446714Y-75798205D01*
X117272246Y-75875883D01*
X117117745Y-75988135D01*
X116989959Y-76130057D01*
X116894473Y-76295443D01*
X116894470Y-76295450D01*
X116835459Y-76477068D01*
X116835458Y-76477072D01*
X116815496Y-76667000D01*
X115697000Y-76667000D01*
X115697000Y-75308000D01*
X115716685Y-75240961D01*
X115769489Y-75195206D01*
X115821000Y-75184000D01*
X119383000Y-75184000D01*
X119450039Y-75203685D01*
G37*
%TD.AperFunction*%
%TD*%
%TA.AperFunction,Conductor*%
%TO.N,+1V8*%
G36*
X110871000Y-87057000D02*
G01*
X110851315Y-87124039D01*
X110798511Y-87169794D01*
X110747000Y-87181000D01*
X110744000Y-87181000D01*
X110744000Y-88141000D01*
X110724315Y-88208039D01*
X110671511Y-88253794D01*
X110620000Y-88265000D01*
X106798096Y-88265000D01*
X106731057Y-88245315D01*
X106685302Y-88192511D01*
X106675358Y-88123353D01*
X106682511Y-88098910D01*
X106681581Y-88098572D01*
X106683432Y-88093486D01*
X106740636Y-87880000D01*
X105843012Y-87880000D01*
X105875925Y-87822993D01*
X105910000Y-87695826D01*
X105910000Y-87564174D01*
X105875925Y-87437007D01*
X105843012Y-87380000D01*
X106740636Y-87380000D01*
X106740635Y-87379999D01*
X106683432Y-87166513D01*
X106683429Y-87166507D01*
X106583600Y-86952422D01*
X106583599Y-86952420D01*
X106448113Y-86758926D01*
X106448108Y-86758920D01*
X106281082Y-86591894D01*
X106087578Y-86456399D01*
X105873492Y-86356570D01*
X105873477Y-86356564D01*
X105861918Y-86353467D01*
X105802258Y-86317102D01*
X105771730Y-86254255D01*
X105780025Y-86184879D01*
X105824511Y-86131002D01*
X105834259Y-86125590D01*
X105834129Y-86125364D01*
X105839747Y-86122119D01*
X105839752Y-86122118D01*
X105994253Y-86009866D01*
X106022045Y-85979000D01*
X110871000Y-85979000D01*
X110871000Y-87057000D01*
G37*
%TD.AperFunction*%
%TD*%
%TA.AperFunction,Conductor*%
%TO.N,+5V*%
G36*
X135452039Y-75203685D02*
G01*
X135497794Y-75256489D01*
X135509000Y-75308000D01*
X135509000Y-85855000D01*
X135489315Y-85922039D01*
X135436511Y-85967794D01*
X135385000Y-85979000D01*
X120139000Y-85979000D01*
X120071961Y-85959315D01*
X120026206Y-85906511D01*
X120015000Y-85855000D01*
X120015000Y-84735926D01*
X120034685Y-84668887D01*
X120084386Y-84625820D01*
X120084125Y-84625367D01*
X120086476Y-84624009D01*
X120087489Y-84623132D01*
X120088462Y-84622691D01*
X120089752Y-84622118D01*
X120244253Y-84509866D01*
X120372040Y-84367944D01*
X120467527Y-84202556D01*
X120526542Y-84020928D01*
X120546504Y-83831000D01*
X120526542Y-83641072D01*
X120467527Y-83459444D01*
X120372040Y-83294056D01*
X120244253Y-83152134D01*
X120117258Y-83059866D01*
X120089754Y-83039883D01*
X120089752Y-83039882D01*
X120088559Y-83039351D01*
X120087983Y-83038860D01*
X120084129Y-83036636D01*
X120084536Y-83035930D01*
X120035326Y-82994101D01*
X120015006Y-82927252D01*
X120015000Y-82926074D01*
X120015000Y-82547000D01*
X120034685Y-82479961D01*
X120087489Y-82434206D01*
X120139000Y-82423000D01*
X122836059Y-82423000D01*
X122903098Y-82442685D01*
X122937632Y-82475874D01*
X123003475Y-82569907D01*
X123156093Y-82722525D01*
X123332894Y-82846323D01*
X123528507Y-82937539D01*
X123736987Y-82993401D01*
X123890567Y-83006837D01*
X123951998Y-83012212D01*
X123952000Y-83012212D01*
X123952002Y-83012212D01*
X124005753Y-83007509D01*
X124167013Y-82993401D01*
X124375493Y-82937539D01*
X124571106Y-82846323D01*
X124747907Y-82722525D01*
X124900525Y-82569907D01*
X125024323Y-82393106D01*
X125115539Y-82197493D01*
X125171401Y-81989013D01*
X125190212Y-81774000D01*
X125171401Y-81558987D01*
X125115539Y-81350507D01*
X125024323Y-81154894D01*
X124900525Y-80978093D01*
X124747907Y-80825475D01*
X124571105Y-80701676D01*
X124449562Y-80645000D01*
X129007496Y-80645000D01*
X129027458Y-80834928D01*
X129027459Y-80834931D01*
X129086470Y-81016549D01*
X129086473Y-81016556D01*
X129181960Y-81181944D01*
X129309747Y-81323866D01*
X129464248Y-81436118D01*
X129638712Y-81513794D01*
X129825513Y-81553500D01*
X130016487Y-81553500D01*
X130203288Y-81513794D01*
X130377752Y-81436118D01*
X130532253Y-81323866D01*
X130660040Y-81181944D01*
X130755527Y-81016556D01*
X130814542Y-80834928D01*
X130834504Y-80645000D01*
X130814542Y-80455072D01*
X130755527Y-80273444D01*
X130660040Y-80108056D01*
X130532253Y-79966134D01*
X130377752Y-79853882D01*
X130203288Y-79776206D01*
X130203286Y-79776205D01*
X130016487Y-79736500D01*
X129825513Y-79736500D01*
X129638714Y-79776205D01*
X129464246Y-79853883D01*
X129309745Y-79966135D01*
X129181959Y-80108057D01*
X129086473Y-80273443D01*
X129086470Y-80273450D01*
X129027459Y-80455068D01*
X129027458Y-80455072D01*
X129007496Y-80645000D01*
X124449562Y-80645000D01*
X124375493Y-80610461D01*
X124375489Y-80610460D01*
X124375485Y-80610458D01*
X124167018Y-80554600D01*
X124167014Y-80554599D01*
X124167013Y-80554599D01*
X124167012Y-80554598D01*
X124167007Y-80554598D01*
X123952002Y-80535788D01*
X123951998Y-80535788D01*
X123736992Y-80554598D01*
X123736978Y-80554601D01*
X123727092Y-80557250D01*
X123657242Y-80555587D01*
X123599380Y-80516423D01*
X123571877Y-80452195D01*
X123571000Y-80437475D01*
X123571000Y-79310525D01*
X123590685Y-79243486D01*
X123643489Y-79197731D01*
X123712647Y-79187787D01*
X123727091Y-79190749D01*
X123736987Y-79193401D01*
X123919978Y-79209410D01*
X123951998Y-79212212D01*
X123952000Y-79212212D01*
X123952002Y-79212212D01*
X124005753Y-79207509D01*
X124167013Y-79193401D01*
X124375493Y-79137539D01*
X124571106Y-79046323D01*
X124747907Y-78922525D01*
X124900525Y-78769907D01*
X125024323Y-78593106D01*
X125115539Y-78397493D01*
X125171401Y-78189013D01*
X125190212Y-77974000D01*
X125190212Y-77973998D01*
X131353788Y-77973998D01*
X131353788Y-77974001D01*
X131372598Y-78189007D01*
X131372600Y-78189018D01*
X131428458Y-78397485D01*
X131428460Y-78397489D01*
X131428461Y-78397493D01*
X131457349Y-78459443D01*
X131519676Y-78593105D01*
X131597804Y-78704682D01*
X131643475Y-78769907D01*
X131796093Y-78922525D01*
X131972894Y-79046323D01*
X132168507Y-79137539D01*
X132376987Y-79193401D01*
X132530567Y-79206837D01*
X132591998Y-79212212D01*
X132592000Y-79212212D01*
X132592002Y-79212212D01*
X132645753Y-79207509D01*
X132807013Y-79193401D01*
X133015493Y-79137539D01*
X133029022Y-79131229D01*
X133098099Y-79120735D01*
X133161884Y-79149253D01*
X133194081Y-79197390D01*
X133195827Y-79196613D01*
X133198473Y-79202556D01*
X133293960Y-79367944D01*
X133421747Y-79509866D01*
X133553626Y-79605682D01*
X133596291Y-79661012D01*
X133602270Y-79730626D01*
X133569664Y-79792421D01*
X133553626Y-79806318D01*
X133421745Y-79902135D01*
X133293959Y-80044057D01*
X133198473Y-80209443D01*
X133198470Y-80209450D01*
X133139459Y-80391068D01*
X133139458Y-80391072D01*
X133134581Y-80437475D01*
X133128811Y-80492369D01*
X133102226Y-80556983D01*
X133044928Y-80596967D01*
X132975109Y-80599627D01*
X132973397Y-80599181D01*
X132807018Y-80554600D01*
X132807014Y-80554599D01*
X132807013Y-80554599D01*
X132807012Y-80554598D01*
X132807007Y-80554598D01*
X132592002Y-80535788D01*
X132591998Y-80535788D01*
X132376992Y-80554598D01*
X132376981Y-80554600D01*
X132168514Y-80610458D01*
X132168505Y-80610462D01*
X131972894Y-80701676D01*
X131796092Y-80825475D01*
X131643475Y-80978092D01*
X131519676Y-81154894D01*
X131428462Y-81350505D01*
X131428458Y-81350514D01*
X131372600Y-81558981D01*
X131372598Y-81558992D01*
X131353788Y-81773998D01*
X131353788Y-81774001D01*
X131372598Y-81989007D01*
X131372600Y-81989018D01*
X131428458Y-82197485D01*
X131428460Y-82197489D01*
X131428461Y-82197493D01*
X131474069Y-82295299D01*
X131519676Y-82393105D01*
X131554393Y-82442685D01*
X131643475Y-82569907D01*
X131796093Y-82722525D01*
X131972894Y-82846323D01*
X132168507Y-82937539D01*
X132376987Y-82993401D01*
X132530567Y-83006837D01*
X132591998Y-83012212D01*
X132592000Y-83012212D01*
X132592002Y-83012212D01*
X132645753Y-83007509D01*
X132807013Y-82993401D01*
X133015493Y-82937539D01*
X133141485Y-82878787D01*
X133210562Y-82868296D01*
X133274346Y-82896816D01*
X133289510Y-82913206D01*
X133289612Y-82913115D01*
X133400830Y-83036636D01*
X133421747Y-83059866D01*
X133474877Y-83098467D01*
X133517542Y-83153797D01*
X133523521Y-83223411D01*
X133490915Y-83285206D01*
X133474877Y-83299103D01*
X133421745Y-83337705D01*
X133293959Y-83479627D01*
X133198473Y-83645013D01*
X133198470Y-83645020D01*
X133139459Y-83826638D01*
X133139458Y-83826642D01*
X133119496Y-84016570D01*
X133139458Y-84206498D01*
X133139459Y-84206501D01*
X133198470Y-84388119D01*
X133198473Y-84388126D01*
X133293960Y-84553514D01*
X133421747Y-84695436D01*
X133576248Y-84807688D01*
X133750712Y-84885364D01*
X133937513Y-84925070D01*
X134128487Y-84925070D01*
X134315288Y-84885364D01*
X134489752Y-84807688D01*
X134644253Y-84695436D01*
X134772040Y-84553514D01*
X134867527Y-84388126D01*
X134926542Y-84206498D01*
X134946504Y-84016570D01*
X134926542Y-83826642D01*
X134867527Y-83645014D01*
X134772040Y-83479626D01*
X134644253Y-83337704D01*
X134591122Y-83299102D01*
X134548457Y-83243774D01*
X134542478Y-83174160D01*
X134575083Y-83112365D01*
X134591123Y-83098467D01*
X134644253Y-83059866D01*
X134772040Y-82917944D01*
X134867527Y-82752556D01*
X134926542Y-82570928D01*
X134946504Y-82381000D01*
X134926542Y-82191072D01*
X134867527Y-82009444D01*
X134772040Y-81844056D01*
X134644253Y-81702134D01*
X134489752Y-81589882D01*
X134489751Y-81589881D01*
X134487169Y-81588391D01*
X134485972Y-81587135D01*
X134484494Y-81586062D01*
X134484690Y-81585791D01*
X134438950Y-81537827D01*
X134425723Y-81469221D01*
X134451687Y-81404354D01*
X134487169Y-81373609D01*
X134489747Y-81372119D01*
X134489752Y-81372118D01*
X134644253Y-81259866D01*
X134772040Y-81117944D01*
X134867527Y-80952556D01*
X134926542Y-80770928D01*
X134946504Y-80581000D01*
X134926542Y-80391072D01*
X134867527Y-80209444D01*
X134772040Y-80044056D01*
X134644253Y-79902134D01*
X134644251Y-79902132D01*
X134512374Y-79806318D01*
X134469708Y-79750988D01*
X134463729Y-79681375D01*
X134496335Y-79619580D01*
X134512374Y-79605682D01*
X134644253Y-79509866D01*
X134772040Y-79367944D01*
X134867527Y-79202556D01*
X134926542Y-79020928D01*
X134946504Y-78831000D01*
X134926542Y-78641072D01*
X134867527Y-78459444D01*
X134772040Y-78294056D01*
X134644253Y-78152134D01*
X134644251Y-78152132D01*
X134512374Y-78056318D01*
X134469708Y-78000988D01*
X134463729Y-77931375D01*
X134496335Y-77869580D01*
X134512374Y-77855682D01*
X134528376Y-77844056D01*
X134644253Y-77759866D01*
X134772040Y-77617944D01*
X134867527Y-77452556D01*
X134926542Y-77270928D01*
X134946504Y-77081000D01*
X134926542Y-76891072D01*
X134867527Y-76709444D01*
X134772040Y-76544056D01*
X134644253Y-76402134D01*
X134489752Y-76289882D01*
X134315288Y-76212206D01*
X134315286Y-76212205D01*
X134128487Y-76172500D01*
X133937513Y-76172500D01*
X133750714Y-76212205D01*
X133576246Y-76289883D01*
X133421745Y-76402135D01*
X133293959Y-76544057D01*
X133198473Y-76709443D01*
X133198469Y-76709451D01*
X133189202Y-76737973D01*
X133149763Y-76795648D01*
X133085404Y-76822844D01*
X133018873Y-76812037D01*
X133015495Y-76810462D01*
X133015485Y-76810458D01*
X132807018Y-76754600D01*
X132807014Y-76754599D01*
X132807013Y-76754599D01*
X132807012Y-76754598D01*
X132807007Y-76754598D01*
X132592002Y-76735788D01*
X132591998Y-76735788D01*
X132376992Y-76754598D01*
X132376981Y-76754600D01*
X132168514Y-76810458D01*
X132168505Y-76810462D01*
X131972894Y-76901676D01*
X131796092Y-77025475D01*
X131643475Y-77178092D01*
X131519676Y-77354894D01*
X131428462Y-77550505D01*
X131428458Y-77550514D01*
X131372600Y-77758981D01*
X131372598Y-77758992D01*
X131353788Y-77973998D01*
X125190212Y-77973998D01*
X125171401Y-77758987D01*
X125128985Y-77600690D01*
X125115541Y-77550514D01*
X125115540Y-77550513D01*
X125115539Y-77550507D01*
X125024323Y-77354894D01*
X124900525Y-77178093D01*
X124747907Y-77025475D01*
X124571106Y-76901677D01*
X124571107Y-76901677D01*
X124571105Y-76901676D01*
X124402048Y-76822844D01*
X124375493Y-76810461D01*
X124375489Y-76810460D01*
X124375485Y-76810458D01*
X124167018Y-76754600D01*
X124167014Y-76754599D01*
X124167013Y-76754599D01*
X124167012Y-76754598D01*
X124167007Y-76754598D01*
X123952002Y-76735788D01*
X123951998Y-76735788D01*
X123736992Y-76754598D01*
X123736981Y-76754600D01*
X123528514Y-76810458D01*
X123528505Y-76810462D01*
X123332894Y-76901676D01*
X123156092Y-77025475D01*
X123003475Y-77178092D01*
X122879676Y-77354894D01*
X122788462Y-77550505D01*
X122788458Y-77550514D01*
X122732600Y-77758981D01*
X122732598Y-77758992D01*
X122713788Y-77973998D01*
X122713788Y-77974001D01*
X122732598Y-78189007D01*
X122732600Y-78189018D01*
X122788458Y-78397485D01*
X122788460Y-78397489D01*
X122788461Y-78397493D01*
X122817349Y-78459443D01*
X122879676Y-78593105D01*
X122934833Y-78671876D01*
X122957160Y-78738082D01*
X122940150Y-78805850D01*
X122889202Y-78853663D01*
X122833258Y-78867000D01*
X120403514Y-78867000D01*
X120336475Y-78847315D01*
X120290720Y-78794511D01*
X120280776Y-78725353D01*
X120285583Y-78704682D01*
X120306252Y-78641068D01*
X120329042Y-78570928D01*
X120349004Y-78381000D01*
X120329042Y-78191072D01*
X120270027Y-78009444D01*
X120174540Y-77844056D01*
X120097938Y-77758981D01*
X120046850Y-77702241D01*
X120016620Y-77639249D01*
X120015000Y-77619269D01*
X120015000Y-75308000D01*
X120034685Y-75240961D01*
X120087489Y-75195206D01*
X120139000Y-75184000D01*
X135385000Y-75184000D01*
X135452039Y-75203685D01*
G37*
%TD.AperFunction*%
%TD*%
M02*
