%TF.GenerationSoftware,KiCad,Pcbnew,(7.0.0-0)*%
%TF.CreationDate,2023-05-01T17:42:34-06:00*%
%TF.ProjectId,Breadboard Power Supply,42726561-6462-46f6-9172-6420506f7765,v6*%
%TF.SameCoordinates,Original*%
%TF.FileFunction,Paste,Top*%
%TF.FilePolarity,Positive*%
%FSLAX46Y46*%
G04 Gerber Fmt 4.6, Leading zero omitted, Abs format (unit mm)*
G04 Created by KiCad (PCBNEW (7.0.0-0)) date 2023-05-01 17:42:34*
%MOMM*%
%LPD*%
G01*
G04 APERTURE LIST*
G04 Aperture macros list*
%AMRoundRect*
0 Rectangle with rounded corners*
0 $1 Rounding radius*
0 $2 $3 $4 $5 $6 $7 $8 $9 X,Y pos of 4 corners*
0 Add a 4 corners polygon primitive as box body*
4,1,4,$2,$3,$4,$5,$6,$7,$8,$9,$2,$3,0*
0 Add four circle primitives for the rounded corners*
1,1,$1+$1,$2,$3*
1,1,$1+$1,$4,$5*
1,1,$1+$1,$6,$7*
1,1,$1+$1,$8,$9*
0 Add four rect primitives between the rounded corners*
20,1,$1+$1,$2,$3,$4,$5,0*
20,1,$1+$1,$4,$5,$6,$7,0*
20,1,$1+$1,$6,$7,$8,$9,0*
20,1,$1+$1,$8,$9,$2,$3,0*%
G04 Aperture macros list end*
%ADD10R,0.700000X1.200000*%
%ADD11R,0.760000X1.200000*%
%ADD12R,0.800000X1.200000*%
%ADD13RoundRect,0.250000X0.475000X-0.250000X0.475000X0.250000X-0.475000X0.250000X-0.475000X-0.250000X0*%
%ADD14RoundRect,0.140000X-0.170000X0.140000X-0.170000X-0.140000X0.170000X-0.140000X0.170000X0.140000X0*%
%ADD15RoundRect,0.140000X0.170000X-0.140000X0.170000X0.140000X-0.170000X0.140000X-0.170000X-0.140000X0*%
%ADD16RoundRect,0.135000X-0.135000X-0.185000X0.135000X-0.185000X0.135000X0.185000X-0.135000X0.185000X0*%
%ADD17RoundRect,0.218750X-0.218750X-0.256250X0.218750X-0.256250X0.218750X0.256250X-0.218750X0.256250X0*%
%ADD18R,2.000000X1.500000*%
%ADD19R,2.000000X3.800000*%
%ADD20RoundRect,0.135000X0.135000X0.185000X-0.135000X0.185000X-0.135000X-0.185000X0.135000X-0.185000X0*%
%ADD21R,2.209800X2.260600*%
%ADD22RoundRect,0.250000X-0.475000X0.250000X-0.475000X-0.250000X0.475000X-0.250000X0.475000X0.250000X0*%
G04 APERTURE END LIST*
D10*
%TO.C,J1*%
X128769999Y-81767999D03*
D11*
X126749999Y-81767999D03*
D12*
X125519999Y-81767999D03*
D10*
X127769999Y-81767999D03*
D11*
X129789999Y-81767999D03*
D12*
X131019999Y-81767999D03*
%TD*%
D13*
%TO.C,C5*%
X145161000Y-77978000D03*
X145161000Y-76078000D03*
%TD*%
D14*
%TO.C,C8*%
X112903000Y-79121000D03*
X112903000Y-80081000D03*
%TD*%
D15*
%TO.C,C7*%
X143637000Y-78331000D03*
X143637000Y-77371000D03*
%TD*%
D16*
%TO.C,R2*%
X138428000Y-76200000D03*
X139448000Y-76200000D03*
%TD*%
D15*
%TO.C,C2*%
X112903000Y-78204000D03*
X112903000Y-77244000D03*
%TD*%
D13*
%TO.C,C4*%
X111379000Y-77912000D03*
X111379000Y-76012000D03*
%TD*%
%TO.C,C3*%
X145161000Y-81407000D03*
X145161000Y-79507000D03*
%TD*%
D17*
%TO.C,D1*%
X119608500Y-76073000D03*
X121183500Y-76073000D03*
%TD*%
D15*
%TO.C,C1*%
X143637000Y-80236000D03*
X143637000Y-79276000D03*
%TD*%
D16*
%TO.C,R1*%
X136523000Y-76200000D03*
X137543000Y-76200000D03*
%TD*%
D18*
%TO.C,U2*%
X147471999Y-76566999D03*
X147471999Y-78866999D03*
D19*
X153771999Y-78866999D03*
D18*
X147471999Y-81166999D03*
%TD*%
D20*
%TO.C,R4*%
X118366000Y-76073000D03*
X117346000Y-76073000D03*
%TD*%
D21*
%TO.C,D3*%
X126225299Y-85978999D03*
X130314699Y-85978999D03*
%TD*%
D18*
%TO.C,U1*%
X109067999Y-81166999D03*
X109067999Y-78866999D03*
D19*
X102767999Y-78866999D03*
D18*
X109067999Y-76566999D03*
%TD*%
D22*
%TO.C,C6*%
X111379000Y-79441000D03*
X111379000Y-81341000D03*
%TD*%
M02*
