%TF.GenerationSoftware,KiCad,Pcbnew,(6.0.10-0)*%
%TF.CreationDate,2023-02-03T12:32:43-07:00*%
%TF.ProjectId,Breadboard Power Supply,42726561-6462-46f6-9172-6420506f7765,v1*%
%TF.SameCoordinates,Original*%
%TF.FileFunction,Legend,Top*%
%TF.FilePolarity,Positive*%
%FSLAX46Y46*%
G04 Gerber Fmt 4.6, Leading zero omitted, Abs format (unit mm)*
G04 Created by KiCad (PCBNEW (6.0.10-0)) date 2023-02-03 12:32:43*
%MOMM*%
%LPD*%
G01*
G04 APERTURE LIST*
%ADD10C,0.100000*%
%ADD11C,0.120000*%
%ADD12C,0.127000*%
%ADD13C,0.200000*%
G04 APERTURE END LIST*
D10*
X149593333Y-101142000D02*
X150126666Y-101142000D01*
X145731666Y-95850000D02*
X145731666Y-96250000D01*
X145731666Y-96050000D02*
X145031666Y-96050000D01*
X145131666Y-96116666D01*
X145198333Y-96183333D01*
X145231666Y-96250000D01*
X145665000Y-95550000D02*
X145698333Y-95516666D01*
X145731666Y-95550000D01*
X145698333Y-95583333D01*
X145665000Y-95550000D01*
X145731666Y-95550000D01*
X145331666Y-95116666D02*
X145298333Y-95183333D01*
X145265000Y-95216666D01*
X145198333Y-95250000D01*
X145165000Y-95250000D01*
X145098333Y-95216666D01*
X145065000Y-95183333D01*
X145031666Y-95116666D01*
X145031666Y-94983333D01*
X145065000Y-94916666D01*
X145098333Y-94883333D01*
X145165000Y-94850000D01*
X145198333Y-94850000D01*
X145265000Y-94883333D01*
X145298333Y-94916666D01*
X145331666Y-94983333D01*
X145331666Y-95116666D01*
X145365000Y-95183333D01*
X145398333Y-95216666D01*
X145465000Y-95250000D01*
X145598333Y-95250000D01*
X145665000Y-95216666D01*
X145698333Y-95183333D01*
X145731666Y-95116666D01*
X145731666Y-94983333D01*
X145698333Y-94916666D01*
X145665000Y-94883333D01*
X145598333Y-94850000D01*
X145465000Y-94850000D01*
X145398333Y-94883333D01*
X145365000Y-94916666D01*
X145331666Y-94983333D01*
X145031666Y-94650000D02*
X145731666Y-94416666D01*
X145031666Y-94183333D01*
X103873333Y-101142000D02*
X104406666Y-101142000D01*
X104140000Y-101408666D02*
X104140000Y-100875333D01*
X145031666Y-92473333D02*
X145031666Y-92040000D01*
X145298333Y-92273333D01*
X145298333Y-92173333D01*
X145331666Y-92106666D01*
X145365000Y-92073333D01*
X145431666Y-92040000D01*
X145598333Y-92040000D01*
X145665000Y-92073333D01*
X145698333Y-92106666D01*
X145731666Y-92173333D01*
X145731666Y-92373333D01*
X145698333Y-92440000D01*
X145665000Y-92473333D01*
X145665000Y-91740000D02*
X145698333Y-91706666D01*
X145731666Y-91740000D01*
X145698333Y-91773333D01*
X145665000Y-91740000D01*
X145731666Y-91740000D01*
X145031666Y-91473333D02*
X145031666Y-91040000D01*
X145298333Y-91273333D01*
X145298333Y-91173333D01*
X145331666Y-91106666D01*
X145365000Y-91073333D01*
X145431666Y-91040000D01*
X145598333Y-91040000D01*
X145665000Y-91073333D01*
X145698333Y-91106666D01*
X145731666Y-91173333D01*
X145731666Y-91373333D01*
X145698333Y-91440000D01*
X145665000Y-91473333D01*
X145031666Y-90840000D02*
X145731666Y-90606666D01*
X145031666Y-90373333D01*
X108328666Y-92473333D02*
X108328666Y-92040000D01*
X108595333Y-92273333D01*
X108595333Y-92173333D01*
X108628666Y-92106666D01*
X108662000Y-92073333D01*
X108728666Y-92040000D01*
X108895333Y-92040000D01*
X108962000Y-92073333D01*
X108995333Y-92106666D01*
X109028666Y-92173333D01*
X109028666Y-92373333D01*
X108995333Y-92440000D01*
X108962000Y-92473333D01*
X108962000Y-91740000D02*
X108995333Y-91706666D01*
X109028666Y-91740000D01*
X108995333Y-91773333D01*
X108962000Y-91740000D01*
X109028666Y-91740000D01*
X108328666Y-91473333D02*
X108328666Y-91040000D01*
X108595333Y-91273333D01*
X108595333Y-91173333D01*
X108628666Y-91106666D01*
X108662000Y-91073333D01*
X108728666Y-91040000D01*
X108895333Y-91040000D01*
X108962000Y-91073333D01*
X108995333Y-91106666D01*
X109028666Y-91173333D01*
X109028666Y-91373333D01*
X108995333Y-91440000D01*
X108962000Y-91473333D01*
X108328666Y-90840000D02*
X109028666Y-90606666D01*
X108328666Y-90373333D01*
X147053333Y-101142000D02*
X147586666Y-101142000D01*
X147320000Y-101408666D02*
X147320000Y-100875333D01*
X109028666Y-95850000D02*
X109028666Y-96250000D01*
X109028666Y-96050000D02*
X108328666Y-96050000D01*
X108428666Y-96116666D01*
X108495333Y-96183333D01*
X108528666Y-96250000D01*
X108962000Y-95550000D02*
X108995333Y-95516666D01*
X109028666Y-95550000D01*
X108995333Y-95583333D01*
X108962000Y-95550000D01*
X109028666Y-95550000D01*
X108628666Y-95116666D02*
X108595333Y-95183333D01*
X108562000Y-95216666D01*
X108495333Y-95250000D01*
X108462000Y-95250000D01*
X108395333Y-95216666D01*
X108362000Y-95183333D01*
X108328666Y-95116666D01*
X108328666Y-94983333D01*
X108362000Y-94916666D01*
X108395333Y-94883333D01*
X108462000Y-94850000D01*
X108495333Y-94850000D01*
X108562000Y-94883333D01*
X108595333Y-94916666D01*
X108628666Y-94983333D01*
X108628666Y-95116666D01*
X108662000Y-95183333D01*
X108695333Y-95216666D01*
X108762000Y-95250000D01*
X108895333Y-95250000D01*
X108962000Y-95216666D01*
X108995333Y-95183333D01*
X109028666Y-95116666D01*
X109028666Y-94983333D01*
X108995333Y-94916666D01*
X108962000Y-94883333D01*
X108895333Y-94850000D01*
X108762000Y-94850000D01*
X108695333Y-94883333D01*
X108662000Y-94916666D01*
X108628666Y-94983333D01*
X108328666Y-94650000D02*
X109028666Y-94416666D01*
X108328666Y-94183333D01*
X108328666Y-87763333D02*
X108328666Y-88096666D01*
X108662000Y-88130000D01*
X108628666Y-88096666D01*
X108595333Y-88030000D01*
X108595333Y-87863333D01*
X108628666Y-87796666D01*
X108662000Y-87763333D01*
X108728666Y-87730000D01*
X108895333Y-87730000D01*
X108962000Y-87763333D01*
X108995333Y-87796666D01*
X109028666Y-87863333D01*
X109028666Y-88030000D01*
X108995333Y-88096666D01*
X108962000Y-88130000D01*
X108328666Y-87530000D02*
X109028666Y-87296666D01*
X108328666Y-87063333D01*
X106413333Y-101142000D02*
X106946666Y-101142000D01*
X145031666Y-87763333D02*
X145031666Y-88096666D01*
X145365000Y-88130000D01*
X145331666Y-88096666D01*
X145298333Y-88030000D01*
X145298333Y-87863333D01*
X145331666Y-87796666D01*
X145365000Y-87763333D01*
X145431666Y-87730000D01*
X145598333Y-87730000D01*
X145665000Y-87763333D01*
X145698333Y-87796666D01*
X145731666Y-87863333D01*
X145731666Y-88030000D01*
X145698333Y-88096666D01*
X145665000Y-88130000D01*
X145031666Y-87530000D02*
X145731666Y-87296666D01*
X145031666Y-87063333D01*
%TO.C,J3*%
X151381666Y-91673333D02*
X151881666Y-91673333D01*
X151981666Y-91706666D01*
X152048333Y-91773333D01*
X152081666Y-91873333D01*
X152081666Y-91940000D01*
X151381666Y-91406666D02*
X151381666Y-90973333D01*
X151648333Y-91206666D01*
X151648333Y-91106666D01*
X151681666Y-91040000D01*
X151715000Y-91006666D01*
X151781666Y-90973333D01*
X151948333Y-90973333D01*
X152015000Y-91006666D01*
X152048333Y-91040000D01*
X152081666Y-91106666D01*
X152081666Y-91306666D01*
X152048333Y-91373333D01*
X152015000Y-91406666D01*
%TO.C,D1*%
X121149333Y-78040666D02*
X121149333Y-77340666D01*
X121316000Y-77340666D01*
X121416000Y-77374000D01*
X121482666Y-77440666D01*
X121516000Y-77507333D01*
X121549333Y-77640666D01*
X121549333Y-77740666D01*
X121516000Y-77874000D01*
X121482666Y-77940666D01*
X121416000Y-78007333D01*
X121316000Y-78040666D01*
X121149333Y-78040666D01*
X122216000Y-78040666D02*
X121816000Y-78040666D01*
X122016000Y-78040666D02*
X122016000Y-77340666D01*
X121949333Y-77440666D01*
X121882666Y-77507333D01*
X121816000Y-77540666D01*
%TO.C,R2*%
X137984666Y-81904666D02*
X137651333Y-82138000D01*
X137984666Y-82304666D02*
X137284666Y-82304666D01*
X137284666Y-82038000D01*
X137318000Y-81971333D01*
X137351333Y-81938000D01*
X137418000Y-81904666D01*
X137518000Y-81904666D01*
X137584666Y-81938000D01*
X137618000Y-81971333D01*
X137651333Y-82038000D01*
X137651333Y-82304666D01*
X137351333Y-81638000D02*
X137318000Y-81604666D01*
X137284666Y-81538000D01*
X137284666Y-81371333D01*
X137318000Y-81304666D01*
X137351333Y-81271333D01*
X137418000Y-81238000D01*
X137484666Y-81238000D01*
X137584666Y-81271333D01*
X137984666Y-81671333D01*
X137984666Y-81238000D01*
%TO.C,C2*%
X114437333Y-77720000D02*
X114404000Y-77753333D01*
X114304000Y-77786666D01*
X114237333Y-77786666D01*
X114137333Y-77753333D01*
X114070666Y-77686666D01*
X114037333Y-77620000D01*
X114004000Y-77486666D01*
X114004000Y-77386666D01*
X114037333Y-77253333D01*
X114070666Y-77186666D01*
X114137333Y-77120000D01*
X114237333Y-77086666D01*
X114304000Y-77086666D01*
X114404000Y-77120000D01*
X114437333Y-77153333D01*
X114704000Y-77153333D02*
X114737333Y-77120000D01*
X114804000Y-77086666D01*
X114970666Y-77086666D01*
X115037333Y-77120000D01*
X115070666Y-77153333D01*
X115104000Y-77220000D01*
X115104000Y-77286666D01*
X115070666Y-77386666D01*
X114670666Y-77786666D01*
X115104000Y-77786666D01*
%TO.C,R1*%
X136916333Y-77151666D02*
X136683000Y-76818333D01*
X136516333Y-77151666D02*
X136516333Y-76451666D01*
X136783000Y-76451666D01*
X136849666Y-76485000D01*
X136883000Y-76518333D01*
X136916333Y-76585000D01*
X136916333Y-76685000D01*
X136883000Y-76751666D01*
X136849666Y-76785000D01*
X136783000Y-76818333D01*
X136516333Y-76818333D01*
X137583000Y-77151666D02*
X137183000Y-77151666D01*
X137383000Y-77151666D02*
X137383000Y-76451666D01*
X137316333Y-76551666D01*
X137249666Y-76618333D01*
X137183000Y-76651666D01*
%TO.C,C4*%
X110140333Y-77720000D02*
X110107000Y-77753333D01*
X110007000Y-77786666D01*
X109940333Y-77786666D01*
X109840333Y-77753333D01*
X109773666Y-77686666D01*
X109740333Y-77620000D01*
X109707000Y-77486666D01*
X109707000Y-77386666D01*
X109740333Y-77253333D01*
X109773666Y-77186666D01*
X109840333Y-77120000D01*
X109940333Y-77086666D01*
X110007000Y-77086666D01*
X110107000Y-77120000D01*
X110140333Y-77153333D01*
X110740333Y-77320000D02*
X110740333Y-77786666D01*
X110573666Y-77053333D02*
X110407000Y-77553333D01*
X110840333Y-77553333D01*
%TO.C,C9*%
X137932333Y-85975000D02*
X137899000Y-86008333D01*
X137799000Y-86041666D01*
X137732333Y-86041666D01*
X137632333Y-86008333D01*
X137565666Y-85941666D01*
X137532333Y-85875000D01*
X137499000Y-85741666D01*
X137499000Y-85641666D01*
X137532333Y-85508333D01*
X137565666Y-85441666D01*
X137632333Y-85375000D01*
X137732333Y-85341666D01*
X137799000Y-85341666D01*
X137899000Y-85375000D01*
X137932333Y-85408333D01*
X138265666Y-86041666D02*
X138399000Y-86041666D01*
X138465666Y-86008333D01*
X138499000Y-85975000D01*
X138565666Y-85875000D01*
X138599000Y-85741666D01*
X138599000Y-85475000D01*
X138565666Y-85408333D01*
X138532333Y-85375000D01*
X138465666Y-85341666D01*
X138332333Y-85341666D01*
X138265666Y-85375000D01*
X138232333Y-85408333D01*
X138199000Y-85475000D01*
X138199000Y-85641666D01*
X138232333Y-85708333D01*
X138265666Y-85741666D01*
X138332333Y-85775000D01*
X138465666Y-85775000D01*
X138532333Y-85741666D01*
X138565666Y-85708333D01*
X138599000Y-85641666D01*
%TO.C,J4*%
X151381666Y-95483333D02*
X151881666Y-95483333D01*
X151981666Y-95516666D01*
X152048333Y-95583333D01*
X152081666Y-95683333D01*
X152081666Y-95750000D01*
X151615000Y-94850000D02*
X152081666Y-94850000D01*
X151348333Y-95016666D02*
X151848333Y-95183333D01*
X151848333Y-94750000D01*
%TO.C,R3*%
X116977333Y-80834666D02*
X116744000Y-80501333D01*
X116577333Y-80834666D02*
X116577333Y-80134666D01*
X116844000Y-80134666D01*
X116910666Y-80168000D01*
X116944000Y-80201333D01*
X116977333Y-80268000D01*
X116977333Y-80368000D01*
X116944000Y-80434666D01*
X116910666Y-80468000D01*
X116844000Y-80501333D01*
X116577333Y-80501333D01*
X117210666Y-80134666D02*
X117644000Y-80134666D01*
X117410666Y-80401333D01*
X117510666Y-80401333D01*
X117577333Y-80434666D01*
X117610666Y-80468000D01*
X117644000Y-80534666D01*
X117644000Y-80701333D01*
X117610666Y-80768000D01*
X117577333Y-80801333D01*
X117510666Y-80834666D01*
X117310666Y-80834666D01*
X117244000Y-80801333D01*
X117210666Y-80768000D01*
%TO.C,J7*%
X101851666Y-95356333D02*
X102351666Y-95356333D01*
X102451666Y-95389666D01*
X102518333Y-95456333D01*
X102551666Y-95556333D01*
X102551666Y-95623000D01*
X101851666Y-95089666D02*
X101851666Y-94623000D01*
X102551666Y-94923000D01*
%TO.C,U2*%
X105384666Y-77340666D02*
X105384666Y-77907333D01*
X105418000Y-77974000D01*
X105451333Y-78007333D01*
X105518000Y-78040666D01*
X105651333Y-78040666D01*
X105718000Y-78007333D01*
X105751333Y-77974000D01*
X105784666Y-77907333D01*
X105784666Y-77340666D01*
X106084666Y-77407333D02*
X106118000Y-77374000D01*
X106184666Y-77340666D01*
X106351333Y-77340666D01*
X106418000Y-77374000D01*
X106451333Y-77407333D01*
X106484666Y-77474000D01*
X106484666Y-77540666D01*
X106451333Y-77640666D01*
X106051333Y-78040666D01*
X106484666Y-78040666D01*
%TO.C,R4*%
X134630333Y-77151666D02*
X134397000Y-76818333D01*
X134230333Y-77151666D02*
X134230333Y-76451666D01*
X134497000Y-76451666D01*
X134563666Y-76485000D01*
X134597000Y-76518333D01*
X134630333Y-76585000D01*
X134630333Y-76685000D01*
X134597000Y-76751666D01*
X134563666Y-76785000D01*
X134497000Y-76818333D01*
X134230333Y-76818333D01*
X135230333Y-76685000D02*
X135230333Y-77151666D01*
X135063666Y-76418333D02*
X134897000Y-76918333D01*
X135330333Y-76918333D01*
%TO.C,J6*%
X101851666Y-91673333D02*
X102351666Y-91673333D01*
X102451666Y-91706666D01*
X102518333Y-91773333D01*
X102551666Y-91873333D01*
X102551666Y-91940000D01*
X101851666Y-91040000D02*
X101851666Y-91173333D01*
X101885000Y-91240000D01*
X101918333Y-91273333D01*
X102018333Y-91340000D01*
X102151666Y-91373333D01*
X102418333Y-91373333D01*
X102485000Y-91340000D01*
X102518333Y-91306666D01*
X102551666Y-91240000D01*
X102551666Y-91106666D01*
X102518333Y-91040000D01*
X102485000Y-91006666D01*
X102418333Y-90973333D01*
X102251666Y-90973333D01*
X102185000Y-91006666D01*
X102151666Y-91040000D01*
X102118333Y-91106666D01*
X102118333Y-91240000D01*
X102151666Y-91306666D01*
X102185000Y-91340000D01*
X102251666Y-91373333D01*
%TO.C,C3*%
X142123333Y-87245000D02*
X142090000Y-87278333D01*
X141990000Y-87311666D01*
X141923333Y-87311666D01*
X141823333Y-87278333D01*
X141756666Y-87211666D01*
X141723333Y-87145000D01*
X141690000Y-87011666D01*
X141690000Y-86911666D01*
X141723333Y-86778333D01*
X141756666Y-86711666D01*
X141823333Y-86645000D01*
X141923333Y-86611666D01*
X141990000Y-86611666D01*
X142090000Y-86645000D01*
X142123333Y-86678333D01*
X142356666Y-86611666D02*
X142790000Y-86611666D01*
X142556666Y-86878333D01*
X142656666Y-86878333D01*
X142723333Y-86911666D01*
X142756666Y-86945000D01*
X142790000Y-87011666D01*
X142790000Y-87178333D01*
X142756666Y-87245000D01*
X142723333Y-87278333D01*
X142656666Y-87311666D01*
X142456666Y-87311666D01*
X142390000Y-87278333D01*
X142356666Y-87245000D01*
%TO.C,C1*%
X139837333Y-85975000D02*
X139804000Y-86008333D01*
X139704000Y-86041666D01*
X139637333Y-86041666D01*
X139537333Y-86008333D01*
X139470666Y-85941666D01*
X139437333Y-85875000D01*
X139404000Y-85741666D01*
X139404000Y-85641666D01*
X139437333Y-85508333D01*
X139470666Y-85441666D01*
X139537333Y-85375000D01*
X139637333Y-85341666D01*
X139704000Y-85341666D01*
X139804000Y-85375000D01*
X139837333Y-85408333D01*
X140504000Y-86041666D02*
X140104000Y-86041666D01*
X140304000Y-86041666D02*
X140304000Y-85341666D01*
X140237333Y-85441666D01*
X140170666Y-85508333D01*
X140104000Y-85541666D01*
%TO.C,J1*%
X121051666Y-80515666D02*
X121051666Y-81015666D01*
X121018333Y-81115666D01*
X120951666Y-81182333D01*
X120851666Y-81215666D01*
X120785000Y-81215666D01*
X121751666Y-81215666D02*
X121351666Y-81215666D01*
X121551666Y-81215666D02*
X121551666Y-80515666D01*
X121485000Y-80615666D01*
X121418333Y-80682333D01*
X121351666Y-80715666D01*
%TO.C,C10*%
X139504000Y-81022000D02*
X139470666Y-81055333D01*
X139370666Y-81088666D01*
X139304000Y-81088666D01*
X139204000Y-81055333D01*
X139137333Y-80988666D01*
X139104000Y-80922000D01*
X139070666Y-80788666D01*
X139070666Y-80688666D01*
X139104000Y-80555333D01*
X139137333Y-80488666D01*
X139204000Y-80422000D01*
X139304000Y-80388666D01*
X139370666Y-80388666D01*
X139470666Y-80422000D01*
X139504000Y-80455333D01*
X140170666Y-81088666D02*
X139770666Y-81088666D01*
X139970666Y-81088666D02*
X139970666Y-80388666D01*
X139904000Y-80488666D01*
X139837333Y-80555333D01*
X139770666Y-80588666D01*
X140604000Y-80388666D02*
X140670666Y-80388666D01*
X140737333Y-80422000D01*
X140770666Y-80455333D01*
X140804000Y-80522000D01*
X140837333Y-80655333D01*
X140837333Y-80822000D01*
X140804000Y-80955333D01*
X140770666Y-81022000D01*
X140737333Y-81055333D01*
X140670666Y-81088666D01*
X140604000Y-81088666D01*
X140537333Y-81055333D01*
X140504000Y-81022000D01*
X140470666Y-80955333D01*
X140437333Y-80822000D01*
X140437333Y-80655333D01*
X140470666Y-80522000D01*
X140504000Y-80455333D01*
X140537333Y-80422000D01*
X140604000Y-80388666D01*
%TO.C,C11*%
X114125000Y-87118000D02*
X114091666Y-87151333D01*
X113991666Y-87184666D01*
X113925000Y-87184666D01*
X113825000Y-87151333D01*
X113758333Y-87084666D01*
X113725000Y-87018000D01*
X113691666Y-86884666D01*
X113691666Y-86784666D01*
X113725000Y-86651333D01*
X113758333Y-86584666D01*
X113825000Y-86518000D01*
X113925000Y-86484666D01*
X113991666Y-86484666D01*
X114091666Y-86518000D01*
X114125000Y-86551333D01*
X114791666Y-87184666D02*
X114391666Y-87184666D01*
X114591666Y-87184666D02*
X114591666Y-86484666D01*
X114525000Y-86584666D01*
X114458333Y-86651333D01*
X114391666Y-86684666D01*
X115458333Y-87184666D02*
X115058333Y-87184666D01*
X115258333Y-87184666D02*
X115258333Y-86484666D01*
X115191666Y-86584666D01*
X115125000Y-86651333D01*
X115058333Y-86684666D01*
%TO.C,L1*%
X131074333Y-84644666D02*
X130741000Y-84644666D01*
X130741000Y-83944666D01*
X131674333Y-84644666D02*
X131274333Y-84644666D01*
X131474333Y-84644666D02*
X131474333Y-83944666D01*
X131407666Y-84044666D01*
X131341000Y-84111333D01*
X131274333Y-84144666D01*
%TO.C,J2*%
X151381666Y-87863333D02*
X151881666Y-87863333D01*
X151981666Y-87896666D01*
X152048333Y-87963333D01*
X152081666Y-88063333D01*
X152081666Y-88130000D01*
X151448333Y-87563333D02*
X151415000Y-87530000D01*
X151381666Y-87463333D01*
X151381666Y-87296666D01*
X151415000Y-87230000D01*
X151448333Y-87196666D01*
X151515000Y-87163333D01*
X151581666Y-87163333D01*
X151681666Y-87196666D01*
X152081666Y-87596666D01*
X152081666Y-87163333D01*
%TO.C,C6*%
X137678333Y-87499000D02*
X137645000Y-87532333D01*
X137545000Y-87565666D01*
X137478333Y-87565666D01*
X137378333Y-87532333D01*
X137311666Y-87465666D01*
X137278333Y-87399000D01*
X137245000Y-87265666D01*
X137245000Y-87165666D01*
X137278333Y-87032333D01*
X137311666Y-86965666D01*
X137378333Y-86899000D01*
X137478333Y-86865666D01*
X137545000Y-86865666D01*
X137645000Y-86899000D01*
X137678333Y-86932333D01*
X138278333Y-86865666D02*
X138145000Y-86865666D01*
X138078333Y-86899000D01*
X138045000Y-86932333D01*
X137978333Y-87032333D01*
X137945000Y-87165666D01*
X137945000Y-87432333D01*
X137978333Y-87499000D01*
X138011666Y-87532333D01*
X138078333Y-87565666D01*
X138211666Y-87565666D01*
X138278333Y-87532333D01*
X138311666Y-87499000D01*
X138345000Y-87432333D01*
X138345000Y-87265666D01*
X138311666Y-87199000D01*
X138278333Y-87165666D01*
X138211666Y-87132333D01*
X138078333Y-87132333D01*
X138011666Y-87165666D01*
X137978333Y-87199000D01*
X137945000Y-87265666D01*
%TO.C,J5*%
X101851666Y-87736333D02*
X102351666Y-87736333D01*
X102451666Y-87769666D01*
X102518333Y-87836333D01*
X102551666Y-87936333D01*
X102551666Y-88003000D01*
X101851666Y-87069666D02*
X101851666Y-87403000D01*
X102185000Y-87436333D01*
X102151666Y-87403000D01*
X102118333Y-87336333D01*
X102118333Y-87169666D01*
X102151666Y-87103000D01*
X102185000Y-87069666D01*
X102251666Y-87036333D01*
X102418333Y-87036333D01*
X102485000Y-87069666D01*
X102518333Y-87103000D01*
X102551666Y-87169666D01*
X102551666Y-87336333D01*
X102518333Y-87403000D01*
X102485000Y-87436333D01*
%TO.C,C8*%
X112024333Y-87196000D02*
X111991000Y-87229333D01*
X111891000Y-87262666D01*
X111824333Y-87262666D01*
X111724333Y-87229333D01*
X111657666Y-87162666D01*
X111624333Y-87096000D01*
X111591000Y-86962666D01*
X111591000Y-86862666D01*
X111624333Y-86729333D01*
X111657666Y-86662666D01*
X111724333Y-86596000D01*
X111824333Y-86562666D01*
X111891000Y-86562666D01*
X111991000Y-86596000D01*
X112024333Y-86629333D01*
X112424333Y-86862666D02*
X112357666Y-86829333D01*
X112324333Y-86796000D01*
X112291000Y-86729333D01*
X112291000Y-86696000D01*
X112324333Y-86629333D01*
X112357666Y-86596000D01*
X112424333Y-86562666D01*
X112557666Y-86562666D01*
X112624333Y-86596000D01*
X112657666Y-86629333D01*
X112691000Y-86696000D01*
X112691000Y-86729333D01*
X112657666Y-86796000D01*
X112624333Y-86829333D01*
X112557666Y-86862666D01*
X112424333Y-86862666D01*
X112357666Y-86896000D01*
X112324333Y-86929333D01*
X112291000Y-86996000D01*
X112291000Y-87129333D01*
X112324333Y-87196000D01*
X112357666Y-87229333D01*
X112424333Y-87262666D01*
X112557666Y-87262666D01*
X112624333Y-87229333D01*
X112657666Y-87196000D01*
X112691000Y-87129333D01*
X112691000Y-86996000D01*
X112657666Y-86929333D01*
X112624333Y-86896000D01*
X112557666Y-86862666D01*
%TO.C,U1*%
X147548666Y-85087666D02*
X147548666Y-85654333D01*
X147582000Y-85721000D01*
X147615333Y-85754333D01*
X147682000Y-85787666D01*
X147815333Y-85787666D01*
X147882000Y-85754333D01*
X147915333Y-85721000D01*
X147948666Y-85654333D01*
X147948666Y-85087666D01*
X148648666Y-85787666D02*
X148248666Y-85787666D01*
X148448666Y-85787666D02*
X148448666Y-85087666D01*
X148382000Y-85187666D01*
X148315333Y-85254333D01*
X148248666Y-85287666D01*
%TO.C,C7*%
X143774333Y-77720000D02*
X143741000Y-77753333D01*
X143641000Y-77786666D01*
X143574333Y-77786666D01*
X143474333Y-77753333D01*
X143407666Y-77686666D01*
X143374333Y-77620000D01*
X143341000Y-77486666D01*
X143341000Y-77386666D01*
X143374333Y-77253333D01*
X143407666Y-77186666D01*
X143474333Y-77120000D01*
X143574333Y-77086666D01*
X143641000Y-77086666D01*
X143741000Y-77120000D01*
X143774333Y-77153333D01*
X144007666Y-77086666D02*
X144474333Y-77086666D01*
X144174333Y-77786666D01*
%TO.C,C5*%
X126756333Y-84578000D02*
X126723000Y-84611333D01*
X126623000Y-84644666D01*
X126556333Y-84644666D01*
X126456333Y-84611333D01*
X126389666Y-84544666D01*
X126356333Y-84478000D01*
X126323000Y-84344666D01*
X126323000Y-84244666D01*
X126356333Y-84111333D01*
X126389666Y-84044666D01*
X126456333Y-83978000D01*
X126556333Y-83944666D01*
X126623000Y-83944666D01*
X126723000Y-83978000D01*
X126756333Y-84011333D01*
X127389666Y-83944666D02*
X127056333Y-83944666D01*
X127023000Y-84278000D01*
X127056333Y-84244666D01*
X127123000Y-84211333D01*
X127289666Y-84211333D01*
X127356333Y-84244666D01*
X127389666Y-84278000D01*
X127423000Y-84344666D01*
X127423000Y-84511333D01*
X127389666Y-84578000D01*
X127356333Y-84611333D01*
X127289666Y-84644666D01*
X127123000Y-84644666D01*
X127056333Y-84611333D01*
X127023000Y-84578000D01*
D11*
%TO.C,J3*%
X148590000Y-90110000D02*
X148590000Y-92770000D01*
X148590000Y-92770000D02*
X145990000Y-92770000D01*
X149860000Y-90110000D02*
X151190000Y-90110000D01*
X151190000Y-90110000D02*
X151190000Y-91440000D01*
X145990000Y-90110000D02*
X145990000Y-92770000D01*
X148590000Y-90110000D02*
X145990000Y-90110000D01*
%TO.C,D1*%
X120340000Y-80044000D02*
X120340000Y-77359000D01*
X118420000Y-77359000D02*
X118420000Y-80044000D01*
X118420000Y-80044000D02*
X120340000Y-80044000D01*
%TO.C,R2*%
X135281936Y-82523000D02*
X135736064Y-82523000D01*
X135281936Y-81053000D02*
X135736064Y-81053000D01*
%TO.C,C2*%
X113819000Y-79318748D02*
X113819000Y-79841252D01*
X115289000Y-79318748D02*
X115289000Y-79841252D01*
%TO.C,R1*%
X137768000Y-78766936D02*
X137768000Y-79221064D01*
X136298000Y-78766936D02*
X136298000Y-79221064D01*
%TO.C,C4*%
X111231000Y-78233748D02*
X111231000Y-79656252D01*
X113051000Y-78233748D02*
X113051000Y-79656252D01*
%TO.C,C9*%
X135310748Y-83164000D02*
X136733252Y-83164000D01*
X135310748Y-84984000D02*
X136733252Y-84984000D01*
%TO.C,J4*%
X145990000Y-93920000D02*
X145990000Y-96580000D01*
X151190000Y-93920000D02*
X151190000Y-95250000D01*
X148590000Y-93920000D02*
X148590000Y-96580000D01*
X149860000Y-93920000D02*
X151190000Y-93920000D01*
X148590000Y-96580000D02*
X145990000Y-96580000D01*
X148590000Y-93920000D02*
X145990000Y-93920000D01*
%TO.C,R3*%
X116359000Y-78131936D02*
X116359000Y-78586064D01*
X117829000Y-78131936D02*
X117829000Y-78586064D01*
%TO.C,J7*%
X105410000Y-96580000D02*
X102810000Y-96580000D01*
X108010000Y-93920000D02*
X108010000Y-95250000D01*
X102810000Y-93920000D02*
X102810000Y-96580000D01*
X105410000Y-93920000D02*
X105410000Y-96580000D01*
X106680000Y-93920000D02*
X108010000Y-93920000D01*
X105410000Y-93920000D02*
X102810000Y-93920000D01*
D12*
%TO.C,U2*%
X107647000Y-78411000D02*
X104147000Y-78411000D01*
X107647000Y-84911000D02*
X104147000Y-84911000D01*
X104147000Y-78411000D02*
X104147000Y-79651000D01*
X104147000Y-84911000D02*
X104147000Y-83671000D01*
D13*
X110597000Y-83961000D02*
G75*
G03*
X110597000Y-83961000I-100000J0D01*
G01*
D11*
%TO.C,R4*%
X135482000Y-78766936D02*
X135482000Y-79221064D01*
X134012000Y-78766936D02*
X134012000Y-79221064D01*
%TO.C,J6*%
X102810000Y-90110000D02*
X102810000Y-92770000D01*
X105410000Y-92770000D02*
X102810000Y-92770000D01*
X108010000Y-90110000D02*
X108010000Y-91440000D01*
X106680000Y-90110000D02*
X108010000Y-90110000D01*
X105410000Y-90110000D02*
X102810000Y-90110000D01*
X105410000Y-90110000D02*
X105410000Y-92770000D01*
%TO.C,C3*%
X141330000Y-84785252D02*
X141330000Y-83362748D01*
X143150000Y-84785252D02*
X143150000Y-83362748D01*
%TO.C,C1*%
X139219000Y-83700252D02*
X139219000Y-83177748D01*
X140689000Y-83700252D02*
X140689000Y-83177748D01*
%TO.C,J1*%
X131600000Y-81756900D02*
X131600000Y-80001900D01*
X131600000Y-78054400D02*
X131600000Y-76654400D01*
X122400000Y-81756900D02*
X122400000Y-80001900D01*
X122400000Y-78054400D02*
X122400000Y-76654400D01*
%TO.C,C10*%
X139219000Y-78874252D02*
X139219000Y-78351748D01*
X140689000Y-78874252D02*
X140689000Y-78351748D01*
%TO.C,C11*%
X115289000Y-84320748D02*
X115289000Y-84843252D01*
X113819000Y-84320748D02*
X113819000Y-84843252D01*
%TO.C,L1*%
X130355758Y-85196000D02*
X132026242Y-85196000D01*
X130355758Y-87016000D02*
X132026242Y-87016000D01*
%TO.C,J2*%
X145990000Y-86300000D02*
X145990000Y-88960000D01*
X149860000Y-86300000D02*
X151190000Y-86300000D01*
X151190000Y-86300000D02*
X151190000Y-87630000D01*
X148590000Y-86300000D02*
X148590000Y-88960000D01*
X148590000Y-86300000D02*
X145990000Y-86300000D01*
X148590000Y-88960000D02*
X145990000Y-88960000D01*
%TO.C,C6*%
X135125748Y-87095000D02*
X135648252Y-87095000D01*
X135125748Y-85625000D02*
X135648252Y-85625000D01*
%TO.C,J5*%
X108010000Y-86300000D02*
X108010000Y-87630000D01*
X102810000Y-86300000D02*
X102810000Y-88960000D01*
X105410000Y-86300000D02*
X102810000Y-86300000D01*
X105410000Y-86300000D02*
X105410000Y-88960000D01*
X105410000Y-88960000D02*
X102810000Y-88960000D01*
X106680000Y-86300000D02*
X108010000Y-86300000D01*
%TO.C,C8*%
X113051000Y-83313748D02*
X113051000Y-84736252D01*
X111231000Y-83313748D02*
X111231000Y-84736252D01*
D12*
%TO.C,U1*%
X149832000Y-78030000D02*
X149832000Y-79270000D01*
X149832000Y-84530000D02*
X149832000Y-83290000D01*
X146332000Y-84530000D02*
X149832000Y-84530000D01*
X146332000Y-78030000D02*
X149832000Y-78030000D01*
D13*
X143582000Y-78980000D02*
G75*
G03*
X143582000Y-78980000I-100000J0D01*
G01*
D11*
%TO.C,C7*%
X141330000Y-79959252D02*
X141330000Y-78536748D01*
X143150000Y-79959252D02*
X143150000Y-78536748D01*
%TO.C,C5*%
X127134252Y-86587000D02*
X126611748Y-86587000D01*
X127134252Y-85117000D02*
X126611748Y-85117000D01*
%TD*%
M02*
