%TF.GenerationSoftware,KiCad,Pcbnew,8.0.4*%
%TF.CreationDate,2024-09-02T19:59:55-06:00*%
%TF.ProjectId,Breadboard Power Supply,42726561-6462-46f6-9172-6420506f7765,v1*%
%TF.SameCoordinates,Original*%
%TF.FileFunction,Copper,L4,Bot*%
%TF.FilePolarity,Positive*%
%FSLAX46Y46*%
G04 Gerber Fmt 4.6, Leading zero omitted, Abs format (unit mm)*
G04 Created by KiCad (PCBNEW 8.0.4) date 2024-09-02 19:59:55*
%MOMM*%
%LPD*%
G01*
G04 APERTURE LIST*
%ADD10C,0.080000*%
%TA.AperFunction,NonConductor*%
%ADD11C,0.080000*%
%TD*%
%TA.AperFunction,ComponentPad*%
%ADD12R,1.700000X1.700000*%
%TD*%
%TA.AperFunction,ComponentPad*%
%ADD13O,1.700000X1.700000*%
%TD*%
%TA.AperFunction,ComponentPad*%
%ADD14C,1.450000*%
%TD*%
%TA.AperFunction,ComponentPad*%
%ADD15C,1.830000*%
%TD*%
%TA.AperFunction,ViaPad*%
%ADD16C,0.800000*%
%TD*%
%TA.AperFunction,Conductor*%
%ADD17C,0.750000*%
%TD*%
G04 APERTURE END LIST*
D10*
D11*
X153908142Y-76300149D02*
X154193856Y-76300149D01*
X154050999Y-76300149D02*
X154050999Y-75800149D01*
X154050999Y-75800149D02*
X154098618Y-75871578D01*
X154098618Y-75871578D02*
X154146237Y-75919197D01*
X154146237Y-75919197D02*
X154193856Y-75943006D01*
D12*
%TO.P,J4,1,Pin_1*%
%TO.N,+1V8*%
X151130000Y-87630000D03*
D13*
%TO.P,J4,2,Pin_2*%
%TO.N,/TOP_POWER_RAIL*%
X153670000Y-87630000D03*
%TO.P,J4,3,Pin_3*%
%TO.N,+3.3V*%
X151130000Y-90170000D03*
%TO.P,J4,4,Pin_4*%
%TO.N,/TOP_POWER_RAIL*%
X153670000Y-90170000D03*
%TO.P,J4,5,Pin_5*%
%TO.N,VBUS*%
X151130000Y-92710000D03*
%TO.P,J4,6,Pin_6*%
%TO.N,/TOP_POWER_RAIL*%
X153670000Y-92710000D03*
%TO.P,J4,7,Pin_7*%
%TO.N,+12V*%
X151130000Y-95250000D03*
%TO.P,J4,8,Pin_8*%
%TO.N,/TOP_POWER_RAIL*%
X153670000Y-95250000D03*
%TD*%
D12*
%TO.P,J5,1,Pin_1*%
%TO.N,/BOTTOM_POWER_RAIL*%
X102870000Y-87630000D03*
D13*
%TO.P,J5,2,Pin_2*%
%TO.N,+1V8*%
X105410000Y-87630000D03*
%TO.P,J5,3,Pin_3*%
%TO.N,/BOTTOM_POWER_RAIL*%
X102870000Y-90170000D03*
%TO.P,J5,4,Pin_4*%
%TO.N,+3.3V*%
X105410000Y-90170000D03*
%TO.P,J5,5,Pin_5*%
%TO.N,/BOTTOM_POWER_RAIL*%
X102870000Y-92710000D03*
%TO.P,J5,6,Pin_6*%
%TO.N,VBUS*%
X105410000Y-92710000D03*
%TO.P,J5,7,Pin_7*%
%TO.N,/BOTTOM_POWER_RAIL*%
X102870000Y-95250000D03*
%TO.P,J5,8,Pin_8*%
%TO.N,+12V*%
X105410000Y-95250000D03*
%TD*%
D14*
%TO.P,J1,MH1,MH1*%
%TO.N,GND*%
X132592000Y-77974000D03*
%TO.P,J1,MH2,MH2*%
X123952000Y-77974000D03*
%TO.P,J1,MH3,MH3*%
X132592000Y-81774000D03*
%TO.P,J1,MH4,MH4*%
X123952000Y-81774000D03*
%TD*%
D15*
%TO.P,TP1,1,1*%
%TO.N,GND*%
X103759000Y-102638000D03*
%TO.P,TP1,2,2*%
X108839000Y-102638000D03*
%TD*%
%TO.P,TP4,1,1*%
%TO.N,GND*%
X147701000Y-102638000D03*
%TO.P,TP4,2,2*%
X152781000Y-102638000D03*
%TD*%
D12*
%TO.P,J10,1,Pin_1*%
%TO.N,GND*%
X114300000Y-78740000D03*
D13*
%TO.P,J10,2,Pin_2*%
X114300000Y-81280000D03*
%TD*%
D12*
%TO.P,J8,1,Pin_1*%
%TO.N,/TOP_POWER_RAIL*%
X152082500Y-99060000D03*
D13*
%TO.P,J8,2,Pin_2*%
%TO.N,GND*%
X149542500Y-99060000D03*
%TD*%
D12*
%TO.P,J11,1,Pin_1*%
%TO.N,GND*%
X142240000Y-78740000D03*
D13*
%TO.P,J11,2,Pin_2*%
X142240000Y-81280000D03*
%TD*%
D12*
%TO.P,J9,1,Pin_1*%
%TO.N,/BOTTOM_POWER_RAIL*%
X106997500Y-99060000D03*
D13*
%TO.P,J9,2,Pin_2*%
%TO.N,GND*%
X104457500Y-99060000D03*
%TD*%
D16*
%TO.N,GND*%
X154559000Y-83693000D03*
X139573000Y-76835000D03*
X149328930Y-85113070D03*
X144145000Y-84201000D03*
X119507000Y-83947000D03*
X115064915Y-84842832D03*
X103251000Y-85217000D03*
X134461000Y-76105000D03*
X129921000Y-85471000D03*
X106807000Y-85217000D03*
X126619000Y-85471000D03*
X117729000Y-76667000D03*
%TO.N,+3.3V*%
X147447000Y-85217000D03*
X144653000Y-78613000D03*
X154559000Y-78867000D03*
%TO.N,+1V8*%
X111887000Y-77302000D03*
X131953000Y-80249000D03*
X101981000Y-78867000D03*
X121793000Y-77343000D03*
X102489000Y-82677000D03*
%TO.N,+12V*%
X116459000Y-79121000D03*
X122301000Y-80645000D03*
X115443000Y-83693000D03*
%TO.N,VBUS*%
X134747000Y-82677000D03*
X129921000Y-80645000D03*
X121793000Y-83693000D03*
X111633000Y-76327000D03*
X121539000Y-76073000D03*
X134747000Y-78105000D03*
X126619000Y-80645000D03*
%TD*%
D17*
%TO.N,+3.3V*%
X143355000Y-77315000D02*
X144653000Y-78613000D01*
X109159000Y-84823497D02*
X111277497Y-82705000D01*
X138856000Y-79274000D02*
X140815000Y-77315000D01*
X140815000Y-77315000D02*
X143355000Y-77315000D01*
X105410000Y-90170000D02*
X109159000Y-86421000D01*
X118862141Y-82705000D02*
X122293141Y-79274000D01*
X111277497Y-82705000D02*
X118862141Y-82705000D01*
X122293141Y-79274000D02*
X138856000Y-79274000D01*
X109159000Y-86421000D02*
X109159000Y-84823497D01*
%TO.N,+1V8*%
X121793000Y-77343000D02*
X121494000Y-77642000D01*
X133756000Y-80249000D02*
X131953000Y-80249000D01*
X116052000Y-77642000D02*
X115712000Y-77302000D01*
X148299719Y-82705000D02*
X136212000Y-82705000D01*
X136212000Y-82705000D02*
X133756000Y-80249000D01*
X115712000Y-77302000D02*
X111887000Y-77302000D01*
X151130000Y-85535281D02*
X148299719Y-82705000D01*
X151130000Y-87630000D02*
X151130000Y-85535281D01*
X121494000Y-77642000D02*
X116052000Y-77642000D01*
%TO.N,+12V*%
X145826000Y-85176000D02*
X131150000Y-85176000D01*
X111633000Y-83693000D02*
X115443000Y-83693000D01*
X131150000Y-85176000D02*
X129048000Y-83074000D01*
X129048000Y-83074000D02*
X127090478Y-83074000D01*
X124490478Y-80474000D02*
X122472000Y-80474000D01*
X127090478Y-83074000D02*
X124490478Y-80474000D01*
X149705000Y-89055000D02*
X145826000Y-85176000D01*
X105410000Y-95250000D02*
X110109000Y-90551000D01*
X149705000Y-93825000D02*
X149705000Y-89055000D01*
X110109000Y-85217000D02*
X111633000Y-83693000D01*
X122472000Y-80474000D02*
X122301000Y-80645000D01*
X110109000Y-90551000D02*
X110109000Y-85217000D01*
X151130000Y-95250000D02*
X149705000Y-93825000D01*
%TO.N,VBUS*%
X114737000Y-76271000D02*
X114737000Y-76327000D01*
X115316000Y-75692000D02*
X114737000Y-76271000D01*
X121539000Y-76073000D02*
X121158000Y-75692000D01*
X114737000Y-76327000D02*
X111633000Y-76327000D01*
X121158000Y-75692000D02*
X115316000Y-75692000D01*
%TD*%
M02*
