%TF.GenerationSoftware,KiCad,Pcbnew,(7.0.0-0)*%
%TF.CreationDate,2023-04-13T19:26:27-06:00*%
%TF.ProjectId,Breadboard Power Supply,42726561-6462-46f6-9172-6420506f7765,v4*%
%TF.SameCoordinates,Original*%
%TF.FileFunction,Legend,Bot*%
%TF.FilePolarity,Positive*%
%FSLAX46Y46*%
G04 Gerber Fmt 4.6, Leading zero omitted, Abs format (unit mm)*
G04 Created by KiCad (PCBNEW (7.0.0-0)) date 2023-04-13 19:26:27*
%MOMM*%
%LPD*%
G01*
G04 APERTURE LIST*
%ADD10C,0.300000*%
%ADD11C,0.100000*%
%ADD12C,0.120000*%
G04 APERTURE END LIST*
D10*
X113390571Y-78512071D02*
X113390571Y-77012071D01*
X113390571Y-77012071D02*
X113033428Y-77012071D01*
X113033428Y-77012071D02*
X112819142Y-77083500D01*
X112819142Y-77083500D02*
X112676285Y-77226357D01*
X112676285Y-77226357D02*
X112604856Y-77369214D01*
X112604856Y-77369214D02*
X112533428Y-77654928D01*
X112533428Y-77654928D02*
X112533428Y-77869214D01*
X112533428Y-77869214D02*
X112604856Y-78154928D01*
X112604856Y-78154928D02*
X112676285Y-78297785D01*
X112676285Y-78297785D02*
X112819142Y-78440642D01*
X112819142Y-78440642D02*
X113033428Y-78512071D01*
X113033428Y-78512071D02*
X113390571Y-78512071D01*
X111319142Y-78440642D02*
X111461999Y-78512071D01*
X111461999Y-78512071D02*
X111747714Y-78512071D01*
X111747714Y-78512071D02*
X111890571Y-78440642D01*
X111890571Y-78440642D02*
X111961999Y-78297785D01*
X111961999Y-78297785D02*
X111961999Y-77726357D01*
X111961999Y-77726357D02*
X111890571Y-77583500D01*
X111890571Y-77583500D02*
X111747714Y-77512071D01*
X111747714Y-77512071D02*
X111461999Y-77512071D01*
X111461999Y-77512071D02*
X111319142Y-77583500D01*
X111319142Y-77583500D02*
X111247714Y-77726357D01*
X111247714Y-77726357D02*
X111247714Y-77869214D01*
X111247714Y-77869214D02*
X111961999Y-78012071D01*
X110676285Y-78440642D02*
X110533428Y-78512071D01*
X110533428Y-78512071D02*
X110247714Y-78512071D01*
X110247714Y-78512071D02*
X110104857Y-78440642D01*
X110104857Y-78440642D02*
X110033428Y-78297785D01*
X110033428Y-78297785D02*
X110033428Y-78226357D01*
X110033428Y-78226357D02*
X110104857Y-78083500D01*
X110104857Y-78083500D02*
X110247714Y-78012071D01*
X110247714Y-78012071D02*
X110462000Y-78012071D01*
X110462000Y-78012071D02*
X110604857Y-77940642D01*
X110604857Y-77940642D02*
X110676285Y-77797785D01*
X110676285Y-77797785D02*
X110676285Y-77726357D01*
X110676285Y-77726357D02*
X110604857Y-77583500D01*
X110604857Y-77583500D02*
X110462000Y-77512071D01*
X110462000Y-77512071D02*
X110247714Y-77512071D01*
X110247714Y-77512071D02*
X110104857Y-77583500D01*
X109390571Y-78512071D02*
X109390571Y-77512071D01*
X109390571Y-77012071D02*
X109461999Y-77083500D01*
X109461999Y-77083500D02*
X109390571Y-77154928D01*
X109390571Y-77154928D02*
X109319142Y-77083500D01*
X109319142Y-77083500D02*
X109390571Y-77012071D01*
X109390571Y-77012071D02*
X109390571Y-77154928D01*
X108033428Y-77512071D02*
X108033428Y-78726357D01*
X108033428Y-78726357D02*
X108104856Y-78869214D01*
X108104856Y-78869214D02*
X108176285Y-78940642D01*
X108176285Y-78940642D02*
X108319142Y-79012071D01*
X108319142Y-79012071D02*
X108533428Y-79012071D01*
X108533428Y-79012071D02*
X108676285Y-78940642D01*
X108033428Y-78440642D02*
X108176285Y-78512071D01*
X108176285Y-78512071D02*
X108461999Y-78512071D01*
X108461999Y-78512071D02*
X108604856Y-78440642D01*
X108604856Y-78440642D02*
X108676285Y-78369214D01*
X108676285Y-78369214D02*
X108747713Y-78226357D01*
X108747713Y-78226357D02*
X108747713Y-77797785D01*
X108747713Y-77797785D02*
X108676285Y-77654928D01*
X108676285Y-77654928D02*
X108604856Y-77583500D01*
X108604856Y-77583500D02*
X108461999Y-77512071D01*
X108461999Y-77512071D02*
X108176285Y-77512071D01*
X108176285Y-77512071D02*
X108033428Y-77583500D01*
X107319142Y-77512071D02*
X107319142Y-78512071D01*
X107319142Y-77654928D02*
X107247713Y-77583500D01*
X107247713Y-77583500D02*
X107104856Y-77512071D01*
X107104856Y-77512071D02*
X106890570Y-77512071D01*
X106890570Y-77512071D02*
X106747713Y-77583500D01*
X106747713Y-77583500D02*
X106676285Y-77726357D01*
X106676285Y-77726357D02*
X106676285Y-78512071D01*
X105390570Y-78440642D02*
X105533427Y-78512071D01*
X105533427Y-78512071D02*
X105819142Y-78512071D01*
X105819142Y-78512071D02*
X105961999Y-78440642D01*
X105961999Y-78440642D02*
X106033427Y-78297785D01*
X106033427Y-78297785D02*
X106033427Y-77726357D01*
X106033427Y-77726357D02*
X105961999Y-77583500D01*
X105961999Y-77583500D02*
X105819142Y-77512071D01*
X105819142Y-77512071D02*
X105533427Y-77512071D01*
X105533427Y-77512071D02*
X105390570Y-77583500D01*
X105390570Y-77583500D02*
X105319142Y-77726357D01*
X105319142Y-77726357D02*
X105319142Y-77869214D01*
X105319142Y-77869214D02*
X106033427Y-78012071D01*
X104033428Y-78512071D02*
X104033428Y-77012071D01*
X104033428Y-78440642D02*
X104176285Y-78512071D01*
X104176285Y-78512071D02*
X104461999Y-78512071D01*
X104461999Y-78512071D02*
X104604856Y-78440642D01*
X104604856Y-78440642D02*
X104676285Y-78369214D01*
X104676285Y-78369214D02*
X104747713Y-78226357D01*
X104747713Y-78226357D02*
X104747713Y-77797785D01*
X104747713Y-77797785D02*
X104676285Y-77654928D01*
X104676285Y-77654928D02*
X104604856Y-77583500D01*
X104604856Y-77583500D02*
X104461999Y-77512071D01*
X104461999Y-77512071D02*
X104176285Y-77512071D01*
X104176285Y-77512071D02*
X104033428Y-77583500D01*
X109604857Y-80942071D02*
X109604857Y-79442071D01*
X109604857Y-80013500D02*
X109462000Y-79942071D01*
X109462000Y-79942071D02*
X109176285Y-79942071D01*
X109176285Y-79942071D02*
X109033428Y-80013500D01*
X109033428Y-80013500D02*
X108962000Y-80084928D01*
X108962000Y-80084928D02*
X108890571Y-80227785D01*
X108890571Y-80227785D02*
X108890571Y-80656357D01*
X108890571Y-80656357D02*
X108962000Y-80799214D01*
X108962000Y-80799214D02*
X109033428Y-80870642D01*
X109033428Y-80870642D02*
X109176285Y-80942071D01*
X109176285Y-80942071D02*
X109462000Y-80942071D01*
X109462000Y-80942071D02*
X109604857Y-80870642D01*
X108390571Y-79942071D02*
X108033428Y-80942071D01*
X107676285Y-79942071D02*
X108033428Y-80942071D01*
X108033428Y-80942071D02*
X108176285Y-81299214D01*
X108176285Y-81299214D02*
X108247714Y-81370642D01*
X108247714Y-81370642D02*
X108390571Y-81442071D01*
X113840570Y-81872071D02*
X112983428Y-81872071D01*
X113411999Y-83372071D02*
X113411999Y-81872071D01*
X112483428Y-83372071D02*
X112483428Y-82372071D01*
X112483428Y-81872071D02*
X112554856Y-81943500D01*
X112554856Y-81943500D02*
X112483428Y-82014928D01*
X112483428Y-82014928D02*
X112411999Y-81943500D01*
X112411999Y-81943500D02*
X112483428Y-81872071D01*
X112483428Y-81872071D02*
X112483428Y-82014928D01*
X111769142Y-83372071D02*
X111769142Y-82372071D01*
X111769142Y-82514928D02*
X111697713Y-82443500D01*
X111697713Y-82443500D02*
X111554856Y-82372071D01*
X111554856Y-82372071D02*
X111340570Y-82372071D01*
X111340570Y-82372071D02*
X111197713Y-82443500D01*
X111197713Y-82443500D02*
X111126285Y-82586357D01*
X111126285Y-82586357D02*
X111126285Y-83372071D01*
X111126285Y-82586357D02*
X111054856Y-82443500D01*
X111054856Y-82443500D02*
X110911999Y-82372071D01*
X110911999Y-82372071D02*
X110697713Y-82372071D01*
X110697713Y-82372071D02*
X110554856Y-82443500D01*
X110554856Y-82443500D02*
X110483427Y-82586357D01*
X110483427Y-82586357D02*
X110483427Y-83372071D01*
X108940570Y-83300642D02*
X108726285Y-83372071D01*
X108726285Y-83372071D02*
X108369142Y-83372071D01*
X108369142Y-83372071D02*
X108226285Y-83300642D01*
X108226285Y-83300642D02*
X108154856Y-83229214D01*
X108154856Y-83229214D02*
X108083427Y-83086357D01*
X108083427Y-83086357D02*
X108083427Y-82943500D01*
X108083427Y-82943500D02*
X108154856Y-82800642D01*
X108154856Y-82800642D02*
X108226285Y-82729214D01*
X108226285Y-82729214D02*
X108369142Y-82657785D01*
X108369142Y-82657785D02*
X108654856Y-82586357D01*
X108654856Y-82586357D02*
X108797713Y-82514928D01*
X108797713Y-82514928D02*
X108869142Y-82443500D01*
X108869142Y-82443500D02*
X108940570Y-82300642D01*
X108940570Y-82300642D02*
X108940570Y-82157785D01*
X108940570Y-82157785D02*
X108869142Y-82014928D01*
X108869142Y-82014928D02*
X108797713Y-81943500D01*
X108797713Y-81943500D02*
X108654856Y-81872071D01*
X108654856Y-81872071D02*
X108297713Y-81872071D01*
X108297713Y-81872071D02*
X108083427Y-81943500D01*
X107654856Y-82372071D02*
X107083428Y-82372071D01*
X107440571Y-81872071D02*
X107440571Y-83157785D01*
X107440571Y-83157785D02*
X107369142Y-83300642D01*
X107369142Y-83300642D02*
X107226285Y-83372071D01*
X107226285Y-83372071D02*
X107083428Y-83372071D01*
X106583428Y-83372071D02*
X106583428Y-82372071D01*
X106583428Y-81872071D02*
X106654856Y-81943500D01*
X106654856Y-81943500D02*
X106583428Y-82014928D01*
X106583428Y-82014928D02*
X106511999Y-81943500D01*
X106511999Y-81943500D02*
X106583428Y-81872071D01*
X106583428Y-81872071D02*
X106583428Y-82014928D01*
X105654856Y-83372071D02*
X105797713Y-83300642D01*
X105797713Y-83300642D02*
X105869142Y-83157785D01*
X105869142Y-83157785D02*
X105869142Y-81872071D01*
X104869142Y-83372071D02*
X105011999Y-83300642D01*
X105011999Y-83300642D02*
X105083428Y-83157785D01*
X105083428Y-83157785D02*
X105083428Y-81872071D01*
X104369142Y-83300642D02*
X104226285Y-83372071D01*
X104226285Y-83372071D02*
X103940571Y-83372071D01*
X103940571Y-83372071D02*
X103797714Y-83300642D01*
X103797714Y-83300642D02*
X103726285Y-83157785D01*
X103726285Y-83157785D02*
X103726285Y-83086357D01*
X103726285Y-83086357D02*
X103797714Y-82943500D01*
X103797714Y-82943500D02*
X103940571Y-82872071D01*
X103940571Y-82872071D02*
X104154857Y-82872071D01*
X104154857Y-82872071D02*
X104297714Y-82800642D01*
X104297714Y-82800642D02*
X104369142Y-82657785D01*
X104369142Y-82657785D02*
X104369142Y-82586357D01*
X104369142Y-82586357D02*
X104297714Y-82443500D01*
X104297714Y-82443500D02*
X104154857Y-82372071D01*
X104154857Y-82372071D02*
X103940571Y-82372071D01*
X103940571Y-82372071D02*
X103797714Y-82443500D01*
X153490714Y-77980357D02*
X153276428Y-78051785D01*
X153276428Y-78051785D02*
X153204999Y-78123214D01*
X153204999Y-78123214D02*
X153133571Y-78266071D01*
X153133571Y-78266071D02*
X153133571Y-78480357D01*
X153133571Y-78480357D02*
X153204999Y-78623214D01*
X153204999Y-78623214D02*
X153276428Y-78694642D01*
X153276428Y-78694642D02*
X153419285Y-78766071D01*
X153419285Y-78766071D02*
X153990714Y-78766071D01*
X153990714Y-78766071D02*
X153990714Y-77266071D01*
X153990714Y-77266071D02*
X153490714Y-77266071D01*
X153490714Y-77266071D02*
X153347857Y-77337500D01*
X153347857Y-77337500D02*
X153276428Y-77408928D01*
X153276428Y-77408928D02*
X153204999Y-77551785D01*
X153204999Y-77551785D02*
X153204999Y-77694642D01*
X153204999Y-77694642D02*
X153276428Y-77837500D01*
X153276428Y-77837500D02*
X153347857Y-77908928D01*
X153347857Y-77908928D02*
X153490714Y-77980357D01*
X153490714Y-77980357D02*
X153990714Y-77980357D01*
X152490714Y-78766071D02*
X152490714Y-77766071D01*
X152490714Y-78051785D02*
X152419285Y-77908928D01*
X152419285Y-77908928D02*
X152347857Y-77837500D01*
X152347857Y-77837500D02*
X152204999Y-77766071D01*
X152204999Y-77766071D02*
X152062142Y-77766071D01*
X150990714Y-78694642D02*
X151133571Y-78766071D01*
X151133571Y-78766071D02*
X151419286Y-78766071D01*
X151419286Y-78766071D02*
X151562143Y-78694642D01*
X151562143Y-78694642D02*
X151633571Y-78551785D01*
X151633571Y-78551785D02*
X151633571Y-77980357D01*
X151633571Y-77980357D02*
X151562143Y-77837500D01*
X151562143Y-77837500D02*
X151419286Y-77766071D01*
X151419286Y-77766071D02*
X151133571Y-77766071D01*
X151133571Y-77766071D02*
X150990714Y-77837500D01*
X150990714Y-77837500D02*
X150919286Y-77980357D01*
X150919286Y-77980357D02*
X150919286Y-78123214D01*
X150919286Y-78123214D02*
X151633571Y-78266071D01*
X149633572Y-78766071D02*
X149633572Y-77980357D01*
X149633572Y-77980357D02*
X149705000Y-77837500D01*
X149705000Y-77837500D02*
X149847857Y-77766071D01*
X149847857Y-77766071D02*
X150133572Y-77766071D01*
X150133572Y-77766071D02*
X150276429Y-77837500D01*
X149633572Y-78694642D02*
X149776429Y-78766071D01*
X149776429Y-78766071D02*
X150133572Y-78766071D01*
X150133572Y-78766071D02*
X150276429Y-78694642D01*
X150276429Y-78694642D02*
X150347857Y-78551785D01*
X150347857Y-78551785D02*
X150347857Y-78408928D01*
X150347857Y-78408928D02*
X150276429Y-78266071D01*
X150276429Y-78266071D02*
X150133572Y-78194642D01*
X150133572Y-78194642D02*
X149776429Y-78194642D01*
X149776429Y-78194642D02*
X149633572Y-78123214D01*
X148276429Y-78766071D02*
X148276429Y-77266071D01*
X148276429Y-78694642D02*
X148419286Y-78766071D01*
X148419286Y-78766071D02*
X148705000Y-78766071D01*
X148705000Y-78766071D02*
X148847857Y-78694642D01*
X148847857Y-78694642D02*
X148919286Y-78623214D01*
X148919286Y-78623214D02*
X148990714Y-78480357D01*
X148990714Y-78480357D02*
X148990714Y-78051785D01*
X148990714Y-78051785D02*
X148919286Y-77908928D01*
X148919286Y-77908928D02*
X148847857Y-77837500D01*
X148847857Y-77837500D02*
X148705000Y-77766071D01*
X148705000Y-77766071D02*
X148419286Y-77766071D01*
X148419286Y-77766071D02*
X148276429Y-77837500D01*
X147562143Y-78766071D02*
X147562143Y-77266071D01*
X147562143Y-77837500D02*
X147419286Y-77766071D01*
X147419286Y-77766071D02*
X147133571Y-77766071D01*
X147133571Y-77766071D02*
X146990714Y-77837500D01*
X146990714Y-77837500D02*
X146919286Y-77908928D01*
X146919286Y-77908928D02*
X146847857Y-78051785D01*
X146847857Y-78051785D02*
X146847857Y-78480357D01*
X146847857Y-78480357D02*
X146919286Y-78623214D01*
X146919286Y-78623214D02*
X146990714Y-78694642D01*
X146990714Y-78694642D02*
X147133571Y-78766071D01*
X147133571Y-78766071D02*
X147419286Y-78766071D01*
X147419286Y-78766071D02*
X147562143Y-78694642D01*
X145990714Y-78766071D02*
X146133571Y-78694642D01*
X146133571Y-78694642D02*
X146205000Y-78623214D01*
X146205000Y-78623214D02*
X146276428Y-78480357D01*
X146276428Y-78480357D02*
X146276428Y-78051785D01*
X146276428Y-78051785D02*
X146205000Y-77908928D01*
X146205000Y-77908928D02*
X146133571Y-77837500D01*
X146133571Y-77837500D02*
X145990714Y-77766071D01*
X145990714Y-77766071D02*
X145776428Y-77766071D01*
X145776428Y-77766071D02*
X145633571Y-77837500D01*
X145633571Y-77837500D02*
X145562143Y-77908928D01*
X145562143Y-77908928D02*
X145490714Y-78051785D01*
X145490714Y-78051785D02*
X145490714Y-78480357D01*
X145490714Y-78480357D02*
X145562143Y-78623214D01*
X145562143Y-78623214D02*
X145633571Y-78694642D01*
X145633571Y-78694642D02*
X145776428Y-78766071D01*
X145776428Y-78766071D02*
X145990714Y-78766071D01*
X144205000Y-78766071D02*
X144205000Y-77980357D01*
X144205000Y-77980357D02*
X144276428Y-77837500D01*
X144276428Y-77837500D02*
X144419285Y-77766071D01*
X144419285Y-77766071D02*
X144705000Y-77766071D01*
X144705000Y-77766071D02*
X144847857Y-77837500D01*
X144205000Y-78694642D02*
X144347857Y-78766071D01*
X144347857Y-78766071D02*
X144705000Y-78766071D01*
X144705000Y-78766071D02*
X144847857Y-78694642D01*
X144847857Y-78694642D02*
X144919285Y-78551785D01*
X144919285Y-78551785D02*
X144919285Y-78408928D01*
X144919285Y-78408928D02*
X144847857Y-78266071D01*
X144847857Y-78266071D02*
X144705000Y-78194642D01*
X144705000Y-78194642D02*
X144347857Y-78194642D01*
X144347857Y-78194642D02*
X144205000Y-78123214D01*
X143490714Y-78766071D02*
X143490714Y-77766071D01*
X143490714Y-78051785D02*
X143419285Y-77908928D01*
X143419285Y-77908928D02*
X143347857Y-77837500D01*
X143347857Y-77837500D02*
X143204999Y-77766071D01*
X143204999Y-77766071D02*
X143062142Y-77766071D01*
X141919286Y-78766071D02*
X141919286Y-77266071D01*
X141919286Y-78694642D02*
X142062143Y-78766071D01*
X142062143Y-78766071D02*
X142347857Y-78766071D01*
X142347857Y-78766071D02*
X142490714Y-78694642D01*
X142490714Y-78694642D02*
X142562143Y-78623214D01*
X142562143Y-78623214D02*
X142633571Y-78480357D01*
X142633571Y-78480357D02*
X142633571Y-78051785D01*
X142633571Y-78051785D02*
X142562143Y-77908928D01*
X142562143Y-77908928D02*
X142490714Y-77837500D01*
X142490714Y-77837500D02*
X142347857Y-77766071D01*
X142347857Y-77766071D02*
X142062143Y-77766071D01*
X142062143Y-77766071D02*
X141919286Y-77837500D01*
X150919285Y-81196071D02*
X150919285Y-79696071D01*
X150919285Y-79696071D02*
X150347856Y-79696071D01*
X150347856Y-79696071D02*
X150204999Y-79767500D01*
X150204999Y-79767500D02*
X150133570Y-79838928D01*
X150133570Y-79838928D02*
X150062142Y-79981785D01*
X150062142Y-79981785D02*
X150062142Y-80196071D01*
X150062142Y-80196071D02*
X150133570Y-80338928D01*
X150133570Y-80338928D02*
X150204999Y-80410357D01*
X150204999Y-80410357D02*
X150347856Y-80481785D01*
X150347856Y-80481785D02*
X150919285Y-80481785D01*
X149204999Y-81196071D02*
X149347856Y-81124642D01*
X149347856Y-81124642D02*
X149419285Y-81053214D01*
X149419285Y-81053214D02*
X149490713Y-80910357D01*
X149490713Y-80910357D02*
X149490713Y-80481785D01*
X149490713Y-80481785D02*
X149419285Y-80338928D01*
X149419285Y-80338928D02*
X149347856Y-80267500D01*
X149347856Y-80267500D02*
X149204999Y-80196071D01*
X149204999Y-80196071D02*
X148990713Y-80196071D01*
X148990713Y-80196071D02*
X148847856Y-80267500D01*
X148847856Y-80267500D02*
X148776428Y-80338928D01*
X148776428Y-80338928D02*
X148704999Y-80481785D01*
X148704999Y-80481785D02*
X148704999Y-80910357D01*
X148704999Y-80910357D02*
X148776428Y-81053214D01*
X148776428Y-81053214D02*
X148847856Y-81124642D01*
X148847856Y-81124642D02*
X148990713Y-81196071D01*
X148990713Y-81196071D02*
X149204999Y-81196071D01*
X148204999Y-80196071D02*
X147919285Y-81196071D01*
X147919285Y-81196071D02*
X147633570Y-80481785D01*
X147633570Y-80481785D02*
X147347856Y-81196071D01*
X147347856Y-81196071D02*
X147062142Y-80196071D01*
X145919284Y-81124642D02*
X146062141Y-81196071D01*
X146062141Y-81196071D02*
X146347856Y-81196071D01*
X146347856Y-81196071D02*
X146490713Y-81124642D01*
X146490713Y-81124642D02*
X146562141Y-80981785D01*
X146562141Y-80981785D02*
X146562141Y-80410357D01*
X146562141Y-80410357D02*
X146490713Y-80267500D01*
X146490713Y-80267500D02*
X146347856Y-80196071D01*
X146347856Y-80196071D02*
X146062141Y-80196071D01*
X146062141Y-80196071D02*
X145919284Y-80267500D01*
X145919284Y-80267500D02*
X145847856Y-80410357D01*
X145847856Y-80410357D02*
X145847856Y-80553214D01*
X145847856Y-80553214D02*
X146562141Y-80696071D01*
X145204999Y-81196071D02*
X145204999Y-80196071D01*
X145204999Y-80481785D02*
X145133570Y-80338928D01*
X145133570Y-80338928D02*
X145062142Y-80267500D01*
X145062142Y-80267500D02*
X144919284Y-80196071D01*
X144919284Y-80196071D02*
X144776427Y-80196071D01*
X151383570Y-83554642D02*
X151169285Y-83626071D01*
X151169285Y-83626071D02*
X150812142Y-83626071D01*
X150812142Y-83626071D02*
X150669285Y-83554642D01*
X150669285Y-83554642D02*
X150597856Y-83483214D01*
X150597856Y-83483214D02*
X150526427Y-83340357D01*
X150526427Y-83340357D02*
X150526427Y-83197500D01*
X150526427Y-83197500D02*
X150597856Y-83054642D01*
X150597856Y-83054642D02*
X150669285Y-82983214D01*
X150669285Y-82983214D02*
X150812142Y-82911785D01*
X150812142Y-82911785D02*
X151097856Y-82840357D01*
X151097856Y-82840357D02*
X151240713Y-82768928D01*
X151240713Y-82768928D02*
X151312142Y-82697500D01*
X151312142Y-82697500D02*
X151383570Y-82554642D01*
X151383570Y-82554642D02*
X151383570Y-82411785D01*
X151383570Y-82411785D02*
X151312142Y-82268928D01*
X151312142Y-82268928D02*
X151240713Y-82197500D01*
X151240713Y-82197500D02*
X151097856Y-82126071D01*
X151097856Y-82126071D02*
X150740713Y-82126071D01*
X150740713Y-82126071D02*
X150526427Y-82197500D01*
X149240714Y-82626071D02*
X149240714Y-83626071D01*
X149883571Y-82626071D02*
X149883571Y-83411785D01*
X149883571Y-83411785D02*
X149812142Y-83554642D01*
X149812142Y-83554642D02*
X149669285Y-83626071D01*
X149669285Y-83626071D02*
X149454999Y-83626071D01*
X149454999Y-83626071D02*
X149312142Y-83554642D01*
X149312142Y-83554642D02*
X149240714Y-83483214D01*
X148526428Y-82626071D02*
X148526428Y-84126071D01*
X148526428Y-82697500D02*
X148383571Y-82626071D01*
X148383571Y-82626071D02*
X148097856Y-82626071D01*
X148097856Y-82626071D02*
X147954999Y-82697500D01*
X147954999Y-82697500D02*
X147883571Y-82768928D01*
X147883571Y-82768928D02*
X147812142Y-82911785D01*
X147812142Y-82911785D02*
X147812142Y-83340357D01*
X147812142Y-83340357D02*
X147883571Y-83483214D01*
X147883571Y-83483214D02*
X147954999Y-83554642D01*
X147954999Y-83554642D02*
X148097856Y-83626071D01*
X148097856Y-83626071D02*
X148383571Y-83626071D01*
X148383571Y-83626071D02*
X148526428Y-83554642D01*
X147169285Y-82626071D02*
X147169285Y-84126071D01*
X147169285Y-82697500D02*
X147026428Y-82626071D01*
X147026428Y-82626071D02*
X146740713Y-82626071D01*
X146740713Y-82626071D02*
X146597856Y-82697500D01*
X146597856Y-82697500D02*
X146526428Y-82768928D01*
X146526428Y-82768928D02*
X146454999Y-82911785D01*
X146454999Y-82911785D02*
X146454999Y-83340357D01*
X146454999Y-83340357D02*
X146526428Y-83483214D01*
X146526428Y-83483214D02*
X146597856Y-83554642D01*
X146597856Y-83554642D02*
X146740713Y-83626071D01*
X146740713Y-83626071D02*
X147026428Y-83626071D01*
X147026428Y-83626071D02*
X147169285Y-83554642D01*
X145597856Y-83626071D02*
X145740713Y-83554642D01*
X145740713Y-83554642D02*
X145812142Y-83411785D01*
X145812142Y-83411785D02*
X145812142Y-82126071D01*
X145169285Y-82626071D02*
X144812142Y-83626071D01*
X144454999Y-82626071D02*
X144812142Y-83626071D01*
X144812142Y-83626071D02*
X144954999Y-83983214D01*
X144954999Y-83983214D02*
X145026428Y-84054642D01*
X145026428Y-84054642D02*
X145169285Y-84126071D01*
D11*
%TO.C,J10*%
X118757619Y-80646904D02*
X118757619Y-81218333D01*
X118757619Y-81218333D02*
X118795714Y-81332619D01*
X118795714Y-81332619D02*
X118871905Y-81408809D01*
X118871905Y-81408809D02*
X118986190Y-81446904D01*
X118986190Y-81446904D02*
X119062381Y-81446904D01*
X117957619Y-81446904D02*
X118414762Y-81446904D01*
X118186190Y-81446904D02*
X118186190Y-80646904D01*
X118186190Y-80646904D02*
X118262381Y-80761190D01*
X118262381Y-80761190D02*
X118338571Y-80837380D01*
X118338571Y-80837380D02*
X118414762Y-80875476D01*
X117462380Y-80646904D02*
X117386190Y-80646904D01*
X117386190Y-80646904D02*
X117309999Y-80685000D01*
X117309999Y-80685000D02*
X117271904Y-80723095D01*
X117271904Y-80723095D02*
X117233809Y-80799285D01*
X117233809Y-80799285D02*
X117195714Y-80951666D01*
X117195714Y-80951666D02*
X117195714Y-81142142D01*
X117195714Y-81142142D02*
X117233809Y-81294523D01*
X117233809Y-81294523D02*
X117271904Y-81370714D01*
X117271904Y-81370714D02*
X117309999Y-81408809D01*
X117309999Y-81408809D02*
X117386190Y-81446904D01*
X117386190Y-81446904D02*
X117462380Y-81446904D01*
X117462380Y-81446904D02*
X117538571Y-81408809D01*
X117538571Y-81408809D02*
X117576666Y-81370714D01*
X117576666Y-81370714D02*
X117614761Y-81294523D01*
X117614761Y-81294523D02*
X117652857Y-81142142D01*
X117652857Y-81142142D02*
X117652857Y-80951666D01*
X117652857Y-80951666D02*
X117614761Y-80799285D01*
X117614761Y-80799285D02*
X117576666Y-80723095D01*
X117576666Y-80723095D02*
X117538571Y-80685000D01*
X117538571Y-80685000D02*
X117462380Y-80646904D01*
%TO.C,J8*%
X150634666Y-96394904D02*
X150634666Y-96966333D01*
X150634666Y-96966333D02*
X150672761Y-97080619D01*
X150672761Y-97080619D02*
X150748952Y-97156809D01*
X150748952Y-97156809D02*
X150863237Y-97194904D01*
X150863237Y-97194904D02*
X150939428Y-97194904D01*
X150139428Y-96737761D02*
X150215618Y-96699666D01*
X150215618Y-96699666D02*
X150253713Y-96661571D01*
X150253713Y-96661571D02*
X150291809Y-96585380D01*
X150291809Y-96585380D02*
X150291809Y-96547285D01*
X150291809Y-96547285D02*
X150253713Y-96471095D01*
X150253713Y-96471095D02*
X150215618Y-96433000D01*
X150215618Y-96433000D02*
X150139428Y-96394904D01*
X150139428Y-96394904D02*
X149987047Y-96394904D01*
X149987047Y-96394904D02*
X149910856Y-96433000D01*
X149910856Y-96433000D02*
X149872761Y-96471095D01*
X149872761Y-96471095D02*
X149834666Y-96547285D01*
X149834666Y-96547285D02*
X149834666Y-96585380D01*
X149834666Y-96585380D02*
X149872761Y-96661571D01*
X149872761Y-96661571D02*
X149910856Y-96699666D01*
X149910856Y-96699666D02*
X149987047Y-96737761D01*
X149987047Y-96737761D02*
X150139428Y-96737761D01*
X150139428Y-96737761D02*
X150215618Y-96775857D01*
X150215618Y-96775857D02*
X150253713Y-96813952D01*
X150253713Y-96813952D02*
X150291809Y-96890142D01*
X150291809Y-96890142D02*
X150291809Y-97042523D01*
X150291809Y-97042523D02*
X150253713Y-97118714D01*
X150253713Y-97118714D02*
X150215618Y-97156809D01*
X150215618Y-97156809D02*
X150139428Y-97194904D01*
X150139428Y-97194904D02*
X149987047Y-97194904D01*
X149987047Y-97194904D02*
X149910856Y-97156809D01*
X149910856Y-97156809D02*
X149872761Y-97118714D01*
X149872761Y-97118714D02*
X149834666Y-97042523D01*
X149834666Y-97042523D02*
X149834666Y-96890142D01*
X149834666Y-96890142D02*
X149872761Y-96813952D01*
X149872761Y-96813952D02*
X149910856Y-96775857D01*
X149910856Y-96775857D02*
X149987047Y-96737761D01*
%TO.C,J11*%
X139204619Y-80646904D02*
X139204619Y-81218333D01*
X139204619Y-81218333D02*
X139242714Y-81332619D01*
X139242714Y-81332619D02*
X139318905Y-81408809D01*
X139318905Y-81408809D02*
X139433190Y-81446904D01*
X139433190Y-81446904D02*
X139509381Y-81446904D01*
X138404619Y-81446904D02*
X138861762Y-81446904D01*
X138633190Y-81446904D02*
X138633190Y-80646904D01*
X138633190Y-80646904D02*
X138709381Y-80761190D01*
X138709381Y-80761190D02*
X138785571Y-80837380D01*
X138785571Y-80837380D02*
X138861762Y-80875476D01*
X137642714Y-81446904D02*
X138099857Y-81446904D01*
X137871285Y-81446904D02*
X137871285Y-80646904D01*
X137871285Y-80646904D02*
X137947476Y-80761190D01*
X137947476Y-80761190D02*
X138023666Y-80837380D01*
X138023666Y-80837380D02*
X138099857Y-80875476D01*
%TO.C,J9*%
X106184666Y-96394904D02*
X106184666Y-96966333D01*
X106184666Y-96966333D02*
X106222761Y-97080619D01*
X106222761Y-97080619D02*
X106298952Y-97156809D01*
X106298952Y-97156809D02*
X106413237Y-97194904D01*
X106413237Y-97194904D02*
X106489428Y-97194904D01*
X105765618Y-97194904D02*
X105613237Y-97194904D01*
X105613237Y-97194904D02*
X105537047Y-97156809D01*
X105537047Y-97156809D02*
X105498951Y-97118714D01*
X105498951Y-97118714D02*
X105422761Y-97004428D01*
X105422761Y-97004428D02*
X105384666Y-96852047D01*
X105384666Y-96852047D02*
X105384666Y-96547285D01*
X105384666Y-96547285D02*
X105422761Y-96471095D01*
X105422761Y-96471095D02*
X105460856Y-96433000D01*
X105460856Y-96433000D02*
X105537047Y-96394904D01*
X105537047Y-96394904D02*
X105689428Y-96394904D01*
X105689428Y-96394904D02*
X105765618Y-96433000D01*
X105765618Y-96433000D02*
X105803713Y-96471095D01*
X105803713Y-96471095D02*
X105841809Y-96547285D01*
X105841809Y-96547285D02*
X105841809Y-96737761D01*
X105841809Y-96737761D02*
X105803713Y-96813952D01*
X105803713Y-96813952D02*
X105765618Y-96852047D01*
X105765618Y-96852047D02*
X105689428Y-96890142D01*
X105689428Y-96890142D02*
X105537047Y-96890142D01*
X105537047Y-96890142D02*
X105460856Y-96852047D01*
X105460856Y-96852047D02*
X105422761Y-96813952D01*
X105422761Y-96813952D02*
X105384666Y-96737761D01*
D12*
%TO.C,J10*%
X120710000Y-77410000D02*
X120710000Y-80070000D01*
X118110000Y-77410000D02*
X120710000Y-77410000D01*
X118110000Y-77410000D02*
X118110000Y-80070000D01*
X116840000Y-77410000D02*
X115510000Y-77410000D01*
X115510000Y-77410000D02*
X115510000Y-78740000D01*
X118110000Y-80070000D02*
X120710000Y-80070000D01*
%TO.C,J8*%
X153095000Y-97730000D02*
X153095000Y-100390000D01*
X150495000Y-97730000D02*
X153095000Y-97730000D01*
X150495000Y-97730000D02*
X150495000Y-100390000D01*
X149225000Y-97730000D02*
X147895000Y-97730000D01*
X147895000Y-97730000D02*
X147895000Y-99060000D01*
X150495000Y-100390000D02*
X153095000Y-100390000D01*
%TO.C,J11*%
X135830000Y-80070000D02*
X135830000Y-77410000D01*
X138430000Y-80070000D02*
X135830000Y-80070000D01*
X138430000Y-80070000D02*
X138430000Y-77410000D01*
X139700000Y-80070000D02*
X141030000Y-80070000D01*
X141030000Y-80070000D02*
X141030000Y-78740000D01*
X138430000Y-77410000D02*
X135830000Y-77410000D01*
%TO.C,J9*%
X108645000Y-97730000D02*
X108645000Y-100390000D01*
X106045000Y-97730000D02*
X108645000Y-97730000D01*
X106045000Y-97730000D02*
X106045000Y-100390000D01*
X104775000Y-97730000D02*
X103445000Y-97730000D01*
X103445000Y-97730000D02*
X103445000Y-99060000D01*
X106045000Y-100390000D02*
X108645000Y-100390000D01*
%TD*%
M02*
