%TF.GenerationSoftware,KiCad,Pcbnew,8.0.9*%
%TF.CreationDate,2025-08-25T15:10:49-06:00*%
%TF.ProjectId,Breadboard Power Supply,42726561-6462-46f6-9172-6420506f7765,v1*%
%TF.SameCoordinates,Original*%
%TF.FileFunction,Copper,L1,Top*%
%TF.FilePolarity,Positive*%
%FSLAX46Y46*%
G04 Gerber Fmt 4.6, Leading zero omitted, Abs format (unit mm)*
G04 Created by KiCad (PCBNEW 8.0.9) date 2025-08-25 15:10:49*
%MOMM*%
%LPD*%
G01*
G04 APERTURE LIST*
G04 Aperture macros list*
%AMRoundRect*
0 Rectangle with rounded corners*
0 $1 Rounding radius*
0 $2 $3 $4 $5 $6 $7 $8 $9 X,Y pos of 4 corners*
0 Add a 4 corners polygon primitive as box body*
4,1,4,$2,$3,$4,$5,$6,$7,$8,$9,$2,$3,0*
0 Add four circle primitives for the rounded corners*
1,1,$1+$1,$2,$3*
1,1,$1+$1,$4,$5*
1,1,$1+$1,$6,$7*
1,1,$1+$1,$8,$9*
0 Add four rect primitives between the rounded corners*
20,1,$1+$1,$2,$3,$4,$5,0*
20,1,$1+$1,$4,$5,$6,$7,0*
20,1,$1+$1,$6,$7,$8,$9,0*
20,1,$1+$1,$8,$9,$2,$3,0*%
G04 Aperture macros list end*
%TA.AperFunction,ComponentPad*%
%ADD10R,1.700000X1.700000*%
%TD*%
%TA.AperFunction,ComponentPad*%
%ADD11O,1.700000X1.700000*%
%TD*%
%TA.AperFunction,SMDPad,CuDef*%
%ADD12RoundRect,0.135000X-0.185000X0.135000X-0.185000X-0.135000X0.185000X-0.135000X0.185000X0.135000X0*%
%TD*%
%TA.AperFunction,SMDPad,CuDef*%
%ADD13RoundRect,0.250000X-0.250000X-0.475000X0.250000X-0.475000X0.250000X0.475000X-0.250000X0.475000X0*%
%TD*%
%TA.AperFunction,SMDPad,CuDef*%
%ADD14RoundRect,0.218750X0.218750X0.256250X-0.218750X0.256250X-0.218750X-0.256250X0.218750X-0.256250X0*%
%TD*%
%TA.AperFunction,SMDPad,CuDef*%
%ADD15RoundRect,0.218750X0.218750X0.381250X-0.218750X0.381250X-0.218750X-0.381250X0.218750X-0.381250X0*%
%TD*%
%TA.AperFunction,SMDPad,CuDef*%
%ADD16RoundRect,0.140000X-0.170000X0.140000X-0.170000X-0.140000X0.170000X-0.140000X0.170000X0.140000X0*%
%TD*%
%TA.AperFunction,SMDPad,CuDef*%
%ADD17RoundRect,0.250000X0.250000X0.475000X-0.250000X0.475000X-0.250000X-0.475000X0.250000X-0.475000X0*%
%TD*%
%TA.AperFunction,SMDPad,CuDef*%
%ADD18RoundRect,0.135000X-0.135000X-0.185000X0.135000X-0.185000X0.135000X0.185000X-0.135000X0.185000X0*%
%TD*%
%TA.AperFunction,SMDPad,CuDef*%
%ADD19R,1.120000X1.370000*%
%TD*%
%TA.AperFunction,SMDPad,CuDef*%
%ADD20RoundRect,0.135000X0.135000X0.185000X-0.135000X0.185000X-0.135000X-0.185000X0.135000X-0.185000X0*%
%TD*%
%TA.AperFunction,SMDPad,CuDef*%
%ADD21R,0.977900X0.406400*%
%TD*%
%TA.AperFunction,SMDPad,CuDef*%
%ADD22R,0.990600X1.905000*%
%TD*%
%TA.AperFunction,SMDPad,CuDef*%
%ADD23R,0.700000X1.200000*%
%TD*%
%TA.AperFunction,SMDPad,CuDef*%
%ADD24R,0.760000X1.200000*%
%TD*%
%TA.AperFunction,SMDPad,CuDef*%
%ADD25R,0.800000X1.200000*%
%TD*%
%TA.AperFunction,ComponentPad*%
%ADD26C,1.450000*%
%TD*%
%TA.AperFunction,SMDPad,CuDef*%
%ADD27RoundRect,0.135000X0.185000X-0.135000X0.185000X0.135000X-0.185000X0.135000X-0.185000X-0.135000X0*%
%TD*%
%TA.AperFunction,SMDPad,CuDef*%
%ADD28RoundRect,0.375000X-0.625000X-0.375000X0.625000X-0.375000X0.625000X0.375000X-0.625000X0.375000X0*%
%TD*%
%TA.AperFunction,SMDPad,CuDef*%
%ADD29RoundRect,0.500000X-0.500000X-1.400000X0.500000X-1.400000X0.500000X1.400000X-0.500000X1.400000X0*%
%TD*%
%TA.AperFunction,ComponentPad*%
%ADD30C,1.830000*%
%TD*%
%TA.AperFunction,SMDPad,CuDef*%
%ADD31RoundRect,0.375000X0.625000X0.375000X-0.625000X0.375000X-0.625000X-0.375000X0.625000X-0.375000X0*%
%TD*%
%TA.AperFunction,SMDPad,CuDef*%
%ADD32RoundRect,0.500000X0.500000X1.400000X-0.500000X1.400000X-0.500000X-1.400000X0.500000X-1.400000X0*%
%TD*%
%TA.AperFunction,ViaPad*%
%ADD33C,0.800000*%
%TD*%
%TA.AperFunction,Conductor*%
%ADD34C,0.250000*%
%TD*%
%TA.AperFunction,Conductor*%
%ADD35C,0.750000*%
%TD*%
%TA.AperFunction,Conductor*%
%ADD36C,0.500000*%
%TD*%
G04 APERTURE END LIST*
D10*
%TO.P,J4,1,Pin_1*%
%TO.N,+1V8*%
X151130000Y-87630000D03*
D11*
%TO.P,J4,2,Pin_2*%
%TO.N,/TOP_POWER_RAIL*%
X153670000Y-87630000D03*
%TO.P,J4,3,Pin_3*%
%TO.N,+3.3V*%
X151130000Y-90170000D03*
%TO.P,J4,4,Pin_4*%
%TO.N,/TOP_POWER_RAIL*%
X153670000Y-90170000D03*
%TO.P,J4,5,Pin_5*%
%TO.N,+5V*%
X151130000Y-92710000D03*
%TO.P,J4,6,Pin_6*%
%TO.N,/TOP_POWER_RAIL*%
X153670000Y-92710000D03*
%TO.P,J4,7,Pin_7*%
%TO.N,+12V*%
X151130000Y-95250000D03*
%TO.P,J4,8,Pin_8*%
%TO.N,/TOP_POWER_RAIL*%
X153670000Y-95250000D03*
%TD*%
D12*
%TO.P,R4,1*%
%TO.N,Net-(U1-VO)*%
X111887000Y-78105000D03*
%TO.P,R4,2*%
%TO.N,Net-(U1-ADJ)*%
X111887000Y-79125000D03*
%TD*%
D13*
%TO.P,C5,1*%
%TO.N,+3.3V*%
X147883000Y-83693000D03*
%TO.P,C5,2*%
%TO.N,GND*%
X149783000Y-83693000D03*
%TD*%
D14*
%TO.P,D5,1*%
%TO.N,GND*%
X137020500Y-80549000D03*
%TO.P,D5,2*%
%TO.N,Net-(D5-Pad2)*%
X135445500Y-80549000D03*
%TD*%
D15*
%TO.P,L2,1,1*%
%TO.N,VBUS*%
X120523000Y-78359000D03*
%TO.P,L2,2,2*%
%TO.N,Net-(D1-A2)*%
X118398000Y-78359000D03*
%TD*%
D14*
%TO.P,D3,1*%
%TO.N,GND*%
X137020500Y-82299000D03*
%TO.P,D3,2*%
%TO.N,Net-(D3-Pad2)*%
X135445500Y-82299000D03*
%TD*%
D16*
%TO.P,C8,1*%
%TO.N,+1V8*%
X102133000Y-83467000D03*
%TO.P,C8,2*%
%TO.N,GND*%
X102133000Y-84427000D03*
%TD*%
%TO.P,C7,1*%
%TO.N,+3.3V*%
X146293000Y-83241000D03*
%TO.P,C7,2*%
%TO.N,GND*%
X146293000Y-84201000D03*
%TD*%
D17*
%TO.P,C2,1*%
%TO.N,+12V*%
X114295000Y-83693000D03*
%TO.P,C2,2*%
%TO.N,GND*%
X112395000Y-83693000D03*
%TD*%
D18*
%TO.P,R2,1*%
%TO.N,Net-(J1-CC1)*%
X128899000Y-84381000D03*
%TO.P,R2,2*%
%TO.N,GND*%
X129919000Y-84381000D03*
%TD*%
D14*
%TO.P,D4,1*%
%TO.N,GND*%
X137008000Y-78781000D03*
%TO.P,D4,2*%
%TO.N,Net-(D4-Pad2)*%
X135433000Y-78781000D03*
%TD*%
D12*
%TO.P,R12,1*%
%TO.N,Net-(D1-A1)*%
X116633000Y-80129000D03*
%TO.P,R12,2*%
%TO.N,Net-(R12-Pad2)*%
X116633000Y-81149000D03*
%TD*%
D13*
%TO.P,C4,1*%
%TO.N,VBUS*%
X112969000Y-76327000D03*
%TO.P,C4,2*%
%TO.N,GND*%
X114869000Y-76327000D03*
%TD*%
D19*
%TO.P,D1,1,A1*%
%TO.N,Net-(D1-A1)*%
X121007000Y-80645000D03*
%TO.P,D1,2,A2*%
%TO.N,Net-(D1-A2)*%
X118007000Y-80645000D03*
%TD*%
D20*
%TO.P,R8,1*%
%TO.N,Net-(U2-ADJ)*%
X144893000Y-75831000D03*
%TO.P,R8,2*%
%TO.N,Net-(R7-Pad1)*%
X143873000Y-75831000D03*
%TD*%
%TO.P,R7,1*%
%TO.N,Net-(R7-Pad1)*%
X142893000Y-75831000D03*
%TO.P,R7,2*%
%TO.N,GND*%
X141873000Y-75831000D03*
%TD*%
D13*
%TO.P,C3,1*%
%TO.N,VBUS*%
X151511000Y-83693000D03*
%TO.P,C3,2*%
%TO.N,GND*%
X153411000Y-83693000D03*
%TD*%
D21*
%TO.P,U4,1,SW*%
%TO.N,Net-(D1-A2)*%
X118543150Y-82941200D03*
%TO.P,U4,2,GND*%
%TO.N,GND*%
X118543150Y-83881000D03*
%TO.P,U4,3,FB*%
%TO.N,Net-(U4-FB)*%
X118543150Y-84820800D03*
%TO.P,U4,4,/SHDN*%
%TO.N,VBUS*%
X121222850Y-84833500D03*
%TO.P,U4,5,VIN*%
X121222850Y-82928500D03*
%TD*%
D10*
%TO.P,J5,1,Pin_1*%
%TO.N,/BOTTOM_POWER_RAIL*%
X102870000Y-87630000D03*
D11*
%TO.P,J5,2,Pin_2*%
%TO.N,+1V8*%
X105410000Y-87630000D03*
%TO.P,J5,3,Pin_3*%
%TO.N,/BOTTOM_POWER_RAIL*%
X102870000Y-90170000D03*
%TO.P,J5,4,Pin_4*%
%TO.N,+3.3V*%
X105410000Y-90170000D03*
%TO.P,J5,5,Pin_5*%
%TO.N,/BOTTOM_POWER_RAIL*%
X102870000Y-92710000D03*
%TO.P,J5,6,Pin_6*%
%TO.N,+5V*%
X105410000Y-92710000D03*
%TO.P,J5,7,Pin_7*%
%TO.N,/BOTTOM_POWER_RAIL*%
X102870000Y-95250000D03*
%TO.P,J5,8,Pin_8*%
%TO.N,+12V*%
X105410000Y-95250000D03*
%TD*%
D12*
%TO.P,R9,1*%
%TO.N,Net-(R12-Pad2)*%
X116633000Y-82419000D03*
%TO.P,R9,2*%
%TO.N,Net-(U4-FB)*%
X116633000Y-83439000D03*
%TD*%
D20*
%TO.P,R1,1*%
%TO.N,Net-(J1-CC2)*%
X127633000Y-84381000D03*
%TO.P,R1,2*%
%TO.N,GND*%
X126613000Y-84381000D03*
%TD*%
D22*
%TO.P,F1,1,1*%
%TO.N,Net-(U1-VO)*%
X107384400Y-84081000D03*
%TO.P,F1,2,2*%
%TO.N,+1V8*%
X110381600Y-84081000D03*
%TD*%
D20*
%TO.P,R13,1*%
%TO.N,Net-(U4-FB)*%
X116717000Y-84709000D03*
%TO.P,R13,2*%
%TO.N,GND*%
X115697000Y-84709000D03*
%TD*%
D23*
%TO.P,J1,A5,CC1*%
%TO.N,Net-(J1-CC1)*%
X128772000Y-81854000D03*
D24*
%TO.P,J1,A9,VBUS*%
%TO.N,VBUS*%
X126752000Y-81854000D03*
D25*
%TO.P,J1,A12,GND*%
%TO.N,GND*%
X125522000Y-81854000D03*
D23*
%TO.P,J1,B5,CC2*%
%TO.N,Net-(J1-CC2)*%
X127772000Y-81854000D03*
D24*
%TO.P,J1,B9,VBUS*%
%TO.N,VBUS*%
X129792000Y-81854000D03*
D25*
%TO.P,J1,B12,GND*%
%TO.N,GND*%
X131022000Y-81854000D03*
D26*
%TO.P,J1,MH1,MH1*%
X132592000Y-77974000D03*
%TO.P,J1,MH2,MH2*%
X123952000Y-77974000D03*
%TO.P,J1,MH3,MH3*%
X132592000Y-81774000D03*
%TO.P,J1,MH4,MH4*%
X123952000Y-81774000D03*
%TD*%
D12*
%TO.P,R6,1*%
%TO.N,Net-(U1-ADJ)*%
X111887000Y-80895000D03*
%TO.P,R6,2*%
%TO.N,GND*%
X111887000Y-81915000D03*
%TD*%
D14*
%TO.P,D6,1*%
%TO.N,GND*%
X137033000Y-83981000D03*
%TO.P,D6,2*%
%TO.N,Net-(D6-Pad2)*%
X135458000Y-83981000D03*
%TD*%
D27*
%TO.P,R5,1*%
%TO.N,Net-(U2-VO)*%
X144833000Y-77841000D03*
%TO.P,R5,2*%
%TO.N,Net-(U2-ADJ)*%
X144833000Y-76821000D03*
%TD*%
D28*
%TO.P,U2,1,ADJ*%
%TO.N,Net-(U2-ADJ)*%
X146623000Y-76567000D03*
%TO.P,U2,2,VO*%
%TO.N,Net-(U2-VO)*%
X146623000Y-78867000D03*
D29*
X152923000Y-78867000D03*
D28*
%TO.P,U2,3,VI*%
%TO.N,VBUS*%
X146623000Y-81167000D03*
%TD*%
D30*
%TO.P,TP1,1,1*%
%TO.N,GND*%
X103759000Y-102638000D03*
%TO.P,TP1,2,2*%
X108839000Y-102638000D03*
%TD*%
%TO.P,TP4,1,1*%
%TO.N,GND*%
X147701000Y-102638000D03*
%TO.P,TP4,2,2*%
X152781000Y-102638000D03*
%TD*%
D17*
%TO.P,C10,1*%
%TO.N,VBUS*%
X120457000Y-76073000D03*
%TO.P,C10,2*%
%TO.N,GND*%
X118557000Y-76073000D03*
%TD*%
D13*
%TO.P,C6,1*%
%TO.N,+1V8*%
X103515000Y-83947000D03*
%TO.P,C6,2*%
%TO.N,GND*%
X105415000Y-83947000D03*
%TD*%
D14*
%TO.P,D2,1*%
%TO.N,GND*%
X137020500Y-77049000D03*
%TO.P,D2,2*%
%TO.N,Net-(D2-Pad2)*%
X135445500Y-77049000D03*
%TD*%
D31*
%TO.P,U1,1,ADJ*%
%TO.N,Net-(U1-ADJ)*%
X109878000Y-81167000D03*
%TO.P,U1,2,VO*%
%TO.N,Net-(U1-VO)*%
X109878000Y-78867000D03*
D32*
X103578000Y-78867000D03*
D31*
%TO.P,U1,3,VI*%
%TO.N,VBUS*%
X109878000Y-76567000D03*
%TD*%
D10*
%TO.P,J10,1,Pin_1*%
%TO.N,GND*%
X114300000Y-78740000D03*
D11*
%TO.P,J10,2,Pin_2*%
X114300000Y-81280000D03*
%TD*%
D10*
%TO.P,J8,1,Pin_1*%
%TO.N,/TOP_POWER_RAIL*%
X152082500Y-99060000D03*
D11*
%TO.P,J8,2,Pin_2*%
%TO.N,GND*%
X149542500Y-99060000D03*
%TD*%
D10*
%TO.P,J11,1,Pin_1*%
%TO.N,GND*%
X142240000Y-78740000D03*
D11*
%TO.P,J11,2,Pin_2*%
X142240000Y-81280000D03*
%TD*%
D10*
%TO.P,J9,1,Pin_1*%
%TO.N,/BOTTOM_POWER_RAIL*%
X106997500Y-99060000D03*
D11*
%TO.P,J9,2,Pin_2*%
%TO.N,GND*%
X104457500Y-99060000D03*
%TD*%
D33*
%TO.N,GND*%
X102133000Y-85331000D03*
X113370326Y-85181000D03*
X154559000Y-83693000D03*
X140833000Y-75831000D03*
X147033000Y-84842832D03*
X119633000Y-83831000D03*
X150433000Y-85181000D03*
X137033000Y-85181000D03*
X115064915Y-84842832D03*
X105383000Y-85331000D03*
X117729000Y-76667000D03*
%TO.N,+3.3V*%
X145455449Y-83736091D03*
X138033000Y-81381000D03*
%TO.N,+1V8*%
X111433000Y-85132400D03*
%TO.N,+12V*%
X115443000Y-83693000D03*
%TO.N,VBUS*%
X129921000Y-80645000D03*
X138811859Y-75981000D03*
X113105176Y-77398983D03*
X119435500Y-78381000D03*
%TO.N,Net-(D2-Pad2)*%
X134033000Y-77081000D03*
%TO.N,Net-(D1-A1)*%
X117157000Y-79387045D03*
X119383000Y-80581000D03*
%TO.N,Net-(D3-Pad2)*%
X134033000Y-82381000D03*
%TO.N,Net-(D4-Pad2)*%
X134033000Y-78831000D03*
%TO.N,Net-(D5-Pad2)*%
X134033000Y-80581000D03*
%TO.N,Net-(D6-Pad2)*%
X134033000Y-84016570D03*
%TO.N,Net-(U2-VO)*%
X145390239Y-80023944D03*
%TO.N,+5V*%
X132433000Y-83381000D03*
X125433000Y-79181000D03*
%TD*%
D34*
%TO.N,GND*%
X137033000Y-83981000D02*
X137033000Y-85181000D01*
D35*
X153411000Y-83693000D02*
X154559000Y-83693000D01*
D36*
X114300000Y-76896000D02*
X114869000Y-76327000D01*
D34*
X146293000Y-84201000D02*
X146391168Y-84201000D01*
D36*
X105415000Y-83947000D02*
X105415000Y-85299000D01*
D34*
X137170500Y-80549000D02*
X137170500Y-82299000D01*
D35*
X132512000Y-81854000D02*
X132592000Y-81774000D01*
D36*
X112395000Y-83693000D02*
X112395000Y-81915000D01*
X102133000Y-84427000D02*
X102133000Y-85331000D01*
D34*
X149783000Y-84531000D02*
X150433000Y-85181000D01*
D36*
X113665000Y-81915000D02*
X114300000Y-81280000D01*
X126613000Y-84381000D02*
X125522000Y-83290000D01*
X112395000Y-81915000D02*
X113665000Y-81915000D01*
X114300000Y-78740000D02*
X114300000Y-76896000D01*
X105415000Y-85299000D02*
X105383000Y-85331000D01*
D34*
X149783000Y-83693000D02*
X149783000Y-84531000D01*
D36*
X119583000Y-83881000D02*
X119633000Y-83831000D01*
D35*
X131022000Y-81854000D02*
X132512000Y-81854000D01*
D36*
X129919000Y-84381000D02*
X131022000Y-83278000D01*
D34*
X146391168Y-84201000D02*
X147033000Y-84842832D01*
D35*
X124032000Y-81854000D02*
X123952000Y-81774000D01*
D34*
X141873000Y-75831000D02*
X140833000Y-75831000D01*
D35*
X118323000Y-76073000D02*
X117729000Y-76667000D01*
X118557000Y-76073000D02*
X118323000Y-76073000D01*
D34*
X137238500Y-76981000D02*
X137170500Y-77049000D01*
X115198747Y-84709000D02*
X115064915Y-84842832D01*
D36*
X131022000Y-83278000D02*
X131022000Y-81854000D01*
X125522000Y-83290000D02*
X125522000Y-81854000D01*
D34*
X115697000Y-84709000D02*
X115198747Y-84709000D01*
D35*
X125522000Y-81854000D02*
X124032000Y-81854000D01*
D34*
X137170500Y-78799000D02*
X137170500Y-80549000D01*
D36*
X118543150Y-83881000D02*
X119583000Y-83881000D01*
D34*
X137170500Y-82299000D02*
X137170500Y-84049000D01*
X137170500Y-77049000D02*
X137170500Y-78799000D01*
D35*
X111887000Y-81915000D02*
X112395000Y-81915000D01*
D36*
%TO.N,+3.3V*%
X149687000Y-88727000D02*
X151130000Y-90170000D01*
X149433000Y-85243000D02*
X149433000Y-88473000D01*
X105410000Y-90170000D02*
X106211497Y-90170000D01*
D34*
X139633000Y-81381000D02*
X141988091Y-83736091D01*
D36*
X147883000Y-83693000D02*
X149433000Y-85243000D01*
X149433000Y-88473000D02*
X149687000Y-88727000D01*
X106211497Y-90170000D02*
X110350497Y-86031000D01*
X145533000Y-83691001D02*
X145983001Y-83241000D01*
D34*
X138033000Y-81381000D02*
X139633000Y-81381000D01*
D36*
X146991000Y-86031000D02*
X149687000Y-88727000D01*
D35*
X147883000Y-83693000D02*
X147431000Y-83241000D01*
D36*
X145500539Y-83691001D02*
X145533000Y-83691001D01*
X145983001Y-83241000D02*
X146293000Y-83241000D01*
X145455449Y-83736091D02*
X145500539Y-83691001D01*
D34*
X141988091Y-83736091D02*
X145455449Y-83736091D01*
D35*
X147431000Y-83241000D02*
X146293000Y-83241000D01*
D36*
X110350497Y-86031000D02*
X146991000Y-86031000D01*
%TO.N,/TOP_POWER_RAIL*%
X153670000Y-92710000D02*
X153670000Y-95250000D01*
X153670000Y-90170000D02*
X153670000Y-92710000D01*
X153670000Y-95250000D02*
X153670000Y-97472500D01*
X153670000Y-87630000D02*
X153670000Y-90170000D01*
X153670000Y-97472500D02*
X152082500Y-99060000D01*
%TO.N,/BOTTOM_POWER_RAIL*%
X106680000Y-99060000D02*
X106997500Y-99060000D01*
X102870000Y-92710000D02*
X102870000Y-95250000D01*
X102870000Y-87630000D02*
X102870000Y-90170000D01*
D35*
X102870000Y-95250000D02*
X103187500Y-95250000D01*
D36*
X102870000Y-90170000D02*
X102870000Y-92710000D01*
X102870000Y-95250000D02*
X106680000Y-99060000D01*
%TO.N,Net-(J1-CC1)*%
X128899000Y-84381000D02*
X128899000Y-81981000D01*
D34*
X128772000Y-84324000D02*
X128903000Y-84455000D01*
D36*
X128899000Y-81981000D02*
X128772000Y-81854000D01*
D34*
%TO.N,Net-(J1-CC2)*%
X127772000Y-84320000D02*
X127637000Y-84455000D01*
D36*
X127633000Y-81993000D02*
X127772000Y-81854000D01*
X127633000Y-84381000D02*
X127633000Y-81993000D01*
%TO.N,+1V8*%
X110381600Y-84790154D02*
X110381600Y-84081000D01*
X103515000Y-83947000D02*
X103035000Y-83467000D01*
X103515000Y-85735000D02*
X103515000Y-83947000D01*
X109688254Y-85483500D02*
X110381600Y-84790154D01*
X103035000Y-83467000D02*
X102133000Y-83467000D01*
X105410000Y-87630000D02*
X103515000Y-85735000D01*
X111433000Y-85132400D02*
X110381600Y-84081000D01*
X107556500Y-85483500D02*
X109688254Y-85483500D01*
X105410000Y-87630000D02*
X107556500Y-85483500D01*
X110381600Y-84081000D02*
X110381600Y-84211212D01*
X110381600Y-84081000D02*
X110381600Y-83632400D01*
%TO.N,Net-(U1-ADJ)*%
X111887000Y-80895000D02*
X110190000Y-80895000D01*
D35*
X110190000Y-80895000D02*
X109918000Y-81167000D01*
D36*
X111887000Y-79125000D02*
X111887000Y-80895000D01*
D34*
%TO.N,Net-(U2-ADJ)*%
X144893000Y-75831000D02*
X144893000Y-76761000D01*
X144893000Y-76761000D02*
X144833000Y-76821000D01*
X144833000Y-76821000D02*
X146369000Y-76821000D01*
X146369000Y-76821000D02*
X146623000Y-76567000D01*
%TO.N,Net-(R7-Pad1)*%
X142893000Y-75831000D02*
X143873000Y-75831000D01*
D35*
%TO.N,+12V*%
X114295000Y-83693000D02*
X115443000Y-83693000D01*
D36*
%TO.N,VBUS*%
X120549000Y-75981000D02*
X136433000Y-75981000D01*
X144633000Y-81167000D02*
X146623000Y-81167000D01*
X139636859Y-76806000D02*
X138811859Y-75981000D01*
D35*
X129792000Y-80774000D02*
X129921000Y-80645000D01*
X110118000Y-76327000D02*
X109878000Y-76567000D01*
D36*
X120523000Y-78359000D02*
X120523000Y-76139000D01*
X144633000Y-81167000D02*
X143938000Y-80472000D01*
X120523000Y-78359000D02*
X119457500Y-78359000D01*
D35*
X129792000Y-81854000D02*
X129792000Y-80774000D01*
D36*
X121222850Y-82664672D02*
X123413522Y-80474000D01*
X112969000Y-76327000D02*
X110118000Y-76327000D01*
X138811859Y-75981000D02*
X136433000Y-75981000D01*
X119457500Y-78359000D02*
X119435500Y-78381000D01*
D35*
X110158000Y-76327000D02*
X109918000Y-76567000D01*
X109918000Y-76567000D02*
X109874496Y-76567000D01*
D36*
X121298522Y-78359000D02*
X123413522Y-80474000D01*
X150183000Y-81331000D02*
X151511000Y-82659000D01*
X143938000Y-80472000D02*
X143938000Y-77588000D01*
X151511000Y-82659000D02*
X151511000Y-83693000D01*
X143156000Y-76806000D02*
X139636859Y-76806000D01*
X129921000Y-80645000D02*
X126881000Y-80645000D01*
D35*
X120457000Y-76073000D02*
X120549000Y-75981000D01*
D36*
X143938000Y-77588000D02*
X143156000Y-76806000D01*
D35*
X113105176Y-76463176D02*
X112969000Y-76327000D01*
D36*
X121222850Y-82928500D02*
X121222850Y-82664672D01*
X146787000Y-81331000D02*
X150183000Y-81331000D01*
D35*
X113105176Y-77398983D02*
X113105176Y-76463176D01*
D36*
X123413522Y-80474000D02*
X126710000Y-80474000D01*
X120523000Y-78359000D02*
X121298522Y-78359000D01*
D35*
X126881000Y-80645000D02*
X126752000Y-80774000D01*
D36*
X126752000Y-80774000D02*
X126752000Y-81854000D01*
D35*
X120523000Y-76139000D02*
X120457000Y-76073000D01*
D36*
X121222850Y-84833500D02*
X121222850Y-82928500D01*
D35*
X146623000Y-81167000D02*
X146787000Y-81331000D01*
D36*
%TO.N,Net-(R12-Pad2)*%
X116633000Y-81149000D02*
X116633000Y-82419000D01*
D35*
%TO.N,Net-(D1-A2)*%
X118007000Y-80645000D02*
X118007000Y-82394850D01*
X118007000Y-82394850D02*
X118543150Y-82931000D01*
X118007000Y-78750000D02*
X118398000Y-78359000D01*
D36*
X118007000Y-80645000D02*
X118007000Y-78750000D01*
D34*
%TO.N,Net-(D2-Pad2)*%
X134033000Y-77081000D02*
X134065000Y-77049000D01*
X134065000Y-77049000D02*
X135595500Y-77049000D01*
D36*
%TO.N,Net-(D1-A1)*%
X116633000Y-79911045D02*
X116633000Y-80129000D01*
D35*
X119447000Y-80645000D02*
X119383000Y-80581000D01*
X121007000Y-80645000D02*
X119447000Y-80645000D01*
D36*
X117157000Y-79387045D02*
X116633000Y-79911045D01*
D34*
%TO.N,Net-(D3-Pad2)*%
X134033000Y-82381000D02*
X134115000Y-82299000D01*
X134115000Y-82299000D02*
X135595500Y-82299000D01*
%TO.N,Net-(D4-Pad2)*%
X134065000Y-78799000D02*
X135595500Y-78799000D01*
X134033000Y-78831000D02*
X134065000Y-78799000D01*
%TO.N,Net-(D5-Pad2)*%
X134033000Y-80581000D02*
X134065000Y-80549000D01*
X134065000Y-80549000D02*
X135595500Y-80549000D01*
%TO.N,Net-(D6-Pad2)*%
X134065430Y-84049000D02*
X135595500Y-84049000D01*
X134033000Y-84016570D02*
X134065430Y-84049000D01*
D36*
%TO.N,Net-(U1-VO)*%
X107384400Y-81360600D02*
X109878000Y-78867000D01*
D34*
X111887000Y-78105000D02*
X110640000Y-78105000D01*
D36*
X107384400Y-84081000D02*
X107384400Y-81360600D01*
X103578000Y-78867000D02*
X109878000Y-78867000D01*
D34*
X110640000Y-78105000D02*
X109878000Y-78867000D01*
%TO.N,Net-(U2-VO)*%
X146623000Y-78867000D02*
X152923000Y-78867000D01*
D36*
X145466056Y-80023944D02*
X146623000Y-78867000D01*
D34*
X144833000Y-77841000D02*
X145597000Y-77841000D01*
X145597000Y-77841000D02*
X146623000Y-78867000D01*
D36*
X145390239Y-80023944D02*
X145466056Y-80023944D01*
D35*
X146553595Y-78936405D02*
X146623000Y-78867000D01*
D36*
%TO.N,+5V*%
X110494000Y-86877447D02*
X110640447Y-86731000D01*
X146046000Y-86877447D02*
X146046000Y-87626000D01*
X110494000Y-87626000D02*
X110494000Y-86877447D01*
X146046000Y-87626000D02*
X151130000Y-92710000D01*
X105410000Y-92710000D02*
X110494000Y-87626000D01*
X145899553Y-86731000D02*
X146046000Y-86877447D01*
X110640447Y-86731000D02*
X145899553Y-86731000D01*
%TO.N,Net-(U4-FB)*%
X118543150Y-84820800D02*
X116828800Y-84820800D01*
X116828800Y-84820800D02*
X116717000Y-84709000D01*
X116717000Y-83697000D02*
X116717000Y-84709000D01*
%TD*%
M02*
