%TF.GenerationSoftware,KiCad,Pcbnew,(7.0.0-0)*%
%TF.CreationDate,2023-02-24T20:53:14-07:00*%
%TF.ProjectId,Breadboard Power Supply,42726561-6462-46f6-9172-6420506f7765,v2*%
%TF.SameCoordinates,Original*%
%TF.FileFunction,Legend,Top*%
%TF.FilePolarity,Positive*%
%FSLAX46Y46*%
G04 Gerber Fmt 4.6, Leading zero omitted, Abs format (unit mm)*
G04 Created by KiCad (PCBNEW (7.0.0-0)) date 2023-02-24 20:53:14*
%MOMM*%
%LPD*%
G01*
G04 APERTURE LIST*
%ADD10C,0.150000*%
%ADD11C,0.254000*%
%ADD12C,0.100000*%
%ADD13C,0.120000*%
%ADD14C,0.200000*%
G04 APERTURE END LIST*
D10*
X144430857Y-92569380D02*
X143859429Y-92569380D01*
X144145143Y-92569380D02*
X144145143Y-91569380D01*
X144145143Y-91569380D02*
X144049905Y-91712238D01*
X144049905Y-91712238D02*
X143954667Y-91807476D01*
X143954667Y-91807476D02*
X143859429Y-91855095D01*
X144859429Y-92474142D02*
X144907048Y-92521761D01*
X144907048Y-92521761D02*
X144859429Y-92569380D01*
X144859429Y-92569380D02*
X144811810Y-92521761D01*
X144811810Y-92521761D02*
X144859429Y-92474142D01*
X144859429Y-92474142D02*
X144859429Y-92569380D01*
X145478476Y-91997952D02*
X145383238Y-91950333D01*
X145383238Y-91950333D02*
X145335619Y-91902714D01*
X145335619Y-91902714D02*
X145288000Y-91807476D01*
X145288000Y-91807476D02*
X145288000Y-91759857D01*
X145288000Y-91759857D02*
X145335619Y-91664619D01*
X145335619Y-91664619D02*
X145383238Y-91617000D01*
X145383238Y-91617000D02*
X145478476Y-91569380D01*
X145478476Y-91569380D02*
X145668952Y-91569380D01*
X145668952Y-91569380D02*
X145764190Y-91617000D01*
X145764190Y-91617000D02*
X145811809Y-91664619D01*
X145811809Y-91664619D02*
X145859428Y-91759857D01*
X145859428Y-91759857D02*
X145859428Y-91807476D01*
X145859428Y-91807476D02*
X145811809Y-91902714D01*
X145811809Y-91902714D02*
X145764190Y-91950333D01*
X145764190Y-91950333D02*
X145668952Y-91997952D01*
X145668952Y-91997952D02*
X145478476Y-91997952D01*
X145478476Y-91997952D02*
X145383238Y-92045571D01*
X145383238Y-92045571D02*
X145335619Y-92093190D01*
X145335619Y-92093190D02*
X145288000Y-92188428D01*
X145288000Y-92188428D02*
X145288000Y-92378904D01*
X145288000Y-92378904D02*
X145335619Y-92474142D01*
X145335619Y-92474142D02*
X145383238Y-92521761D01*
X145383238Y-92521761D02*
X145478476Y-92569380D01*
X145478476Y-92569380D02*
X145668952Y-92569380D01*
X145668952Y-92569380D02*
X145764190Y-92521761D01*
X145764190Y-92521761D02*
X145811809Y-92474142D01*
X145811809Y-92474142D02*
X145859428Y-92378904D01*
X145859428Y-92378904D02*
X145859428Y-92188428D01*
X145859428Y-92188428D02*
X145811809Y-92093190D01*
X145811809Y-92093190D02*
X145764190Y-92045571D01*
X145764190Y-92045571D02*
X145668952Y-91997952D01*
X146145143Y-91569380D02*
X146478476Y-92569380D01*
X146478476Y-92569380D02*
X146811809Y-91569380D01*
X147621810Y-91569380D02*
X148240857Y-91569380D01*
X148240857Y-91569380D02*
X147907524Y-91950333D01*
X147907524Y-91950333D02*
X148050381Y-91950333D01*
X148050381Y-91950333D02*
X148145619Y-91997952D01*
X148145619Y-91997952D02*
X148193238Y-92045571D01*
X148193238Y-92045571D02*
X148240857Y-92140809D01*
X148240857Y-92140809D02*
X148240857Y-92378904D01*
X148240857Y-92378904D02*
X148193238Y-92474142D01*
X148193238Y-92474142D02*
X148145619Y-92521761D01*
X148145619Y-92521761D02*
X148050381Y-92569380D01*
X148050381Y-92569380D02*
X147764667Y-92569380D01*
X147764667Y-92569380D02*
X147669429Y-92521761D01*
X147669429Y-92521761D02*
X147621810Y-92474142D01*
X148669429Y-92474142D02*
X148717048Y-92521761D01*
X148717048Y-92521761D02*
X148669429Y-92569380D01*
X148669429Y-92569380D02*
X148621810Y-92521761D01*
X148621810Y-92521761D02*
X148669429Y-92474142D01*
X148669429Y-92474142D02*
X148669429Y-92569380D01*
X149050381Y-91569380D02*
X149669428Y-91569380D01*
X149669428Y-91569380D02*
X149336095Y-91950333D01*
X149336095Y-91950333D02*
X149478952Y-91950333D01*
X149478952Y-91950333D02*
X149574190Y-91997952D01*
X149574190Y-91997952D02*
X149621809Y-92045571D01*
X149621809Y-92045571D02*
X149669428Y-92140809D01*
X149669428Y-92140809D02*
X149669428Y-92378904D01*
X149669428Y-92378904D02*
X149621809Y-92474142D01*
X149621809Y-92474142D02*
X149574190Y-92521761D01*
X149574190Y-92521761D02*
X149478952Y-92569380D01*
X149478952Y-92569380D02*
X149193238Y-92569380D01*
X149193238Y-92569380D02*
X149098000Y-92521761D01*
X149098000Y-92521761D02*
X149050381Y-92474142D01*
X149955143Y-91569380D02*
X150288476Y-92569380D01*
X150288476Y-92569380D02*
X150621809Y-91569380D01*
X105965810Y-91569380D02*
X106584857Y-91569380D01*
X106584857Y-91569380D02*
X106251524Y-91950333D01*
X106251524Y-91950333D02*
X106394381Y-91950333D01*
X106394381Y-91950333D02*
X106489619Y-91997952D01*
X106489619Y-91997952D02*
X106537238Y-92045571D01*
X106537238Y-92045571D02*
X106584857Y-92140809D01*
X106584857Y-92140809D02*
X106584857Y-92378904D01*
X106584857Y-92378904D02*
X106537238Y-92474142D01*
X106537238Y-92474142D02*
X106489619Y-92521761D01*
X106489619Y-92521761D02*
X106394381Y-92569380D01*
X106394381Y-92569380D02*
X106108667Y-92569380D01*
X106108667Y-92569380D02*
X106013429Y-92521761D01*
X106013429Y-92521761D02*
X105965810Y-92474142D01*
X107013429Y-92474142D02*
X107061048Y-92521761D01*
X107061048Y-92521761D02*
X107013429Y-92569380D01*
X107013429Y-92569380D02*
X106965810Y-92521761D01*
X106965810Y-92521761D02*
X107013429Y-92474142D01*
X107013429Y-92474142D02*
X107013429Y-92569380D01*
X107394381Y-91569380D02*
X108013428Y-91569380D01*
X108013428Y-91569380D02*
X107680095Y-91950333D01*
X107680095Y-91950333D02*
X107822952Y-91950333D01*
X107822952Y-91950333D02*
X107918190Y-91997952D01*
X107918190Y-91997952D02*
X107965809Y-92045571D01*
X107965809Y-92045571D02*
X108013428Y-92140809D01*
X108013428Y-92140809D02*
X108013428Y-92378904D01*
X108013428Y-92378904D02*
X107965809Y-92474142D01*
X107965809Y-92474142D02*
X107918190Y-92521761D01*
X107918190Y-92521761D02*
X107822952Y-92569380D01*
X107822952Y-92569380D02*
X107537238Y-92569380D01*
X107537238Y-92569380D02*
X107442000Y-92521761D01*
X107442000Y-92521761D02*
X107394381Y-92474142D01*
X108299143Y-91569380D02*
X108632476Y-92569380D01*
X108632476Y-92569380D02*
X108965809Y-91569380D01*
X102774857Y-92569380D02*
X102203429Y-92569380D01*
X102489143Y-92569380D02*
X102489143Y-91569380D01*
X102489143Y-91569380D02*
X102393905Y-91712238D01*
X102393905Y-91712238D02*
X102298667Y-91807476D01*
X102298667Y-91807476D02*
X102203429Y-91855095D01*
X103203429Y-92474142D02*
X103251048Y-92521761D01*
X103251048Y-92521761D02*
X103203429Y-92569380D01*
X103203429Y-92569380D02*
X103155810Y-92521761D01*
X103155810Y-92521761D02*
X103203429Y-92474142D01*
X103203429Y-92474142D02*
X103203429Y-92569380D01*
X103822476Y-91997952D02*
X103727238Y-91950333D01*
X103727238Y-91950333D02*
X103679619Y-91902714D01*
X103679619Y-91902714D02*
X103632000Y-91807476D01*
X103632000Y-91807476D02*
X103632000Y-91759857D01*
X103632000Y-91759857D02*
X103679619Y-91664619D01*
X103679619Y-91664619D02*
X103727238Y-91617000D01*
X103727238Y-91617000D02*
X103822476Y-91569380D01*
X103822476Y-91569380D02*
X104012952Y-91569380D01*
X104012952Y-91569380D02*
X104108190Y-91617000D01*
X104108190Y-91617000D02*
X104155809Y-91664619D01*
X104155809Y-91664619D02*
X104203428Y-91759857D01*
X104203428Y-91759857D02*
X104203428Y-91807476D01*
X104203428Y-91807476D02*
X104155809Y-91902714D01*
X104155809Y-91902714D02*
X104108190Y-91950333D01*
X104108190Y-91950333D02*
X104012952Y-91997952D01*
X104012952Y-91997952D02*
X103822476Y-91997952D01*
X103822476Y-91997952D02*
X103727238Y-92045571D01*
X103727238Y-92045571D02*
X103679619Y-92093190D01*
X103679619Y-92093190D02*
X103632000Y-92188428D01*
X103632000Y-92188428D02*
X103632000Y-92378904D01*
X103632000Y-92378904D02*
X103679619Y-92474142D01*
X103679619Y-92474142D02*
X103727238Y-92521761D01*
X103727238Y-92521761D02*
X103822476Y-92569380D01*
X103822476Y-92569380D02*
X104012952Y-92569380D01*
X104012952Y-92569380D02*
X104108190Y-92521761D01*
X104108190Y-92521761D02*
X104155809Y-92474142D01*
X104155809Y-92474142D02*
X104203428Y-92378904D01*
X104203428Y-92378904D02*
X104203428Y-92188428D01*
X104203428Y-92188428D02*
X104155809Y-92093190D01*
X104155809Y-92093190D02*
X104108190Y-92045571D01*
X104108190Y-92045571D02*
X104012952Y-91997952D01*
X104489143Y-91569380D02*
X104822476Y-92569380D01*
X104822476Y-92569380D02*
X105155809Y-91569380D01*
X110934523Y-91569380D02*
X110458333Y-91569380D01*
X110458333Y-91569380D02*
X110410714Y-92045571D01*
X110410714Y-92045571D02*
X110458333Y-91997952D01*
X110458333Y-91997952D02*
X110553571Y-91950333D01*
X110553571Y-91950333D02*
X110791666Y-91950333D01*
X110791666Y-91950333D02*
X110886904Y-91997952D01*
X110886904Y-91997952D02*
X110934523Y-92045571D01*
X110934523Y-92045571D02*
X110982142Y-92140809D01*
X110982142Y-92140809D02*
X110982142Y-92378904D01*
X110982142Y-92378904D02*
X110934523Y-92474142D01*
X110934523Y-92474142D02*
X110886904Y-92521761D01*
X110886904Y-92521761D02*
X110791666Y-92569380D01*
X110791666Y-92569380D02*
X110553571Y-92569380D01*
X110553571Y-92569380D02*
X110458333Y-92521761D01*
X110458333Y-92521761D02*
X110410714Y-92474142D01*
X111267857Y-91569380D02*
X111601190Y-92569380D01*
X111601190Y-92569380D02*
X111934523Y-91569380D01*
X152590523Y-91569380D02*
X152114333Y-91569380D01*
X152114333Y-91569380D02*
X152066714Y-92045571D01*
X152066714Y-92045571D02*
X152114333Y-91997952D01*
X152114333Y-91997952D02*
X152209571Y-91950333D01*
X152209571Y-91950333D02*
X152447666Y-91950333D01*
X152447666Y-91950333D02*
X152542904Y-91997952D01*
X152542904Y-91997952D02*
X152590523Y-92045571D01*
X152590523Y-92045571D02*
X152638142Y-92140809D01*
X152638142Y-92140809D02*
X152638142Y-92378904D01*
X152638142Y-92378904D02*
X152590523Y-92474142D01*
X152590523Y-92474142D02*
X152542904Y-92521761D01*
X152542904Y-92521761D02*
X152447666Y-92569380D01*
X152447666Y-92569380D02*
X152209571Y-92569380D01*
X152209571Y-92569380D02*
X152114333Y-92521761D01*
X152114333Y-92521761D02*
X152066714Y-92474142D01*
X152923857Y-91569380D02*
X153257190Y-92569380D01*
X153257190Y-92569380D02*
X153590523Y-91569380D01*
D11*
%TO.C,J1*%
X127846667Y-79204573D02*
X127846667Y-80111716D01*
X127846667Y-80111716D02*
X127786190Y-80293145D01*
X127786190Y-80293145D02*
X127665238Y-80414097D01*
X127665238Y-80414097D02*
X127483809Y-80474573D01*
X127483809Y-80474573D02*
X127362857Y-80474573D01*
X129116667Y-80474573D02*
X128390952Y-80474573D01*
X128753809Y-80474573D02*
X128753809Y-79204573D01*
X128753809Y-79204573D02*
X128632857Y-79386002D01*
X128632857Y-79386002D02*
X128511905Y-79506954D01*
X128511905Y-79506954D02*
X128390952Y-79567430D01*
D12*
%TO.C,C5*%
X142542667Y-78830714D02*
X142504571Y-78868809D01*
X142504571Y-78868809D02*
X142390286Y-78906904D01*
X142390286Y-78906904D02*
X142314095Y-78906904D01*
X142314095Y-78906904D02*
X142199809Y-78868809D01*
X142199809Y-78868809D02*
X142123619Y-78792619D01*
X142123619Y-78792619D02*
X142085524Y-78716428D01*
X142085524Y-78716428D02*
X142047428Y-78564047D01*
X142047428Y-78564047D02*
X142047428Y-78449761D01*
X142047428Y-78449761D02*
X142085524Y-78297380D01*
X142085524Y-78297380D02*
X142123619Y-78221190D01*
X142123619Y-78221190D02*
X142199809Y-78145000D01*
X142199809Y-78145000D02*
X142314095Y-78106904D01*
X142314095Y-78106904D02*
X142390286Y-78106904D01*
X142390286Y-78106904D02*
X142504571Y-78145000D01*
X142504571Y-78145000D02*
X142542667Y-78183095D01*
X143266476Y-78106904D02*
X142885524Y-78106904D01*
X142885524Y-78106904D02*
X142847428Y-78487857D01*
X142847428Y-78487857D02*
X142885524Y-78449761D01*
X142885524Y-78449761D02*
X142961714Y-78411666D01*
X142961714Y-78411666D02*
X143152190Y-78411666D01*
X143152190Y-78411666D02*
X143228381Y-78449761D01*
X143228381Y-78449761D02*
X143266476Y-78487857D01*
X143266476Y-78487857D02*
X143304571Y-78564047D01*
X143304571Y-78564047D02*
X143304571Y-78754523D01*
X143304571Y-78754523D02*
X143266476Y-78830714D01*
X143266476Y-78830714D02*
X143228381Y-78868809D01*
X143228381Y-78868809D02*
X143152190Y-78906904D01*
X143152190Y-78906904D02*
X142961714Y-78906904D01*
X142961714Y-78906904D02*
X142885524Y-78868809D01*
X142885524Y-78868809D02*
X142847428Y-78830714D01*
D11*
%TO.C,TP3*%
X134287381Y-89874573D02*
X135013095Y-89874573D01*
X134650238Y-91144573D02*
X134650238Y-89874573D01*
X135436428Y-91144573D02*
X135436428Y-89874573D01*
X135436428Y-89874573D02*
X135920238Y-89874573D01*
X135920238Y-89874573D02*
X136041190Y-89935050D01*
X136041190Y-89935050D02*
X136101667Y-89995526D01*
X136101667Y-89995526D02*
X136162143Y-90116478D01*
X136162143Y-90116478D02*
X136162143Y-90297907D01*
X136162143Y-90297907D02*
X136101667Y-90418859D01*
X136101667Y-90418859D02*
X136041190Y-90479335D01*
X136041190Y-90479335D02*
X135920238Y-90539811D01*
X135920238Y-90539811D02*
X135436428Y-90539811D01*
X136585476Y-89874573D02*
X137371667Y-89874573D01*
X137371667Y-89874573D02*
X136948333Y-90358383D01*
X136948333Y-90358383D02*
X137129762Y-90358383D01*
X137129762Y-90358383D02*
X137250714Y-90418859D01*
X137250714Y-90418859D02*
X137311190Y-90479335D01*
X137311190Y-90479335D02*
X137371667Y-90600288D01*
X137371667Y-90600288D02*
X137371667Y-90902669D01*
X137371667Y-90902669D02*
X137311190Y-91023621D01*
X137311190Y-91023621D02*
X137250714Y-91084097D01*
X137250714Y-91084097D02*
X137129762Y-91144573D01*
X137129762Y-91144573D02*
X136766905Y-91144573D01*
X136766905Y-91144573D02*
X136645952Y-91084097D01*
X136645952Y-91084097D02*
X136585476Y-91023621D01*
%TO.C,TP4*%
X148892381Y-96224573D02*
X149618095Y-96224573D01*
X149255238Y-97494573D02*
X149255238Y-96224573D01*
X150041428Y-97494573D02*
X150041428Y-96224573D01*
X150041428Y-96224573D02*
X150525238Y-96224573D01*
X150525238Y-96224573D02*
X150646190Y-96285050D01*
X150646190Y-96285050D02*
X150706667Y-96345526D01*
X150706667Y-96345526D02*
X150767143Y-96466478D01*
X150767143Y-96466478D02*
X150767143Y-96647907D01*
X150767143Y-96647907D02*
X150706667Y-96768859D01*
X150706667Y-96768859D02*
X150646190Y-96829335D01*
X150646190Y-96829335D02*
X150525238Y-96889811D01*
X150525238Y-96889811D02*
X150041428Y-96889811D01*
X151855714Y-96647907D02*
X151855714Y-97494573D01*
X151553333Y-96164097D02*
X151250952Y-97071240D01*
X151250952Y-97071240D02*
X152037143Y-97071240D01*
D12*
%TO.C,R3*%
X119500667Y-82589904D02*
X119234000Y-82208952D01*
X119043524Y-82589904D02*
X119043524Y-81789904D01*
X119043524Y-81789904D02*
X119348286Y-81789904D01*
X119348286Y-81789904D02*
X119424476Y-81828000D01*
X119424476Y-81828000D02*
X119462571Y-81866095D01*
X119462571Y-81866095D02*
X119500667Y-81942285D01*
X119500667Y-81942285D02*
X119500667Y-82056571D01*
X119500667Y-82056571D02*
X119462571Y-82132761D01*
X119462571Y-82132761D02*
X119424476Y-82170857D01*
X119424476Y-82170857D02*
X119348286Y-82208952D01*
X119348286Y-82208952D02*
X119043524Y-82208952D01*
X119767333Y-81789904D02*
X120262571Y-81789904D01*
X120262571Y-81789904D02*
X119995905Y-82094666D01*
X119995905Y-82094666D02*
X120110190Y-82094666D01*
X120110190Y-82094666D02*
X120186381Y-82132761D01*
X120186381Y-82132761D02*
X120224476Y-82170857D01*
X120224476Y-82170857D02*
X120262571Y-82247047D01*
X120262571Y-82247047D02*
X120262571Y-82437523D01*
X120262571Y-82437523D02*
X120224476Y-82513714D01*
X120224476Y-82513714D02*
X120186381Y-82551809D01*
X120186381Y-82551809D02*
X120110190Y-82589904D01*
X120110190Y-82589904D02*
X119881619Y-82589904D01*
X119881619Y-82589904D02*
X119805428Y-82551809D01*
X119805428Y-82551809D02*
X119767333Y-82513714D01*
%TO.C,C8*%
X112769667Y-81370714D02*
X112731571Y-81408809D01*
X112731571Y-81408809D02*
X112617286Y-81446904D01*
X112617286Y-81446904D02*
X112541095Y-81446904D01*
X112541095Y-81446904D02*
X112426809Y-81408809D01*
X112426809Y-81408809D02*
X112350619Y-81332619D01*
X112350619Y-81332619D02*
X112312524Y-81256428D01*
X112312524Y-81256428D02*
X112274428Y-81104047D01*
X112274428Y-81104047D02*
X112274428Y-80989761D01*
X112274428Y-80989761D02*
X112312524Y-80837380D01*
X112312524Y-80837380D02*
X112350619Y-80761190D01*
X112350619Y-80761190D02*
X112426809Y-80685000D01*
X112426809Y-80685000D02*
X112541095Y-80646904D01*
X112541095Y-80646904D02*
X112617286Y-80646904D01*
X112617286Y-80646904D02*
X112731571Y-80685000D01*
X112731571Y-80685000D02*
X112769667Y-80723095D01*
X113226809Y-80989761D02*
X113150619Y-80951666D01*
X113150619Y-80951666D02*
X113112524Y-80913571D01*
X113112524Y-80913571D02*
X113074428Y-80837380D01*
X113074428Y-80837380D02*
X113074428Y-80799285D01*
X113074428Y-80799285D02*
X113112524Y-80723095D01*
X113112524Y-80723095D02*
X113150619Y-80685000D01*
X113150619Y-80685000D02*
X113226809Y-80646904D01*
X113226809Y-80646904D02*
X113379190Y-80646904D01*
X113379190Y-80646904D02*
X113455381Y-80685000D01*
X113455381Y-80685000D02*
X113493476Y-80723095D01*
X113493476Y-80723095D02*
X113531571Y-80799285D01*
X113531571Y-80799285D02*
X113531571Y-80837380D01*
X113531571Y-80837380D02*
X113493476Y-80913571D01*
X113493476Y-80913571D02*
X113455381Y-80951666D01*
X113455381Y-80951666D02*
X113379190Y-80989761D01*
X113379190Y-80989761D02*
X113226809Y-80989761D01*
X113226809Y-80989761D02*
X113150619Y-81027857D01*
X113150619Y-81027857D02*
X113112524Y-81065952D01*
X113112524Y-81065952D02*
X113074428Y-81142142D01*
X113074428Y-81142142D02*
X113074428Y-81294523D01*
X113074428Y-81294523D02*
X113112524Y-81370714D01*
X113112524Y-81370714D02*
X113150619Y-81408809D01*
X113150619Y-81408809D02*
X113226809Y-81446904D01*
X113226809Y-81446904D02*
X113379190Y-81446904D01*
X113379190Y-81446904D02*
X113455381Y-81408809D01*
X113455381Y-81408809D02*
X113493476Y-81370714D01*
X113493476Y-81370714D02*
X113531571Y-81294523D01*
X113531571Y-81294523D02*
X113531571Y-81142142D01*
X113531571Y-81142142D02*
X113493476Y-81065952D01*
X113493476Y-81065952D02*
X113455381Y-81027857D01*
X113455381Y-81027857D02*
X113379190Y-80989761D01*
%TO.C,C7*%
X149472667Y-77687714D02*
X149434571Y-77725809D01*
X149434571Y-77725809D02*
X149320286Y-77763904D01*
X149320286Y-77763904D02*
X149244095Y-77763904D01*
X149244095Y-77763904D02*
X149129809Y-77725809D01*
X149129809Y-77725809D02*
X149053619Y-77649619D01*
X149053619Y-77649619D02*
X149015524Y-77573428D01*
X149015524Y-77573428D02*
X148977428Y-77421047D01*
X148977428Y-77421047D02*
X148977428Y-77306761D01*
X148977428Y-77306761D02*
X149015524Y-77154380D01*
X149015524Y-77154380D02*
X149053619Y-77078190D01*
X149053619Y-77078190D02*
X149129809Y-77002000D01*
X149129809Y-77002000D02*
X149244095Y-76963904D01*
X149244095Y-76963904D02*
X149320286Y-76963904D01*
X149320286Y-76963904D02*
X149434571Y-77002000D01*
X149434571Y-77002000D02*
X149472667Y-77040095D01*
X149739333Y-76963904D02*
X150272667Y-76963904D01*
X150272667Y-76963904D02*
X149929809Y-77763904D01*
D11*
%TO.C,TP2*%
X119047381Y-89874573D02*
X119773095Y-89874573D01*
X119410238Y-91144573D02*
X119410238Y-89874573D01*
X120196428Y-91144573D02*
X120196428Y-89874573D01*
X120196428Y-89874573D02*
X120680238Y-89874573D01*
X120680238Y-89874573D02*
X120801190Y-89935050D01*
X120801190Y-89935050D02*
X120861667Y-89995526D01*
X120861667Y-89995526D02*
X120922143Y-90116478D01*
X120922143Y-90116478D02*
X120922143Y-90297907D01*
X120922143Y-90297907D02*
X120861667Y-90418859D01*
X120861667Y-90418859D02*
X120801190Y-90479335D01*
X120801190Y-90479335D02*
X120680238Y-90539811D01*
X120680238Y-90539811D02*
X120196428Y-90539811D01*
X121405952Y-89995526D02*
X121466428Y-89935050D01*
X121466428Y-89935050D02*
X121587381Y-89874573D01*
X121587381Y-89874573D02*
X121889762Y-89874573D01*
X121889762Y-89874573D02*
X122010714Y-89935050D01*
X122010714Y-89935050D02*
X122071190Y-89995526D01*
X122071190Y-89995526D02*
X122131667Y-90116478D01*
X122131667Y-90116478D02*
X122131667Y-90237430D01*
X122131667Y-90237430D02*
X122071190Y-90418859D01*
X122071190Y-90418859D02*
X121345476Y-91144573D01*
X121345476Y-91144573D02*
X122131667Y-91144573D01*
%TO.C,TP1*%
X104442381Y-96224573D02*
X105168095Y-96224573D01*
X104805238Y-97494573D02*
X104805238Y-96224573D01*
X105591428Y-97494573D02*
X105591428Y-96224573D01*
X105591428Y-96224573D02*
X106075238Y-96224573D01*
X106075238Y-96224573D02*
X106196190Y-96285050D01*
X106196190Y-96285050D02*
X106256667Y-96345526D01*
X106256667Y-96345526D02*
X106317143Y-96466478D01*
X106317143Y-96466478D02*
X106317143Y-96647907D01*
X106317143Y-96647907D02*
X106256667Y-96768859D01*
X106256667Y-96768859D02*
X106196190Y-96829335D01*
X106196190Y-96829335D02*
X106075238Y-96889811D01*
X106075238Y-96889811D02*
X105591428Y-96889811D01*
X107526667Y-97494573D02*
X106800952Y-97494573D01*
X107163809Y-97494573D02*
X107163809Y-96224573D01*
X107163809Y-96224573D02*
X107042857Y-96406002D01*
X107042857Y-96406002D02*
X106921905Y-96526954D01*
X106921905Y-96526954D02*
X106800952Y-96587430D01*
D12*
%TO.C,R2*%
X136772667Y-82462904D02*
X136506000Y-82081952D01*
X136315524Y-82462904D02*
X136315524Y-81662904D01*
X136315524Y-81662904D02*
X136620286Y-81662904D01*
X136620286Y-81662904D02*
X136696476Y-81701000D01*
X136696476Y-81701000D02*
X136734571Y-81739095D01*
X136734571Y-81739095D02*
X136772667Y-81815285D01*
X136772667Y-81815285D02*
X136772667Y-81929571D01*
X136772667Y-81929571D02*
X136734571Y-82005761D01*
X136734571Y-82005761D02*
X136696476Y-82043857D01*
X136696476Y-82043857D02*
X136620286Y-82081952D01*
X136620286Y-82081952D02*
X136315524Y-82081952D01*
X137077428Y-81739095D02*
X137115524Y-81701000D01*
X137115524Y-81701000D02*
X137191714Y-81662904D01*
X137191714Y-81662904D02*
X137382190Y-81662904D01*
X137382190Y-81662904D02*
X137458381Y-81701000D01*
X137458381Y-81701000D02*
X137496476Y-81739095D01*
X137496476Y-81739095D02*
X137534571Y-81815285D01*
X137534571Y-81815285D02*
X137534571Y-81891476D01*
X137534571Y-81891476D02*
X137496476Y-82005761D01*
X137496476Y-82005761D02*
X137039333Y-82462904D01*
X137039333Y-82462904D02*
X137534571Y-82462904D01*
%TO.C,C2*%
X112769667Y-78322714D02*
X112731571Y-78360809D01*
X112731571Y-78360809D02*
X112617286Y-78398904D01*
X112617286Y-78398904D02*
X112541095Y-78398904D01*
X112541095Y-78398904D02*
X112426809Y-78360809D01*
X112426809Y-78360809D02*
X112350619Y-78284619D01*
X112350619Y-78284619D02*
X112312524Y-78208428D01*
X112312524Y-78208428D02*
X112274428Y-78056047D01*
X112274428Y-78056047D02*
X112274428Y-77941761D01*
X112274428Y-77941761D02*
X112312524Y-77789380D01*
X112312524Y-77789380D02*
X112350619Y-77713190D01*
X112350619Y-77713190D02*
X112426809Y-77637000D01*
X112426809Y-77637000D02*
X112541095Y-77598904D01*
X112541095Y-77598904D02*
X112617286Y-77598904D01*
X112617286Y-77598904D02*
X112731571Y-77637000D01*
X112731571Y-77637000D02*
X112769667Y-77675095D01*
X113074428Y-77675095D02*
X113112524Y-77637000D01*
X113112524Y-77637000D02*
X113188714Y-77598904D01*
X113188714Y-77598904D02*
X113379190Y-77598904D01*
X113379190Y-77598904D02*
X113455381Y-77637000D01*
X113455381Y-77637000D02*
X113493476Y-77675095D01*
X113493476Y-77675095D02*
X113531571Y-77751285D01*
X113531571Y-77751285D02*
X113531571Y-77827476D01*
X113531571Y-77827476D02*
X113493476Y-77941761D01*
X113493476Y-77941761D02*
X113036333Y-78398904D01*
X113036333Y-78398904D02*
X113531571Y-78398904D01*
%TO.C,C4*%
X104895667Y-77433714D02*
X104857571Y-77471809D01*
X104857571Y-77471809D02*
X104743286Y-77509904D01*
X104743286Y-77509904D02*
X104667095Y-77509904D01*
X104667095Y-77509904D02*
X104552809Y-77471809D01*
X104552809Y-77471809D02*
X104476619Y-77395619D01*
X104476619Y-77395619D02*
X104438524Y-77319428D01*
X104438524Y-77319428D02*
X104400428Y-77167047D01*
X104400428Y-77167047D02*
X104400428Y-77052761D01*
X104400428Y-77052761D02*
X104438524Y-76900380D01*
X104438524Y-76900380D02*
X104476619Y-76824190D01*
X104476619Y-76824190D02*
X104552809Y-76748000D01*
X104552809Y-76748000D02*
X104667095Y-76709904D01*
X104667095Y-76709904D02*
X104743286Y-76709904D01*
X104743286Y-76709904D02*
X104857571Y-76748000D01*
X104857571Y-76748000D02*
X104895667Y-76786095D01*
X105581381Y-76976571D02*
X105581381Y-77509904D01*
X105390905Y-76671809D02*
X105200428Y-77243238D01*
X105200428Y-77243238D02*
X105695667Y-77243238D01*
%TO.C,C3*%
X140328667Y-84926714D02*
X140290571Y-84964809D01*
X140290571Y-84964809D02*
X140176286Y-85002904D01*
X140176286Y-85002904D02*
X140100095Y-85002904D01*
X140100095Y-85002904D02*
X139985809Y-84964809D01*
X139985809Y-84964809D02*
X139909619Y-84888619D01*
X139909619Y-84888619D02*
X139871524Y-84812428D01*
X139871524Y-84812428D02*
X139833428Y-84660047D01*
X139833428Y-84660047D02*
X139833428Y-84545761D01*
X139833428Y-84545761D02*
X139871524Y-84393380D01*
X139871524Y-84393380D02*
X139909619Y-84317190D01*
X139909619Y-84317190D02*
X139985809Y-84241000D01*
X139985809Y-84241000D02*
X140100095Y-84202904D01*
X140100095Y-84202904D02*
X140176286Y-84202904D01*
X140176286Y-84202904D02*
X140290571Y-84241000D01*
X140290571Y-84241000D02*
X140328667Y-84279095D01*
X140595333Y-84202904D02*
X141090571Y-84202904D01*
X141090571Y-84202904D02*
X140823905Y-84507666D01*
X140823905Y-84507666D02*
X140938190Y-84507666D01*
X140938190Y-84507666D02*
X141014381Y-84545761D01*
X141014381Y-84545761D02*
X141052476Y-84583857D01*
X141052476Y-84583857D02*
X141090571Y-84660047D01*
X141090571Y-84660047D02*
X141090571Y-84850523D01*
X141090571Y-84850523D02*
X141052476Y-84926714D01*
X141052476Y-84926714D02*
X141014381Y-84964809D01*
X141014381Y-84964809D02*
X140938190Y-85002904D01*
X140938190Y-85002904D02*
X140709619Y-85002904D01*
X140709619Y-85002904D02*
X140633428Y-84964809D01*
X140633428Y-84964809D02*
X140595333Y-84926714D01*
%TO.C,D1*%
X118154524Y-77255904D02*
X118154524Y-76455904D01*
X118154524Y-76455904D02*
X118345000Y-76455904D01*
X118345000Y-76455904D02*
X118459286Y-76494000D01*
X118459286Y-76494000D02*
X118535476Y-76570190D01*
X118535476Y-76570190D02*
X118573571Y-76646380D01*
X118573571Y-76646380D02*
X118611667Y-76798761D01*
X118611667Y-76798761D02*
X118611667Y-76913047D01*
X118611667Y-76913047D02*
X118573571Y-77065428D01*
X118573571Y-77065428D02*
X118535476Y-77141619D01*
X118535476Y-77141619D02*
X118459286Y-77217809D01*
X118459286Y-77217809D02*
X118345000Y-77255904D01*
X118345000Y-77255904D02*
X118154524Y-77255904D01*
X119373571Y-77255904D02*
X118916428Y-77255904D01*
X119145000Y-77255904D02*
X119145000Y-76455904D01*
X119145000Y-76455904D02*
X119068809Y-76570190D01*
X119068809Y-76570190D02*
X118992619Y-76646380D01*
X118992619Y-76646380D02*
X118916428Y-76684476D01*
%TO.C,C1*%
X141979667Y-82640714D02*
X141941571Y-82678809D01*
X141941571Y-82678809D02*
X141827286Y-82716904D01*
X141827286Y-82716904D02*
X141751095Y-82716904D01*
X141751095Y-82716904D02*
X141636809Y-82678809D01*
X141636809Y-82678809D02*
X141560619Y-82602619D01*
X141560619Y-82602619D02*
X141522524Y-82526428D01*
X141522524Y-82526428D02*
X141484428Y-82374047D01*
X141484428Y-82374047D02*
X141484428Y-82259761D01*
X141484428Y-82259761D02*
X141522524Y-82107380D01*
X141522524Y-82107380D02*
X141560619Y-82031190D01*
X141560619Y-82031190D02*
X141636809Y-81955000D01*
X141636809Y-81955000D02*
X141751095Y-81916904D01*
X141751095Y-81916904D02*
X141827286Y-81916904D01*
X141827286Y-81916904D02*
X141941571Y-81955000D01*
X141941571Y-81955000D02*
X141979667Y-81993095D01*
X142741571Y-82716904D02*
X142284428Y-82716904D01*
X142513000Y-82716904D02*
X142513000Y-81916904D01*
X142513000Y-81916904D02*
X142436809Y-82031190D01*
X142436809Y-82031190D02*
X142360619Y-82107380D01*
X142360619Y-82107380D02*
X142284428Y-82145476D01*
%TO.C,R1*%
X136772667Y-79287904D02*
X136506000Y-78906952D01*
X136315524Y-79287904D02*
X136315524Y-78487904D01*
X136315524Y-78487904D02*
X136620286Y-78487904D01*
X136620286Y-78487904D02*
X136696476Y-78526000D01*
X136696476Y-78526000D02*
X136734571Y-78564095D01*
X136734571Y-78564095D02*
X136772667Y-78640285D01*
X136772667Y-78640285D02*
X136772667Y-78754571D01*
X136772667Y-78754571D02*
X136734571Y-78830761D01*
X136734571Y-78830761D02*
X136696476Y-78868857D01*
X136696476Y-78868857D02*
X136620286Y-78906952D01*
X136620286Y-78906952D02*
X136315524Y-78906952D01*
X137534571Y-79287904D02*
X137077428Y-79287904D01*
X137306000Y-79287904D02*
X137306000Y-78487904D01*
X137306000Y-78487904D02*
X137229809Y-78602190D01*
X137229809Y-78602190D02*
X137153619Y-78678380D01*
X137153619Y-78678380D02*
X137077428Y-78716476D01*
D10*
%TO.C,U2*%
X152654095Y-78615380D02*
X152654095Y-79424904D01*
X152654095Y-79424904D02*
X152701714Y-79520142D01*
X152701714Y-79520142D02*
X152749333Y-79567761D01*
X152749333Y-79567761D02*
X152844571Y-79615380D01*
X152844571Y-79615380D02*
X153035047Y-79615380D01*
X153035047Y-79615380D02*
X153130285Y-79567761D01*
X153130285Y-79567761D02*
X153177904Y-79520142D01*
X153177904Y-79520142D02*
X153225523Y-79424904D01*
X153225523Y-79424904D02*
X153225523Y-78615380D01*
X153654095Y-78710619D02*
X153701714Y-78663000D01*
X153701714Y-78663000D02*
X153796952Y-78615380D01*
X153796952Y-78615380D02*
X154035047Y-78615380D01*
X154035047Y-78615380D02*
X154130285Y-78663000D01*
X154130285Y-78663000D02*
X154177904Y-78710619D01*
X154177904Y-78710619D02*
X154225523Y-78805857D01*
X154225523Y-78805857D02*
X154225523Y-78901095D01*
X154225523Y-78901095D02*
X154177904Y-79043952D01*
X154177904Y-79043952D02*
X153606476Y-79615380D01*
X153606476Y-79615380D02*
X154225523Y-79615380D01*
%TO.C,U1*%
X102362095Y-78742380D02*
X102362095Y-79551904D01*
X102362095Y-79551904D02*
X102409714Y-79647142D01*
X102409714Y-79647142D02*
X102457333Y-79694761D01*
X102457333Y-79694761D02*
X102552571Y-79742380D01*
X102552571Y-79742380D02*
X102743047Y-79742380D01*
X102743047Y-79742380D02*
X102838285Y-79694761D01*
X102838285Y-79694761D02*
X102885904Y-79647142D01*
X102885904Y-79647142D02*
X102933523Y-79551904D01*
X102933523Y-79551904D02*
X102933523Y-78742380D01*
X103933523Y-79742380D02*
X103362095Y-79742380D01*
X103647809Y-79742380D02*
X103647809Y-78742380D01*
X103647809Y-78742380D02*
X103552571Y-78885238D01*
X103552571Y-78885238D02*
X103457333Y-78980476D01*
X103457333Y-78980476D02*
X103362095Y-79028095D01*
D12*
%TO.C,C6*%
X115817667Y-83783714D02*
X115779571Y-83821809D01*
X115779571Y-83821809D02*
X115665286Y-83859904D01*
X115665286Y-83859904D02*
X115589095Y-83859904D01*
X115589095Y-83859904D02*
X115474809Y-83821809D01*
X115474809Y-83821809D02*
X115398619Y-83745619D01*
X115398619Y-83745619D02*
X115360524Y-83669428D01*
X115360524Y-83669428D02*
X115322428Y-83517047D01*
X115322428Y-83517047D02*
X115322428Y-83402761D01*
X115322428Y-83402761D02*
X115360524Y-83250380D01*
X115360524Y-83250380D02*
X115398619Y-83174190D01*
X115398619Y-83174190D02*
X115474809Y-83098000D01*
X115474809Y-83098000D02*
X115589095Y-83059904D01*
X115589095Y-83059904D02*
X115665286Y-83059904D01*
X115665286Y-83059904D02*
X115779571Y-83098000D01*
X115779571Y-83098000D02*
X115817667Y-83136095D01*
X116503381Y-83059904D02*
X116351000Y-83059904D01*
X116351000Y-83059904D02*
X116274809Y-83098000D01*
X116274809Y-83098000D02*
X116236714Y-83136095D01*
X116236714Y-83136095D02*
X116160524Y-83250380D01*
X116160524Y-83250380D02*
X116122428Y-83402761D01*
X116122428Y-83402761D02*
X116122428Y-83707523D01*
X116122428Y-83707523D02*
X116160524Y-83783714D01*
X116160524Y-83783714D02*
X116198619Y-83821809D01*
X116198619Y-83821809D02*
X116274809Y-83859904D01*
X116274809Y-83859904D02*
X116427190Y-83859904D01*
X116427190Y-83859904D02*
X116503381Y-83821809D01*
X116503381Y-83821809D02*
X116541476Y-83783714D01*
X116541476Y-83783714D02*
X116579571Y-83707523D01*
X116579571Y-83707523D02*
X116579571Y-83517047D01*
X116579571Y-83517047D02*
X116541476Y-83440857D01*
X116541476Y-83440857D02*
X116503381Y-83402761D01*
X116503381Y-83402761D02*
X116427190Y-83364666D01*
X116427190Y-83364666D02*
X116274809Y-83364666D01*
X116274809Y-83364666D02*
X116198619Y-83402761D01*
X116198619Y-83402761D02*
X116160524Y-83440857D01*
X116160524Y-83440857D02*
X116122428Y-83517047D01*
D13*
%TO.C,J3*%
X147768000Y-87498000D02*
X147768000Y-86168000D01*
X147768000Y-91368000D02*
X150428000Y-91368000D01*
X147768000Y-88768000D02*
X147768000Y-91368000D01*
X147768000Y-88768000D02*
X150428000Y-88768000D01*
X147768000Y-86168000D02*
X149098000Y-86168000D01*
X150428000Y-88768000D02*
X150428000Y-91368000D01*
D14*
%TO.C,J1*%
X132740000Y-81156000D02*
X132740000Y-80356000D01*
X132740000Y-77356000D02*
X132740000Y-76306000D01*
X132740000Y-76306000D02*
X123800000Y-76306000D01*
X128770000Y-84256000D02*
X128770000Y-84256000D01*
X128770000Y-84256000D02*
X128770000Y-84256000D01*
X128770000Y-84156000D02*
X128770000Y-84156000D01*
X123800000Y-81156000D02*
X123800000Y-80356000D01*
X123800000Y-76306000D02*
X123800000Y-77356000D01*
X128770000Y-84156000D02*
G75*
G03*
X128770000Y-84256000I0J-50000D01*
G01*
X128770000Y-84256000D02*
G75*
G03*
X128770000Y-84156000I0J50000D01*
G01*
X128770000Y-84256000D02*
G75*
G03*
X128770000Y-84156000I0J50000D01*
G01*
D13*
%TO.C,C5*%
X143616000Y-79324252D02*
X143616000Y-77901748D01*
X145436000Y-79324252D02*
X145436000Y-77901748D01*
D12*
%TO.C,TP3*%
X131930000Y-90428000D02*
X131930000Y-90928000D01*
X131930000Y-90928000D02*
X132290000Y-90928000D01*
X132290000Y-90428000D02*
X131930000Y-90428000D01*
X134490000Y-90428000D02*
X137290000Y-90428000D01*
X134490000Y-90928000D02*
X137290000Y-90928000D01*
X139490000Y-90928000D02*
X139850000Y-90928000D01*
X139850000Y-90428000D02*
X139490000Y-90428000D01*
X139850000Y-90478000D02*
X139850000Y-90428000D01*
X139850000Y-90928000D02*
X139850000Y-90478000D01*
%TO.C,TP4*%
X146535000Y-96778000D02*
X146535000Y-97278000D01*
X146535000Y-97278000D02*
X146895000Y-97278000D01*
X146895000Y-96778000D02*
X146535000Y-96778000D01*
X149095000Y-96778000D02*
X151895000Y-96778000D01*
X149095000Y-97278000D02*
X151895000Y-97278000D01*
X154095000Y-97278000D02*
X154455000Y-97278000D01*
X154455000Y-96778000D02*
X154095000Y-96778000D01*
X154455000Y-96828000D02*
X154455000Y-96778000D01*
X154455000Y-97278000D02*
X154455000Y-96828000D01*
D13*
%TO.C,R3*%
X121680500Y-82058742D02*
X121680500Y-82533258D01*
X120635500Y-82058742D02*
X120635500Y-82533258D01*
%TO.C,C8*%
X111889000Y-81039580D02*
X111889000Y-80758420D01*
X110869000Y-81039580D02*
X110869000Y-80758420D01*
%TO.C,C7*%
X147052420Y-77980000D02*
X147333580Y-77980000D01*
X147052420Y-76960000D02*
X147333580Y-76960000D01*
D12*
%TO.C,TP2*%
X124610000Y-90928000D02*
X124610000Y-90428000D01*
X124610000Y-90428000D02*
X124250000Y-90428000D01*
X124250000Y-90928000D02*
X124610000Y-90928000D01*
X122050000Y-90928000D02*
X119250000Y-90928000D01*
X122050000Y-90428000D02*
X119250000Y-90428000D01*
X117050000Y-90428000D02*
X116690000Y-90428000D01*
X116690000Y-90928000D02*
X117050000Y-90928000D01*
X116690000Y-90878000D02*
X116690000Y-90928000D01*
X116690000Y-90428000D02*
X116690000Y-90878000D01*
D13*
%TO.C,J4*%
X143958000Y-87503000D02*
X143958000Y-86173000D01*
X143958000Y-91373000D02*
X146618000Y-91373000D01*
X143958000Y-88773000D02*
X143958000Y-91373000D01*
X143958000Y-88773000D02*
X146618000Y-88773000D01*
X143958000Y-86173000D02*
X145288000Y-86173000D01*
X146618000Y-88773000D02*
X146618000Y-91373000D01*
D12*
%TO.C,TP1*%
X102085000Y-96778000D02*
X102085000Y-97278000D01*
X102085000Y-97278000D02*
X102445000Y-97278000D01*
X102445000Y-96778000D02*
X102085000Y-96778000D01*
X104645000Y-96778000D02*
X107445000Y-96778000D01*
X104645000Y-97278000D02*
X107445000Y-97278000D01*
X109645000Y-97278000D02*
X110005000Y-97278000D01*
X110005000Y-96778000D02*
X109645000Y-96778000D01*
X110005000Y-96828000D02*
X110005000Y-96778000D01*
X110005000Y-97278000D02*
X110005000Y-96828000D01*
D13*
%TO.C,R2*%
X134859500Y-82279258D02*
X134859500Y-81804742D01*
X135904500Y-82279258D02*
X135904500Y-81804742D01*
%TO.C,C2*%
X111889000Y-77978580D02*
X111889000Y-77697420D01*
X110869000Y-77978580D02*
X110869000Y-77697420D01*
%TO.C,C4*%
X108788252Y-78126000D02*
X107365748Y-78126000D01*
X108788252Y-76306000D02*
X107365748Y-76306000D01*
%TO.C,J7*%
X102302000Y-87503000D02*
X102302000Y-86173000D01*
X102302000Y-91373000D02*
X104962000Y-91373000D01*
X102302000Y-88773000D02*
X102302000Y-91373000D01*
X102302000Y-88773000D02*
X104962000Y-88773000D01*
X102302000Y-86173000D02*
X103632000Y-86173000D01*
X104962000Y-88773000D02*
X104962000Y-91373000D01*
%TO.C,C3*%
X144348252Y-85365000D02*
X142925748Y-85365000D01*
X144348252Y-83545000D02*
X142925748Y-83545000D01*
%TO.C,D1*%
X119642000Y-80771000D02*
X121912000Y-80771000D01*
X119642000Y-76886000D02*
X119642000Y-80771000D01*
X121912000Y-80771000D02*
X121912000Y-76886000D01*
%TO.C,J6*%
X106112000Y-87503000D02*
X106112000Y-86173000D01*
X106112000Y-91373000D02*
X108772000Y-91373000D01*
X106112000Y-88773000D02*
X106112000Y-91373000D01*
X106112000Y-88773000D02*
X108772000Y-88773000D01*
X106112000Y-86173000D02*
X107442000Y-86173000D01*
X108772000Y-88773000D02*
X108772000Y-91373000D01*
%TO.C,C1*%
X144539580Y-81913000D02*
X144258420Y-81913000D01*
X144539580Y-82933000D02*
X144258420Y-82933000D01*
%TO.C,R1*%
X134859500Y-79231258D02*
X134859500Y-78756742D01*
X135904500Y-79231258D02*
X135904500Y-78756742D01*
%TO.C,J2*%
X151578000Y-87498000D02*
X151578000Y-86168000D01*
X151578000Y-91368000D02*
X154238000Y-91368000D01*
X151578000Y-88768000D02*
X151578000Y-91368000D01*
X151578000Y-88768000D02*
X154238000Y-88768000D01*
X151578000Y-86168000D02*
X152908000Y-86168000D01*
X154238000Y-88768000D02*
X154238000Y-91368000D01*
%TO.C,U2*%
X146268000Y-78632000D02*
X152278000Y-78632000D01*
X148518000Y-85452000D02*
X152278000Y-85452000D01*
X152278000Y-85452000D02*
X152278000Y-84192000D01*
X152278000Y-78632000D02*
X152278000Y-79892000D01*
%TO.C,J5*%
X109922000Y-87503000D02*
X109922000Y-86173000D01*
X109922000Y-91373000D02*
X112582000Y-91373000D01*
X109922000Y-88773000D02*
X109922000Y-91373000D01*
X109922000Y-88773000D02*
X112582000Y-88773000D01*
X109922000Y-86173000D02*
X111252000Y-86173000D01*
X112582000Y-88773000D02*
X112582000Y-91373000D01*
%TO.C,U1*%
X110272000Y-85452000D02*
X104262000Y-85452000D01*
X108022000Y-78632000D02*
X104262000Y-78632000D01*
X104262000Y-78632000D02*
X104262000Y-79892000D01*
X104262000Y-85452000D02*
X104262000Y-84192000D01*
%TO.C,C6*%
X112191748Y-82656000D02*
X113614252Y-82656000D01*
X112191748Y-84476000D02*
X113614252Y-84476000D01*
%TD*%
M02*
