%TF.GenerationSoftware,KiCad,Pcbnew,7.0.9*%
%TF.CreationDate,2024-01-09T18:55:53-07:00*%
%TF.ProjectId,Breadboard Power Supply,42726561-6462-46f6-9172-6420506f7765,v10*%
%TF.SameCoordinates,Original*%
%TF.FileFunction,Legend,Bot*%
%TF.FilePolarity,Positive*%
%FSLAX46Y46*%
G04 Gerber Fmt 4.6, Leading zero omitted, Abs format (unit mm)*
G04 Created by KiCad (PCBNEW 7.0.9) date 2024-01-09 18:55:53*
%MOMM*%
%LPD*%
G01*
G04 APERTURE LIST*
%ADD10C,0.150000*%
%ADD11C,0.200000*%
%ADD12C,0.100000*%
%ADD13C,0.010000*%
%ADD14C,0.120000*%
G04 APERTURE END LIST*
D10*
X103314428Y-76155961D02*
X103123952Y-76689295D01*
X103123952Y-76689295D02*
X102933475Y-76155961D01*
X102209666Y-76689295D02*
X102666809Y-76689295D01*
X102438237Y-76689295D02*
X102438237Y-75889295D01*
X102438237Y-75889295D02*
X102514428Y-76003580D01*
X102514428Y-76003580D02*
X102590618Y-76079771D01*
X102590618Y-76079771D02*
X102666809Y-76117866D01*
D11*
X110497476Y-78455409D02*
X110354619Y-78503028D01*
X110354619Y-78503028D02*
X110307000Y-78550647D01*
X110307000Y-78550647D02*
X110259381Y-78645885D01*
X110259381Y-78645885D02*
X110259381Y-78788742D01*
X110259381Y-78788742D02*
X110307000Y-78883980D01*
X110307000Y-78883980D02*
X110354619Y-78931600D01*
X110354619Y-78931600D02*
X110449857Y-78979219D01*
X110449857Y-78979219D02*
X110830809Y-78979219D01*
X110830809Y-78979219D02*
X110830809Y-77979219D01*
X110830809Y-77979219D02*
X110497476Y-77979219D01*
X110497476Y-77979219D02*
X110402238Y-78026838D01*
X110402238Y-78026838D02*
X110354619Y-78074457D01*
X110354619Y-78074457D02*
X110307000Y-78169695D01*
X110307000Y-78169695D02*
X110307000Y-78264933D01*
X110307000Y-78264933D02*
X110354619Y-78360171D01*
X110354619Y-78360171D02*
X110402238Y-78407790D01*
X110402238Y-78407790D02*
X110497476Y-78455409D01*
X110497476Y-78455409D02*
X110830809Y-78455409D01*
X109830809Y-78979219D02*
X109830809Y-78312552D01*
X109830809Y-78503028D02*
X109783190Y-78407790D01*
X109783190Y-78407790D02*
X109735571Y-78360171D01*
X109735571Y-78360171D02*
X109640333Y-78312552D01*
X109640333Y-78312552D02*
X109545095Y-78312552D01*
X108830809Y-78931600D02*
X108926047Y-78979219D01*
X108926047Y-78979219D02*
X109116523Y-78979219D01*
X109116523Y-78979219D02*
X109211761Y-78931600D01*
X109211761Y-78931600D02*
X109259380Y-78836361D01*
X109259380Y-78836361D02*
X109259380Y-78455409D01*
X109259380Y-78455409D02*
X109211761Y-78360171D01*
X109211761Y-78360171D02*
X109116523Y-78312552D01*
X109116523Y-78312552D02*
X108926047Y-78312552D01*
X108926047Y-78312552D02*
X108830809Y-78360171D01*
X108830809Y-78360171D02*
X108783190Y-78455409D01*
X108783190Y-78455409D02*
X108783190Y-78550647D01*
X108783190Y-78550647D02*
X109259380Y-78645885D01*
X107926047Y-78979219D02*
X107926047Y-78455409D01*
X107926047Y-78455409D02*
X107973666Y-78360171D01*
X107973666Y-78360171D02*
X108068904Y-78312552D01*
X108068904Y-78312552D02*
X108259380Y-78312552D01*
X108259380Y-78312552D02*
X108354618Y-78360171D01*
X107926047Y-78931600D02*
X108021285Y-78979219D01*
X108021285Y-78979219D02*
X108259380Y-78979219D01*
X108259380Y-78979219D02*
X108354618Y-78931600D01*
X108354618Y-78931600D02*
X108402237Y-78836361D01*
X108402237Y-78836361D02*
X108402237Y-78741123D01*
X108402237Y-78741123D02*
X108354618Y-78645885D01*
X108354618Y-78645885D02*
X108259380Y-78598266D01*
X108259380Y-78598266D02*
X108021285Y-78598266D01*
X108021285Y-78598266D02*
X107926047Y-78550647D01*
X107021285Y-78979219D02*
X107021285Y-77979219D01*
X107021285Y-78931600D02*
X107116523Y-78979219D01*
X107116523Y-78979219D02*
X107306999Y-78979219D01*
X107306999Y-78979219D02*
X107402237Y-78931600D01*
X107402237Y-78931600D02*
X107449856Y-78883980D01*
X107449856Y-78883980D02*
X107497475Y-78788742D01*
X107497475Y-78788742D02*
X107497475Y-78503028D01*
X107497475Y-78503028D02*
X107449856Y-78407790D01*
X107449856Y-78407790D02*
X107402237Y-78360171D01*
X107402237Y-78360171D02*
X107306999Y-78312552D01*
X107306999Y-78312552D02*
X107116523Y-78312552D01*
X107116523Y-78312552D02*
X107021285Y-78360171D01*
X106545094Y-78979219D02*
X106545094Y-77979219D01*
X106545094Y-78360171D02*
X106449856Y-78312552D01*
X106449856Y-78312552D02*
X106259380Y-78312552D01*
X106259380Y-78312552D02*
X106164142Y-78360171D01*
X106164142Y-78360171D02*
X106116523Y-78407790D01*
X106116523Y-78407790D02*
X106068904Y-78503028D01*
X106068904Y-78503028D02*
X106068904Y-78788742D01*
X106068904Y-78788742D02*
X106116523Y-78883980D01*
X106116523Y-78883980D02*
X106164142Y-78931600D01*
X106164142Y-78931600D02*
X106259380Y-78979219D01*
X106259380Y-78979219D02*
X106449856Y-78979219D01*
X106449856Y-78979219D02*
X106545094Y-78931600D01*
X105497475Y-78979219D02*
X105592713Y-78931600D01*
X105592713Y-78931600D02*
X105640332Y-78883980D01*
X105640332Y-78883980D02*
X105687951Y-78788742D01*
X105687951Y-78788742D02*
X105687951Y-78503028D01*
X105687951Y-78503028D02*
X105640332Y-78407790D01*
X105640332Y-78407790D02*
X105592713Y-78360171D01*
X105592713Y-78360171D02*
X105497475Y-78312552D01*
X105497475Y-78312552D02*
X105354618Y-78312552D01*
X105354618Y-78312552D02*
X105259380Y-78360171D01*
X105259380Y-78360171D02*
X105211761Y-78407790D01*
X105211761Y-78407790D02*
X105164142Y-78503028D01*
X105164142Y-78503028D02*
X105164142Y-78788742D01*
X105164142Y-78788742D02*
X105211761Y-78883980D01*
X105211761Y-78883980D02*
X105259380Y-78931600D01*
X105259380Y-78931600D02*
X105354618Y-78979219D01*
X105354618Y-78979219D02*
X105497475Y-78979219D01*
X104306999Y-78979219D02*
X104306999Y-78455409D01*
X104306999Y-78455409D02*
X104354618Y-78360171D01*
X104354618Y-78360171D02*
X104449856Y-78312552D01*
X104449856Y-78312552D02*
X104640332Y-78312552D01*
X104640332Y-78312552D02*
X104735570Y-78360171D01*
X104306999Y-78931600D02*
X104402237Y-78979219D01*
X104402237Y-78979219D02*
X104640332Y-78979219D01*
X104640332Y-78979219D02*
X104735570Y-78931600D01*
X104735570Y-78931600D02*
X104783189Y-78836361D01*
X104783189Y-78836361D02*
X104783189Y-78741123D01*
X104783189Y-78741123D02*
X104735570Y-78645885D01*
X104735570Y-78645885D02*
X104640332Y-78598266D01*
X104640332Y-78598266D02*
X104402237Y-78598266D01*
X104402237Y-78598266D02*
X104306999Y-78550647D01*
X103830808Y-78979219D02*
X103830808Y-78312552D01*
X103830808Y-78503028D02*
X103783189Y-78407790D01*
X103783189Y-78407790D02*
X103735570Y-78360171D01*
X103735570Y-78360171D02*
X103640332Y-78312552D01*
X103640332Y-78312552D02*
X103545094Y-78312552D01*
X102783189Y-78979219D02*
X102783189Y-77979219D01*
X102783189Y-78931600D02*
X102878427Y-78979219D01*
X102878427Y-78979219D02*
X103068903Y-78979219D01*
X103068903Y-78979219D02*
X103164141Y-78931600D01*
X103164141Y-78931600D02*
X103211760Y-78883980D01*
X103211760Y-78883980D02*
X103259379Y-78788742D01*
X103259379Y-78788742D02*
X103259379Y-78503028D01*
X103259379Y-78503028D02*
X103211760Y-78407790D01*
X103211760Y-78407790D02*
X103164141Y-78360171D01*
X103164141Y-78360171D02*
X103068903Y-78312552D01*
X103068903Y-78312552D02*
X102878427Y-78312552D01*
X102878427Y-78312552D02*
X102783189Y-78360171D01*
X108783190Y-80589219D02*
X108783190Y-79589219D01*
X108783190Y-79589219D02*
X108402238Y-79589219D01*
X108402238Y-79589219D02*
X108307000Y-79636838D01*
X108307000Y-79636838D02*
X108259381Y-79684457D01*
X108259381Y-79684457D02*
X108211762Y-79779695D01*
X108211762Y-79779695D02*
X108211762Y-79922552D01*
X108211762Y-79922552D02*
X108259381Y-80017790D01*
X108259381Y-80017790D02*
X108307000Y-80065409D01*
X108307000Y-80065409D02*
X108402238Y-80113028D01*
X108402238Y-80113028D02*
X108783190Y-80113028D01*
X107640333Y-80589219D02*
X107735571Y-80541600D01*
X107735571Y-80541600D02*
X107783190Y-80493980D01*
X107783190Y-80493980D02*
X107830809Y-80398742D01*
X107830809Y-80398742D02*
X107830809Y-80113028D01*
X107830809Y-80113028D02*
X107783190Y-80017790D01*
X107783190Y-80017790D02*
X107735571Y-79970171D01*
X107735571Y-79970171D02*
X107640333Y-79922552D01*
X107640333Y-79922552D02*
X107497476Y-79922552D01*
X107497476Y-79922552D02*
X107402238Y-79970171D01*
X107402238Y-79970171D02*
X107354619Y-80017790D01*
X107354619Y-80017790D02*
X107307000Y-80113028D01*
X107307000Y-80113028D02*
X107307000Y-80398742D01*
X107307000Y-80398742D02*
X107354619Y-80493980D01*
X107354619Y-80493980D02*
X107402238Y-80541600D01*
X107402238Y-80541600D02*
X107497476Y-80589219D01*
X107497476Y-80589219D02*
X107640333Y-80589219D01*
X106973666Y-79922552D02*
X106783190Y-80589219D01*
X106783190Y-80589219D02*
X106592714Y-80113028D01*
X106592714Y-80113028D02*
X106402238Y-80589219D01*
X106402238Y-80589219D02*
X106211762Y-79922552D01*
X105449857Y-80541600D02*
X105545095Y-80589219D01*
X105545095Y-80589219D02*
X105735571Y-80589219D01*
X105735571Y-80589219D02*
X105830809Y-80541600D01*
X105830809Y-80541600D02*
X105878428Y-80446361D01*
X105878428Y-80446361D02*
X105878428Y-80065409D01*
X105878428Y-80065409D02*
X105830809Y-79970171D01*
X105830809Y-79970171D02*
X105735571Y-79922552D01*
X105735571Y-79922552D02*
X105545095Y-79922552D01*
X105545095Y-79922552D02*
X105449857Y-79970171D01*
X105449857Y-79970171D02*
X105402238Y-80065409D01*
X105402238Y-80065409D02*
X105402238Y-80160647D01*
X105402238Y-80160647D02*
X105878428Y-80255885D01*
X104973666Y-80589219D02*
X104973666Y-79922552D01*
X104973666Y-80113028D02*
X104926047Y-80017790D01*
X104926047Y-80017790D02*
X104878428Y-79970171D01*
X104878428Y-79970171D02*
X104783190Y-79922552D01*
X104783190Y-79922552D02*
X104687952Y-79922552D01*
X109092714Y-82151600D02*
X108949857Y-82199219D01*
X108949857Y-82199219D02*
X108711762Y-82199219D01*
X108711762Y-82199219D02*
X108616524Y-82151600D01*
X108616524Y-82151600D02*
X108568905Y-82103980D01*
X108568905Y-82103980D02*
X108521286Y-82008742D01*
X108521286Y-82008742D02*
X108521286Y-81913504D01*
X108521286Y-81913504D02*
X108568905Y-81818266D01*
X108568905Y-81818266D02*
X108616524Y-81770647D01*
X108616524Y-81770647D02*
X108711762Y-81723028D01*
X108711762Y-81723028D02*
X108902238Y-81675409D01*
X108902238Y-81675409D02*
X108997476Y-81627790D01*
X108997476Y-81627790D02*
X109045095Y-81580171D01*
X109045095Y-81580171D02*
X109092714Y-81484933D01*
X109092714Y-81484933D02*
X109092714Y-81389695D01*
X109092714Y-81389695D02*
X109045095Y-81294457D01*
X109045095Y-81294457D02*
X108997476Y-81246838D01*
X108997476Y-81246838D02*
X108902238Y-81199219D01*
X108902238Y-81199219D02*
X108664143Y-81199219D01*
X108664143Y-81199219D02*
X108521286Y-81246838D01*
X107664143Y-81532552D02*
X107664143Y-82199219D01*
X108092714Y-81532552D02*
X108092714Y-82056361D01*
X108092714Y-82056361D02*
X108045095Y-82151600D01*
X108045095Y-82151600D02*
X107949857Y-82199219D01*
X107949857Y-82199219D02*
X107807000Y-82199219D01*
X107807000Y-82199219D02*
X107711762Y-82151600D01*
X107711762Y-82151600D02*
X107664143Y-82103980D01*
X107187952Y-81532552D02*
X107187952Y-82532552D01*
X107187952Y-81580171D02*
X107092714Y-81532552D01*
X107092714Y-81532552D02*
X106902238Y-81532552D01*
X106902238Y-81532552D02*
X106807000Y-81580171D01*
X106807000Y-81580171D02*
X106759381Y-81627790D01*
X106759381Y-81627790D02*
X106711762Y-81723028D01*
X106711762Y-81723028D02*
X106711762Y-82008742D01*
X106711762Y-82008742D02*
X106759381Y-82103980D01*
X106759381Y-82103980D02*
X106807000Y-82151600D01*
X106807000Y-82151600D02*
X106902238Y-82199219D01*
X106902238Y-82199219D02*
X107092714Y-82199219D01*
X107092714Y-82199219D02*
X107187952Y-82151600D01*
X106283190Y-81532552D02*
X106283190Y-82532552D01*
X106283190Y-81580171D02*
X106187952Y-81532552D01*
X106187952Y-81532552D02*
X105997476Y-81532552D01*
X105997476Y-81532552D02*
X105902238Y-81580171D01*
X105902238Y-81580171D02*
X105854619Y-81627790D01*
X105854619Y-81627790D02*
X105807000Y-81723028D01*
X105807000Y-81723028D02*
X105807000Y-82008742D01*
X105807000Y-82008742D02*
X105854619Y-82103980D01*
X105854619Y-82103980D02*
X105902238Y-82151600D01*
X105902238Y-82151600D02*
X105997476Y-82199219D01*
X105997476Y-82199219D02*
X106187952Y-82199219D01*
X106187952Y-82199219D02*
X106283190Y-82151600D01*
X105235571Y-82199219D02*
X105330809Y-82151600D01*
X105330809Y-82151600D02*
X105378428Y-82056361D01*
X105378428Y-82056361D02*
X105378428Y-81199219D01*
X104949856Y-81532552D02*
X104711761Y-82199219D01*
X104473666Y-81532552D02*
X104711761Y-82199219D01*
X104711761Y-82199219D02*
X104806999Y-82437314D01*
X104806999Y-82437314D02*
X104854618Y-82484933D01*
X104854618Y-82484933D02*
X104949856Y-82532552D01*
D10*
X154120238Y-83267961D02*
X154120238Y-83915580D01*
X154120238Y-83915580D02*
X154158333Y-83991771D01*
X154158333Y-83991771D02*
X154196429Y-84029866D01*
X154196429Y-84029866D02*
X154272619Y-84067961D01*
X154272619Y-84067961D02*
X154386905Y-84067961D01*
X154386905Y-84067961D02*
X154463095Y-84029866D01*
X154120238Y-83763200D02*
X154196429Y-83801295D01*
X154196429Y-83801295D02*
X154348810Y-83801295D01*
X154348810Y-83801295D02*
X154425000Y-83763200D01*
X154425000Y-83763200D02*
X154463095Y-83725104D01*
X154463095Y-83725104D02*
X154501191Y-83648914D01*
X154501191Y-83648914D02*
X154501191Y-83420342D01*
X154501191Y-83420342D02*
X154463095Y-83344152D01*
X154463095Y-83344152D02*
X154425000Y-83306057D01*
X154425000Y-83306057D02*
X154348810Y-83267961D01*
X154348810Y-83267961D02*
X154196429Y-83267961D01*
X154196429Y-83267961D02*
X154120238Y-83306057D01*
X153739285Y-83801295D02*
X153739285Y-83267961D01*
X153739285Y-83001295D02*
X153777381Y-83039390D01*
X153777381Y-83039390D02*
X153739285Y-83077485D01*
X153739285Y-83077485D02*
X153701190Y-83039390D01*
X153701190Y-83039390D02*
X153739285Y-83001295D01*
X153739285Y-83001295D02*
X153739285Y-83077485D01*
X153472619Y-83267961D02*
X153167857Y-83267961D01*
X153358333Y-83001295D02*
X153358333Y-83687009D01*
X153358333Y-83687009D02*
X153320238Y-83763200D01*
X153320238Y-83763200D02*
X153244048Y-83801295D01*
X153244048Y-83801295D02*
X153167857Y-83801295D01*
X152901190Y-83801295D02*
X152901190Y-83001295D01*
X152558333Y-83801295D02*
X152558333Y-83382247D01*
X152558333Y-83382247D02*
X152596428Y-83306057D01*
X152596428Y-83306057D02*
X152672619Y-83267961D01*
X152672619Y-83267961D02*
X152786905Y-83267961D01*
X152786905Y-83267961D02*
X152863095Y-83306057D01*
X152863095Y-83306057D02*
X152901190Y-83344152D01*
X151834523Y-83267961D02*
X151834523Y-83801295D01*
X152177380Y-83267961D02*
X152177380Y-83687009D01*
X152177380Y-83687009D02*
X152139285Y-83763200D01*
X152139285Y-83763200D02*
X152063095Y-83801295D01*
X152063095Y-83801295D02*
X151948809Y-83801295D01*
X151948809Y-83801295D02*
X151872618Y-83763200D01*
X151872618Y-83763200D02*
X151834523Y-83725104D01*
X151453570Y-83801295D02*
X151453570Y-83001295D01*
X151453570Y-83306057D02*
X151377380Y-83267961D01*
X151377380Y-83267961D02*
X151224999Y-83267961D01*
X151224999Y-83267961D02*
X151148808Y-83306057D01*
X151148808Y-83306057D02*
X151110713Y-83344152D01*
X151110713Y-83344152D02*
X151072618Y-83420342D01*
X151072618Y-83420342D02*
X151072618Y-83648914D01*
X151072618Y-83648914D02*
X151110713Y-83725104D01*
X151110713Y-83725104D02*
X151148808Y-83763200D01*
X151148808Y-83763200D02*
X151224999Y-83801295D01*
X151224999Y-83801295D02*
X151377380Y-83801295D01*
X151377380Y-83801295D02*
X151453570Y-83763200D01*
X150729760Y-83725104D02*
X150691665Y-83763200D01*
X150691665Y-83763200D02*
X150729760Y-83801295D01*
X150729760Y-83801295D02*
X150767856Y-83763200D01*
X150767856Y-83763200D02*
X150729760Y-83725104D01*
X150729760Y-83725104D02*
X150729760Y-83801295D01*
X150005951Y-83763200D02*
X150082142Y-83801295D01*
X150082142Y-83801295D02*
X150234523Y-83801295D01*
X150234523Y-83801295D02*
X150310713Y-83763200D01*
X150310713Y-83763200D02*
X150348808Y-83725104D01*
X150348808Y-83725104D02*
X150386904Y-83648914D01*
X150386904Y-83648914D02*
X150386904Y-83420342D01*
X150386904Y-83420342D02*
X150348808Y-83344152D01*
X150348808Y-83344152D02*
X150310713Y-83306057D01*
X150310713Y-83306057D02*
X150234523Y-83267961D01*
X150234523Y-83267961D02*
X150082142Y-83267961D01*
X150082142Y-83267961D02*
X150005951Y-83306057D01*
X149548809Y-83801295D02*
X149624999Y-83763200D01*
X149624999Y-83763200D02*
X149663094Y-83725104D01*
X149663094Y-83725104D02*
X149701190Y-83648914D01*
X149701190Y-83648914D02*
X149701190Y-83420342D01*
X149701190Y-83420342D02*
X149663094Y-83344152D01*
X149663094Y-83344152D02*
X149624999Y-83306057D01*
X149624999Y-83306057D02*
X149548809Y-83267961D01*
X149548809Y-83267961D02*
X149434523Y-83267961D01*
X149434523Y-83267961D02*
X149358332Y-83306057D01*
X149358332Y-83306057D02*
X149320237Y-83344152D01*
X149320237Y-83344152D02*
X149282142Y-83420342D01*
X149282142Y-83420342D02*
X149282142Y-83648914D01*
X149282142Y-83648914D02*
X149320237Y-83725104D01*
X149320237Y-83725104D02*
X149358332Y-83763200D01*
X149358332Y-83763200D02*
X149434523Y-83801295D01*
X149434523Y-83801295D02*
X149548809Y-83801295D01*
X148939284Y-83801295D02*
X148939284Y-83267961D01*
X148939284Y-83344152D02*
X148901189Y-83306057D01*
X148901189Y-83306057D02*
X148824999Y-83267961D01*
X148824999Y-83267961D02*
X148710713Y-83267961D01*
X148710713Y-83267961D02*
X148634522Y-83306057D01*
X148634522Y-83306057D02*
X148596427Y-83382247D01*
X148596427Y-83382247D02*
X148596427Y-83801295D01*
X148596427Y-83382247D02*
X148558332Y-83306057D01*
X148558332Y-83306057D02*
X148482141Y-83267961D01*
X148482141Y-83267961D02*
X148367856Y-83267961D01*
X148367856Y-83267961D02*
X148291665Y-83306057D01*
X148291665Y-83306057D02*
X148253570Y-83382247D01*
X148253570Y-83382247D02*
X148253570Y-83801295D01*
X147301189Y-82963200D02*
X147986903Y-83991771D01*
X147148808Y-83267961D02*
X146844046Y-83267961D01*
X147034522Y-83001295D02*
X147034522Y-83687009D01*
X147034522Y-83687009D02*
X146996427Y-83763200D01*
X146996427Y-83763200D02*
X146920237Y-83801295D01*
X146920237Y-83801295D02*
X146844046Y-83801295D01*
X146615475Y-83763200D02*
X146539284Y-83801295D01*
X146539284Y-83801295D02*
X146386903Y-83801295D01*
X146386903Y-83801295D02*
X146310713Y-83763200D01*
X146310713Y-83763200D02*
X146272617Y-83687009D01*
X146272617Y-83687009D02*
X146272617Y-83648914D01*
X146272617Y-83648914D02*
X146310713Y-83572723D01*
X146310713Y-83572723D02*
X146386903Y-83534628D01*
X146386903Y-83534628D02*
X146501189Y-83534628D01*
X146501189Y-83534628D02*
X146577379Y-83496533D01*
X146577379Y-83496533D02*
X146615475Y-83420342D01*
X146615475Y-83420342D02*
X146615475Y-83382247D01*
X146615475Y-83382247D02*
X146577379Y-83306057D01*
X146577379Y-83306057D02*
X146501189Y-83267961D01*
X146501189Y-83267961D02*
X146386903Y-83267961D01*
X146386903Y-83267961D02*
X146310713Y-83306057D01*
X146044046Y-83267961D02*
X145739284Y-83267961D01*
X145929760Y-83001295D02*
X145929760Y-83687009D01*
X145929760Y-83687009D02*
X145891665Y-83763200D01*
X145891665Y-83763200D02*
X145815475Y-83801295D01*
X145815475Y-83801295D02*
X145739284Y-83801295D01*
X145472617Y-83801295D02*
X145472617Y-83267961D01*
X145472617Y-83001295D02*
X145510713Y-83039390D01*
X145510713Y-83039390D02*
X145472617Y-83077485D01*
X145472617Y-83077485D02*
X145434522Y-83039390D01*
X145434522Y-83039390D02*
X145472617Y-83001295D01*
X145472617Y-83001295D02*
X145472617Y-83077485D01*
X144977380Y-83801295D02*
X145053570Y-83763200D01*
X145053570Y-83763200D02*
X145091665Y-83687009D01*
X145091665Y-83687009D02*
X145091665Y-83001295D01*
X144558332Y-83801295D02*
X144634522Y-83763200D01*
X144634522Y-83763200D02*
X144672617Y-83687009D01*
X144672617Y-83687009D02*
X144672617Y-83001295D01*
X144291665Y-83763200D02*
X144215474Y-83801295D01*
X144215474Y-83801295D02*
X144063093Y-83801295D01*
X144063093Y-83801295D02*
X143986903Y-83763200D01*
X143986903Y-83763200D02*
X143948807Y-83687009D01*
X143948807Y-83687009D02*
X143948807Y-83648914D01*
X143948807Y-83648914D02*
X143986903Y-83572723D01*
X143986903Y-83572723D02*
X144063093Y-83534628D01*
X144063093Y-83534628D02*
X144177379Y-83534628D01*
X144177379Y-83534628D02*
X144253569Y-83496533D01*
X144253569Y-83496533D02*
X144291665Y-83420342D01*
X144291665Y-83420342D02*
X144291665Y-83382247D01*
X144291665Y-83382247D02*
X144253569Y-83306057D01*
X144253569Y-83306057D02*
X144177379Y-83267961D01*
X144177379Y-83267961D02*
X144063093Y-83267961D01*
X144063093Y-83267961D02*
X143986903Y-83306057D01*
D12*
X145277666Y-76776466D02*
X145310999Y-76809800D01*
X145310999Y-76809800D02*
X145410999Y-76843133D01*
X145410999Y-76843133D02*
X145477666Y-76843133D01*
X145477666Y-76843133D02*
X145577666Y-76809800D01*
X145577666Y-76809800D02*
X145644333Y-76743133D01*
X145644333Y-76743133D02*
X145677666Y-76676466D01*
X145677666Y-76676466D02*
X145710999Y-76543133D01*
X145710999Y-76543133D02*
X145710999Y-76443133D01*
X145710999Y-76443133D02*
X145677666Y-76309800D01*
X145677666Y-76309800D02*
X145644333Y-76243133D01*
X145644333Y-76243133D02*
X145577666Y-76176466D01*
X145577666Y-76176466D02*
X145477666Y-76143133D01*
X145477666Y-76143133D02*
X145410999Y-76143133D01*
X145410999Y-76143133D02*
X145310999Y-76176466D01*
X145310999Y-76176466D02*
X145277666Y-76209800D01*
X145044333Y-76143133D02*
X144577666Y-76143133D01*
X144577666Y-76143133D02*
X144877666Y-76843133D01*
D11*
X128119094Y-78049219D02*
X128119094Y-77049219D01*
X128119094Y-77049219D02*
X127880999Y-77049219D01*
X127880999Y-77049219D02*
X127738142Y-77096838D01*
X127738142Y-77096838D02*
X127642904Y-77192076D01*
X127642904Y-77192076D02*
X127595285Y-77287314D01*
X127595285Y-77287314D02*
X127547666Y-77477790D01*
X127547666Y-77477790D02*
X127547666Y-77620647D01*
X127547666Y-77620647D02*
X127595285Y-77811123D01*
X127595285Y-77811123D02*
X127642904Y-77906361D01*
X127642904Y-77906361D02*
X127738142Y-78001600D01*
X127738142Y-78001600D02*
X127880999Y-78049219D01*
X127880999Y-78049219D02*
X128119094Y-78049219D01*
X127166713Y-77144457D02*
X127119094Y-77096838D01*
X127119094Y-77096838D02*
X127023856Y-77049219D01*
X127023856Y-77049219D02*
X126785761Y-77049219D01*
X126785761Y-77049219D02*
X126690523Y-77096838D01*
X126690523Y-77096838D02*
X126642904Y-77144457D01*
X126642904Y-77144457D02*
X126595285Y-77239695D01*
X126595285Y-77239695D02*
X126595285Y-77334933D01*
X126595285Y-77334933D02*
X126642904Y-77477790D01*
X126642904Y-77477790D02*
X127214332Y-78049219D01*
X127214332Y-78049219D02*
X126595285Y-78049219D01*
D12*
X114866666Y-83086133D02*
X114866666Y-83586133D01*
X114866666Y-83586133D02*
X114899999Y-83686133D01*
X114899999Y-83686133D02*
X114966666Y-83752800D01*
X114966666Y-83752800D02*
X115066666Y-83786133D01*
X115066666Y-83786133D02*
X115133333Y-83786133D01*
X114166666Y-83786133D02*
X114566666Y-83786133D01*
X114366666Y-83786133D02*
X114366666Y-83086133D01*
X114366666Y-83086133D02*
X114433333Y-83186133D01*
X114433333Y-83186133D02*
X114500000Y-83252800D01*
X114500000Y-83252800D02*
X114566666Y-83286133D01*
X113733333Y-83086133D02*
X113666666Y-83086133D01*
X113666666Y-83086133D02*
X113599999Y-83119466D01*
X113599999Y-83119466D02*
X113566666Y-83152800D01*
X113566666Y-83152800D02*
X113533333Y-83219466D01*
X113533333Y-83219466D02*
X113499999Y-83352800D01*
X113499999Y-83352800D02*
X113499999Y-83519466D01*
X113499999Y-83519466D02*
X113533333Y-83652800D01*
X113533333Y-83652800D02*
X113566666Y-83719466D01*
X113566666Y-83719466D02*
X113599999Y-83752800D01*
X113599999Y-83752800D02*
X113666666Y-83786133D01*
X113666666Y-83786133D02*
X113733333Y-83786133D01*
X113733333Y-83786133D02*
X113799999Y-83752800D01*
X113799999Y-83752800D02*
X113833333Y-83719466D01*
X113833333Y-83719466D02*
X113866666Y-83652800D01*
X113866666Y-83652800D02*
X113899999Y-83519466D01*
X113899999Y-83519466D02*
X113899999Y-83352800D01*
X113899999Y-83352800D02*
X113866666Y-83219466D01*
X113866666Y-83219466D02*
X113833333Y-83152800D01*
X113833333Y-83152800D02*
X113799999Y-83119466D01*
X113799999Y-83119466D02*
X113733333Y-83086133D01*
X150855333Y-100837633D02*
X150855333Y-101337633D01*
X150855333Y-101337633D02*
X150888666Y-101437633D01*
X150888666Y-101437633D02*
X150955333Y-101504300D01*
X150955333Y-101504300D02*
X151055333Y-101537633D01*
X151055333Y-101537633D02*
X151122000Y-101537633D01*
X150422000Y-101137633D02*
X150488667Y-101104300D01*
X150488667Y-101104300D02*
X150522000Y-101070966D01*
X150522000Y-101070966D02*
X150555333Y-101004300D01*
X150555333Y-101004300D02*
X150555333Y-100970966D01*
X150555333Y-100970966D02*
X150522000Y-100904300D01*
X150522000Y-100904300D02*
X150488667Y-100870966D01*
X150488667Y-100870966D02*
X150422000Y-100837633D01*
X150422000Y-100837633D02*
X150288667Y-100837633D01*
X150288667Y-100837633D02*
X150222000Y-100870966D01*
X150222000Y-100870966D02*
X150188667Y-100904300D01*
X150188667Y-100904300D02*
X150155333Y-100970966D01*
X150155333Y-100970966D02*
X150155333Y-101004300D01*
X150155333Y-101004300D02*
X150188667Y-101070966D01*
X150188667Y-101070966D02*
X150222000Y-101104300D01*
X150222000Y-101104300D02*
X150288667Y-101137633D01*
X150288667Y-101137633D02*
X150422000Y-101137633D01*
X150422000Y-101137633D02*
X150488667Y-101170966D01*
X150488667Y-101170966D02*
X150522000Y-101204300D01*
X150522000Y-101204300D02*
X150555333Y-101270966D01*
X150555333Y-101270966D02*
X150555333Y-101404300D01*
X150555333Y-101404300D02*
X150522000Y-101470966D01*
X150522000Y-101470966D02*
X150488667Y-101504300D01*
X150488667Y-101504300D02*
X150422000Y-101537633D01*
X150422000Y-101537633D02*
X150288667Y-101537633D01*
X150288667Y-101537633D02*
X150222000Y-101504300D01*
X150222000Y-101504300D02*
X150188667Y-101470966D01*
X150188667Y-101470966D02*
X150155333Y-101404300D01*
X150155333Y-101404300D02*
X150155333Y-101270966D01*
X150155333Y-101270966D02*
X150188667Y-101204300D01*
X150188667Y-101204300D02*
X150222000Y-101170966D01*
X150222000Y-101170966D02*
X150288667Y-101137633D01*
D10*
X123552792Y-80491460D02*
X123886125Y-80015269D01*
X124124220Y-80491460D02*
X124124220Y-79491460D01*
X124124220Y-79491460D02*
X123743268Y-79491460D01*
X123743268Y-79491460D02*
X123648030Y-79539079D01*
X123648030Y-79539079D02*
X123600411Y-79586698D01*
X123600411Y-79586698D02*
X123552792Y-79681936D01*
X123552792Y-79681936D02*
X123552792Y-79824793D01*
X123552792Y-79824793D02*
X123600411Y-79920031D01*
X123600411Y-79920031D02*
X123648030Y-79967650D01*
X123648030Y-79967650D02*
X123743268Y-80015269D01*
X123743268Y-80015269D02*
X124124220Y-80015269D01*
X122600411Y-80491460D02*
X123171839Y-80491460D01*
X122886125Y-80491460D02*
X122886125Y-79491460D01*
X122886125Y-79491460D02*
X122981363Y-79634317D01*
X122981363Y-79634317D02*
X123076601Y-79729555D01*
X123076601Y-79729555D02*
X123171839Y-79777174D01*
X121981363Y-79491460D02*
X121886125Y-79491460D01*
X121886125Y-79491460D02*
X121790887Y-79539079D01*
X121790887Y-79539079D02*
X121743268Y-79586698D01*
X121743268Y-79586698D02*
X121695649Y-79681936D01*
X121695649Y-79681936D02*
X121648030Y-79872412D01*
X121648030Y-79872412D02*
X121648030Y-80110507D01*
X121648030Y-80110507D02*
X121695649Y-80300983D01*
X121695649Y-80300983D02*
X121743268Y-80396221D01*
X121743268Y-80396221D02*
X121790887Y-80443841D01*
X121790887Y-80443841D02*
X121886125Y-80491460D01*
X121886125Y-80491460D02*
X121981363Y-80491460D01*
X121981363Y-80491460D02*
X122076601Y-80443841D01*
X122076601Y-80443841D02*
X122124220Y-80396221D01*
X122124220Y-80396221D02*
X122171839Y-80300983D01*
X122171839Y-80300983D02*
X122219458Y-80110507D01*
X122219458Y-80110507D02*
X122219458Y-79872412D01*
X122219458Y-79872412D02*
X122171839Y-79681936D01*
X122171839Y-79681936D02*
X122124220Y-79586698D01*
X122124220Y-79586698D02*
X122076601Y-79539079D01*
X122076601Y-79539079D02*
X121981363Y-79491460D01*
X137167857Y-77625580D02*
X137215476Y-77673200D01*
X137215476Y-77673200D02*
X137358333Y-77720819D01*
X137358333Y-77720819D02*
X137453571Y-77720819D01*
X137453571Y-77720819D02*
X137596428Y-77673200D01*
X137596428Y-77673200D02*
X137691666Y-77577961D01*
X137691666Y-77577961D02*
X137739285Y-77482723D01*
X137739285Y-77482723D02*
X137786904Y-77292247D01*
X137786904Y-77292247D02*
X137786904Y-77149390D01*
X137786904Y-77149390D02*
X137739285Y-76958914D01*
X137739285Y-76958914D02*
X137691666Y-76863676D01*
X137691666Y-76863676D02*
X137596428Y-76768438D01*
X137596428Y-76768438D02*
X137453571Y-76720819D01*
X137453571Y-76720819D02*
X137358333Y-76720819D01*
X137358333Y-76720819D02*
X137215476Y-76768438D01*
X137215476Y-76768438D02*
X137167857Y-76816057D01*
X136215476Y-77720819D02*
X136786904Y-77720819D01*
X136501190Y-77720819D02*
X136501190Y-76720819D01*
X136501190Y-76720819D02*
X136596428Y-76863676D01*
X136596428Y-76863676D02*
X136691666Y-76958914D01*
X136691666Y-76958914D02*
X136786904Y-77006533D01*
X135263095Y-77720819D02*
X135834523Y-77720819D01*
X135548809Y-77720819D02*
X135548809Y-76720819D01*
X135548809Y-76720819D02*
X135644047Y-76863676D01*
X135644047Y-76863676D02*
X135739285Y-76958914D01*
X135739285Y-76958914D02*
X135834523Y-77006533D01*
D12*
X142806666Y-83086133D02*
X142806666Y-83586133D01*
X142806666Y-83586133D02*
X142839999Y-83686133D01*
X142839999Y-83686133D02*
X142906666Y-83752800D01*
X142906666Y-83752800D02*
X143006666Y-83786133D01*
X143006666Y-83786133D02*
X143073333Y-83786133D01*
X142106666Y-83786133D02*
X142506666Y-83786133D01*
X142306666Y-83786133D02*
X142306666Y-83086133D01*
X142306666Y-83086133D02*
X142373333Y-83186133D01*
X142373333Y-83186133D02*
X142440000Y-83252800D01*
X142440000Y-83252800D02*
X142506666Y-83286133D01*
X141439999Y-83786133D02*
X141839999Y-83786133D01*
X141639999Y-83786133D02*
X141639999Y-83086133D01*
X141639999Y-83086133D02*
X141706666Y-83186133D01*
X141706666Y-83186133D02*
X141773333Y-83252800D01*
X141773333Y-83252800D02*
X141839999Y-83286133D01*
D10*
X134598580Y-80955458D02*
X134646200Y-80907839D01*
X134646200Y-80907839D02*
X134693819Y-80764982D01*
X134693819Y-80764982D02*
X134693819Y-80669744D01*
X134693819Y-80669744D02*
X134646200Y-80526887D01*
X134646200Y-80526887D02*
X134550961Y-80431649D01*
X134550961Y-80431649D02*
X134455723Y-80384030D01*
X134455723Y-80384030D02*
X134265247Y-80336411D01*
X134265247Y-80336411D02*
X134122390Y-80336411D01*
X134122390Y-80336411D02*
X133931914Y-80384030D01*
X133931914Y-80384030D02*
X133836676Y-80431649D01*
X133836676Y-80431649D02*
X133741438Y-80526887D01*
X133741438Y-80526887D02*
X133693819Y-80669744D01*
X133693819Y-80669744D02*
X133693819Y-80764982D01*
X133693819Y-80764982D02*
X133741438Y-80907839D01*
X133741438Y-80907839D02*
X133789057Y-80955458D01*
X134693819Y-81907839D02*
X134693819Y-81336411D01*
X134693819Y-81622125D02*
X133693819Y-81622125D01*
X133693819Y-81622125D02*
X133836676Y-81526887D01*
X133836676Y-81526887D02*
X133931914Y-81431649D01*
X133931914Y-81431649D02*
X133979533Y-81336411D01*
D12*
X145277666Y-79849133D02*
X145510999Y-79515800D01*
X145677666Y-79849133D02*
X145677666Y-79149133D01*
X145677666Y-79149133D02*
X145410999Y-79149133D01*
X145410999Y-79149133D02*
X145344333Y-79182466D01*
X145344333Y-79182466D02*
X145310999Y-79215800D01*
X145310999Y-79215800D02*
X145277666Y-79282466D01*
X145277666Y-79282466D02*
X145277666Y-79382466D01*
X145277666Y-79382466D02*
X145310999Y-79449133D01*
X145310999Y-79449133D02*
X145344333Y-79482466D01*
X145344333Y-79482466D02*
X145410999Y-79515800D01*
X145410999Y-79515800D02*
X145677666Y-79515800D01*
X144644333Y-79149133D02*
X144977666Y-79149133D01*
X144977666Y-79149133D02*
X145010999Y-79482466D01*
X145010999Y-79482466D02*
X144977666Y-79449133D01*
X144977666Y-79449133D02*
X144910999Y-79415800D01*
X144910999Y-79415800D02*
X144744333Y-79415800D01*
X144744333Y-79415800D02*
X144677666Y-79449133D01*
X144677666Y-79449133D02*
X144644333Y-79482466D01*
X144644333Y-79482466D02*
X144610999Y-79549133D01*
X144610999Y-79549133D02*
X144610999Y-79715800D01*
X144610999Y-79715800D02*
X144644333Y-79782466D01*
X144644333Y-79782466D02*
X144677666Y-79815800D01*
X144677666Y-79815800D02*
X144744333Y-79849133D01*
X144744333Y-79849133D02*
X144910999Y-79849133D01*
X144910999Y-79849133D02*
X144977666Y-79815800D01*
X144977666Y-79815800D02*
X145010999Y-79782466D01*
D10*
X118879857Y-76863580D02*
X118927476Y-76911200D01*
X118927476Y-76911200D02*
X119070333Y-76958819D01*
X119070333Y-76958819D02*
X119165571Y-76958819D01*
X119165571Y-76958819D02*
X119308428Y-76911200D01*
X119308428Y-76911200D02*
X119403666Y-76815961D01*
X119403666Y-76815961D02*
X119451285Y-76720723D01*
X119451285Y-76720723D02*
X119498904Y-76530247D01*
X119498904Y-76530247D02*
X119498904Y-76387390D01*
X119498904Y-76387390D02*
X119451285Y-76196914D01*
X119451285Y-76196914D02*
X119403666Y-76101676D01*
X119403666Y-76101676D02*
X119308428Y-76006438D01*
X119308428Y-76006438D02*
X119165571Y-75958819D01*
X119165571Y-75958819D02*
X119070333Y-75958819D01*
X119070333Y-75958819D02*
X118927476Y-76006438D01*
X118927476Y-76006438D02*
X118879857Y-76054057D01*
X117927476Y-76958819D02*
X118498904Y-76958819D01*
X118213190Y-76958819D02*
X118213190Y-75958819D01*
X118213190Y-75958819D02*
X118308428Y-76101676D01*
X118308428Y-76101676D02*
X118403666Y-76196914D01*
X118403666Y-76196914D02*
X118498904Y-76244533D01*
X117308428Y-75958819D02*
X117213190Y-75958819D01*
X117213190Y-75958819D02*
X117117952Y-76006438D01*
X117117952Y-76006438D02*
X117070333Y-76054057D01*
X117070333Y-76054057D02*
X117022714Y-76149295D01*
X117022714Y-76149295D02*
X116975095Y-76339771D01*
X116975095Y-76339771D02*
X116975095Y-76577866D01*
X116975095Y-76577866D02*
X117022714Y-76768342D01*
X117022714Y-76768342D02*
X117070333Y-76863580D01*
X117070333Y-76863580D02*
X117117952Y-76911200D01*
X117117952Y-76911200D02*
X117213190Y-76958819D01*
X117213190Y-76958819D02*
X117308428Y-76958819D01*
X117308428Y-76958819D02*
X117403666Y-76911200D01*
X117403666Y-76911200D02*
X117451285Y-76863580D01*
X117451285Y-76863580D02*
X117498904Y-76768342D01*
X117498904Y-76768342D02*
X117546523Y-76577866D01*
X117546523Y-76577866D02*
X117546523Y-76339771D01*
X117546523Y-76339771D02*
X117498904Y-76149295D01*
X117498904Y-76149295D02*
X117451285Y-76054057D01*
X117451285Y-76054057D02*
X117403666Y-76006438D01*
X117403666Y-76006438D02*
X117308428Y-75958819D01*
D12*
X106405333Y-100837633D02*
X106405333Y-101337633D01*
X106405333Y-101337633D02*
X106438666Y-101437633D01*
X106438666Y-101437633D02*
X106505333Y-101504300D01*
X106505333Y-101504300D02*
X106605333Y-101537633D01*
X106605333Y-101537633D02*
X106672000Y-101537633D01*
X106038667Y-101537633D02*
X105905333Y-101537633D01*
X105905333Y-101537633D02*
X105838667Y-101504300D01*
X105838667Y-101504300D02*
X105805333Y-101470966D01*
X105805333Y-101470966D02*
X105738667Y-101370966D01*
X105738667Y-101370966D02*
X105705333Y-101237633D01*
X105705333Y-101237633D02*
X105705333Y-100970966D01*
X105705333Y-100970966D02*
X105738667Y-100904300D01*
X105738667Y-100904300D02*
X105772000Y-100870966D01*
X105772000Y-100870966D02*
X105838667Y-100837633D01*
X105838667Y-100837633D02*
X105972000Y-100837633D01*
X105972000Y-100837633D02*
X106038667Y-100870966D01*
X106038667Y-100870966D02*
X106072000Y-100904300D01*
X106072000Y-100904300D02*
X106105333Y-100970966D01*
X106105333Y-100970966D02*
X106105333Y-101137633D01*
X106105333Y-101137633D02*
X106072000Y-101204300D01*
X106072000Y-101204300D02*
X106038667Y-101237633D01*
X106038667Y-101237633D02*
X105972000Y-101270966D01*
X105972000Y-101270966D02*
X105838667Y-101270966D01*
X105838667Y-101270966D02*
X105772000Y-101237633D01*
X105772000Y-101237633D02*
X105738667Y-101204300D01*
X105738667Y-101204300D02*
X105705333Y-101137633D01*
%TO.C,SYM1*%
D13*
X147512128Y-81082945D02*
X147542954Y-81092568D01*
X147580916Y-81108563D01*
X147599296Y-81117159D01*
X147612561Y-81118713D01*
X147615495Y-81106798D01*
X147615498Y-81106461D01*
X147621709Y-81095087D01*
X147643131Y-81089256D01*
X147684653Y-81087614D01*
X147753812Y-81087614D01*
X147753812Y-81691179D01*
X147615495Y-81691179D01*
X147615495Y-81275027D01*
X147581110Y-81243161D01*
X147570368Y-81234104D01*
X147538370Y-81218630D01*
X147498965Y-81218010D01*
X147445312Y-81231664D01*
X147427225Y-81232529D01*
X147406008Y-81219283D01*
X147377768Y-81187800D01*
X147364069Y-81170385D01*
X147347868Y-81145797D01*
X147345371Y-81130145D01*
X147354442Y-81116941D01*
X147382289Y-81100245D01*
X147425540Y-81087030D01*
X147472464Y-81080478D01*
X147512128Y-81082945D01*
G36*
X147512128Y-81082945D02*
G01*
X147542954Y-81092568D01*
X147580916Y-81108563D01*
X147599296Y-81117159D01*
X147612561Y-81118713D01*
X147615495Y-81106798D01*
X147615498Y-81106461D01*
X147621709Y-81095087D01*
X147643131Y-81089256D01*
X147684653Y-81087614D01*
X147753812Y-81087614D01*
X147753812Y-81691179D01*
X147615495Y-81691179D01*
X147615495Y-81275027D01*
X147581110Y-81243161D01*
X147570368Y-81234104D01*
X147538370Y-81218630D01*
X147498965Y-81218010D01*
X147445312Y-81231664D01*
X147427225Y-81232529D01*
X147406008Y-81219283D01*
X147377768Y-81187800D01*
X147364069Y-81170385D01*
X147347868Y-81145797D01*
X147345371Y-81130145D01*
X147354442Y-81116941D01*
X147382289Y-81100245D01*
X147425540Y-81087030D01*
X147472464Y-81080478D01*
X147512128Y-81082945D01*
G37*
X147695265Y-82038965D02*
X147733255Y-82056745D01*
X147766386Y-82082806D01*
X147766386Y-82056745D01*
X147767211Y-82046849D01*
X147774893Y-82036358D01*
X147795667Y-82031725D01*
X147835544Y-82030683D01*
X147904703Y-82030683D01*
X147904703Y-82646822D01*
X147766386Y-82646822D01*
X147766386Y-82446226D01*
X147766369Y-82434710D01*
X147765189Y-82353758D01*
X147762294Y-82287817D01*
X147757888Y-82240258D01*
X147752181Y-82214452D01*
X147746940Y-82204710D01*
X147714676Y-82174156D01*
X147670730Y-82160631D01*
X147622743Y-82166941D01*
X147610973Y-82171217D01*
X147585898Y-82178776D01*
X147568762Y-82176428D01*
X147551518Y-82161064D01*
X147526124Y-82129571D01*
X147484936Y-82077568D01*
X147513886Y-82054125D01*
X147541405Y-82040015D01*
X147589745Y-82030486D01*
X147644230Y-82030174D01*
X147695265Y-82038965D01*
G36*
X147695265Y-82038965D02*
G01*
X147733255Y-82056745D01*
X147766386Y-82082806D01*
X147766386Y-82056745D01*
X147767211Y-82046849D01*
X147774893Y-82036358D01*
X147795667Y-82031725D01*
X147835544Y-82030683D01*
X147904703Y-82030683D01*
X147904703Y-82646822D01*
X147766386Y-82646822D01*
X147766386Y-82446226D01*
X147766369Y-82434710D01*
X147765189Y-82353758D01*
X147762294Y-82287817D01*
X147757888Y-82240258D01*
X147752181Y-82214452D01*
X147746940Y-82204710D01*
X147714676Y-82174156D01*
X147670730Y-82160631D01*
X147622743Y-82166941D01*
X147610973Y-82171217D01*
X147585898Y-82178776D01*
X147568762Y-82176428D01*
X147551518Y-82161064D01*
X147526124Y-82129571D01*
X147484936Y-82077568D01*
X147513886Y-82054125D01*
X147541405Y-82040015D01*
X147589745Y-82030486D01*
X147644230Y-82030174D01*
X147695265Y-82038965D01*
G37*
X150318960Y-82646822D02*
X150193218Y-82646822D01*
X150193218Y-82452740D01*
X150193078Y-82407594D01*
X150191649Y-82332823D01*
X150188029Y-82277467D01*
X150181434Y-82237702D01*
X150171079Y-82209700D01*
X150156178Y-82189635D01*
X150135946Y-82173681D01*
X150113859Y-82161792D01*
X150087705Y-82158421D01*
X150050508Y-82165917D01*
X150038555Y-82169038D01*
X150008718Y-82173735D01*
X149987383Y-82167005D01*
X149962655Y-82146177D01*
X149957963Y-82141647D01*
X149932020Y-82113626D01*
X149915291Y-82090843D01*
X149912996Y-82085355D01*
X149917543Y-82065088D01*
X149940602Y-82048884D01*
X149976995Y-82037513D01*
X150021544Y-82031740D01*
X150069072Y-82032334D01*
X150114400Y-82040063D01*
X150152351Y-82055694D01*
X150164381Y-82062993D01*
X150184632Y-82073676D01*
X150192129Y-82071230D01*
X150193218Y-82055647D01*
X150193473Y-82050053D01*
X150199539Y-82037660D01*
X150218356Y-82032020D01*
X150256089Y-82030683D01*
X150318960Y-82030683D01*
X150318960Y-82646822D01*
G36*
X150318960Y-82646822D02*
G01*
X150193218Y-82646822D01*
X150193218Y-82452740D01*
X150193078Y-82407594D01*
X150191649Y-82332823D01*
X150188029Y-82277467D01*
X150181434Y-82237702D01*
X150171079Y-82209700D01*
X150156178Y-82189635D01*
X150135946Y-82173681D01*
X150113859Y-82161792D01*
X150087705Y-82158421D01*
X150050508Y-82165917D01*
X150038555Y-82169038D01*
X150008718Y-82173735D01*
X149987383Y-82167005D01*
X149962655Y-82146177D01*
X149957963Y-82141647D01*
X149932020Y-82113626D01*
X149915291Y-82090843D01*
X149912996Y-82085355D01*
X149917543Y-82065088D01*
X149940602Y-82048884D01*
X149976995Y-82037513D01*
X150021544Y-82031740D01*
X150069072Y-82032334D01*
X150114400Y-82040063D01*
X150152351Y-82055694D01*
X150164381Y-82062993D01*
X150184632Y-82073676D01*
X150192129Y-82071230D01*
X150193218Y-82055647D01*
X150193473Y-82050053D01*
X150199539Y-82037660D01*
X150218356Y-82032020D01*
X150256089Y-82030683D01*
X150318960Y-82030683D01*
X150318960Y-82646822D01*
G37*
X148005297Y-81283342D02*
X148006357Y-81371394D01*
X148010509Y-81442510D01*
X148018921Y-81494199D01*
X148032757Y-81529360D01*
X148053182Y-81550889D01*
X148081364Y-81561682D01*
X148118465Y-81564636D01*
X148153890Y-81562000D01*
X148182500Y-81551679D01*
X148203296Y-81530772D01*
X148217442Y-81496381D01*
X148226103Y-81445610D01*
X148230445Y-81375563D01*
X148231633Y-81283342D01*
X148231633Y-81087614D01*
X148357376Y-81087614D01*
X148357376Y-81323578D01*
X148357160Y-81386561D01*
X148355484Y-81468007D01*
X148351277Y-81530121D01*
X148343521Y-81576458D01*
X148331196Y-81610573D01*
X148313285Y-81636022D01*
X148288767Y-81656362D01*
X148256623Y-81675147D01*
X148189125Y-81698928D01*
X148118681Y-81700480D01*
X148052264Y-81678580D01*
X148023286Y-81664383D01*
X148008909Y-81662261D01*
X148005297Y-81672293D01*
X147999299Y-81683556D01*
X147977830Y-81689489D01*
X147936138Y-81691179D01*
X147866980Y-81691179D01*
X147866980Y-81087614D01*
X148005297Y-81087614D01*
X148005297Y-81283342D01*
G36*
X148005297Y-81283342D02*
G01*
X148006357Y-81371394D01*
X148010509Y-81442510D01*
X148018921Y-81494199D01*
X148032757Y-81529360D01*
X148053182Y-81550889D01*
X148081364Y-81561682D01*
X148118465Y-81564636D01*
X148153890Y-81562000D01*
X148182500Y-81551679D01*
X148203296Y-81530772D01*
X148217442Y-81496381D01*
X148226103Y-81445610D01*
X148230445Y-81375563D01*
X148231633Y-81283342D01*
X148231633Y-81087614D01*
X148357376Y-81087614D01*
X148357376Y-81323578D01*
X148357160Y-81386561D01*
X148355484Y-81468007D01*
X148351277Y-81530121D01*
X148343521Y-81576458D01*
X148331196Y-81610573D01*
X148313285Y-81636022D01*
X148288767Y-81656362D01*
X148256623Y-81675147D01*
X148189125Y-81698928D01*
X148118681Y-81700480D01*
X148052264Y-81678580D01*
X148023286Y-81664383D01*
X148008909Y-81662261D01*
X148005297Y-81672293D01*
X147999299Y-81683556D01*
X147977830Y-81689489D01*
X147936138Y-81691179D01*
X147866980Y-81691179D01*
X147866980Y-81087614D01*
X148005297Y-81087614D01*
X148005297Y-81283342D01*
G37*
X150107605Y-81086424D02*
X150164926Y-81104434D01*
X150190199Y-81116674D01*
X150202910Y-81117938D01*
X150205792Y-81106798D01*
X150205795Y-81106461D01*
X150212006Y-81095087D01*
X150233428Y-81089256D01*
X150274950Y-81087614D01*
X150344109Y-81087614D01*
X150344109Y-81691179D01*
X150205792Y-81691179D01*
X150205792Y-81483132D01*
X150205697Y-81412879D01*
X150205051Y-81355170D01*
X150203320Y-81314787D01*
X150199974Y-81287615D01*
X150194481Y-81269540D01*
X150186310Y-81256447D01*
X150174928Y-81244221D01*
X150159424Y-81231217D01*
X150114843Y-81213745D01*
X150068047Y-81218873D01*
X150025180Y-81246507D01*
X150012927Y-81259368D01*
X150004132Y-81272384D01*
X149998233Y-81289706D01*
X149994651Y-81315501D01*
X149992809Y-81353939D01*
X149992128Y-81409189D01*
X149992030Y-81485418D01*
X149992030Y-81691179D01*
X149853713Y-81691179D01*
X149853989Y-81467985D01*
X149854008Y-81458044D01*
X149855207Y-81363106D01*
X149858891Y-81289358D01*
X149866006Y-81233214D01*
X149877500Y-81191087D01*
X149894318Y-81159391D01*
X149917409Y-81134541D01*
X149947717Y-81112950D01*
X149979012Y-81098002D01*
X150042037Y-81084421D01*
X150107605Y-81086424D01*
G36*
X150107605Y-81086424D02*
G01*
X150164926Y-81104434D01*
X150190199Y-81116674D01*
X150202910Y-81117938D01*
X150205792Y-81106798D01*
X150205795Y-81106461D01*
X150212006Y-81095087D01*
X150233428Y-81089256D01*
X150274950Y-81087614D01*
X150344109Y-81087614D01*
X150344109Y-81691179D01*
X150205792Y-81691179D01*
X150205792Y-81483132D01*
X150205697Y-81412879D01*
X150205051Y-81355170D01*
X150203320Y-81314787D01*
X150199974Y-81287615D01*
X150194481Y-81269540D01*
X150186310Y-81256447D01*
X150174928Y-81244221D01*
X150159424Y-81231217D01*
X150114843Y-81213745D01*
X150068047Y-81218873D01*
X150025180Y-81246507D01*
X150012927Y-81259368D01*
X150004132Y-81272384D01*
X149998233Y-81289706D01*
X149994651Y-81315501D01*
X149992809Y-81353939D01*
X149992128Y-81409189D01*
X149992030Y-81485418D01*
X149992030Y-81691179D01*
X149853713Y-81691179D01*
X149853989Y-81467985D01*
X149854008Y-81458044D01*
X149855207Y-81363106D01*
X149858891Y-81289358D01*
X149866006Y-81233214D01*
X149877500Y-81191087D01*
X149894318Y-81159391D01*
X149917409Y-81134541D01*
X149947717Y-81112950D01*
X149979012Y-81098002D01*
X150042037Y-81084421D01*
X150107605Y-81086424D01*
G37*
X147158409Y-81090493D02*
X147227021Y-81117224D01*
X147285048Y-81161351D01*
X147327907Y-81221958D01*
X147330801Y-81228137D01*
X147349176Y-81288409D01*
X147358357Y-81360407D01*
X147358285Y-81435369D01*
X147348901Y-81504536D01*
X147330149Y-81559149D01*
X147306995Y-81597212D01*
X147256030Y-81651135D01*
X147192306Y-81685411D01*
X147137785Y-81699272D01*
X147054767Y-81700785D01*
X146975326Y-81679882D01*
X146904879Y-81637464D01*
X146859284Y-81599880D01*
X146900351Y-81557510D01*
X146926296Y-81532409D01*
X146949764Y-81518434D01*
X146971524Y-81521511D01*
X146999356Y-81540287D01*
X147010454Y-81547638D01*
X147057337Y-81562683D01*
X147111224Y-81562673D01*
X147161675Y-81547168D01*
X147180672Y-81534716D01*
X147208537Y-81497946D01*
X147222506Y-81443939D01*
X147223405Y-81370331D01*
X147223403Y-81370289D01*
X147213009Y-81304433D01*
X147190114Y-81258772D01*
X147152439Y-81230528D01*
X147097708Y-81216920D01*
X147063241Y-81215090D01*
X147033126Y-81222584D01*
X147002240Y-81244295D01*
X146962272Y-81277926D01*
X146911656Y-81237250D01*
X146893163Y-81221667D01*
X146870065Y-81199340D01*
X146861039Y-81186183D01*
X146864236Y-81180253D01*
X146882646Y-81162048D01*
X146911973Y-81138895D01*
X146934920Y-81123830D01*
X147007774Y-81092880D01*
X147083799Y-81082073D01*
X147158409Y-81090493D01*
G36*
X147158409Y-81090493D02*
G01*
X147227021Y-81117224D01*
X147285048Y-81161351D01*
X147327907Y-81221958D01*
X147330801Y-81228137D01*
X147349176Y-81288409D01*
X147358357Y-81360407D01*
X147358285Y-81435369D01*
X147348901Y-81504536D01*
X147330149Y-81559149D01*
X147306995Y-81597212D01*
X147256030Y-81651135D01*
X147192306Y-81685411D01*
X147137785Y-81699272D01*
X147054767Y-81700785D01*
X146975326Y-81679882D01*
X146904879Y-81637464D01*
X146859284Y-81599880D01*
X146900351Y-81557510D01*
X146926296Y-81532409D01*
X146949764Y-81518434D01*
X146971524Y-81521511D01*
X146999356Y-81540287D01*
X147010454Y-81547638D01*
X147057337Y-81562683D01*
X147111224Y-81562673D01*
X147161675Y-81547168D01*
X147180672Y-81534716D01*
X147208537Y-81497946D01*
X147222506Y-81443939D01*
X147223405Y-81370331D01*
X147223403Y-81370289D01*
X147213009Y-81304433D01*
X147190114Y-81258772D01*
X147152439Y-81230528D01*
X147097708Y-81216920D01*
X147063241Y-81215090D01*
X147033126Y-81222584D01*
X147002240Y-81244295D01*
X146962272Y-81277926D01*
X146911656Y-81237250D01*
X146893163Y-81221667D01*
X146870065Y-81199340D01*
X146861039Y-81186183D01*
X146864236Y-81180253D01*
X146882646Y-81162048D01*
X146911973Y-81138895D01*
X146934920Y-81123830D01*
X147007774Y-81092880D01*
X147083799Y-81082073D01*
X147158409Y-81090493D01*
G37*
X148957857Y-81432771D02*
X148954349Y-81472565D01*
X148938844Y-81548538D01*
X148911110Y-81606511D01*
X148868898Y-81650300D01*
X148809960Y-81683722D01*
X148787076Y-81691676D01*
X148727812Y-81701601D01*
X148665447Y-81701331D01*
X148612823Y-81690430D01*
X148611789Y-81690034D01*
X148569381Y-81665087D01*
X148526537Y-81626468D01*
X148490986Y-81582306D01*
X148470459Y-81540727D01*
X148464374Y-81510334D01*
X148459164Y-81453429D01*
X148458291Y-81402705D01*
X148584976Y-81402705D01*
X148592549Y-81463545D01*
X148610341Y-81513538D01*
X148637296Y-81546204D01*
X148647513Y-81551812D01*
X148686473Y-81562007D01*
X148731536Y-81564104D01*
X148769448Y-81557020D01*
X148784244Y-81546861D01*
X148805014Y-81511334D01*
X148818083Y-81455732D01*
X148822624Y-81382766D01*
X148822551Y-81361762D01*
X148820974Y-81319203D01*
X148815728Y-81291439D01*
X148804723Y-81270925D01*
X148785868Y-81250112D01*
X148749989Y-81224887D01*
X148703280Y-81214573D01*
X148658151Y-81224396D01*
X148620680Y-81252805D01*
X148596943Y-81298253D01*
X148588675Y-81337497D01*
X148584976Y-81402705D01*
X148458291Y-81402705D01*
X148458049Y-81388621D01*
X148460844Y-81324116D01*
X148467366Y-81268121D01*
X148477432Y-81228842D01*
X148500877Y-81184372D01*
X148550637Y-81129692D01*
X148614238Y-81095055D01*
X148689790Y-81081345D01*
X148775399Y-81089448D01*
X148789644Y-81092899D01*
X148855982Y-81122664D01*
X148905971Y-81171530D01*
X148939612Y-81239501D01*
X148956906Y-81326580D01*
X148957410Y-81382766D01*
X148957857Y-81432771D01*
G36*
X148957857Y-81432771D02*
G01*
X148954349Y-81472565D01*
X148938844Y-81548538D01*
X148911110Y-81606511D01*
X148868898Y-81650300D01*
X148809960Y-81683722D01*
X148787076Y-81691676D01*
X148727812Y-81701601D01*
X148665447Y-81701331D01*
X148612823Y-81690430D01*
X148611789Y-81690034D01*
X148569381Y-81665087D01*
X148526537Y-81626468D01*
X148490986Y-81582306D01*
X148470459Y-81540727D01*
X148464374Y-81510334D01*
X148459164Y-81453429D01*
X148458291Y-81402705D01*
X148584976Y-81402705D01*
X148592549Y-81463545D01*
X148610341Y-81513538D01*
X148637296Y-81546204D01*
X148647513Y-81551812D01*
X148686473Y-81562007D01*
X148731536Y-81564104D01*
X148769448Y-81557020D01*
X148784244Y-81546861D01*
X148805014Y-81511334D01*
X148818083Y-81455732D01*
X148822624Y-81382766D01*
X148822551Y-81361762D01*
X148820974Y-81319203D01*
X148815728Y-81291439D01*
X148804723Y-81270925D01*
X148785868Y-81250112D01*
X148749989Y-81224887D01*
X148703280Y-81214573D01*
X148658151Y-81224396D01*
X148620680Y-81252805D01*
X148596943Y-81298253D01*
X148588675Y-81337497D01*
X148584976Y-81402705D01*
X148458291Y-81402705D01*
X148458049Y-81388621D01*
X148460844Y-81324116D01*
X148467366Y-81268121D01*
X148477432Y-81228842D01*
X148500877Y-81184372D01*
X148550637Y-81129692D01*
X148614238Y-81095055D01*
X148689790Y-81081345D01*
X148775399Y-81089448D01*
X148789644Y-81092899D01*
X148855982Y-81122664D01*
X148905971Y-81171530D01*
X148939612Y-81239501D01*
X148956906Y-81326580D01*
X148957410Y-81382766D01*
X148957857Y-81432771D01*
G37*
X149057997Y-82228130D02*
X149074997Y-82278850D01*
X149095107Y-82334997D01*
X149111899Y-82377532D01*
X149123986Y-82402990D01*
X149129980Y-82407903D01*
X149131426Y-82403630D01*
X149139254Y-82377422D01*
X149151723Y-82333649D01*
X149167447Y-82277211D01*
X149185043Y-82213010D01*
X149232914Y-82036971D01*
X149306007Y-82033152D01*
X149312177Y-82032846D01*
X149351592Y-82032441D01*
X149370533Y-82036487D01*
X149372945Y-82045726D01*
X149369898Y-82054749D01*
X149359874Y-82085632D01*
X149344180Y-82134544D01*
X149323934Y-82197987D01*
X149300256Y-82272462D01*
X149274263Y-82354471D01*
X149181736Y-82646822D01*
X149065993Y-82646822D01*
X149011457Y-82461352D01*
X149001386Y-82427294D01*
X148982775Y-82365378D01*
X148966872Y-82313787D01*
X148955109Y-82277130D01*
X148948918Y-82260018D01*
X148947154Y-82258741D01*
X148938571Y-82269779D01*
X148926316Y-82298969D01*
X148912426Y-82341750D01*
X148911692Y-82344263D01*
X148893096Y-82407400D01*
X148871818Y-82478889D01*
X148852321Y-82543734D01*
X148820705Y-82648122D01*
X148762402Y-82644328D01*
X148704098Y-82640535D01*
X148650098Y-82470782D01*
X148626390Y-82396193D01*
X148599833Y-82312539D01*
X148574404Y-82232342D01*
X148553354Y-82165857D01*
X148510609Y-82030683D01*
X148653612Y-82030683D01*
X148688274Y-82159570D01*
X148697488Y-82193625D01*
X148714915Y-82257115D01*
X148731054Y-82314874D01*
X148743322Y-82357614D01*
X148763709Y-82426773D01*
X148893745Y-82036971D01*
X148943476Y-82033237D01*
X148993206Y-82029504D01*
X149057997Y-82228130D01*
G36*
X149057997Y-82228130D02*
G01*
X149074997Y-82278850D01*
X149095107Y-82334997D01*
X149111899Y-82377532D01*
X149123986Y-82402990D01*
X149129980Y-82407903D01*
X149131426Y-82403630D01*
X149139254Y-82377422D01*
X149151723Y-82333649D01*
X149167447Y-82277211D01*
X149185043Y-82213010D01*
X149232914Y-82036971D01*
X149306007Y-82033152D01*
X149312177Y-82032846D01*
X149351592Y-82032441D01*
X149370533Y-82036487D01*
X149372945Y-82045726D01*
X149369898Y-82054749D01*
X149359874Y-82085632D01*
X149344180Y-82134544D01*
X149323934Y-82197987D01*
X149300256Y-82272462D01*
X149274263Y-82354471D01*
X149181736Y-82646822D01*
X149065993Y-82646822D01*
X149011457Y-82461352D01*
X149001386Y-82427294D01*
X148982775Y-82365378D01*
X148966872Y-82313787D01*
X148955109Y-82277130D01*
X148948918Y-82260018D01*
X148947154Y-82258741D01*
X148938571Y-82269779D01*
X148926316Y-82298969D01*
X148912426Y-82341750D01*
X148911692Y-82344263D01*
X148893096Y-82407400D01*
X148871818Y-82478889D01*
X148852321Y-82543734D01*
X148820705Y-82648122D01*
X148762402Y-82644328D01*
X148704098Y-82640535D01*
X148650098Y-82470782D01*
X148626390Y-82396193D01*
X148599833Y-82312539D01*
X148574404Y-82232342D01*
X148553354Y-82165857D01*
X148510609Y-82030683D01*
X148653612Y-82030683D01*
X148688274Y-82159570D01*
X148697488Y-82193625D01*
X148714915Y-82257115D01*
X148731054Y-82314874D01*
X148743322Y-82357614D01*
X148763709Y-82426773D01*
X148893745Y-82036971D01*
X148943476Y-82033237D01*
X148993206Y-82029504D01*
X149057997Y-82228130D01*
G37*
X152089997Y-81423931D02*
X152088373Y-81463310D01*
X152084688Y-81511332D01*
X152078410Y-81545368D01*
X152068044Y-81572338D01*
X152052092Y-81599158D01*
X152051412Y-81600175D01*
X152012132Y-81643629D01*
X151964072Y-81676772D01*
X151908185Y-81696439D01*
X151834666Y-81702824D01*
X151762609Y-81690268D01*
X151698201Y-81660011D01*
X151647627Y-81613294D01*
X151633108Y-81591221D01*
X151605993Y-81522602D01*
X151592546Y-81437939D01*
X151592776Y-81416523D01*
X151727920Y-81416523D01*
X151728174Y-81456574D01*
X151732421Y-81483313D01*
X151742096Y-81503859D01*
X151758638Y-81525331D01*
X151781593Y-81546639D01*
X151827505Y-81565653D01*
X151876802Y-81562122D01*
X151923917Y-81535694D01*
X151937207Y-81523072D01*
X151951397Y-81501465D01*
X151959266Y-81471094D01*
X151963726Y-81423770D01*
X151964955Y-81388219D01*
X151958224Y-81315620D01*
X151937567Y-81263642D01*
X151902894Y-81231999D01*
X151862249Y-81216847D01*
X151813777Y-81218123D01*
X151768845Y-81243703D01*
X151758103Y-81253442D01*
X151744548Y-81270480D01*
X151736505Y-81292772D01*
X151732043Y-81326947D01*
X151729228Y-81379638D01*
X151727920Y-81416523D01*
X151592776Y-81416523D01*
X151593583Y-81341351D01*
X151594907Y-81327651D01*
X151613374Y-81239908D01*
X151647540Y-81171793D01*
X151697479Y-81123231D01*
X151763261Y-81094148D01*
X151844961Y-81084471D01*
X151875828Y-81085379D01*
X151939128Y-81096493D01*
X151990889Y-81123021D01*
X152039147Y-81168436D01*
X152046865Y-81177551D01*
X152067681Y-81208248D01*
X152081362Y-81243007D01*
X152088948Y-81287056D01*
X152091479Y-81345621D01*
X152090672Y-81388219D01*
X152089997Y-81423931D01*
G36*
X152089997Y-81423931D02*
G01*
X152088373Y-81463310D01*
X152084688Y-81511332D01*
X152078410Y-81545368D01*
X152068044Y-81572338D01*
X152052092Y-81599158D01*
X152051412Y-81600175D01*
X152012132Y-81643629D01*
X151964072Y-81676772D01*
X151908185Y-81696439D01*
X151834666Y-81702824D01*
X151762609Y-81690268D01*
X151698201Y-81660011D01*
X151647627Y-81613294D01*
X151633108Y-81591221D01*
X151605993Y-81522602D01*
X151592546Y-81437939D01*
X151592776Y-81416523D01*
X151727920Y-81416523D01*
X151728174Y-81456574D01*
X151732421Y-81483313D01*
X151742096Y-81503859D01*
X151758638Y-81525331D01*
X151781593Y-81546639D01*
X151827505Y-81565653D01*
X151876802Y-81562122D01*
X151923917Y-81535694D01*
X151937207Y-81523072D01*
X151951397Y-81501465D01*
X151959266Y-81471094D01*
X151963726Y-81423770D01*
X151964955Y-81388219D01*
X151958224Y-81315620D01*
X151937567Y-81263642D01*
X151902894Y-81231999D01*
X151862249Y-81216847D01*
X151813777Y-81218123D01*
X151768845Y-81243703D01*
X151758103Y-81253442D01*
X151744548Y-81270480D01*
X151736505Y-81292772D01*
X151732043Y-81326947D01*
X151729228Y-81379638D01*
X151727920Y-81416523D01*
X151592776Y-81416523D01*
X151593583Y-81341351D01*
X151594907Y-81327651D01*
X151613374Y-81239908D01*
X151647540Y-81171793D01*
X151697479Y-81123231D01*
X151763261Y-81094148D01*
X151844961Y-81084471D01*
X151875828Y-81085379D01*
X151939128Y-81096493D01*
X151990889Y-81123021D01*
X152039147Y-81168436D01*
X152046865Y-81177551D01*
X152067681Y-81208248D01*
X152081362Y-81243007D01*
X152088948Y-81287056D01*
X152091479Y-81345621D01*
X152090672Y-81388219D01*
X152089997Y-81423931D01*
G37*
X149915761Y-82385813D02*
X149914167Y-82439571D01*
X149910962Y-82477018D01*
X149910413Y-82480450D01*
X149888838Y-82541835D01*
X149849438Y-82593877D01*
X149797752Y-82629135D01*
X149742248Y-82643729D01*
X149673977Y-82642597D01*
X149611173Y-82623029D01*
X149594815Y-82614771D01*
X149573779Y-82605923D01*
X149565774Y-82608676D01*
X149564505Y-82623029D01*
X149563922Y-82630186D01*
X149556394Y-82640772D01*
X149535488Y-82645645D01*
X149495346Y-82646822D01*
X149426188Y-82646822D01*
X149426188Y-82344930D01*
X149564505Y-82344930D01*
X149565496Y-82397230D01*
X149569519Y-82432050D01*
X149578108Y-82455905D01*
X149592797Y-82475895D01*
X149631584Y-82505618D01*
X149676974Y-82515582D01*
X149720989Y-82503260D01*
X149758060Y-82468888D01*
X149767859Y-82443735D01*
X149775097Y-82399194D01*
X149778279Y-82345155D01*
X149777277Y-82289728D01*
X149771961Y-82241022D01*
X149762204Y-82207148D01*
X149759087Y-82201593D01*
X149729038Y-82173674D01*
X149688315Y-82161306D01*
X149644579Y-82164183D01*
X149605491Y-82182000D01*
X149578710Y-82214452D01*
X149577603Y-82217181D01*
X149570963Y-82247634D01*
X149566278Y-82293139D01*
X149564505Y-82344930D01*
X149426188Y-82344930D01*
X149426188Y-81791773D01*
X149564505Y-81791773D01*
X149564505Y-82084878D01*
X149590124Y-82061693D01*
X149614792Y-82047282D01*
X149661480Y-82035236D01*
X149716056Y-82031354D01*
X149769354Y-82036120D01*
X149812207Y-82050014D01*
X149842878Y-82069779D01*
X149874471Y-82103449D01*
X149895733Y-82148730D01*
X149908514Y-82209981D01*
X149914664Y-82291563D01*
X149915568Y-82324540D01*
X149915633Y-82345155D01*
X149915761Y-82385813D01*
G36*
X149915761Y-82385813D02*
G01*
X149914167Y-82439571D01*
X149910962Y-82477018D01*
X149910413Y-82480450D01*
X149888838Y-82541835D01*
X149849438Y-82593877D01*
X149797752Y-82629135D01*
X149742248Y-82643729D01*
X149673977Y-82642597D01*
X149611173Y-82623029D01*
X149594815Y-82614771D01*
X149573779Y-82605923D01*
X149565774Y-82608676D01*
X149564505Y-82623029D01*
X149563922Y-82630186D01*
X149556394Y-82640772D01*
X149535488Y-82645645D01*
X149495346Y-82646822D01*
X149426188Y-82646822D01*
X149426188Y-82344930D01*
X149564505Y-82344930D01*
X149565496Y-82397230D01*
X149569519Y-82432050D01*
X149578108Y-82455905D01*
X149592797Y-82475895D01*
X149631584Y-82505618D01*
X149676974Y-82515582D01*
X149720989Y-82503260D01*
X149758060Y-82468888D01*
X149767859Y-82443735D01*
X149775097Y-82399194D01*
X149778279Y-82345155D01*
X149777277Y-82289728D01*
X149771961Y-82241022D01*
X149762204Y-82207148D01*
X149759087Y-82201593D01*
X149729038Y-82173674D01*
X149688315Y-82161306D01*
X149644579Y-82164183D01*
X149605491Y-82182000D01*
X149578710Y-82214452D01*
X149577603Y-82217181D01*
X149570963Y-82247634D01*
X149566278Y-82293139D01*
X149564505Y-82344930D01*
X149426188Y-82344930D01*
X149426188Y-81791773D01*
X149564505Y-81791773D01*
X149564505Y-82084878D01*
X149590124Y-82061693D01*
X149614792Y-82047282D01*
X149661480Y-82035236D01*
X149716056Y-82031354D01*
X149769354Y-82036120D01*
X149812207Y-82050014D01*
X149842878Y-82069779D01*
X149874471Y-82103449D01*
X149895733Y-82148730D01*
X149908514Y-82209981D01*
X149914664Y-82291563D01*
X149915568Y-82324540D01*
X149915633Y-82345155D01*
X149915761Y-82385813D01*
G37*
X146844444Y-81348878D02*
X146842825Y-81445121D01*
X146842615Y-81447014D01*
X146824535Y-81535325D01*
X146791870Y-81603986D01*
X146743601Y-81654506D01*
X146678713Y-81688393D01*
X146666801Y-81692268D01*
X146592971Y-81703688D01*
X146516614Y-81697320D01*
X146445626Y-81674563D01*
X146387904Y-81636819D01*
X146344667Y-81596872D01*
X146390625Y-81560532D01*
X146436583Y-81524193D01*
X146491969Y-81551101D01*
X146556056Y-81572905D01*
X146612632Y-81573558D01*
X146658920Y-81553525D01*
X146692230Y-81513315D01*
X146704171Y-81489222D01*
X146710837Y-81468630D01*
X146706980Y-81454720D01*
X146689675Y-81446181D01*
X146655997Y-81441704D01*
X146603021Y-81439978D01*
X146527822Y-81439693D01*
X146345495Y-81439693D01*
X146345495Y-81352492D01*
X146346857Y-81314210D01*
X146475234Y-81314210D01*
X146481399Y-81321251D01*
X146499654Y-81324916D01*
X146534352Y-81326306D01*
X146589846Y-81326525D01*
X146619603Y-81326176D01*
X146666562Y-81323867D01*
X146698416Y-81319822D01*
X146710148Y-81314542D01*
X146707146Y-81295062D01*
X146685988Y-81257786D01*
X146650731Y-81227164D01*
X146608699Y-81208668D01*
X146567220Y-81207773D01*
X146535997Y-81222604D01*
X146500618Y-81256355D01*
X146478122Y-81298233D01*
X146476805Y-81302690D01*
X146475234Y-81314210D01*
X146346857Y-81314210D01*
X146347136Y-81306371D01*
X146351955Y-81260740D01*
X146358840Y-81229893D01*
X146363859Y-81218117D01*
X146400390Y-81165667D01*
X146453175Y-81121921D01*
X146514904Y-81093279D01*
X146547102Y-81085457D01*
X146623820Y-81081896D01*
X146692179Y-81100009D01*
X146750299Y-81137779D01*
X146796302Y-81193191D01*
X146828310Y-81264229D01*
X146837900Y-81314542D01*
X146844444Y-81348878D01*
G36*
X146844444Y-81348878D02*
G01*
X146842825Y-81445121D01*
X146842615Y-81447014D01*
X146824535Y-81535325D01*
X146791870Y-81603986D01*
X146743601Y-81654506D01*
X146678713Y-81688393D01*
X146666801Y-81692268D01*
X146592971Y-81703688D01*
X146516614Y-81697320D01*
X146445626Y-81674563D01*
X146387904Y-81636819D01*
X146344667Y-81596872D01*
X146390625Y-81560532D01*
X146436583Y-81524193D01*
X146491969Y-81551101D01*
X146556056Y-81572905D01*
X146612632Y-81573558D01*
X146658920Y-81553525D01*
X146692230Y-81513315D01*
X146704171Y-81489222D01*
X146710837Y-81468630D01*
X146706980Y-81454720D01*
X146689675Y-81446181D01*
X146655997Y-81441704D01*
X146603021Y-81439978D01*
X146527822Y-81439693D01*
X146345495Y-81439693D01*
X146345495Y-81352492D01*
X146346857Y-81314210D01*
X146475234Y-81314210D01*
X146481399Y-81321251D01*
X146499654Y-81324916D01*
X146534352Y-81326306D01*
X146589846Y-81326525D01*
X146619603Y-81326176D01*
X146666562Y-81323867D01*
X146698416Y-81319822D01*
X146710148Y-81314542D01*
X146707146Y-81295062D01*
X146685988Y-81257786D01*
X146650731Y-81227164D01*
X146608699Y-81208668D01*
X146567220Y-81207773D01*
X146535997Y-81222604D01*
X146500618Y-81256355D01*
X146478122Y-81298233D01*
X146476805Y-81302690D01*
X146475234Y-81314210D01*
X146346857Y-81314210D01*
X146347136Y-81306371D01*
X146351955Y-81260740D01*
X146358840Y-81229893D01*
X146363859Y-81218117D01*
X146400390Y-81165667D01*
X146453175Y-81121921D01*
X146514904Y-81093279D01*
X146547102Y-81085457D01*
X146623820Y-81081896D01*
X146692179Y-81100009D01*
X146750299Y-81137779D01*
X146796302Y-81193191D01*
X146828310Y-81264229D01*
X146837900Y-81314542D01*
X146844444Y-81348878D01*
G37*
X149323874Y-81087207D02*
X149396495Y-81105408D01*
X149449546Y-81139144D01*
X149483329Y-81188642D01*
X149498147Y-81254126D01*
X149495147Y-81316820D01*
X149473493Y-81369699D01*
X149431967Y-81408796D01*
X149369736Y-81434873D01*
X149285969Y-81448695D01*
X149231540Y-81455940D01*
X149181860Y-81471615D01*
X149156211Y-81494314D01*
X149154662Y-81523998D01*
X149164984Y-81542507D01*
X149196951Y-81564443D01*
X149242395Y-81574818D01*
X149295649Y-81573399D01*
X149351048Y-81559952D01*
X149402928Y-81534243D01*
X149454653Y-81500013D01*
X149500148Y-81546049D01*
X149545643Y-81592084D01*
X149507921Y-81622876D01*
X149493253Y-81633574D01*
X149451983Y-81657880D01*
X149407327Y-81678825D01*
X149371984Y-81690845D01*
X149320234Y-81699552D01*
X149256435Y-81699667D01*
X149178200Y-81690081D01*
X149107722Y-81665783D01*
X149057836Y-81627188D01*
X149028423Y-81574198D01*
X149019365Y-81506718D01*
X149025921Y-81447354D01*
X149046970Y-81398752D01*
X149084864Y-81363946D01*
X149142004Y-81340798D01*
X149220785Y-81327170D01*
X149229834Y-81326183D01*
X149278885Y-81319892D01*
X149318675Y-81313309D01*
X149341312Y-81307708D01*
X149348866Y-81303197D01*
X149361637Y-81279941D01*
X149359563Y-81250171D01*
X149342495Y-81224327D01*
X149333533Y-81218691D01*
X149296188Y-81209660D01*
X149247950Y-81210267D01*
X149197650Y-81219878D01*
X149154115Y-81237858D01*
X149108372Y-81264847D01*
X149072890Y-81223384D01*
X149064280Y-81212850D01*
X149044883Y-81184632D01*
X149036897Y-81165508D01*
X149045283Y-81153781D01*
X149071226Y-81135476D01*
X149108688Y-81115777D01*
X149113966Y-81113370D01*
X149163366Y-81094482D01*
X149210983Y-81085452D01*
X149270072Y-81083639D01*
X149323874Y-81087207D01*
G36*
X149323874Y-81087207D02*
G01*
X149396495Y-81105408D01*
X149449546Y-81139144D01*
X149483329Y-81188642D01*
X149498147Y-81254126D01*
X149495147Y-81316820D01*
X149473493Y-81369699D01*
X149431967Y-81408796D01*
X149369736Y-81434873D01*
X149285969Y-81448695D01*
X149231540Y-81455940D01*
X149181860Y-81471615D01*
X149156211Y-81494314D01*
X149154662Y-81523998D01*
X149164984Y-81542507D01*
X149196951Y-81564443D01*
X149242395Y-81574818D01*
X149295649Y-81573399D01*
X149351048Y-81559952D01*
X149402928Y-81534243D01*
X149454653Y-81500013D01*
X149500148Y-81546049D01*
X149545643Y-81592084D01*
X149507921Y-81622876D01*
X149493253Y-81633574D01*
X149451983Y-81657880D01*
X149407327Y-81678825D01*
X149371984Y-81690845D01*
X149320234Y-81699552D01*
X149256435Y-81699667D01*
X149178200Y-81690081D01*
X149107722Y-81665783D01*
X149057836Y-81627188D01*
X149028423Y-81574198D01*
X149019365Y-81506718D01*
X149025921Y-81447354D01*
X149046970Y-81398752D01*
X149084864Y-81363946D01*
X149142004Y-81340798D01*
X149220785Y-81327170D01*
X149229834Y-81326183D01*
X149278885Y-81319892D01*
X149318675Y-81313309D01*
X149341312Y-81307708D01*
X149348866Y-81303197D01*
X149361637Y-81279941D01*
X149359563Y-81250171D01*
X149342495Y-81224327D01*
X149333533Y-81218691D01*
X149296188Y-81209660D01*
X149247950Y-81210267D01*
X149197650Y-81219878D01*
X149154115Y-81237858D01*
X149108372Y-81264847D01*
X149072890Y-81223384D01*
X149064280Y-81212850D01*
X149044883Y-81184632D01*
X149036897Y-81165508D01*
X149045283Y-81153781D01*
X149071226Y-81135476D01*
X149108688Y-81115777D01*
X149113966Y-81113370D01*
X149163366Y-81094482D01*
X149210983Y-81085452D01*
X149270072Y-81083639D01*
X149323874Y-81087207D01*
G37*
X147489353Y-82338753D02*
X147487718Y-82385692D01*
X147472827Y-82475459D01*
X147442185Y-82546045D01*
X147395524Y-82597952D01*
X147332574Y-82631686D01*
X147312235Y-82637647D01*
X147239612Y-82645971D01*
X147162928Y-82638946D01*
X147093663Y-82617265D01*
X147069262Y-82604959D01*
X147034275Y-82583879D01*
X147013072Y-82566534D01*
X147009942Y-82562571D01*
X147004085Y-82548077D01*
X147012524Y-82532321D01*
X147038221Y-82508460D01*
X147050622Y-82498072D01*
X147075052Y-82479063D01*
X147087861Y-82471293D01*
X147091530Y-82472094D01*
X147112561Y-82480745D01*
X147143960Y-82495931D01*
X147154197Y-82500926D01*
X147214590Y-82519475D01*
X147267057Y-82514694D01*
X147313065Y-82486500D01*
X147318419Y-82481291D01*
X147344013Y-82448659D01*
X147358637Y-82417342D01*
X147366736Y-82382763D01*
X146986782Y-82382763D01*
X146986852Y-82316748D01*
X146986892Y-82310182D01*
X146992022Y-82257218D01*
X147125099Y-82257218D01*
X147126670Y-82268203D01*
X147134738Y-82275773D01*
X147153967Y-82279975D01*
X147189019Y-82281783D01*
X147244554Y-82282169D01*
X147275429Y-82281768D01*
X147321002Y-82279429D01*
X147352348Y-82275465D01*
X147364010Y-82270413D01*
X147354064Y-82228827D01*
X147324947Y-82190013D01*
X147282952Y-82163086D01*
X147234440Y-82153772D01*
X147198723Y-82164272D01*
X147163020Y-82189940D01*
X147135879Y-82223381D01*
X147125099Y-82257218D01*
X146992022Y-82257218D01*
X146994758Y-82228965D01*
X147017655Y-82162895D01*
X147057607Y-82105940D01*
X147081979Y-82081848D01*
X147132315Y-82049597D01*
X147192419Y-82033970D01*
X147268338Y-82032871D01*
X147305010Y-82037179D01*
X147372703Y-82059549D01*
X147424530Y-82100263D01*
X147460945Y-82159949D01*
X147482401Y-82239236D01*
X147484579Y-82270413D01*
X147489353Y-82338753D01*
G36*
X147489353Y-82338753D02*
G01*
X147487718Y-82385692D01*
X147472827Y-82475459D01*
X147442185Y-82546045D01*
X147395524Y-82597952D01*
X147332574Y-82631686D01*
X147312235Y-82637647D01*
X147239612Y-82645971D01*
X147162928Y-82638946D01*
X147093663Y-82617265D01*
X147069262Y-82604959D01*
X147034275Y-82583879D01*
X147013072Y-82566534D01*
X147009942Y-82562571D01*
X147004085Y-82548077D01*
X147012524Y-82532321D01*
X147038221Y-82508460D01*
X147050622Y-82498072D01*
X147075052Y-82479063D01*
X147087861Y-82471293D01*
X147091530Y-82472094D01*
X147112561Y-82480745D01*
X147143960Y-82495931D01*
X147154197Y-82500926D01*
X147214590Y-82519475D01*
X147267057Y-82514694D01*
X147313065Y-82486500D01*
X147318419Y-82481291D01*
X147344013Y-82448659D01*
X147358637Y-82417342D01*
X147366736Y-82382763D01*
X146986782Y-82382763D01*
X146986852Y-82316748D01*
X146986892Y-82310182D01*
X146992022Y-82257218D01*
X147125099Y-82257218D01*
X147126670Y-82268203D01*
X147134738Y-82275773D01*
X147153967Y-82279975D01*
X147189019Y-82281783D01*
X147244554Y-82282169D01*
X147275429Y-82281768D01*
X147321002Y-82279429D01*
X147352348Y-82275465D01*
X147364010Y-82270413D01*
X147354064Y-82228827D01*
X147324947Y-82190013D01*
X147282952Y-82163086D01*
X147234440Y-82153772D01*
X147198723Y-82164272D01*
X147163020Y-82189940D01*
X147135879Y-82223381D01*
X147125099Y-82257218D01*
X146992022Y-82257218D01*
X146994758Y-82228965D01*
X147017655Y-82162895D01*
X147057607Y-82105940D01*
X147081979Y-82081848D01*
X147132315Y-82049597D01*
X147192419Y-82033970D01*
X147268338Y-82032871D01*
X147305010Y-82037179D01*
X147372703Y-82059549D01*
X147424530Y-82100263D01*
X147460945Y-82159949D01*
X147482401Y-82239236D01*
X147484579Y-82270413D01*
X147489353Y-82338753D01*
G37*
X150932022Y-81313861D02*
X150936421Y-81401936D01*
X150935322Y-81440371D01*
X150922926Y-81524367D01*
X150895608Y-81590595D01*
X150851941Y-81641784D01*
X150790495Y-81680663D01*
X150730888Y-81698812D01*
X150656110Y-81702284D01*
X150580664Y-81688930D01*
X150513366Y-81659425D01*
X150488428Y-81643012D01*
X150460951Y-81621973D01*
X150448414Y-81608129D01*
X150449124Y-81602417D01*
X150463158Y-81582955D01*
X150489533Y-81559376D01*
X150535240Y-81524513D01*
X150588799Y-81551262D01*
X150603282Y-81557882D01*
X150645916Y-81572273D01*
X150681649Y-81578010D01*
X150707998Y-81573282D01*
X150749347Y-81550514D01*
X150784104Y-81515170D01*
X150803983Y-81474273D01*
X150812083Y-81439693D01*
X150432129Y-81439693D01*
X150432199Y-81373679D01*
X150432774Y-81352757D01*
X150436972Y-81307862D01*
X150570445Y-81307862D01*
X150570690Y-81310434D01*
X150577604Y-81318443D01*
X150597141Y-81323364D01*
X150633467Y-81325843D01*
X150690748Y-81326525D01*
X150709575Y-81326517D01*
X150758470Y-81326065D01*
X150787863Y-81324113D01*
X150802115Y-81319558D01*
X150805582Y-81311299D01*
X150802625Y-81298233D01*
X150802173Y-81296752D01*
X150776699Y-81251285D01*
X150736539Y-81219981D01*
X150688651Y-81208327D01*
X150670949Y-81209259D01*
X150638094Y-81220408D01*
X150606575Y-81248763D01*
X150598085Y-81258789D01*
X150578336Y-81287423D01*
X150570445Y-81307862D01*
X150436972Y-81307862D01*
X150437512Y-81302091D01*
X150445459Y-81260166D01*
X150454168Y-81236696D01*
X150484790Y-81185646D01*
X150525799Y-81139283D01*
X150569168Y-81107514D01*
X150581699Y-81101614D01*
X150654661Y-81082046D01*
X150729168Y-81084109D01*
X150799217Y-81106931D01*
X150858807Y-81149639D01*
X150891038Y-81189025D01*
X150917392Y-81244510D01*
X150931482Y-81311299D01*
X150932022Y-81313861D01*
G36*
X150932022Y-81313861D02*
G01*
X150936421Y-81401936D01*
X150935322Y-81440371D01*
X150922926Y-81524367D01*
X150895608Y-81590595D01*
X150851941Y-81641784D01*
X150790495Y-81680663D01*
X150730888Y-81698812D01*
X150656110Y-81702284D01*
X150580664Y-81688930D01*
X150513366Y-81659425D01*
X150488428Y-81643012D01*
X150460951Y-81621973D01*
X150448414Y-81608129D01*
X150449124Y-81602417D01*
X150463158Y-81582955D01*
X150489533Y-81559376D01*
X150535240Y-81524513D01*
X150588799Y-81551262D01*
X150603282Y-81557882D01*
X150645916Y-81572273D01*
X150681649Y-81578010D01*
X150707998Y-81573282D01*
X150749347Y-81550514D01*
X150784104Y-81515170D01*
X150803983Y-81474273D01*
X150812083Y-81439693D01*
X150432129Y-81439693D01*
X150432199Y-81373679D01*
X150432774Y-81352757D01*
X150436972Y-81307862D01*
X150570445Y-81307862D01*
X150570690Y-81310434D01*
X150577604Y-81318443D01*
X150597141Y-81323364D01*
X150633467Y-81325843D01*
X150690748Y-81326525D01*
X150709575Y-81326517D01*
X150758470Y-81326065D01*
X150787863Y-81324113D01*
X150802115Y-81319558D01*
X150805582Y-81311299D01*
X150802625Y-81298233D01*
X150802173Y-81296752D01*
X150776699Y-81251285D01*
X150736539Y-81219981D01*
X150688651Y-81208327D01*
X150670949Y-81209259D01*
X150638094Y-81220408D01*
X150606575Y-81248763D01*
X150598085Y-81258789D01*
X150578336Y-81287423D01*
X150570445Y-81307862D01*
X150436972Y-81307862D01*
X150437512Y-81302091D01*
X150445459Y-81260166D01*
X150454168Y-81236696D01*
X150484790Y-81185646D01*
X150525799Y-81139283D01*
X150569168Y-81107514D01*
X150581699Y-81101614D01*
X150654661Y-81082046D01*
X150729168Y-81084109D01*
X150799217Y-81106931D01*
X150858807Y-81149639D01*
X150891038Y-81189025D01*
X150917392Y-81244510D01*
X150931482Y-81311299D01*
X150932022Y-81313861D01*
G37*
X148514413Y-82481333D02*
X148499244Y-82538419D01*
X148466277Y-82587255D01*
X148416270Y-82622386D01*
X148411362Y-82624521D01*
X148356646Y-82639903D01*
X148294993Y-82645899D01*
X148236376Y-82642233D01*
X148190767Y-82628629D01*
X148172549Y-82619754D01*
X148159179Y-82617637D01*
X148156188Y-82628706D01*
X148150524Y-82638942D01*
X148128607Y-82645038D01*
X148086068Y-82646822D01*
X148015948Y-82646822D01*
X148019680Y-82426773D01*
X148156188Y-82426773D01*
X148160924Y-82459666D01*
X148181336Y-82495931D01*
X148188871Y-82502597D01*
X148219753Y-82516620D01*
X148266213Y-82520228D01*
X148294090Y-82518819D01*
X148346255Y-82508204D01*
X148378587Y-82488425D01*
X148389492Y-82460824D01*
X148377374Y-82426743D01*
X148370304Y-82417824D01*
X148338724Y-82397818D01*
X148288744Y-82386395D01*
X148217487Y-82382763D01*
X148156188Y-82382763D01*
X148156188Y-82426773D01*
X148019680Y-82426773D01*
X148020053Y-82404768D01*
X148021169Y-82348794D01*
X148024106Y-82264996D01*
X148029058Y-82200920D01*
X148037002Y-82153073D01*
X148048917Y-82117962D01*
X148065780Y-82092093D01*
X148088572Y-82071974D01*
X148118269Y-82054110D01*
X148133589Y-82047290D01*
X148186589Y-82034417D01*
X148250513Y-82029095D01*
X148316602Y-82031227D01*
X148376099Y-82040714D01*
X148420247Y-82057461D01*
X148435604Y-82067185D01*
X148470960Y-82096005D01*
X148482926Y-82120137D01*
X148480020Y-82124800D01*
X148461909Y-82141088D01*
X148432672Y-82162817D01*
X148417725Y-82172987D01*
X148392270Y-82187397D01*
X148375728Y-82188773D01*
X148360370Y-82178827D01*
X148322094Y-82158684D01*
X148270590Y-82150400D01*
X148217957Y-82156742D01*
X148216961Y-82157030D01*
X148179838Y-82173158D01*
X148161463Y-82198405D01*
X148156380Y-82240158D01*
X148156188Y-82279879D01*
X148287423Y-82284168D01*
X148308331Y-82284873D01*
X148361043Y-82287326D01*
X148396381Y-82291180D01*
X148420267Y-82297878D01*
X148438624Y-82308864D01*
X148457376Y-82325580D01*
X148488337Y-82364244D01*
X148511029Y-82421456D01*
X148513254Y-82460824D01*
X148514413Y-82481333D01*
G36*
X148514413Y-82481333D02*
G01*
X148499244Y-82538419D01*
X148466277Y-82587255D01*
X148416270Y-82622386D01*
X148411362Y-82624521D01*
X148356646Y-82639903D01*
X148294993Y-82645899D01*
X148236376Y-82642233D01*
X148190767Y-82628629D01*
X148172549Y-82619754D01*
X148159179Y-82617637D01*
X148156188Y-82628706D01*
X148150524Y-82638942D01*
X148128607Y-82645038D01*
X148086068Y-82646822D01*
X148015948Y-82646822D01*
X148019680Y-82426773D01*
X148156188Y-82426773D01*
X148160924Y-82459666D01*
X148181336Y-82495931D01*
X148188871Y-82502597D01*
X148219753Y-82516620D01*
X148266213Y-82520228D01*
X148294090Y-82518819D01*
X148346255Y-82508204D01*
X148378587Y-82488425D01*
X148389492Y-82460824D01*
X148377374Y-82426743D01*
X148370304Y-82417824D01*
X148338724Y-82397818D01*
X148288744Y-82386395D01*
X148217487Y-82382763D01*
X148156188Y-82382763D01*
X148156188Y-82426773D01*
X148019680Y-82426773D01*
X148020053Y-82404768D01*
X148021169Y-82348794D01*
X148024106Y-82264996D01*
X148029058Y-82200920D01*
X148037002Y-82153073D01*
X148048917Y-82117962D01*
X148065780Y-82092093D01*
X148088572Y-82071974D01*
X148118269Y-82054110D01*
X148133589Y-82047290D01*
X148186589Y-82034417D01*
X148250513Y-82029095D01*
X148316602Y-82031227D01*
X148376099Y-82040714D01*
X148420247Y-82057461D01*
X148435604Y-82067185D01*
X148470960Y-82096005D01*
X148482926Y-82120137D01*
X148480020Y-82124800D01*
X148461909Y-82141088D01*
X148432672Y-82162817D01*
X148417725Y-82172987D01*
X148392270Y-82187397D01*
X148375728Y-82188773D01*
X148360370Y-82178827D01*
X148322094Y-82158684D01*
X148270590Y-82150400D01*
X148217957Y-82156742D01*
X148216961Y-82157030D01*
X148179838Y-82173158D01*
X148161463Y-82198405D01*
X148156380Y-82240158D01*
X148156188Y-82279879D01*
X148287423Y-82284168D01*
X148308331Y-82284873D01*
X148361043Y-82287326D01*
X148396381Y-82291180D01*
X148420267Y-82297878D01*
X148438624Y-82308864D01*
X148457376Y-82325580D01*
X148488337Y-82364244D01*
X148511029Y-82421456D01*
X148513254Y-82460824D01*
X148514413Y-82481333D01*
G37*
X150932299Y-82479223D02*
X150932157Y-82480882D01*
X150916835Y-82545479D01*
X150882753Y-82594063D01*
X150828218Y-82629072D01*
X150800036Y-82637589D01*
X150751764Y-82644228D01*
X150698978Y-82645813D01*
X150651353Y-82642160D01*
X150618566Y-82633083D01*
X150598652Y-82625813D01*
X150579155Y-82633083D01*
X150572023Y-82637295D01*
X150543557Y-82644126D01*
X150505059Y-82646822D01*
X150444703Y-82646822D01*
X150444703Y-82431111D01*
X150583020Y-82431111D01*
X150587668Y-82467904D01*
X150606015Y-82500269D01*
X150616514Y-82507274D01*
X150653988Y-82518191D01*
X150700773Y-82520917D01*
X150746652Y-82515379D01*
X150781410Y-82501505D01*
X150798726Y-82483161D01*
X150809356Y-82450566D01*
X150799929Y-82424729D01*
X150768764Y-82402263D01*
X150718667Y-82387850D01*
X150652582Y-82382763D01*
X150583020Y-82382763D01*
X150583020Y-82431111D01*
X150444703Y-82431111D01*
X150444703Y-82403484D01*
X150444707Y-82382440D01*
X150444937Y-82303122D01*
X150445797Y-82244154D01*
X150447679Y-82201616D01*
X150450974Y-82171592D01*
X150456073Y-82150163D01*
X150463366Y-82133411D01*
X150473246Y-82117419D01*
X150505023Y-82079948D01*
X150550055Y-82051339D01*
X150609210Y-82035555D01*
X150687161Y-82030703D01*
X150689695Y-82030708D01*
X150743880Y-82033155D01*
X150792380Y-82039256D01*
X150825478Y-82047809D01*
X150834552Y-82052096D01*
X150863433Y-82070248D01*
X150889568Y-82091822D01*
X150906764Y-82111236D01*
X150908825Y-82122909D01*
X150904803Y-82126063D01*
X150860976Y-82159739D01*
X150831671Y-82179600D01*
X150812294Y-82187613D01*
X150798253Y-82185746D01*
X150784957Y-82175965D01*
X150760418Y-82163756D01*
X150719064Y-82155615D01*
X150672326Y-82153503D01*
X150630034Y-82157800D01*
X150602017Y-82168887D01*
X150600543Y-82170236D01*
X150587953Y-82195581D01*
X150583020Y-82233411D01*
X150583020Y-82282169D01*
X150699331Y-82282216D01*
X150752760Y-82283061D01*
X150797735Y-82286740D01*
X150829907Y-82294309D01*
X150855899Y-82306808D01*
X150861948Y-82310647D01*
X150905710Y-82352845D01*
X150928987Y-82408647D01*
X150930955Y-82450566D01*
X150932299Y-82479223D01*
G36*
X150932299Y-82479223D02*
G01*
X150932157Y-82480882D01*
X150916835Y-82545479D01*
X150882753Y-82594063D01*
X150828218Y-82629072D01*
X150800036Y-82637589D01*
X150751764Y-82644228D01*
X150698978Y-82645813D01*
X150651353Y-82642160D01*
X150618566Y-82633083D01*
X150598652Y-82625813D01*
X150579155Y-82633083D01*
X150572023Y-82637295D01*
X150543557Y-82644126D01*
X150505059Y-82646822D01*
X150444703Y-82646822D01*
X150444703Y-82431111D01*
X150583020Y-82431111D01*
X150587668Y-82467904D01*
X150606015Y-82500269D01*
X150616514Y-82507274D01*
X150653988Y-82518191D01*
X150700773Y-82520917D01*
X150746652Y-82515379D01*
X150781410Y-82501505D01*
X150798726Y-82483161D01*
X150809356Y-82450566D01*
X150799929Y-82424729D01*
X150768764Y-82402263D01*
X150718667Y-82387850D01*
X150652582Y-82382763D01*
X150583020Y-82382763D01*
X150583020Y-82431111D01*
X150444703Y-82431111D01*
X150444703Y-82403484D01*
X150444707Y-82382440D01*
X150444937Y-82303122D01*
X150445797Y-82244154D01*
X150447679Y-82201616D01*
X150450974Y-82171592D01*
X150456073Y-82150163D01*
X150463366Y-82133411D01*
X150473246Y-82117419D01*
X150505023Y-82079948D01*
X150550055Y-82051339D01*
X150609210Y-82035555D01*
X150687161Y-82030703D01*
X150689695Y-82030708D01*
X150743880Y-82033155D01*
X150792380Y-82039256D01*
X150825478Y-82047809D01*
X150834552Y-82052096D01*
X150863433Y-82070248D01*
X150889568Y-82091822D01*
X150906764Y-82111236D01*
X150908825Y-82122909D01*
X150904803Y-82126063D01*
X150860976Y-82159739D01*
X150831671Y-82179600D01*
X150812294Y-82187613D01*
X150798253Y-82185746D01*
X150784957Y-82175965D01*
X150760418Y-82163756D01*
X150719064Y-82155615D01*
X150672326Y-82153503D01*
X150630034Y-82157800D01*
X150602017Y-82168887D01*
X150600543Y-82170236D01*
X150587953Y-82195581D01*
X150583020Y-82233411D01*
X150583020Y-82282169D01*
X150699331Y-82282216D01*
X150752760Y-82283061D01*
X150797735Y-82286740D01*
X150829907Y-82294309D01*
X150855899Y-82306808D01*
X150861948Y-82310647D01*
X150905710Y-82352845D01*
X150928987Y-82408647D01*
X150930955Y-82450566D01*
X150932299Y-82479223D01*
G37*
X151500940Y-82648136D02*
X151434926Y-82644336D01*
X151368911Y-82640535D01*
X151365772Y-82439347D01*
X151364844Y-82390425D01*
X151362208Y-82316926D01*
X151357683Y-82262991D01*
X151350438Y-82224995D01*
X151339642Y-82199313D01*
X151324462Y-82182320D01*
X151304066Y-82170389D01*
X151265797Y-82158205D01*
X151227738Y-82162940D01*
X151187549Y-82188979D01*
X151148861Y-82221533D01*
X151148861Y-82646822D01*
X151010544Y-82646822D01*
X151010544Y-82416176D01*
X151010677Y-82343882D01*
X151011413Y-82279641D01*
X151013181Y-82232618D01*
X151016411Y-82198548D01*
X151021530Y-82173170D01*
X151028967Y-82152221D01*
X151039150Y-82131436D01*
X151041564Y-82127024D01*
X151073675Y-82084047D01*
X151111256Y-82054013D01*
X151156564Y-82038243D01*
X151216561Y-82031222D01*
X151276643Y-82035025D01*
X151325525Y-82049868D01*
X151362624Y-82069052D01*
X151362624Y-81653859D01*
X151311792Y-81680354D01*
X151290558Y-81689980D01*
X151223536Y-81703592D01*
X151156930Y-81694184D01*
X151095187Y-81662905D01*
X151042757Y-81610902D01*
X151034543Y-81598680D01*
X151026649Y-81580763D01*
X151021500Y-81556404D01*
X151018527Y-81520927D01*
X151017161Y-81469656D01*
X151016915Y-81416236D01*
X151149749Y-81416236D01*
X151149861Y-81460849D01*
X151153272Y-81490601D01*
X151160937Y-81511835D01*
X151173814Y-81530896D01*
X151190171Y-81548617D01*
X151216329Y-81562028D01*
X151255742Y-81565436D01*
X151290559Y-81562471D01*
X151325020Y-81547631D01*
X151347215Y-81517569D01*
X151359097Y-81469254D01*
X151362624Y-81399650D01*
X151361712Y-81362624D01*
X151352609Y-81292728D01*
X151333828Y-81245464D01*
X151305476Y-81221168D01*
X151276840Y-81214332D01*
X151226970Y-81217537D01*
X151184833Y-81237380D01*
X151174749Y-81246480D01*
X151164063Y-81262223D01*
X151157456Y-81285658D01*
X151153532Y-81322604D01*
X151150897Y-81378880D01*
X151149749Y-81416236D01*
X151016915Y-81416236D01*
X151016831Y-81397917D01*
X151016944Y-81365184D01*
X151018872Y-81289044D01*
X151024240Y-81232166D01*
X151034406Y-81190249D01*
X151050725Y-81158996D01*
X151074553Y-81134106D01*
X151107247Y-81111282D01*
X151133759Y-81098184D01*
X151196615Y-81083739D01*
X151262869Y-81085707D01*
X151321757Y-81104433D01*
X151347030Y-81116673D01*
X151359742Y-81117938D01*
X151362624Y-81106798D01*
X151362626Y-81106461D01*
X151368838Y-81095087D01*
X151390260Y-81089256D01*
X151431782Y-81087614D01*
X151500940Y-81087614D01*
X151500940Y-81399650D01*
X151500940Y-82648136D01*
G36*
X151500940Y-82648136D02*
G01*
X151434926Y-82644336D01*
X151368911Y-82640535D01*
X151365772Y-82439347D01*
X151364844Y-82390425D01*
X151362208Y-82316926D01*
X151357683Y-82262991D01*
X151350438Y-82224995D01*
X151339642Y-82199313D01*
X151324462Y-82182320D01*
X151304066Y-82170389D01*
X151265797Y-82158205D01*
X151227738Y-82162940D01*
X151187549Y-82188979D01*
X151148861Y-82221533D01*
X151148861Y-82646822D01*
X151010544Y-82646822D01*
X151010544Y-82416176D01*
X151010677Y-82343882D01*
X151011413Y-82279641D01*
X151013181Y-82232618D01*
X151016411Y-82198548D01*
X151021530Y-82173170D01*
X151028967Y-82152221D01*
X151039150Y-82131436D01*
X151041564Y-82127024D01*
X151073675Y-82084047D01*
X151111256Y-82054013D01*
X151156564Y-82038243D01*
X151216561Y-82031222D01*
X151276643Y-82035025D01*
X151325525Y-82049868D01*
X151362624Y-82069052D01*
X151362624Y-81653859D01*
X151311792Y-81680354D01*
X151290558Y-81689980D01*
X151223536Y-81703592D01*
X151156930Y-81694184D01*
X151095187Y-81662905D01*
X151042757Y-81610902D01*
X151034543Y-81598680D01*
X151026649Y-81580763D01*
X151021500Y-81556404D01*
X151018527Y-81520927D01*
X151017161Y-81469656D01*
X151016915Y-81416236D01*
X151149749Y-81416236D01*
X151149861Y-81460849D01*
X151153272Y-81490601D01*
X151160937Y-81511835D01*
X151173814Y-81530896D01*
X151190171Y-81548617D01*
X151216329Y-81562028D01*
X151255742Y-81565436D01*
X151290559Y-81562471D01*
X151325020Y-81547631D01*
X151347215Y-81517569D01*
X151359097Y-81469254D01*
X151362624Y-81399650D01*
X151361712Y-81362624D01*
X151352609Y-81292728D01*
X151333828Y-81245464D01*
X151305476Y-81221168D01*
X151276840Y-81214332D01*
X151226970Y-81217537D01*
X151184833Y-81237380D01*
X151174749Y-81246480D01*
X151164063Y-81262223D01*
X151157456Y-81285658D01*
X151153532Y-81322604D01*
X151150897Y-81378880D01*
X151149749Y-81416236D01*
X151016915Y-81416236D01*
X151016831Y-81397917D01*
X151016944Y-81365184D01*
X151018872Y-81289044D01*
X151024240Y-81232166D01*
X151034406Y-81190249D01*
X151050725Y-81158996D01*
X151074553Y-81134106D01*
X151107247Y-81111282D01*
X151133759Y-81098184D01*
X151196615Y-81083739D01*
X151262869Y-81085707D01*
X151321757Y-81104433D01*
X151347030Y-81116673D01*
X151359742Y-81117938D01*
X151362624Y-81106798D01*
X151362626Y-81106461D01*
X151368838Y-81095087D01*
X151390260Y-81089256D01*
X151431782Y-81087614D01*
X151500940Y-81087614D01*
X151500940Y-81399650D01*
X151500940Y-82648136D01*
G37*
X149589389Y-76919018D02*
X149646237Y-77220570D01*
X149856001Y-77307041D01*
X150065764Y-77393512D01*
X150317410Y-77222395D01*
X150367216Y-77188661D01*
X150433244Y-77144381D01*
X150490410Y-77106561D01*
X150535744Y-77077142D01*
X150566280Y-77058067D01*
X150579046Y-77051278D01*
X150586887Y-77056106D01*
X150610325Y-77076339D01*
X150645794Y-77109543D01*
X150690289Y-77152670D01*
X150740805Y-77202670D01*
X150794336Y-77256495D01*
X150847877Y-77311095D01*
X150898423Y-77363423D01*
X150942968Y-77410428D01*
X150978507Y-77449063D01*
X151002034Y-77476278D01*
X151010544Y-77489024D01*
X151008565Y-77494500D01*
X150994857Y-77518927D01*
X150969825Y-77559129D01*
X150935499Y-77611952D01*
X150893907Y-77674247D01*
X150847079Y-77742862D01*
X150821380Y-77780283D01*
X150777173Y-77845432D01*
X150739272Y-77902289D01*
X150709698Y-77947770D01*
X150690472Y-77978793D01*
X150683614Y-77992274D01*
X150683726Y-77993021D01*
X150689776Y-78010110D01*
X150703654Y-78045006D01*
X150723427Y-78093151D01*
X150747160Y-78149986D01*
X150772918Y-78210953D01*
X150798766Y-78271492D01*
X150822771Y-78327047D01*
X150842998Y-78373057D01*
X150857511Y-78404965D01*
X150864377Y-78418212D01*
X150868439Y-78419387D01*
X150893121Y-78424687D01*
X150937111Y-78433467D01*
X150996887Y-78445040D01*
X151068929Y-78458721D01*
X151149716Y-78473823D01*
X151192294Y-78481830D01*
X151270445Y-78497107D01*
X151338775Y-78511215D01*
X151393551Y-78523345D01*
X151431037Y-78532686D01*
X151447500Y-78538427D01*
X151450457Y-78544119D01*
X151455362Y-78571930D01*
X151459216Y-78618250D01*
X151462021Y-78678720D01*
X151463781Y-78748983D01*
X151464499Y-78824680D01*
X151464177Y-78901453D01*
X151462819Y-78974944D01*
X151460428Y-79040794D01*
X151457006Y-79094645D01*
X151452556Y-79132138D01*
X151447082Y-79148916D01*
X151443760Y-79150809D01*
X151418987Y-79158926D01*
X151376011Y-79169666D01*
X151319802Y-79181853D01*
X151255325Y-79194310D01*
X151233570Y-79198277D01*
X151133093Y-79216729D01*
X151054126Y-79231559D01*
X150993934Y-79243380D01*
X150949778Y-79252809D01*
X150918920Y-79260460D01*
X150898625Y-79266948D01*
X150886154Y-79272888D01*
X150878771Y-79278894D01*
X150877913Y-79279902D01*
X150865838Y-79300919D01*
X150847971Y-79339376D01*
X150826042Y-79390761D01*
X150801784Y-79450563D01*
X150776927Y-79514270D01*
X150753205Y-79577371D01*
X150732347Y-79635355D01*
X150716087Y-79683709D01*
X150706156Y-79717922D01*
X150704285Y-79733483D01*
X150705536Y-79735502D01*
X150718486Y-79755028D01*
X150742840Y-79791042D01*
X150776340Y-79840228D01*
X150816727Y-79899267D01*
X150861745Y-79964842D01*
X150874100Y-79982884D01*
X150917545Y-80047599D01*
X150955091Y-80105476D01*
X150984594Y-80153082D01*
X151003914Y-80186985D01*
X151010905Y-80203752D01*
X151009398Y-80208161D01*
X150993695Y-80229882D01*
X150962714Y-80265354D01*
X150918673Y-80312188D01*
X150863790Y-80367996D01*
X150800286Y-80430392D01*
X150763988Y-80465317D01*
X150706595Y-80519711D01*
X150656361Y-80566302D01*
X150615984Y-80602636D01*
X150588161Y-80626261D01*
X150575590Y-80634724D01*
X150566952Y-80631587D01*
X150540360Y-80616747D01*
X150501741Y-80592477D01*
X150456134Y-80561852D01*
X150423707Y-80539503D01*
X150358970Y-80495122D01*
X150289886Y-80447987D01*
X150226787Y-80405155D01*
X150103178Y-80321547D01*
X149999417Y-80377650D01*
X149974984Y-80390599D01*
X149930552Y-80412749D01*
X149896191Y-80428041D01*
X149877828Y-80433743D01*
X149871818Y-80426421D01*
X149856895Y-80398541D01*
X149834852Y-80352575D01*
X149806917Y-80291441D01*
X149774317Y-80218055D01*
X149738276Y-80135335D01*
X149700023Y-80046197D01*
X149660783Y-79953559D01*
X149621783Y-79860337D01*
X149584249Y-79769450D01*
X149549409Y-79683814D01*
X149518488Y-79606345D01*
X149492714Y-79539962D01*
X149473311Y-79487582D01*
X149461508Y-79452121D01*
X149458531Y-79436496D01*
X149458732Y-79436039D01*
X149472601Y-79421595D01*
X149501611Y-79398974D01*
X149539772Y-79372864D01*
X149551817Y-79364892D01*
X149643469Y-79289256D01*
X149719323Y-79199169D01*
X149777581Y-79098381D01*
X149816448Y-78990640D01*
X149834128Y-78879697D01*
X149828826Y-78769303D01*
X149807347Y-78671115D01*
X149768782Y-78571966D01*
X149712562Y-78483512D01*
X149635410Y-78399487D01*
X149605095Y-78372645D01*
X149507094Y-78306510D01*
X149401227Y-78261970D01*
X149290561Y-78238625D01*
X149178164Y-78236078D01*
X149067105Y-78253929D01*
X148960451Y-78291780D01*
X148861270Y-78349232D01*
X148772631Y-78425887D01*
X148697600Y-78521345D01*
X148683175Y-78544985D01*
X148634143Y-78653034D01*
X148608103Y-78765548D01*
X148604372Y-78879614D01*
X148622268Y-78992318D01*
X148661109Y-79100745D01*
X148720214Y-79201982D01*
X148798900Y-79293114D01*
X148896485Y-79371228D01*
X148899654Y-79373333D01*
X148937411Y-79399940D01*
X148965709Y-79422561D01*
X148978634Y-79436496D01*
X148977003Y-79447421D01*
X148966864Y-79479231D01*
X148948884Y-79528534D01*
X148924292Y-79592413D01*
X148894311Y-79667948D01*
X148860170Y-79752223D01*
X148823092Y-79842320D01*
X148784306Y-79935321D01*
X148745036Y-80028308D01*
X148706509Y-80118364D01*
X148669950Y-80202571D01*
X148636586Y-80278010D01*
X148607643Y-80341765D01*
X148584346Y-80390917D01*
X148567923Y-80422549D01*
X148559598Y-80433743D01*
X148552674Y-80432227D01*
X148525477Y-80421331D01*
X148485280Y-80402228D01*
X148438009Y-80377650D01*
X148334248Y-80321547D01*
X148210639Y-80405155D01*
X148174120Y-80429913D01*
X148106194Y-80476171D01*
X148038475Y-80522503D01*
X147981291Y-80561852D01*
X147949732Y-80583297D01*
X147908714Y-80609939D01*
X147878301Y-80628178D01*
X147863446Y-80634941D01*
X147857065Y-80632070D01*
X147833996Y-80614485D01*
X147798433Y-80583523D01*
X147753471Y-80542231D01*
X147702206Y-80493653D01*
X147647733Y-80440835D01*
X147593148Y-80386823D01*
X147541547Y-80334661D01*
X147496024Y-80287396D01*
X147459675Y-80248072D01*
X147435595Y-80219736D01*
X147426881Y-80205432D01*
X147427383Y-80202711D01*
X147437755Y-80180560D01*
X147459912Y-80142235D01*
X147491712Y-80091200D01*
X147531016Y-80030914D01*
X147575681Y-79964842D01*
X147588207Y-79946617D01*
X147632193Y-79882485D01*
X147670937Y-79825789D01*
X147702182Y-79779844D01*
X147723669Y-79747970D01*
X147733140Y-79733483D01*
X147733373Y-79732862D01*
X147730578Y-79715139D01*
X147719903Y-79679235D01*
X147703081Y-79629662D01*
X147681843Y-79570932D01*
X147657921Y-79507556D01*
X147633046Y-79444046D01*
X147608950Y-79384913D01*
X147587365Y-79334669D01*
X147570023Y-79297826D01*
X147558655Y-79278894D01*
X147557516Y-79277719D01*
X147549376Y-79271773D01*
X147535629Y-79265776D01*
X147513537Y-79259114D01*
X147480363Y-79251173D01*
X147433370Y-79241337D01*
X147369820Y-79228991D01*
X147286976Y-79213520D01*
X147182100Y-79194310D01*
X147160348Y-79190267D01*
X147098036Y-79177769D01*
X147045619Y-79165927D01*
X147008066Y-79155917D01*
X146990343Y-79148916D01*
X146987378Y-79143075D01*
X146982435Y-79115016D01*
X146978518Y-79068500D01*
X146975629Y-79007886D01*
X146973773Y-78937532D01*
X146972952Y-78861796D01*
X146973168Y-78785037D01*
X146974426Y-78711612D01*
X146976728Y-78645880D01*
X146980076Y-78592200D01*
X146984474Y-78554930D01*
X146989926Y-78538427D01*
X146995491Y-78535989D01*
X147023178Y-78528305D01*
X147069979Y-78517436D01*
X147132157Y-78504192D01*
X147205979Y-78489384D01*
X147287710Y-78473823D01*
X147332336Y-78465509D01*
X147408824Y-78451092D01*
X147474660Y-78438467D01*
X147526323Y-78428321D01*
X147560293Y-78421341D01*
X147573048Y-78418212D01*
X147573528Y-78417568D01*
X147581651Y-78401181D01*
X147597137Y-78366852D01*
X147618050Y-78319136D01*
X147642455Y-78262586D01*
X147668416Y-78201758D01*
X147693997Y-78141206D01*
X147717262Y-78085485D01*
X147736277Y-78039150D01*
X147749105Y-78006755D01*
X147753812Y-77992855D01*
X147751736Y-77987965D01*
X147737920Y-77964692D01*
X147712860Y-77925519D01*
X147678568Y-77873520D01*
X147637059Y-77811768D01*
X147590346Y-77743336D01*
X147564718Y-77705860D01*
X147520490Y-77640156D01*
X147482570Y-77582492D01*
X147452980Y-77536014D01*
X147433743Y-77503865D01*
X147426881Y-77489190D01*
X147431649Y-77481230D01*
X147451593Y-77457446D01*
X147484313Y-77421451D01*
X147526805Y-77376295D01*
X147576065Y-77325028D01*
X147629091Y-77270701D01*
X147682877Y-77216364D01*
X147734421Y-77165067D01*
X147780720Y-77119859D01*
X147818769Y-77083792D01*
X147845565Y-77059914D01*
X147858105Y-77051278D01*
X147865066Y-77054636D01*
X147890627Y-77070210D01*
X147931874Y-77096715D01*
X147985837Y-77132210D01*
X148049542Y-77174750D01*
X148120016Y-77222395D01*
X148371662Y-77393512D01*
X148791188Y-77220570D01*
X148848036Y-76919018D01*
X148904885Y-76617466D01*
X149532540Y-76617466D01*
X149589389Y-76919018D01*
G36*
X149589389Y-76919018D02*
G01*
X149646237Y-77220570D01*
X149856001Y-77307041D01*
X150065764Y-77393512D01*
X150317410Y-77222395D01*
X150367216Y-77188661D01*
X150433244Y-77144381D01*
X150490410Y-77106561D01*
X150535744Y-77077142D01*
X150566280Y-77058067D01*
X150579046Y-77051278D01*
X150586887Y-77056106D01*
X150610325Y-77076339D01*
X150645794Y-77109543D01*
X150690289Y-77152670D01*
X150740805Y-77202670D01*
X150794336Y-77256495D01*
X150847877Y-77311095D01*
X150898423Y-77363423D01*
X150942968Y-77410428D01*
X150978507Y-77449063D01*
X151002034Y-77476278D01*
X151010544Y-77489024D01*
X151008565Y-77494500D01*
X150994857Y-77518927D01*
X150969825Y-77559129D01*
X150935499Y-77611952D01*
X150893907Y-77674247D01*
X150847079Y-77742862D01*
X150821380Y-77780283D01*
X150777173Y-77845432D01*
X150739272Y-77902289D01*
X150709698Y-77947770D01*
X150690472Y-77978793D01*
X150683614Y-77992274D01*
X150683726Y-77993021D01*
X150689776Y-78010110D01*
X150703654Y-78045006D01*
X150723427Y-78093151D01*
X150747160Y-78149986D01*
X150772918Y-78210953D01*
X150798766Y-78271492D01*
X150822771Y-78327047D01*
X150842998Y-78373057D01*
X150857511Y-78404965D01*
X150864377Y-78418212D01*
X150868439Y-78419387D01*
X150893121Y-78424687D01*
X150937111Y-78433467D01*
X150996887Y-78445040D01*
X151068929Y-78458721D01*
X151149716Y-78473823D01*
X151192294Y-78481830D01*
X151270445Y-78497107D01*
X151338775Y-78511215D01*
X151393551Y-78523345D01*
X151431037Y-78532686D01*
X151447500Y-78538427D01*
X151450457Y-78544119D01*
X151455362Y-78571930D01*
X151459216Y-78618250D01*
X151462021Y-78678720D01*
X151463781Y-78748983D01*
X151464499Y-78824680D01*
X151464177Y-78901453D01*
X151462819Y-78974944D01*
X151460428Y-79040794D01*
X151457006Y-79094645D01*
X151452556Y-79132138D01*
X151447082Y-79148916D01*
X151443760Y-79150809D01*
X151418987Y-79158926D01*
X151376011Y-79169666D01*
X151319802Y-79181853D01*
X151255325Y-79194310D01*
X151233570Y-79198277D01*
X151133093Y-79216729D01*
X151054126Y-79231559D01*
X150993934Y-79243380D01*
X150949778Y-79252809D01*
X150918920Y-79260460D01*
X150898625Y-79266948D01*
X150886154Y-79272888D01*
X150878771Y-79278894D01*
X150877913Y-79279902D01*
X150865838Y-79300919D01*
X150847971Y-79339376D01*
X150826042Y-79390761D01*
X150801784Y-79450563D01*
X150776927Y-79514270D01*
X150753205Y-79577371D01*
X150732347Y-79635355D01*
X150716087Y-79683709D01*
X150706156Y-79717922D01*
X150704285Y-79733483D01*
X150705536Y-79735502D01*
X150718486Y-79755028D01*
X150742840Y-79791042D01*
X150776340Y-79840228D01*
X150816727Y-79899267D01*
X150861745Y-79964842D01*
X150874100Y-79982884D01*
X150917545Y-80047599D01*
X150955091Y-80105476D01*
X150984594Y-80153082D01*
X151003914Y-80186985D01*
X151010905Y-80203752D01*
X151009398Y-80208161D01*
X150993695Y-80229882D01*
X150962714Y-80265354D01*
X150918673Y-80312188D01*
X150863790Y-80367996D01*
X150800286Y-80430392D01*
X150763988Y-80465317D01*
X150706595Y-80519711D01*
X150656361Y-80566302D01*
X150615984Y-80602636D01*
X150588161Y-80626261D01*
X150575590Y-80634724D01*
X150566952Y-80631587D01*
X150540360Y-80616747D01*
X150501741Y-80592477D01*
X150456134Y-80561852D01*
X150423707Y-80539503D01*
X150358970Y-80495122D01*
X150289886Y-80447987D01*
X150226787Y-80405155D01*
X150103178Y-80321547D01*
X149999417Y-80377650D01*
X149974984Y-80390599D01*
X149930552Y-80412749D01*
X149896191Y-80428041D01*
X149877828Y-80433743D01*
X149871818Y-80426421D01*
X149856895Y-80398541D01*
X149834852Y-80352575D01*
X149806917Y-80291441D01*
X149774317Y-80218055D01*
X149738276Y-80135335D01*
X149700023Y-80046197D01*
X149660783Y-79953559D01*
X149621783Y-79860337D01*
X149584249Y-79769450D01*
X149549409Y-79683814D01*
X149518488Y-79606345D01*
X149492714Y-79539962D01*
X149473311Y-79487582D01*
X149461508Y-79452121D01*
X149458531Y-79436496D01*
X149458732Y-79436039D01*
X149472601Y-79421595D01*
X149501611Y-79398974D01*
X149539772Y-79372864D01*
X149551817Y-79364892D01*
X149643469Y-79289256D01*
X149719323Y-79199169D01*
X149777581Y-79098381D01*
X149816448Y-78990640D01*
X149834128Y-78879697D01*
X149828826Y-78769303D01*
X149807347Y-78671115D01*
X149768782Y-78571966D01*
X149712562Y-78483512D01*
X149635410Y-78399487D01*
X149605095Y-78372645D01*
X149507094Y-78306510D01*
X149401227Y-78261970D01*
X149290561Y-78238625D01*
X149178164Y-78236078D01*
X149067105Y-78253929D01*
X148960451Y-78291780D01*
X148861270Y-78349232D01*
X148772631Y-78425887D01*
X148697600Y-78521345D01*
X148683175Y-78544985D01*
X148634143Y-78653034D01*
X148608103Y-78765548D01*
X148604372Y-78879614D01*
X148622268Y-78992318D01*
X148661109Y-79100745D01*
X148720214Y-79201982D01*
X148798900Y-79293114D01*
X148896485Y-79371228D01*
X148899654Y-79373333D01*
X148937411Y-79399940D01*
X148965709Y-79422561D01*
X148978634Y-79436496D01*
X148977003Y-79447421D01*
X148966864Y-79479231D01*
X148948884Y-79528534D01*
X148924292Y-79592413D01*
X148894311Y-79667948D01*
X148860170Y-79752223D01*
X148823092Y-79842320D01*
X148784306Y-79935321D01*
X148745036Y-80028308D01*
X148706509Y-80118364D01*
X148669950Y-80202571D01*
X148636586Y-80278010D01*
X148607643Y-80341765D01*
X148584346Y-80390917D01*
X148567923Y-80422549D01*
X148559598Y-80433743D01*
X148552674Y-80432227D01*
X148525477Y-80421331D01*
X148485280Y-80402228D01*
X148438009Y-80377650D01*
X148334248Y-80321547D01*
X148210639Y-80405155D01*
X148174120Y-80429913D01*
X148106194Y-80476171D01*
X148038475Y-80522503D01*
X147981291Y-80561852D01*
X147949732Y-80583297D01*
X147908714Y-80609939D01*
X147878301Y-80628178D01*
X147863446Y-80634941D01*
X147857065Y-80632070D01*
X147833996Y-80614485D01*
X147798433Y-80583523D01*
X147753471Y-80542231D01*
X147702206Y-80493653D01*
X147647733Y-80440835D01*
X147593148Y-80386823D01*
X147541547Y-80334661D01*
X147496024Y-80287396D01*
X147459675Y-80248072D01*
X147435595Y-80219736D01*
X147426881Y-80205432D01*
X147427383Y-80202711D01*
X147437755Y-80180560D01*
X147459912Y-80142235D01*
X147491712Y-80091200D01*
X147531016Y-80030914D01*
X147575681Y-79964842D01*
X147588207Y-79946617D01*
X147632193Y-79882485D01*
X147670937Y-79825789D01*
X147702182Y-79779844D01*
X147723669Y-79747970D01*
X147733140Y-79733483D01*
X147733373Y-79732862D01*
X147730578Y-79715139D01*
X147719903Y-79679235D01*
X147703081Y-79629662D01*
X147681843Y-79570932D01*
X147657921Y-79507556D01*
X147633046Y-79444046D01*
X147608950Y-79384913D01*
X147587365Y-79334669D01*
X147570023Y-79297826D01*
X147558655Y-79278894D01*
X147557516Y-79277719D01*
X147549376Y-79271773D01*
X147535629Y-79265776D01*
X147513537Y-79259114D01*
X147480363Y-79251173D01*
X147433370Y-79241337D01*
X147369820Y-79228991D01*
X147286976Y-79213520D01*
X147182100Y-79194310D01*
X147160348Y-79190267D01*
X147098036Y-79177769D01*
X147045619Y-79165927D01*
X147008066Y-79155917D01*
X146990343Y-79148916D01*
X146987378Y-79143075D01*
X146982435Y-79115016D01*
X146978518Y-79068500D01*
X146975629Y-79007886D01*
X146973773Y-78937532D01*
X146972952Y-78861796D01*
X146973168Y-78785037D01*
X146974426Y-78711612D01*
X146976728Y-78645880D01*
X146980076Y-78592200D01*
X146984474Y-78554930D01*
X146989926Y-78538427D01*
X146995491Y-78535989D01*
X147023178Y-78528305D01*
X147069979Y-78517436D01*
X147132157Y-78504192D01*
X147205979Y-78489384D01*
X147287710Y-78473823D01*
X147332336Y-78465509D01*
X147408824Y-78451092D01*
X147474660Y-78438467D01*
X147526323Y-78428321D01*
X147560293Y-78421341D01*
X147573048Y-78418212D01*
X147573528Y-78417568D01*
X147581651Y-78401181D01*
X147597137Y-78366852D01*
X147618050Y-78319136D01*
X147642455Y-78262586D01*
X147668416Y-78201758D01*
X147693997Y-78141206D01*
X147717262Y-78085485D01*
X147736277Y-78039150D01*
X147749105Y-78006755D01*
X147753812Y-77992855D01*
X147751736Y-77987965D01*
X147737920Y-77964692D01*
X147712860Y-77925519D01*
X147678568Y-77873520D01*
X147637059Y-77811768D01*
X147590346Y-77743336D01*
X147564718Y-77705860D01*
X147520490Y-77640156D01*
X147482570Y-77582492D01*
X147452980Y-77536014D01*
X147433743Y-77503865D01*
X147426881Y-77489190D01*
X147431649Y-77481230D01*
X147451593Y-77457446D01*
X147484313Y-77421451D01*
X147526805Y-77376295D01*
X147576065Y-77325028D01*
X147629091Y-77270701D01*
X147682877Y-77216364D01*
X147734421Y-77165067D01*
X147780720Y-77119859D01*
X147818769Y-77083792D01*
X147845565Y-77059914D01*
X147858105Y-77051278D01*
X147865066Y-77054636D01*
X147890627Y-77070210D01*
X147931874Y-77096715D01*
X147985837Y-77132210D01*
X148049542Y-77174750D01*
X148120016Y-77222395D01*
X148371662Y-77393512D01*
X148791188Y-77220570D01*
X148848036Y-76919018D01*
X148904885Y-76617466D01*
X149532540Y-76617466D01*
X149589389Y-76919018D01*
G37*
D14*
%TO.C,C7*%
X144801000Y-77930836D02*
X144801000Y-77715164D01*
X145521000Y-77930836D02*
X145521000Y-77715164D01*
%TO.C,R12*%
X130275359Y-79249000D02*
X130582641Y-79249000D01*
X130275359Y-80009000D02*
X130582641Y-80009000D01*
D11*
%TO.C,D2*%
X129441000Y-76697000D02*
X126031000Y-76697000D01*
X128731000Y-78497000D02*
X126031000Y-78497000D01*
D14*
%TO.C,J10*%
X115630000Y-82610000D02*
X112970000Y-82610000D01*
X115630000Y-80010000D02*
X115630000Y-82610000D01*
X115630000Y-80010000D02*
X112970000Y-80010000D01*
X115630000Y-78740000D02*
X115630000Y-77410000D01*
X115630000Y-77410000D02*
X114300000Y-77410000D01*
X112970000Y-80010000D02*
X112970000Y-82610000D01*
D11*
%TO.C,IC1*%
X125886000Y-79237000D02*
X125886000Y-80437000D01*
D14*
%TO.C,R9*%
X130584641Y-81279000D02*
X130277359Y-81279000D01*
X130584641Y-80519000D02*
X130277359Y-80519000D01*
%TO.C,J8*%
X147895000Y-100390000D02*
X147895000Y-97730000D01*
X150495000Y-100390000D02*
X147895000Y-100390000D01*
X150495000Y-100390000D02*
X150495000Y-97730000D01*
X151765000Y-100390000D02*
X153095000Y-100390000D01*
X153095000Y-100390000D02*
X153095000Y-99060000D01*
X150495000Y-97730000D02*
X147895000Y-97730000D01*
%TO.C,R10*%
X125221000Y-79729359D02*
X125221000Y-80036641D01*
X124461000Y-79729359D02*
X124461000Y-80036641D01*
%TO.C,R13*%
X130275359Y-81789000D02*
X130582641Y-81789000D01*
X130275359Y-82549000D02*
X130582641Y-82549000D01*
%TO.C,C11*%
X137885000Y-79679748D02*
X137885000Y-81102252D01*
X135165000Y-79679748D02*
X135165000Y-81102252D01*
%TO.C,J11*%
X143570000Y-82610000D02*
X140910000Y-82610000D01*
X143570000Y-80010000D02*
X143570000Y-82610000D01*
X143570000Y-80010000D02*
X140910000Y-80010000D01*
X143570000Y-78740000D02*
X143570000Y-77410000D01*
X143570000Y-77410000D02*
X142240000Y-77410000D01*
X140910000Y-80010000D02*
X140910000Y-82610000D01*
%TO.C,C1*%
X134599000Y-79041164D02*
X134599000Y-79256836D01*
X133879000Y-79041164D02*
X133879000Y-79256836D01*
%TO.C,R5*%
X145541000Y-80747359D02*
X145541000Y-81054641D01*
X144781000Y-80747359D02*
X144781000Y-81054641D01*
%TO.C,C10*%
X116877000Y-80340252D02*
X116877000Y-78917748D01*
X119597000Y-80340252D02*
X119597000Y-78917748D01*
%TO.C,J9*%
X103445000Y-100390000D02*
X103445000Y-97730000D01*
X106045000Y-100390000D02*
X103445000Y-100390000D01*
X106045000Y-100390000D02*
X106045000Y-97730000D01*
X107315000Y-100390000D02*
X108645000Y-100390000D01*
X108645000Y-100390000D02*
X108645000Y-99060000D01*
X106045000Y-97730000D02*
X103445000Y-97730000D01*
%TD*%
M02*
