%TF.GenerationSoftware,KiCad,Pcbnew,7.0.9*%
%TF.CreationDate,2024-01-09T18:55:53-07:00*%
%TF.ProjectId,Breadboard Power Supply,42726561-6462-46f6-9172-6420506f7765,v10*%
%TF.SameCoordinates,Original*%
%TF.FileFunction,Soldermask,Bot*%
%TF.FilePolarity,Negative*%
%FSLAX46Y46*%
G04 Gerber Fmt 4.6, Leading zero omitted, Abs format (unit mm)*
G04 Created by KiCad (PCBNEW 7.0.9) date 2024-01-09 18:55:53*
%MOMM*%
%LPD*%
G01*
G04 APERTURE LIST*
G04 Aperture macros list*
%AMRoundRect*
0 Rectangle with rounded corners*
0 $1 Rounding radius*
0 $2 $3 $4 $5 $6 $7 $8 $9 X,Y pos of 4 corners*
0 Add a 4 corners polygon primitive as box body*
4,1,4,$2,$3,$4,$5,$6,$7,$8,$9,$2,$3,0*
0 Add four circle primitives for the rounded corners*
1,1,$1+$1,$2,$3*
1,1,$1+$1,$4,$5*
1,1,$1+$1,$6,$7*
1,1,$1+$1,$8,$9*
0 Add four rect primitives between the rounded corners*
20,1,$1+$1,$2,$3,$4,$5,0*
20,1,$1+$1,$4,$5,$6,$7,0*
20,1,$1+$1,$6,$7,$8,$9,0*
20,1,$1+$1,$8,$9,$2,$3,0*%
G04 Aperture macros list end*
%ADD10R,1.700000X1.700000*%
%ADD11O,1.700000X1.700000*%
%ADD12C,1.450000*%
%ADD13C,1.830000*%
%ADD14RoundRect,0.140000X0.170000X-0.140000X0.170000X0.140000X-0.170000X0.140000X-0.170000X-0.140000X0*%
%ADD15RoundRect,0.135000X-0.135000X-0.185000X0.135000X-0.185000X0.135000X0.185000X-0.135000X0.185000X0*%
%ADD16R,1.120000X1.370000*%
%ADD17R,0.550000X1.200000*%
%ADD18RoundRect,0.135000X0.135000X0.185000X-0.135000X0.185000X-0.135000X-0.185000X0.135000X-0.185000X0*%
%ADD19RoundRect,0.135000X-0.185000X0.135000X-0.185000X-0.135000X0.185000X-0.135000X0.185000X0.135000X0*%
%ADD20RoundRect,0.250000X-1.100000X0.325000X-1.100000X-0.325000X1.100000X-0.325000X1.100000X0.325000X0*%
%ADD21RoundRect,0.140000X-0.170000X0.140000X-0.170000X-0.140000X0.170000X-0.140000X0.170000X0.140000X0*%
%ADD22RoundRect,0.250000X1.100000X-0.325000X1.100000X0.325000X-1.100000X0.325000X-1.100000X-0.325000X0*%
G04 APERTURE END LIST*
D10*
%TO.C,J4*%
X151003000Y-86360000D03*
D11*
X153543000Y-86360000D03*
X151003000Y-88900000D03*
X153543000Y-88900000D03*
X151003000Y-91440000D03*
X153543000Y-91440000D03*
X151003000Y-93980000D03*
X153543000Y-93980000D03*
%TD*%
D12*
%TO.C,J1*%
X132592000Y-77974000D03*
X123952000Y-77974000D03*
X132592000Y-81774000D03*
X123952000Y-81774000D03*
%TD*%
D10*
%TO.C,J5*%
X102997000Y-86360000D03*
D11*
X105537000Y-86360000D03*
X102997000Y-88900000D03*
X105537000Y-88900000D03*
X102997000Y-91440000D03*
X105537000Y-91440000D03*
X102997000Y-93980000D03*
X105537000Y-93980000D03*
%TD*%
D13*
%TO.C,TP1*%
X103759000Y-102638000D03*
X108839000Y-102638000D03*
%TD*%
%TO.C,TP4*%
X147701000Y-102638000D03*
X152781000Y-102638000D03*
%TD*%
D14*
%TO.C,C7*%
X145161000Y-78303000D03*
X145161000Y-77343000D03*
%TD*%
D15*
%TO.C,R12*%
X129919000Y-79629000D03*
X130939000Y-79629000D03*
%TD*%
D16*
%TO.C,D2*%
X128881000Y-77597000D03*
X125881000Y-77597000D03*
%TD*%
D10*
%TO.C,J10*%
X114300000Y-78740000D03*
D11*
X114300000Y-81280000D03*
%TD*%
D17*
%TO.C,IC1*%
X126411000Y-79837000D03*
X127361000Y-79837000D03*
X128311000Y-79837000D03*
X128311000Y-82337000D03*
X126411000Y-82337000D03*
%TD*%
D18*
%TO.C,R9*%
X130941000Y-80899000D03*
X129921000Y-80899000D03*
%TD*%
D10*
%TO.C,J8*%
X151765000Y-99060000D03*
D11*
X149225000Y-99060000D03*
%TD*%
D19*
%TO.C,R10*%
X124841000Y-79373000D03*
X124841000Y-80393000D03*
%TD*%
D15*
%TO.C,R13*%
X129919000Y-82169000D03*
X130939000Y-82169000D03*
%TD*%
D20*
%TO.C,C11*%
X136525000Y-78916000D03*
X136525000Y-81866000D03*
%TD*%
D10*
%TO.C,J11*%
X142240000Y-78740000D03*
D11*
X142240000Y-81280000D03*
%TD*%
D21*
%TO.C,C1*%
X134239000Y-78669000D03*
X134239000Y-79629000D03*
%TD*%
D19*
%TO.C,R5*%
X145161000Y-80391000D03*
X145161000Y-81411000D03*
%TD*%
D22*
%TO.C,C10*%
X118237000Y-81104000D03*
X118237000Y-78154000D03*
%TD*%
D10*
%TO.C,J9*%
X107315000Y-99060000D03*
D11*
X104775000Y-99060000D03*
%TD*%
M02*
