%TF.GenerationSoftware,KiCad,Pcbnew,8.0.4*%
%TF.CreationDate,2024-07-30T20:34:19-06:00*%
%TF.ProjectId,Breadboard Power Supply,42726561-6462-46f6-9172-6420506f7765,v1*%
%TF.SameCoordinates,Original*%
%TF.FileFunction,Legend,Top*%
%TF.FilePolarity,Positive*%
%FSLAX46Y46*%
G04 Gerber Fmt 4.6, Leading zero omitted, Abs format (unit mm)*
G04 Created by KiCad (PCBNEW 8.0.4) date 2024-07-30 20:34:19*
%MOMM*%
%LPD*%
G01*
G04 APERTURE LIST*
%ADD10C,0.250000*%
%ADD11C,0.100000*%
%ADD12C,0.120000*%
%ADD13C,0.200000*%
%ADD14C,0.127000*%
G04 APERTURE END LIST*
D10*
X146838336Y-88079619D02*
X146266908Y-88079619D01*
X146552622Y-88079619D02*
X146552622Y-87079619D01*
X146552622Y-87079619D02*
X146457384Y-87222476D01*
X146457384Y-87222476D02*
X146362146Y-87317714D01*
X146362146Y-87317714D02*
X146266908Y-87365333D01*
X147266908Y-87984380D02*
X147314527Y-88032000D01*
X147314527Y-88032000D02*
X147266908Y-88079619D01*
X147266908Y-88079619D02*
X147219289Y-88032000D01*
X147219289Y-88032000D02*
X147266908Y-87984380D01*
X147266908Y-87984380D02*
X147266908Y-88079619D01*
X147885955Y-87508190D02*
X147790717Y-87460571D01*
X147790717Y-87460571D02*
X147743098Y-87412952D01*
X147743098Y-87412952D02*
X147695479Y-87317714D01*
X147695479Y-87317714D02*
X147695479Y-87270095D01*
X147695479Y-87270095D02*
X147743098Y-87174857D01*
X147743098Y-87174857D02*
X147790717Y-87127238D01*
X147790717Y-87127238D02*
X147885955Y-87079619D01*
X147885955Y-87079619D02*
X148076431Y-87079619D01*
X148076431Y-87079619D02*
X148171669Y-87127238D01*
X148171669Y-87127238D02*
X148219288Y-87174857D01*
X148219288Y-87174857D02*
X148266907Y-87270095D01*
X148266907Y-87270095D02*
X148266907Y-87317714D01*
X148266907Y-87317714D02*
X148219288Y-87412952D01*
X148219288Y-87412952D02*
X148171669Y-87460571D01*
X148171669Y-87460571D02*
X148076431Y-87508190D01*
X148076431Y-87508190D02*
X147885955Y-87508190D01*
X147885955Y-87508190D02*
X147790717Y-87555809D01*
X147790717Y-87555809D02*
X147743098Y-87603428D01*
X147743098Y-87603428D02*
X147695479Y-87698666D01*
X147695479Y-87698666D02*
X147695479Y-87889142D01*
X147695479Y-87889142D02*
X147743098Y-87984380D01*
X147743098Y-87984380D02*
X147790717Y-88032000D01*
X147790717Y-88032000D02*
X147885955Y-88079619D01*
X147885955Y-88079619D02*
X148076431Y-88079619D01*
X148076431Y-88079619D02*
X148171669Y-88032000D01*
X148171669Y-88032000D02*
X148219288Y-87984380D01*
X148219288Y-87984380D02*
X148266907Y-87889142D01*
X148266907Y-87889142D02*
X148266907Y-87698666D01*
X148266907Y-87698666D02*
X148219288Y-87603428D01*
X148219288Y-87603428D02*
X148171669Y-87555809D01*
X148171669Y-87555809D02*
X148076431Y-87508190D01*
X148552622Y-87079619D02*
X148885955Y-88079619D01*
X148885955Y-88079619D02*
X149219288Y-87079619D01*
X151003048Y-100779666D02*
X151764953Y-100779666D01*
X151384000Y-101160619D02*
X151384000Y-100398714D01*
X146219289Y-89619619D02*
X146838336Y-89619619D01*
X146838336Y-89619619D02*
X146505003Y-90000571D01*
X146505003Y-90000571D02*
X146647860Y-90000571D01*
X146647860Y-90000571D02*
X146743098Y-90048190D01*
X146743098Y-90048190D02*
X146790717Y-90095809D01*
X146790717Y-90095809D02*
X146838336Y-90191047D01*
X146838336Y-90191047D02*
X146838336Y-90429142D01*
X146838336Y-90429142D02*
X146790717Y-90524380D01*
X146790717Y-90524380D02*
X146743098Y-90572000D01*
X146743098Y-90572000D02*
X146647860Y-90619619D01*
X146647860Y-90619619D02*
X146362146Y-90619619D01*
X146362146Y-90619619D02*
X146266908Y-90572000D01*
X146266908Y-90572000D02*
X146219289Y-90524380D01*
X147266908Y-90524380D02*
X147314527Y-90572000D01*
X147314527Y-90572000D02*
X147266908Y-90619619D01*
X147266908Y-90619619D02*
X147219289Y-90572000D01*
X147219289Y-90572000D02*
X147266908Y-90524380D01*
X147266908Y-90524380D02*
X147266908Y-90619619D01*
X147647860Y-89619619D02*
X148266907Y-89619619D01*
X148266907Y-89619619D02*
X147933574Y-90000571D01*
X147933574Y-90000571D02*
X148076431Y-90000571D01*
X148076431Y-90000571D02*
X148171669Y-90048190D01*
X148171669Y-90048190D02*
X148219288Y-90095809D01*
X148219288Y-90095809D02*
X148266907Y-90191047D01*
X148266907Y-90191047D02*
X148266907Y-90429142D01*
X148266907Y-90429142D02*
X148219288Y-90524380D01*
X148219288Y-90524380D02*
X148171669Y-90572000D01*
X148171669Y-90572000D02*
X148076431Y-90619619D01*
X148076431Y-90619619D02*
X147790717Y-90619619D01*
X147790717Y-90619619D02*
X147695479Y-90572000D01*
X147695479Y-90572000D02*
X147647860Y-90524380D01*
X148552622Y-89619619D02*
X148885955Y-90619619D01*
X148885955Y-90619619D02*
X149219288Y-89619619D01*
X107987377Y-88079619D02*
X107415949Y-88079619D01*
X107701663Y-88079619D02*
X107701663Y-87079619D01*
X107701663Y-87079619D02*
X107606425Y-87222476D01*
X107606425Y-87222476D02*
X107511187Y-87317714D01*
X107511187Y-87317714D02*
X107415949Y-87365333D01*
X108415949Y-87984380D02*
X108463568Y-88032000D01*
X108463568Y-88032000D02*
X108415949Y-88079619D01*
X108415949Y-88079619D02*
X108368330Y-88032000D01*
X108368330Y-88032000D02*
X108415949Y-87984380D01*
X108415949Y-87984380D02*
X108415949Y-88079619D01*
X109034996Y-87508190D02*
X108939758Y-87460571D01*
X108939758Y-87460571D02*
X108892139Y-87412952D01*
X108892139Y-87412952D02*
X108844520Y-87317714D01*
X108844520Y-87317714D02*
X108844520Y-87270095D01*
X108844520Y-87270095D02*
X108892139Y-87174857D01*
X108892139Y-87174857D02*
X108939758Y-87127238D01*
X108939758Y-87127238D02*
X109034996Y-87079619D01*
X109034996Y-87079619D02*
X109225472Y-87079619D01*
X109225472Y-87079619D02*
X109320710Y-87127238D01*
X109320710Y-87127238D02*
X109368329Y-87174857D01*
X109368329Y-87174857D02*
X109415948Y-87270095D01*
X109415948Y-87270095D02*
X109415948Y-87317714D01*
X109415948Y-87317714D02*
X109368329Y-87412952D01*
X109368329Y-87412952D02*
X109320710Y-87460571D01*
X109320710Y-87460571D02*
X109225472Y-87508190D01*
X109225472Y-87508190D02*
X109034996Y-87508190D01*
X109034996Y-87508190D02*
X108939758Y-87555809D01*
X108939758Y-87555809D02*
X108892139Y-87603428D01*
X108892139Y-87603428D02*
X108844520Y-87698666D01*
X108844520Y-87698666D02*
X108844520Y-87889142D01*
X108844520Y-87889142D02*
X108892139Y-87984380D01*
X108892139Y-87984380D02*
X108939758Y-88032000D01*
X108939758Y-88032000D02*
X109034996Y-88079619D01*
X109034996Y-88079619D02*
X109225472Y-88079619D01*
X109225472Y-88079619D02*
X109320710Y-88032000D01*
X109320710Y-88032000D02*
X109368329Y-87984380D01*
X109368329Y-87984380D02*
X109415948Y-87889142D01*
X109415948Y-87889142D02*
X109415948Y-87698666D01*
X109415948Y-87698666D02*
X109368329Y-87603428D01*
X109368329Y-87603428D02*
X109320710Y-87555809D01*
X109320710Y-87555809D02*
X109225472Y-87508190D01*
X109701663Y-87079619D02*
X110034996Y-88079619D01*
X110034996Y-88079619D02*
X110368329Y-87079619D01*
X107368330Y-89619619D02*
X107987377Y-89619619D01*
X107987377Y-89619619D02*
X107654044Y-90000571D01*
X107654044Y-90000571D02*
X107796901Y-90000571D01*
X107796901Y-90000571D02*
X107892139Y-90048190D01*
X107892139Y-90048190D02*
X107939758Y-90095809D01*
X107939758Y-90095809D02*
X107987377Y-90191047D01*
X107987377Y-90191047D02*
X107987377Y-90429142D01*
X107987377Y-90429142D02*
X107939758Y-90524380D01*
X107939758Y-90524380D02*
X107892139Y-90572000D01*
X107892139Y-90572000D02*
X107796901Y-90619619D01*
X107796901Y-90619619D02*
X107511187Y-90619619D01*
X107511187Y-90619619D02*
X107415949Y-90572000D01*
X107415949Y-90572000D02*
X107368330Y-90524380D01*
X108415949Y-90524380D02*
X108463568Y-90572000D01*
X108463568Y-90572000D02*
X108415949Y-90619619D01*
X108415949Y-90619619D02*
X108368330Y-90572000D01*
X108368330Y-90572000D02*
X108415949Y-90524380D01*
X108415949Y-90524380D02*
X108415949Y-90619619D01*
X108796901Y-89619619D02*
X109415948Y-89619619D01*
X109415948Y-89619619D02*
X109082615Y-90000571D01*
X109082615Y-90000571D02*
X109225472Y-90000571D01*
X109225472Y-90000571D02*
X109320710Y-90048190D01*
X109320710Y-90048190D02*
X109368329Y-90095809D01*
X109368329Y-90095809D02*
X109415948Y-90191047D01*
X109415948Y-90191047D02*
X109415948Y-90429142D01*
X109415948Y-90429142D02*
X109368329Y-90524380D01*
X109368329Y-90524380D02*
X109320710Y-90572000D01*
X109320710Y-90572000D02*
X109225472Y-90619619D01*
X109225472Y-90619619D02*
X108939758Y-90619619D01*
X108939758Y-90619619D02*
X108844520Y-90572000D01*
X108844520Y-90572000D02*
X108796901Y-90524380D01*
X109701663Y-89619619D02*
X110034996Y-90619619D01*
X110034996Y-90619619D02*
X110368329Y-89619619D01*
X148463048Y-100779666D02*
X149224953Y-100779666D01*
X107939758Y-92159619D02*
X107463568Y-92159619D01*
X107463568Y-92159619D02*
X107415949Y-92635809D01*
X107415949Y-92635809D02*
X107463568Y-92588190D01*
X107463568Y-92588190D02*
X107558806Y-92540571D01*
X107558806Y-92540571D02*
X107796901Y-92540571D01*
X107796901Y-92540571D02*
X107892139Y-92588190D01*
X107892139Y-92588190D02*
X107939758Y-92635809D01*
X107939758Y-92635809D02*
X107987377Y-92731047D01*
X107987377Y-92731047D02*
X107987377Y-92969142D01*
X107987377Y-92969142D02*
X107939758Y-93064380D01*
X107939758Y-93064380D02*
X107892139Y-93112000D01*
X107892139Y-93112000D02*
X107796901Y-93159619D01*
X107796901Y-93159619D02*
X107558806Y-93159619D01*
X107558806Y-93159619D02*
X107463568Y-93112000D01*
X107463568Y-93112000D02*
X107415949Y-93064380D01*
X108273092Y-92159619D02*
X108606425Y-93159619D01*
X108606425Y-93159619D02*
X108939758Y-92159619D01*
X147314526Y-95699619D02*
X146743098Y-95699619D01*
X147028812Y-95699619D02*
X147028812Y-94699619D01*
X147028812Y-94699619D02*
X146933574Y-94842476D01*
X146933574Y-94842476D02*
X146838336Y-94937714D01*
X146838336Y-94937714D02*
X146743098Y-94985333D01*
X147695479Y-94794857D02*
X147743098Y-94747238D01*
X147743098Y-94747238D02*
X147838336Y-94699619D01*
X147838336Y-94699619D02*
X148076431Y-94699619D01*
X148076431Y-94699619D02*
X148171669Y-94747238D01*
X148171669Y-94747238D02*
X148219288Y-94794857D01*
X148219288Y-94794857D02*
X148266907Y-94890095D01*
X148266907Y-94890095D02*
X148266907Y-94985333D01*
X148266907Y-94985333D02*
X148219288Y-95128190D01*
X148219288Y-95128190D02*
X147647860Y-95699619D01*
X147647860Y-95699619D02*
X148266907Y-95699619D01*
X148552622Y-94699619D02*
X148885955Y-95699619D01*
X148885955Y-95699619D02*
X149219288Y-94699619D01*
X107315048Y-100779666D02*
X108076953Y-100779666D01*
X107696000Y-101160619D02*
X107696000Y-100398714D01*
X107987377Y-95699619D02*
X107415949Y-95699619D01*
X107701663Y-95699619D02*
X107701663Y-94699619D01*
X107701663Y-94699619D02*
X107606425Y-94842476D01*
X107606425Y-94842476D02*
X107511187Y-94937714D01*
X107511187Y-94937714D02*
X107415949Y-94985333D01*
X108368330Y-94794857D02*
X108415949Y-94747238D01*
X108415949Y-94747238D02*
X108511187Y-94699619D01*
X108511187Y-94699619D02*
X108749282Y-94699619D01*
X108749282Y-94699619D02*
X108844520Y-94747238D01*
X108844520Y-94747238D02*
X108892139Y-94794857D01*
X108892139Y-94794857D02*
X108939758Y-94890095D01*
X108939758Y-94890095D02*
X108939758Y-94985333D01*
X108939758Y-94985333D02*
X108892139Y-95128190D01*
X108892139Y-95128190D02*
X108320711Y-95699619D01*
X108320711Y-95699619D02*
X108939758Y-95699619D01*
X109225473Y-94699619D02*
X109558806Y-95699619D01*
X109558806Y-95699619D02*
X109892139Y-94699619D01*
X148219288Y-92159619D02*
X147743098Y-92159619D01*
X147743098Y-92159619D02*
X147695479Y-92635809D01*
X147695479Y-92635809D02*
X147743098Y-92588190D01*
X147743098Y-92588190D02*
X147838336Y-92540571D01*
X147838336Y-92540571D02*
X148076431Y-92540571D01*
X148076431Y-92540571D02*
X148171669Y-92588190D01*
X148171669Y-92588190D02*
X148219288Y-92635809D01*
X148219288Y-92635809D02*
X148266907Y-92731047D01*
X148266907Y-92731047D02*
X148266907Y-92969142D01*
X148266907Y-92969142D02*
X148219288Y-93064380D01*
X148219288Y-93064380D02*
X148171669Y-93112000D01*
X148171669Y-93112000D02*
X148076431Y-93159619D01*
X148076431Y-93159619D02*
X147838336Y-93159619D01*
X147838336Y-93159619D02*
X147743098Y-93112000D01*
X147743098Y-93112000D02*
X147695479Y-93064380D01*
X148552622Y-92159619D02*
X148885955Y-93159619D01*
X148885955Y-93159619D02*
X149219288Y-92159619D01*
X104775048Y-100779666D02*
X105536953Y-100779666D01*
D11*
X103309877Y-75818633D02*
X103309877Y-76385300D01*
X103309877Y-76385300D02*
X103343211Y-76451966D01*
X103343211Y-76451966D02*
X103376544Y-76485300D01*
X103376544Y-76485300D02*
X103443211Y-76518633D01*
X103443211Y-76518633D02*
X103576544Y-76518633D01*
X103576544Y-76518633D02*
X103643211Y-76485300D01*
X103643211Y-76485300D02*
X103676544Y-76451966D01*
X103676544Y-76451966D02*
X103709877Y-76385300D01*
X103709877Y-76385300D02*
X103709877Y-75818633D01*
X104409877Y-76518633D02*
X104009877Y-76518633D01*
X104209877Y-76518633D02*
X104209877Y-75818633D01*
X104209877Y-75818633D02*
X104143210Y-75918633D01*
X104143210Y-75918633D02*
X104076544Y-75985300D01*
X104076544Y-75985300D02*
X104009877Y-76018633D01*
D12*
%TO.C,J4*%
X149800000Y-86300000D02*
X151130000Y-86300000D01*
X149800000Y-87630000D02*
X149800000Y-86300000D01*
X149800000Y-88900000D02*
X149800000Y-96580000D01*
X149800000Y-88900000D02*
X152400000Y-88900000D01*
X149800000Y-96580000D02*
X155000000Y-96580000D01*
X152400000Y-86300000D02*
X155000000Y-86300000D01*
X152400000Y-88900000D02*
X152400000Y-86300000D01*
X155000000Y-86300000D02*
X155000000Y-96580000D01*
%TO.C,R4*%
X111341000Y-79221359D02*
X111341000Y-79528641D01*
X112101000Y-79221359D02*
X112101000Y-79528641D01*
%TO.C,C5*%
X147439748Y-82958000D02*
X147962252Y-82958000D01*
X147439748Y-84428000D02*
X147962252Y-84428000D01*
%TO.C,L2*%
X115842622Y-75513000D02*
X115043378Y-75513000D01*
X115842622Y-76633000D02*
X115043378Y-76633000D01*
%TO.C,R3*%
X136879359Y-77217000D02*
X137186641Y-77217000D01*
X136879359Y-77977000D02*
X137186641Y-77977000D01*
%TO.C,C8*%
X103653000Y-83839164D02*
X103653000Y-84054836D01*
X104373000Y-83839164D02*
X104373000Y-84054836D01*
%TO.C,C7*%
X144801000Y-83613164D02*
X144801000Y-83828836D01*
X145521000Y-83613164D02*
X145521000Y-83828836D01*
%TO.C,R2*%
X129259359Y-84075000D02*
X129566641Y-84075000D01*
X129259359Y-84835000D02*
X129566641Y-84835000D01*
%TO.C,R12*%
X120905000Y-83084641D02*
X120905000Y-82777359D01*
X121665000Y-83084641D02*
X121665000Y-82777359D01*
%TO.C,D2*%
X135548000Y-75370000D02*
X135548000Y-76840000D01*
X135548000Y-76840000D02*
X137833000Y-76840000D01*
X137833000Y-75370000D02*
X135548000Y-75370000D01*
%TO.C,C4*%
X110602252Y-83212000D02*
X110079748Y-83212000D01*
X110602252Y-84682000D02*
X110079748Y-84682000D01*
D13*
%TO.C,D1*%
X119841000Y-81777000D02*
X117141000Y-81777000D01*
X120551000Y-83577000D02*
X117141000Y-83577000D01*
D12*
%TO.C,R8*%
X143028641Y-75439000D02*
X142721359Y-75439000D01*
X143028641Y-76199000D02*
X142721359Y-76199000D01*
%TO.C,R7*%
X140744641Y-75439000D02*
X140437359Y-75439000D01*
X140744641Y-76199000D02*
X140437359Y-76199000D01*
%TO.C,C3*%
X152199748Y-82958000D02*
X152722252Y-82958000D01*
X152199748Y-84428000D02*
X152722252Y-84428000D01*
D13*
%TO.C,J1*%
X123802000Y-75374000D02*
X123802000Y-76424000D01*
X123802000Y-80224000D02*
X123802000Y-79424000D01*
X132742000Y-75374000D02*
X123802000Y-75374000D01*
X132742000Y-76424000D02*
X132742000Y-75374000D01*
X132742000Y-80224000D02*
X132742000Y-79424000D01*
%TO.C,IC1*%
X116367000Y-77392000D02*
X117567000Y-77392000D01*
D12*
%TO.C,J5*%
X101540000Y-86300000D02*
X102870000Y-86300000D01*
X101540000Y-87630000D02*
X101540000Y-86300000D01*
X101540000Y-88900000D02*
X101540000Y-96580000D01*
X101540000Y-88900000D02*
X104140000Y-88900000D01*
X101540000Y-96580000D02*
X106740000Y-96580000D01*
X104140000Y-86300000D02*
X106740000Y-86300000D01*
X104140000Y-88900000D02*
X104140000Y-86300000D01*
X106740000Y-86300000D02*
X106740000Y-96580000D01*
%TO.C,R9*%
X120905000Y-81052641D02*
X120905000Y-80745359D01*
X121665000Y-81052641D02*
X121665000Y-80745359D01*
%TO.C,R1*%
X127280641Y-84075000D02*
X126973359Y-84075000D01*
X127280641Y-84835000D02*
X126973359Y-84835000D01*
%TO.C,R13*%
X120905000Y-79020641D02*
X120905000Y-78713359D01*
X121665000Y-79020641D02*
X121665000Y-78713359D01*
%TO.C,C11*%
X118752252Y-84228000D02*
X118229748Y-84228000D01*
X118752252Y-85698000D02*
X118229748Y-85698000D01*
%TO.C,C1*%
X121403164Y-84349000D02*
X121618836Y-84349000D01*
X121403164Y-85069000D02*
X121618836Y-85069000D01*
%TO.C,R6*%
X111341000Y-81507359D02*
X111341000Y-81814641D01*
X112101000Y-81507359D02*
X112101000Y-81814641D01*
%TO.C,R5*%
X144273000Y-76480641D02*
X144273000Y-76173359D01*
X145033000Y-76480641D02*
X145033000Y-76173359D01*
%TO.C,U2*%
X147883000Y-75457000D02*
X151643000Y-75457000D01*
X147883000Y-82277000D02*
X151643000Y-82277000D01*
X151643000Y-75457000D02*
X151643000Y-76717000D01*
X151643000Y-82277000D02*
X151643000Y-81017000D01*
D14*
%TO.C,TP1*%
X104999000Y-103148000D02*
X107599000Y-103148000D01*
X107599000Y-102128000D02*
X104999000Y-102128000D01*
%TO.C,TP4*%
X148941000Y-103148000D02*
X151541000Y-103148000D01*
X151541000Y-102128000D02*
X148941000Y-102128000D01*
D12*
%TO.C,C10*%
X119753748Y-75338000D02*
X120276252Y-75338000D01*
X119753748Y-76808000D02*
X120276252Y-76808000D01*
%TO.C,C6*%
X106330748Y-83212000D02*
X106853252Y-83212000D01*
X106330748Y-84682000D02*
X106853252Y-84682000D01*
%TO.C,U1*%
X104858000Y-75457000D02*
X104858000Y-76717000D01*
X104858000Y-82277000D02*
X104858000Y-81017000D01*
X108618000Y-75457000D02*
X104858000Y-75457000D01*
X108618000Y-82277000D02*
X104858000Y-82277000D01*
%TD*%
M02*
