%TF.GenerationSoftware,KiCad,Pcbnew,7.0.9*%
%TF.CreationDate,2024-01-09T18:55:52-07:00*%
%TF.ProjectId,Breadboard Power Supply,42726561-6462-46f6-9172-6420506f7765,v10*%
%TF.SameCoordinates,Original*%
%TF.FileFunction,Copper,L4,Bot*%
%TF.FilePolarity,Positive*%
%FSLAX46Y46*%
G04 Gerber Fmt 4.6, Leading zero omitted, Abs format (unit mm)*
G04 Created by KiCad (PCBNEW 7.0.9) date 2024-01-09 18:55:52*
%MOMM*%
%LPD*%
G01*
G04 APERTURE LIST*
G04 Aperture macros list*
%AMRoundRect*
0 Rectangle with rounded corners*
0 $1 Rounding radius*
0 $2 $3 $4 $5 $6 $7 $8 $9 X,Y pos of 4 corners*
0 Add a 4 corners polygon primitive as box body*
4,1,4,$2,$3,$4,$5,$6,$7,$8,$9,$2,$3,0*
0 Add four circle primitives for the rounded corners*
1,1,$1+$1,$2,$3*
1,1,$1+$1,$4,$5*
1,1,$1+$1,$6,$7*
1,1,$1+$1,$8,$9*
0 Add four rect primitives between the rounded corners*
20,1,$1+$1,$2,$3,$4,$5,0*
20,1,$1+$1,$4,$5,$6,$7,0*
20,1,$1+$1,$6,$7,$8,$9,0*
20,1,$1+$1,$8,$9,$2,$3,0*%
G04 Aperture macros list end*
%ADD10C,0.080000*%
%TA.AperFunction,NonConductor*%
%ADD11C,0.080000*%
%TD*%
%TA.AperFunction,ComponentPad*%
%ADD12R,1.700000X1.700000*%
%TD*%
%TA.AperFunction,ComponentPad*%
%ADD13O,1.700000X1.700000*%
%TD*%
%TA.AperFunction,ComponentPad*%
%ADD14C,1.450000*%
%TD*%
%TA.AperFunction,ComponentPad*%
%ADD15C,1.830000*%
%TD*%
%TA.AperFunction,SMDPad,CuDef*%
%ADD16RoundRect,0.140000X0.170000X-0.140000X0.170000X0.140000X-0.170000X0.140000X-0.170000X-0.140000X0*%
%TD*%
%TA.AperFunction,SMDPad,CuDef*%
%ADD17RoundRect,0.135000X-0.135000X-0.185000X0.135000X-0.185000X0.135000X0.185000X-0.135000X0.185000X0*%
%TD*%
%TA.AperFunction,SMDPad,CuDef*%
%ADD18R,1.120000X1.370000*%
%TD*%
%TA.AperFunction,SMDPad,CuDef*%
%ADD19R,0.550000X1.200000*%
%TD*%
%TA.AperFunction,SMDPad,CuDef*%
%ADD20RoundRect,0.135000X0.135000X0.185000X-0.135000X0.185000X-0.135000X-0.185000X0.135000X-0.185000X0*%
%TD*%
%TA.AperFunction,SMDPad,CuDef*%
%ADD21RoundRect,0.135000X-0.185000X0.135000X-0.185000X-0.135000X0.185000X-0.135000X0.185000X0.135000X0*%
%TD*%
%TA.AperFunction,SMDPad,CuDef*%
%ADD22RoundRect,0.250000X-1.100000X0.325000X-1.100000X-0.325000X1.100000X-0.325000X1.100000X0.325000X0*%
%TD*%
%TA.AperFunction,SMDPad,CuDef*%
%ADD23RoundRect,0.140000X-0.170000X0.140000X-0.170000X-0.140000X0.170000X-0.140000X0.170000X0.140000X0*%
%TD*%
%TA.AperFunction,SMDPad,CuDef*%
%ADD24RoundRect,0.250000X1.100000X-0.325000X1.100000X0.325000X-1.100000X0.325000X-1.100000X-0.325000X0*%
%TD*%
%TA.AperFunction,ViaPad*%
%ADD25C,0.800000*%
%TD*%
%TA.AperFunction,Conductor*%
%ADD26C,0.750000*%
%TD*%
%TA.AperFunction,Conductor*%
%ADD27C,0.250000*%
%TD*%
G04 APERTURE END LIST*
D10*
D11*
X154146237Y-76300149D02*
X154431951Y-76300149D01*
X154289094Y-76300149D02*
X154289094Y-75800149D01*
X154289094Y-75800149D02*
X154336713Y-75871578D01*
X154336713Y-75871578D02*
X154384332Y-75919197D01*
X154384332Y-75919197D02*
X154431951Y-75943006D01*
X153955761Y-75847768D02*
X153931952Y-75823959D01*
X153931952Y-75823959D02*
X153884333Y-75800149D01*
X153884333Y-75800149D02*
X153765285Y-75800149D01*
X153765285Y-75800149D02*
X153717666Y-75823959D01*
X153717666Y-75823959D02*
X153693857Y-75847768D01*
X153693857Y-75847768D02*
X153670047Y-75895387D01*
X153670047Y-75895387D02*
X153670047Y-75943006D01*
X153670047Y-75943006D02*
X153693857Y-76014435D01*
X153693857Y-76014435D02*
X153979571Y-76300149D01*
X153979571Y-76300149D02*
X153670047Y-76300149D01*
D12*
%TO.P,J4,1,Pin_1*%
%TO.N,+1V8*%
X151003000Y-86360000D03*
D13*
%TO.P,J4,2,Pin_2*%
%TO.N,/TOP_POWER_RAIL*%
X153543000Y-86360000D03*
%TO.P,J4,3,Pin_3*%
%TO.N,+3.3V*%
X151003000Y-88900000D03*
%TO.P,J4,4,Pin_4*%
%TO.N,/TOP_POWER_RAIL*%
X153543000Y-88900000D03*
%TO.P,J4,5,Pin_5*%
%TO.N,VBUS*%
X151003000Y-91440000D03*
%TO.P,J4,6,Pin_6*%
%TO.N,/TOP_POWER_RAIL*%
X153543000Y-91440000D03*
%TO.P,J4,7,Pin_7*%
%TO.N,+12V*%
X151003000Y-93980000D03*
%TO.P,J4,8,Pin_8*%
%TO.N,/TOP_POWER_RAIL*%
X153543000Y-93980000D03*
%TD*%
D14*
%TO.P,J1,MH1,MH1*%
%TO.N,GND*%
X132592000Y-77974000D03*
%TO.P,J1,MH2,MH2*%
X123952000Y-77974000D03*
%TO.P,J1,MH3,MH3*%
X132592000Y-81774000D03*
%TO.P,J1,MH4,MH4*%
X123952000Y-81774000D03*
%TD*%
D12*
%TO.P,J5,1,Pin_1*%
%TO.N,/BOTTOM_POWER_RAIL*%
X102997000Y-86360000D03*
D13*
%TO.P,J5,2,Pin_2*%
%TO.N,+1V8*%
X105537000Y-86360000D03*
%TO.P,J5,3,Pin_3*%
%TO.N,/BOTTOM_POWER_RAIL*%
X102997000Y-88900000D03*
%TO.P,J5,4,Pin_4*%
%TO.N,+3.3V*%
X105537000Y-88900000D03*
%TO.P,J5,5,Pin_5*%
%TO.N,/BOTTOM_POWER_RAIL*%
X102997000Y-91440000D03*
%TO.P,J5,6,Pin_6*%
%TO.N,VBUS*%
X105537000Y-91440000D03*
%TO.P,J5,7,Pin_7*%
%TO.N,/BOTTOM_POWER_RAIL*%
X102997000Y-93980000D03*
%TO.P,J5,8,Pin_8*%
%TO.N,+12V*%
X105537000Y-93980000D03*
%TD*%
D15*
%TO.P,TP1,1,1*%
%TO.N,GND*%
X103759000Y-102638000D03*
%TO.P,TP1,2,2*%
X108839000Y-102638000D03*
%TD*%
%TO.P,TP4,1,1*%
%TO.N,GND*%
X147701000Y-102638000D03*
%TO.P,TP4,2,2*%
X152781000Y-102638000D03*
%TD*%
D16*
%TO.P,C7,1*%
%TO.N,+3.3V*%
X145161000Y-78303000D03*
%TO.P,C7,2*%
%TO.N,GND*%
X145161000Y-77343000D03*
%TD*%
D17*
%TO.P,R12,1*%
%TO.N,+12V*%
X129919000Y-79629000D03*
%TO.P,R12,2*%
%TO.N,Net-(R12-Pad2)*%
X130939000Y-79629000D03*
%TD*%
D18*
%TO.P,D2,1,A1*%
%TO.N,+12V*%
X128881000Y-77597000D03*
%TO.P,D2,2,A2*%
%TO.N,Net-(D2-A2)*%
X125881000Y-77597000D03*
%TD*%
D12*
%TO.P,J10,1,Pin_1*%
%TO.N,GND*%
X114300000Y-78740000D03*
D13*
%TO.P,J10,2,Pin_2*%
X114300000Y-81280000D03*
%TD*%
D19*
%TO.P,IC1,1,SW*%
%TO.N,Net-(D2-A2)*%
X126411000Y-79837000D03*
%TO.P,IC1,2,GND*%
%TO.N,GND*%
X127361000Y-79837000D03*
%TO.P,IC1,3,FB*%
%TO.N,Net-(IC1-FB)*%
X128311000Y-79837000D03*
%TO.P,IC1,4,~{SHDN}*%
%TO.N,Net-(IC1-~{SHDN})*%
X128311000Y-82337000D03*
%TO.P,IC1,5,VIN*%
%TO.N,VBUS*%
X126411000Y-82337000D03*
%TD*%
D20*
%TO.P,R9,1*%
%TO.N,Net-(R12-Pad2)*%
X130941000Y-80899000D03*
%TO.P,R9,2*%
%TO.N,Net-(IC1-FB)*%
X129921000Y-80899000D03*
%TD*%
D12*
%TO.P,J8,1,Pin_1*%
%TO.N,/TOP_POWER_RAIL*%
X151765000Y-99060000D03*
D13*
%TO.P,J8,2,Pin_2*%
%TO.N,GND*%
X149225000Y-99060000D03*
%TD*%
D21*
%TO.P,R10,1*%
%TO.N,VBUS*%
X124841000Y-79373000D03*
%TO.P,R10,2*%
%TO.N,Net-(IC1-~{SHDN})*%
X124841000Y-80393000D03*
%TD*%
D17*
%TO.P,R13,1*%
%TO.N,Net-(IC1-FB)*%
X129919000Y-82169000D03*
%TO.P,R13,2*%
%TO.N,GND*%
X130939000Y-82169000D03*
%TD*%
D22*
%TO.P,C11,1*%
%TO.N,+12V*%
X136525000Y-78916000D03*
%TO.P,C11,2*%
%TO.N,GND*%
X136525000Y-81866000D03*
%TD*%
D12*
%TO.P,J11,1,Pin_1*%
%TO.N,GND*%
X142240000Y-78740000D03*
D13*
%TO.P,J11,2,Pin_2*%
X142240000Y-81280000D03*
%TD*%
D23*
%TO.P,C1,1*%
%TO.N,+12V*%
X134239000Y-78669000D03*
%TO.P,C1,2*%
%TO.N,GND*%
X134239000Y-79629000D03*
%TD*%
D21*
%TO.P,R5,1*%
%TO.N,+3.3V*%
X145161000Y-80391000D03*
%TO.P,R5,2*%
%TO.N,Net-(U2-ADJ)*%
X145161000Y-81411000D03*
%TD*%
D24*
%TO.P,C10,1*%
%TO.N,VBUS*%
X118237000Y-81104000D03*
%TO.P,C10,2*%
%TO.N,GND*%
X118237000Y-78154000D03*
%TD*%
D12*
%TO.P,J9,1,Pin_1*%
%TO.N,/BOTTOM_POWER_RAIL*%
X107315000Y-99060000D03*
D13*
%TO.P,J9,2,Pin_2*%
%TO.N,GND*%
X104775000Y-99060000D03*
%TD*%
D25*
%TO.N,GND*%
X136525000Y-83185000D03*
X104733500Y-81153000D03*
X119761000Y-77343000D03*
X101981000Y-81407000D03*
X143891000Y-76835000D03*
X140335000Y-82169000D03*
X138049000Y-76666500D03*
X134493000Y-77724000D03*
X110045500Y-82867500D03*
X127381000Y-78613000D03*
%TO.N,+3.3V*%
X143891000Y-78359000D03*
%TO.N,+1V8*%
X141605000Y-75692000D03*
%TO.N,Net-(U2-ADJ)*%
X148727517Y-77574678D03*
%TO.N,+12V*%
X108458000Y-87630000D03*
%TO.N,Net-(D2-A2)*%
X121539000Y-77343000D03*
%TO.N,VBUS*%
X129866751Y-83088500D03*
X138367783Y-81123986D03*
X107315000Y-85344000D03*
X148971000Y-80645000D03*
X107315000Y-79375000D03*
X143891000Y-82423000D03*
X127127000Y-83185000D03*
X107569000Y-76581000D03*
X123534471Y-79230971D03*
X118237000Y-82423000D03*
X119761000Y-82169000D03*
%TD*%
D26*
%TO.N,GND*%
X136525000Y-81866000D02*
X136525000Y-83185000D01*
D27*
X133929001Y-79629000D02*
X133539000Y-79238999D01*
X134239000Y-79629000D02*
X133929001Y-79629000D01*
X134212510Y-77724000D02*
X134493000Y-77724000D01*
D26*
X118950000Y-78154000D02*
X119761000Y-77343000D01*
D27*
X144399000Y-77343000D02*
X143891000Y-76835000D01*
X132197000Y-82169000D02*
X132592000Y-81774000D01*
X130939000Y-82169000D02*
X132197000Y-82169000D01*
D26*
X127361000Y-79837000D02*
X127361000Y-78633000D01*
D27*
X145161000Y-77343000D02*
X144399000Y-77343000D01*
X133539000Y-78397510D02*
X134212510Y-77724000D01*
D26*
X127361000Y-78633000D02*
X127381000Y-78613000D01*
D27*
X133539000Y-79238999D02*
X133539000Y-78397510D01*
D26*
X118237000Y-78154000D02*
X118950000Y-78154000D01*
D27*
%TO.N,+3.3V*%
X145161000Y-80391000D02*
X145161000Y-78303000D01*
X145161000Y-78303000D02*
X143947000Y-78303000D01*
X143947000Y-78303000D02*
X143891000Y-78359000D01*
D26*
%TO.N,+1V8*%
X151003000Y-77343000D02*
X151003000Y-86360000D01*
X141605000Y-75692000D02*
X149352000Y-75692000D01*
X149352000Y-75692000D02*
X151003000Y-77343000D01*
D27*
%TO.N,Net-(U2-ADJ)*%
X145161000Y-81411000D02*
X147193000Y-79379000D01*
X147193000Y-79379000D02*
X147193000Y-79109195D01*
X147193000Y-79109195D02*
X148727517Y-77574678D01*
D26*
%TO.N,+12V*%
X133985000Y-84582000D02*
X145923000Y-84582000D01*
X130234834Y-77597000D02*
X128881000Y-77597000D01*
X129919000Y-79321166D02*
X130784083Y-78456083D01*
X133130478Y-80474000D02*
X133985000Y-81328522D01*
X131093917Y-78456083D02*
X133111834Y-80474000D01*
X129919000Y-79629000D02*
X129919000Y-79321166D01*
X136525000Y-78916000D02*
X136308000Y-78699000D01*
X108458000Y-86741000D02*
X110236000Y-84963000D01*
X145923000Y-84582000D02*
X149352000Y-88011000D01*
X130784083Y-78456083D02*
X131093917Y-78456083D01*
X149352000Y-92329000D02*
X151003000Y-93980000D01*
X121031000Y-84582000D02*
X122047000Y-84582000D01*
X133985000Y-81328522D02*
X133985000Y-84582000D01*
X133985000Y-81328522D02*
X134112478Y-81328522D01*
X110617000Y-84582000D02*
X121031000Y-84582000D01*
X122047000Y-84582000D02*
X133985000Y-84582000D01*
X134112478Y-81328522D02*
X136525000Y-78916000D01*
X149352000Y-88011000D02*
X149352000Y-92329000D01*
X136308000Y-78699000D02*
X134239000Y-78699000D01*
X110236000Y-84963000D02*
X110617000Y-84582000D01*
X133111834Y-80474000D02*
X133130478Y-80474000D01*
X131093917Y-78456083D02*
X130234834Y-77597000D01*
X108458000Y-87630000D02*
X108458000Y-86741000D01*
%TO.N,Net-(D2-A2)*%
X125881000Y-77597000D02*
X125881000Y-79307000D01*
X122208000Y-76674000D02*
X124958000Y-76674000D01*
X121539000Y-77343000D02*
X122208000Y-76674000D01*
X125881000Y-79307000D02*
X126411000Y-79837000D01*
X124958000Y-76674000D02*
X125881000Y-77597000D01*
D27*
%TO.N,Net-(IC1-FB)*%
X129921000Y-80899000D02*
X129373000Y-80899000D01*
X129921000Y-80899000D02*
X129921000Y-82167000D01*
X129373000Y-80899000D02*
X128311000Y-79837000D01*
X129921000Y-82167000D02*
X129919000Y-82169000D01*
D26*
%TO.N,VBUS*%
X126411000Y-82337000D02*
X126411000Y-82469000D01*
D27*
X123676500Y-79373000D02*
X123534471Y-79230971D01*
D26*
X107315000Y-79375000D02*
X107315000Y-76835000D01*
X118237000Y-81104000D02*
X118237000Y-82423000D01*
X107315000Y-85344000D02*
X107324424Y-85353424D01*
X107324424Y-85353424D02*
X107324424Y-89652576D01*
X107324424Y-89652576D02*
X105537000Y-91440000D01*
D27*
X124841000Y-79373000D02*
X123676500Y-79373000D01*
D26*
X107315000Y-76835000D02*
X107569000Y-76581000D01*
X126411000Y-82469000D02*
X127127000Y-83185000D01*
D27*
%TO.N,Net-(R12-Pad2)*%
X130939000Y-79629000D02*
X130939000Y-80897000D01*
X130939000Y-80897000D02*
X130941000Y-80899000D01*
%TO.N,Net-(IC1-~{SHDN})*%
X124841000Y-80393000D02*
X125210000Y-80762000D01*
X125210000Y-80762000D02*
X126736000Y-80762000D01*
X126736000Y-80762000D02*
X128311000Y-82337000D01*
%TD*%
M02*
