%TF.GenerationSoftware,KiCad,Pcbnew,(7.0.0-0)*%
%TF.CreationDate,2023-05-01T17:42:34-06:00*%
%TF.ProjectId,Breadboard Power Supply,42726561-6462-46f6-9172-6420506f7765,v6*%
%TF.SameCoordinates,Original*%
%TF.FileFunction,Legend,Top*%
%TF.FilePolarity,Positive*%
%FSLAX46Y46*%
G04 Gerber Fmt 4.6, Leading zero omitted, Abs format (unit mm)*
G04 Created by KiCad (PCBNEW (7.0.0-0)) date 2023-05-01 17:42:34*
%MOMM*%
%LPD*%
G01*
G04 APERTURE LIST*
%ADD10C,0.150000*%
%ADD11C,0.100000*%
%ADD12C,0.200000*%
%ADD13C,0.120000*%
%ADD14C,0.127000*%
%ADD15C,0.152400*%
G04 APERTURE END LIST*
D10*
X152325380Y-89868238D02*
X152325380Y-90344428D01*
X152325380Y-90344428D02*
X152801571Y-90392047D01*
X152801571Y-90392047D02*
X152753952Y-90344428D01*
X152753952Y-90344428D02*
X152706333Y-90249190D01*
X152706333Y-90249190D02*
X152706333Y-90011095D01*
X152706333Y-90011095D02*
X152753952Y-89915857D01*
X152753952Y-89915857D02*
X152801571Y-89868238D01*
X152801571Y-89868238D02*
X152896809Y-89820619D01*
X152896809Y-89820619D02*
X153134904Y-89820619D01*
X153134904Y-89820619D02*
X153230142Y-89868238D01*
X153230142Y-89868238D02*
X153277761Y-89915857D01*
X153277761Y-89915857D02*
X153325380Y-90011095D01*
X153325380Y-90011095D02*
X153325380Y-90249190D01*
X153325380Y-90249190D02*
X153277761Y-90344428D01*
X153277761Y-90344428D02*
X153230142Y-90392047D01*
X152325380Y-89534904D02*
X153325380Y-89201571D01*
X153325380Y-89201571D02*
X152325380Y-88868238D01*
X105843380Y-91868237D02*
X105843380Y-91249190D01*
X105843380Y-91249190D02*
X106224333Y-91582523D01*
X106224333Y-91582523D02*
X106224333Y-91439666D01*
X106224333Y-91439666D02*
X106271952Y-91344428D01*
X106271952Y-91344428D02*
X106319571Y-91296809D01*
X106319571Y-91296809D02*
X106414809Y-91249190D01*
X106414809Y-91249190D02*
X106652904Y-91249190D01*
X106652904Y-91249190D02*
X106748142Y-91296809D01*
X106748142Y-91296809D02*
X106795761Y-91344428D01*
X106795761Y-91344428D02*
X106843380Y-91439666D01*
X106843380Y-91439666D02*
X106843380Y-91725380D01*
X106843380Y-91725380D02*
X106795761Y-91820618D01*
X106795761Y-91820618D02*
X106748142Y-91868237D01*
X106748142Y-90820618D02*
X106795761Y-90772999D01*
X106795761Y-90772999D02*
X106843380Y-90820618D01*
X106843380Y-90820618D02*
X106795761Y-90868237D01*
X106795761Y-90868237D02*
X106748142Y-90820618D01*
X106748142Y-90820618D02*
X106843380Y-90820618D01*
X105843380Y-90439666D02*
X105843380Y-89820619D01*
X105843380Y-89820619D02*
X106224333Y-90153952D01*
X106224333Y-90153952D02*
X106224333Y-90011095D01*
X106224333Y-90011095D02*
X106271952Y-89915857D01*
X106271952Y-89915857D02*
X106319571Y-89868238D01*
X106319571Y-89868238D02*
X106414809Y-89820619D01*
X106414809Y-89820619D02*
X106652904Y-89820619D01*
X106652904Y-89820619D02*
X106748142Y-89868238D01*
X106748142Y-89868238D02*
X106795761Y-89915857D01*
X106795761Y-89915857D02*
X106843380Y-90011095D01*
X106843380Y-90011095D02*
X106843380Y-90296809D01*
X106843380Y-90296809D02*
X106795761Y-90392047D01*
X106795761Y-90392047D02*
X106748142Y-90439666D01*
X105843380Y-89534904D02*
X106843380Y-89201571D01*
X106843380Y-89201571D02*
X105843380Y-88868238D01*
X104303380Y-91249190D02*
X104303380Y-91820618D01*
X104303380Y-91534904D02*
X103303380Y-91534904D01*
X103303380Y-91534904D02*
X103446238Y-91630142D01*
X103446238Y-91630142D02*
X103541476Y-91725380D01*
X103541476Y-91725380D02*
X103589095Y-91820618D01*
X104208142Y-90820618D02*
X104255761Y-90772999D01*
X104255761Y-90772999D02*
X104303380Y-90820618D01*
X104303380Y-90820618D02*
X104255761Y-90868237D01*
X104255761Y-90868237D02*
X104208142Y-90820618D01*
X104208142Y-90820618D02*
X104303380Y-90820618D01*
X103731952Y-90201571D02*
X103684333Y-90296809D01*
X103684333Y-90296809D02*
X103636714Y-90344428D01*
X103636714Y-90344428D02*
X103541476Y-90392047D01*
X103541476Y-90392047D02*
X103493857Y-90392047D01*
X103493857Y-90392047D02*
X103398619Y-90344428D01*
X103398619Y-90344428D02*
X103351000Y-90296809D01*
X103351000Y-90296809D02*
X103303380Y-90201571D01*
X103303380Y-90201571D02*
X103303380Y-90011095D01*
X103303380Y-90011095D02*
X103351000Y-89915857D01*
X103351000Y-89915857D02*
X103398619Y-89868238D01*
X103398619Y-89868238D02*
X103493857Y-89820619D01*
X103493857Y-89820619D02*
X103541476Y-89820619D01*
X103541476Y-89820619D02*
X103636714Y-89868238D01*
X103636714Y-89868238D02*
X103684333Y-89915857D01*
X103684333Y-89915857D02*
X103731952Y-90011095D01*
X103731952Y-90011095D02*
X103731952Y-90201571D01*
X103731952Y-90201571D02*
X103779571Y-90296809D01*
X103779571Y-90296809D02*
X103827190Y-90344428D01*
X103827190Y-90344428D02*
X103922428Y-90392047D01*
X103922428Y-90392047D02*
X104112904Y-90392047D01*
X104112904Y-90392047D02*
X104208142Y-90344428D01*
X104208142Y-90344428D02*
X104255761Y-90296809D01*
X104255761Y-90296809D02*
X104303380Y-90201571D01*
X104303380Y-90201571D02*
X104303380Y-90011095D01*
X104303380Y-90011095D02*
X104255761Y-89915857D01*
X104255761Y-89915857D02*
X104208142Y-89868238D01*
X104208142Y-89868238D02*
X104112904Y-89820619D01*
X104112904Y-89820619D02*
X103922428Y-89820619D01*
X103922428Y-89820619D02*
X103827190Y-89868238D01*
X103827190Y-89868238D02*
X103779571Y-89915857D01*
X103779571Y-89915857D02*
X103731952Y-90011095D01*
X103303380Y-89534904D02*
X104303380Y-89201571D01*
X104303380Y-89201571D02*
X103303380Y-88868238D01*
X149785380Y-91868237D02*
X149785380Y-91249190D01*
X149785380Y-91249190D02*
X150166333Y-91582523D01*
X150166333Y-91582523D02*
X150166333Y-91439666D01*
X150166333Y-91439666D02*
X150213952Y-91344428D01*
X150213952Y-91344428D02*
X150261571Y-91296809D01*
X150261571Y-91296809D02*
X150356809Y-91249190D01*
X150356809Y-91249190D02*
X150594904Y-91249190D01*
X150594904Y-91249190D02*
X150690142Y-91296809D01*
X150690142Y-91296809D02*
X150737761Y-91344428D01*
X150737761Y-91344428D02*
X150785380Y-91439666D01*
X150785380Y-91439666D02*
X150785380Y-91725380D01*
X150785380Y-91725380D02*
X150737761Y-91820618D01*
X150737761Y-91820618D02*
X150690142Y-91868237D01*
X150690142Y-90820618D02*
X150737761Y-90772999D01*
X150737761Y-90772999D02*
X150785380Y-90820618D01*
X150785380Y-90820618D02*
X150737761Y-90868237D01*
X150737761Y-90868237D02*
X150690142Y-90820618D01*
X150690142Y-90820618D02*
X150785380Y-90820618D01*
X149785380Y-90439666D02*
X149785380Y-89820619D01*
X149785380Y-89820619D02*
X150166333Y-90153952D01*
X150166333Y-90153952D02*
X150166333Y-90011095D01*
X150166333Y-90011095D02*
X150213952Y-89915857D01*
X150213952Y-89915857D02*
X150261571Y-89868238D01*
X150261571Y-89868238D02*
X150356809Y-89820619D01*
X150356809Y-89820619D02*
X150594904Y-89820619D01*
X150594904Y-89820619D02*
X150690142Y-89868238D01*
X150690142Y-89868238D02*
X150737761Y-89915857D01*
X150737761Y-89915857D02*
X150785380Y-90011095D01*
X150785380Y-90011095D02*
X150785380Y-90296809D01*
X150785380Y-90296809D02*
X150737761Y-90392047D01*
X150737761Y-90392047D02*
X150690142Y-90439666D01*
X149785380Y-89534904D02*
X150785380Y-89201571D01*
X150785380Y-89201571D02*
X149785380Y-88868238D01*
X148245380Y-91249190D02*
X148245380Y-91820618D01*
X148245380Y-91534904D02*
X147245380Y-91534904D01*
X147245380Y-91534904D02*
X147388238Y-91630142D01*
X147388238Y-91630142D02*
X147483476Y-91725380D01*
X147483476Y-91725380D02*
X147531095Y-91820618D01*
X148150142Y-90820618D02*
X148197761Y-90772999D01*
X148197761Y-90772999D02*
X148245380Y-90820618D01*
X148245380Y-90820618D02*
X148197761Y-90868237D01*
X148197761Y-90868237D02*
X148150142Y-90820618D01*
X148150142Y-90820618D02*
X148245380Y-90820618D01*
X147673952Y-90201571D02*
X147626333Y-90296809D01*
X147626333Y-90296809D02*
X147578714Y-90344428D01*
X147578714Y-90344428D02*
X147483476Y-90392047D01*
X147483476Y-90392047D02*
X147435857Y-90392047D01*
X147435857Y-90392047D02*
X147340619Y-90344428D01*
X147340619Y-90344428D02*
X147293000Y-90296809D01*
X147293000Y-90296809D02*
X147245380Y-90201571D01*
X147245380Y-90201571D02*
X147245380Y-90011095D01*
X147245380Y-90011095D02*
X147293000Y-89915857D01*
X147293000Y-89915857D02*
X147340619Y-89868238D01*
X147340619Y-89868238D02*
X147435857Y-89820619D01*
X147435857Y-89820619D02*
X147483476Y-89820619D01*
X147483476Y-89820619D02*
X147578714Y-89868238D01*
X147578714Y-89868238D02*
X147626333Y-89915857D01*
X147626333Y-89915857D02*
X147673952Y-90011095D01*
X147673952Y-90011095D02*
X147673952Y-90201571D01*
X147673952Y-90201571D02*
X147721571Y-90296809D01*
X147721571Y-90296809D02*
X147769190Y-90344428D01*
X147769190Y-90344428D02*
X147864428Y-90392047D01*
X147864428Y-90392047D02*
X148054904Y-90392047D01*
X148054904Y-90392047D02*
X148150142Y-90344428D01*
X148150142Y-90344428D02*
X148197761Y-90296809D01*
X148197761Y-90296809D02*
X148245380Y-90201571D01*
X148245380Y-90201571D02*
X148245380Y-90011095D01*
X148245380Y-90011095D02*
X148197761Y-89915857D01*
X148197761Y-89915857D02*
X148150142Y-89868238D01*
X148150142Y-89868238D02*
X148054904Y-89820619D01*
X148054904Y-89820619D02*
X147864428Y-89820619D01*
X147864428Y-89820619D02*
X147769190Y-89868238D01*
X147769190Y-89868238D02*
X147721571Y-89915857D01*
X147721571Y-89915857D02*
X147673952Y-90011095D01*
X147245380Y-89534904D02*
X148245380Y-89201571D01*
X148245380Y-89201571D02*
X147245380Y-88868238D01*
X108383380Y-89868238D02*
X108383380Y-90344428D01*
X108383380Y-90344428D02*
X108859571Y-90392047D01*
X108859571Y-90392047D02*
X108811952Y-90344428D01*
X108811952Y-90344428D02*
X108764333Y-90249190D01*
X108764333Y-90249190D02*
X108764333Y-90011095D01*
X108764333Y-90011095D02*
X108811952Y-89915857D01*
X108811952Y-89915857D02*
X108859571Y-89868238D01*
X108859571Y-89868238D02*
X108954809Y-89820619D01*
X108954809Y-89820619D02*
X109192904Y-89820619D01*
X109192904Y-89820619D02*
X109288142Y-89868238D01*
X109288142Y-89868238D02*
X109335761Y-89915857D01*
X109335761Y-89915857D02*
X109383380Y-90011095D01*
X109383380Y-90011095D02*
X109383380Y-90249190D01*
X109383380Y-90249190D02*
X109335761Y-90344428D01*
X109335761Y-90344428D02*
X109288142Y-90392047D01*
X108383380Y-89534904D02*
X109383380Y-89201571D01*
X109383380Y-89201571D02*
X108383380Y-88868238D01*
D11*
%TO.C,J1*%
X122542333Y-79336904D02*
X122542333Y-79908333D01*
X122542333Y-79908333D02*
X122504238Y-80022619D01*
X122504238Y-80022619D02*
X122428047Y-80098809D01*
X122428047Y-80098809D02*
X122313762Y-80136904D01*
X122313762Y-80136904D02*
X122237571Y-80136904D01*
X123342333Y-80136904D02*
X122885190Y-80136904D01*
X123113762Y-80136904D02*
X123113762Y-79336904D01*
X123113762Y-79336904D02*
X123037571Y-79451190D01*
X123037571Y-79451190D02*
X122961381Y-79527380D01*
X122961381Y-79527380D02*
X122885190Y-79565476D01*
%TO.C,C5*%
X143230714Y-76290714D02*
X143192618Y-76328809D01*
X143192618Y-76328809D02*
X143078333Y-76366904D01*
X143078333Y-76366904D02*
X143002142Y-76366904D01*
X143002142Y-76366904D02*
X142887856Y-76328809D01*
X142887856Y-76328809D02*
X142811666Y-76252619D01*
X142811666Y-76252619D02*
X142773571Y-76176428D01*
X142773571Y-76176428D02*
X142735475Y-76024047D01*
X142735475Y-76024047D02*
X142735475Y-75909761D01*
X142735475Y-75909761D02*
X142773571Y-75757380D01*
X142773571Y-75757380D02*
X142811666Y-75681190D01*
X142811666Y-75681190D02*
X142887856Y-75605000D01*
X142887856Y-75605000D02*
X143002142Y-75566904D01*
X143002142Y-75566904D02*
X143078333Y-75566904D01*
X143078333Y-75566904D02*
X143192618Y-75605000D01*
X143192618Y-75605000D02*
X143230714Y-75643095D01*
X143954523Y-75566904D02*
X143573571Y-75566904D01*
X143573571Y-75566904D02*
X143535475Y-75947857D01*
X143535475Y-75947857D02*
X143573571Y-75909761D01*
X143573571Y-75909761D02*
X143649761Y-75871666D01*
X143649761Y-75871666D02*
X143840237Y-75871666D01*
X143840237Y-75871666D02*
X143916428Y-75909761D01*
X143916428Y-75909761D02*
X143954523Y-75947857D01*
X143954523Y-75947857D02*
X143992618Y-76024047D01*
X143992618Y-76024047D02*
X143992618Y-76214523D01*
X143992618Y-76214523D02*
X143954523Y-76290714D01*
X143954523Y-76290714D02*
X143916428Y-76328809D01*
X143916428Y-76328809D02*
X143840237Y-76366904D01*
X143840237Y-76366904D02*
X143649761Y-76366904D01*
X143649761Y-76366904D02*
X143573571Y-76328809D01*
X143573571Y-76328809D02*
X143535475Y-76290714D01*
%TO.C,J2*%
X153185047Y-81789904D02*
X153185047Y-82361333D01*
X153185047Y-82361333D02*
X153146952Y-82475619D01*
X153146952Y-82475619D02*
X153070761Y-82551809D01*
X153070761Y-82551809D02*
X152956476Y-82589904D01*
X152956476Y-82589904D02*
X152880285Y-82589904D01*
X153527904Y-81866095D02*
X153566000Y-81828000D01*
X153566000Y-81828000D02*
X153642190Y-81789904D01*
X153642190Y-81789904D02*
X153832666Y-81789904D01*
X153832666Y-81789904D02*
X153908857Y-81828000D01*
X153908857Y-81828000D02*
X153946952Y-81866095D01*
X153946952Y-81866095D02*
X153985047Y-81942285D01*
X153985047Y-81942285D02*
X153985047Y-82018476D01*
X153985047Y-82018476D02*
X153946952Y-82132761D01*
X153946952Y-82132761D02*
X153489809Y-82589904D01*
X153489809Y-82589904D02*
X153985047Y-82589904D01*
%TO.C,C8*%
X114058619Y-79846714D02*
X114020523Y-79884809D01*
X114020523Y-79884809D02*
X113906238Y-79922904D01*
X113906238Y-79922904D02*
X113830047Y-79922904D01*
X113830047Y-79922904D02*
X113715761Y-79884809D01*
X113715761Y-79884809D02*
X113639571Y-79808619D01*
X113639571Y-79808619D02*
X113601476Y-79732428D01*
X113601476Y-79732428D02*
X113563380Y-79580047D01*
X113563380Y-79580047D02*
X113563380Y-79465761D01*
X113563380Y-79465761D02*
X113601476Y-79313380D01*
X113601476Y-79313380D02*
X113639571Y-79237190D01*
X113639571Y-79237190D02*
X113715761Y-79161000D01*
X113715761Y-79161000D02*
X113830047Y-79122904D01*
X113830047Y-79122904D02*
X113906238Y-79122904D01*
X113906238Y-79122904D02*
X114020523Y-79161000D01*
X114020523Y-79161000D02*
X114058619Y-79199095D01*
X114515761Y-79465761D02*
X114439571Y-79427666D01*
X114439571Y-79427666D02*
X114401476Y-79389571D01*
X114401476Y-79389571D02*
X114363380Y-79313380D01*
X114363380Y-79313380D02*
X114363380Y-79275285D01*
X114363380Y-79275285D02*
X114401476Y-79199095D01*
X114401476Y-79199095D02*
X114439571Y-79161000D01*
X114439571Y-79161000D02*
X114515761Y-79122904D01*
X114515761Y-79122904D02*
X114668142Y-79122904D01*
X114668142Y-79122904D02*
X114744333Y-79161000D01*
X114744333Y-79161000D02*
X114782428Y-79199095D01*
X114782428Y-79199095D02*
X114820523Y-79275285D01*
X114820523Y-79275285D02*
X114820523Y-79313380D01*
X114820523Y-79313380D02*
X114782428Y-79389571D01*
X114782428Y-79389571D02*
X114744333Y-79427666D01*
X114744333Y-79427666D02*
X114668142Y-79465761D01*
X114668142Y-79465761D02*
X114515761Y-79465761D01*
X114515761Y-79465761D02*
X114439571Y-79503857D01*
X114439571Y-79503857D02*
X114401476Y-79541952D01*
X114401476Y-79541952D02*
X114363380Y-79618142D01*
X114363380Y-79618142D02*
X114363380Y-79770523D01*
X114363380Y-79770523D02*
X114401476Y-79846714D01*
X114401476Y-79846714D02*
X114439571Y-79884809D01*
X114439571Y-79884809D02*
X114515761Y-79922904D01*
X114515761Y-79922904D02*
X114668142Y-79922904D01*
X114668142Y-79922904D02*
X114744333Y-79884809D01*
X114744333Y-79884809D02*
X114782428Y-79846714D01*
X114782428Y-79846714D02*
X114820523Y-79770523D01*
X114820523Y-79770523D02*
X114820523Y-79618142D01*
X114820523Y-79618142D02*
X114782428Y-79541952D01*
X114782428Y-79541952D02*
X114744333Y-79503857D01*
X114744333Y-79503857D02*
X114668142Y-79465761D01*
%TO.C,C7*%
X142214714Y-78068714D02*
X142176618Y-78106809D01*
X142176618Y-78106809D02*
X142062333Y-78144904D01*
X142062333Y-78144904D02*
X141986142Y-78144904D01*
X141986142Y-78144904D02*
X141871856Y-78106809D01*
X141871856Y-78106809D02*
X141795666Y-78030619D01*
X141795666Y-78030619D02*
X141757571Y-77954428D01*
X141757571Y-77954428D02*
X141719475Y-77802047D01*
X141719475Y-77802047D02*
X141719475Y-77687761D01*
X141719475Y-77687761D02*
X141757571Y-77535380D01*
X141757571Y-77535380D02*
X141795666Y-77459190D01*
X141795666Y-77459190D02*
X141871856Y-77383000D01*
X141871856Y-77383000D02*
X141986142Y-77344904D01*
X141986142Y-77344904D02*
X142062333Y-77344904D01*
X142062333Y-77344904D02*
X142176618Y-77383000D01*
X142176618Y-77383000D02*
X142214714Y-77421095D01*
X142481380Y-77344904D02*
X143014714Y-77344904D01*
X143014714Y-77344904D02*
X142671856Y-78144904D01*
%TO.C,R2*%
X138804667Y-77596904D02*
X138538000Y-77215952D01*
X138347524Y-77596904D02*
X138347524Y-76796904D01*
X138347524Y-76796904D02*
X138652286Y-76796904D01*
X138652286Y-76796904D02*
X138728476Y-76835000D01*
X138728476Y-76835000D02*
X138766571Y-76873095D01*
X138766571Y-76873095D02*
X138804667Y-76949285D01*
X138804667Y-76949285D02*
X138804667Y-77063571D01*
X138804667Y-77063571D02*
X138766571Y-77139761D01*
X138766571Y-77139761D02*
X138728476Y-77177857D01*
X138728476Y-77177857D02*
X138652286Y-77215952D01*
X138652286Y-77215952D02*
X138347524Y-77215952D01*
X139109428Y-76873095D02*
X139147524Y-76835000D01*
X139147524Y-76835000D02*
X139223714Y-76796904D01*
X139223714Y-76796904D02*
X139414190Y-76796904D01*
X139414190Y-76796904D02*
X139490381Y-76835000D01*
X139490381Y-76835000D02*
X139528476Y-76873095D01*
X139528476Y-76873095D02*
X139566571Y-76949285D01*
X139566571Y-76949285D02*
X139566571Y-77025476D01*
X139566571Y-77025476D02*
X139528476Y-77139761D01*
X139528476Y-77139761D02*
X139071333Y-77596904D01*
X139071333Y-77596904D02*
X139566571Y-77596904D01*
%TO.C,C2*%
X114058619Y-77941714D02*
X114020523Y-77979809D01*
X114020523Y-77979809D02*
X113906238Y-78017904D01*
X113906238Y-78017904D02*
X113830047Y-78017904D01*
X113830047Y-78017904D02*
X113715761Y-77979809D01*
X113715761Y-77979809D02*
X113639571Y-77903619D01*
X113639571Y-77903619D02*
X113601476Y-77827428D01*
X113601476Y-77827428D02*
X113563380Y-77675047D01*
X113563380Y-77675047D02*
X113563380Y-77560761D01*
X113563380Y-77560761D02*
X113601476Y-77408380D01*
X113601476Y-77408380D02*
X113639571Y-77332190D01*
X113639571Y-77332190D02*
X113715761Y-77256000D01*
X113715761Y-77256000D02*
X113830047Y-77217904D01*
X113830047Y-77217904D02*
X113906238Y-77217904D01*
X113906238Y-77217904D02*
X114020523Y-77256000D01*
X114020523Y-77256000D02*
X114058619Y-77294095D01*
X114363380Y-77294095D02*
X114401476Y-77256000D01*
X114401476Y-77256000D02*
X114477666Y-77217904D01*
X114477666Y-77217904D02*
X114668142Y-77217904D01*
X114668142Y-77217904D02*
X114744333Y-77256000D01*
X114744333Y-77256000D02*
X114782428Y-77294095D01*
X114782428Y-77294095D02*
X114820523Y-77370285D01*
X114820523Y-77370285D02*
X114820523Y-77446476D01*
X114820523Y-77446476D02*
X114782428Y-77560761D01*
X114782428Y-77560761D02*
X114325285Y-78017904D01*
X114325285Y-78017904D02*
X114820523Y-78017904D01*
%TO.C,C4*%
X113042619Y-76290714D02*
X113004523Y-76328809D01*
X113004523Y-76328809D02*
X112890238Y-76366904D01*
X112890238Y-76366904D02*
X112814047Y-76366904D01*
X112814047Y-76366904D02*
X112699761Y-76328809D01*
X112699761Y-76328809D02*
X112623571Y-76252619D01*
X112623571Y-76252619D02*
X112585476Y-76176428D01*
X112585476Y-76176428D02*
X112547380Y-76024047D01*
X112547380Y-76024047D02*
X112547380Y-75909761D01*
X112547380Y-75909761D02*
X112585476Y-75757380D01*
X112585476Y-75757380D02*
X112623571Y-75681190D01*
X112623571Y-75681190D02*
X112699761Y-75605000D01*
X112699761Y-75605000D02*
X112814047Y-75566904D01*
X112814047Y-75566904D02*
X112890238Y-75566904D01*
X112890238Y-75566904D02*
X113004523Y-75605000D01*
X113004523Y-75605000D02*
X113042619Y-75643095D01*
X113728333Y-75833571D02*
X113728333Y-76366904D01*
X113537857Y-75528809D02*
X113347380Y-76100238D01*
X113347380Y-76100238D02*
X113842619Y-76100238D01*
%TO.C,C3*%
X143230714Y-81878714D02*
X143192618Y-81916809D01*
X143192618Y-81916809D02*
X143078333Y-81954904D01*
X143078333Y-81954904D02*
X143002142Y-81954904D01*
X143002142Y-81954904D02*
X142887856Y-81916809D01*
X142887856Y-81916809D02*
X142811666Y-81840619D01*
X142811666Y-81840619D02*
X142773571Y-81764428D01*
X142773571Y-81764428D02*
X142735475Y-81612047D01*
X142735475Y-81612047D02*
X142735475Y-81497761D01*
X142735475Y-81497761D02*
X142773571Y-81345380D01*
X142773571Y-81345380D02*
X142811666Y-81269190D01*
X142811666Y-81269190D02*
X142887856Y-81193000D01*
X142887856Y-81193000D02*
X143002142Y-81154904D01*
X143002142Y-81154904D02*
X143078333Y-81154904D01*
X143078333Y-81154904D02*
X143192618Y-81193000D01*
X143192618Y-81193000D02*
X143230714Y-81231095D01*
X143497380Y-81154904D02*
X143992618Y-81154904D01*
X143992618Y-81154904D02*
X143725952Y-81459666D01*
X143725952Y-81459666D02*
X143840237Y-81459666D01*
X143840237Y-81459666D02*
X143916428Y-81497761D01*
X143916428Y-81497761D02*
X143954523Y-81535857D01*
X143954523Y-81535857D02*
X143992618Y-81612047D01*
X143992618Y-81612047D02*
X143992618Y-81802523D01*
X143992618Y-81802523D02*
X143954523Y-81878714D01*
X143954523Y-81878714D02*
X143916428Y-81916809D01*
X143916428Y-81916809D02*
X143840237Y-81954904D01*
X143840237Y-81954904D02*
X143611666Y-81954904D01*
X143611666Y-81954904D02*
X143535475Y-81916809D01*
X143535475Y-81916809D02*
X143497380Y-81878714D01*
%TO.C,D1*%
X119805524Y-77850904D02*
X119805524Y-77050904D01*
X119805524Y-77050904D02*
X119996000Y-77050904D01*
X119996000Y-77050904D02*
X120110286Y-77089000D01*
X120110286Y-77089000D02*
X120186476Y-77165190D01*
X120186476Y-77165190D02*
X120224571Y-77241380D01*
X120224571Y-77241380D02*
X120262667Y-77393761D01*
X120262667Y-77393761D02*
X120262667Y-77508047D01*
X120262667Y-77508047D02*
X120224571Y-77660428D01*
X120224571Y-77660428D02*
X120186476Y-77736619D01*
X120186476Y-77736619D02*
X120110286Y-77812809D01*
X120110286Y-77812809D02*
X119996000Y-77850904D01*
X119996000Y-77850904D02*
X119805524Y-77850904D01*
X121024571Y-77850904D02*
X120567428Y-77850904D01*
X120796000Y-77850904D02*
X120796000Y-77050904D01*
X120796000Y-77050904D02*
X120719809Y-77165190D01*
X120719809Y-77165190D02*
X120643619Y-77241380D01*
X120643619Y-77241380D02*
X120567428Y-77279476D01*
%TO.C,C1*%
X142214714Y-79973714D02*
X142176618Y-80011809D01*
X142176618Y-80011809D02*
X142062333Y-80049904D01*
X142062333Y-80049904D02*
X141986142Y-80049904D01*
X141986142Y-80049904D02*
X141871856Y-80011809D01*
X141871856Y-80011809D02*
X141795666Y-79935619D01*
X141795666Y-79935619D02*
X141757571Y-79859428D01*
X141757571Y-79859428D02*
X141719475Y-79707047D01*
X141719475Y-79707047D02*
X141719475Y-79592761D01*
X141719475Y-79592761D02*
X141757571Y-79440380D01*
X141757571Y-79440380D02*
X141795666Y-79364190D01*
X141795666Y-79364190D02*
X141871856Y-79288000D01*
X141871856Y-79288000D02*
X141986142Y-79249904D01*
X141986142Y-79249904D02*
X142062333Y-79249904D01*
X142062333Y-79249904D02*
X142176618Y-79288000D01*
X142176618Y-79288000D02*
X142214714Y-79326095D01*
X142976618Y-80049904D02*
X142519475Y-80049904D01*
X142748047Y-80049904D02*
X142748047Y-79249904D01*
X142748047Y-79249904D02*
X142671856Y-79364190D01*
X142671856Y-79364190D02*
X142595666Y-79440380D01*
X142595666Y-79440380D02*
X142519475Y-79478476D01*
%TO.C,R1*%
X136899667Y-77596904D02*
X136633000Y-77215952D01*
X136442524Y-77596904D02*
X136442524Y-76796904D01*
X136442524Y-76796904D02*
X136747286Y-76796904D01*
X136747286Y-76796904D02*
X136823476Y-76835000D01*
X136823476Y-76835000D02*
X136861571Y-76873095D01*
X136861571Y-76873095D02*
X136899667Y-76949285D01*
X136899667Y-76949285D02*
X136899667Y-77063571D01*
X136899667Y-77063571D02*
X136861571Y-77139761D01*
X136861571Y-77139761D02*
X136823476Y-77177857D01*
X136823476Y-77177857D02*
X136747286Y-77215952D01*
X136747286Y-77215952D02*
X136442524Y-77215952D01*
X137661571Y-77596904D02*
X137204428Y-77596904D01*
X137433000Y-77596904D02*
X137433000Y-76796904D01*
X137433000Y-76796904D02*
X137356809Y-76911190D01*
X137356809Y-76911190D02*
X137280619Y-76987380D01*
X137280619Y-76987380D02*
X137204428Y-77025476D01*
%TO.C,J3*%
X102908047Y-81789904D02*
X102908047Y-82361333D01*
X102908047Y-82361333D02*
X102869952Y-82475619D01*
X102869952Y-82475619D02*
X102793761Y-82551809D01*
X102793761Y-82551809D02*
X102679476Y-82589904D01*
X102679476Y-82589904D02*
X102603285Y-82589904D01*
X103212809Y-81789904D02*
X103708047Y-81789904D01*
X103708047Y-81789904D02*
X103441381Y-82094666D01*
X103441381Y-82094666D02*
X103555666Y-82094666D01*
X103555666Y-82094666D02*
X103631857Y-82132761D01*
X103631857Y-82132761D02*
X103669952Y-82170857D01*
X103669952Y-82170857D02*
X103708047Y-82247047D01*
X103708047Y-82247047D02*
X103708047Y-82437523D01*
X103708047Y-82437523D02*
X103669952Y-82513714D01*
X103669952Y-82513714D02*
X103631857Y-82551809D01*
X103631857Y-82551809D02*
X103555666Y-82589904D01*
X103555666Y-82589904D02*
X103327095Y-82589904D01*
X103327095Y-82589904D02*
X103250904Y-82551809D01*
X103250904Y-82551809D02*
X103212809Y-82513714D01*
%TO.C,U2*%
X153187476Y-75693904D02*
X153187476Y-76341523D01*
X153187476Y-76341523D02*
X153225571Y-76417714D01*
X153225571Y-76417714D02*
X153263666Y-76455809D01*
X153263666Y-76455809D02*
X153339857Y-76493904D01*
X153339857Y-76493904D02*
X153492238Y-76493904D01*
X153492238Y-76493904D02*
X153568428Y-76455809D01*
X153568428Y-76455809D02*
X153606523Y-76417714D01*
X153606523Y-76417714D02*
X153644619Y-76341523D01*
X153644619Y-76341523D02*
X153644619Y-75693904D01*
X153987475Y-75770095D02*
X154025571Y-75732000D01*
X154025571Y-75732000D02*
X154101761Y-75693904D01*
X154101761Y-75693904D02*
X154292237Y-75693904D01*
X154292237Y-75693904D02*
X154368428Y-75732000D01*
X154368428Y-75732000D02*
X154406523Y-75770095D01*
X154406523Y-75770095D02*
X154444618Y-75846285D01*
X154444618Y-75846285D02*
X154444618Y-75922476D01*
X154444618Y-75922476D02*
X154406523Y-76036761D01*
X154406523Y-76036761D02*
X153949380Y-76493904D01*
X153949380Y-76493904D02*
X154444618Y-76493904D01*
%TO.C,R4*%
X115925714Y-76493904D02*
X115659047Y-76112952D01*
X115468571Y-76493904D02*
X115468571Y-75693904D01*
X115468571Y-75693904D02*
X115773333Y-75693904D01*
X115773333Y-75693904D02*
X115849523Y-75732000D01*
X115849523Y-75732000D02*
X115887618Y-75770095D01*
X115887618Y-75770095D02*
X115925714Y-75846285D01*
X115925714Y-75846285D02*
X115925714Y-75960571D01*
X115925714Y-75960571D02*
X115887618Y-76036761D01*
X115887618Y-76036761D02*
X115849523Y-76074857D01*
X115849523Y-76074857D02*
X115773333Y-76112952D01*
X115773333Y-76112952D02*
X115468571Y-76112952D01*
X116611428Y-75960571D02*
X116611428Y-76493904D01*
X116420952Y-75655809D02*
X116230475Y-76227238D01*
X116230475Y-76227238D02*
X116725714Y-76227238D01*
D10*
%TO.C,D3*%
X127531905Y-86346380D02*
X127531905Y-85346380D01*
X127531905Y-85346380D02*
X127770000Y-85346380D01*
X127770000Y-85346380D02*
X127912857Y-85394000D01*
X127912857Y-85394000D02*
X128008095Y-85489238D01*
X128008095Y-85489238D02*
X128055714Y-85584476D01*
X128055714Y-85584476D02*
X128103333Y-85774952D01*
X128103333Y-85774952D02*
X128103333Y-85917809D01*
X128103333Y-85917809D02*
X128055714Y-86108285D01*
X128055714Y-86108285D02*
X128008095Y-86203523D01*
X128008095Y-86203523D02*
X127912857Y-86298761D01*
X127912857Y-86298761D02*
X127770000Y-86346380D01*
X127770000Y-86346380D02*
X127531905Y-86346380D01*
X128436667Y-85346380D02*
X129055714Y-85346380D01*
X129055714Y-85346380D02*
X128722381Y-85727333D01*
X128722381Y-85727333D02*
X128865238Y-85727333D01*
X128865238Y-85727333D02*
X128960476Y-85774952D01*
X128960476Y-85774952D02*
X129008095Y-85822571D01*
X129008095Y-85822571D02*
X129055714Y-85917809D01*
X129055714Y-85917809D02*
X129055714Y-86155904D01*
X129055714Y-86155904D02*
X129008095Y-86251142D01*
X129008095Y-86251142D02*
X128960476Y-86298761D01*
X128960476Y-86298761D02*
X128865238Y-86346380D01*
X128865238Y-86346380D02*
X128579524Y-86346380D01*
X128579524Y-86346380D02*
X128484286Y-86298761D01*
X128484286Y-86298761D02*
X128436667Y-86251142D01*
D11*
%TO.C,U1*%
X102222476Y-75693904D02*
X102222476Y-76341523D01*
X102222476Y-76341523D02*
X102260571Y-76417714D01*
X102260571Y-76417714D02*
X102298666Y-76455809D01*
X102298666Y-76455809D02*
X102374857Y-76493904D01*
X102374857Y-76493904D02*
X102527238Y-76493904D01*
X102527238Y-76493904D02*
X102603428Y-76455809D01*
X102603428Y-76455809D02*
X102641523Y-76417714D01*
X102641523Y-76417714D02*
X102679619Y-76341523D01*
X102679619Y-76341523D02*
X102679619Y-75693904D01*
X103479618Y-76493904D02*
X103022475Y-76493904D01*
X103251047Y-76493904D02*
X103251047Y-75693904D01*
X103251047Y-75693904D02*
X103174856Y-75808190D01*
X103174856Y-75808190D02*
X103098666Y-75884380D01*
X103098666Y-75884380D02*
X103022475Y-75922476D01*
%TO.C,C6*%
X113042619Y-81878714D02*
X113004523Y-81916809D01*
X113004523Y-81916809D02*
X112890238Y-81954904D01*
X112890238Y-81954904D02*
X112814047Y-81954904D01*
X112814047Y-81954904D02*
X112699761Y-81916809D01*
X112699761Y-81916809D02*
X112623571Y-81840619D01*
X112623571Y-81840619D02*
X112585476Y-81764428D01*
X112585476Y-81764428D02*
X112547380Y-81612047D01*
X112547380Y-81612047D02*
X112547380Y-81497761D01*
X112547380Y-81497761D02*
X112585476Y-81345380D01*
X112585476Y-81345380D02*
X112623571Y-81269190D01*
X112623571Y-81269190D02*
X112699761Y-81193000D01*
X112699761Y-81193000D02*
X112814047Y-81154904D01*
X112814047Y-81154904D02*
X112890238Y-81154904D01*
X112890238Y-81154904D02*
X113004523Y-81193000D01*
X113004523Y-81193000D02*
X113042619Y-81231095D01*
X113728333Y-81154904D02*
X113575952Y-81154904D01*
X113575952Y-81154904D02*
X113499761Y-81193000D01*
X113499761Y-81193000D02*
X113461666Y-81231095D01*
X113461666Y-81231095D02*
X113385476Y-81345380D01*
X113385476Y-81345380D02*
X113347380Y-81497761D01*
X113347380Y-81497761D02*
X113347380Y-81802523D01*
X113347380Y-81802523D02*
X113385476Y-81878714D01*
X113385476Y-81878714D02*
X113423571Y-81916809D01*
X113423571Y-81916809D02*
X113499761Y-81954904D01*
X113499761Y-81954904D02*
X113652142Y-81954904D01*
X113652142Y-81954904D02*
X113728333Y-81916809D01*
X113728333Y-81916809D02*
X113766428Y-81878714D01*
X113766428Y-81878714D02*
X113804523Y-81802523D01*
X113804523Y-81802523D02*
X113804523Y-81612047D01*
X113804523Y-81612047D02*
X113766428Y-81535857D01*
X113766428Y-81535857D02*
X113728333Y-81497761D01*
X113728333Y-81497761D02*
X113652142Y-81459666D01*
X113652142Y-81459666D02*
X113499761Y-81459666D01*
X113499761Y-81459666D02*
X113423571Y-81497761D01*
X113423571Y-81497761D02*
X113385476Y-81535857D01*
X113385476Y-81535857D02*
X113347380Y-81612047D01*
D12*
%TO.C,J1*%
X132740000Y-80138000D02*
X132740000Y-79338000D01*
X132740000Y-76338000D02*
X132740000Y-75288000D01*
X132740000Y-75288000D02*
X123800000Y-75288000D01*
X128770000Y-83238000D02*
X128770000Y-83238000D01*
X128770000Y-83238000D02*
X128770000Y-83238000D01*
X128770000Y-83138000D02*
X128770000Y-83138000D01*
X123800000Y-80138000D02*
X123800000Y-79338000D01*
X123800000Y-75288000D02*
X123800000Y-76338000D01*
X128770000Y-83138000D02*
G75*
G03*
X128770000Y-83238000I0J-50000D01*
G01*
X128770000Y-83238000D02*
G75*
G03*
X128770000Y-83138000I0J50000D01*
G01*
X128770000Y-83238000D02*
G75*
G03*
X128770000Y-83138000I0J50000D01*
G01*
D13*
%TO.C,C5*%
X144426000Y-77289252D02*
X144426000Y-76766748D01*
X145896000Y-77289252D02*
X145896000Y-76766748D01*
D14*
%TO.C,TP3*%
X137130000Y-86870000D02*
X139730000Y-86870000D01*
X139730000Y-85850000D02*
X137130000Y-85850000D01*
D13*
%TO.C,J2*%
X154096000Y-82998000D02*
X154096000Y-84328000D01*
X152766000Y-82998000D02*
X154096000Y-82998000D01*
X151496000Y-82998000D02*
X146356000Y-82998000D01*
X151496000Y-82998000D02*
X151496000Y-85598000D01*
X146356000Y-82998000D02*
X146356000Y-88198000D01*
X154096000Y-85598000D02*
X154096000Y-88198000D01*
X151496000Y-85598000D02*
X154096000Y-85598000D01*
X154096000Y-88198000D02*
X146356000Y-88198000D01*
%TO.C,C8*%
X113263000Y-79493164D02*
X113263000Y-79708836D01*
X112543000Y-79493164D02*
X112543000Y-79708836D01*
%TO.C,C7*%
X143277000Y-77958836D02*
X143277000Y-77743164D01*
X143997000Y-77958836D02*
X143997000Y-77743164D01*
D14*
%TO.C,TP2*%
X119410000Y-85850000D02*
X116810000Y-85850000D01*
X116810000Y-86870000D02*
X119410000Y-86870000D01*
D13*
%TO.C,R2*%
X138784359Y-75820000D02*
X139091641Y-75820000D01*
X138784359Y-76580000D02*
X139091641Y-76580000D01*
%TO.C,C2*%
X112543000Y-77831836D02*
X112543000Y-77616164D01*
X113263000Y-77831836D02*
X113263000Y-77616164D01*
%TO.C,C4*%
X110644000Y-77223252D02*
X110644000Y-76700748D01*
X112114000Y-77223252D02*
X112114000Y-76700748D01*
%TO.C,C3*%
X144426000Y-80718252D02*
X144426000Y-80195748D01*
X145896000Y-80718252D02*
X145896000Y-80195748D01*
%TO.C,D1*%
X118911000Y-75338000D02*
X118911000Y-76808000D01*
X118911000Y-76808000D02*
X121196000Y-76808000D01*
X121196000Y-75338000D02*
X118911000Y-75338000D01*
%TO.C,C1*%
X143277000Y-79863836D02*
X143277000Y-79648164D01*
X143997000Y-79863836D02*
X143997000Y-79648164D01*
%TO.C,R1*%
X136879359Y-75820000D02*
X137186641Y-75820000D01*
X136879359Y-76580000D02*
X137186641Y-76580000D01*
%TO.C,J3*%
X110154000Y-82998000D02*
X110154000Y-84328000D01*
X108824000Y-82998000D02*
X110154000Y-82998000D01*
X107554000Y-82998000D02*
X102414000Y-82998000D01*
X107554000Y-82998000D02*
X107554000Y-85598000D01*
X102414000Y-82998000D02*
X102414000Y-88198000D01*
X110154000Y-85598000D02*
X110154000Y-88198000D01*
X107554000Y-85598000D02*
X110154000Y-85598000D01*
X110154000Y-88198000D02*
X102414000Y-88198000D01*
%TO.C,U2*%
X146522000Y-75457000D02*
X152532000Y-75457000D01*
X148772000Y-82277000D02*
X152532000Y-82277000D01*
X152532000Y-75457000D02*
X152532000Y-76717000D01*
X152532000Y-82277000D02*
X152532000Y-81017000D01*
D14*
%TO.C,TP1*%
X104999000Y-97538000D02*
X107599000Y-97538000D01*
X107599000Y-96518000D02*
X104999000Y-96518000D01*
%TO.C,TP4*%
X148941000Y-97538000D02*
X151541000Y-97538000D01*
X151541000Y-96518000D02*
X148941000Y-96518000D01*
D13*
%TO.C,R4*%
X118009641Y-76453000D02*
X117702359Y-76453000D01*
X118009641Y-75693000D02*
X117702359Y-75693000D01*
D15*
%TO.C,D3*%
X123469400Y-85344000D02*
X123469400Y-86614000D01*
X123469400Y-85979000D02*
X124231400Y-85344000D01*
X123469400Y-85979000D02*
X124231400Y-85471000D01*
X123469400Y-85979000D02*
X124231400Y-85598000D01*
X123469400Y-85979000D02*
X124231400Y-85725000D01*
X123469400Y-85979000D02*
X124231400Y-85852000D01*
X123469400Y-85979000D02*
X124231400Y-86106000D01*
X123469400Y-85979000D02*
X124231400Y-86233000D01*
X123469400Y-85979000D02*
X124231400Y-86360000D01*
X123469400Y-85979000D02*
X124231400Y-86487000D01*
X123469400Y-85979000D02*
X124231400Y-86614000D01*
X124231400Y-85344000D02*
X124231400Y-86614000D01*
X124485400Y-85979000D02*
X123215400Y-85979000D01*
X125844300Y-83870800D02*
X125844300Y-84515960D01*
X125844300Y-87442040D02*
X125844300Y-88087200D01*
X125844300Y-88087200D02*
X130695700Y-88087200D01*
X130695700Y-83870800D02*
X125844300Y-83870800D01*
X130695700Y-84515960D02*
X130695700Y-83870800D01*
X130695700Y-88087200D02*
X130695700Y-87442040D01*
D13*
%TO.C,U1*%
X110018000Y-82277000D02*
X104008000Y-82277000D01*
X107768000Y-75457000D02*
X104008000Y-75457000D01*
X104008000Y-82277000D02*
X104008000Y-81017000D01*
X104008000Y-75457000D02*
X104008000Y-76717000D01*
%TO.C,C6*%
X112114000Y-80129748D02*
X112114000Y-80652252D01*
X110644000Y-80129748D02*
X110644000Y-80652252D01*
%TD*%
M02*
