%TF.GenerationSoftware,KiCad,Pcbnew,(7.0.0-0)*%
%TF.CreationDate,2023-03-19T19:49:21-06:00*%
%TF.ProjectId,Breadboard Power Supply,42726561-6462-46f6-9172-6420506f7765,v2*%
%TF.SameCoordinates,Original*%
%TF.FileFunction,Soldermask,Top*%
%TF.FilePolarity,Negative*%
%FSLAX46Y46*%
G04 Gerber Fmt 4.6, Leading zero omitted, Abs format (unit mm)*
G04 Created by KiCad (PCBNEW (7.0.0-0)) date 2023-03-19 19:49:21*
%MOMM*%
%LPD*%
G01*
G04 APERTURE LIST*
G04 Aperture macros list*
%AMRoundRect*
0 Rectangle with rounded corners*
0 $1 Rounding radius*
0 $2 $3 $4 $5 $6 $7 $8 $9 X,Y pos of 4 corners*
0 Add a 4 corners polygon primitive as box body*
4,1,4,$2,$3,$4,$5,$6,$7,$8,$9,$2,$3,0*
0 Add four circle primitives for the rounded corners*
1,1,$1+$1,$2,$3*
1,1,$1+$1,$4,$5*
1,1,$1+$1,$6,$7*
1,1,$1+$1,$8,$9*
0 Add four rect primitives between the rounded corners*
20,1,$1+$1,$2,$3,$4,$5,0*
20,1,$1+$1,$4,$5,$6,$7,0*
20,1,$1+$1,$6,$7,$8,$9,0*
20,1,$1+$1,$8,$9,$2,$3,0*%
G04 Aperture macros list end*
%ADD10R,0.700000X1.200000*%
%ADD11R,0.760000X1.200000*%
%ADD12R,0.800000X1.200000*%
%ADD13C,2.010000*%
%ADD14RoundRect,0.250000X0.325000X0.650000X-0.325000X0.650000X-0.325000X-0.650000X0.325000X-0.650000X0*%
%ADD15C,1.830000*%
%ADD16RoundRect,0.200000X-0.275000X0.200000X-0.275000X-0.200000X0.275000X-0.200000X0.275000X0.200000X0*%
%ADD17R,1.700000X1.700000*%
%ADD18O,1.700000X1.700000*%
%ADD19RoundRect,0.225000X-0.225000X-0.250000X0.225000X-0.250000X0.225000X0.250000X-0.225000X0.250000X0*%
%ADD20RoundRect,0.225000X0.225000X0.250000X-0.225000X0.250000X-0.225000X-0.250000X0.225000X-0.250000X0*%
%ADD21RoundRect,0.200000X0.275000X-0.200000X0.275000X0.200000X-0.275000X0.200000X-0.275000X-0.200000X0*%
%ADD22RoundRect,0.250000X-0.325000X-0.650000X0.325000X-0.650000X0.325000X0.650000X-0.325000X0.650000X0*%
%ADD23RoundRect,0.250000X0.650000X-0.325000X0.650000X0.325000X-0.650000X0.325000X-0.650000X-0.325000X0*%
%ADD24RoundRect,0.218750X0.256250X-0.218750X0.256250X0.218750X-0.256250X0.218750X-0.256250X-0.218750X0*%
%ADD25R,2.000000X1.500000*%
%ADD26R,2.000000X3.800000*%
%ADD27RoundRect,0.250000X-0.650000X0.325000X-0.650000X-0.325000X0.650000X-0.325000X0.650000X0.325000X0*%
G04 APERTURE END LIST*
D10*
%TO.C,J1*%
X128769999Y-80245999D03*
D11*
X126749999Y-80245999D03*
D12*
X125519999Y-80245999D03*
D10*
X127769999Y-80245999D03*
D11*
X129789999Y-80245999D03*
D12*
X131019999Y-80245999D03*
D13*
X132590000Y-76366000D03*
X123950000Y-76366000D03*
X132590000Y-80166000D03*
X123950000Y-80166000D03*
%TD*%
D14*
%TO.C,C5*%
X146509000Y-74930000D03*
X143559000Y-74930000D03*
%TD*%
D15*
%TO.C,TP3*%
X134620000Y-85598000D03*
X139700000Y-85598000D03*
%TD*%
D16*
%TO.C,R3*%
X121031000Y-77470000D03*
X121031000Y-79120000D03*
%TD*%
D17*
%TO.C,J2*%
X154939999Y-83814999D03*
D18*
X154939999Y-86354999D03*
X152399999Y-83814999D03*
X152399999Y-86354999D03*
X149859999Y-83814999D03*
X149859999Y-86354999D03*
%TD*%
D19*
%TO.C,C8*%
X112509000Y-81534000D03*
X114059000Y-81534000D03*
%TD*%
D20*
%TO.C,C7*%
X146571000Y-76962000D03*
X145021000Y-76962000D03*
%TD*%
D15*
%TO.C,TP2*%
X121920000Y-85598000D03*
X116840000Y-85598000D03*
%TD*%
D21*
%TO.C,R2*%
X135382000Y-79120000D03*
X135382000Y-77470000D03*
%TD*%
D19*
%TO.C,C2*%
X110096000Y-77089000D03*
X111646000Y-77089000D03*
%TD*%
D22*
%TO.C,C4*%
X110285000Y-74930000D03*
X113235000Y-74930000D03*
%TD*%
D23*
%TO.C,C3*%
X145923000Y-81739000D03*
X145923000Y-78789000D03*
%TD*%
D24*
%TO.C,D1*%
X121031000Y-75971500D03*
X121031000Y-74396500D03*
%TD*%
D20*
%TO.C,C1*%
X143790000Y-81661000D03*
X142240000Y-81661000D03*
%TD*%
D21*
%TO.C,R1*%
X135382000Y-76072000D03*
X135382000Y-74422000D03*
%TD*%
D17*
%TO.C,J3*%
X106679999Y-83819999D03*
D18*
X106679999Y-86359999D03*
X104139999Y-83819999D03*
X104139999Y-86359999D03*
X101599999Y-83819999D03*
X101599999Y-86359999D03*
%TD*%
D25*
%TO.C,U2*%
X148639999Y-74915999D03*
X148639999Y-77215999D03*
D26*
X154939999Y-77215999D03*
D25*
X148639999Y-79515999D03*
%TD*%
D15*
%TO.C,TP1*%
X102235000Y-97028000D03*
X107315000Y-97028000D03*
%TD*%
%TO.C,TP4*%
X149225000Y-97028000D03*
X154305000Y-97028000D03*
%TD*%
D25*
%TO.C,U1*%
X108051999Y-79529999D03*
X108051999Y-77229999D03*
D26*
X101751999Y-77229999D03*
D25*
X108051999Y-74929999D03*
%TD*%
D27*
%TO.C,C6*%
X110490000Y-78789000D03*
X110490000Y-81739000D03*
%TD*%
D17*
%TO.C,J10*%
X114299999Y-78739999D03*
D18*
X116839999Y-78739999D03*
%TD*%
D17*
%TO.C,J8*%
X149859999Y-93979999D03*
D18*
X152399999Y-93979999D03*
%TD*%
D17*
%TO.C,J11*%
X142239999Y-78739999D03*
D18*
X139699999Y-78739999D03*
%TD*%
D17*
%TO.C,J9*%
X104139999Y-93979999D03*
D18*
X106679999Y-93979999D03*
%TD*%
M02*
