M48
; DRILL file {KiCad (7.0.0-0)} date Sunday, May 14, 2023 at 01:42:01 PM
; FORMAT={-:-/ absolute / inch / decimal}
; #@! TF.CreationDate,2023-05-14T13:42:01-06:00
; #@! TF.GenerationSoftware,Kicad,Pcbnew,(7.0.0-0)
; #@! TF.FileFunction,Plated,1,2,PTH
FMAT,2
INCH
; #@! TA.AperFunction,Plated,PTH,ViaDrill
T1C0.0157
; #@! TA.AperFunction,Plated,PTH,ComponentDrill
T2C0.0394
; #@! TA.AperFunction,Plated,PTH,ComponentDrill
T3C0.0421
; #@! TA.AperFunction,Plated,PTH,ComponentDrill
T4C0.0480
%
G90
G05
T1
X4.165Y-3.195
X4.2316Y-2.9799
X4.49Y-2.9799
X4.495Y-3.025
X4.5074Y-3.2276
X4.9695Y-3.2824
X5.1327Y-3.2773
X5.29Y-3.1651
X5.36Y-3.03
X5.57Y-3.03
X5.65Y-3.15
X5.725Y-3.33
X5.86Y-3.4771
X5.865Y-3.18
X5.8804Y-3.0184
X5.97Y-3.4771
X6.0893Y-3.235
T2
X4.0844Y-3.32
X4.0844Y-3.42
X4.125Y-3.7
X4.1844Y-3.32
X4.1844Y-3.42
X4.225Y-3.7
X4.2844Y-3.32
X4.2844Y-3.42
X4.6Y-3.1
X4.7Y-3.1
X5.4Y-3.1
X5.5Y-3.1
X5.8144Y-3.32
X5.8144Y-3.42
X5.875Y-3.7
X5.9144Y-3.32
X5.9144Y-3.42
X5.975Y-3.7
X6.0144Y-3.32
X6.0144Y-3.42
T3
X4.88Y-3.07
X4.88Y-3.2196
X5.2202Y-3.07
X5.2202Y-3.2196
T4
X4.0838Y-3.8199
X4.2838Y-3.8199
X4.5512Y-3.2702
X4.7512Y-3.2702
X5.3488Y-3.27
X5.5488Y-3.27
X5.8138Y-3.8199
X6.0138Y-3.8199
T0
M30
