M48
; DRILL file {KiCad 7.0.6-0} date 2023 July 20, Thursday 20:42:11
; FORMAT={-:-/ absolute / inch / decimal}
; #@! TF.CreationDate,2023-07-20T20:42:11-06:00
; #@! TF.GenerationSoftware,Kicad,Pcbnew,7.0.6-0
; #@! TF.FileFunction,Plated,1,4,PTH
FMAT,2
INCH
; #@! TA.AperFunction,Plated,PTH,ViaDrill
T1C0.0157
; #@! TA.AperFunction,Plated,PTH,ComponentDrill
T2C0.0378
; #@! TA.AperFunction,Plated,PTH,ComponentDrill
T3C0.0394
; #@! TA.AperFunction,Plated,PTH,ComponentDrill
T4C0.0480
%
G90
G05
T1
X4.015Y-3.205
X4.155Y-3.225
X4.22Y-3.15
X4.225Y-3.36
X4.235Y-3.015
X4.27Y-3.45
X4.3325Y-3.2625
X4.5099Y-3.0666
X4.555Y-3.1434
X4.6Y-2.9782
X4.685Y-3.0429
X4.755Y-3.265
X4.785Y-3.185
X4.91Y-3.27
X4.9902Y-3.19
X5.1031Y-3.2916
X5.1182Y-3.1905
X5.295Y-3.06
X5.605Y-3.24
X5.63Y-2.98
X5.69Y-3.265
X5.725Y-3.1941
X5.73Y-3.0591
X5.855Y-3.19
T2
X4.88Y-3.0698
X4.88Y-3.2194
X5.2202Y-3.0698
X5.2202Y-3.2194
T3
X4.055Y-3.4
X4.055Y-3.5
X4.055Y-3.6
X4.055Y-3.7
X4.125Y-3.9
X4.155Y-3.4
X4.155Y-3.5
X4.155Y-3.6
X4.155Y-3.7
X4.225Y-3.9
X4.7Y-3.1
X4.7Y-3.2
X5.4Y-3.1
X5.4Y-3.2
X5.875Y-3.9
X5.945Y-3.4
X5.945Y-3.5
X5.945Y-3.6
X5.945Y-3.7
X5.975Y-3.9
X6.045Y-3.4
X6.045Y-3.5
X6.045Y-3.6
X6.045Y-3.7
T4
X4.085Y-4.0409
X4.285Y-4.0409
X5.815Y-4.0409
X6.015Y-4.0409
T0
M30
