%TF.GenerationSoftware,KiCad,Pcbnew,7.0.5-0*%
%TF.CreationDate,2023-06-28T20:17:45-06:00*%
%TF.ProjectId,Breadboard Power Supply,42726561-6462-46f6-9172-6420506f7765,v10*%
%TF.SameCoordinates,Original*%
%TF.FileFunction,Legend,Top*%
%TF.FilePolarity,Positive*%
%FSLAX46Y46*%
G04 Gerber Fmt 4.6, Leading zero omitted, Abs format (unit mm)*
G04 Created by KiCad (PCBNEW 7.0.5-0) date 2023-06-28 20:17:45*
%MOMM*%
%LPD*%
G01*
G04 APERTURE LIST*
%ADD10C,0.150000*%
%ADD11C,0.120000*%
%ADD12C,0.127000*%
%ADD13C,0.200000*%
G04 APERTURE END LIST*
D10*
X148373180Y-96570969D02*
X148373180Y-96094779D01*
X148373180Y-96094779D02*
X147896990Y-96047160D01*
X147896990Y-96047160D02*
X147944609Y-96094779D01*
X147944609Y-96094779D02*
X147992228Y-96190017D01*
X147992228Y-96190017D02*
X147992228Y-96428112D01*
X147992228Y-96428112D02*
X147944609Y-96523350D01*
X147944609Y-96523350D02*
X147896990Y-96570969D01*
X147896990Y-96570969D02*
X147801752Y-96618588D01*
X147801752Y-96618588D02*
X147563657Y-96618588D01*
X147563657Y-96618588D02*
X147468419Y-96570969D01*
X147468419Y-96570969D02*
X147420800Y-96523350D01*
X147420800Y-96523350D02*
X147373180Y-96428112D01*
X147373180Y-96428112D02*
X147373180Y-96190017D01*
X147373180Y-96190017D02*
X147420800Y-96094779D01*
X147420800Y-96094779D02*
X147468419Y-96047160D01*
X148373180Y-96904303D02*
X147373180Y-97237636D01*
X147373180Y-97237636D02*
X148373180Y-97570969D01*
X106463180Y-95951922D02*
X105463180Y-96285255D01*
X105463180Y-96285255D02*
X106463180Y-96618588D01*
X106367942Y-96904303D02*
X106415561Y-96951922D01*
X106415561Y-96951922D02*
X106463180Y-97047160D01*
X106463180Y-97047160D02*
X106463180Y-97285255D01*
X106463180Y-97285255D02*
X106415561Y-97380493D01*
X106415561Y-97380493D02*
X106367942Y-97428112D01*
X106367942Y-97428112D02*
X106272704Y-97475731D01*
X106272704Y-97475731D02*
X106177466Y-97475731D01*
X106177466Y-97475731D02*
X106034609Y-97428112D01*
X106034609Y-97428112D02*
X105463180Y-96856684D01*
X105463180Y-96856684D02*
X105463180Y-97475731D01*
X109003180Y-95951922D02*
X108003180Y-96285255D01*
X108003180Y-96285255D02*
X109003180Y-96618588D01*
X108003180Y-97475731D02*
X108003180Y-96904303D01*
X108003180Y-97190017D02*
X109003180Y-97190017D01*
X109003180Y-97190017D02*
X108860323Y-97094779D01*
X108860323Y-97094779D02*
X108765085Y-96999541D01*
X108765085Y-96999541D02*
X108717466Y-96904303D01*
X150913180Y-95951922D02*
X149913180Y-96285255D01*
X149913180Y-96285255D02*
X150913180Y-96618588D01*
X150817942Y-96904303D02*
X150865561Y-96951922D01*
X150865561Y-96951922D02*
X150913180Y-97047160D01*
X150913180Y-97047160D02*
X150913180Y-97285255D01*
X150913180Y-97285255D02*
X150865561Y-97380493D01*
X150865561Y-97380493D02*
X150817942Y-97428112D01*
X150817942Y-97428112D02*
X150722704Y-97475731D01*
X150722704Y-97475731D02*
X150627466Y-97475731D01*
X150627466Y-97475731D02*
X150484609Y-97428112D01*
X150484609Y-97428112D02*
X149913180Y-96856684D01*
X149913180Y-96856684D02*
X149913180Y-97475731D01*
X153453180Y-95951922D02*
X152453180Y-96285255D01*
X152453180Y-96285255D02*
X153453180Y-96618588D01*
X152453180Y-97475731D02*
X152453180Y-96904303D01*
X152453180Y-97190017D02*
X153453180Y-97190017D01*
X153453180Y-97190017D02*
X153310323Y-97094779D01*
X153310323Y-97094779D02*
X153215085Y-96999541D01*
X153215085Y-96999541D02*
X153167466Y-96904303D01*
X103923180Y-96570969D02*
X103923180Y-96094779D01*
X103923180Y-96094779D02*
X103446990Y-96047160D01*
X103446990Y-96047160D02*
X103494609Y-96094779D01*
X103494609Y-96094779D02*
X103542228Y-96190017D01*
X103542228Y-96190017D02*
X103542228Y-96428112D01*
X103542228Y-96428112D02*
X103494609Y-96523350D01*
X103494609Y-96523350D02*
X103446990Y-96570969D01*
X103446990Y-96570969D02*
X103351752Y-96618588D01*
X103351752Y-96618588D02*
X103113657Y-96618588D01*
X103113657Y-96618588D02*
X103018419Y-96570969D01*
X103018419Y-96570969D02*
X102970800Y-96523350D01*
X102970800Y-96523350D02*
X102923180Y-96428112D01*
X102923180Y-96428112D02*
X102923180Y-96190017D01*
X102923180Y-96190017D02*
X102970800Y-96094779D01*
X102970800Y-96094779D02*
X103018419Y-96047160D01*
X103923180Y-96904303D02*
X102923180Y-97237636D01*
X102923180Y-97237636D02*
X103923180Y-97570969D01*
%TO.C,R4*%
X112261667Y-84904295D02*
X111995000Y-84523342D01*
X111804524Y-84904295D02*
X111804524Y-84104295D01*
X111804524Y-84104295D02*
X112109286Y-84104295D01*
X112109286Y-84104295D02*
X112185476Y-84142390D01*
X112185476Y-84142390D02*
X112223571Y-84180485D01*
X112223571Y-84180485D02*
X112261667Y-84256676D01*
X112261667Y-84256676D02*
X112261667Y-84370961D01*
X112261667Y-84370961D02*
X112223571Y-84447152D01*
X112223571Y-84447152D02*
X112185476Y-84485247D01*
X112185476Y-84485247D02*
X112109286Y-84523342D01*
X112109286Y-84523342D02*
X111804524Y-84523342D01*
X112947381Y-84370961D02*
X112947381Y-84904295D01*
X112756905Y-84066200D02*
X112566428Y-84637628D01*
X112566428Y-84637628D02*
X113061667Y-84637628D01*
%TO.C,D3*%
X114480887Y-76562295D02*
X114480887Y-75762295D01*
X114480887Y-75762295D02*
X114671363Y-75762295D01*
X114671363Y-75762295D02*
X114785649Y-75800390D01*
X114785649Y-75800390D02*
X114861839Y-75876580D01*
X114861839Y-75876580D02*
X114899934Y-75952771D01*
X114899934Y-75952771D02*
X114938030Y-76105152D01*
X114938030Y-76105152D02*
X114938030Y-76219438D01*
X114938030Y-76219438D02*
X114899934Y-76371819D01*
X114899934Y-76371819D02*
X114861839Y-76448009D01*
X114861839Y-76448009D02*
X114785649Y-76524200D01*
X114785649Y-76524200D02*
X114671363Y-76562295D01*
X114671363Y-76562295D02*
X114480887Y-76562295D01*
X115204696Y-75762295D02*
X115699934Y-75762295D01*
X115699934Y-75762295D02*
X115433268Y-76067057D01*
X115433268Y-76067057D02*
X115547553Y-76067057D01*
X115547553Y-76067057D02*
X115623744Y-76105152D01*
X115623744Y-76105152D02*
X115661839Y-76143247D01*
X115661839Y-76143247D02*
X115699934Y-76219438D01*
X115699934Y-76219438D02*
X115699934Y-76409914D01*
X115699934Y-76409914D02*
X115661839Y-76486104D01*
X115661839Y-76486104D02*
X115623744Y-76524200D01*
X115623744Y-76524200D02*
X115547553Y-76562295D01*
X115547553Y-76562295D02*
X115318982Y-76562295D01*
X115318982Y-76562295D02*
X115242791Y-76524200D01*
X115242791Y-76524200D02*
X115204696Y-76486104D01*
%TO.C,C5*%
X143884667Y-76206104D02*
X143846571Y-76244200D01*
X143846571Y-76244200D02*
X143732286Y-76282295D01*
X143732286Y-76282295D02*
X143656095Y-76282295D01*
X143656095Y-76282295D02*
X143541809Y-76244200D01*
X143541809Y-76244200D02*
X143465619Y-76168009D01*
X143465619Y-76168009D02*
X143427524Y-76091819D01*
X143427524Y-76091819D02*
X143389428Y-75939438D01*
X143389428Y-75939438D02*
X143389428Y-75825152D01*
X143389428Y-75825152D02*
X143427524Y-75672771D01*
X143427524Y-75672771D02*
X143465619Y-75596580D01*
X143465619Y-75596580D02*
X143541809Y-75520390D01*
X143541809Y-75520390D02*
X143656095Y-75482295D01*
X143656095Y-75482295D02*
X143732286Y-75482295D01*
X143732286Y-75482295D02*
X143846571Y-75520390D01*
X143846571Y-75520390D02*
X143884667Y-75558485D01*
X144608476Y-75482295D02*
X144227524Y-75482295D01*
X144227524Y-75482295D02*
X144189428Y-75863247D01*
X144189428Y-75863247D02*
X144227524Y-75825152D01*
X144227524Y-75825152D02*
X144303714Y-75787057D01*
X144303714Y-75787057D02*
X144494190Y-75787057D01*
X144494190Y-75787057D02*
X144570381Y-75825152D01*
X144570381Y-75825152D02*
X144608476Y-75863247D01*
X144608476Y-75863247D02*
X144646571Y-75939438D01*
X144646571Y-75939438D02*
X144646571Y-76129914D01*
X144646571Y-76129914D02*
X144608476Y-76206104D01*
X144608476Y-76206104D02*
X144570381Y-76244200D01*
X144570381Y-76244200D02*
X144494190Y-76282295D01*
X144494190Y-76282295D02*
X144303714Y-76282295D01*
X144303714Y-76282295D02*
X144227524Y-76244200D01*
X144227524Y-76244200D02*
X144189428Y-76206104D01*
%TO.C,R3*%
X121777303Y-76562295D02*
X121510636Y-76181342D01*
X121320160Y-76562295D02*
X121320160Y-75762295D01*
X121320160Y-75762295D02*
X121624922Y-75762295D01*
X121624922Y-75762295D02*
X121701112Y-75800390D01*
X121701112Y-75800390D02*
X121739207Y-75838485D01*
X121739207Y-75838485D02*
X121777303Y-75914676D01*
X121777303Y-75914676D02*
X121777303Y-76028961D01*
X121777303Y-76028961D02*
X121739207Y-76105152D01*
X121739207Y-76105152D02*
X121701112Y-76143247D01*
X121701112Y-76143247D02*
X121624922Y-76181342D01*
X121624922Y-76181342D02*
X121320160Y-76181342D01*
X122043969Y-75762295D02*
X122539207Y-75762295D01*
X122539207Y-75762295D02*
X122272541Y-76067057D01*
X122272541Y-76067057D02*
X122386826Y-76067057D01*
X122386826Y-76067057D02*
X122463017Y-76105152D01*
X122463017Y-76105152D02*
X122501112Y-76143247D01*
X122501112Y-76143247D02*
X122539207Y-76219438D01*
X122539207Y-76219438D02*
X122539207Y-76409914D01*
X122539207Y-76409914D02*
X122501112Y-76486104D01*
X122501112Y-76486104D02*
X122463017Y-76524200D01*
X122463017Y-76524200D02*
X122386826Y-76562295D01*
X122386826Y-76562295D02*
X122158255Y-76562295D01*
X122158255Y-76562295D02*
X122082064Y-76524200D01*
X122082064Y-76524200D02*
X122043969Y-76486104D01*
%TO.C,J2*%
X153410731Y-88843295D02*
X153410731Y-89414723D01*
X153410731Y-89414723D02*
X153372636Y-89529009D01*
X153372636Y-89529009D02*
X153296445Y-89605200D01*
X153296445Y-89605200D02*
X153182160Y-89643295D01*
X153182160Y-89643295D02*
X153105969Y-89643295D01*
X153753588Y-88919485D02*
X153791684Y-88881390D01*
X153791684Y-88881390D02*
X153867874Y-88843295D01*
X153867874Y-88843295D02*
X154058350Y-88843295D01*
X154058350Y-88843295D02*
X154134541Y-88881390D01*
X154134541Y-88881390D02*
X154172636Y-88919485D01*
X154172636Y-88919485D02*
X154210731Y-88995676D01*
X154210731Y-88995676D02*
X154210731Y-89071866D01*
X154210731Y-89071866D02*
X154172636Y-89186152D01*
X154172636Y-89186152D02*
X153715493Y-89643295D01*
X153715493Y-89643295D02*
X154210731Y-89643295D01*
%TO.C,RV2*%
X151317295Y-86446189D02*
X150936342Y-86712856D01*
X151317295Y-86903332D02*
X150517295Y-86903332D01*
X150517295Y-86903332D02*
X150517295Y-86598570D01*
X150517295Y-86598570D02*
X150555390Y-86522380D01*
X150555390Y-86522380D02*
X150593485Y-86484285D01*
X150593485Y-86484285D02*
X150669676Y-86446189D01*
X150669676Y-86446189D02*
X150783961Y-86446189D01*
X150783961Y-86446189D02*
X150860152Y-86484285D01*
X150860152Y-86484285D02*
X150898247Y-86522380D01*
X150898247Y-86522380D02*
X150936342Y-86598570D01*
X150936342Y-86598570D02*
X150936342Y-86903332D01*
X150517295Y-86217618D02*
X151317295Y-85950951D01*
X151317295Y-85950951D02*
X150517295Y-85684285D01*
X150593485Y-85455714D02*
X150555390Y-85417618D01*
X150555390Y-85417618D02*
X150517295Y-85341428D01*
X150517295Y-85341428D02*
X150517295Y-85150952D01*
X150517295Y-85150952D02*
X150555390Y-85074761D01*
X150555390Y-85074761D02*
X150593485Y-85036666D01*
X150593485Y-85036666D02*
X150669676Y-84998571D01*
X150669676Y-84998571D02*
X150745866Y-84998571D01*
X150745866Y-84998571D02*
X150860152Y-85036666D01*
X150860152Y-85036666D02*
X151317295Y-85493809D01*
X151317295Y-85493809D02*
X151317295Y-84998571D01*
%TO.C,C8*%
X114049030Y-79915104D02*
X114010934Y-79953200D01*
X114010934Y-79953200D02*
X113896649Y-79991295D01*
X113896649Y-79991295D02*
X113820458Y-79991295D01*
X113820458Y-79991295D02*
X113706172Y-79953200D01*
X113706172Y-79953200D02*
X113629982Y-79877009D01*
X113629982Y-79877009D02*
X113591887Y-79800819D01*
X113591887Y-79800819D02*
X113553791Y-79648438D01*
X113553791Y-79648438D02*
X113553791Y-79534152D01*
X113553791Y-79534152D02*
X113591887Y-79381771D01*
X113591887Y-79381771D02*
X113629982Y-79305580D01*
X113629982Y-79305580D02*
X113706172Y-79229390D01*
X113706172Y-79229390D02*
X113820458Y-79191295D01*
X113820458Y-79191295D02*
X113896649Y-79191295D01*
X113896649Y-79191295D02*
X114010934Y-79229390D01*
X114010934Y-79229390D02*
X114049030Y-79267485D01*
X114506172Y-79534152D02*
X114429982Y-79496057D01*
X114429982Y-79496057D02*
X114391887Y-79457961D01*
X114391887Y-79457961D02*
X114353791Y-79381771D01*
X114353791Y-79381771D02*
X114353791Y-79343676D01*
X114353791Y-79343676D02*
X114391887Y-79267485D01*
X114391887Y-79267485D02*
X114429982Y-79229390D01*
X114429982Y-79229390D02*
X114506172Y-79191295D01*
X114506172Y-79191295D02*
X114658553Y-79191295D01*
X114658553Y-79191295D02*
X114734744Y-79229390D01*
X114734744Y-79229390D02*
X114772839Y-79267485D01*
X114772839Y-79267485D02*
X114810934Y-79343676D01*
X114810934Y-79343676D02*
X114810934Y-79381771D01*
X114810934Y-79381771D02*
X114772839Y-79457961D01*
X114772839Y-79457961D02*
X114734744Y-79496057D01*
X114734744Y-79496057D02*
X114658553Y-79534152D01*
X114658553Y-79534152D02*
X114506172Y-79534152D01*
X114506172Y-79534152D02*
X114429982Y-79572247D01*
X114429982Y-79572247D02*
X114391887Y-79610342D01*
X114391887Y-79610342D02*
X114353791Y-79686533D01*
X114353791Y-79686533D02*
X114353791Y-79838914D01*
X114353791Y-79838914D02*
X114391887Y-79915104D01*
X114391887Y-79915104D02*
X114429982Y-79953200D01*
X114429982Y-79953200D02*
X114506172Y-79991295D01*
X114506172Y-79991295D02*
X114658553Y-79991295D01*
X114658553Y-79991295D02*
X114734744Y-79953200D01*
X114734744Y-79953200D02*
X114772839Y-79915104D01*
X114772839Y-79915104D02*
X114810934Y-79838914D01*
X114810934Y-79838914D02*
X114810934Y-79686533D01*
X114810934Y-79686533D02*
X114772839Y-79610342D01*
X114772839Y-79610342D02*
X114734744Y-79572247D01*
X114734744Y-79572247D02*
X114658553Y-79534152D01*
%TO.C,C7*%
X141989030Y-77375104D02*
X141950934Y-77413200D01*
X141950934Y-77413200D02*
X141836649Y-77451295D01*
X141836649Y-77451295D02*
X141760458Y-77451295D01*
X141760458Y-77451295D02*
X141646172Y-77413200D01*
X141646172Y-77413200D02*
X141569982Y-77337009D01*
X141569982Y-77337009D02*
X141531887Y-77260819D01*
X141531887Y-77260819D02*
X141493791Y-77108438D01*
X141493791Y-77108438D02*
X141493791Y-76994152D01*
X141493791Y-76994152D02*
X141531887Y-76841771D01*
X141531887Y-76841771D02*
X141569982Y-76765580D01*
X141569982Y-76765580D02*
X141646172Y-76689390D01*
X141646172Y-76689390D02*
X141760458Y-76651295D01*
X141760458Y-76651295D02*
X141836649Y-76651295D01*
X141836649Y-76651295D02*
X141950934Y-76689390D01*
X141950934Y-76689390D02*
X141989030Y-76727485D01*
X142255696Y-76651295D02*
X142789030Y-76651295D01*
X142789030Y-76651295D02*
X142446172Y-77451295D01*
%TO.C,RV1*%
X106105295Y-86487189D02*
X105724342Y-86753856D01*
X106105295Y-86944332D02*
X105305295Y-86944332D01*
X105305295Y-86944332D02*
X105305295Y-86639570D01*
X105305295Y-86639570D02*
X105343390Y-86563380D01*
X105343390Y-86563380D02*
X105381485Y-86525285D01*
X105381485Y-86525285D02*
X105457676Y-86487189D01*
X105457676Y-86487189D02*
X105571961Y-86487189D01*
X105571961Y-86487189D02*
X105648152Y-86525285D01*
X105648152Y-86525285D02*
X105686247Y-86563380D01*
X105686247Y-86563380D02*
X105724342Y-86639570D01*
X105724342Y-86639570D02*
X105724342Y-86944332D01*
X105305295Y-86258618D02*
X106105295Y-85991951D01*
X106105295Y-85991951D02*
X105305295Y-85725285D01*
X106105295Y-85039571D02*
X106105295Y-85496714D01*
X106105295Y-85268142D02*
X105305295Y-85268142D01*
X105305295Y-85268142D02*
X105419580Y-85344333D01*
X105419580Y-85344333D02*
X105495771Y-85420523D01*
X105495771Y-85420523D02*
X105533866Y-85496714D01*
%TO.C,R2*%
X135121667Y-81602295D02*
X134855000Y-81221342D01*
X134664524Y-81602295D02*
X134664524Y-80802295D01*
X134664524Y-80802295D02*
X134969286Y-80802295D01*
X134969286Y-80802295D02*
X135045476Y-80840390D01*
X135045476Y-80840390D02*
X135083571Y-80878485D01*
X135083571Y-80878485D02*
X135121667Y-80954676D01*
X135121667Y-80954676D02*
X135121667Y-81068961D01*
X135121667Y-81068961D02*
X135083571Y-81145152D01*
X135083571Y-81145152D02*
X135045476Y-81183247D01*
X135045476Y-81183247D02*
X134969286Y-81221342D01*
X134969286Y-81221342D02*
X134664524Y-81221342D01*
X135426428Y-80878485D02*
X135464524Y-80840390D01*
X135464524Y-80840390D02*
X135540714Y-80802295D01*
X135540714Y-80802295D02*
X135731190Y-80802295D01*
X135731190Y-80802295D02*
X135807381Y-80840390D01*
X135807381Y-80840390D02*
X135845476Y-80878485D01*
X135845476Y-80878485D02*
X135883571Y-80954676D01*
X135883571Y-80954676D02*
X135883571Y-81030866D01*
X135883571Y-81030866D02*
X135845476Y-81145152D01*
X135845476Y-81145152D02*
X135388333Y-81602295D01*
X135388333Y-81602295D02*
X135883571Y-81602295D01*
%TO.C,C4*%
X112007667Y-78224104D02*
X111969571Y-78262200D01*
X111969571Y-78262200D02*
X111855286Y-78300295D01*
X111855286Y-78300295D02*
X111779095Y-78300295D01*
X111779095Y-78300295D02*
X111664809Y-78262200D01*
X111664809Y-78262200D02*
X111588619Y-78186009D01*
X111588619Y-78186009D02*
X111550524Y-78109819D01*
X111550524Y-78109819D02*
X111512428Y-77957438D01*
X111512428Y-77957438D02*
X111512428Y-77843152D01*
X111512428Y-77843152D02*
X111550524Y-77690771D01*
X111550524Y-77690771D02*
X111588619Y-77614580D01*
X111588619Y-77614580D02*
X111664809Y-77538390D01*
X111664809Y-77538390D02*
X111779095Y-77500295D01*
X111779095Y-77500295D02*
X111855286Y-77500295D01*
X111855286Y-77500295D02*
X111969571Y-77538390D01*
X111969571Y-77538390D02*
X112007667Y-77576485D01*
X112693381Y-77766961D02*
X112693381Y-78300295D01*
X112502905Y-77462200D02*
X112312428Y-78033628D01*
X112312428Y-78033628D02*
X112807667Y-78033628D01*
%TO.C,C3*%
X141989030Y-81907104D02*
X141950934Y-81945200D01*
X141950934Y-81945200D02*
X141836649Y-81983295D01*
X141836649Y-81983295D02*
X141760458Y-81983295D01*
X141760458Y-81983295D02*
X141646172Y-81945200D01*
X141646172Y-81945200D02*
X141569982Y-81869009D01*
X141569982Y-81869009D02*
X141531887Y-81792819D01*
X141531887Y-81792819D02*
X141493791Y-81640438D01*
X141493791Y-81640438D02*
X141493791Y-81526152D01*
X141493791Y-81526152D02*
X141531887Y-81373771D01*
X141531887Y-81373771D02*
X141569982Y-81297580D01*
X141569982Y-81297580D02*
X141646172Y-81221390D01*
X141646172Y-81221390D02*
X141760458Y-81183295D01*
X141760458Y-81183295D02*
X141836649Y-81183295D01*
X141836649Y-81183295D02*
X141950934Y-81221390D01*
X141950934Y-81221390D02*
X141989030Y-81259485D01*
X142255696Y-81183295D02*
X142750934Y-81183295D01*
X142750934Y-81183295D02*
X142484268Y-81488057D01*
X142484268Y-81488057D02*
X142598553Y-81488057D01*
X142598553Y-81488057D02*
X142674744Y-81526152D01*
X142674744Y-81526152D02*
X142712839Y-81564247D01*
X142712839Y-81564247D02*
X142750934Y-81640438D01*
X142750934Y-81640438D02*
X142750934Y-81830914D01*
X142750934Y-81830914D02*
X142712839Y-81907104D01*
X142712839Y-81907104D02*
X142674744Y-81945200D01*
X142674744Y-81945200D02*
X142598553Y-81983295D01*
X142598553Y-81983295D02*
X142369982Y-81983295D01*
X142369982Y-81983295D02*
X142293791Y-81945200D01*
X142293791Y-81945200D02*
X142255696Y-81907104D01*
%TO.C,J1*%
X128130333Y-83088295D02*
X128130333Y-83659723D01*
X128130333Y-83659723D02*
X128092238Y-83774009D01*
X128092238Y-83774009D02*
X128016047Y-83850200D01*
X128016047Y-83850200D02*
X127901762Y-83888295D01*
X127901762Y-83888295D02*
X127825571Y-83888295D01*
X128930333Y-83888295D02*
X128473190Y-83888295D01*
X128701762Y-83888295D02*
X128701762Y-83088295D01*
X128701762Y-83088295D02*
X128625571Y-83202580D01*
X128625571Y-83202580D02*
X128549381Y-83278771D01*
X128549381Y-83278771D02*
X128473190Y-83316866D01*
%TO.C,R1*%
X135121667Y-76475295D02*
X134855000Y-76094342D01*
X134664524Y-76475295D02*
X134664524Y-75675295D01*
X134664524Y-75675295D02*
X134969286Y-75675295D01*
X134969286Y-75675295D02*
X135045476Y-75713390D01*
X135045476Y-75713390D02*
X135083571Y-75751485D01*
X135083571Y-75751485D02*
X135121667Y-75827676D01*
X135121667Y-75827676D02*
X135121667Y-75941961D01*
X135121667Y-75941961D02*
X135083571Y-76018152D01*
X135083571Y-76018152D02*
X135045476Y-76056247D01*
X135045476Y-76056247D02*
X134969286Y-76094342D01*
X134969286Y-76094342D02*
X134664524Y-76094342D01*
X135883571Y-76475295D02*
X135426428Y-76475295D01*
X135655000Y-76475295D02*
X135655000Y-75675295D01*
X135655000Y-75675295D02*
X135578809Y-75789580D01*
X135578809Y-75789580D02*
X135502619Y-75865771D01*
X135502619Y-75865771D02*
X135426428Y-75903866D01*
%TO.C,J3*%
X102767731Y-88843295D02*
X102767731Y-89414723D01*
X102767731Y-89414723D02*
X102729636Y-89529009D01*
X102729636Y-89529009D02*
X102653445Y-89605200D01*
X102653445Y-89605200D02*
X102539160Y-89643295D01*
X102539160Y-89643295D02*
X102462969Y-89643295D01*
X103072493Y-88843295D02*
X103567731Y-88843295D01*
X103567731Y-88843295D02*
X103301065Y-89148057D01*
X103301065Y-89148057D02*
X103415350Y-89148057D01*
X103415350Y-89148057D02*
X103491541Y-89186152D01*
X103491541Y-89186152D02*
X103529636Y-89224247D01*
X103529636Y-89224247D02*
X103567731Y-89300438D01*
X103567731Y-89300438D02*
X103567731Y-89490914D01*
X103567731Y-89490914D02*
X103529636Y-89567104D01*
X103529636Y-89567104D02*
X103491541Y-89605200D01*
X103491541Y-89605200D02*
X103415350Y-89643295D01*
X103415350Y-89643295D02*
X103186779Y-89643295D01*
X103186779Y-89643295D02*
X103110588Y-89605200D01*
X103110588Y-89605200D02*
X103072493Y-89567104D01*
%TO.C,R5*%
X145653303Y-84055295D02*
X145386636Y-83674342D01*
X145196160Y-84055295D02*
X145196160Y-83255295D01*
X145196160Y-83255295D02*
X145500922Y-83255295D01*
X145500922Y-83255295D02*
X145577112Y-83293390D01*
X145577112Y-83293390D02*
X145615207Y-83331485D01*
X145615207Y-83331485D02*
X145653303Y-83407676D01*
X145653303Y-83407676D02*
X145653303Y-83521961D01*
X145653303Y-83521961D02*
X145615207Y-83598152D01*
X145615207Y-83598152D02*
X145577112Y-83636247D01*
X145577112Y-83636247D02*
X145500922Y-83674342D01*
X145500922Y-83674342D02*
X145196160Y-83674342D01*
X146377112Y-83255295D02*
X145996160Y-83255295D01*
X145996160Y-83255295D02*
X145958064Y-83636247D01*
X145958064Y-83636247D02*
X145996160Y-83598152D01*
X145996160Y-83598152D02*
X146072350Y-83560057D01*
X146072350Y-83560057D02*
X146262826Y-83560057D01*
X146262826Y-83560057D02*
X146339017Y-83598152D01*
X146339017Y-83598152D02*
X146377112Y-83636247D01*
X146377112Y-83636247D02*
X146415207Y-83712438D01*
X146415207Y-83712438D02*
X146415207Y-83902914D01*
X146415207Y-83902914D02*
X146377112Y-83979104D01*
X146377112Y-83979104D02*
X146339017Y-84017200D01*
X146339017Y-84017200D02*
X146262826Y-84055295D01*
X146262826Y-84055295D02*
X146072350Y-84055295D01*
X146072350Y-84055295D02*
X145996160Y-84017200D01*
X145996160Y-84017200D02*
X145958064Y-83979104D01*
%TO.C,U2*%
X153197160Y-75762295D02*
X153197160Y-76409914D01*
X153197160Y-76409914D02*
X153235255Y-76486104D01*
X153235255Y-76486104D02*
X153273350Y-76524200D01*
X153273350Y-76524200D02*
X153349541Y-76562295D01*
X153349541Y-76562295D02*
X153501922Y-76562295D01*
X153501922Y-76562295D02*
X153578112Y-76524200D01*
X153578112Y-76524200D02*
X153616207Y-76486104D01*
X153616207Y-76486104D02*
X153654303Y-76409914D01*
X153654303Y-76409914D02*
X153654303Y-75762295D01*
X153997159Y-75838485D02*
X154035255Y-75800390D01*
X154035255Y-75800390D02*
X154111445Y-75762295D01*
X154111445Y-75762295D02*
X154301921Y-75762295D01*
X154301921Y-75762295D02*
X154378112Y-75800390D01*
X154378112Y-75800390D02*
X154416207Y-75838485D01*
X154416207Y-75838485D02*
X154454302Y-75914676D01*
X154454302Y-75914676D02*
X154454302Y-75990866D01*
X154454302Y-75990866D02*
X154416207Y-76105152D01*
X154416207Y-76105152D02*
X153959064Y-76562295D01*
X153959064Y-76562295D02*
X154454302Y-76562295D01*
%TO.C,C6*%
X111372667Y-82641104D02*
X111334571Y-82679200D01*
X111334571Y-82679200D02*
X111220286Y-82717295D01*
X111220286Y-82717295D02*
X111144095Y-82717295D01*
X111144095Y-82717295D02*
X111029809Y-82679200D01*
X111029809Y-82679200D02*
X110953619Y-82603009D01*
X110953619Y-82603009D02*
X110915524Y-82526819D01*
X110915524Y-82526819D02*
X110877428Y-82374438D01*
X110877428Y-82374438D02*
X110877428Y-82260152D01*
X110877428Y-82260152D02*
X110915524Y-82107771D01*
X110915524Y-82107771D02*
X110953619Y-82031580D01*
X110953619Y-82031580D02*
X111029809Y-81955390D01*
X111029809Y-81955390D02*
X111144095Y-81917295D01*
X111144095Y-81917295D02*
X111220286Y-81917295D01*
X111220286Y-81917295D02*
X111334571Y-81955390D01*
X111334571Y-81955390D02*
X111372667Y-81993485D01*
X112058381Y-81917295D02*
X111906000Y-81917295D01*
X111906000Y-81917295D02*
X111829809Y-81955390D01*
X111829809Y-81955390D02*
X111791714Y-81993485D01*
X111791714Y-81993485D02*
X111715524Y-82107771D01*
X111715524Y-82107771D02*
X111677428Y-82260152D01*
X111677428Y-82260152D02*
X111677428Y-82564914D01*
X111677428Y-82564914D02*
X111715524Y-82641104D01*
X111715524Y-82641104D02*
X111753619Y-82679200D01*
X111753619Y-82679200D02*
X111829809Y-82717295D01*
X111829809Y-82717295D02*
X111982190Y-82717295D01*
X111982190Y-82717295D02*
X112058381Y-82679200D01*
X112058381Y-82679200D02*
X112096476Y-82641104D01*
X112096476Y-82641104D02*
X112134571Y-82564914D01*
X112134571Y-82564914D02*
X112134571Y-82374438D01*
X112134571Y-82374438D02*
X112096476Y-82298247D01*
X112096476Y-82298247D02*
X112058381Y-82260152D01*
X112058381Y-82260152D02*
X111982190Y-82222057D01*
X111982190Y-82222057D02*
X111829809Y-82222057D01*
X111829809Y-82222057D02*
X111753619Y-82260152D01*
X111753619Y-82260152D02*
X111715524Y-82298247D01*
X111715524Y-82298247D02*
X111677428Y-82374438D01*
%TO.C,U1*%
X102250792Y-75762295D02*
X102250792Y-76409914D01*
X102250792Y-76409914D02*
X102288887Y-76486104D01*
X102288887Y-76486104D02*
X102326982Y-76524200D01*
X102326982Y-76524200D02*
X102403173Y-76562295D01*
X102403173Y-76562295D02*
X102555554Y-76562295D01*
X102555554Y-76562295D02*
X102631744Y-76524200D01*
X102631744Y-76524200D02*
X102669839Y-76486104D01*
X102669839Y-76486104D02*
X102707935Y-76409914D01*
X102707935Y-76409914D02*
X102707935Y-75762295D01*
X103507934Y-76562295D02*
X103050791Y-76562295D01*
X103279363Y-76562295D02*
X103279363Y-75762295D01*
X103279363Y-75762295D02*
X103203172Y-75876580D01*
X103203172Y-75876580D02*
X103126982Y-75952771D01*
X103126982Y-75952771D02*
X103050791Y-75990866D01*
D11*
%TO.C,R4*%
X112548641Y-83819000D02*
X112241359Y-83819000D01*
X112548641Y-83059000D02*
X112241359Y-83059000D01*
%TO.C,D3*%
X118960000Y-76808000D02*
X118960000Y-75338000D01*
X118960000Y-75338000D02*
X116675000Y-75338000D01*
X116675000Y-76808000D02*
X118960000Y-76808000D01*
%TO.C,C5*%
X143283000Y-78300252D02*
X143283000Y-77777748D01*
X144753000Y-78300252D02*
X144753000Y-77777748D01*
D12*
%TO.C,TP3*%
X137130000Y-83592000D02*
X139730000Y-83592000D01*
X139730000Y-82572000D02*
X137130000Y-82572000D01*
D11*
%TO.C,R3*%
X119861359Y-75693000D02*
X120168641Y-75693000D01*
X119861359Y-76453000D02*
X120168641Y-76453000D01*
%TO.C,J2*%
X154223000Y-89983000D02*
X154223000Y-91313000D01*
X152893000Y-89983000D02*
X154223000Y-89983000D01*
X151623000Y-89983000D02*
X146483000Y-89983000D01*
X151623000Y-89983000D02*
X151623000Y-92583000D01*
X146483000Y-89983000D02*
X146483000Y-95183000D01*
X154223000Y-92583000D02*
X154223000Y-95183000D01*
X151623000Y-92583000D02*
X154223000Y-92583000D01*
X154223000Y-95183000D02*
X146483000Y-95183000D01*
D13*
%TO.C,RV2*%
X148705000Y-88470000D02*
X153205000Y-88470000D01*
X148705000Y-87370000D02*
X148705000Y-88470000D01*
X148705000Y-84570000D02*
X148705000Y-83470000D01*
X148705000Y-83470000D02*
X153205000Y-83470000D01*
D11*
%TO.C,C8*%
X113390000Y-79902164D02*
X113390000Y-80117836D01*
X112670000Y-79902164D02*
X112670000Y-80117836D01*
%TO.C,C7*%
X142134000Y-78527836D02*
X142134000Y-78312164D01*
X142854000Y-78527836D02*
X142854000Y-78312164D01*
D12*
%TO.C,TP2*%
X119410000Y-82528000D02*
X116810000Y-82528000D01*
X116810000Y-83548000D02*
X119410000Y-83548000D01*
D13*
%TO.C,RV1*%
X107993000Y-83511000D02*
X103493000Y-83511000D01*
X107993000Y-84611000D02*
X107993000Y-83511000D01*
X107993000Y-87411000D02*
X107993000Y-88511000D01*
X107993000Y-88511000D02*
X103493000Y-88511000D01*
D11*
%TO.C,R2*%
X135635000Y-79475359D02*
X135635000Y-79782641D01*
X134875000Y-79475359D02*
X134875000Y-79782641D01*
%TO.C,C4*%
X111879748Y-75592000D02*
X112402252Y-75592000D01*
X111879748Y-77062000D02*
X112402252Y-77062000D01*
%TO.C,C3*%
X143283000Y-81729252D02*
X143283000Y-81206748D01*
X144753000Y-81729252D02*
X144753000Y-81206748D01*
D13*
%TO.C,J1*%
X132742000Y-80224000D02*
X132742000Y-79424000D01*
X132742000Y-76424000D02*
X132742000Y-75374000D01*
X132742000Y-75374000D02*
X123802000Y-75374000D01*
X123802000Y-80224000D02*
X123802000Y-79424000D01*
X123802000Y-75374000D02*
X123802000Y-76424000D01*
D11*
%TO.C,R1*%
X134875000Y-77877641D02*
X134875000Y-77570359D01*
X135635000Y-77877641D02*
X135635000Y-77570359D01*
%TO.C,J3*%
X109915000Y-89983000D02*
X109915000Y-91313000D01*
X108585000Y-89983000D02*
X109915000Y-89983000D01*
X107315000Y-89983000D02*
X102175000Y-89983000D01*
X107315000Y-89983000D02*
X107315000Y-92583000D01*
X102175000Y-89983000D02*
X102175000Y-95183000D01*
X109915000Y-92583000D02*
X109915000Y-95183000D01*
X107315000Y-92583000D02*
X109915000Y-92583000D01*
X109915000Y-95183000D02*
X102175000Y-95183000D01*
%TO.C,R5*%
X143864359Y-83313000D02*
X144171641Y-83313000D01*
X143864359Y-84073000D02*
X144171641Y-84073000D01*
%TO.C,U2*%
X146522000Y-75457000D02*
X152532000Y-75457000D01*
X148772000Y-82277000D02*
X152532000Y-82277000D01*
X152532000Y-75457000D02*
X152532000Y-76717000D01*
X152532000Y-82277000D02*
X152532000Y-81017000D01*
D12*
%TO.C,TP1*%
X104999000Y-103148000D02*
X107599000Y-103148000D01*
X107599000Y-102128000D02*
X104999000Y-102128000D01*
%TO.C,TP4*%
X148941000Y-103148000D02*
X151541000Y-103148000D01*
X151541000Y-102128000D02*
X148941000Y-102128000D01*
D11*
%TO.C,C6*%
X112241000Y-79748748D02*
X112241000Y-80271252D01*
X110771000Y-79748748D02*
X110771000Y-80271252D01*
%TO.C,U1*%
X110018000Y-82277000D02*
X104008000Y-82277000D01*
X107768000Y-75457000D02*
X104008000Y-75457000D01*
X104008000Y-82277000D02*
X104008000Y-81017000D01*
X104008000Y-75457000D02*
X104008000Y-76717000D01*
%TD*%
M02*
