%TF.GenerationSoftware,KiCad,Pcbnew,8.0.4*%
%TF.CreationDate,2024-09-01T16:29:35-06:00*%
%TF.ProjectId,Breadboard Power Supply,42726561-6462-46f6-9172-6420506f7765,v1*%
%TF.SameCoordinates,Original*%
%TF.FileFunction,Legend,Top*%
%TF.FilePolarity,Positive*%
%FSLAX46Y46*%
G04 Gerber Fmt 4.6, Leading zero omitted, Abs format (unit mm)*
G04 Created by KiCad (PCBNEW 8.0.4) date 2024-09-01 16:29:35*
%MOMM*%
%LPD*%
G01*
G04 APERTURE LIST*
%ADD10C,0.250000*%
%ADD11C,0.200000*%
%ADD12C,0.120000*%
%ADD13C,0.127000*%
G04 APERTURE END LIST*
D10*
X146838336Y-88079619D02*
X146266908Y-88079619D01*
X146552622Y-88079619D02*
X146552622Y-87079619D01*
X146552622Y-87079619D02*
X146457384Y-87222476D01*
X146457384Y-87222476D02*
X146362146Y-87317714D01*
X146362146Y-87317714D02*
X146266908Y-87365333D01*
X147266908Y-87984380D02*
X147314527Y-88032000D01*
X147314527Y-88032000D02*
X147266908Y-88079619D01*
X147266908Y-88079619D02*
X147219289Y-88032000D01*
X147219289Y-88032000D02*
X147266908Y-87984380D01*
X147266908Y-87984380D02*
X147266908Y-88079619D01*
X147885955Y-87508190D02*
X147790717Y-87460571D01*
X147790717Y-87460571D02*
X147743098Y-87412952D01*
X147743098Y-87412952D02*
X147695479Y-87317714D01*
X147695479Y-87317714D02*
X147695479Y-87270095D01*
X147695479Y-87270095D02*
X147743098Y-87174857D01*
X147743098Y-87174857D02*
X147790717Y-87127238D01*
X147790717Y-87127238D02*
X147885955Y-87079619D01*
X147885955Y-87079619D02*
X148076431Y-87079619D01*
X148076431Y-87079619D02*
X148171669Y-87127238D01*
X148171669Y-87127238D02*
X148219288Y-87174857D01*
X148219288Y-87174857D02*
X148266907Y-87270095D01*
X148266907Y-87270095D02*
X148266907Y-87317714D01*
X148266907Y-87317714D02*
X148219288Y-87412952D01*
X148219288Y-87412952D02*
X148171669Y-87460571D01*
X148171669Y-87460571D02*
X148076431Y-87508190D01*
X148076431Y-87508190D02*
X147885955Y-87508190D01*
X147885955Y-87508190D02*
X147790717Y-87555809D01*
X147790717Y-87555809D02*
X147743098Y-87603428D01*
X147743098Y-87603428D02*
X147695479Y-87698666D01*
X147695479Y-87698666D02*
X147695479Y-87889142D01*
X147695479Y-87889142D02*
X147743098Y-87984380D01*
X147743098Y-87984380D02*
X147790717Y-88032000D01*
X147790717Y-88032000D02*
X147885955Y-88079619D01*
X147885955Y-88079619D02*
X148076431Y-88079619D01*
X148076431Y-88079619D02*
X148171669Y-88032000D01*
X148171669Y-88032000D02*
X148219288Y-87984380D01*
X148219288Y-87984380D02*
X148266907Y-87889142D01*
X148266907Y-87889142D02*
X148266907Y-87698666D01*
X148266907Y-87698666D02*
X148219288Y-87603428D01*
X148219288Y-87603428D02*
X148171669Y-87555809D01*
X148171669Y-87555809D02*
X148076431Y-87508190D01*
X148552622Y-87079619D02*
X148885955Y-88079619D01*
X148885955Y-88079619D02*
X149219288Y-87079619D01*
X151758048Y-100779666D02*
X152519953Y-100779666D01*
X152139000Y-101160619D02*
X152139000Y-100398714D01*
X146219289Y-89619619D02*
X146838336Y-89619619D01*
X146838336Y-89619619D02*
X146505003Y-90000571D01*
X146505003Y-90000571D02*
X146647860Y-90000571D01*
X146647860Y-90000571D02*
X146743098Y-90048190D01*
X146743098Y-90048190D02*
X146790717Y-90095809D01*
X146790717Y-90095809D02*
X146838336Y-90191047D01*
X146838336Y-90191047D02*
X146838336Y-90429142D01*
X146838336Y-90429142D02*
X146790717Y-90524380D01*
X146790717Y-90524380D02*
X146743098Y-90572000D01*
X146743098Y-90572000D02*
X146647860Y-90619619D01*
X146647860Y-90619619D02*
X146362146Y-90619619D01*
X146362146Y-90619619D02*
X146266908Y-90572000D01*
X146266908Y-90572000D02*
X146219289Y-90524380D01*
X147266908Y-90524380D02*
X147314527Y-90572000D01*
X147314527Y-90572000D02*
X147266908Y-90619619D01*
X147266908Y-90619619D02*
X147219289Y-90572000D01*
X147219289Y-90572000D02*
X147266908Y-90524380D01*
X147266908Y-90524380D02*
X147266908Y-90619619D01*
X147647860Y-89619619D02*
X148266907Y-89619619D01*
X148266907Y-89619619D02*
X147933574Y-90000571D01*
X147933574Y-90000571D02*
X148076431Y-90000571D01*
X148076431Y-90000571D02*
X148171669Y-90048190D01*
X148171669Y-90048190D02*
X148219288Y-90095809D01*
X148219288Y-90095809D02*
X148266907Y-90191047D01*
X148266907Y-90191047D02*
X148266907Y-90429142D01*
X148266907Y-90429142D02*
X148219288Y-90524380D01*
X148219288Y-90524380D02*
X148171669Y-90572000D01*
X148171669Y-90572000D02*
X148076431Y-90619619D01*
X148076431Y-90619619D02*
X147790717Y-90619619D01*
X147790717Y-90619619D02*
X147695479Y-90572000D01*
X147695479Y-90572000D02*
X147647860Y-90524380D01*
X148552622Y-89619619D02*
X148885955Y-90619619D01*
X148885955Y-90619619D02*
X149219288Y-89619619D01*
X107987377Y-88079619D02*
X107415949Y-88079619D01*
X107701663Y-88079619D02*
X107701663Y-87079619D01*
X107701663Y-87079619D02*
X107606425Y-87222476D01*
X107606425Y-87222476D02*
X107511187Y-87317714D01*
X107511187Y-87317714D02*
X107415949Y-87365333D01*
X108415949Y-87984380D02*
X108463568Y-88032000D01*
X108463568Y-88032000D02*
X108415949Y-88079619D01*
X108415949Y-88079619D02*
X108368330Y-88032000D01*
X108368330Y-88032000D02*
X108415949Y-87984380D01*
X108415949Y-87984380D02*
X108415949Y-88079619D01*
X109034996Y-87508190D02*
X108939758Y-87460571D01*
X108939758Y-87460571D02*
X108892139Y-87412952D01*
X108892139Y-87412952D02*
X108844520Y-87317714D01*
X108844520Y-87317714D02*
X108844520Y-87270095D01*
X108844520Y-87270095D02*
X108892139Y-87174857D01*
X108892139Y-87174857D02*
X108939758Y-87127238D01*
X108939758Y-87127238D02*
X109034996Y-87079619D01*
X109034996Y-87079619D02*
X109225472Y-87079619D01*
X109225472Y-87079619D02*
X109320710Y-87127238D01*
X109320710Y-87127238D02*
X109368329Y-87174857D01*
X109368329Y-87174857D02*
X109415948Y-87270095D01*
X109415948Y-87270095D02*
X109415948Y-87317714D01*
X109415948Y-87317714D02*
X109368329Y-87412952D01*
X109368329Y-87412952D02*
X109320710Y-87460571D01*
X109320710Y-87460571D02*
X109225472Y-87508190D01*
X109225472Y-87508190D02*
X109034996Y-87508190D01*
X109034996Y-87508190D02*
X108939758Y-87555809D01*
X108939758Y-87555809D02*
X108892139Y-87603428D01*
X108892139Y-87603428D02*
X108844520Y-87698666D01*
X108844520Y-87698666D02*
X108844520Y-87889142D01*
X108844520Y-87889142D02*
X108892139Y-87984380D01*
X108892139Y-87984380D02*
X108939758Y-88032000D01*
X108939758Y-88032000D02*
X109034996Y-88079619D01*
X109034996Y-88079619D02*
X109225472Y-88079619D01*
X109225472Y-88079619D02*
X109320710Y-88032000D01*
X109320710Y-88032000D02*
X109368329Y-87984380D01*
X109368329Y-87984380D02*
X109415948Y-87889142D01*
X109415948Y-87889142D02*
X109415948Y-87698666D01*
X109415948Y-87698666D02*
X109368329Y-87603428D01*
X109368329Y-87603428D02*
X109320710Y-87555809D01*
X109320710Y-87555809D02*
X109225472Y-87508190D01*
X109701663Y-87079619D02*
X110034996Y-88079619D01*
X110034996Y-88079619D02*
X110368329Y-87079619D01*
X107368330Y-89619619D02*
X107987377Y-89619619D01*
X107987377Y-89619619D02*
X107654044Y-90000571D01*
X107654044Y-90000571D02*
X107796901Y-90000571D01*
X107796901Y-90000571D02*
X107892139Y-90048190D01*
X107892139Y-90048190D02*
X107939758Y-90095809D01*
X107939758Y-90095809D02*
X107987377Y-90191047D01*
X107987377Y-90191047D02*
X107987377Y-90429142D01*
X107987377Y-90429142D02*
X107939758Y-90524380D01*
X107939758Y-90524380D02*
X107892139Y-90572000D01*
X107892139Y-90572000D02*
X107796901Y-90619619D01*
X107796901Y-90619619D02*
X107511187Y-90619619D01*
X107511187Y-90619619D02*
X107415949Y-90572000D01*
X107415949Y-90572000D02*
X107368330Y-90524380D01*
X108415949Y-90524380D02*
X108463568Y-90572000D01*
X108463568Y-90572000D02*
X108415949Y-90619619D01*
X108415949Y-90619619D02*
X108368330Y-90572000D01*
X108368330Y-90572000D02*
X108415949Y-90524380D01*
X108415949Y-90524380D02*
X108415949Y-90619619D01*
X108796901Y-89619619D02*
X109415948Y-89619619D01*
X109415948Y-89619619D02*
X109082615Y-90000571D01*
X109082615Y-90000571D02*
X109225472Y-90000571D01*
X109225472Y-90000571D02*
X109320710Y-90048190D01*
X109320710Y-90048190D02*
X109368329Y-90095809D01*
X109368329Y-90095809D02*
X109415948Y-90191047D01*
X109415948Y-90191047D02*
X109415948Y-90429142D01*
X109415948Y-90429142D02*
X109368329Y-90524380D01*
X109368329Y-90524380D02*
X109320710Y-90572000D01*
X109320710Y-90572000D02*
X109225472Y-90619619D01*
X109225472Y-90619619D02*
X108939758Y-90619619D01*
X108939758Y-90619619D02*
X108844520Y-90572000D01*
X108844520Y-90572000D02*
X108796901Y-90524380D01*
X109701663Y-89619619D02*
X110034996Y-90619619D01*
X110034996Y-90619619D02*
X110368329Y-89619619D01*
X149169048Y-100779666D02*
X149930953Y-100779666D01*
X107939758Y-92159619D02*
X107463568Y-92159619D01*
X107463568Y-92159619D02*
X107415949Y-92635809D01*
X107415949Y-92635809D02*
X107463568Y-92588190D01*
X107463568Y-92588190D02*
X107558806Y-92540571D01*
X107558806Y-92540571D02*
X107796901Y-92540571D01*
X107796901Y-92540571D02*
X107892139Y-92588190D01*
X107892139Y-92588190D02*
X107939758Y-92635809D01*
X107939758Y-92635809D02*
X107987377Y-92731047D01*
X107987377Y-92731047D02*
X107987377Y-92969142D01*
X107987377Y-92969142D02*
X107939758Y-93064380D01*
X107939758Y-93064380D02*
X107892139Y-93112000D01*
X107892139Y-93112000D02*
X107796901Y-93159619D01*
X107796901Y-93159619D02*
X107558806Y-93159619D01*
X107558806Y-93159619D02*
X107463568Y-93112000D01*
X107463568Y-93112000D02*
X107415949Y-93064380D01*
X108273092Y-92159619D02*
X108606425Y-93159619D01*
X108606425Y-93159619D02*
X108939758Y-92159619D01*
X147314526Y-95699619D02*
X146743098Y-95699619D01*
X147028812Y-95699619D02*
X147028812Y-94699619D01*
X147028812Y-94699619D02*
X146933574Y-94842476D01*
X146933574Y-94842476D02*
X146838336Y-94937714D01*
X146838336Y-94937714D02*
X146743098Y-94985333D01*
X147695479Y-94794857D02*
X147743098Y-94747238D01*
X147743098Y-94747238D02*
X147838336Y-94699619D01*
X147838336Y-94699619D02*
X148076431Y-94699619D01*
X148076431Y-94699619D02*
X148171669Y-94747238D01*
X148171669Y-94747238D02*
X148219288Y-94794857D01*
X148219288Y-94794857D02*
X148266907Y-94890095D01*
X148266907Y-94890095D02*
X148266907Y-94985333D01*
X148266907Y-94985333D02*
X148219288Y-95128190D01*
X148219288Y-95128190D02*
X147647860Y-95699619D01*
X147647860Y-95699619D02*
X148266907Y-95699619D01*
X148552622Y-94699619D02*
X148885955Y-95699619D01*
X148885955Y-95699619D02*
X149219288Y-94699619D01*
X106669048Y-100779666D02*
X107430953Y-100779666D01*
X107050000Y-101160619D02*
X107050000Y-100398714D01*
X107987377Y-95699619D02*
X107415949Y-95699619D01*
X107701663Y-95699619D02*
X107701663Y-94699619D01*
X107701663Y-94699619D02*
X107606425Y-94842476D01*
X107606425Y-94842476D02*
X107511187Y-94937714D01*
X107511187Y-94937714D02*
X107415949Y-94985333D01*
X108368330Y-94794857D02*
X108415949Y-94747238D01*
X108415949Y-94747238D02*
X108511187Y-94699619D01*
X108511187Y-94699619D02*
X108749282Y-94699619D01*
X108749282Y-94699619D02*
X108844520Y-94747238D01*
X108844520Y-94747238D02*
X108892139Y-94794857D01*
X108892139Y-94794857D02*
X108939758Y-94890095D01*
X108939758Y-94890095D02*
X108939758Y-94985333D01*
X108939758Y-94985333D02*
X108892139Y-95128190D01*
X108892139Y-95128190D02*
X108320711Y-95699619D01*
X108320711Y-95699619D02*
X108939758Y-95699619D01*
X109225473Y-94699619D02*
X109558806Y-95699619D01*
X109558806Y-95699619D02*
X109892139Y-94699619D01*
X148219288Y-92159619D02*
X147743098Y-92159619D01*
X147743098Y-92159619D02*
X147695479Y-92635809D01*
X147695479Y-92635809D02*
X147743098Y-92588190D01*
X147743098Y-92588190D02*
X147838336Y-92540571D01*
X147838336Y-92540571D02*
X148076431Y-92540571D01*
X148076431Y-92540571D02*
X148171669Y-92588190D01*
X148171669Y-92588190D02*
X148219288Y-92635809D01*
X148219288Y-92635809D02*
X148266907Y-92731047D01*
X148266907Y-92731047D02*
X148266907Y-92969142D01*
X148266907Y-92969142D02*
X148219288Y-93064380D01*
X148219288Y-93064380D02*
X148171669Y-93112000D01*
X148171669Y-93112000D02*
X148076431Y-93159619D01*
X148076431Y-93159619D02*
X147838336Y-93159619D01*
X147838336Y-93159619D02*
X147743098Y-93112000D01*
X147743098Y-93112000D02*
X147695479Y-93064380D01*
X148552622Y-92159619D02*
X148885955Y-93159619D01*
X148885955Y-93159619D02*
X149219288Y-92159619D01*
X104019048Y-100779666D02*
X104780953Y-100779666D01*
D11*
X118768905Y-81097219D02*
X118768905Y-80097219D01*
X118768905Y-80097219D02*
X119007000Y-80097219D01*
X119007000Y-80097219D02*
X119149857Y-80144838D01*
X119149857Y-80144838D02*
X119245095Y-80240076D01*
X119245095Y-80240076D02*
X119292714Y-80335314D01*
X119292714Y-80335314D02*
X119340333Y-80525790D01*
X119340333Y-80525790D02*
X119340333Y-80668647D01*
X119340333Y-80668647D02*
X119292714Y-80859123D01*
X119292714Y-80859123D02*
X119245095Y-80954361D01*
X119245095Y-80954361D02*
X119149857Y-81049600D01*
X119149857Y-81049600D02*
X119007000Y-81097219D01*
X119007000Y-81097219D02*
X118768905Y-81097219D01*
X120292714Y-81097219D02*
X119721286Y-81097219D01*
X120007000Y-81097219D02*
X120007000Y-80097219D01*
X120007000Y-80097219D02*
X119911762Y-80240076D01*
X119911762Y-80240076D02*
X119816524Y-80335314D01*
X119816524Y-80335314D02*
X119721286Y-80382933D01*
D12*
%TO.C,J4*%
X149800000Y-86300000D02*
X151130000Y-86300000D01*
X149800000Y-87630000D02*
X149800000Y-86300000D01*
X149800000Y-88900000D02*
X149800000Y-96580000D01*
X149800000Y-88900000D02*
X152400000Y-88900000D01*
X149800000Y-96580000D02*
X155000000Y-96580000D01*
X152400000Y-86300000D02*
X155000000Y-86300000D01*
X152400000Y-88900000D02*
X152400000Y-86300000D01*
X155000000Y-86300000D02*
X155000000Y-96580000D01*
%TO.C,R4*%
X111507000Y-78461359D02*
X111507000Y-78768641D01*
X112267000Y-78461359D02*
X112267000Y-78768641D01*
%TO.C,C5*%
X147439748Y-82958000D02*
X147962252Y-82958000D01*
X147439748Y-84428000D02*
X147962252Y-84428000D01*
%TO.C,L2*%
X119860122Y-77799000D02*
X119060878Y-77799000D01*
X119860122Y-78919000D02*
X119060878Y-78919000D01*
%TO.C,R3*%
X136879359Y-77725000D02*
X137186641Y-77725000D01*
X136879359Y-78485000D02*
X137186641Y-78485000D01*
%TO.C,C8*%
X102891000Y-83839164D02*
X102891000Y-84054836D01*
X103611000Y-83839164D02*
X103611000Y-84054836D01*
%TO.C,C7*%
X144801000Y-83613164D02*
X144801000Y-83828836D01*
X145521000Y-83613164D02*
X145521000Y-83828836D01*
%TO.C,C2*%
X113606252Y-82958000D02*
X113083748Y-82958000D01*
X113606252Y-84428000D02*
X113083748Y-84428000D01*
%TO.C,R2*%
X129259359Y-84075000D02*
X129566641Y-84075000D01*
X129259359Y-84835000D02*
X129566641Y-84835000D01*
%TO.C,R12*%
X116079000Y-80485359D02*
X116079000Y-80792641D01*
X116839000Y-80485359D02*
X116839000Y-80792641D01*
%TO.C,D2*%
X135548000Y-75370000D02*
X135548000Y-76840000D01*
X135548000Y-76840000D02*
X137833000Y-76840000D01*
X137833000Y-75370000D02*
X135548000Y-75370000D01*
%TO.C,C4*%
X113657748Y-75592000D02*
X114180252Y-75592000D01*
X113657748Y-77062000D02*
X114180252Y-77062000D01*
D11*
%TO.C,D1*%
X120857000Y-79745000D02*
X118157000Y-79745000D01*
X121567000Y-81545000D02*
X118157000Y-81545000D01*
D12*
%TO.C,R8*%
X142776641Y-75693000D02*
X142469359Y-75693000D01*
X142776641Y-76453000D02*
X142469359Y-76453000D01*
%TO.C,R7*%
X140236641Y-75693000D02*
X139929359Y-75693000D01*
X140236641Y-76453000D02*
X139929359Y-76453000D01*
%TO.C,C3*%
X152199748Y-82958000D02*
X152722252Y-82958000D01*
X152199748Y-84428000D02*
X152722252Y-84428000D01*
D11*
%TO.C,IC1*%
X117677000Y-82406000D02*
X118877000Y-82406000D01*
D12*
%TO.C,J5*%
X101540000Y-86300000D02*
X102870000Y-86300000D01*
X101540000Y-87630000D02*
X101540000Y-86300000D01*
X101540000Y-88900000D02*
X101540000Y-96580000D01*
X101540000Y-88900000D02*
X104140000Y-88900000D01*
X101540000Y-96580000D02*
X106740000Y-96580000D01*
X104140000Y-86300000D02*
X106740000Y-86300000D01*
X104140000Y-88900000D02*
X104140000Y-86300000D01*
X106740000Y-86300000D02*
X106740000Y-96580000D01*
%TO.C,R9*%
X116079000Y-82775359D02*
X116079000Y-83082641D01*
X116839000Y-82775359D02*
X116839000Y-83082641D01*
%TO.C,R1*%
X127280641Y-84075000D02*
X126973359Y-84075000D01*
X127280641Y-84835000D02*
X126973359Y-84835000D01*
%TO.C,R13*%
X116360641Y-84329000D02*
X116053359Y-84329000D01*
X116360641Y-85089000D02*
X116053359Y-85089000D01*
%TO.C,C1*%
X113490836Y-85111000D02*
X113275164Y-85111000D01*
X113490836Y-85831000D02*
X113275164Y-85831000D01*
D11*
%TO.C,J1*%
X123802000Y-75374000D02*
X123802000Y-76424000D01*
X123802000Y-80224000D02*
X123802000Y-79424000D01*
X132742000Y-75374000D02*
X123802000Y-75374000D01*
X132742000Y-76424000D02*
X132742000Y-75374000D01*
X132742000Y-80224000D02*
X132742000Y-79424000D01*
D12*
%TO.C,R6*%
X111507000Y-81251359D02*
X111507000Y-81558641D01*
X112267000Y-81251359D02*
X112267000Y-81558641D01*
%TO.C,R5*%
X144273000Y-76734641D02*
X144273000Y-76427359D01*
X145033000Y-76734641D02*
X145033000Y-76427359D01*
%TO.C,U2*%
X147883000Y-75457000D02*
X151643000Y-75457000D01*
X147883000Y-82277000D02*
X151643000Y-82277000D01*
X151643000Y-75457000D02*
X151643000Y-76717000D01*
X151643000Y-82277000D02*
X151643000Y-81017000D01*
D13*
%TO.C,TP1*%
X104999000Y-103148000D02*
X107599000Y-103148000D01*
X107599000Y-102128000D02*
X104999000Y-102128000D01*
%TO.C,TP4*%
X148941000Y-103148000D02*
X151541000Y-103148000D01*
X151541000Y-102128000D02*
X148941000Y-102128000D01*
D12*
%TO.C,C10*%
X119768252Y-75338000D02*
X119245748Y-75338000D01*
X119768252Y-76808000D02*
X119245748Y-76808000D01*
%TO.C,C6*%
X105568748Y-83212000D02*
X106091252Y-83212000D01*
X105568748Y-84682000D02*
X106091252Y-84682000D01*
%TO.C,U1*%
X104858000Y-75457000D02*
X104858000Y-76717000D01*
X104858000Y-82277000D02*
X104858000Y-81017000D01*
X108618000Y-75457000D02*
X104858000Y-75457000D01*
X108618000Y-82277000D02*
X104858000Y-82277000D01*
%TD*%
M02*
