%TF.GenerationSoftware,KiCad,Pcbnew,7.0.9*%
%TF.CreationDate,2024-01-09T18:55:52-07:00*%
%TF.ProjectId,Breadboard Power Supply,42726561-6462-46f6-9172-6420506f7765,v10*%
%TF.SameCoordinates,Original*%
%TF.FileFunction,Copper,L2,Inr*%
%TF.FilePolarity,Positive*%
%FSLAX46Y46*%
G04 Gerber Fmt 4.6, Leading zero omitted, Abs format (unit mm)*
G04 Created by KiCad (PCBNEW 7.0.9) date 2024-01-09 18:55:52*
%MOMM*%
%LPD*%
G01*
G04 APERTURE LIST*
%TA.AperFunction,ComponentPad*%
%ADD10R,1.700000X1.700000*%
%TD*%
%TA.AperFunction,ComponentPad*%
%ADD11O,1.700000X1.700000*%
%TD*%
%TA.AperFunction,ComponentPad*%
%ADD12C,1.450000*%
%TD*%
%TA.AperFunction,ComponentPad*%
%ADD13C,1.830000*%
%TD*%
%TA.AperFunction,ViaPad*%
%ADD14C,0.800000*%
%TD*%
G04 APERTURE END LIST*
D10*
%TO.N,+1V8*%
%TO.C,J4*%
X151003000Y-86360000D03*
D11*
%TO.N,/TOP_POWER_RAIL*%
X153543000Y-86360000D03*
%TO.N,+3.3V*%
X151003000Y-88900000D03*
%TO.N,/TOP_POWER_RAIL*%
X153543000Y-88900000D03*
%TO.N,VBUS*%
X151003000Y-91440000D03*
%TO.N,/TOP_POWER_RAIL*%
X153543000Y-91440000D03*
%TO.N,+12V*%
X151003000Y-93980000D03*
%TO.N,/TOP_POWER_RAIL*%
X153543000Y-93980000D03*
%TD*%
D12*
%TO.N,GND*%
%TO.C,J1*%
X132592000Y-77974000D03*
X123952000Y-77974000D03*
X132592000Y-81774000D03*
X123952000Y-81774000D03*
%TD*%
D10*
%TO.N,/BOTTOM_POWER_RAIL*%
%TO.C,J5*%
X102997000Y-86360000D03*
D11*
%TO.N,+1V8*%
X105537000Y-86360000D03*
%TO.N,/BOTTOM_POWER_RAIL*%
X102997000Y-88900000D03*
%TO.N,+3.3V*%
X105537000Y-88900000D03*
%TO.N,/BOTTOM_POWER_RAIL*%
X102997000Y-91440000D03*
%TO.N,VBUS*%
X105537000Y-91440000D03*
%TO.N,/BOTTOM_POWER_RAIL*%
X102997000Y-93980000D03*
%TO.N,+12V*%
X105537000Y-93980000D03*
%TD*%
D13*
%TO.N,GND*%
%TO.C,TP1*%
X103759000Y-102638000D03*
X108839000Y-102638000D03*
%TD*%
%TO.N,GND*%
%TO.C,TP4*%
X147701000Y-102638000D03*
X152781000Y-102638000D03*
%TD*%
D10*
%TO.N,GND*%
%TO.C,J10*%
X114300000Y-78740000D03*
D11*
X114300000Y-81280000D03*
%TD*%
D10*
%TO.N,/TOP_POWER_RAIL*%
%TO.C,J8*%
X151765000Y-99060000D03*
D11*
%TO.N,GND*%
X149225000Y-99060000D03*
%TD*%
D10*
%TO.N,GND*%
%TO.C,J11*%
X142240000Y-78740000D03*
D11*
X142240000Y-81280000D03*
%TD*%
D10*
%TO.N,/BOTTOM_POWER_RAIL*%
%TO.C,J9*%
X107315000Y-99060000D03*
D11*
%TO.N,GND*%
X104775000Y-99060000D03*
%TD*%
D14*
%TO.N,GND*%
X136525000Y-83185000D03*
X104733500Y-81153000D03*
X119761000Y-77343000D03*
X101981000Y-81407000D03*
X143891000Y-76835000D03*
X140335000Y-82169000D03*
X138049000Y-76666500D03*
X134493000Y-77724000D03*
X110045500Y-82867500D03*
X127381000Y-78613000D03*
%TO.N,+3.3V*%
X143891000Y-78359000D03*
%TO.N,+1V8*%
X141605000Y-75692000D03*
%TO.N,Net-(U2-ADJ)*%
X148727517Y-77574678D03*
%TO.N,+12V*%
X108458000Y-87630000D03*
%TO.N,Net-(D2-A2)*%
X121539000Y-77343000D03*
%TO.N,VBUS*%
X129866751Y-83088500D03*
X138367783Y-81123986D03*
X107315000Y-85344000D03*
X148971000Y-80645000D03*
X107315000Y-79375000D03*
X143891000Y-82423000D03*
X127127000Y-83185000D03*
X107569000Y-76581000D03*
X123534471Y-79230971D03*
X118237000Y-82423000D03*
X119761000Y-82169000D03*
%TD*%
%TA.AperFunction,Conductor*%
%TO.N,VBUS*%
G36*
X140711011Y-75204185D02*
G01*
X140756766Y-75256989D01*
X140766710Y-75326147D01*
X140761903Y-75346818D01*
X140711458Y-75502072D01*
X140691496Y-75692000D01*
X140711458Y-75881928D01*
X140711459Y-75881931D01*
X140770470Y-76063549D01*
X140770473Y-76063556D01*
X140865960Y-76228944D01*
X140993747Y-76370866D01*
X141148248Y-76483118D01*
X141322712Y-76560794D01*
X141509513Y-76600500D01*
X141700487Y-76600500D01*
X141887288Y-76560794D01*
X142061752Y-76483118D01*
X142216253Y-76370866D01*
X142344040Y-76228944D01*
X142439527Y-76063556D01*
X142498542Y-75881928D01*
X142518504Y-75692000D01*
X142498542Y-75502072D01*
X142448097Y-75346818D01*
X142446102Y-75276977D01*
X142482182Y-75217144D01*
X142544883Y-75186316D01*
X142566028Y-75184500D01*
X154942500Y-75184500D01*
X155009539Y-75204185D01*
X155055294Y-75256989D01*
X155066500Y-75308500D01*
X155066500Y-85859932D01*
X155046815Y-85926971D01*
X154994011Y-85972726D01*
X154924853Y-85982670D01*
X154861297Y-85953645D01*
X154828944Y-85909742D01*
X154741859Y-85711207D01*
X154618723Y-85522734D01*
X154618715Y-85522723D01*
X154466243Y-85357097D01*
X154466238Y-85357092D01*
X154288577Y-85218812D01*
X154288572Y-85218808D01*
X154090580Y-85111661D01*
X154090577Y-85111659D01*
X154090574Y-85111658D01*
X154090571Y-85111657D01*
X154090569Y-85111656D01*
X153877637Y-85038556D01*
X153655569Y-85001500D01*
X153430431Y-85001500D01*
X153208362Y-85038556D01*
X152995430Y-85111656D01*
X152995419Y-85111661D01*
X152797427Y-85218808D01*
X152797422Y-85218812D01*
X152619761Y-85357092D01*
X152556548Y-85425760D01*
X152496661Y-85461750D01*
X152426823Y-85459649D01*
X152369207Y-85420124D01*
X152349138Y-85385110D01*
X152303889Y-85263796D01*
X152270214Y-85218812D01*
X152216261Y-85146739D01*
X152099204Y-85059111D01*
X151962203Y-85008011D01*
X151901654Y-85001500D01*
X151901638Y-85001500D01*
X150104362Y-85001500D01*
X150104345Y-85001500D01*
X150043797Y-85008011D01*
X150043795Y-85008011D01*
X149906795Y-85059111D01*
X149789739Y-85146739D01*
X149702111Y-85263795D01*
X149651011Y-85400795D01*
X149651011Y-85400797D01*
X149644500Y-85461345D01*
X149644500Y-87258654D01*
X149651011Y-87319202D01*
X149651011Y-87319204D01*
X149696094Y-87440072D01*
X149702111Y-87456204D01*
X149789739Y-87573261D01*
X149906796Y-87660889D01*
X149958737Y-87680262D01*
X150024595Y-87704827D01*
X150080528Y-87746699D01*
X150104944Y-87812163D01*
X150090092Y-87880436D01*
X150072490Y-87904991D01*
X149927279Y-88062730D01*
X149927276Y-88062734D01*
X149804140Y-88251207D01*
X149713703Y-88457385D01*
X149658436Y-88675628D01*
X149658434Y-88675640D01*
X149639844Y-88899994D01*
X149639844Y-88900005D01*
X149658434Y-89124359D01*
X149658436Y-89124371D01*
X149713703Y-89342614D01*
X149804140Y-89548792D01*
X149927276Y-89737265D01*
X149927284Y-89737276D01*
X150079756Y-89902902D01*
X150079760Y-89902906D01*
X150257424Y-90041189D01*
X150293930Y-90060945D01*
X150300695Y-90064606D01*
X150350286Y-90113825D01*
X150365394Y-90182042D01*
X150341224Y-90247597D01*
X150312802Y-90275236D01*
X150131922Y-90401890D01*
X150131920Y-90401891D01*
X149964891Y-90568920D01*
X149964886Y-90568926D01*
X149829400Y-90762420D01*
X149829399Y-90762422D01*
X149729570Y-90976507D01*
X149729567Y-90976513D01*
X149672364Y-91189999D01*
X149672364Y-91190000D01*
X150569314Y-91190000D01*
X150543507Y-91230156D01*
X150503000Y-91368111D01*
X150503000Y-91511889D01*
X150543507Y-91649844D01*
X150569314Y-91690000D01*
X149672364Y-91690000D01*
X149729567Y-91903486D01*
X149729570Y-91903492D01*
X149829399Y-92117578D01*
X149964894Y-92311082D01*
X150131917Y-92478105D01*
X150312802Y-92604763D01*
X150356427Y-92659340D01*
X150363619Y-92728839D01*
X150332097Y-92791193D01*
X150300697Y-92815392D01*
X150257427Y-92838809D01*
X150257422Y-92838812D01*
X150079761Y-92977092D01*
X150079756Y-92977097D01*
X149927284Y-93142723D01*
X149927276Y-93142734D01*
X149804140Y-93331207D01*
X149713703Y-93537385D01*
X149658436Y-93755628D01*
X149658434Y-93755640D01*
X149639844Y-93979994D01*
X149639844Y-93980005D01*
X149658434Y-94204359D01*
X149658436Y-94204371D01*
X149713703Y-94422614D01*
X149804140Y-94628792D01*
X149927276Y-94817265D01*
X149927284Y-94817276D01*
X150079756Y-94982902D01*
X150079760Y-94982906D01*
X150257424Y-95121189D01*
X150257425Y-95121189D01*
X150257427Y-95121191D01*
X150384135Y-95189761D01*
X150455426Y-95228342D01*
X150668365Y-95301444D01*
X150890431Y-95338500D01*
X151115569Y-95338500D01*
X151337635Y-95301444D01*
X151550574Y-95228342D01*
X151748576Y-95121189D01*
X151926240Y-94982906D01*
X152078722Y-94817268D01*
X152169193Y-94678790D01*
X152222338Y-94633437D01*
X152291569Y-94624013D01*
X152354905Y-94653515D01*
X152376804Y-94678787D01*
X152467278Y-94817268D01*
X152467283Y-94817273D01*
X152467284Y-94817276D01*
X152619756Y-94982902D01*
X152619760Y-94982906D01*
X152797424Y-95121189D01*
X152797425Y-95121189D01*
X152797427Y-95121191D01*
X152924135Y-95189761D01*
X152995426Y-95228342D01*
X153208365Y-95301444D01*
X153430431Y-95338500D01*
X153655569Y-95338500D01*
X153877635Y-95301444D01*
X154090574Y-95228342D01*
X154288576Y-95121189D01*
X154466240Y-94982906D01*
X154618722Y-94817268D01*
X154741860Y-94628791D01*
X154828944Y-94430256D01*
X154873900Y-94376771D01*
X154940635Y-94356081D01*
X155007963Y-94374755D01*
X155054507Y-94426865D01*
X155066500Y-94480067D01*
X155066500Y-103888500D01*
X155046815Y-103955539D01*
X154994011Y-104001294D01*
X154942500Y-104012500D01*
X153693844Y-104012500D01*
X153626805Y-103992815D01*
X153581050Y-103940011D01*
X153571106Y-103870853D01*
X153600131Y-103807297D01*
X153617681Y-103790647D01*
X153635817Y-103776530D01*
X153748415Y-103688893D01*
X153908192Y-103515329D01*
X154037222Y-103317833D01*
X154131985Y-103101794D01*
X154189898Y-102873103D01*
X154209379Y-102638000D01*
X154189898Y-102402897D01*
X154131985Y-102174206D01*
X154037222Y-101958167D01*
X153908194Y-101760673D01*
X153880620Y-101730719D01*
X153748415Y-101587107D01*
X153748410Y-101587103D01*
X153748407Y-101587100D01*
X153562257Y-101442214D01*
X153562246Y-101442207D01*
X153354779Y-101329932D01*
X153354776Y-101329931D01*
X153354773Y-101329929D01*
X153354767Y-101329927D01*
X153354765Y-101329926D01*
X153131648Y-101253329D01*
X152898955Y-101214500D01*
X152663045Y-101214500D01*
X152430351Y-101253329D01*
X152207234Y-101329926D01*
X152207220Y-101329932D01*
X151999753Y-101442207D01*
X151999742Y-101442214D01*
X151813592Y-101587100D01*
X151813582Y-101587110D01*
X151653805Y-101760673D01*
X151524777Y-101958167D01*
X151430015Y-102174206D01*
X151372102Y-102402896D01*
X151372100Y-102402904D01*
X151352621Y-102637994D01*
X151352621Y-102638005D01*
X151372100Y-102873095D01*
X151372102Y-102873103D01*
X151430015Y-103101793D01*
X151524777Y-103317832D01*
X151653805Y-103515326D01*
X151653808Y-103515329D01*
X151813585Y-103688893D01*
X151907889Y-103762293D01*
X151944319Y-103790647D01*
X151985132Y-103847357D01*
X151988806Y-103917130D01*
X151954174Y-103977813D01*
X151892233Y-104010140D01*
X151868156Y-104012500D01*
X148613844Y-104012500D01*
X148546805Y-103992815D01*
X148501050Y-103940011D01*
X148491106Y-103870853D01*
X148520131Y-103807297D01*
X148537681Y-103790647D01*
X148555817Y-103776530D01*
X148668415Y-103688893D01*
X148828192Y-103515329D01*
X148957222Y-103317833D01*
X149051985Y-103101794D01*
X149109898Y-102873103D01*
X149129379Y-102638000D01*
X149109898Y-102402897D01*
X149051985Y-102174206D01*
X148957222Y-101958167D01*
X148828194Y-101760673D01*
X148800620Y-101730719D01*
X148668415Y-101587107D01*
X148668410Y-101587103D01*
X148668407Y-101587100D01*
X148482257Y-101442214D01*
X148482246Y-101442207D01*
X148274779Y-101329932D01*
X148274776Y-101329931D01*
X148274773Y-101329929D01*
X148274767Y-101329927D01*
X148274765Y-101329926D01*
X148051648Y-101253329D01*
X147818955Y-101214500D01*
X147583045Y-101214500D01*
X147350351Y-101253329D01*
X147127234Y-101329926D01*
X147127220Y-101329932D01*
X146919753Y-101442207D01*
X146919742Y-101442214D01*
X146733592Y-101587100D01*
X146733582Y-101587110D01*
X146573805Y-101760673D01*
X146444777Y-101958167D01*
X146350015Y-102174206D01*
X146292102Y-102402896D01*
X146292100Y-102402904D01*
X146272621Y-102637994D01*
X146272621Y-102638005D01*
X146292100Y-102873095D01*
X146292102Y-102873103D01*
X146350015Y-103101793D01*
X146444777Y-103317832D01*
X146573805Y-103515326D01*
X146573808Y-103515329D01*
X146733585Y-103688893D01*
X146827889Y-103762293D01*
X146864319Y-103790647D01*
X146905132Y-103847357D01*
X146908806Y-103917130D01*
X146874174Y-103977813D01*
X146812233Y-104010140D01*
X146788156Y-104012500D01*
X145920500Y-104012500D01*
X145853461Y-103992815D01*
X145807706Y-103940011D01*
X145796500Y-103888500D01*
X145796500Y-99060005D01*
X147861844Y-99060005D01*
X147880434Y-99284359D01*
X147880436Y-99284371D01*
X147935703Y-99502614D01*
X148026140Y-99708792D01*
X148149276Y-99897265D01*
X148149284Y-99897276D01*
X148275967Y-100034888D01*
X148301760Y-100062906D01*
X148479424Y-100201189D01*
X148479425Y-100201189D01*
X148479427Y-100201191D01*
X148606135Y-100269761D01*
X148677426Y-100308342D01*
X148890365Y-100381444D01*
X149112431Y-100418500D01*
X149337569Y-100418500D01*
X149559635Y-100381444D01*
X149772574Y-100308342D01*
X149970576Y-100201189D01*
X150148240Y-100062906D01*
X150211452Y-99994239D01*
X150271337Y-99958250D01*
X150341175Y-99960349D01*
X150398791Y-99999873D01*
X150418861Y-100034888D01*
X150464111Y-100156204D01*
X150551739Y-100273261D01*
X150668796Y-100360889D01*
X150805799Y-100411989D01*
X150833050Y-100414918D01*
X150866345Y-100418499D01*
X150866362Y-100418500D01*
X152663638Y-100418500D01*
X152663654Y-100418499D01*
X152690692Y-100415591D01*
X152724201Y-100411989D01*
X152861204Y-100360889D01*
X152978261Y-100273261D01*
X153065889Y-100156204D01*
X153116989Y-100019201D01*
X153120591Y-99985692D01*
X153123499Y-99958654D01*
X153123500Y-99958637D01*
X153123500Y-98161362D01*
X153123499Y-98161345D01*
X153119672Y-98125759D01*
X153116989Y-98100799D01*
X153065889Y-97963796D01*
X152978261Y-97846739D01*
X152861204Y-97759111D01*
X152724203Y-97708011D01*
X152663654Y-97701500D01*
X152663638Y-97701500D01*
X150866362Y-97701500D01*
X150866345Y-97701500D01*
X150805797Y-97708011D01*
X150805795Y-97708011D01*
X150668795Y-97759111D01*
X150551739Y-97846739D01*
X150464111Y-97963795D01*
X150418861Y-98085111D01*
X150376989Y-98141044D01*
X150311524Y-98165460D01*
X150243252Y-98150607D01*
X150211454Y-98125762D01*
X150148240Y-98057094D01*
X149970576Y-97918811D01*
X149970575Y-97918810D01*
X149970572Y-97918808D01*
X149772580Y-97811661D01*
X149772577Y-97811659D01*
X149772574Y-97811658D01*
X149772571Y-97811657D01*
X149772569Y-97811656D01*
X149559637Y-97738556D01*
X149337569Y-97701500D01*
X149112431Y-97701500D01*
X148890362Y-97738556D01*
X148677430Y-97811656D01*
X148677419Y-97811661D01*
X148479427Y-97918808D01*
X148479422Y-97918812D01*
X148301761Y-98057092D01*
X148301756Y-98057097D01*
X148149284Y-98222723D01*
X148149276Y-98222734D01*
X148026140Y-98411207D01*
X147935703Y-98617385D01*
X147880436Y-98835628D01*
X147880434Y-98835640D01*
X147861844Y-99059994D01*
X147861844Y-99060005D01*
X145796500Y-99060005D01*
X145796500Y-85114759D01*
X145796528Y-85114616D01*
X145796524Y-85114616D01*
X145796539Y-85090002D01*
X145796541Y-85090000D01*
X145796462Y-85089808D01*
X145796384Y-85089618D01*
X145796382Y-85089616D01*
X145796099Y-85089500D01*
X145796000Y-85089459D01*
X145771446Y-85089459D01*
X145771240Y-85089500D01*
X110768760Y-85089500D01*
X110768554Y-85089459D01*
X110744000Y-85089459D01*
X110743901Y-85089500D01*
X110743617Y-85089616D01*
X110743615Y-85089618D01*
X110743459Y-85089999D01*
X110743476Y-85114616D01*
X110743471Y-85114616D01*
X110743500Y-85114759D01*
X110743500Y-103888500D01*
X110723815Y-103955539D01*
X110671011Y-104001294D01*
X110619500Y-104012500D01*
X109751844Y-104012500D01*
X109684805Y-103992815D01*
X109639050Y-103940011D01*
X109629106Y-103870853D01*
X109658131Y-103807297D01*
X109675681Y-103790647D01*
X109693817Y-103776530D01*
X109806415Y-103688893D01*
X109966192Y-103515329D01*
X110095222Y-103317833D01*
X110189985Y-103101794D01*
X110247898Y-102873103D01*
X110267379Y-102638000D01*
X110247898Y-102402897D01*
X110189985Y-102174206D01*
X110095222Y-101958167D01*
X109966194Y-101760673D01*
X109938620Y-101730719D01*
X109806415Y-101587107D01*
X109806410Y-101587103D01*
X109806407Y-101587100D01*
X109620257Y-101442214D01*
X109620246Y-101442207D01*
X109412779Y-101329932D01*
X109412776Y-101329931D01*
X109412773Y-101329929D01*
X109412767Y-101329927D01*
X109412765Y-101329926D01*
X109189648Y-101253329D01*
X108956955Y-101214500D01*
X108721045Y-101214500D01*
X108488351Y-101253329D01*
X108265234Y-101329926D01*
X108265220Y-101329932D01*
X108057753Y-101442207D01*
X108057742Y-101442214D01*
X107871592Y-101587100D01*
X107871582Y-101587110D01*
X107711805Y-101760673D01*
X107582777Y-101958167D01*
X107488015Y-102174206D01*
X107430102Y-102402896D01*
X107430100Y-102402904D01*
X107410621Y-102637994D01*
X107410621Y-102638005D01*
X107430100Y-102873095D01*
X107430102Y-102873103D01*
X107488015Y-103101793D01*
X107582777Y-103317832D01*
X107711805Y-103515326D01*
X107711808Y-103515329D01*
X107871585Y-103688893D01*
X107965889Y-103762293D01*
X108002319Y-103790647D01*
X108043132Y-103847357D01*
X108046806Y-103917130D01*
X108012174Y-103977813D01*
X107950233Y-104010140D01*
X107926156Y-104012500D01*
X104671844Y-104012500D01*
X104604805Y-103992815D01*
X104559050Y-103940011D01*
X104549106Y-103870853D01*
X104578131Y-103807297D01*
X104595681Y-103790647D01*
X104613817Y-103776530D01*
X104726415Y-103688893D01*
X104886192Y-103515329D01*
X105015222Y-103317833D01*
X105109985Y-103101794D01*
X105167898Y-102873103D01*
X105187379Y-102638000D01*
X105167898Y-102402897D01*
X105109985Y-102174206D01*
X105015222Y-101958167D01*
X104886194Y-101760673D01*
X104858620Y-101730719D01*
X104726415Y-101587107D01*
X104726410Y-101587103D01*
X104726407Y-101587100D01*
X104540257Y-101442214D01*
X104540246Y-101442207D01*
X104332779Y-101329932D01*
X104332776Y-101329931D01*
X104332773Y-101329929D01*
X104332767Y-101329927D01*
X104332765Y-101329926D01*
X104109648Y-101253329D01*
X103876955Y-101214500D01*
X103641045Y-101214500D01*
X103408351Y-101253329D01*
X103185234Y-101329926D01*
X103185220Y-101329932D01*
X102977753Y-101442207D01*
X102977742Y-101442214D01*
X102791592Y-101587100D01*
X102791582Y-101587110D01*
X102631805Y-101760673D01*
X102502777Y-101958167D01*
X102408015Y-102174206D01*
X102350102Y-102402896D01*
X102350100Y-102402904D01*
X102330621Y-102637994D01*
X102330621Y-102638005D01*
X102350100Y-102873095D01*
X102350102Y-102873103D01*
X102408015Y-103101793D01*
X102502777Y-103317832D01*
X102631805Y-103515326D01*
X102631808Y-103515329D01*
X102791585Y-103688893D01*
X102885889Y-103762293D01*
X102922319Y-103790647D01*
X102963132Y-103847357D01*
X102966806Y-103917130D01*
X102932174Y-103977813D01*
X102870233Y-104010140D01*
X102846156Y-104012500D01*
X101597500Y-104012500D01*
X101530461Y-103992815D01*
X101484706Y-103940011D01*
X101473500Y-103888500D01*
X101473500Y-99060005D01*
X103411844Y-99060005D01*
X103430434Y-99284359D01*
X103430436Y-99284371D01*
X103485703Y-99502614D01*
X103576140Y-99708792D01*
X103699276Y-99897265D01*
X103699284Y-99897276D01*
X103825967Y-100034888D01*
X103851760Y-100062906D01*
X104029424Y-100201189D01*
X104029425Y-100201189D01*
X104029427Y-100201191D01*
X104156135Y-100269761D01*
X104227426Y-100308342D01*
X104440365Y-100381444D01*
X104662431Y-100418500D01*
X104887569Y-100418500D01*
X105109635Y-100381444D01*
X105322574Y-100308342D01*
X105520576Y-100201189D01*
X105698240Y-100062906D01*
X105761452Y-99994239D01*
X105821337Y-99958250D01*
X105891175Y-99960349D01*
X105948791Y-99999873D01*
X105968861Y-100034888D01*
X106014111Y-100156204D01*
X106101739Y-100273261D01*
X106218796Y-100360889D01*
X106355799Y-100411989D01*
X106383050Y-100414918D01*
X106416345Y-100418499D01*
X106416362Y-100418500D01*
X108213638Y-100418500D01*
X108213654Y-100418499D01*
X108240692Y-100415591D01*
X108274201Y-100411989D01*
X108411204Y-100360889D01*
X108528261Y-100273261D01*
X108615889Y-100156204D01*
X108666989Y-100019201D01*
X108670591Y-99985692D01*
X108673499Y-99958654D01*
X108673500Y-99958637D01*
X108673500Y-98161362D01*
X108673499Y-98161345D01*
X108669672Y-98125759D01*
X108666989Y-98100799D01*
X108615889Y-97963796D01*
X108528261Y-97846739D01*
X108411204Y-97759111D01*
X108274203Y-97708011D01*
X108213654Y-97701500D01*
X108213638Y-97701500D01*
X106416362Y-97701500D01*
X106416345Y-97701500D01*
X106355797Y-97708011D01*
X106355795Y-97708011D01*
X106218795Y-97759111D01*
X106101739Y-97846739D01*
X106014111Y-97963795D01*
X105968861Y-98085111D01*
X105926989Y-98141044D01*
X105861524Y-98165460D01*
X105793252Y-98150607D01*
X105761454Y-98125762D01*
X105698240Y-98057094D01*
X105520576Y-97918811D01*
X105520575Y-97918810D01*
X105520572Y-97918808D01*
X105322580Y-97811661D01*
X105322577Y-97811659D01*
X105322574Y-97811658D01*
X105322571Y-97811657D01*
X105322569Y-97811656D01*
X105109637Y-97738556D01*
X104887569Y-97701500D01*
X104662431Y-97701500D01*
X104440362Y-97738556D01*
X104227430Y-97811656D01*
X104227419Y-97811661D01*
X104029427Y-97918808D01*
X104029422Y-97918812D01*
X103851761Y-98057092D01*
X103851756Y-98057097D01*
X103699284Y-98222723D01*
X103699276Y-98222734D01*
X103576140Y-98411207D01*
X103485703Y-98617385D01*
X103430436Y-98835628D01*
X103430434Y-98835640D01*
X103411844Y-99059994D01*
X103411844Y-99060005D01*
X101473500Y-99060005D01*
X101473500Y-94480067D01*
X101493185Y-94413028D01*
X101545989Y-94367273D01*
X101615147Y-94357329D01*
X101678703Y-94386354D01*
X101711056Y-94430257D01*
X101798140Y-94628792D01*
X101921276Y-94817265D01*
X101921284Y-94817276D01*
X102073756Y-94982902D01*
X102073760Y-94982906D01*
X102251424Y-95121189D01*
X102251425Y-95121189D01*
X102251427Y-95121191D01*
X102378135Y-95189761D01*
X102449426Y-95228342D01*
X102662365Y-95301444D01*
X102884431Y-95338500D01*
X103109569Y-95338500D01*
X103331635Y-95301444D01*
X103544574Y-95228342D01*
X103742576Y-95121189D01*
X103920240Y-94982906D01*
X104072722Y-94817268D01*
X104163193Y-94678790D01*
X104216338Y-94633437D01*
X104285569Y-94624013D01*
X104348905Y-94653515D01*
X104370804Y-94678787D01*
X104461278Y-94817268D01*
X104461283Y-94817273D01*
X104461284Y-94817276D01*
X104613756Y-94982902D01*
X104613760Y-94982906D01*
X104791424Y-95121189D01*
X104791425Y-95121189D01*
X104791427Y-95121191D01*
X104918135Y-95189761D01*
X104989426Y-95228342D01*
X105202365Y-95301444D01*
X105424431Y-95338500D01*
X105649569Y-95338500D01*
X105871635Y-95301444D01*
X106084574Y-95228342D01*
X106282576Y-95121189D01*
X106460240Y-94982906D01*
X106612722Y-94817268D01*
X106735860Y-94628791D01*
X106826296Y-94422616D01*
X106881564Y-94204368D01*
X106900156Y-93980000D01*
X106881564Y-93755632D01*
X106826296Y-93537384D01*
X106735860Y-93331209D01*
X106719706Y-93306484D01*
X106612723Y-93142734D01*
X106612715Y-93142723D01*
X106460243Y-92977097D01*
X106460238Y-92977092D01*
X106282577Y-92838812D01*
X106282577Y-92838811D01*
X106239303Y-92815393D01*
X106189713Y-92766173D01*
X106174605Y-92697957D01*
X106198775Y-92632401D01*
X106227198Y-92604763D01*
X106408079Y-92478108D01*
X106575105Y-92311082D01*
X106710600Y-92117578D01*
X106810429Y-91903492D01*
X106810432Y-91903486D01*
X106867636Y-91690000D01*
X105970686Y-91690000D01*
X105996493Y-91649844D01*
X106037000Y-91511889D01*
X106037000Y-91368111D01*
X105996493Y-91230156D01*
X105970686Y-91190000D01*
X106867636Y-91190000D01*
X106867635Y-91189999D01*
X106810432Y-90976513D01*
X106810429Y-90976507D01*
X106710600Y-90762422D01*
X106710599Y-90762420D01*
X106575113Y-90568926D01*
X106575108Y-90568920D01*
X106408082Y-90401894D01*
X106227197Y-90275236D01*
X106183572Y-90220659D01*
X106176380Y-90151160D01*
X106207902Y-90088806D01*
X106239300Y-90064608D01*
X106282576Y-90041189D01*
X106460240Y-89902906D01*
X106612722Y-89737268D01*
X106735860Y-89548791D01*
X106826296Y-89342616D01*
X106881564Y-89124368D01*
X106900156Y-88900000D01*
X106881564Y-88675632D01*
X106826296Y-88457384D01*
X106735860Y-88251209D01*
X106719706Y-88226484D01*
X106612723Y-88062734D01*
X106612715Y-88062723D01*
X106460243Y-87897097D01*
X106460238Y-87897092D01*
X106282577Y-87758812D01*
X106282578Y-87758812D01*
X106282576Y-87758811D01*
X106246070Y-87739055D01*
X106196479Y-87689836D01*
X106183227Y-87630000D01*
X107544496Y-87630000D01*
X107564458Y-87819928D01*
X107564459Y-87819931D01*
X107623470Y-88001549D01*
X107623473Y-88001556D01*
X107718960Y-88166944D01*
X107846747Y-88308866D01*
X108001248Y-88421118D01*
X108175712Y-88498794D01*
X108362513Y-88538500D01*
X108553487Y-88538500D01*
X108740288Y-88498794D01*
X108914752Y-88421118D01*
X109069253Y-88308866D01*
X109197040Y-88166944D01*
X109292527Y-88001556D01*
X109351542Y-87819928D01*
X109371504Y-87630000D01*
X109351542Y-87440072D01*
X109292527Y-87258444D01*
X109197040Y-87093056D01*
X109069253Y-86951134D01*
X108914752Y-86838882D01*
X108740288Y-86761206D01*
X108740286Y-86761205D01*
X108553487Y-86721500D01*
X108362513Y-86721500D01*
X108175714Y-86761205D01*
X108001246Y-86838883D01*
X107846745Y-86951135D01*
X107718959Y-87093057D01*
X107623473Y-87258443D01*
X107623470Y-87258450D01*
X107565236Y-87437678D01*
X107564458Y-87440072D01*
X107544496Y-87630000D01*
X106183227Y-87630000D01*
X106181371Y-87621619D01*
X106205541Y-87556064D01*
X106246070Y-87520945D01*
X106246084Y-87520936D01*
X106282576Y-87501189D01*
X106460240Y-87362906D01*
X106612722Y-87197268D01*
X106735860Y-87008791D01*
X106826296Y-86802616D01*
X106881564Y-86584368D01*
X106900156Y-86360000D01*
X106881564Y-86135632D01*
X106826296Y-85917384D01*
X106735860Y-85711209D01*
X106612722Y-85522732D01*
X106612719Y-85522729D01*
X106612715Y-85522723D01*
X106460243Y-85357097D01*
X106460238Y-85357092D01*
X106282577Y-85218812D01*
X106282572Y-85218808D01*
X106084580Y-85111661D01*
X106084577Y-85111659D01*
X106084574Y-85111658D01*
X106084571Y-85111657D01*
X106084569Y-85111656D01*
X105871637Y-85038556D01*
X105649569Y-85001500D01*
X105424431Y-85001500D01*
X105202362Y-85038556D01*
X104989430Y-85111656D01*
X104989419Y-85111661D01*
X104791427Y-85218808D01*
X104791422Y-85218812D01*
X104613761Y-85357092D01*
X104550548Y-85425760D01*
X104490661Y-85461750D01*
X104420823Y-85459649D01*
X104363207Y-85420124D01*
X104343138Y-85385110D01*
X104297889Y-85263796D01*
X104264214Y-85218812D01*
X104210261Y-85146739D01*
X104093204Y-85059111D01*
X103956203Y-85008011D01*
X103895654Y-85001500D01*
X103895638Y-85001500D01*
X102098362Y-85001500D01*
X102098345Y-85001500D01*
X102037797Y-85008011D01*
X102037795Y-85008011D01*
X101900795Y-85059111D01*
X101783739Y-85146739D01*
X101696767Y-85262919D01*
X101640833Y-85304790D01*
X101571141Y-85309774D01*
X101509818Y-85276289D01*
X101476334Y-85214965D01*
X101473500Y-85188608D01*
X101473500Y-82867500D01*
X109131996Y-82867500D01*
X109151958Y-83057428D01*
X109151959Y-83057431D01*
X109210970Y-83239049D01*
X109210973Y-83239056D01*
X109306460Y-83404444D01*
X109434247Y-83546366D01*
X109588748Y-83658618D01*
X109763212Y-83736294D01*
X109950013Y-83776000D01*
X110140987Y-83776000D01*
X110327788Y-83736294D01*
X110502252Y-83658618D01*
X110656753Y-83546366D01*
X110784540Y-83404444D01*
X110880027Y-83239056D01*
X110897591Y-83185000D01*
X135611496Y-83185000D01*
X135631458Y-83374928D01*
X135631459Y-83374931D01*
X135690470Y-83556549D01*
X135690473Y-83556556D01*
X135785960Y-83721944D01*
X135913747Y-83863866D01*
X136068248Y-83976118D01*
X136242712Y-84053794D01*
X136429513Y-84093500D01*
X136620487Y-84093500D01*
X136807288Y-84053794D01*
X136981752Y-83976118D01*
X137136253Y-83863866D01*
X137264040Y-83721944D01*
X137359527Y-83556556D01*
X137418542Y-83374928D01*
X137438504Y-83185000D01*
X137418542Y-82995072D01*
X137359527Y-82813444D01*
X137264040Y-82648056D01*
X137136253Y-82506134D01*
X136981752Y-82393882D01*
X136807288Y-82316206D01*
X136807286Y-82316205D01*
X136620487Y-82276500D01*
X136429513Y-82276500D01*
X136242714Y-82316205D01*
X136068246Y-82393883D01*
X135913745Y-82506135D01*
X135785959Y-82648057D01*
X135690473Y-82813443D01*
X135690470Y-82813450D01*
X135632001Y-82993401D01*
X135631458Y-82995072D01*
X135611496Y-83185000D01*
X110897591Y-83185000D01*
X110939042Y-83057428D01*
X110959004Y-82867500D01*
X110939042Y-82677572D01*
X110880027Y-82495944D01*
X110784540Y-82330556D01*
X110664730Y-82197493D01*
X110656754Y-82188635D01*
X110618058Y-82160520D01*
X110502252Y-82076382D01*
X110327788Y-81998706D01*
X110327786Y-81998705D01*
X110140987Y-81959000D01*
X109950013Y-81959000D01*
X109763214Y-81998705D01*
X109588746Y-82076383D01*
X109434245Y-82188635D01*
X109306459Y-82330557D01*
X109210973Y-82495943D01*
X109210970Y-82495950D01*
X109164653Y-82638500D01*
X109151958Y-82677572D01*
X109131996Y-82867500D01*
X101473500Y-82867500D01*
X101473500Y-82366466D01*
X101493185Y-82299427D01*
X101545989Y-82253672D01*
X101615147Y-82243728D01*
X101647934Y-82253186D01*
X101698712Y-82275794D01*
X101885513Y-82315500D01*
X102076487Y-82315500D01*
X102263288Y-82275794D01*
X102437752Y-82198118D01*
X102592253Y-82085866D01*
X102720040Y-81943944D01*
X102815527Y-81778556D01*
X102874542Y-81596928D01*
X102894504Y-81407000D01*
X102874542Y-81217072D01*
X102853724Y-81153000D01*
X103819996Y-81153000D01*
X103839958Y-81342928D01*
X103841942Y-81349035D01*
X103898970Y-81524549D01*
X103898973Y-81524556D01*
X103994460Y-81689944D01*
X104122247Y-81831866D01*
X104276748Y-81944118D01*
X104451212Y-82021794D01*
X104638013Y-82061500D01*
X104828987Y-82061500D01*
X105015788Y-82021794D01*
X105190252Y-81944118D01*
X105344753Y-81831866D01*
X105472540Y-81689944D01*
X105568027Y-81524556D01*
X105627042Y-81342928D01*
X105633655Y-81280005D01*
X112936844Y-81280005D01*
X112955434Y-81504359D01*
X112955436Y-81504371D01*
X113010703Y-81722614D01*
X113101140Y-81928792D01*
X113224276Y-82117265D01*
X113224284Y-82117276D01*
X113376756Y-82282902D01*
X113376760Y-82282906D01*
X113554424Y-82421189D01*
X113554425Y-82421189D01*
X113554427Y-82421191D01*
X113681135Y-82489761D01*
X113752426Y-82528342D01*
X113965365Y-82601444D01*
X114187431Y-82638500D01*
X114412569Y-82638500D01*
X114634635Y-82601444D01*
X114847574Y-82528342D01*
X115045576Y-82421189D01*
X115223240Y-82282906D01*
X115375722Y-82117268D01*
X115498860Y-81928791D01*
X115566757Y-81774001D01*
X122713788Y-81774001D01*
X122732598Y-81989007D01*
X122732600Y-81989018D01*
X122788458Y-82197485D01*
X122788460Y-82197489D01*
X122788461Y-82197493D01*
X122825303Y-82276500D01*
X122879676Y-82393105D01*
X122951685Y-82495944D01*
X123003475Y-82569907D01*
X123156093Y-82722525D01*
X123332894Y-82846323D01*
X123528507Y-82937539D01*
X123736987Y-82993401D01*
X123890567Y-83006837D01*
X123951998Y-83012212D01*
X123952000Y-83012212D01*
X123952002Y-83012212D01*
X124005753Y-83007509D01*
X124167013Y-82993401D01*
X124375493Y-82937539D01*
X124571106Y-82846323D01*
X124747907Y-82722525D01*
X124900525Y-82569907D01*
X125024323Y-82393106D01*
X125115539Y-82197493D01*
X125171401Y-81989013D01*
X125190212Y-81774001D01*
X131353788Y-81774001D01*
X131372598Y-81989007D01*
X131372600Y-81989018D01*
X131428458Y-82197485D01*
X131428460Y-82197489D01*
X131428461Y-82197493D01*
X131465303Y-82276500D01*
X131519676Y-82393105D01*
X131591685Y-82495944D01*
X131643475Y-82569907D01*
X131796093Y-82722525D01*
X131972894Y-82846323D01*
X132168507Y-82937539D01*
X132376987Y-82993401D01*
X132530567Y-83006837D01*
X132591998Y-83012212D01*
X132592000Y-83012212D01*
X132592002Y-83012212D01*
X132645753Y-83007509D01*
X132807013Y-82993401D01*
X133015493Y-82937539D01*
X133211106Y-82846323D01*
X133387907Y-82722525D01*
X133540525Y-82569907D01*
X133664323Y-82393106D01*
X133755539Y-82197493D01*
X133763174Y-82169000D01*
X139421496Y-82169000D01*
X139441458Y-82358928D01*
X139441459Y-82358931D01*
X139500470Y-82540549D01*
X139500473Y-82540556D01*
X139595960Y-82705944D01*
X139610889Y-82722524D01*
X139722357Y-82846323D01*
X139723747Y-82847866D01*
X139878248Y-82960118D01*
X140052712Y-83037794D01*
X140239513Y-83077500D01*
X140430487Y-83077500D01*
X140617288Y-83037794D01*
X140791752Y-82960118D01*
X140946253Y-82847866D01*
X141074040Y-82705944D01*
X141169527Y-82540556D01*
X141211447Y-82411540D01*
X141250883Y-82353867D01*
X141315242Y-82326668D01*
X141384088Y-82338582D01*
X141405539Y-82352006D01*
X141494424Y-82421189D01*
X141494425Y-82421189D01*
X141494427Y-82421191D01*
X141621135Y-82489761D01*
X141692426Y-82528342D01*
X141905365Y-82601444D01*
X142127431Y-82638500D01*
X142352569Y-82638500D01*
X142574635Y-82601444D01*
X142787574Y-82528342D01*
X142985576Y-82421189D01*
X143163240Y-82282906D01*
X143315722Y-82117268D01*
X143438860Y-81928791D01*
X143529296Y-81722616D01*
X143584564Y-81504368D01*
X143584565Y-81504359D01*
X143603156Y-81280005D01*
X143603156Y-81279994D01*
X143584565Y-81055640D01*
X143584563Y-81055628D01*
X143564928Y-80978092D01*
X143529296Y-80837384D01*
X143438860Y-80631209D01*
X143428846Y-80615882D01*
X143352157Y-80498500D01*
X143315722Y-80442732D01*
X143315719Y-80442729D01*
X143315715Y-80442723D01*
X143170510Y-80284991D01*
X143139587Y-80222337D01*
X143147447Y-80152911D01*
X143191594Y-80098755D01*
X143218405Y-80084827D01*
X143298584Y-80054920D01*
X143336204Y-80040889D01*
X143453261Y-79953261D01*
X143540889Y-79836204D01*
X143591989Y-79699201D01*
X143595591Y-79665692D01*
X143598499Y-79638654D01*
X143598500Y-79638637D01*
X143598500Y-79378750D01*
X143618185Y-79311711D01*
X143670989Y-79265956D01*
X143740147Y-79256012D01*
X143748262Y-79257456D01*
X143795513Y-79267500D01*
X143795514Y-79267500D01*
X143986487Y-79267500D01*
X144173288Y-79227794D01*
X144347752Y-79150118D01*
X144502253Y-79037866D01*
X144630040Y-78895944D01*
X144725527Y-78730556D01*
X144784542Y-78548928D01*
X144804504Y-78359000D01*
X144784542Y-78169072D01*
X144725527Y-77987444D01*
X144630040Y-77822056D01*
X144533247Y-77714556D01*
X144502108Y-77679972D01*
X144471878Y-77616980D01*
X144477141Y-77574678D01*
X147814013Y-77574678D01*
X147833975Y-77764606D01*
X147833976Y-77764609D01*
X147892987Y-77946227D01*
X147892990Y-77946234D01*
X147988477Y-78111622D01*
X148058155Y-78189007D01*
X148114423Y-78251500D01*
X148116264Y-78253544D01*
X148270765Y-78365796D01*
X148445229Y-78443472D01*
X148632030Y-78483178D01*
X148823004Y-78483178D01*
X149009805Y-78443472D01*
X149184269Y-78365796D01*
X149338770Y-78253544D01*
X149466557Y-78111622D01*
X149562044Y-77946234D01*
X149621059Y-77764606D01*
X149641021Y-77574678D01*
X149621059Y-77384750D01*
X149562044Y-77203122D01*
X149466557Y-77037734D01*
X149338770Y-76895812D01*
X149184269Y-76783560D01*
X149009805Y-76705884D01*
X149009803Y-76705883D01*
X148823004Y-76666178D01*
X148632030Y-76666178D01*
X148445231Y-76705883D01*
X148270763Y-76783561D01*
X148116262Y-76895813D01*
X147988476Y-77037735D01*
X147892990Y-77203121D01*
X147892987Y-77203128D01*
X147838136Y-77371944D01*
X147833975Y-77384750D01*
X147814013Y-77574678D01*
X144477141Y-77574678D01*
X144480504Y-77547645D01*
X144502108Y-77514028D01*
X144552899Y-77457618D01*
X144630040Y-77371944D01*
X144725527Y-77206556D01*
X144784542Y-77024928D01*
X144804504Y-76835000D01*
X144784542Y-76645072D01*
X144725527Y-76463444D01*
X144630040Y-76298056D01*
X144502253Y-76156134D01*
X144347752Y-76043882D01*
X144173288Y-75966206D01*
X144173286Y-75966205D01*
X143986487Y-75926500D01*
X143795513Y-75926500D01*
X143608714Y-75966205D01*
X143434246Y-76043883D01*
X143279745Y-76156135D01*
X143151959Y-76298057D01*
X143056473Y-76463443D01*
X143056470Y-76463450D01*
X143011940Y-76600500D01*
X142997458Y-76645072D01*
X142977496Y-76835000D01*
X142997458Y-77024928D01*
X142997459Y-77024931D01*
X143056472Y-77206554D01*
X143056696Y-77207057D01*
X143056738Y-77207374D01*
X143058481Y-77212737D01*
X143057500Y-77213055D01*
X143065986Y-77276307D01*
X143036361Y-77339585D01*
X142977228Y-77376802D01*
X142943420Y-77381500D01*
X141341345Y-77381500D01*
X141280797Y-77388011D01*
X141280795Y-77388011D01*
X141143795Y-77439111D01*
X141026739Y-77526739D01*
X140939111Y-77643795D01*
X140888011Y-77780795D01*
X140888011Y-77780797D01*
X140881500Y-77841345D01*
X140881500Y-79638654D01*
X140888011Y-79699202D01*
X140888011Y-79699204D01*
X140939111Y-79836204D01*
X141026739Y-79953261D01*
X141143796Y-80040889D01*
X141195737Y-80060262D01*
X141261595Y-80084827D01*
X141317528Y-80126699D01*
X141341944Y-80192163D01*
X141327092Y-80260436D01*
X141309490Y-80284991D01*
X141164279Y-80442730D01*
X141164276Y-80442734D01*
X141041140Y-80631207D01*
X140950703Y-80837385D01*
X140895436Y-81055628D01*
X140895434Y-81055640D01*
X140880419Y-81236845D01*
X140855266Y-81302030D01*
X140798864Y-81343268D01*
X140729120Y-81347466D01*
X140706411Y-81339886D01*
X140617288Y-81300206D01*
X140617286Y-81300205D01*
X140430487Y-81260500D01*
X140239513Y-81260500D01*
X140052714Y-81300205D01*
X139878246Y-81377883D01*
X139723745Y-81490135D01*
X139595959Y-81632057D01*
X139500473Y-81797443D01*
X139500470Y-81797450D01*
X139441459Y-81979068D01*
X139441458Y-81979072D01*
X139421496Y-82169000D01*
X133763174Y-82169000D01*
X133811401Y-81989013D01*
X133830212Y-81774000D01*
X133811401Y-81558987D01*
X133755539Y-81350507D01*
X133664323Y-81154894D01*
X133540525Y-80978093D01*
X133387907Y-80825475D01*
X133248892Y-80728135D01*
X133211105Y-80701676D01*
X133059987Y-80631209D01*
X133015493Y-80610461D01*
X133015489Y-80610460D01*
X133015485Y-80610458D01*
X132807018Y-80554600D01*
X132807014Y-80554599D01*
X132807013Y-80554599D01*
X132807012Y-80554598D01*
X132807007Y-80554598D01*
X132592002Y-80535788D01*
X132591998Y-80535788D01*
X132376992Y-80554598D01*
X132376981Y-80554600D01*
X132168514Y-80610458D01*
X132168505Y-80610462D01*
X131972894Y-80701676D01*
X131796092Y-80825475D01*
X131643475Y-80978092D01*
X131519676Y-81154894D01*
X131428462Y-81350505D01*
X131428458Y-81350514D01*
X131372600Y-81558981D01*
X131372598Y-81558992D01*
X131353788Y-81773998D01*
X131353788Y-81774001D01*
X125190212Y-81774001D01*
X125190212Y-81774000D01*
X125171401Y-81558987D01*
X125115539Y-81350507D01*
X125024323Y-81154894D01*
X124900525Y-80978093D01*
X124747907Y-80825475D01*
X124608892Y-80728135D01*
X124571105Y-80701676D01*
X124419987Y-80631209D01*
X124375493Y-80610461D01*
X124375489Y-80610460D01*
X124375485Y-80610458D01*
X124167018Y-80554600D01*
X124167014Y-80554599D01*
X124167013Y-80554599D01*
X124167012Y-80554598D01*
X124167007Y-80554598D01*
X123952002Y-80535788D01*
X123951998Y-80535788D01*
X123736992Y-80554598D01*
X123736981Y-80554600D01*
X123528514Y-80610458D01*
X123528505Y-80610462D01*
X123332894Y-80701676D01*
X123156092Y-80825475D01*
X123003475Y-80978092D01*
X122879676Y-81154894D01*
X122788462Y-81350505D01*
X122788458Y-81350514D01*
X122732600Y-81558981D01*
X122732598Y-81558992D01*
X122713788Y-81773998D01*
X122713788Y-81774001D01*
X115566757Y-81774001D01*
X115589296Y-81722616D01*
X115644564Y-81504368D01*
X115644565Y-81504359D01*
X115663156Y-81280005D01*
X115663156Y-81279994D01*
X115644565Y-81055640D01*
X115644563Y-81055628D01*
X115624928Y-80978092D01*
X115589296Y-80837384D01*
X115498860Y-80631209D01*
X115488846Y-80615882D01*
X115412157Y-80498500D01*
X115375722Y-80442732D01*
X115375719Y-80442729D01*
X115375715Y-80442723D01*
X115230510Y-80284991D01*
X115199587Y-80222337D01*
X115207447Y-80152911D01*
X115251594Y-80098755D01*
X115278405Y-80084827D01*
X115358584Y-80054920D01*
X115396204Y-80040889D01*
X115513261Y-79953261D01*
X115600889Y-79836204D01*
X115651989Y-79699201D01*
X115655591Y-79665692D01*
X115658499Y-79638654D01*
X115658500Y-79638637D01*
X115658500Y-77841362D01*
X115658499Y-77841345D01*
X115654720Y-77806206D01*
X115651989Y-77780799D01*
X115645950Y-77764609D01*
X115623531Y-77704500D01*
X115600889Y-77643796D01*
X115513261Y-77526739D01*
X115396204Y-77439111D01*
X115259203Y-77388011D01*
X115198654Y-77381500D01*
X115198638Y-77381500D01*
X113401362Y-77381500D01*
X113401345Y-77381500D01*
X113340797Y-77388011D01*
X113340795Y-77388011D01*
X113203795Y-77439111D01*
X113086739Y-77526739D01*
X112999111Y-77643795D01*
X112948011Y-77780795D01*
X112948011Y-77780797D01*
X112941500Y-77841345D01*
X112941500Y-79638654D01*
X112948011Y-79699202D01*
X112948011Y-79699204D01*
X112999111Y-79836204D01*
X113086739Y-79953261D01*
X113203796Y-80040889D01*
X113255737Y-80060262D01*
X113321595Y-80084827D01*
X113377528Y-80126699D01*
X113401944Y-80192163D01*
X113387092Y-80260436D01*
X113369490Y-80284991D01*
X113224279Y-80442730D01*
X113224276Y-80442734D01*
X113101140Y-80631207D01*
X113010703Y-80837385D01*
X112955436Y-81055628D01*
X112955434Y-81055640D01*
X112936844Y-81279994D01*
X112936844Y-81280005D01*
X105633655Y-81280005D01*
X105647004Y-81153000D01*
X105627042Y-80963072D01*
X105568027Y-80781444D01*
X105472540Y-80616056D01*
X105344753Y-80474134D01*
X105190252Y-80361882D01*
X105015788Y-80284206D01*
X105015786Y-80284205D01*
X104828987Y-80244500D01*
X104638013Y-80244500D01*
X104451214Y-80284205D01*
X104276746Y-80361883D01*
X104122245Y-80474135D01*
X103994459Y-80616057D01*
X103898973Y-80781443D01*
X103898970Y-80781450D01*
X103839959Y-80963068D01*
X103839958Y-80963072D01*
X103819996Y-81153000D01*
X102853724Y-81153000D01*
X102815527Y-81035444D01*
X102720040Y-80870056D01*
X102592253Y-80728134D01*
X102437752Y-80615882D01*
X102263288Y-80538206D01*
X102263286Y-80538205D01*
X102076487Y-80498500D01*
X101885513Y-80498500D01*
X101698713Y-80538205D01*
X101698710Y-80538206D01*
X101647934Y-80560813D01*
X101578684Y-80570097D01*
X101515408Y-80540468D01*
X101478195Y-80481332D01*
X101473500Y-80447533D01*
X101473500Y-77343000D01*
X118847496Y-77343000D01*
X118867458Y-77532928D01*
X118867459Y-77532931D01*
X118926470Y-77714549D01*
X118926473Y-77714556D01*
X119021960Y-77879944D01*
X119149747Y-78021866D01*
X119304248Y-78134118D01*
X119478712Y-78211794D01*
X119665513Y-78251500D01*
X119856487Y-78251500D01*
X120043288Y-78211794D01*
X120217752Y-78134118D01*
X120372253Y-78021866D01*
X120500040Y-77879944D01*
X120500043Y-77879939D01*
X120542613Y-77806206D01*
X120593179Y-77757990D01*
X120661786Y-77744766D01*
X120726651Y-77770734D01*
X120757387Y-77806206D01*
X120799956Y-77879939D01*
X120799958Y-77879942D01*
X120884647Y-77973998D01*
X120927747Y-78021866D01*
X121082248Y-78134118D01*
X121256712Y-78211794D01*
X121443513Y-78251500D01*
X121634487Y-78251500D01*
X121821288Y-78211794D01*
X121995752Y-78134118D01*
X122150253Y-78021866D01*
X122193351Y-77974001D01*
X122713788Y-77974001D01*
X122732598Y-78189007D01*
X122732600Y-78189018D01*
X122788458Y-78397485D01*
X122788460Y-78397489D01*
X122788461Y-78397493D01*
X122821967Y-78469346D01*
X122879676Y-78593105D01*
X122879677Y-78593106D01*
X123003475Y-78769907D01*
X123156093Y-78922525D01*
X123332894Y-79046323D01*
X123528507Y-79137539D01*
X123528513Y-79137540D01*
X123528514Y-79137541D01*
X123578690Y-79150985D01*
X123736987Y-79193401D01*
X123890567Y-79206837D01*
X123951998Y-79212212D01*
X123952000Y-79212212D01*
X123952002Y-79212212D01*
X124005753Y-79207509D01*
X124167013Y-79193401D01*
X124375493Y-79137539D01*
X124571106Y-79046323D01*
X124747907Y-78922525D01*
X124900525Y-78769907D01*
X125010393Y-78613000D01*
X126467496Y-78613000D01*
X126487458Y-78802928D01*
X126487459Y-78802931D01*
X126546470Y-78984549D01*
X126546473Y-78984556D01*
X126641960Y-79149944D01*
X126769747Y-79291866D01*
X126924248Y-79404118D01*
X127098712Y-79481794D01*
X127285513Y-79521500D01*
X127476487Y-79521500D01*
X127663288Y-79481794D01*
X127837752Y-79404118D01*
X127992253Y-79291866D01*
X128120040Y-79149944D01*
X128215527Y-78984556D01*
X128274542Y-78802928D01*
X128294504Y-78613000D01*
X128274542Y-78423072D01*
X128215527Y-78241444D01*
X128120040Y-78076056D01*
X128028149Y-77974001D01*
X131353788Y-77974001D01*
X131372598Y-78189007D01*
X131372600Y-78189018D01*
X131428458Y-78397485D01*
X131428460Y-78397489D01*
X131428461Y-78397493D01*
X131461967Y-78469346D01*
X131519676Y-78593105D01*
X131519677Y-78593106D01*
X131643475Y-78769907D01*
X131796093Y-78922525D01*
X131972894Y-79046323D01*
X132168507Y-79137539D01*
X132168513Y-79137540D01*
X132168514Y-79137541D01*
X132218690Y-79150985D01*
X132376987Y-79193401D01*
X132530567Y-79206837D01*
X132591998Y-79212212D01*
X132592000Y-79212212D01*
X132592002Y-79212212D01*
X132645753Y-79207509D01*
X132807013Y-79193401D01*
X133015493Y-79137539D01*
X133211106Y-79046323D01*
X133387907Y-78922525D01*
X133540525Y-78769907D01*
X133664323Y-78593106D01*
X133722033Y-78469345D01*
X133768205Y-78416906D01*
X133835398Y-78397754D01*
X133902280Y-78417970D01*
X133907297Y-78421429D01*
X134036248Y-78515118D01*
X134210712Y-78592794D01*
X134397513Y-78632500D01*
X134588487Y-78632500D01*
X134775288Y-78592794D01*
X134949752Y-78515118D01*
X135104253Y-78402866D01*
X135232040Y-78260944D01*
X135327527Y-78095556D01*
X135386542Y-77913928D01*
X135406504Y-77724000D01*
X135386542Y-77534072D01*
X135327527Y-77352444D01*
X135232040Y-77187056D01*
X135104253Y-77045134D01*
X134949752Y-76932882D01*
X134775288Y-76855206D01*
X134775286Y-76855205D01*
X134588487Y-76815500D01*
X134397513Y-76815500D01*
X134210714Y-76855205D01*
X134036246Y-76932883D01*
X133881745Y-77045135D01*
X133753956Y-77187060D01*
X133750642Y-77191621D01*
X133695308Y-77234281D01*
X133625694Y-77240254D01*
X133563902Y-77207642D01*
X133548757Y-77189849D01*
X133540525Y-77178093D01*
X133387907Y-77025475D01*
X133255671Y-76932882D01*
X133211105Y-76901676D01*
X133111447Y-76855205D01*
X133015493Y-76810461D01*
X133015489Y-76810460D01*
X133015485Y-76810458D01*
X132807018Y-76754600D01*
X132807014Y-76754599D01*
X132807013Y-76754599D01*
X132807012Y-76754598D01*
X132807007Y-76754598D01*
X132592002Y-76735788D01*
X132591998Y-76735788D01*
X132376992Y-76754598D01*
X132376981Y-76754600D01*
X132168514Y-76810458D01*
X132168505Y-76810462D01*
X131972894Y-76901676D01*
X131796092Y-77025475D01*
X131643475Y-77178092D01*
X131519676Y-77354894D01*
X131428462Y-77550505D01*
X131428458Y-77550514D01*
X131372600Y-77758981D01*
X131372598Y-77758992D01*
X131353788Y-77973998D01*
X131353788Y-77974001D01*
X128028149Y-77974001D01*
X127992253Y-77934134D01*
X127837752Y-77821882D01*
X127663288Y-77744206D01*
X127663286Y-77744205D01*
X127476487Y-77704500D01*
X127285513Y-77704500D01*
X127098714Y-77744205D01*
X126924246Y-77821883D01*
X126769745Y-77934135D01*
X126641959Y-78076057D01*
X126546473Y-78241443D01*
X126546470Y-78241450D01*
X126487991Y-78421432D01*
X126487458Y-78423072D01*
X126467496Y-78613000D01*
X125010393Y-78613000D01*
X125024323Y-78593106D01*
X125115539Y-78397493D01*
X125171401Y-78189013D01*
X125190212Y-77974000D01*
X125171401Y-77758987D01*
X125115539Y-77550507D01*
X125024323Y-77354894D01*
X124900525Y-77178093D01*
X124747907Y-77025475D01*
X124615671Y-76932882D01*
X124571105Y-76901676D01*
X124471447Y-76855205D01*
X124375493Y-76810461D01*
X124375489Y-76810460D01*
X124375485Y-76810458D01*
X124167018Y-76754600D01*
X124167014Y-76754599D01*
X124167013Y-76754599D01*
X124167012Y-76754598D01*
X124167007Y-76754598D01*
X123952002Y-76735788D01*
X123951998Y-76735788D01*
X123736992Y-76754598D01*
X123736981Y-76754600D01*
X123528514Y-76810458D01*
X123528505Y-76810462D01*
X123332894Y-76901676D01*
X123156092Y-77025475D01*
X123003475Y-77178092D01*
X122879676Y-77354894D01*
X122788462Y-77550505D01*
X122788458Y-77550514D01*
X122732600Y-77758981D01*
X122732598Y-77758992D01*
X122713788Y-77973998D01*
X122713788Y-77974001D01*
X122193351Y-77974001D01*
X122278040Y-77879944D01*
X122373527Y-77714556D01*
X122432542Y-77532928D01*
X122452504Y-77343000D01*
X122432542Y-77153072D01*
X122373527Y-76971444D01*
X122278040Y-76806056D01*
X122152383Y-76666500D01*
X137135496Y-76666500D01*
X137155458Y-76856428D01*
X137155459Y-76856431D01*
X137214470Y-77038049D01*
X137214473Y-77038056D01*
X137309960Y-77203444D01*
X137337726Y-77234281D01*
X137435616Y-77343000D01*
X137437747Y-77345366D01*
X137592248Y-77457618D01*
X137766712Y-77535294D01*
X137953513Y-77575000D01*
X138144487Y-77575000D01*
X138331288Y-77535294D01*
X138505752Y-77457618D01*
X138660253Y-77345366D01*
X138788040Y-77203444D01*
X138883527Y-77038056D01*
X138942542Y-76856428D01*
X138962504Y-76666500D01*
X138942542Y-76476572D01*
X138887495Y-76307158D01*
X138883529Y-76294950D01*
X138883528Y-76294949D01*
X138883527Y-76294944D01*
X138788040Y-76129556D01*
X138660253Y-75987634D01*
X138505752Y-75875382D01*
X138331288Y-75797706D01*
X138331286Y-75797705D01*
X138144487Y-75758000D01*
X137953513Y-75758000D01*
X137766714Y-75797705D01*
X137592246Y-75875383D01*
X137437745Y-75987635D01*
X137309959Y-76129557D01*
X137214473Y-76294943D01*
X137214470Y-76294950D01*
X137155459Y-76476568D01*
X137155458Y-76476572D01*
X137135496Y-76666500D01*
X122152383Y-76666500D01*
X122150254Y-76664135D01*
X122124017Y-76645072D01*
X121995752Y-76551882D01*
X121821288Y-76474206D01*
X121821286Y-76474205D01*
X121634487Y-76434500D01*
X121443513Y-76434500D01*
X121256714Y-76474205D01*
X121082246Y-76551883D01*
X120927745Y-76664135D01*
X120799959Y-76806057D01*
X120757387Y-76879794D01*
X120706820Y-76928010D01*
X120638213Y-76941233D01*
X120573348Y-76915265D01*
X120542613Y-76879794D01*
X120516751Y-76835000D01*
X120500040Y-76806056D01*
X120374383Y-76666500D01*
X120372254Y-76664135D01*
X120346017Y-76645072D01*
X120217752Y-76551882D01*
X120043288Y-76474206D01*
X120043286Y-76474205D01*
X119856487Y-76434500D01*
X119665513Y-76434500D01*
X119478714Y-76474205D01*
X119304246Y-76551883D01*
X119149745Y-76664135D01*
X119021959Y-76806057D01*
X118926473Y-76971443D01*
X118926470Y-76971450D01*
X118872000Y-77139093D01*
X118867458Y-77153072D01*
X118847496Y-77343000D01*
X101473500Y-77343000D01*
X101473500Y-75308500D01*
X101493185Y-75241461D01*
X101545989Y-75195706D01*
X101597500Y-75184500D01*
X140643972Y-75184500D01*
X140711011Y-75204185D01*
G37*
%TD.AperFunction*%
%TD*%
M02*
