%TF.GenerationSoftware,KiCad,Pcbnew,7.0.9*%
%TF.CreationDate,2024-01-09T18:55:52-07:00*%
%TF.ProjectId,Breadboard Power Supply,42726561-6462-46f6-9172-6420506f7765,v10*%
%TF.SameCoordinates,Original*%
%TF.FileFunction,Copper,L3,Inr*%
%TF.FilePolarity,Positive*%
%FSLAX46Y46*%
G04 Gerber Fmt 4.6, Leading zero omitted, Abs format (unit mm)*
G04 Created by KiCad (PCBNEW 7.0.9) date 2024-01-09 18:55:52*
%MOMM*%
%LPD*%
G01*
G04 APERTURE LIST*
%TA.AperFunction,ComponentPad*%
%ADD10R,1.700000X1.700000*%
%TD*%
%TA.AperFunction,ComponentPad*%
%ADD11O,1.700000X1.700000*%
%TD*%
%TA.AperFunction,ComponentPad*%
%ADD12C,1.450000*%
%TD*%
%TA.AperFunction,ComponentPad*%
%ADD13C,1.830000*%
%TD*%
%TA.AperFunction,ViaPad*%
%ADD14C,0.800000*%
%TD*%
G04 APERTURE END LIST*
D10*
%TO.N,+1V8*%
%TO.C,J4*%
X151003000Y-86360000D03*
D11*
%TO.N,/TOP_POWER_RAIL*%
X153543000Y-86360000D03*
%TO.N,+3.3V*%
X151003000Y-88900000D03*
%TO.N,/TOP_POWER_RAIL*%
X153543000Y-88900000D03*
%TO.N,VBUS*%
X151003000Y-91440000D03*
%TO.N,/TOP_POWER_RAIL*%
X153543000Y-91440000D03*
%TO.N,+12V*%
X151003000Y-93980000D03*
%TO.N,/TOP_POWER_RAIL*%
X153543000Y-93980000D03*
%TD*%
D12*
%TO.N,GND*%
%TO.C,J1*%
X132592000Y-77974000D03*
X123952000Y-77974000D03*
X132592000Y-81774000D03*
X123952000Y-81774000D03*
%TD*%
D10*
%TO.N,/BOTTOM_POWER_RAIL*%
%TO.C,J5*%
X102997000Y-86360000D03*
D11*
%TO.N,+1V8*%
X105537000Y-86360000D03*
%TO.N,/BOTTOM_POWER_RAIL*%
X102997000Y-88900000D03*
%TO.N,+3.3V*%
X105537000Y-88900000D03*
%TO.N,/BOTTOM_POWER_RAIL*%
X102997000Y-91440000D03*
%TO.N,VBUS*%
X105537000Y-91440000D03*
%TO.N,/BOTTOM_POWER_RAIL*%
X102997000Y-93980000D03*
%TO.N,+12V*%
X105537000Y-93980000D03*
%TD*%
D13*
%TO.N,GND*%
%TO.C,TP1*%
X103759000Y-102638000D03*
X108839000Y-102638000D03*
%TD*%
%TO.N,GND*%
%TO.C,TP4*%
X147701000Y-102638000D03*
X152781000Y-102638000D03*
%TD*%
D10*
%TO.N,GND*%
%TO.C,J10*%
X114300000Y-78740000D03*
D11*
X114300000Y-81280000D03*
%TD*%
D10*
%TO.N,/TOP_POWER_RAIL*%
%TO.C,J8*%
X151765000Y-99060000D03*
D11*
%TO.N,GND*%
X149225000Y-99060000D03*
%TD*%
D10*
%TO.N,GND*%
%TO.C,J11*%
X142240000Y-78740000D03*
D11*
X142240000Y-81280000D03*
%TD*%
D10*
%TO.N,/BOTTOM_POWER_RAIL*%
%TO.C,J9*%
X107315000Y-99060000D03*
D11*
%TO.N,GND*%
X104775000Y-99060000D03*
%TD*%
D14*
%TO.N,GND*%
X136525000Y-83185000D03*
X104733500Y-81153000D03*
X119761000Y-77343000D03*
X101981000Y-81407000D03*
X143891000Y-76835000D03*
X140335000Y-82169000D03*
X138049000Y-76666500D03*
X134493000Y-77724000D03*
X110045500Y-82867500D03*
X127381000Y-78613000D03*
%TO.N,+3.3V*%
X143891000Y-78359000D03*
%TO.N,+1V8*%
X141605000Y-75692000D03*
%TO.N,Net-(U2-ADJ)*%
X148727517Y-77574678D03*
%TO.N,+12V*%
X108458000Y-87630000D03*
%TO.N,Net-(D2-A2)*%
X121539000Y-77343000D03*
%TO.N,VBUS*%
X129866751Y-83088500D03*
X138367783Y-81123986D03*
X107315000Y-85344000D03*
X148971000Y-80645000D03*
X107315000Y-79375000D03*
X143891000Y-82423000D03*
X127127000Y-83185000D03*
X107569000Y-76581000D03*
X123534471Y-79230971D03*
X118237000Y-82423000D03*
X119761000Y-82169000D03*
%TD*%
%TA.AperFunction,Conductor*%
%TO.N,GND*%
G36*
X142490000Y-80844498D02*
G01*
X142382315Y-80795320D01*
X142275763Y-80780000D01*
X142204237Y-80780000D01*
X142097685Y-80795320D01*
X141990000Y-80844498D01*
X141990000Y-79175501D01*
X142097685Y-79224680D01*
X142204237Y-79240000D01*
X142275763Y-79240000D01*
X142382315Y-79224680D01*
X142490000Y-79175501D01*
X142490000Y-80844498D01*
G37*
%TD.AperFunction*%
%TA.AperFunction,Conductor*%
G36*
X114550000Y-80844498D02*
G01*
X114442315Y-80795320D01*
X114335763Y-80780000D01*
X114264237Y-80780000D01*
X114157685Y-80795320D01*
X114050000Y-80844498D01*
X114050000Y-79175501D01*
X114157685Y-79224680D01*
X114264237Y-79240000D01*
X114335763Y-79240000D01*
X114442315Y-79224680D01*
X114550000Y-79175501D01*
X114550000Y-80844498D01*
G37*
%TD.AperFunction*%
%TA.AperFunction,Conductor*%
G36*
X140711011Y-75204185D02*
G01*
X140756766Y-75256989D01*
X140766710Y-75326147D01*
X140761903Y-75346818D01*
X140711458Y-75502072D01*
X140691496Y-75692000D01*
X140711458Y-75881928D01*
X140711459Y-75881931D01*
X140770470Y-76063549D01*
X140770473Y-76063556D01*
X140865960Y-76228944D01*
X140993747Y-76370866D01*
X141148248Y-76483118D01*
X141322712Y-76560794D01*
X141509513Y-76600500D01*
X141700487Y-76600500D01*
X141887288Y-76560794D01*
X142061752Y-76483118D01*
X142216253Y-76370866D01*
X142344040Y-76228944D01*
X142439527Y-76063556D01*
X142498542Y-75881928D01*
X142518504Y-75692000D01*
X142498542Y-75502072D01*
X142448097Y-75346818D01*
X142446102Y-75276977D01*
X142482182Y-75217144D01*
X142544883Y-75186316D01*
X142566028Y-75184500D01*
X154942500Y-75184500D01*
X155009539Y-75204185D01*
X155055294Y-75256989D01*
X155066500Y-75308500D01*
X155066500Y-85859932D01*
X155046815Y-85926971D01*
X154994011Y-85972726D01*
X154924853Y-85982670D01*
X154861297Y-85953645D01*
X154828944Y-85909742D01*
X154741859Y-85711207D01*
X154680291Y-85616970D01*
X154618722Y-85522732D01*
X154618719Y-85522729D01*
X154618715Y-85522723D01*
X154466243Y-85357097D01*
X154466238Y-85357092D01*
X154288577Y-85218812D01*
X154288572Y-85218808D01*
X154090580Y-85111661D01*
X154090577Y-85111659D01*
X154090574Y-85111658D01*
X154090571Y-85111657D01*
X154090569Y-85111656D01*
X153877637Y-85038556D01*
X153655569Y-85001500D01*
X153430431Y-85001500D01*
X153208362Y-85038556D01*
X152995430Y-85111656D01*
X152995419Y-85111661D01*
X152797427Y-85218808D01*
X152797422Y-85218812D01*
X152619761Y-85357092D01*
X152556548Y-85425760D01*
X152496661Y-85461750D01*
X152426823Y-85459649D01*
X152369207Y-85420124D01*
X152349138Y-85385110D01*
X152303889Y-85263796D01*
X152270214Y-85218812D01*
X152216261Y-85146739D01*
X152099204Y-85059111D01*
X151962203Y-85008011D01*
X151901654Y-85001500D01*
X151901638Y-85001500D01*
X150104362Y-85001500D01*
X150104345Y-85001500D01*
X150043797Y-85008011D01*
X150043795Y-85008011D01*
X149906795Y-85059111D01*
X149789739Y-85146739D01*
X149702111Y-85263795D01*
X149651011Y-85400795D01*
X149651011Y-85400797D01*
X149644500Y-85461345D01*
X149644500Y-87258654D01*
X149651011Y-87319202D01*
X149651011Y-87319204D01*
X149696094Y-87440072D01*
X149702111Y-87456204D01*
X149789739Y-87573261D01*
X149906796Y-87660889D01*
X149958737Y-87680262D01*
X150024595Y-87704827D01*
X150080528Y-87746699D01*
X150104944Y-87812163D01*
X150090092Y-87880436D01*
X150072490Y-87904991D01*
X149927279Y-88062730D01*
X149927276Y-88062734D01*
X149804140Y-88251207D01*
X149713703Y-88457385D01*
X149658436Y-88675628D01*
X149658434Y-88675640D01*
X149639844Y-88899994D01*
X149639844Y-88900005D01*
X149658434Y-89124359D01*
X149658436Y-89124371D01*
X149713703Y-89342614D01*
X149804140Y-89548792D01*
X149927276Y-89737265D01*
X149927284Y-89737276D01*
X150079756Y-89902902D01*
X150079760Y-89902906D01*
X150257424Y-90041189D01*
X150257429Y-90041191D01*
X150257431Y-90041193D01*
X150293930Y-90060946D01*
X150343520Y-90110165D01*
X150358628Y-90178382D01*
X150334457Y-90243937D01*
X150293930Y-90279054D01*
X150257431Y-90298806D01*
X150257422Y-90298812D01*
X150079761Y-90437092D01*
X150079756Y-90437097D01*
X149927284Y-90602723D01*
X149927276Y-90602734D01*
X149804140Y-90791207D01*
X149713703Y-90997385D01*
X149658436Y-91215628D01*
X149658434Y-91215640D01*
X149639844Y-91439994D01*
X149639844Y-91440005D01*
X149658434Y-91664359D01*
X149658436Y-91664371D01*
X149713703Y-91882614D01*
X149804140Y-92088792D01*
X149927276Y-92277265D01*
X149927284Y-92277276D01*
X150079756Y-92442902D01*
X150079760Y-92442906D01*
X150257424Y-92581189D01*
X150257429Y-92581191D01*
X150257431Y-92581193D01*
X150293930Y-92600946D01*
X150343520Y-92650165D01*
X150358628Y-92718382D01*
X150334457Y-92783937D01*
X150293930Y-92819054D01*
X150257431Y-92838806D01*
X150257422Y-92838812D01*
X150079761Y-92977092D01*
X150079756Y-92977097D01*
X149927284Y-93142723D01*
X149927276Y-93142734D01*
X149804140Y-93331207D01*
X149713703Y-93537385D01*
X149658436Y-93755628D01*
X149658434Y-93755640D01*
X149639844Y-93979994D01*
X149639844Y-93980005D01*
X149658434Y-94204359D01*
X149658436Y-94204371D01*
X149713703Y-94422614D01*
X149804140Y-94628792D01*
X149927276Y-94817265D01*
X149927284Y-94817276D01*
X150079756Y-94982902D01*
X150079760Y-94982906D01*
X150257424Y-95121189D01*
X150257425Y-95121189D01*
X150257427Y-95121191D01*
X150384135Y-95189761D01*
X150455426Y-95228342D01*
X150668365Y-95301444D01*
X150890431Y-95338500D01*
X151115569Y-95338500D01*
X151337635Y-95301444D01*
X151550574Y-95228342D01*
X151748576Y-95121189D01*
X151926240Y-94982906D01*
X152078722Y-94817268D01*
X152169193Y-94678790D01*
X152222338Y-94633437D01*
X152291569Y-94624013D01*
X152354905Y-94653515D01*
X152376804Y-94678787D01*
X152467278Y-94817268D01*
X152467283Y-94817273D01*
X152467284Y-94817276D01*
X152619756Y-94982902D01*
X152619760Y-94982906D01*
X152797424Y-95121189D01*
X152797425Y-95121189D01*
X152797427Y-95121191D01*
X152924135Y-95189761D01*
X152995426Y-95228342D01*
X153208365Y-95301444D01*
X153430431Y-95338500D01*
X153655569Y-95338500D01*
X153877635Y-95301444D01*
X154090574Y-95228342D01*
X154288576Y-95121189D01*
X154466240Y-94982906D01*
X154618722Y-94817268D01*
X154741860Y-94628791D01*
X154828944Y-94430256D01*
X154873900Y-94376771D01*
X154940635Y-94356081D01*
X155007963Y-94374755D01*
X155054507Y-94426865D01*
X155066500Y-94480067D01*
X155066500Y-103888500D01*
X155046815Y-103955539D01*
X154994011Y-104001294D01*
X154942500Y-104012500D01*
X153680002Y-104012500D01*
X153612963Y-103992815D01*
X153567208Y-103940011D01*
X153557264Y-103870853D01*
X153586289Y-103807297D01*
X153590336Y-103803457D01*
X153590486Y-103801039D01*
X152997714Y-103208267D01*
X153077205Y-103176795D01*
X153201892Y-103086205D01*
X153300133Y-102967452D01*
X153352570Y-102856017D01*
X153943023Y-103446471D01*
X154029718Y-103313777D01*
X154029723Y-103313769D01*
X154123918Y-103099025D01*
X154181485Y-102871696D01*
X154200850Y-102638005D01*
X154200850Y-102637994D01*
X154181485Y-102404303D01*
X154123918Y-102176974D01*
X154029723Y-101962230D01*
X154029718Y-101962222D01*
X153943023Y-101829527D01*
X153351802Y-102420748D01*
X153337331Y-102376210D01*
X153254749Y-102246081D01*
X153142399Y-102140578D01*
X153007341Y-102066329D01*
X153000798Y-102064649D01*
X153590487Y-101474959D01*
X153590487Y-101474958D01*
X153557585Y-101449350D01*
X153351348Y-101337739D01*
X153351339Y-101337736D01*
X153129555Y-101261597D01*
X152898250Y-101223000D01*
X152663750Y-101223000D01*
X152432444Y-101261597D01*
X152210660Y-101337736D01*
X152210651Y-101337739D01*
X152004413Y-101449350D01*
X152004407Y-101449354D01*
X151971512Y-101474957D01*
X151971512Y-101474959D01*
X152564285Y-102067732D01*
X152484795Y-102099205D01*
X152360108Y-102189795D01*
X152261867Y-102308548D01*
X152209430Y-102419982D01*
X151618975Y-101829527D01*
X151532277Y-101962229D01*
X151438081Y-102176974D01*
X151380514Y-102404303D01*
X151361150Y-102637994D01*
X151361150Y-102638005D01*
X151380514Y-102871696D01*
X151438081Y-103099025D01*
X151532279Y-103313775D01*
X151618975Y-103446471D01*
X152210197Y-102855249D01*
X152224669Y-102899790D01*
X152307251Y-103029919D01*
X152419601Y-103135422D01*
X152554659Y-103209671D01*
X152561201Y-103211350D01*
X151971511Y-103801039D01*
X151972066Y-103809970D01*
X151998973Y-103847358D01*
X152002646Y-103917131D01*
X151968015Y-103977814D01*
X151906073Y-104010140D01*
X151881997Y-104012500D01*
X148600002Y-104012500D01*
X148532963Y-103992815D01*
X148487208Y-103940011D01*
X148477264Y-103870853D01*
X148506289Y-103807297D01*
X148510336Y-103803457D01*
X148510486Y-103801039D01*
X147917714Y-103208267D01*
X147997205Y-103176795D01*
X148121892Y-103086205D01*
X148220133Y-102967452D01*
X148272570Y-102856017D01*
X148863023Y-103446471D01*
X148949718Y-103313777D01*
X148949723Y-103313769D01*
X149043918Y-103099025D01*
X149101485Y-102871696D01*
X149120850Y-102638005D01*
X149120850Y-102637994D01*
X149101485Y-102404303D01*
X149043918Y-102176974D01*
X148949723Y-101962230D01*
X148949718Y-101962222D01*
X148863023Y-101829527D01*
X148271802Y-102420748D01*
X148257331Y-102376210D01*
X148174749Y-102246081D01*
X148062399Y-102140578D01*
X147927341Y-102066329D01*
X147920798Y-102064649D01*
X148510487Y-101474959D01*
X148510487Y-101474958D01*
X148477585Y-101449350D01*
X148271348Y-101337739D01*
X148271339Y-101337736D01*
X148049555Y-101261597D01*
X147818250Y-101223000D01*
X147583750Y-101223000D01*
X147352444Y-101261597D01*
X147130660Y-101337736D01*
X147130651Y-101337739D01*
X146924413Y-101449350D01*
X146924407Y-101449354D01*
X146891512Y-101474957D01*
X146891512Y-101474959D01*
X147484285Y-102067732D01*
X147404795Y-102099205D01*
X147280108Y-102189795D01*
X147181867Y-102308548D01*
X147129430Y-102419982D01*
X146538975Y-101829527D01*
X146452277Y-101962229D01*
X146358081Y-102176974D01*
X146300514Y-102404303D01*
X146281150Y-102637994D01*
X146281150Y-102638005D01*
X146300514Y-102871696D01*
X146358081Y-103099025D01*
X146452279Y-103313775D01*
X146538975Y-103446471D01*
X147130197Y-102855249D01*
X147144669Y-102899790D01*
X147227251Y-103029919D01*
X147339601Y-103135422D01*
X147474659Y-103209671D01*
X147481201Y-103211350D01*
X146891511Y-103801039D01*
X146892066Y-103809970D01*
X146918973Y-103847358D01*
X146922646Y-103917131D01*
X146888015Y-103977814D01*
X146826073Y-104010140D01*
X146801997Y-104012500D01*
X145920500Y-104012500D01*
X145853461Y-103992815D01*
X145807706Y-103940011D01*
X145796500Y-103888500D01*
X145796500Y-99310000D01*
X147894364Y-99310000D01*
X147951567Y-99523486D01*
X147951570Y-99523492D01*
X148051399Y-99737578D01*
X148186894Y-99931082D01*
X148353917Y-100098105D01*
X148547421Y-100233600D01*
X148761507Y-100333429D01*
X148761516Y-100333433D01*
X148975000Y-100390634D01*
X148975000Y-99495501D01*
X149082685Y-99544680D01*
X149189237Y-99560000D01*
X149260763Y-99560000D01*
X149367315Y-99544680D01*
X149475000Y-99495501D01*
X149475000Y-100390633D01*
X149688483Y-100333433D01*
X149688492Y-100333429D01*
X149902578Y-100233600D01*
X150096078Y-100098108D01*
X150211914Y-99982272D01*
X150273237Y-99948787D01*
X150342929Y-99953771D01*
X150398863Y-99995642D01*
X150415777Y-100026619D01*
X150464110Y-100156203D01*
X150464111Y-100156204D01*
X150551739Y-100273261D01*
X150668796Y-100360889D01*
X150805799Y-100411989D01*
X150833050Y-100414918D01*
X150866345Y-100418499D01*
X150866362Y-100418500D01*
X152663638Y-100418500D01*
X152663654Y-100418499D01*
X152690692Y-100415591D01*
X152724201Y-100411989D01*
X152861204Y-100360889D01*
X152978261Y-100273261D01*
X153065889Y-100156204D01*
X153116989Y-100019201D01*
X153120959Y-99982272D01*
X153123499Y-99958654D01*
X153123500Y-99958637D01*
X153123500Y-98161362D01*
X153123499Y-98161345D01*
X153120157Y-98130270D01*
X153116989Y-98100799D01*
X153114222Y-98093381D01*
X153087559Y-98021894D01*
X153065889Y-97963796D01*
X152978261Y-97846739D01*
X152861204Y-97759111D01*
X152724203Y-97708011D01*
X152663654Y-97701500D01*
X152663638Y-97701500D01*
X150866362Y-97701500D01*
X150866345Y-97701500D01*
X150805797Y-97708011D01*
X150805795Y-97708011D01*
X150668795Y-97759111D01*
X150551739Y-97846739D01*
X150464111Y-97963795D01*
X150415777Y-98093381D01*
X150373905Y-98149314D01*
X150308441Y-98173730D01*
X150240168Y-98158878D01*
X150211915Y-98137727D01*
X150096082Y-98021894D01*
X149902578Y-97886399D01*
X149688492Y-97786570D01*
X149688486Y-97786567D01*
X149475000Y-97729364D01*
X149475000Y-98624498D01*
X149367315Y-98575320D01*
X149260763Y-98560000D01*
X149189237Y-98560000D01*
X149082685Y-98575320D01*
X148975000Y-98624498D01*
X148975000Y-97729364D01*
X148974999Y-97729364D01*
X148761513Y-97786567D01*
X148761507Y-97786570D01*
X148547422Y-97886399D01*
X148547420Y-97886400D01*
X148353926Y-98021886D01*
X148353920Y-98021891D01*
X148186891Y-98188920D01*
X148186886Y-98188926D01*
X148051400Y-98382420D01*
X148051399Y-98382422D01*
X147951570Y-98596507D01*
X147951567Y-98596513D01*
X147894364Y-98809999D01*
X147894364Y-98810000D01*
X148791314Y-98810000D01*
X148765507Y-98850156D01*
X148725000Y-98988111D01*
X148725000Y-99131889D01*
X148765507Y-99269844D01*
X148791314Y-99310000D01*
X147894364Y-99310000D01*
X145796500Y-99310000D01*
X145796500Y-85114759D01*
X145796528Y-85114616D01*
X145796524Y-85114616D01*
X145796539Y-85090002D01*
X145796541Y-85090000D01*
X145796462Y-85089808D01*
X145796384Y-85089618D01*
X145796382Y-85089616D01*
X145796099Y-85089500D01*
X145796000Y-85089459D01*
X145771446Y-85089459D01*
X145771240Y-85089500D01*
X110768760Y-85089500D01*
X110768554Y-85089459D01*
X110744000Y-85089459D01*
X110743901Y-85089500D01*
X110743617Y-85089616D01*
X110743615Y-85089618D01*
X110743459Y-85089999D01*
X110743476Y-85114616D01*
X110743471Y-85114616D01*
X110743500Y-85114759D01*
X110743500Y-103888500D01*
X110723815Y-103955539D01*
X110671011Y-104001294D01*
X110619500Y-104012500D01*
X109738002Y-104012500D01*
X109670963Y-103992815D01*
X109625208Y-103940011D01*
X109615264Y-103870853D01*
X109644289Y-103807297D01*
X109648336Y-103803457D01*
X109648486Y-103801039D01*
X109055714Y-103208267D01*
X109135205Y-103176795D01*
X109259892Y-103086205D01*
X109358133Y-102967452D01*
X109410570Y-102856017D01*
X110001023Y-103446471D01*
X110087718Y-103313777D01*
X110087723Y-103313769D01*
X110181918Y-103099025D01*
X110239485Y-102871696D01*
X110258850Y-102638005D01*
X110258850Y-102637994D01*
X110239485Y-102404303D01*
X110181918Y-102176974D01*
X110087723Y-101962230D01*
X110087718Y-101962222D01*
X110001023Y-101829527D01*
X109409802Y-102420748D01*
X109395331Y-102376210D01*
X109312749Y-102246081D01*
X109200399Y-102140578D01*
X109065341Y-102066329D01*
X109058798Y-102064649D01*
X109648487Y-101474959D01*
X109648487Y-101474958D01*
X109615585Y-101449350D01*
X109409348Y-101337739D01*
X109409339Y-101337736D01*
X109187555Y-101261597D01*
X108956250Y-101223000D01*
X108721750Y-101223000D01*
X108490444Y-101261597D01*
X108268660Y-101337736D01*
X108268651Y-101337739D01*
X108062413Y-101449350D01*
X108062407Y-101449354D01*
X108029512Y-101474957D01*
X108029512Y-101474959D01*
X108622285Y-102067732D01*
X108542795Y-102099205D01*
X108418108Y-102189795D01*
X108319867Y-102308548D01*
X108267430Y-102419982D01*
X107676975Y-101829527D01*
X107590277Y-101962229D01*
X107496081Y-102176974D01*
X107438514Y-102404303D01*
X107419150Y-102637994D01*
X107419150Y-102638005D01*
X107438514Y-102871696D01*
X107496081Y-103099025D01*
X107590279Y-103313775D01*
X107676975Y-103446471D01*
X108268197Y-102855249D01*
X108282669Y-102899790D01*
X108365251Y-103029919D01*
X108477601Y-103135422D01*
X108612659Y-103209671D01*
X108619201Y-103211350D01*
X108029511Y-103801039D01*
X108030066Y-103809970D01*
X108056973Y-103847358D01*
X108060646Y-103917131D01*
X108026015Y-103977814D01*
X107964073Y-104010140D01*
X107939997Y-104012500D01*
X104658002Y-104012500D01*
X104590963Y-103992815D01*
X104545208Y-103940011D01*
X104535264Y-103870853D01*
X104564289Y-103807297D01*
X104568336Y-103803457D01*
X104568486Y-103801039D01*
X103975714Y-103208267D01*
X104055205Y-103176795D01*
X104179892Y-103086205D01*
X104278133Y-102967452D01*
X104330569Y-102856017D01*
X104921023Y-103446471D01*
X105007718Y-103313777D01*
X105007723Y-103313769D01*
X105101918Y-103099025D01*
X105159485Y-102871696D01*
X105178850Y-102638005D01*
X105178850Y-102637994D01*
X105159485Y-102404303D01*
X105101918Y-102176974D01*
X105007723Y-101962230D01*
X105007718Y-101962222D01*
X104921023Y-101829527D01*
X104329802Y-102420748D01*
X104315331Y-102376210D01*
X104232749Y-102246081D01*
X104120399Y-102140578D01*
X103985341Y-102066329D01*
X103978798Y-102064649D01*
X104568487Y-101474959D01*
X104568487Y-101474958D01*
X104535585Y-101449350D01*
X104329348Y-101337739D01*
X104329339Y-101337736D01*
X104107555Y-101261597D01*
X103876250Y-101223000D01*
X103641750Y-101223000D01*
X103410444Y-101261597D01*
X103188660Y-101337736D01*
X103188651Y-101337739D01*
X102982413Y-101449350D01*
X102982407Y-101449354D01*
X102949512Y-101474957D01*
X102949512Y-101474959D01*
X103542285Y-102067732D01*
X103462795Y-102099205D01*
X103338108Y-102189795D01*
X103239867Y-102308548D01*
X103187430Y-102419982D01*
X102596975Y-101829527D01*
X102510277Y-101962229D01*
X102416081Y-102176974D01*
X102358514Y-102404303D01*
X102339150Y-102637994D01*
X102339150Y-102638005D01*
X102358514Y-102871696D01*
X102416081Y-103099025D01*
X102510279Y-103313775D01*
X102596975Y-103446471D01*
X103188197Y-102855249D01*
X103202669Y-102899790D01*
X103285251Y-103029919D01*
X103397601Y-103135422D01*
X103532659Y-103209671D01*
X103539201Y-103211350D01*
X102949511Y-103801039D01*
X102950066Y-103809970D01*
X102976973Y-103847358D01*
X102980646Y-103917131D01*
X102946015Y-103977814D01*
X102884073Y-104010140D01*
X102859997Y-104012500D01*
X101597500Y-104012500D01*
X101530461Y-103992815D01*
X101484706Y-103940011D01*
X101473500Y-103888500D01*
X101473500Y-99310000D01*
X103444364Y-99310000D01*
X103501567Y-99523486D01*
X103501570Y-99523492D01*
X103601399Y-99737578D01*
X103736894Y-99931082D01*
X103903917Y-100098105D01*
X104097421Y-100233600D01*
X104311507Y-100333429D01*
X104311516Y-100333433D01*
X104525000Y-100390634D01*
X104525000Y-99495501D01*
X104632685Y-99544680D01*
X104739237Y-99560000D01*
X104810763Y-99560000D01*
X104917315Y-99544680D01*
X105025000Y-99495501D01*
X105025000Y-100390633D01*
X105238483Y-100333433D01*
X105238492Y-100333429D01*
X105452578Y-100233600D01*
X105646078Y-100098108D01*
X105761914Y-99982272D01*
X105823237Y-99948787D01*
X105892929Y-99953771D01*
X105948863Y-99995642D01*
X105965777Y-100026619D01*
X106014110Y-100156203D01*
X106014111Y-100156204D01*
X106101739Y-100273261D01*
X106218796Y-100360889D01*
X106355799Y-100411989D01*
X106383050Y-100414918D01*
X106416345Y-100418499D01*
X106416362Y-100418500D01*
X108213638Y-100418500D01*
X108213654Y-100418499D01*
X108240692Y-100415591D01*
X108274201Y-100411989D01*
X108411204Y-100360889D01*
X108528261Y-100273261D01*
X108615889Y-100156204D01*
X108666989Y-100019201D01*
X108670959Y-99982272D01*
X108673499Y-99958654D01*
X108673500Y-99958637D01*
X108673500Y-98161362D01*
X108673499Y-98161345D01*
X108670157Y-98130270D01*
X108666989Y-98100799D01*
X108664222Y-98093381D01*
X108637559Y-98021894D01*
X108615889Y-97963796D01*
X108528261Y-97846739D01*
X108411204Y-97759111D01*
X108274203Y-97708011D01*
X108213654Y-97701500D01*
X108213638Y-97701500D01*
X106416362Y-97701500D01*
X106416345Y-97701500D01*
X106355797Y-97708011D01*
X106355795Y-97708011D01*
X106218795Y-97759111D01*
X106101739Y-97846739D01*
X106014111Y-97963795D01*
X105965777Y-98093381D01*
X105923905Y-98149314D01*
X105858441Y-98173730D01*
X105790168Y-98158878D01*
X105761915Y-98137727D01*
X105646082Y-98021894D01*
X105452578Y-97886399D01*
X105238492Y-97786570D01*
X105238486Y-97786567D01*
X105025000Y-97729364D01*
X105025000Y-98624498D01*
X104917315Y-98575320D01*
X104810763Y-98560000D01*
X104739237Y-98560000D01*
X104632685Y-98575320D01*
X104525000Y-98624498D01*
X104525000Y-97729364D01*
X104524999Y-97729364D01*
X104311513Y-97786567D01*
X104311507Y-97786570D01*
X104097422Y-97886399D01*
X104097420Y-97886400D01*
X103903926Y-98021886D01*
X103903920Y-98021891D01*
X103736891Y-98188920D01*
X103736886Y-98188926D01*
X103601400Y-98382420D01*
X103601399Y-98382422D01*
X103501570Y-98596507D01*
X103501567Y-98596513D01*
X103444364Y-98809999D01*
X103444364Y-98810000D01*
X104341314Y-98810000D01*
X104315507Y-98850156D01*
X104275000Y-98988111D01*
X104275000Y-99131889D01*
X104315507Y-99269844D01*
X104341314Y-99310000D01*
X103444364Y-99310000D01*
X101473500Y-99310000D01*
X101473500Y-94480067D01*
X101493185Y-94413028D01*
X101545989Y-94367273D01*
X101615147Y-94357329D01*
X101678703Y-94386354D01*
X101711056Y-94430257D01*
X101798140Y-94628792D01*
X101921276Y-94817265D01*
X101921284Y-94817276D01*
X102073756Y-94982902D01*
X102073760Y-94982906D01*
X102251424Y-95121189D01*
X102251425Y-95121189D01*
X102251427Y-95121191D01*
X102378135Y-95189761D01*
X102449426Y-95228342D01*
X102662365Y-95301444D01*
X102884431Y-95338500D01*
X103109569Y-95338500D01*
X103331635Y-95301444D01*
X103544574Y-95228342D01*
X103742576Y-95121189D01*
X103920240Y-94982906D01*
X104072722Y-94817268D01*
X104163193Y-94678790D01*
X104216338Y-94633437D01*
X104285569Y-94624013D01*
X104348905Y-94653515D01*
X104370804Y-94678787D01*
X104461278Y-94817268D01*
X104461283Y-94817273D01*
X104461284Y-94817276D01*
X104613756Y-94982902D01*
X104613760Y-94982906D01*
X104791424Y-95121189D01*
X104791425Y-95121189D01*
X104791427Y-95121191D01*
X104918135Y-95189761D01*
X104989426Y-95228342D01*
X105202365Y-95301444D01*
X105424431Y-95338500D01*
X105649569Y-95338500D01*
X105871635Y-95301444D01*
X106084574Y-95228342D01*
X106282576Y-95121189D01*
X106460240Y-94982906D01*
X106612722Y-94817268D01*
X106735860Y-94628791D01*
X106826296Y-94422616D01*
X106881564Y-94204368D01*
X106900156Y-93980000D01*
X106881564Y-93755632D01*
X106826296Y-93537384D01*
X106735860Y-93331209D01*
X106719706Y-93306484D01*
X106612723Y-93142734D01*
X106612715Y-93142723D01*
X106460243Y-92977097D01*
X106460238Y-92977092D01*
X106282577Y-92838812D01*
X106282578Y-92838812D01*
X106282576Y-92838811D01*
X106246070Y-92819055D01*
X106196479Y-92769836D01*
X106181371Y-92701619D01*
X106205541Y-92636064D01*
X106246070Y-92600945D01*
X106246084Y-92600936D01*
X106282576Y-92581189D01*
X106460240Y-92442906D01*
X106612722Y-92277268D01*
X106735860Y-92088791D01*
X106826296Y-91882616D01*
X106881564Y-91664368D01*
X106900156Y-91440000D01*
X106881564Y-91215632D01*
X106826296Y-90997384D01*
X106735860Y-90791209D01*
X106719706Y-90766484D01*
X106612723Y-90602734D01*
X106612715Y-90602723D01*
X106460243Y-90437097D01*
X106460238Y-90437092D01*
X106282577Y-90298812D01*
X106282578Y-90298812D01*
X106282576Y-90298811D01*
X106246070Y-90279055D01*
X106196479Y-90229836D01*
X106181371Y-90161619D01*
X106205541Y-90096064D01*
X106246070Y-90060945D01*
X106246084Y-90060936D01*
X106282576Y-90041189D01*
X106460240Y-89902906D01*
X106612722Y-89737268D01*
X106735860Y-89548791D01*
X106826296Y-89342616D01*
X106881564Y-89124368D01*
X106900156Y-88900000D01*
X106881564Y-88675632D01*
X106826296Y-88457384D01*
X106735860Y-88251209D01*
X106719706Y-88226484D01*
X106612723Y-88062734D01*
X106612715Y-88062723D01*
X106460243Y-87897097D01*
X106460238Y-87897092D01*
X106282577Y-87758812D01*
X106282578Y-87758812D01*
X106282576Y-87758811D01*
X106246070Y-87739055D01*
X106196479Y-87689836D01*
X106183227Y-87630000D01*
X107544496Y-87630000D01*
X107564458Y-87819928D01*
X107564459Y-87819931D01*
X107623470Y-88001549D01*
X107623473Y-88001556D01*
X107718960Y-88166944D01*
X107846747Y-88308866D01*
X108001248Y-88421118D01*
X108175712Y-88498794D01*
X108362513Y-88538500D01*
X108553487Y-88538500D01*
X108740288Y-88498794D01*
X108914752Y-88421118D01*
X109069253Y-88308866D01*
X109197040Y-88166944D01*
X109292527Y-88001556D01*
X109351542Y-87819928D01*
X109371504Y-87630000D01*
X109351542Y-87440072D01*
X109292527Y-87258444D01*
X109197040Y-87093056D01*
X109069253Y-86951134D01*
X108914752Y-86838882D01*
X108740288Y-86761206D01*
X108740286Y-86761205D01*
X108553487Y-86721500D01*
X108362513Y-86721500D01*
X108175714Y-86761205D01*
X108001246Y-86838883D01*
X107846745Y-86951135D01*
X107718959Y-87093057D01*
X107623473Y-87258443D01*
X107623470Y-87258450D01*
X107565236Y-87437678D01*
X107564458Y-87440072D01*
X107544496Y-87630000D01*
X106183227Y-87630000D01*
X106181371Y-87621619D01*
X106205541Y-87556064D01*
X106246070Y-87520945D01*
X106246084Y-87520936D01*
X106282576Y-87501189D01*
X106460240Y-87362906D01*
X106612722Y-87197268D01*
X106735860Y-87008791D01*
X106826296Y-86802616D01*
X106881564Y-86584368D01*
X106900156Y-86360000D01*
X106899135Y-86347680D01*
X106913214Y-86279245D01*
X106962058Y-86229284D01*
X107030159Y-86213662D01*
X107048489Y-86216147D01*
X107219513Y-86252500D01*
X107410487Y-86252500D01*
X107597288Y-86212794D01*
X107771752Y-86135118D01*
X107926253Y-86022866D01*
X108054040Y-85880944D01*
X108149527Y-85715556D01*
X108208542Y-85533928D01*
X108228504Y-85344000D01*
X108208542Y-85154072D01*
X108149527Y-84972444D01*
X108054040Y-84807056D01*
X107926253Y-84665134D01*
X107771752Y-84552882D01*
X107597288Y-84475206D01*
X107597286Y-84475205D01*
X107410487Y-84435500D01*
X107219513Y-84435500D01*
X107032714Y-84475205D01*
X106858246Y-84552883D01*
X106703745Y-84665135D01*
X106575959Y-84807057D01*
X106480473Y-84972443D01*
X106480471Y-84972447D01*
X106428807Y-85131452D01*
X106389369Y-85189127D01*
X106325010Y-85216325D01*
X106256164Y-85204410D01*
X106251885Y-85202202D01*
X106149398Y-85146739D01*
X106084575Y-85111658D01*
X106084569Y-85111656D01*
X105871637Y-85038556D01*
X105649569Y-85001500D01*
X105424431Y-85001500D01*
X105202362Y-85038556D01*
X104989430Y-85111656D01*
X104989419Y-85111661D01*
X104791427Y-85218808D01*
X104791422Y-85218812D01*
X104613761Y-85357092D01*
X104550548Y-85425760D01*
X104490661Y-85461750D01*
X104420823Y-85459649D01*
X104363207Y-85420124D01*
X104343138Y-85385110D01*
X104297889Y-85263796D01*
X104264214Y-85218812D01*
X104210261Y-85146739D01*
X104093204Y-85059111D01*
X103956203Y-85008011D01*
X103895654Y-85001500D01*
X103895638Y-85001500D01*
X102098362Y-85001500D01*
X102098345Y-85001500D01*
X102037797Y-85008011D01*
X102037795Y-85008011D01*
X101900795Y-85059111D01*
X101783739Y-85146739D01*
X101696767Y-85262919D01*
X101640833Y-85304790D01*
X101571141Y-85309774D01*
X101509818Y-85276289D01*
X101476334Y-85214965D01*
X101473500Y-85188608D01*
X101473500Y-79375000D01*
X106401496Y-79375000D01*
X106421458Y-79564928D01*
X106421459Y-79564931D01*
X106480470Y-79746549D01*
X106480473Y-79746556D01*
X106575960Y-79911944D01*
X106703747Y-80053866D01*
X106858248Y-80166118D01*
X107032712Y-80243794D01*
X107219513Y-80283500D01*
X107410487Y-80283500D01*
X107597288Y-80243794D01*
X107771752Y-80166118D01*
X107926253Y-80053866D01*
X108054040Y-79911944D01*
X108149527Y-79746556D01*
X108184850Y-79637844D01*
X112950000Y-79637844D01*
X112956401Y-79697372D01*
X112956403Y-79697379D01*
X113006645Y-79832086D01*
X113006649Y-79832093D01*
X113092809Y-79947187D01*
X113092812Y-79947190D01*
X113207906Y-80033350D01*
X113207913Y-80033354D01*
X113339986Y-80082614D01*
X113395920Y-80124485D01*
X113420337Y-80189949D01*
X113405486Y-80258222D01*
X113384335Y-80286477D01*
X113261886Y-80408926D01*
X113126400Y-80602420D01*
X113126399Y-80602422D01*
X113026570Y-80816507D01*
X113026567Y-80816513D01*
X112969364Y-81029999D01*
X112969364Y-81030000D01*
X113866314Y-81030000D01*
X113840507Y-81070156D01*
X113800000Y-81208111D01*
X113800000Y-81351889D01*
X113840507Y-81489844D01*
X113866314Y-81530000D01*
X112969364Y-81530000D01*
X113026567Y-81743486D01*
X113026570Y-81743492D01*
X113126399Y-81957578D01*
X113261894Y-82151082D01*
X113428917Y-82318105D01*
X113622421Y-82453600D01*
X113836507Y-82553429D01*
X113836516Y-82553433D01*
X114050000Y-82610634D01*
X114050000Y-81715501D01*
X114157685Y-81764680D01*
X114264237Y-81780000D01*
X114335763Y-81780000D01*
X114442315Y-81764680D01*
X114550000Y-81715501D01*
X114550000Y-82610633D01*
X114763483Y-82553433D01*
X114763492Y-82553429D01*
X114977578Y-82453600D01*
X115021279Y-82423000D01*
X117323496Y-82423000D01*
X117343458Y-82612928D01*
X117343459Y-82612931D01*
X117402470Y-82794549D01*
X117402473Y-82794556D01*
X117497960Y-82959944D01*
X117625747Y-83101866D01*
X117780248Y-83214118D01*
X117954712Y-83291794D01*
X118141513Y-83331500D01*
X118332487Y-83331500D01*
X118519288Y-83291794D01*
X118693752Y-83214118D01*
X118733829Y-83185000D01*
X126213496Y-83185000D01*
X126233458Y-83374928D01*
X126233459Y-83374931D01*
X126292470Y-83556549D01*
X126292473Y-83556556D01*
X126387960Y-83721944D01*
X126515747Y-83863866D01*
X126670248Y-83976118D01*
X126844712Y-84053794D01*
X127031513Y-84093500D01*
X127222487Y-84093500D01*
X127409288Y-84053794D01*
X127583752Y-83976118D01*
X127738253Y-83863866D01*
X127866040Y-83721944D01*
X127961527Y-83556556D01*
X128020542Y-83374928D01*
X128040504Y-83185000D01*
X128030362Y-83088500D01*
X128953247Y-83088500D01*
X128973209Y-83278428D01*
X128973210Y-83278431D01*
X129032221Y-83460049D01*
X129032224Y-83460056D01*
X129127711Y-83625444D01*
X129255498Y-83767366D01*
X129409999Y-83879618D01*
X129584463Y-83957294D01*
X129771264Y-83997000D01*
X129962238Y-83997000D01*
X130149039Y-83957294D01*
X130323503Y-83879618D01*
X130478004Y-83767366D01*
X130605791Y-83625444D01*
X130701278Y-83460056D01*
X130760293Y-83278428D01*
X130780255Y-83088500D01*
X130760293Y-82898572D01*
X130701278Y-82716944D01*
X130605791Y-82551556D01*
X130478004Y-82409634D01*
X130323503Y-82297382D01*
X130149039Y-82219706D01*
X130149037Y-82219705D01*
X129962238Y-82180000D01*
X129771264Y-82180000D01*
X129584465Y-82219705D01*
X129409997Y-82297383D01*
X129255496Y-82409635D01*
X129127710Y-82551557D01*
X129032224Y-82716943D01*
X129032221Y-82716950D01*
X128984726Y-82863126D01*
X128973209Y-82898572D01*
X128953247Y-83088500D01*
X128030362Y-83088500D01*
X128020542Y-82995072D01*
X127961527Y-82813444D01*
X127866040Y-82648056D01*
X127738253Y-82506134D01*
X127583752Y-82393882D01*
X127409288Y-82316206D01*
X127409286Y-82316205D01*
X127222487Y-82276500D01*
X127031513Y-82276500D01*
X126844714Y-82316205D01*
X126670246Y-82393883D01*
X126515745Y-82506135D01*
X126387959Y-82648057D01*
X126292473Y-82813443D01*
X126292470Y-82813450D01*
X126233459Y-82995068D01*
X126233458Y-82995072D01*
X126213496Y-83185000D01*
X118733829Y-83185000D01*
X118848253Y-83101866D01*
X118976040Y-82959944D01*
X119004101Y-82911340D01*
X119054667Y-82863126D01*
X119123274Y-82849902D01*
X119184370Y-82873021D01*
X119304248Y-82960118D01*
X119478712Y-83037794D01*
X119665513Y-83077500D01*
X119856487Y-83077500D01*
X120043288Y-83037794D01*
X120217752Y-82960118D01*
X120372253Y-82847866D01*
X120500040Y-82705944D01*
X120595527Y-82540556D01*
X120654542Y-82358928D01*
X120674504Y-82169000D01*
X120654542Y-81979072D01*
X120595527Y-81797444D01*
X120581992Y-81774000D01*
X122722321Y-81774000D01*
X122741002Y-81987527D01*
X122741004Y-81987537D01*
X122796477Y-82194567D01*
X122796481Y-82194576D01*
X122887067Y-82388839D01*
X122926825Y-82445620D01*
X123485035Y-81887409D01*
X123510887Y-81975450D01*
X123585510Y-82091566D01*
X123689824Y-82181954D01*
X123815378Y-82239293D01*
X123837131Y-82242420D01*
X123280378Y-82799173D01*
X123337160Y-82838933D01*
X123531423Y-82929518D01*
X123531432Y-82929522D01*
X123738462Y-82984995D01*
X123738472Y-82984997D01*
X123951999Y-83003679D01*
X123952001Y-83003679D01*
X124165527Y-82984997D01*
X124165537Y-82984995D01*
X124372567Y-82929522D01*
X124372581Y-82929517D01*
X124566835Y-82838935D01*
X124623620Y-82799173D01*
X124066868Y-82242420D01*
X124088622Y-82239293D01*
X124214176Y-82181954D01*
X124318490Y-82091566D01*
X124393113Y-81975450D01*
X124418963Y-81887410D01*
X124977173Y-82445619D01*
X125016935Y-82388835D01*
X125107517Y-82194581D01*
X125107522Y-82194567D01*
X125162995Y-81987537D01*
X125162997Y-81987527D01*
X125181679Y-81774000D01*
X131362321Y-81774000D01*
X131381002Y-81987527D01*
X131381004Y-81987537D01*
X131436477Y-82194567D01*
X131436481Y-82194576D01*
X131527067Y-82388839D01*
X131566825Y-82445620D01*
X132125035Y-81887409D01*
X132150887Y-81975450D01*
X132225510Y-82091566D01*
X132329824Y-82181954D01*
X132455378Y-82239293D01*
X132477131Y-82242420D01*
X131920378Y-82799173D01*
X131977160Y-82838933D01*
X132171423Y-82929518D01*
X132171432Y-82929522D01*
X132378462Y-82984995D01*
X132378472Y-82984997D01*
X132591999Y-83003679D01*
X132592001Y-83003679D01*
X132805527Y-82984997D01*
X132805537Y-82984995D01*
X133012567Y-82929522D01*
X133012581Y-82929517D01*
X133206835Y-82838935D01*
X133263620Y-82799173D01*
X132706868Y-82242420D01*
X132728622Y-82239293D01*
X132854176Y-82181954D01*
X132958490Y-82091566D01*
X133033113Y-81975450D01*
X133058963Y-81887410D01*
X133617173Y-82445619D01*
X133656935Y-82388835D01*
X133747517Y-82194581D01*
X133747522Y-82194567D01*
X133802995Y-81987537D01*
X133802997Y-81987527D01*
X133821679Y-81774000D01*
X133821679Y-81773999D01*
X133802997Y-81560472D01*
X133802995Y-81560462D01*
X133747522Y-81353432D01*
X133747518Y-81353423D01*
X133656933Y-81159162D01*
X133632303Y-81123986D01*
X137454279Y-81123986D01*
X137474241Y-81313914D01*
X137474242Y-81313917D01*
X137533253Y-81495535D01*
X137533256Y-81495542D01*
X137628743Y-81660930D01*
X137681008Y-81718976D01*
X137751660Y-81797444D01*
X137756530Y-81802852D01*
X137911031Y-81915104D01*
X138085495Y-81992780D01*
X138272296Y-82032486D01*
X138463270Y-82032486D01*
X138650071Y-81992780D01*
X138824535Y-81915104D01*
X138979036Y-81802852D01*
X139106823Y-81660930D01*
X139202310Y-81495542D01*
X139261325Y-81313914D01*
X139281287Y-81123986D01*
X139261325Y-80934058D01*
X139202310Y-80752430D01*
X139106823Y-80587042D01*
X138979036Y-80445120D01*
X138824535Y-80332868D01*
X138650071Y-80255192D01*
X138650069Y-80255191D01*
X138463270Y-80215486D01*
X138272296Y-80215486D01*
X138085497Y-80255191D01*
X137911029Y-80332869D01*
X137756528Y-80445121D01*
X137628742Y-80587043D01*
X137533256Y-80752429D01*
X137533253Y-80752436D01*
X137474242Y-80934054D01*
X137474241Y-80934058D01*
X137454279Y-81123986D01*
X133632303Y-81123986D01*
X133617173Y-81102378D01*
X133058963Y-81660588D01*
X133033113Y-81572550D01*
X132958490Y-81456434D01*
X132854176Y-81366046D01*
X132728622Y-81308707D01*
X132706867Y-81305579D01*
X133263620Y-80748825D01*
X133206839Y-80709067D01*
X133012576Y-80618481D01*
X133012567Y-80618477D01*
X132805537Y-80563004D01*
X132805527Y-80563002D01*
X132592001Y-80544321D01*
X132591999Y-80544321D01*
X132378472Y-80563002D01*
X132378462Y-80563004D01*
X132171432Y-80618477D01*
X132171423Y-80618481D01*
X131977158Y-80709068D01*
X131920378Y-80748824D01*
X132477133Y-81305579D01*
X132455378Y-81308707D01*
X132329824Y-81366046D01*
X132225510Y-81456434D01*
X132150887Y-81572550D01*
X132125035Y-81660589D01*
X131566824Y-81102378D01*
X131527068Y-81159158D01*
X131436481Y-81353423D01*
X131436477Y-81353432D01*
X131381004Y-81560462D01*
X131381002Y-81560472D01*
X131362321Y-81773999D01*
X131362321Y-81774000D01*
X125181679Y-81774000D01*
X125181679Y-81773999D01*
X125162997Y-81560472D01*
X125162995Y-81560462D01*
X125107522Y-81353432D01*
X125107518Y-81353423D01*
X125016933Y-81159162D01*
X124977173Y-81102378D01*
X124418963Y-81660588D01*
X124393113Y-81572550D01*
X124318490Y-81456434D01*
X124214176Y-81366046D01*
X124088622Y-81308707D01*
X124066867Y-81305579D01*
X124623620Y-80748825D01*
X124566839Y-80709067D01*
X124372576Y-80618481D01*
X124372567Y-80618477D01*
X124165537Y-80563004D01*
X124165527Y-80563002D01*
X123952001Y-80544321D01*
X123951999Y-80544321D01*
X123738472Y-80563002D01*
X123738462Y-80563004D01*
X123531432Y-80618477D01*
X123531423Y-80618481D01*
X123337158Y-80709068D01*
X123280378Y-80748824D01*
X123837133Y-81305579D01*
X123815378Y-81308707D01*
X123689824Y-81366046D01*
X123585510Y-81456434D01*
X123510887Y-81572550D01*
X123485035Y-81660589D01*
X122926824Y-81102378D01*
X122887068Y-81159158D01*
X122796481Y-81353423D01*
X122796477Y-81353432D01*
X122741004Y-81560462D01*
X122741002Y-81560472D01*
X122722321Y-81773999D01*
X122722321Y-81774000D01*
X120581992Y-81774000D01*
X120500040Y-81632056D01*
X120372253Y-81490134D01*
X120217752Y-81377882D01*
X120043288Y-81300206D01*
X120043286Y-81300205D01*
X119856487Y-81260500D01*
X119665513Y-81260500D01*
X119478714Y-81300205D01*
X119304246Y-81377883D01*
X119149745Y-81490135D01*
X119021958Y-81632057D01*
X118993899Y-81680658D01*
X118943332Y-81728874D01*
X118874725Y-81742096D01*
X118813626Y-81718976D01*
X118693752Y-81631882D01*
X118519288Y-81554206D01*
X118519286Y-81554205D01*
X118332487Y-81514500D01*
X118141513Y-81514500D01*
X117954714Y-81554205D01*
X117780246Y-81631883D01*
X117625745Y-81744135D01*
X117497959Y-81886057D01*
X117402473Y-82051443D01*
X117402470Y-82051450D01*
X117347801Y-82219705D01*
X117343458Y-82233072D01*
X117323496Y-82423000D01*
X115021279Y-82423000D01*
X115171082Y-82318105D01*
X115338105Y-82151082D01*
X115473600Y-81957578D01*
X115573429Y-81743492D01*
X115573432Y-81743486D01*
X115630636Y-81530000D01*
X114733686Y-81530000D01*
X114759493Y-81489844D01*
X114800000Y-81351889D01*
X114800000Y-81208111D01*
X114759493Y-81070156D01*
X114733686Y-81030000D01*
X115630636Y-81030000D01*
X115630635Y-81029999D01*
X115573432Y-80816513D01*
X115573429Y-80816507D01*
X115473600Y-80602422D01*
X115473599Y-80602420D01*
X115338113Y-80408926D01*
X115338108Y-80408920D01*
X115215665Y-80286477D01*
X115182180Y-80225154D01*
X115187164Y-80155462D01*
X115229036Y-80099529D01*
X115260013Y-80082614D01*
X115392086Y-80033354D01*
X115392093Y-80033350D01*
X115507187Y-79947190D01*
X115507190Y-79947187D01*
X115593350Y-79832093D01*
X115593354Y-79832086D01*
X115643596Y-79697379D01*
X115643598Y-79697372D01*
X115649999Y-79637844D01*
X115650000Y-79637827D01*
X115650000Y-79230971D01*
X122620967Y-79230971D01*
X122640929Y-79420899D01*
X122640930Y-79420902D01*
X122699941Y-79602520D01*
X122699944Y-79602527D01*
X122795431Y-79767915D01*
X122923218Y-79909837D01*
X123077719Y-80022089D01*
X123252183Y-80099765D01*
X123438984Y-80139471D01*
X123629958Y-80139471D01*
X123816759Y-80099765D01*
X123991223Y-80022089D01*
X124145724Y-79909837D01*
X124273511Y-79767915D01*
X124348608Y-79637844D01*
X140890000Y-79637844D01*
X140896401Y-79697372D01*
X140896403Y-79697379D01*
X140946645Y-79832086D01*
X140946649Y-79832093D01*
X141032809Y-79947187D01*
X141032812Y-79947190D01*
X141147906Y-80033350D01*
X141147913Y-80033354D01*
X141279986Y-80082614D01*
X141335920Y-80124485D01*
X141360337Y-80189949D01*
X141345486Y-80258222D01*
X141324335Y-80286477D01*
X141201886Y-80408926D01*
X141066400Y-80602420D01*
X141066399Y-80602422D01*
X140966570Y-80816507D01*
X140966567Y-80816513D01*
X140909364Y-81029999D01*
X140909364Y-81030000D01*
X141806314Y-81030000D01*
X141780507Y-81070156D01*
X141740000Y-81208111D01*
X141740000Y-81351889D01*
X141780507Y-81489844D01*
X141806314Y-81530000D01*
X140909364Y-81530000D01*
X140966567Y-81743486D01*
X140966570Y-81743492D01*
X141066399Y-81957578D01*
X141201894Y-82151082D01*
X141368917Y-82318105D01*
X141562421Y-82453600D01*
X141776507Y-82553429D01*
X141776516Y-82553433D01*
X141990000Y-82610634D01*
X141990000Y-81715501D01*
X142097685Y-81764680D01*
X142204237Y-81780000D01*
X142275763Y-81780000D01*
X142382315Y-81764680D01*
X142490000Y-81715501D01*
X142490000Y-82610633D01*
X142703483Y-82553433D01*
X142703492Y-82553430D01*
X142820208Y-82499004D01*
X142889285Y-82488512D01*
X142953069Y-82517031D01*
X142991309Y-82575508D01*
X142995933Y-82598422D01*
X142997457Y-82612925D01*
X142997458Y-82612929D01*
X143056470Y-82794549D01*
X143056473Y-82794556D01*
X143151960Y-82959944D01*
X143279747Y-83101866D01*
X143434248Y-83214118D01*
X143608712Y-83291794D01*
X143795513Y-83331500D01*
X143986487Y-83331500D01*
X144173288Y-83291794D01*
X144347752Y-83214118D01*
X144502253Y-83101866D01*
X144630040Y-82959944D01*
X144725527Y-82794556D01*
X144784542Y-82612928D01*
X144804504Y-82423000D01*
X144784542Y-82233072D01*
X144725527Y-82051444D01*
X144630040Y-81886056D01*
X144502253Y-81744134D01*
X144347752Y-81631882D01*
X144173288Y-81554206D01*
X144173286Y-81554205D01*
X143986487Y-81514500D01*
X143795513Y-81514500D01*
X143668473Y-81541503D01*
X143598806Y-81536187D01*
X143590480Y-81530000D01*
X142673686Y-81530000D01*
X142699493Y-81489844D01*
X142740000Y-81351889D01*
X142740000Y-81208111D01*
X142699493Y-81070156D01*
X142673686Y-81030000D01*
X143570636Y-81030000D01*
X143570635Y-81029999D01*
X143513432Y-80816513D01*
X143513429Y-80816507D01*
X143433454Y-80645000D01*
X148057496Y-80645000D01*
X148077458Y-80834928D01*
X148077459Y-80834931D01*
X148136470Y-81016549D01*
X148136473Y-81016556D01*
X148231960Y-81181944D01*
X148359747Y-81323866D01*
X148514248Y-81436118D01*
X148688712Y-81513794D01*
X148875513Y-81553500D01*
X149066487Y-81553500D01*
X149253288Y-81513794D01*
X149427752Y-81436118D01*
X149582253Y-81323866D01*
X149710040Y-81181944D01*
X149805527Y-81016556D01*
X149864542Y-80834928D01*
X149884504Y-80645000D01*
X149864542Y-80455072D01*
X149805527Y-80273444D01*
X149710040Y-80108056D01*
X149582253Y-79966134D01*
X149427752Y-79853882D01*
X149253288Y-79776206D01*
X149253286Y-79776205D01*
X149066487Y-79736500D01*
X148875513Y-79736500D01*
X148688714Y-79776205D01*
X148514246Y-79853883D01*
X148359745Y-79966135D01*
X148231959Y-80108057D01*
X148136473Y-80273443D01*
X148136470Y-80273450D01*
X148080691Y-80445121D01*
X148077458Y-80455072D01*
X148057496Y-80645000D01*
X143433454Y-80645000D01*
X143413600Y-80602422D01*
X143413599Y-80602420D01*
X143278113Y-80408926D01*
X143278108Y-80408920D01*
X143155665Y-80286477D01*
X143122180Y-80225154D01*
X143127164Y-80155462D01*
X143169036Y-80099529D01*
X143200013Y-80082614D01*
X143332086Y-80033354D01*
X143332093Y-80033350D01*
X143447187Y-79947190D01*
X143447190Y-79947187D01*
X143533350Y-79832093D01*
X143533354Y-79832086D01*
X143583596Y-79697379D01*
X143583598Y-79697372D01*
X143589999Y-79637844D01*
X143590000Y-79637827D01*
X143590000Y-79376943D01*
X143609685Y-79309904D01*
X143662489Y-79264149D01*
X143731647Y-79254205D01*
X143739749Y-79255647D01*
X143795513Y-79267500D01*
X143795515Y-79267500D01*
X143986487Y-79267500D01*
X144173288Y-79227794D01*
X144347752Y-79150118D01*
X144502253Y-79037866D01*
X144630040Y-78895944D01*
X144725527Y-78730556D01*
X144784542Y-78548928D01*
X144804504Y-78359000D01*
X144784542Y-78169072D01*
X144725527Y-77987444D01*
X144630040Y-77822056D01*
X144502253Y-77680134D01*
X144357106Y-77574678D01*
X147814013Y-77574678D01*
X147833975Y-77764606D01*
X147833976Y-77764609D01*
X147892987Y-77946227D01*
X147892990Y-77946234D01*
X147988477Y-78111622D01*
X148045948Y-78175450D01*
X148114423Y-78251500D01*
X148116264Y-78253544D01*
X148270765Y-78365796D01*
X148445229Y-78443472D01*
X148632030Y-78483178D01*
X148823004Y-78483178D01*
X149009805Y-78443472D01*
X149184269Y-78365796D01*
X149338770Y-78253544D01*
X149466557Y-78111622D01*
X149562044Y-77946234D01*
X149621059Y-77764606D01*
X149641021Y-77574678D01*
X149621059Y-77384750D01*
X149562044Y-77203122D01*
X149466557Y-77037734D01*
X149338770Y-76895812D01*
X149184269Y-76783560D01*
X149009805Y-76705884D01*
X149009803Y-76705883D01*
X148823004Y-76666178D01*
X148632030Y-76666178D01*
X148445231Y-76705883D01*
X148445229Y-76705884D01*
X148299131Y-76770931D01*
X148270763Y-76783561D01*
X148116262Y-76895813D01*
X147988476Y-77037735D01*
X147892990Y-77203121D01*
X147892987Y-77203128D01*
X147842290Y-77359158D01*
X147833975Y-77384750D01*
X147814013Y-77574678D01*
X144357106Y-77574678D01*
X144347752Y-77567882D01*
X144173288Y-77490206D01*
X144173286Y-77490205D01*
X143986487Y-77450500D01*
X143795513Y-77450500D01*
X143608714Y-77490205D01*
X143538222Y-77521589D01*
X143468972Y-77530872D01*
X143413478Y-77507575D01*
X143332088Y-77446646D01*
X143332086Y-77446645D01*
X143197379Y-77396403D01*
X143197372Y-77396401D01*
X143137844Y-77390000D01*
X142490000Y-77390000D01*
X142490000Y-78304498D01*
X142382315Y-78255320D01*
X142275763Y-78240000D01*
X142204237Y-78240000D01*
X142097685Y-78255320D01*
X141990000Y-78304498D01*
X141990000Y-77390000D01*
X141342155Y-77390000D01*
X141282627Y-77396401D01*
X141282620Y-77396403D01*
X141147913Y-77446645D01*
X141147906Y-77446649D01*
X141032812Y-77532809D01*
X141032809Y-77532812D01*
X140946649Y-77647906D01*
X140946645Y-77647913D01*
X140896403Y-77782620D01*
X140896401Y-77782627D01*
X140890000Y-77842155D01*
X140890000Y-78490000D01*
X141806314Y-78490000D01*
X141780507Y-78530156D01*
X141740000Y-78668111D01*
X141740000Y-78811889D01*
X141780507Y-78949844D01*
X141806314Y-78990000D01*
X140890000Y-78990000D01*
X140890000Y-79637844D01*
X124348608Y-79637844D01*
X124368998Y-79602527D01*
X124428013Y-79420899D01*
X124447975Y-79230971D01*
X124443532Y-79188704D01*
X124456101Y-79119978D01*
X124503832Y-79068954D01*
X124514450Y-79063362D01*
X124566842Y-79038931D01*
X124566849Y-79038927D01*
X124623619Y-78999175D01*
X124623620Y-78999173D01*
X124066867Y-78442420D01*
X124088622Y-78439293D01*
X124214176Y-78381954D01*
X124318490Y-78291566D01*
X124393113Y-78175450D01*
X124418963Y-78087410D01*
X124977173Y-78645619D01*
X125016935Y-78588835D01*
X125107517Y-78394581D01*
X125107522Y-78394567D01*
X125162995Y-78187537D01*
X125162997Y-78187527D01*
X125181679Y-77974000D01*
X131362321Y-77974000D01*
X131381002Y-78187527D01*
X131381004Y-78187537D01*
X131436477Y-78394567D01*
X131436481Y-78394576D01*
X131527067Y-78588839D01*
X131566825Y-78645620D01*
X132125035Y-78087409D01*
X132150887Y-78175450D01*
X132225510Y-78291566D01*
X132329824Y-78381954D01*
X132455378Y-78439293D01*
X132477131Y-78442420D01*
X131920378Y-78999173D01*
X131977160Y-79038933D01*
X132171423Y-79129518D01*
X132171432Y-79129522D01*
X132378462Y-79184995D01*
X132378472Y-79184997D01*
X132591999Y-79203679D01*
X132592001Y-79203679D01*
X132805527Y-79184997D01*
X132805537Y-79184995D01*
X133012567Y-79129522D01*
X133012581Y-79129517D01*
X133206835Y-79038935D01*
X133263620Y-78999173D01*
X132706868Y-78442420D01*
X132728622Y-78439293D01*
X132854176Y-78381954D01*
X132958490Y-78291566D01*
X133033113Y-78175450D01*
X133058963Y-78087410D01*
X133617173Y-78645619D01*
X133656935Y-78588835D01*
X133747517Y-78394581D01*
X133747522Y-78394567D01*
X133802995Y-78187537D01*
X133802997Y-78187527D01*
X133821679Y-77974000D01*
X133821679Y-77973999D01*
X133802997Y-77760472D01*
X133802995Y-77760462D01*
X133747522Y-77553432D01*
X133747518Y-77553423D01*
X133656933Y-77359162D01*
X133617173Y-77302378D01*
X133058963Y-77860588D01*
X133033113Y-77772550D01*
X132958490Y-77656434D01*
X132854176Y-77566046D01*
X132728622Y-77508707D01*
X132706867Y-77505579D01*
X133263620Y-76948825D01*
X133206839Y-76909067D01*
X133012576Y-76818481D01*
X133012567Y-76818477D01*
X132805537Y-76763004D01*
X132805527Y-76763002D01*
X132592001Y-76744321D01*
X132591999Y-76744321D01*
X132378472Y-76763002D01*
X132378462Y-76763004D01*
X132171432Y-76818477D01*
X132171423Y-76818481D01*
X131977158Y-76909068D01*
X131920378Y-76948824D01*
X132477133Y-77505579D01*
X132455378Y-77508707D01*
X132329824Y-77566046D01*
X132225510Y-77656434D01*
X132150887Y-77772550D01*
X132125035Y-77860589D01*
X131566824Y-77302378D01*
X131527068Y-77359158D01*
X131436481Y-77553423D01*
X131436477Y-77553432D01*
X131381004Y-77760462D01*
X131381002Y-77760472D01*
X131362321Y-77973999D01*
X131362321Y-77974000D01*
X125181679Y-77974000D01*
X125181679Y-77973999D01*
X125162997Y-77760472D01*
X125162995Y-77760462D01*
X125107522Y-77553432D01*
X125107518Y-77553423D01*
X125016933Y-77359162D01*
X124977173Y-77302378D01*
X124418963Y-77860588D01*
X124393113Y-77772550D01*
X124318490Y-77656434D01*
X124214176Y-77566046D01*
X124088622Y-77508707D01*
X124066867Y-77505579D01*
X124623620Y-76948825D01*
X124566839Y-76909067D01*
X124372576Y-76818481D01*
X124372567Y-76818477D01*
X124165537Y-76763004D01*
X124165527Y-76763002D01*
X123952001Y-76744321D01*
X123951999Y-76744321D01*
X123738472Y-76763002D01*
X123738462Y-76763004D01*
X123531432Y-76818477D01*
X123531423Y-76818481D01*
X123337158Y-76909068D01*
X123280378Y-76948824D01*
X123837133Y-77505579D01*
X123815378Y-77508707D01*
X123689824Y-77566046D01*
X123585510Y-77656434D01*
X123510887Y-77772550D01*
X123485036Y-77860589D01*
X122926824Y-77302378D01*
X122887068Y-77359158D01*
X122796481Y-77553423D01*
X122796477Y-77553432D01*
X122741004Y-77760462D01*
X122741002Y-77760472D01*
X122722321Y-77973999D01*
X122722321Y-77974000D01*
X122741002Y-78187527D01*
X122741004Y-78187537D01*
X122796477Y-78394567D01*
X122796481Y-78394576D01*
X122853430Y-78516704D01*
X122863922Y-78585782D01*
X122835402Y-78649566D01*
X122833199Y-78652080D01*
X122795432Y-78694025D01*
X122795428Y-78694030D01*
X122699944Y-78859414D01*
X122699941Y-78859421D01*
X122641614Y-79038935D01*
X122640929Y-79041043D01*
X122620967Y-79230971D01*
X115650000Y-79230971D01*
X115650000Y-78990000D01*
X114733686Y-78990000D01*
X114759493Y-78949844D01*
X114800000Y-78811889D01*
X114800000Y-78668111D01*
X114759493Y-78530156D01*
X114733686Y-78490000D01*
X115650000Y-78490000D01*
X115650000Y-77842172D01*
X115649999Y-77842155D01*
X115643598Y-77782627D01*
X115643596Y-77782620D01*
X115593354Y-77647913D01*
X115593350Y-77647906D01*
X115507190Y-77532812D01*
X115507187Y-77532809D01*
X115392093Y-77446649D01*
X115392086Y-77446645D01*
X115257379Y-77396403D01*
X115257372Y-77396401D01*
X115197844Y-77390000D01*
X114550000Y-77390000D01*
X114550000Y-78304498D01*
X114442315Y-78255320D01*
X114335763Y-78240000D01*
X114264237Y-78240000D01*
X114157685Y-78255320D01*
X114050000Y-78304498D01*
X114050000Y-77390000D01*
X113402155Y-77390000D01*
X113342627Y-77396401D01*
X113342620Y-77396403D01*
X113207913Y-77446645D01*
X113207906Y-77446649D01*
X113092812Y-77532809D01*
X113092809Y-77532812D01*
X113006649Y-77647906D01*
X113006645Y-77647913D01*
X112956403Y-77782620D01*
X112956401Y-77782627D01*
X112950000Y-77842155D01*
X112950000Y-78490000D01*
X113866314Y-78490000D01*
X113840507Y-78530156D01*
X113800000Y-78668111D01*
X113800000Y-78811889D01*
X113840507Y-78949844D01*
X113866314Y-78990000D01*
X112950000Y-78990000D01*
X112950000Y-79637844D01*
X108184850Y-79637844D01*
X108208542Y-79564928D01*
X108228504Y-79375000D01*
X108208542Y-79185072D01*
X108149527Y-79003444D01*
X108054040Y-78838056D01*
X107926253Y-78696134D01*
X107771752Y-78583882D01*
X107597288Y-78506206D01*
X107597286Y-78506205D01*
X107410487Y-78466500D01*
X107219513Y-78466500D01*
X107032714Y-78506205D01*
X106858246Y-78583883D01*
X106703745Y-78696135D01*
X106575959Y-78838057D01*
X106480473Y-79003443D01*
X106480470Y-79003450D01*
X106439507Y-79129522D01*
X106421458Y-79185072D01*
X106401496Y-79375000D01*
X101473500Y-79375000D01*
X101473500Y-76581000D01*
X106655496Y-76581000D01*
X106675458Y-76770928D01*
X106675459Y-76770931D01*
X106734470Y-76952549D01*
X106734473Y-76952556D01*
X106829960Y-77117944D01*
X106957747Y-77259866D01*
X107112248Y-77372118D01*
X107286712Y-77449794D01*
X107473513Y-77489500D01*
X107664487Y-77489500D01*
X107851288Y-77449794D01*
X108025752Y-77372118D01*
X108065829Y-77343000D01*
X120625496Y-77343000D01*
X120645458Y-77532928D01*
X120645459Y-77532931D01*
X120704470Y-77714549D01*
X120704473Y-77714556D01*
X120799960Y-77879944D01*
X120927747Y-78021866D01*
X121082248Y-78134118D01*
X121256712Y-78211794D01*
X121443513Y-78251500D01*
X121634487Y-78251500D01*
X121821288Y-78211794D01*
X121995752Y-78134118D01*
X122150253Y-78021866D01*
X122278040Y-77879944D01*
X122373527Y-77714556D01*
X122432542Y-77532928D01*
X122452504Y-77343000D01*
X122432542Y-77153072D01*
X122373527Y-76971444D01*
X122278040Y-76806056D01*
X122162981Y-76678270D01*
X122150254Y-76664135D01*
X122062669Y-76600500D01*
X121995752Y-76551882D01*
X121821288Y-76474206D01*
X121821286Y-76474205D01*
X121634487Y-76434500D01*
X121443513Y-76434500D01*
X121256714Y-76474205D01*
X121082246Y-76551883D01*
X120927745Y-76664135D01*
X120799959Y-76806057D01*
X120704473Y-76971443D01*
X120704470Y-76971450D01*
X120645459Y-77153068D01*
X120645458Y-77153072D01*
X120625496Y-77343000D01*
X108065829Y-77343000D01*
X108180253Y-77259866D01*
X108308040Y-77117944D01*
X108403527Y-76952556D01*
X108462542Y-76770928D01*
X108482504Y-76581000D01*
X108462542Y-76391072D01*
X108403527Y-76209444D01*
X108308040Y-76044056D01*
X108180253Y-75902134D01*
X108025752Y-75789882D01*
X107851288Y-75712206D01*
X107851286Y-75712205D01*
X107664487Y-75672500D01*
X107473513Y-75672500D01*
X107286714Y-75712205D01*
X107112246Y-75789883D01*
X106957745Y-75902135D01*
X106829959Y-76044057D01*
X106734473Y-76209443D01*
X106734470Y-76209450D01*
X106682024Y-76370864D01*
X106675458Y-76391072D01*
X106655496Y-76581000D01*
X101473500Y-76581000D01*
X101473500Y-75308500D01*
X101493185Y-75241461D01*
X101545989Y-75195706D01*
X101597500Y-75184500D01*
X140643972Y-75184500D01*
X140711011Y-75204185D01*
G37*
%TD.AperFunction*%
%TD*%
M02*
