%TF.GenerationSoftware,KiCad,Pcbnew,8.0.4*%
%TF.CreationDate,2024-07-30T20:34:19-06:00*%
%TF.ProjectId,Breadboard Power Supply,42726561-6462-46f6-9172-6420506f7765,v1*%
%TF.SameCoordinates,Original*%
%TF.FileFunction,Copper,L2,Inr*%
%TF.FilePolarity,Positive*%
%FSLAX46Y46*%
G04 Gerber Fmt 4.6, Leading zero omitted, Abs format (unit mm)*
G04 Created by KiCad (PCBNEW 8.0.4) date 2024-07-30 20:34:19*
%MOMM*%
%LPD*%
G01*
G04 APERTURE LIST*
%TA.AperFunction,ComponentPad*%
%ADD10R,1.700000X1.700000*%
%TD*%
%TA.AperFunction,ComponentPad*%
%ADD11O,1.700000X1.700000*%
%TD*%
%TA.AperFunction,ComponentPad*%
%ADD12C,1.450000*%
%TD*%
%TA.AperFunction,ComponentPad*%
%ADD13C,1.830000*%
%TD*%
%TA.AperFunction,ViaPad*%
%ADD14C,0.800000*%
%TD*%
G04 APERTURE END LIST*
D10*
%TO.N,+1V8*%
%TO.C,J4*%
X151130000Y-87630000D03*
D11*
%TO.N,/TOP_POWER_RAIL*%
X153670000Y-87630000D03*
%TO.N,+3.3V*%
X151130000Y-90170000D03*
%TO.N,/TOP_POWER_RAIL*%
X153670000Y-90170000D03*
%TO.N,VBUS*%
X151130000Y-92710000D03*
%TO.N,/TOP_POWER_RAIL*%
X153670000Y-92710000D03*
%TO.N,+12V*%
X151130000Y-95250000D03*
%TO.N,/TOP_POWER_RAIL*%
X153670000Y-95250000D03*
%TD*%
D12*
%TO.N,GND*%
%TO.C,J1*%
X132592000Y-77974000D03*
X123952000Y-77974000D03*
X132592000Y-81774000D03*
X123952000Y-81774000D03*
%TD*%
D10*
%TO.N,/BOTTOM_POWER_RAIL*%
%TO.C,J5*%
X102870000Y-87630000D03*
D11*
%TO.N,+1V8*%
X105410000Y-87630000D03*
%TO.N,/BOTTOM_POWER_RAIL*%
X102870000Y-90170000D03*
%TO.N,+3.3V*%
X105410000Y-90170000D03*
%TO.N,/BOTTOM_POWER_RAIL*%
X102870000Y-92710000D03*
%TO.N,VBUS*%
X105410000Y-92710000D03*
%TO.N,/BOTTOM_POWER_RAIL*%
X102870000Y-95250000D03*
%TO.N,+12V*%
X105410000Y-95250000D03*
%TD*%
D13*
%TO.N,GND*%
%TO.C,TP1*%
X103759000Y-102638000D03*
X108839000Y-102638000D03*
%TD*%
%TO.N,GND*%
%TO.C,TP4*%
X147701000Y-102638000D03*
X152781000Y-102638000D03*
%TD*%
D10*
%TO.N,GND*%
%TO.C,J10*%
X114300000Y-78740000D03*
D11*
X114300000Y-81280000D03*
%TD*%
D10*
%TO.N,/TOP_POWER_RAIL*%
%TO.C,J8*%
X152082500Y-99060000D03*
D11*
%TO.N,GND*%
X149542500Y-99060000D03*
%TD*%
D10*
%TO.N,GND*%
%TO.C,J11*%
X142240000Y-78740000D03*
D11*
X142240000Y-81280000D03*
%TD*%
D10*
%TO.N,/BOTTOM_POWER_RAIL*%
%TO.C,J9*%
X106997500Y-99060000D03*
D11*
%TO.N,GND*%
X104457500Y-99060000D03*
%TD*%
D14*
%TO.N,GND*%
X154559000Y-83693000D03*
X118491000Y-78867000D03*
X149328930Y-85113070D03*
X144145000Y-84201000D03*
X104013000Y-85217000D03*
X121285000Y-77343000D03*
X118491000Y-83480000D03*
X108585000Y-85217000D03*
%TO.N,+3.3V*%
X144145000Y-83185000D03*
X115189000Y-84455000D03*
%TO.N,+1V8*%
X112395000Y-77851000D03*
%TO.N,+12V*%
X120269000Y-85471000D03*
X108458000Y-88773000D03*
%TO.N,VBUS*%
X111887000Y-76581000D03*
X126619000Y-80645000D03*
X135763000Y-77597000D03*
X129921000Y-80645000D03*
X144907000Y-81153000D03*
X150155000Y-83439000D03*
X112649000Y-83947000D03*
X117729000Y-76667000D03*
%TD*%
%TA.AperFunction,Conductor*%
%TO.N,VBUS*%
G36*
X155010039Y-75203685D02*
G01*
X155055794Y-75256489D01*
X155067000Y-75308000D01*
X155067000Y-82733756D01*
X155047315Y-82800795D01*
X154994511Y-82846550D01*
X154925353Y-82856494D01*
X154892565Y-82847036D01*
X154841288Y-82824206D01*
X154841286Y-82824205D01*
X154654487Y-82784500D01*
X154463513Y-82784500D01*
X154276714Y-82824205D01*
X154102246Y-82901883D01*
X153947745Y-83014135D01*
X153819959Y-83156057D01*
X153724473Y-83321443D01*
X153724470Y-83321450D01*
X153665459Y-83503068D01*
X153665458Y-83503072D01*
X153645496Y-83693000D01*
X153665458Y-83882928D01*
X153665459Y-83882931D01*
X153724470Y-84064549D01*
X153724473Y-84064556D01*
X153819960Y-84229944D01*
X153947747Y-84371866D01*
X154102248Y-84484118D01*
X154276712Y-84561794D01*
X154463513Y-84601500D01*
X154654487Y-84601500D01*
X154841288Y-84561794D01*
X154892565Y-84538963D01*
X154961813Y-84529679D01*
X155025090Y-84559307D01*
X155062304Y-84618441D01*
X155067000Y-84652243D01*
X155067000Y-86867976D01*
X155047315Y-86935015D01*
X154994511Y-86980770D01*
X154925353Y-86990714D01*
X154861797Y-86961689D01*
X154839192Y-86935798D01*
X154745723Y-86792734D01*
X154745715Y-86792723D01*
X154593243Y-86627097D01*
X154593238Y-86627092D01*
X154415577Y-86488812D01*
X154415572Y-86488808D01*
X154217580Y-86381661D01*
X154217577Y-86381659D01*
X154217574Y-86381658D01*
X154217571Y-86381657D01*
X154217569Y-86381656D01*
X154004637Y-86308556D01*
X153782569Y-86271500D01*
X153557431Y-86271500D01*
X153335362Y-86308556D01*
X153122430Y-86381656D01*
X153122419Y-86381661D01*
X152924427Y-86488808D01*
X152924422Y-86488812D01*
X152746761Y-86627092D01*
X152683548Y-86695760D01*
X152623661Y-86731750D01*
X152553823Y-86729649D01*
X152496207Y-86690124D01*
X152476138Y-86655110D01*
X152430889Y-86533796D01*
X152397214Y-86488812D01*
X152343261Y-86416739D01*
X152226204Y-86329111D01*
X152089203Y-86278011D01*
X152028654Y-86271500D01*
X152028638Y-86271500D01*
X150231362Y-86271500D01*
X150231345Y-86271500D01*
X150170797Y-86278011D01*
X150170795Y-86278011D01*
X150033795Y-86329111D01*
X149916739Y-86416739D01*
X149829111Y-86533795D01*
X149778011Y-86670795D01*
X149778011Y-86670797D01*
X149771500Y-86731345D01*
X149771500Y-88528654D01*
X149778011Y-88589202D01*
X149778011Y-88589204D01*
X149829111Y-88726204D01*
X149916739Y-88843261D01*
X150033796Y-88930889D01*
X150085737Y-88950262D01*
X150151595Y-88974827D01*
X150207528Y-89016699D01*
X150231944Y-89082163D01*
X150217092Y-89150436D01*
X150199490Y-89174991D01*
X150054279Y-89332730D01*
X150054276Y-89332734D01*
X149931140Y-89521207D01*
X149840703Y-89727385D01*
X149785436Y-89945628D01*
X149785434Y-89945640D01*
X149766844Y-90169994D01*
X149766844Y-90170005D01*
X149785434Y-90394359D01*
X149785436Y-90394371D01*
X149840703Y-90612614D01*
X149931140Y-90818792D01*
X150054276Y-91007265D01*
X150054284Y-91007276D01*
X150206756Y-91172902D01*
X150206760Y-91172906D01*
X150384424Y-91311189D01*
X150420930Y-91330945D01*
X150427695Y-91334606D01*
X150477286Y-91383825D01*
X150492394Y-91452042D01*
X150468224Y-91517597D01*
X150439802Y-91545236D01*
X150258922Y-91671890D01*
X150258920Y-91671891D01*
X150091891Y-91838920D01*
X150091886Y-91838926D01*
X149956400Y-92032420D01*
X149956399Y-92032422D01*
X149856570Y-92246507D01*
X149856567Y-92246513D01*
X149799364Y-92459999D01*
X149799364Y-92460000D01*
X150696988Y-92460000D01*
X150664075Y-92517007D01*
X150630000Y-92644174D01*
X150630000Y-92775826D01*
X150664075Y-92902993D01*
X150696988Y-92960000D01*
X149799364Y-92960000D01*
X149856567Y-93173486D01*
X149856570Y-93173492D01*
X149956399Y-93387578D01*
X150091894Y-93581082D01*
X150258917Y-93748105D01*
X150439802Y-93874763D01*
X150483427Y-93929340D01*
X150490619Y-93998839D01*
X150459097Y-94061193D01*
X150427697Y-94085392D01*
X150384427Y-94108809D01*
X150384422Y-94108812D01*
X150206761Y-94247092D01*
X150206756Y-94247097D01*
X150054284Y-94412723D01*
X150054276Y-94412734D01*
X149931140Y-94601207D01*
X149840703Y-94807385D01*
X149785436Y-95025628D01*
X149785434Y-95025640D01*
X149766844Y-95249994D01*
X149766844Y-95250005D01*
X149785434Y-95474359D01*
X149785436Y-95474371D01*
X149840703Y-95692614D01*
X149931140Y-95898792D01*
X150054276Y-96087265D01*
X150054284Y-96087276D01*
X150206756Y-96252902D01*
X150206760Y-96252906D01*
X150384424Y-96391189D01*
X150384425Y-96391189D01*
X150384427Y-96391191D01*
X150511135Y-96459761D01*
X150582426Y-96498342D01*
X150795365Y-96571444D01*
X151017431Y-96608500D01*
X151242569Y-96608500D01*
X151464635Y-96571444D01*
X151677574Y-96498342D01*
X151875576Y-96391189D01*
X152053240Y-96252906D01*
X152205722Y-96087268D01*
X152296193Y-95948790D01*
X152349338Y-95903437D01*
X152418569Y-95894013D01*
X152481905Y-95923515D01*
X152503804Y-95948787D01*
X152594278Y-96087268D01*
X152594283Y-96087273D01*
X152594284Y-96087276D01*
X152746756Y-96252902D01*
X152746760Y-96252906D01*
X152924424Y-96391189D01*
X152924425Y-96391189D01*
X152924427Y-96391191D01*
X153051135Y-96459761D01*
X153122426Y-96498342D01*
X153335365Y-96571444D01*
X153557431Y-96608500D01*
X153782569Y-96608500D01*
X154004635Y-96571444D01*
X154217574Y-96498342D01*
X154415576Y-96391189D01*
X154593240Y-96252906D01*
X154745722Y-96087268D01*
X154839193Y-95944198D01*
X154892338Y-95898845D01*
X154961569Y-95889421D01*
X155024905Y-95918923D01*
X155062236Y-95977983D01*
X155067000Y-96012023D01*
X155067000Y-103889000D01*
X155047315Y-103956039D01*
X154994511Y-104001794D01*
X154943000Y-104013000D01*
X153693201Y-104013000D01*
X153626162Y-103993315D01*
X153580407Y-103940511D01*
X153570463Y-103871353D01*
X153599488Y-103807797D01*
X153617039Y-103791147D01*
X153656632Y-103760329D01*
X153748415Y-103688893D01*
X153908192Y-103515329D01*
X154037222Y-103317833D01*
X154131985Y-103101794D01*
X154189898Y-102873103D01*
X154209379Y-102638000D01*
X154189898Y-102402897D01*
X154131985Y-102174206D01*
X154037222Y-101958167D01*
X153908194Y-101760673D01*
X153880620Y-101730719D01*
X153748415Y-101587107D01*
X153748410Y-101587103D01*
X153748407Y-101587100D01*
X153562257Y-101442214D01*
X153562246Y-101442207D01*
X153354779Y-101329932D01*
X153354776Y-101329931D01*
X153354773Y-101329929D01*
X153354767Y-101329927D01*
X153354765Y-101329926D01*
X153131648Y-101253329D01*
X152898955Y-101214500D01*
X152663045Y-101214500D01*
X152430351Y-101253329D01*
X152207234Y-101329926D01*
X152207220Y-101329932D01*
X151999753Y-101442207D01*
X151999742Y-101442214D01*
X151813592Y-101587100D01*
X151813582Y-101587110D01*
X151653805Y-101760673D01*
X151524777Y-101958167D01*
X151430015Y-102174206D01*
X151372102Y-102402896D01*
X151372100Y-102402904D01*
X151352621Y-102637994D01*
X151352621Y-102638005D01*
X151372100Y-102873095D01*
X151372102Y-102873103D01*
X151430015Y-103101793D01*
X151524777Y-103317832D01*
X151653805Y-103515326D01*
X151653808Y-103515329D01*
X151813585Y-103688893D01*
X151873840Y-103735791D01*
X151944961Y-103791147D01*
X151985774Y-103847857D01*
X151989449Y-103917630D01*
X151954817Y-103978313D01*
X151892876Y-104010640D01*
X151868799Y-104013000D01*
X148613201Y-104013000D01*
X148546162Y-103993315D01*
X148500407Y-103940511D01*
X148490463Y-103871353D01*
X148519488Y-103807797D01*
X148537039Y-103791147D01*
X148576632Y-103760329D01*
X148668415Y-103688893D01*
X148828192Y-103515329D01*
X148957222Y-103317833D01*
X149051985Y-103101794D01*
X149109898Y-102873103D01*
X149129379Y-102638000D01*
X149109898Y-102402897D01*
X149051985Y-102174206D01*
X148957222Y-101958167D01*
X148828194Y-101760673D01*
X148800620Y-101730719D01*
X148668415Y-101587107D01*
X148668410Y-101587103D01*
X148668407Y-101587100D01*
X148482257Y-101442214D01*
X148482246Y-101442207D01*
X148274779Y-101329932D01*
X148274776Y-101329931D01*
X148274773Y-101329929D01*
X148274767Y-101329927D01*
X148274765Y-101329926D01*
X148051648Y-101253329D01*
X147818955Y-101214500D01*
X147583045Y-101214500D01*
X147350351Y-101253329D01*
X147127234Y-101329926D01*
X147127220Y-101329932D01*
X146919753Y-101442207D01*
X146919742Y-101442214D01*
X146733592Y-101587100D01*
X146733582Y-101587110D01*
X146573805Y-101760673D01*
X146444777Y-101958167D01*
X146350015Y-102174206D01*
X146292102Y-102402896D01*
X146292100Y-102402904D01*
X146272621Y-102637994D01*
X146272621Y-102638005D01*
X146292100Y-102873095D01*
X146292102Y-102873103D01*
X146350015Y-103101793D01*
X146444777Y-103317832D01*
X146573805Y-103515326D01*
X146573808Y-103515329D01*
X146733585Y-103688893D01*
X146793840Y-103735791D01*
X146864961Y-103791147D01*
X146905774Y-103847857D01*
X146909449Y-103917630D01*
X146874817Y-103978313D01*
X146812876Y-104010640D01*
X146788799Y-104013000D01*
X145920000Y-104013000D01*
X145852961Y-103993315D01*
X145807206Y-103940511D01*
X145796000Y-103889000D01*
X145796000Y-99059994D01*
X148179344Y-99059994D01*
X148179344Y-99060005D01*
X148197934Y-99284359D01*
X148197936Y-99284371D01*
X148253203Y-99502614D01*
X148343640Y-99708792D01*
X148466776Y-99897265D01*
X148466784Y-99897276D01*
X148593467Y-100034888D01*
X148619260Y-100062906D01*
X148796924Y-100201189D01*
X148796925Y-100201189D01*
X148796927Y-100201191D01*
X148923635Y-100269761D01*
X148994926Y-100308342D01*
X149207865Y-100381444D01*
X149429931Y-100418500D01*
X149655069Y-100418500D01*
X149877135Y-100381444D01*
X150090074Y-100308342D01*
X150288076Y-100201189D01*
X150465740Y-100062906D01*
X150528952Y-99994239D01*
X150588837Y-99958250D01*
X150658675Y-99960349D01*
X150716291Y-99999873D01*
X150736361Y-100034888D01*
X150781611Y-100156204D01*
X150869239Y-100273261D01*
X150986296Y-100360889D01*
X151123299Y-100411989D01*
X151150550Y-100414918D01*
X151183845Y-100418499D01*
X151183862Y-100418500D01*
X152981138Y-100418500D01*
X152981154Y-100418499D01*
X153008192Y-100415591D01*
X153041701Y-100411989D01*
X153178704Y-100360889D01*
X153295761Y-100273261D01*
X153383389Y-100156204D01*
X153434489Y-100019201D01*
X153438091Y-99985692D01*
X153440999Y-99958654D01*
X153441000Y-99958637D01*
X153441000Y-98161362D01*
X153440999Y-98161345D01*
X153437172Y-98125759D01*
X153434489Y-98100799D01*
X153383389Y-97963796D01*
X153295761Y-97846739D01*
X153178704Y-97759111D01*
X153041703Y-97708011D01*
X152981154Y-97701500D01*
X152981138Y-97701500D01*
X151183862Y-97701500D01*
X151183845Y-97701500D01*
X151123297Y-97708011D01*
X151123295Y-97708011D01*
X150986295Y-97759111D01*
X150869239Y-97846739D01*
X150781611Y-97963795D01*
X150736361Y-98085111D01*
X150694489Y-98141044D01*
X150629024Y-98165460D01*
X150560752Y-98150607D01*
X150528954Y-98125762D01*
X150465740Y-98057094D01*
X150288076Y-97918811D01*
X150288075Y-97918810D01*
X150288072Y-97918808D01*
X150090080Y-97811661D01*
X150090077Y-97811659D01*
X150090074Y-97811658D01*
X150090071Y-97811657D01*
X150090069Y-97811656D01*
X149877137Y-97738556D01*
X149655069Y-97701500D01*
X149429931Y-97701500D01*
X149207862Y-97738556D01*
X148994930Y-97811656D01*
X148994919Y-97811661D01*
X148796927Y-97918808D01*
X148796922Y-97918812D01*
X148619261Y-98057092D01*
X148619256Y-98057097D01*
X148466784Y-98222723D01*
X148466776Y-98222734D01*
X148343640Y-98411207D01*
X148253203Y-98617385D01*
X148197936Y-98835628D01*
X148197934Y-98835640D01*
X148179344Y-99059994D01*
X145796000Y-99059994D01*
X145796000Y-85979000D01*
X121229865Y-85979000D01*
X121162826Y-85959315D01*
X121117071Y-85906511D01*
X121107127Y-85837353D01*
X121111934Y-85816682D01*
X121162542Y-85660928D01*
X121182504Y-85471000D01*
X121162542Y-85281072D01*
X121107954Y-85113070D01*
X148415426Y-85113070D01*
X148435388Y-85302998D01*
X148435389Y-85303001D01*
X148494400Y-85484619D01*
X148494403Y-85484626D01*
X148589890Y-85650014D01*
X148717677Y-85791936D01*
X148872178Y-85904188D01*
X149046642Y-85981864D01*
X149233443Y-86021570D01*
X149424417Y-86021570D01*
X149611218Y-85981864D01*
X149785682Y-85904188D01*
X149940183Y-85791936D01*
X150067970Y-85650014D01*
X150163457Y-85484626D01*
X150222472Y-85302998D01*
X150242434Y-85113070D01*
X150222472Y-84923142D01*
X150163457Y-84741514D01*
X150067970Y-84576126D01*
X149940183Y-84434204D01*
X149785682Y-84321952D01*
X149611218Y-84244276D01*
X149611216Y-84244275D01*
X149424417Y-84204570D01*
X149233443Y-84204570D01*
X149046644Y-84244275D01*
X148872176Y-84321953D01*
X148717675Y-84434205D01*
X148589889Y-84576127D01*
X148494403Y-84741513D01*
X148494400Y-84741520D01*
X148449450Y-84879864D01*
X148435388Y-84923142D01*
X148415426Y-85113070D01*
X121107954Y-85113070D01*
X121103527Y-85099444D01*
X121008040Y-84934056D01*
X120880253Y-84792134D01*
X120725752Y-84679882D01*
X120551288Y-84602206D01*
X120551286Y-84602205D01*
X120364487Y-84562500D01*
X120173513Y-84562500D01*
X119986714Y-84602205D01*
X119812246Y-84679883D01*
X119657745Y-84792135D01*
X119529959Y-84934057D01*
X119434473Y-85099443D01*
X119434470Y-85099450D01*
X119396276Y-85217000D01*
X119375458Y-85281072D01*
X119355496Y-85471000D01*
X119375458Y-85660928D01*
X119375459Y-85660931D01*
X119426066Y-85816682D01*
X119428061Y-85886523D01*
X119391981Y-85946356D01*
X119329280Y-85977184D01*
X119308135Y-85979000D01*
X110744000Y-85979000D01*
X110744000Y-103889000D01*
X110724315Y-103956039D01*
X110671511Y-104001794D01*
X110620000Y-104013000D01*
X109751201Y-104013000D01*
X109684162Y-103993315D01*
X109638407Y-103940511D01*
X109628463Y-103871353D01*
X109657488Y-103807797D01*
X109675039Y-103791147D01*
X109714632Y-103760329D01*
X109806415Y-103688893D01*
X109966192Y-103515329D01*
X110095222Y-103317833D01*
X110189985Y-103101794D01*
X110247898Y-102873103D01*
X110267379Y-102638000D01*
X110247898Y-102402897D01*
X110189985Y-102174206D01*
X110095222Y-101958167D01*
X109966194Y-101760673D01*
X109938620Y-101730719D01*
X109806415Y-101587107D01*
X109806410Y-101587103D01*
X109806407Y-101587100D01*
X109620257Y-101442214D01*
X109620246Y-101442207D01*
X109412779Y-101329932D01*
X109412776Y-101329931D01*
X109412773Y-101329929D01*
X109412767Y-101329927D01*
X109412765Y-101329926D01*
X109189648Y-101253329D01*
X108956955Y-101214500D01*
X108721045Y-101214500D01*
X108488351Y-101253329D01*
X108265234Y-101329926D01*
X108265220Y-101329932D01*
X108057753Y-101442207D01*
X108057742Y-101442214D01*
X107871592Y-101587100D01*
X107871582Y-101587110D01*
X107711805Y-101760673D01*
X107582777Y-101958167D01*
X107488015Y-102174206D01*
X107430102Y-102402896D01*
X107430100Y-102402904D01*
X107410621Y-102637994D01*
X107410621Y-102638005D01*
X107430100Y-102873095D01*
X107430102Y-102873103D01*
X107488015Y-103101793D01*
X107582777Y-103317832D01*
X107711805Y-103515326D01*
X107711808Y-103515329D01*
X107871585Y-103688893D01*
X107931840Y-103735791D01*
X108002961Y-103791147D01*
X108043774Y-103847857D01*
X108047449Y-103917630D01*
X108012817Y-103978313D01*
X107950876Y-104010640D01*
X107926799Y-104013000D01*
X104671201Y-104013000D01*
X104604162Y-103993315D01*
X104558407Y-103940511D01*
X104548463Y-103871353D01*
X104577488Y-103807797D01*
X104595039Y-103791147D01*
X104634632Y-103760329D01*
X104726415Y-103688893D01*
X104886192Y-103515329D01*
X105015222Y-103317833D01*
X105109985Y-103101794D01*
X105167898Y-102873103D01*
X105187379Y-102638000D01*
X105167898Y-102402897D01*
X105109985Y-102174206D01*
X105015222Y-101958167D01*
X104886194Y-101760673D01*
X104858620Y-101730719D01*
X104726415Y-101587107D01*
X104726410Y-101587103D01*
X104726407Y-101587100D01*
X104540257Y-101442214D01*
X104540246Y-101442207D01*
X104332779Y-101329932D01*
X104332776Y-101329931D01*
X104332773Y-101329929D01*
X104332767Y-101329927D01*
X104332765Y-101329926D01*
X104109648Y-101253329D01*
X103876955Y-101214500D01*
X103641045Y-101214500D01*
X103408351Y-101253329D01*
X103185234Y-101329926D01*
X103185220Y-101329932D01*
X102977753Y-101442207D01*
X102977742Y-101442214D01*
X102791592Y-101587100D01*
X102791582Y-101587110D01*
X102631805Y-101760673D01*
X102502777Y-101958167D01*
X102408015Y-102174206D01*
X102350102Y-102402896D01*
X102350100Y-102402904D01*
X102330621Y-102637994D01*
X102330621Y-102638005D01*
X102350100Y-102873095D01*
X102350102Y-102873103D01*
X102408015Y-103101793D01*
X102502777Y-103317832D01*
X102631805Y-103515326D01*
X102631808Y-103515329D01*
X102791585Y-103688893D01*
X102851840Y-103735791D01*
X102922961Y-103791147D01*
X102963774Y-103847857D01*
X102967449Y-103917630D01*
X102932817Y-103978313D01*
X102870876Y-104010640D01*
X102846799Y-104013000D01*
X101597000Y-104013000D01*
X101529961Y-103993315D01*
X101484206Y-103940511D01*
X101473000Y-103889000D01*
X101473000Y-99059994D01*
X103094344Y-99059994D01*
X103094344Y-99060005D01*
X103112934Y-99284359D01*
X103112936Y-99284371D01*
X103168203Y-99502614D01*
X103258640Y-99708792D01*
X103381776Y-99897265D01*
X103381784Y-99897276D01*
X103508467Y-100034888D01*
X103534260Y-100062906D01*
X103711924Y-100201189D01*
X103711925Y-100201189D01*
X103711927Y-100201191D01*
X103838635Y-100269761D01*
X103909926Y-100308342D01*
X104122865Y-100381444D01*
X104344931Y-100418500D01*
X104570069Y-100418500D01*
X104792135Y-100381444D01*
X105005074Y-100308342D01*
X105203076Y-100201189D01*
X105380740Y-100062906D01*
X105443952Y-99994239D01*
X105503837Y-99958250D01*
X105573675Y-99960349D01*
X105631291Y-99999873D01*
X105651361Y-100034888D01*
X105696611Y-100156204D01*
X105784239Y-100273261D01*
X105901296Y-100360889D01*
X106038299Y-100411989D01*
X106065550Y-100414918D01*
X106098845Y-100418499D01*
X106098862Y-100418500D01*
X107896138Y-100418500D01*
X107896154Y-100418499D01*
X107923192Y-100415591D01*
X107956701Y-100411989D01*
X108093704Y-100360889D01*
X108210761Y-100273261D01*
X108298389Y-100156204D01*
X108349489Y-100019201D01*
X108353091Y-99985692D01*
X108355999Y-99958654D01*
X108356000Y-99958637D01*
X108356000Y-98161362D01*
X108355999Y-98161345D01*
X108352172Y-98125759D01*
X108349489Y-98100799D01*
X108298389Y-97963796D01*
X108210761Y-97846739D01*
X108093704Y-97759111D01*
X107956703Y-97708011D01*
X107896154Y-97701500D01*
X107896138Y-97701500D01*
X106098862Y-97701500D01*
X106098845Y-97701500D01*
X106038297Y-97708011D01*
X106038295Y-97708011D01*
X105901295Y-97759111D01*
X105784239Y-97846739D01*
X105696611Y-97963795D01*
X105651361Y-98085111D01*
X105609489Y-98141044D01*
X105544024Y-98165460D01*
X105475752Y-98150607D01*
X105443954Y-98125762D01*
X105380740Y-98057094D01*
X105203076Y-97918811D01*
X105203075Y-97918810D01*
X105203072Y-97918808D01*
X105005080Y-97811661D01*
X105005077Y-97811659D01*
X105005074Y-97811658D01*
X105005071Y-97811657D01*
X105005069Y-97811656D01*
X104792137Y-97738556D01*
X104570069Y-97701500D01*
X104344931Y-97701500D01*
X104122862Y-97738556D01*
X103909930Y-97811656D01*
X103909919Y-97811661D01*
X103711927Y-97918808D01*
X103711922Y-97918812D01*
X103534261Y-98057092D01*
X103534256Y-98057097D01*
X103381784Y-98222723D01*
X103381776Y-98222734D01*
X103258640Y-98411207D01*
X103168203Y-98617385D01*
X103112936Y-98835628D01*
X103112934Y-98835640D01*
X103094344Y-99059994D01*
X101473000Y-99059994D01*
X101473000Y-96012023D01*
X101492685Y-95944984D01*
X101545489Y-95899229D01*
X101614647Y-95889285D01*
X101678203Y-95918310D01*
X101700804Y-95944195D01*
X101794278Y-96087268D01*
X101794283Y-96087273D01*
X101794284Y-96087276D01*
X101946756Y-96252902D01*
X101946760Y-96252906D01*
X102124424Y-96391189D01*
X102124425Y-96391189D01*
X102124427Y-96391191D01*
X102251135Y-96459761D01*
X102322426Y-96498342D01*
X102535365Y-96571444D01*
X102757431Y-96608500D01*
X102982569Y-96608500D01*
X103204635Y-96571444D01*
X103417574Y-96498342D01*
X103615576Y-96391189D01*
X103793240Y-96252906D01*
X103945722Y-96087268D01*
X104036193Y-95948790D01*
X104089338Y-95903437D01*
X104158569Y-95894013D01*
X104221905Y-95923515D01*
X104243804Y-95948787D01*
X104334278Y-96087268D01*
X104334283Y-96087273D01*
X104334284Y-96087276D01*
X104486756Y-96252902D01*
X104486760Y-96252906D01*
X104664424Y-96391189D01*
X104664425Y-96391189D01*
X104664427Y-96391191D01*
X104791135Y-96459761D01*
X104862426Y-96498342D01*
X105075365Y-96571444D01*
X105297431Y-96608500D01*
X105522569Y-96608500D01*
X105744635Y-96571444D01*
X105957574Y-96498342D01*
X106155576Y-96391189D01*
X106333240Y-96252906D01*
X106485722Y-96087268D01*
X106608860Y-95898791D01*
X106699296Y-95692616D01*
X106754564Y-95474368D01*
X106773156Y-95250000D01*
X106754564Y-95025632D01*
X106699296Y-94807384D01*
X106608860Y-94601209D01*
X106595706Y-94581076D01*
X106485723Y-94412734D01*
X106485715Y-94412723D01*
X106333243Y-94247097D01*
X106333238Y-94247092D01*
X106155577Y-94108812D01*
X106155577Y-94108811D01*
X106112303Y-94085393D01*
X106062713Y-94036173D01*
X106047605Y-93967957D01*
X106071775Y-93902401D01*
X106100198Y-93874763D01*
X106281079Y-93748108D01*
X106448105Y-93581082D01*
X106583600Y-93387578D01*
X106683429Y-93173492D01*
X106683432Y-93173486D01*
X106740636Y-92960000D01*
X105843012Y-92960000D01*
X105875925Y-92902993D01*
X105910000Y-92775826D01*
X105910000Y-92644174D01*
X105875925Y-92517007D01*
X105843012Y-92460000D01*
X106740636Y-92460000D01*
X106740635Y-92459999D01*
X106683432Y-92246513D01*
X106683429Y-92246507D01*
X106583600Y-92032422D01*
X106583599Y-92032420D01*
X106448113Y-91838926D01*
X106448108Y-91838920D01*
X106281082Y-91671894D01*
X106100197Y-91545236D01*
X106056572Y-91490659D01*
X106049380Y-91421160D01*
X106080902Y-91358806D01*
X106112300Y-91334608D01*
X106155576Y-91311189D01*
X106333240Y-91172906D01*
X106485722Y-91007268D01*
X106608860Y-90818791D01*
X106699296Y-90612616D01*
X106754564Y-90394368D01*
X106773156Y-90170000D01*
X106754564Y-89945632D01*
X106699296Y-89727384D01*
X106608860Y-89521209D01*
X106595706Y-89501076D01*
X106485723Y-89332734D01*
X106485715Y-89332723D01*
X106333243Y-89167097D01*
X106333238Y-89167092D01*
X106155577Y-89028812D01*
X106155578Y-89028812D01*
X106155576Y-89028811D01*
X106119070Y-89009055D01*
X106069479Y-88959836D01*
X106054371Y-88891619D01*
X106078541Y-88826064D01*
X106119070Y-88790945D01*
X106119084Y-88790936D01*
X106152229Y-88773000D01*
X107544496Y-88773000D01*
X107564458Y-88962928D01*
X107564459Y-88962931D01*
X107623470Y-89144549D01*
X107623473Y-89144556D01*
X107718960Y-89309944D01*
X107846747Y-89451866D01*
X108001248Y-89564118D01*
X108175712Y-89641794D01*
X108362513Y-89681500D01*
X108553487Y-89681500D01*
X108740288Y-89641794D01*
X108914752Y-89564118D01*
X109069253Y-89451866D01*
X109197040Y-89309944D01*
X109292527Y-89144556D01*
X109351542Y-88962928D01*
X109371504Y-88773000D01*
X109351542Y-88583072D01*
X109292527Y-88401444D01*
X109197040Y-88236056D01*
X109069253Y-88094134D01*
X108914752Y-87981882D01*
X108740288Y-87904206D01*
X108740286Y-87904205D01*
X108553487Y-87864500D01*
X108362513Y-87864500D01*
X108175714Y-87904205D01*
X108001246Y-87981883D01*
X107846745Y-88094135D01*
X107718959Y-88236057D01*
X107623473Y-88401443D01*
X107623470Y-88401450D01*
X107575543Y-88548956D01*
X107564458Y-88583072D01*
X107544496Y-88773000D01*
X106152229Y-88773000D01*
X106155576Y-88771189D01*
X106333240Y-88632906D01*
X106485722Y-88467268D01*
X106608860Y-88278791D01*
X106699296Y-88072616D01*
X106754564Y-87854368D01*
X106773156Y-87630000D01*
X106754564Y-87405632D01*
X106699296Y-87187384D01*
X106608860Y-86981209D01*
X106485722Y-86792732D01*
X106485719Y-86792729D01*
X106485715Y-86792723D01*
X106333243Y-86627097D01*
X106333238Y-86627092D01*
X106155577Y-86488812D01*
X106155572Y-86488808D01*
X105957580Y-86381661D01*
X105957577Y-86381659D01*
X105957574Y-86381658D01*
X105957571Y-86381657D01*
X105957569Y-86381656D01*
X105744637Y-86308556D01*
X105522569Y-86271500D01*
X105297431Y-86271500D01*
X105075362Y-86308556D01*
X104862430Y-86381656D01*
X104862419Y-86381661D01*
X104664427Y-86488808D01*
X104664422Y-86488812D01*
X104486761Y-86627092D01*
X104423548Y-86695760D01*
X104363661Y-86731750D01*
X104293823Y-86729649D01*
X104236207Y-86690124D01*
X104216138Y-86655110D01*
X104170889Y-86533796D01*
X104137214Y-86488812D01*
X104083261Y-86416739D01*
X103992460Y-86348766D01*
X103950590Y-86292833D01*
X103945606Y-86223141D01*
X103979091Y-86161818D01*
X104040414Y-86128334D01*
X104066772Y-86125500D01*
X104108487Y-86125500D01*
X104295288Y-86085794D01*
X104469752Y-86008118D01*
X104624253Y-85895866D01*
X104752040Y-85753944D01*
X104847527Y-85588556D01*
X104906542Y-85406928D01*
X104926504Y-85217000D01*
X107671496Y-85217000D01*
X107691458Y-85406928D01*
X107691459Y-85406931D01*
X107750470Y-85588549D01*
X107750473Y-85588556D01*
X107845960Y-85753944D01*
X107921062Y-85837353D01*
X107965334Y-85886523D01*
X107973747Y-85895866D01*
X108128248Y-86008118D01*
X108302712Y-86085794D01*
X108489513Y-86125500D01*
X108680487Y-86125500D01*
X108867288Y-86085794D01*
X109041752Y-86008118D01*
X109196253Y-85895866D01*
X109324040Y-85753944D01*
X109419527Y-85588556D01*
X109478542Y-85406928D01*
X109498504Y-85217000D01*
X109478542Y-85027072D01*
X109419527Y-84845444D01*
X109324040Y-84680056D01*
X109196253Y-84538134D01*
X109081829Y-84455000D01*
X114275496Y-84455000D01*
X114295458Y-84644928D01*
X114295459Y-84644931D01*
X114354470Y-84826549D01*
X114354473Y-84826556D01*
X114449960Y-84991944D01*
X114577747Y-85133866D01*
X114732248Y-85246118D01*
X114906712Y-85323794D01*
X115093513Y-85363500D01*
X115284487Y-85363500D01*
X115471288Y-85323794D01*
X115645752Y-85246118D01*
X115800253Y-85133866D01*
X115928040Y-84991944D01*
X116023527Y-84826556D01*
X116082542Y-84644928D01*
X116102504Y-84455000D01*
X116082542Y-84265072D01*
X116023527Y-84083444D01*
X115928040Y-83918056D01*
X115800253Y-83776134D01*
X115645752Y-83663882D01*
X115471288Y-83586206D01*
X115471286Y-83586205D01*
X115284487Y-83546500D01*
X115093513Y-83546500D01*
X114906714Y-83586205D01*
X114732246Y-83663883D01*
X114577745Y-83776135D01*
X114449959Y-83918057D01*
X114354473Y-84083443D01*
X114354470Y-84083450D01*
X114302215Y-84244275D01*
X114295458Y-84265072D01*
X114275496Y-84455000D01*
X109081829Y-84455000D01*
X109041752Y-84425882D01*
X108867288Y-84348206D01*
X108867286Y-84348205D01*
X108680487Y-84308500D01*
X108489513Y-84308500D01*
X108302714Y-84348205D01*
X108128246Y-84425883D01*
X107973745Y-84538135D01*
X107845959Y-84680057D01*
X107750473Y-84845443D01*
X107750470Y-84845450D01*
X107702816Y-84992116D01*
X107691458Y-85027072D01*
X107671496Y-85217000D01*
X104926504Y-85217000D01*
X104906542Y-85027072D01*
X104847527Y-84845444D01*
X104752040Y-84680056D01*
X104624253Y-84538134D01*
X104469752Y-84425882D01*
X104295288Y-84348206D01*
X104295286Y-84348205D01*
X104108487Y-84308500D01*
X103917513Y-84308500D01*
X103730714Y-84348205D01*
X103556246Y-84425883D01*
X103401745Y-84538135D01*
X103273959Y-84680057D01*
X103178473Y-84845443D01*
X103178470Y-84845450D01*
X103130816Y-84992116D01*
X103119458Y-85027072D01*
X103099496Y-85217000D01*
X103119458Y-85406928D01*
X103119459Y-85406931D01*
X103178470Y-85588549D01*
X103178473Y-85588556D01*
X103273960Y-85753944D01*
X103349062Y-85837353D01*
X103393334Y-85886523D01*
X103401747Y-85895866D01*
X103556248Y-86008118D01*
X103614877Y-86034221D01*
X103668113Y-86079470D01*
X103688435Y-86146319D01*
X103669390Y-86213543D01*
X103617024Y-86259799D01*
X103564441Y-86271500D01*
X101971345Y-86271500D01*
X101910797Y-86278011D01*
X101910795Y-86278011D01*
X101773795Y-86329111D01*
X101724530Y-86365991D01*
X101671309Y-86405831D01*
X101605847Y-86430248D01*
X101537574Y-86415396D01*
X101488168Y-86365991D01*
X101473000Y-86306564D01*
X101473000Y-83480000D01*
X117577496Y-83480000D01*
X117597458Y-83669928D01*
X117597459Y-83669931D01*
X117656470Y-83851549D01*
X117656473Y-83851556D01*
X117751960Y-84016944D01*
X117879747Y-84158866D01*
X118034248Y-84271118D01*
X118208712Y-84348794D01*
X118395513Y-84388500D01*
X118586487Y-84388500D01*
X118773288Y-84348794D01*
X118947752Y-84271118D01*
X119102253Y-84158866D01*
X119230040Y-84016944D01*
X119325527Y-83851556D01*
X119384542Y-83669928D01*
X119404504Y-83480000D01*
X119384542Y-83290072D01*
X119350402Y-83185000D01*
X143231496Y-83185000D01*
X143251458Y-83374928D01*
X143251459Y-83374931D01*
X143310470Y-83556549D01*
X143310475Y-83556561D01*
X143353453Y-83631001D01*
X143369926Y-83698901D01*
X143353453Y-83754999D01*
X143310475Y-83829438D01*
X143310470Y-83829450D01*
X143251459Y-84011068D01*
X143251458Y-84011072D01*
X143231496Y-84201000D01*
X143251458Y-84390928D01*
X143251459Y-84390931D01*
X143310470Y-84572549D01*
X143310473Y-84572556D01*
X143405960Y-84737944D01*
X143533747Y-84879866D01*
X143688248Y-84992118D01*
X143862712Y-85069794D01*
X144049513Y-85109500D01*
X144240487Y-85109500D01*
X144427288Y-85069794D01*
X144601752Y-84992118D01*
X144756253Y-84879866D01*
X144884040Y-84737944D01*
X144979527Y-84572556D01*
X145038542Y-84390928D01*
X145058504Y-84201000D01*
X145038542Y-84011072D01*
X144986712Y-83851556D01*
X144979528Y-83829446D01*
X144979527Y-83829444D01*
X144936545Y-83754998D01*
X144920073Y-83687101D01*
X144936545Y-83631001D01*
X144979527Y-83556556D01*
X145038542Y-83374928D01*
X145058504Y-83185000D01*
X145038542Y-82995072D01*
X144979527Y-82813444D01*
X144884040Y-82648056D01*
X144756253Y-82506134D01*
X144601752Y-82393882D01*
X144427288Y-82316206D01*
X144427286Y-82316205D01*
X144240487Y-82276500D01*
X144049513Y-82276500D01*
X143862714Y-82316205D01*
X143688246Y-82393883D01*
X143533745Y-82506135D01*
X143405959Y-82648057D01*
X143310473Y-82813443D01*
X143310470Y-82813450D01*
X143252001Y-82993401D01*
X143251458Y-82995072D01*
X143231496Y-83185000D01*
X119350402Y-83185000D01*
X119325527Y-83108444D01*
X119230040Y-82943056D01*
X119102253Y-82801134D01*
X118947752Y-82688882D01*
X118773288Y-82611206D01*
X118773286Y-82611205D01*
X118586487Y-82571500D01*
X118395513Y-82571500D01*
X118208714Y-82611205D01*
X118034246Y-82688883D01*
X117879745Y-82801135D01*
X117751959Y-82943057D01*
X117656473Y-83108443D01*
X117656470Y-83108450D01*
X117641002Y-83156057D01*
X117597458Y-83290072D01*
X117577496Y-83480000D01*
X101473000Y-83480000D01*
X101473000Y-77851000D01*
X111481496Y-77851000D01*
X111501458Y-78040928D01*
X111501459Y-78040931D01*
X111560470Y-78222549D01*
X111560473Y-78222556D01*
X111655960Y-78387944D01*
X111783747Y-78529866D01*
X111938248Y-78642118D01*
X112112712Y-78719794D01*
X112299513Y-78759500D01*
X112490487Y-78759500D01*
X112677288Y-78719794D01*
X112767065Y-78679822D01*
X112836314Y-78670538D01*
X112899591Y-78700166D01*
X112936804Y-78759301D01*
X112941500Y-78793102D01*
X112941500Y-79638654D01*
X112948011Y-79699202D01*
X112948011Y-79699204D01*
X112976469Y-79775500D01*
X112999111Y-79836204D01*
X113086739Y-79953261D01*
X113203796Y-80040889D01*
X113255737Y-80060262D01*
X113321595Y-80084827D01*
X113377528Y-80126699D01*
X113401944Y-80192163D01*
X113387092Y-80260436D01*
X113369490Y-80284991D01*
X113224279Y-80442730D01*
X113224276Y-80442734D01*
X113101140Y-80631207D01*
X113010703Y-80837385D01*
X112955436Y-81055628D01*
X112955434Y-81055640D01*
X112936844Y-81279994D01*
X112936844Y-81280005D01*
X112955434Y-81504359D01*
X112955436Y-81504371D01*
X113010703Y-81722614D01*
X113101140Y-81928792D01*
X113224276Y-82117265D01*
X113224284Y-82117276D01*
X113376756Y-82282902D01*
X113376760Y-82282906D01*
X113554424Y-82421189D01*
X113554425Y-82421189D01*
X113554427Y-82421191D01*
X113681135Y-82489761D01*
X113752426Y-82528342D01*
X113965365Y-82601444D01*
X114187431Y-82638500D01*
X114412569Y-82638500D01*
X114634635Y-82601444D01*
X114847574Y-82528342D01*
X115045576Y-82421189D01*
X115223240Y-82282906D01*
X115375722Y-82117268D01*
X115498860Y-81928791D01*
X115566758Y-81773998D01*
X122713788Y-81773998D01*
X122713788Y-81774001D01*
X122732598Y-81989007D01*
X122732600Y-81989018D01*
X122788458Y-82197485D01*
X122788460Y-82197489D01*
X122788461Y-82197493D01*
X122825303Y-82276500D01*
X122879676Y-82393105D01*
X122899341Y-82421189D01*
X123003475Y-82569907D01*
X123156093Y-82722525D01*
X123332894Y-82846323D01*
X123528507Y-82937539D01*
X123528513Y-82937540D01*
X123528514Y-82937541D01*
X123549100Y-82943057D01*
X123736987Y-82993401D01*
X123890567Y-83006837D01*
X123951998Y-83012212D01*
X123952000Y-83012212D01*
X123952002Y-83012212D01*
X124005753Y-83007509D01*
X124167013Y-82993401D01*
X124375493Y-82937539D01*
X124571106Y-82846323D01*
X124747907Y-82722525D01*
X124900525Y-82569907D01*
X125024323Y-82393106D01*
X125115539Y-82197493D01*
X125171401Y-81989013D01*
X125190212Y-81774000D01*
X125190212Y-81773998D01*
X131353788Y-81773998D01*
X131353788Y-81774001D01*
X131372598Y-81989007D01*
X131372600Y-81989018D01*
X131428458Y-82197485D01*
X131428460Y-82197489D01*
X131428461Y-82197493D01*
X131465303Y-82276500D01*
X131519676Y-82393105D01*
X131539341Y-82421189D01*
X131643475Y-82569907D01*
X131796093Y-82722525D01*
X131972894Y-82846323D01*
X132168507Y-82937539D01*
X132168513Y-82937540D01*
X132168514Y-82937541D01*
X132189100Y-82943057D01*
X132376987Y-82993401D01*
X132530567Y-83006837D01*
X132591998Y-83012212D01*
X132592000Y-83012212D01*
X132592002Y-83012212D01*
X132645753Y-83007509D01*
X132807013Y-82993401D01*
X133015493Y-82937539D01*
X133211106Y-82846323D01*
X133387907Y-82722525D01*
X133540525Y-82569907D01*
X133664323Y-82393106D01*
X133755539Y-82197493D01*
X133811401Y-81989013D01*
X133830212Y-81774000D01*
X133811401Y-81558987D01*
X133755539Y-81350507D01*
X133722658Y-81279994D01*
X140876844Y-81279994D01*
X140876844Y-81280005D01*
X140895434Y-81504359D01*
X140895436Y-81504371D01*
X140950703Y-81722614D01*
X141041140Y-81928792D01*
X141164276Y-82117265D01*
X141164284Y-82117276D01*
X141316756Y-82282902D01*
X141316760Y-82282906D01*
X141494424Y-82421189D01*
X141494425Y-82421189D01*
X141494427Y-82421191D01*
X141621135Y-82489761D01*
X141692426Y-82528342D01*
X141905365Y-82601444D01*
X142127431Y-82638500D01*
X142352569Y-82638500D01*
X142574635Y-82601444D01*
X142787574Y-82528342D01*
X142985576Y-82421189D01*
X143163240Y-82282906D01*
X143315722Y-82117268D01*
X143438860Y-81928791D01*
X143529296Y-81722616D01*
X143584564Y-81504368D01*
X143603156Y-81280000D01*
X143592789Y-81154894D01*
X143584565Y-81055640D01*
X143584563Y-81055628D01*
X143529296Y-80837385D01*
X143438859Y-80631207D01*
X143315723Y-80442734D01*
X143315715Y-80442723D01*
X143170510Y-80284991D01*
X143139587Y-80222337D01*
X143147447Y-80152911D01*
X143191594Y-80098755D01*
X143218405Y-80084827D01*
X143298584Y-80054920D01*
X143336204Y-80040889D01*
X143453261Y-79953261D01*
X143540889Y-79836204D01*
X143591989Y-79699201D01*
X143596406Y-79658116D01*
X143598499Y-79638654D01*
X143598500Y-79638637D01*
X143598500Y-77841362D01*
X143598499Y-77841345D01*
X143595157Y-77810270D01*
X143591989Y-77780799D01*
X143583855Y-77758992D01*
X143567279Y-77714549D01*
X143540889Y-77643796D01*
X143453261Y-77526739D01*
X143336204Y-77439111D01*
X143334191Y-77438360D01*
X143199203Y-77388011D01*
X143138654Y-77381500D01*
X143138638Y-77381500D01*
X141341362Y-77381500D01*
X141341345Y-77381500D01*
X141280797Y-77388011D01*
X141280795Y-77388011D01*
X141143795Y-77439111D01*
X141026739Y-77526739D01*
X140939111Y-77643795D01*
X140888011Y-77780795D01*
X140888011Y-77780797D01*
X140881500Y-77841345D01*
X140881500Y-79638654D01*
X140888011Y-79699202D01*
X140888011Y-79699204D01*
X140916469Y-79775500D01*
X140939111Y-79836204D01*
X141026739Y-79953261D01*
X141143796Y-80040889D01*
X141195737Y-80060262D01*
X141261595Y-80084827D01*
X141317528Y-80126699D01*
X141341944Y-80192163D01*
X141327092Y-80260436D01*
X141309490Y-80284991D01*
X141164279Y-80442730D01*
X141164276Y-80442734D01*
X141041140Y-80631207D01*
X140950703Y-80837385D01*
X140895436Y-81055628D01*
X140895434Y-81055640D01*
X140876844Y-81279994D01*
X133722658Y-81279994D01*
X133664323Y-81154894D01*
X133540525Y-80978093D01*
X133387907Y-80825475D01*
X133211106Y-80701677D01*
X133211107Y-80701677D01*
X133211105Y-80701676D01*
X133059987Y-80631209D01*
X133015493Y-80610461D01*
X133015489Y-80610460D01*
X133015485Y-80610458D01*
X132807018Y-80554600D01*
X132807014Y-80554599D01*
X132807013Y-80554599D01*
X132807012Y-80554598D01*
X132807007Y-80554598D01*
X132592002Y-80535788D01*
X132591998Y-80535788D01*
X132376992Y-80554598D01*
X132376981Y-80554600D01*
X132168514Y-80610458D01*
X132168505Y-80610462D01*
X131972894Y-80701676D01*
X131796092Y-80825475D01*
X131643475Y-80978092D01*
X131519676Y-81154894D01*
X131428462Y-81350505D01*
X131428458Y-81350514D01*
X131372600Y-81558981D01*
X131372598Y-81558992D01*
X131353788Y-81773998D01*
X125190212Y-81773998D01*
X125171401Y-81558987D01*
X125115539Y-81350507D01*
X125024323Y-81154894D01*
X124900525Y-80978093D01*
X124747907Y-80825475D01*
X124571106Y-80701677D01*
X124571107Y-80701677D01*
X124571105Y-80701676D01*
X124419987Y-80631209D01*
X124375493Y-80610461D01*
X124375489Y-80610460D01*
X124375485Y-80610458D01*
X124167018Y-80554600D01*
X124167014Y-80554599D01*
X124167013Y-80554599D01*
X124167012Y-80554598D01*
X124167007Y-80554598D01*
X123952002Y-80535788D01*
X123951998Y-80535788D01*
X123736992Y-80554598D01*
X123736981Y-80554600D01*
X123528514Y-80610458D01*
X123528505Y-80610462D01*
X123332894Y-80701676D01*
X123156092Y-80825475D01*
X123003475Y-80978092D01*
X122879676Y-81154894D01*
X122788462Y-81350505D01*
X122788458Y-81350514D01*
X122732600Y-81558981D01*
X122732598Y-81558992D01*
X122713788Y-81773998D01*
X115566758Y-81773998D01*
X115589296Y-81722616D01*
X115644564Y-81504368D01*
X115663156Y-81280000D01*
X115652789Y-81154894D01*
X115644565Y-81055640D01*
X115644563Y-81055628D01*
X115589296Y-80837385D01*
X115498859Y-80631207D01*
X115375723Y-80442734D01*
X115375715Y-80442723D01*
X115230510Y-80284991D01*
X115199587Y-80222337D01*
X115207447Y-80152911D01*
X115251594Y-80098755D01*
X115278405Y-80084827D01*
X115358584Y-80054920D01*
X115396204Y-80040889D01*
X115513261Y-79953261D01*
X115600889Y-79836204D01*
X115651989Y-79699201D01*
X115656406Y-79658116D01*
X115658499Y-79638654D01*
X115658500Y-79638637D01*
X115658500Y-78867000D01*
X117577496Y-78867000D01*
X117597458Y-79056928D01*
X117597459Y-79056931D01*
X117656470Y-79238549D01*
X117656473Y-79238556D01*
X117751960Y-79403944D01*
X117879747Y-79545866D01*
X118034248Y-79658118D01*
X118208712Y-79735794D01*
X118395513Y-79775500D01*
X118586487Y-79775500D01*
X118773288Y-79735794D01*
X118947752Y-79658118D01*
X119102253Y-79545866D01*
X119230040Y-79403944D01*
X119325527Y-79238556D01*
X119384542Y-79056928D01*
X119404504Y-78867000D01*
X119384542Y-78677072D01*
X119325527Y-78495444D01*
X119230040Y-78330056D01*
X119103049Y-78189018D01*
X119102254Y-78188135D01*
X119027907Y-78134118D01*
X118947752Y-78075882D01*
X118773288Y-77998206D01*
X118773286Y-77998205D01*
X118586487Y-77958500D01*
X118395513Y-77958500D01*
X118208714Y-77998205D01*
X118034246Y-78075883D01*
X117879745Y-78188135D01*
X117751959Y-78330057D01*
X117656473Y-78495443D01*
X117656470Y-78495450D01*
X117624740Y-78593106D01*
X117597458Y-78677072D01*
X117577496Y-78867000D01*
X115658500Y-78867000D01*
X115658500Y-77841362D01*
X115658499Y-77841345D01*
X115655157Y-77810270D01*
X115651989Y-77780799D01*
X115643855Y-77758992D01*
X115627279Y-77714549D01*
X115600889Y-77643796D01*
X115513261Y-77526739D01*
X115396204Y-77439111D01*
X115394191Y-77438360D01*
X115259203Y-77388011D01*
X115198654Y-77381500D01*
X115198638Y-77381500D01*
X113401362Y-77381500D01*
X113401345Y-77381500D01*
X113340802Y-77388010D01*
X113340791Y-77388012D01*
X113304081Y-77401705D01*
X113234390Y-77406689D01*
X113173067Y-77373203D01*
X113153363Y-77347525D01*
X113150751Y-77343000D01*
X120371496Y-77343000D01*
X120391458Y-77532928D01*
X120391459Y-77532931D01*
X120450470Y-77714549D01*
X120450473Y-77714556D01*
X120545960Y-77879944D01*
X120673747Y-78021866D01*
X120828248Y-78134118D01*
X121002712Y-78211794D01*
X121189513Y-78251500D01*
X121380487Y-78251500D01*
X121567288Y-78211794D01*
X121741752Y-78134118D01*
X121896253Y-78021866D01*
X121939353Y-77973998D01*
X122713788Y-77973998D01*
X122713788Y-77974001D01*
X122732598Y-78189007D01*
X122732600Y-78189018D01*
X122788458Y-78397485D01*
X122788460Y-78397489D01*
X122788461Y-78397493D01*
X122834069Y-78495299D01*
X122879676Y-78593105D01*
X122968385Y-78719793D01*
X123003475Y-78769907D01*
X123156093Y-78922525D01*
X123332894Y-79046323D01*
X123528507Y-79137539D01*
X123736987Y-79193401D01*
X123890567Y-79206837D01*
X123951998Y-79212212D01*
X123952000Y-79212212D01*
X123952002Y-79212212D01*
X124005753Y-79207509D01*
X124167013Y-79193401D01*
X124375493Y-79137539D01*
X124571106Y-79046323D01*
X124747907Y-78922525D01*
X124900525Y-78769907D01*
X125024323Y-78593106D01*
X125115539Y-78397493D01*
X125171401Y-78189013D01*
X125190212Y-77974000D01*
X125190212Y-77973998D01*
X131353788Y-77973998D01*
X131353788Y-77974001D01*
X131372598Y-78189007D01*
X131372600Y-78189018D01*
X131428458Y-78397485D01*
X131428460Y-78397489D01*
X131428461Y-78397493D01*
X131474069Y-78495299D01*
X131519676Y-78593105D01*
X131608385Y-78719793D01*
X131643475Y-78769907D01*
X131796093Y-78922525D01*
X131972894Y-79046323D01*
X132168507Y-79137539D01*
X132376987Y-79193401D01*
X132530567Y-79206837D01*
X132591998Y-79212212D01*
X132592000Y-79212212D01*
X132592002Y-79212212D01*
X132645753Y-79207509D01*
X132807013Y-79193401D01*
X133015493Y-79137539D01*
X133211106Y-79046323D01*
X133387907Y-78922525D01*
X133540525Y-78769907D01*
X133664323Y-78593106D01*
X133755539Y-78397493D01*
X133811401Y-78189013D01*
X133830212Y-77974000D01*
X133811401Y-77758987D01*
X133755539Y-77550507D01*
X133664323Y-77354894D01*
X133540525Y-77178093D01*
X133387907Y-77025475D01*
X133211106Y-76901677D01*
X133211107Y-76901677D01*
X133211105Y-76901676D01*
X133113299Y-76856069D01*
X133015493Y-76810461D01*
X133015489Y-76810460D01*
X133015485Y-76810458D01*
X132807018Y-76754600D01*
X132807014Y-76754599D01*
X132807013Y-76754599D01*
X132807012Y-76754598D01*
X132807007Y-76754598D01*
X132592002Y-76735788D01*
X132591998Y-76735788D01*
X132376992Y-76754598D01*
X132376981Y-76754600D01*
X132168514Y-76810458D01*
X132168505Y-76810462D01*
X131972894Y-76901676D01*
X131796092Y-77025475D01*
X131643475Y-77178092D01*
X131519676Y-77354894D01*
X131428462Y-77550505D01*
X131428458Y-77550514D01*
X131372600Y-77758981D01*
X131372598Y-77758992D01*
X131353788Y-77973998D01*
X125190212Y-77973998D01*
X125171401Y-77758987D01*
X125115539Y-77550507D01*
X125024323Y-77354894D01*
X124900525Y-77178093D01*
X124747907Y-77025475D01*
X124571106Y-76901677D01*
X124571107Y-76901677D01*
X124571105Y-76901676D01*
X124473299Y-76856069D01*
X124375493Y-76810461D01*
X124375489Y-76810460D01*
X124375485Y-76810458D01*
X124167018Y-76754600D01*
X124167014Y-76754599D01*
X124167013Y-76754599D01*
X124167012Y-76754598D01*
X124167007Y-76754598D01*
X123952002Y-76735788D01*
X123951998Y-76735788D01*
X123736992Y-76754598D01*
X123736981Y-76754600D01*
X123528514Y-76810458D01*
X123528505Y-76810462D01*
X123332894Y-76901676D01*
X123156092Y-77025475D01*
X123003475Y-77178092D01*
X122879676Y-77354894D01*
X122788462Y-77550505D01*
X122788458Y-77550514D01*
X122732600Y-77758981D01*
X122732598Y-77758992D01*
X122713788Y-77973998D01*
X121939353Y-77973998D01*
X122024040Y-77879944D01*
X122119527Y-77714556D01*
X122178542Y-77532928D01*
X122198504Y-77343000D01*
X122178542Y-77153072D01*
X122119527Y-76971444D01*
X122024040Y-76806056D01*
X121896253Y-76664134D01*
X121741752Y-76551882D01*
X121567288Y-76474206D01*
X121567286Y-76474205D01*
X121380487Y-76434500D01*
X121189513Y-76434500D01*
X121002714Y-76474205D01*
X120828246Y-76551883D01*
X120673745Y-76664135D01*
X120545959Y-76806057D01*
X120450473Y-76971443D01*
X120450470Y-76971450D01*
X120421737Y-77059883D01*
X120391458Y-77153072D01*
X120371496Y-77343000D01*
X113150751Y-77343000D01*
X113134040Y-77314056D01*
X113006253Y-77172134D01*
X112851752Y-77059882D01*
X112677288Y-76982206D01*
X112677286Y-76982205D01*
X112490487Y-76942500D01*
X112299513Y-76942500D01*
X112112714Y-76982205D01*
X111938246Y-77059883D01*
X111783745Y-77172135D01*
X111655959Y-77314057D01*
X111560473Y-77479443D01*
X111560470Y-77479450D01*
X111507071Y-77643796D01*
X111501458Y-77661072D01*
X111481496Y-77851000D01*
X101473000Y-77851000D01*
X101473000Y-75308000D01*
X101492685Y-75240961D01*
X101545489Y-75195206D01*
X101597000Y-75184000D01*
X154943000Y-75184000D01*
X155010039Y-75203685D01*
G37*
%TD.AperFunction*%
%TD*%
M02*
