%TF.GenerationSoftware,KiCad,Pcbnew,(6.0.10-0)*%
%TF.CreationDate,2023-02-03T12:32:43-07:00*%
%TF.ProjectId,Breadboard Power Supply,42726561-6462-46f6-9172-6420506f7765,v1*%
%TF.SameCoordinates,Original*%
%TF.FileFunction,Legend,Bot*%
%TF.FilePolarity,Positive*%
%FSLAX46Y46*%
G04 Gerber Fmt 4.6, Leading zero omitted, Abs format (unit mm)*
G04 Created by KiCad (PCBNEW (6.0.10-0)) date 2023-02-03 12:32:43*
%MOMM*%
%LPD*%
G01*
G04 APERTURE LIST*
%ADD10C,0.100000*%
%ADD11C,0.120000*%
G04 APERTURE END LIST*
D10*
%TO.C,J8*%
X146883333Y-96644666D02*
X146883333Y-97144666D01*
X146916666Y-97244666D01*
X146983333Y-97311333D01*
X147083333Y-97344666D01*
X147150000Y-97344666D01*
X146450000Y-96944666D02*
X146516666Y-96911333D01*
X146550000Y-96878000D01*
X146583333Y-96811333D01*
X146583333Y-96778000D01*
X146550000Y-96711333D01*
X146516666Y-96678000D01*
X146450000Y-96644666D01*
X146316666Y-96644666D01*
X146250000Y-96678000D01*
X146216666Y-96711333D01*
X146183333Y-96778000D01*
X146183333Y-96811333D01*
X146216666Y-96878000D01*
X146250000Y-96911333D01*
X146316666Y-96944666D01*
X146450000Y-96944666D01*
X146516666Y-96978000D01*
X146550000Y-97011333D01*
X146583333Y-97078000D01*
X146583333Y-97211333D01*
X146550000Y-97278000D01*
X146516666Y-97311333D01*
X146450000Y-97344666D01*
X146316666Y-97344666D01*
X146250000Y-97311333D01*
X146216666Y-97278000D01*
X146183333Y-97211333D01*
X146183333Y-97078000D01*
X146216666Y-97011333D01*
X146250000Y-96978000D01*
X146316666Y-96944666D01*
%TO.C,J9*%
X107548333Y-96644666D02*
X107548333Y-97144666D01*
X107581666Y-97244666D01*
X107648333Y-97311333D01*
X107748333Y-97344666D01*
X107815000Y-97344666D01*
X107181666Y-97344666D02*
X107048333Y-97344666D01*
X106981666Y-97311333D01*
X106948333Y-97278000D01*
X106881666Y-97178000D01*
X106848333Y-97044666D01*
X106848333Y-96778000D01*
X106881666Y-96711333D01*
X106915000Y-96678000D01*
X106981666Y-96644666D01*
X107115000Y-96644666D01*
X107181666Y-96678000D01*
X107215000Y-96711333D01*
X107248333Y-96778000D01*
X107248333Y-96944666D01*
X107215000Y-97011333D01*
X107181666Y-97044666D01*
X107115000Y-97078000D01*
X106981666Y-97078000D01*
X106915000Y-97044666D01*
X106881666Y-97011333D01*
X106848333Y-96944666D01*
D11*
%TO.C,J8*%
X145985000Y-97730000D02*
X145985000Y-99060000D01*
X151185000Y-97730000D02*
X151185000Y-100390000D01*
X147315000Y-97730000D02*
X145985000Y-97730000D01*
X148585000Y-100390000D02*
X151185000Y-100390000D01*
X148585000Y-97730000D02*
X148585000Y-100390000D01*
X148585000Y-97730000D02*
X151185000Y-97730000D01*
%TO.C,J9*%
X102805000Y-97730000D02*
X102805000Y-99060000D01*
X104135000Y-97730000D02*
X102805000Y-97730000D01*
X105405000Y-97730000D02*
X105405000Y-100390000D01*
X105405000Y-100390000D02*
X108005000Y-100390000D01*
X105405000Y-97730000D02*
X108005000Y-97730000D01*
X108005000Y-97730000D02*
X108005000Y-100390000D01*
%TD*%
M02*
