%TF.GenerationSoftware,KiCad,Pcbnew,7.0.9*%
%TF.CreationDate,2023-12-23T11:39:29-07:00*%
%TF.ProjectId,Breadboard Power Supply,42726561-6462-46f6-9172-6420506f7765,v10*%
%TF.SameCoordinates,Original*%
%TF.FileFunction,Legend,Top*%
%TF.FilePolarity,Positive*%
%FSLAX46Y46*%
G04 Gerber Fmt 4.6, Leading zero omitted, Abs format (unit mm)*
G04 Created by KiCad (PCBNEW 7.0.9) date 2023-12-23 11:39:29*
%MOMM*%
%LPD*%
G01*
G04 APERTURE LIST*
%ADD10C,0.150000*%
%ADD11C,0.100000*%
%ADD12C,0.120000*%
%ADD13C,0.200000*%
G04 APERTURE END LIST*
D10*
X146904125Y-86941819D02*
X146332697Y-86941819D01*
X146618411Y-86941819D02*
X146618411Y-85941819D01*
X146618411Y-85941819D02*
X146523173Y-86084676D01*
X146523173Y-86084676D02*
X146427935Y-86179914D01*
X146427935Y-86179914D02*
X146332697Y-86227533D01*
X147332697Y-86846580D02*
X147380316Y-86894200D01*
X147380316Y-86894200D02*
X147332697Y-86941819D01*
X147332697Y-86941819D02*
X147285078Y-86894200D01*
X147285078Y-86894200D02*
X147332697Y-86846580D01*
X147332697Y-86846580D02*
X147332697Y-86941819D01*
X147951744Y-86370390D02*
X147856506Y-86322771D01*
X147856506Y-86322771D02*
X147808887Y-86275152D01*
X147808887Y-86275152D02*
X147761268Y-86179914D01*
X147761268Y-86179914D02*
X147761268Y-86132295D01*
X147761268Y-86132295D02*
X147808887Y-86037057D01*
X147808887Y-86037057D02*
X147856506Y-85989438D01*
X147856506Y-85989438D02*
X147951744Y-85941819D01*
X147951744Y-85941819D02*
X148142220Y-85941819D01*
X148142220Y-85941819D02*
X148237458Y-85989438D01*
X148237458Y-85989438D02*
X148285077Y-86037057D01*
X148285077Y-86037057D02*
X148332696Y-86132295D01*
X148332696Y-86132295D02*
X148332696Y-86179914D01*
X148332696Y-86179914D02*
X148285077Y-86275152D01*
X148285077Y-86275152D02*
X148237458Y-86322771D01*
X148237458Y-86322771D02*
X148142220Y-86370390D01*
X148142220Y-86370390D02*
X147951744Y-86370390D01*
X147951744Y-86370390D02*
X147856506Y-86418009D01*
X147856506Y-86418009D02*
X147808887Y-86465628D01*
X147808887Y-86465628D02*
X147761268Y-86560866D01*
X147761268Y-86560866D02*
X147761268Y-86751342D01*
X147761268Y-86751342D02*
X147808887Y-86846580D01*
X147808887Y-86846580D02*
X147856506Y-86894200D01*
X147856506Y-86894200D02*
X147951744Y-86941819D01*
X147951744Y-86941819D02*
X148142220Y-86941819D01*
X148142220Y-86941819D02*
X148237458Y-86894200D01*
X148237458Y-86894200D02*
X148285077Y-86846580D01*
X148285077Y-86846580D02*
X148332696Y-86751342D01*
X148332696Y-86751342D02*
X148332696Y-86560866D01*
X148332696Y-86560866D02*
X148285077Y-86465628D01*
X148285077Y-86465628D02*
X148237458Y-86418009D01*
X148237458Y-86418009D02*
X148142220Y-86370390D01*
X148618411Y-85941819D02*
X148951744Y-86941819D01*
X148951744Y-86941819D02*
X149285077Y-85941819D01*
X151384048Y-100784866D02*
X152145953Y-100784866D01*
X151765000Y-101165819D02*
X151765000Y-100403914D01*
X146285078Y-88481819D02*
X146904125Y-88481819D01*
X146904125Y-88481819D02*
X146570792Y-88862771D01*
X146570792Y-88862771D02*
X146713649Y-88862771D01*
X146713649Y-88862771D02*
X146808887Y-88910390D01*
X146808887Y-88910390D02*
X146856506Y-88958009D01*
X146856506Y-88958009D02*
X146904125Y-89053247D01*
X146904125Y-89053247D02*
X146904125Y-89291342D01*
X146904125Y-89291342D02*
X146856506Y-89386580D01*
X146856506Y-89386580D02*
X146808887Y-89434200D01*
X146808887Y-89434200D02*
X146713649Y-89481819D01*
X146713649Y-89481819D02*
X146427935Y-89481819D01*
X146427935Y-89481819D02*
X146332697Y-89434200D01*
X146332697Y-89434200D02*
X146285078Y-89386580D01*
X147332697Y-89386580D02*
X147380316Y-89434200D01*
X147380316Y-89434200D02*
X147332697Y-89481819D01*
X147332697Y-89481819D02*
X147285078Y-89434200D01*
X147285078Y-89434200D02*
X147332697Y-89386580D01*
X147332697Y-89386580D02*
X147332697Y-89481819D01*
X147713649Y-88481819D02*
X148332696Y-88481819D01*
X148332696Y-88481819D02*
X147999363Y-88862771D01*
X147999363Y-88862771D02*
X148142220Y-88862771D01*
X148142220Y-88862771D02*
X148237458Y-88910390D01*
X148237458Y-88910390D02*
X148285077Y-88958009D01*
X148285077Y-88958009D02*
X148332696Y-89053247D01*
X148332696Y-89053247D02*
X148332696Y-89291342D01*
X148332696Y-89291342D02*
X148285077Y-89386580D01*
X148285077Y-89386580D02*
X148237458Y-89434200D01*
X148237458Y-89434200D02*
X148142220Y-89481819D01*
X148142220Y-89481819D02*
X147856506Y-89481819D01*
X147856506Y-89481819D02*
X147761268Y-89434200D01*
X147761268Y-89434200D02*
X147713649Y-89386580D01*
X148618411Y-88481819D02*
X148951744Y-89481819D01*
X148951744Y-89481819D02*
X149285077Y-88481819D01*
X107921588Y-86814819D02*
X107350160Y-86814819D01*
X107635874Y-86814819D02*
X107635874Y-85814819D01*
X107635874Y-85814819D02*
X107540636Y-85957676D01*
X107540636Y-85957676D02*
X107445398Y-86052914D01*
X107445398Y-86052914D02*
X107350160Y-86100533D01*
X108350160Y-86719580D02*
X108397779Y-86767200D01*
X108397779Y-86767200D02*
X108350160Y-86814819D01*
X108350160Y-86814819D02*
X108302541Y-86767200D01*
X108302541Y-86767200D02*
X108350160Y-86719580D01*
X108350160Y-86719580D02*
X108350160Y-86814819D01*
X108969207Y-86243390D02*
X108873969Y-86195771D01*
X108873969Y-86195771D02*
X108826350Y-86148152D01*
X108826350Y-86148152D02*
X108778731Y-86052914D01*
X108778731Y-86052914D02*
X108778731Y-86005295D01*
X108778731Y-86005295D02*
X108826350Y-85910057D01*
X108826350Y-85910057D02*
X108873969Y-85862438D01*
X108873969Y-85862438D02*
X108969207Y-85814819D01*
X108969207Y-85814819D02*
X109159683Y-85814819D01*
X109159683Y-85814819D02*
X109254921Y-85862438D01*
X109254921Y-85862438D02*
X109302540Y-85910057D01*
X109302540Y-85910057D02*
X109350159Y-86005295D01*
X109350159Y-86005295D02*
X109350159Y-86052914D01*
X109350159Y-86052914D02*
X109302540Y-86148152D01*
X109302540Y-86148152D02*
X109254921Y-86195771D01*
X109254921Y-86195771D02*
X109159683Y-86243390D01*
X109159683Y-86243390D02*
X108969207Y-86243390D01*
X108969207Y-86243390D02*
X108873969Y-86291009D01*
X108873969Y-86291009D02*
X108826350Y-86338628D01*
X108826350Y-86338628D02*
X108778731Y-86433866D01*
X108778731Y-86433866D02*
X108778731Y-86624342D01*
X108778731Y-86624342D02*
X108826350Y-86719580D01*
X108826350Y-86719580D02*
X108873969Y-86767200D01*
X108873969Y-86767200D02*
X108969207Y-86814819D01*
X108969207Y-86814819D02*
X109159683Y-86814819D01*
X109159683Y-86814819D02*
X109254921Y-86767200D01*
X109254921Y-86767200D02*
X109302540Y-86719580D01*
X109302540Y-86719580D02*
X109350159Y-86624342D01*
X109350159Y-86624342D02*
X109350159Y-86433866D01*
X109350159Y-86433866D02*
X109302540Y-86338628D01*
X109302540Y-86338628D02*
X109254921Y-86291009D01*
X109254921Y-86291009D02*
X109159683Y-86243390D01*
X109635874Y-85814819D02*
X109969207Y-86814819D01*
X109969207Y-86814819D02*
X110302540Y-85814819D01*
X107302541Y-88354819D02*
X107921588Y-88354819D01*
X107921588Y-88354819D02*
X107588255Y-88735771D01*
X107588255Y-88735771D02*
X107731112Y-88735771D01*
X107731112Y-88735771D02*
X107826350Y-88783390D01*
X107826350Y-88783390D02*
X107873969Y-88831009D01*
X107873969Y-88831009D02*
X107921588Y-88926247D01*
X107921588Y-88926247D02*
X107921588Y-89164342D01*
X107921588Y-89164342D02*
X107873969Y-89259580D01*
X107873969Y-89259580D02*
X107826350Y-89307200D01*
X107826350Y-89307200D02*
X107731112Y-89354819D01*
X107731112Y-89354819D02*
X107445398Y-89354819D01*
X107445398Y-89354819D02*
X107350160Y-89307200D01*
X107350160Y-89307200D02*
X107302541Y-89259580D01*
X108350160Y-89259580D02*
X108397779Y-89307200D01*
X108397779Y-89307200D02*
X108350160Y-89354819D01*
X108350160Y-89354819D02*
X108302541Y-89307200D01*
X108302541Y-89307200D02*
X108350160Y-89259580D01*
X108350160Y-89259580D02*
X108350160Y-89354819D01*
X108731112Y-88354819D02*
X109350159Y-88354819D01*
X109350159Y-88354819D02*
X109016826Y-88735771D01*
X109016826Y-88735771D02*
X109159683Y-88735771D01*
X109159683Y-88735771D02*
X109254921Y-88783390D01*
X109254921Y-88783390D02*
X109302540Y-88831009D01*
X109302540Y-88831009D02*
X109350159Y-88926247D01*
X109350159Y-88926247D02*
X109350159Y-89164342D01*
X109350159Y-89164342D02*
X109302540Y-89259580D01*
X109302540Y-89259580D02*
X109254921Y-89307200D01*
X109254921Y-89307200D02*
X109159683Y-89354819D01*
X109159683Y-89354819D02*
X108873969Y-89354819D01*
X108873969Y-89354819D02*
X108778731Y-89307200D01*
X108778731Y-89307200D02*
X108731112Y-89259580D01*
X109635874Y-88354819D02*
X109969207Y-89354819D01*
X109969207Y-89354819D02*
X110302540Y-88354819D01*
X148844048Y-100784866D02*
X149605953Y-100784866D01*
X107873969Y-90894819D02*
X107397779Y-90894819D01*
X107397779Y-90894819D02*
X107350160Y-91371009D01*
X107350160Y-91371009D02*
X107397779Y-91323390D01*
X107397779Y-91323390D02*
X107493017Y-91275771D01*
X107493017Y-91275771D02*
X107731112Y-91275771D01*
X107731112Y-91275771D02*
X107826350Y-91323390D01*
X107826350Y-91323390D02*
X107873969Y-91371009D01*
X107873969Y-91371009D02*
X107921588Y-91466247D01*
X107921588Y-91466247D02*
X107921588Y-91704342D01*
X107921588Y-91704342D02*
X107873969Y-91799580D01*
X107873969Y-91799580D02*
X107826350Y-91847200D01*
X107826350Y-91847200D02*
X107731112Y-91894819D01*
X107731112Y-91894819D02*
X107493017Y-91894819D01*
X107493017Y-91894819D02*
X107397779Y-91847200D01*
X107397779Y-91847200D02*
X107350160Y-91799580D01*
X108207303Y-90894819D02*
X108540636Y-91894819D01*
X108540636Y-91894819D02*
X108873969Y-90894819D01*
X146951744Y-94276104D02*
X147427934Y-94276104D01*
X146856506Y-94561819D02*
X147189839Y-93561819D01*
X147189839Y-93561819D02*
X147523172Y-94561819D01*
X147856506Y-94561819D02*
X147856506Y-93561819D01*
X147856506Y-93561819D02*
X148094601Y-93561819D01*
X148094601Y-93561819D02*
X148237458Y-93609438D01*
X148237458Y-93609438D02*
X148332696Y-93704676D01*
X148332696Y-93704676D02*
X148380315Y-93799914D01*
X148380315Y-93799914D02*
X148427934Y-93990390D01*
X148427934Y-93990390D02*
X148427934Y-94133247D01*
X148427934Y-94133247D02*
X148380315Y-94323723D01*
X148380315Y-94323723D02*
X148332696Y-94418961D01*
X148332696Y-94418961D02*
X148237458Y-94514200D01*
X148237458Y-94514200D02*
X148094601Y-94561819D01*
X148094601Y-94561819D02*
X147856506Y-94561819D01*
X149142220Y-93561819D02*
X149142220Y-94276104D01*
X149142220Y-94276104D02*
X149094601Y-94418961D01*
X149094601Y-94418961D02*
X148999363Y-94514200D01*
X148999363Y-94514200D02*
X148856506Y-94561819D01*
X148856506Y-94561819D02*
X148761268Y-94561819D01*
X106934048Y-100784866D02*
X107695953Y-100784866D01*
X107315000Y-101165819D02*
X107315000Y-100403914D01*
X107350160Y-94149104D02*
X107826350Y-94149104D01*
X107254922Y-94434819D02*
X107588255Y-93434819D01*
X107588255Y-93434819D02*
X107921588Y-94434819D01*
X108254922Y-94434819D02*
X108254922Y-93434819D01*
X108254922Y-93434819D02*
X108493017Y-93434819D01*
X108493017Y-93434819D02*
X108635874Y-93482438D01*
X108635874Y-93482438D02*
X108731112Y-93577676D01*
X108731112Y-93577676D02*
X108778731Y-93672914D01*
X108778731Y-93672914D02*
X108826350Y-93863390D01*
X108826350Y-93863390D02*
X108826350Y-94006247D01*
X108826350Y-94006247D02*
X108778731Y-94196723D01*
X108778731Y-94196723D02*
X108731112Y-94291961D01*
X108731112Y-94291961D02*
X108635874Y-94387200D01*
X108635874Y-94387200D02*
X108493017Y-94434819D01*
X108493017Y-94434819D02*
X108254922Y-94434819D01*
X109540636Y-93434819D02*
X109540636Y-94149104D01*
X109540636Y-94149104D02*
X109493017Y-94291961D01*
X109493017Y-94291961D02*
X109397779Y-94387200D01*
X109397779Y-94387200D02*
X109254922Y-94434819D01*
X109254922Y-94434819D02*
X109159684Y-94434819D01*
X148285077Y-91021819D02*
X147808887Y-91021819D01*
X147808887Y-91021819D02*
X147761268Y-91498009D01*
X147761268Y-91498009D02*
X147808887Y-91450390D01*
X147808887Y-91450390D02*
X147904125Y-91402771D01*
X147904125Y-91402771D02*
X148142220Y-91402771D01*
X148142220Y-91402771D02*
X148237458Y-91450390D01*
X148237458Y-91450390D02*
X148285077Y-91498009D01*
X148285077Y-91498009D02*
X148332696Y-91593247D01*
X148332696Y-91593247D02*
X148332696Y-91831342D01*
X148332696Y-91831342D02*
X148285077Y-91926580D01*
X148285077Y-91926580D02*
X148237458Y-91974200D01*
X148237458Y-91974200D02*
X148142220Y-92021819D01*
X148142220Y-92021819D02*
X147904125Y-92021819D01*
X147904125Y-92021819D02*
X147808887Y-91974200D01*
X147808887Y-91974200D02*
X147761268Y-91926580D01*
X148618411Y-91021819D02*
X148951744Y-92021819D01*
X148951744Y-92021819D02*
X149285077Y-91021819D01*
X104394048Y-100784866D02*
X105155953Y-100784866D01*
D11*
X110627333Y-78268133D02*
X110394000Y-77934800D01*
X110227333Y-78268133D02*
X110227333Y-77568133D01*
X110227333Y-77568133D02*
X110494000Y-77568133D01*
X110494000Y-77568133D02*
X110560667Y-77601466D01*
X110560667Y-77601466D02*
X110594000Y-77634800D01*
X110594000Y-77634800D02*
X110627333Y-77701466D01*
X110627333Y-77701466D02*
X110627333Y-77801466D01*
X110627333Y-77801466D02*
X110594000Y-77868133D01*
X110594000Y-77868133D02*
X110560667Y-77901466D01*
X110560667Y-77901466D02*
X110494000Y-77934800D01*
X110494000Y-77934800D02*
X110227333Y-77934800D01*
X111227333Y-77801466D02*
X111227333Y-78268133D01*
X111060667Y-77534800D02*
X110894000Y-78034800D01*
X110894000Y-78034800D02*
X111327333Y-78034800D01*
X117606210Y-77229883D02*
X117606210Y-76529883D01*
X117606210Y-76529883D02*
X117772877Y-76529883D01*
X117772877Y-76529883D02*
X117872877Y-76563216D01*
X117872877Y-76563216D02*
X117939544Y-76629883D01*
X117939544Y-76629883D02*
X117972877Y-76696550D01*
X117972877Y-76696550D02*
X118006210Y-76829883D01*
X118006210Y-76829883D02*
X118006210Y-76929883D01*
X118006210Y-76929883D02*
X117972877Y-77063216D01*
X117972877Y-77063216D02*
X117939544Y-77129883D01*
X117939544Y-77129883D02*
X117872877Y-77196550D01*
X117872877Y-77196550D02*
X117772877Y-77229883D01*
X117772877Y-77229883D02*
X117606210Y-77229883D01*
X118239544Y-76529883D02*
X118672877Y-76529883D01*
X118672877Y-76529883D02*
X118439544Y-76796550D01*
X118439544Y-76796550D02*
X118539544Y-76796550D01*
X118539544Y-76796550D02*
X118606210Y-76829883D01*
X118606210Y-76829883D02*
X118639544Y-76863216D01*
X118639544Y-76863216D02*
X118672877Y-76929883D01*
X118672877Y-76929883D02*
X118672877Y-77096550D01*
X118672877Y-77096550D02*
X118639544Y-77163216D01*
X118639544Y-77163216D02*
X118606210Y-77196550D01*
X118606210Y-77196550D02*
X118539544Y-77229883D01*
X118539544Y-77229883D02*
X118339544Y-77229883D01*
X118339544Y-77229883D02*
X118272877Y-77196550D01*
X118272877Y-77196550D02*
X118239544Y-77163216D01*
X145044333Y-76042466D02*
X145011000Y-76075800D01*
X145011000Y-76075800D02*
X144911000Y-76109133D01*
X144911000Y-76109133D02*
X144844333Y-76109133D01*
X144844333Y-76109133D02*
X144744333Y-76075800D01*
X144744333Y-76075800D02*
X144677667Y-76009133D01*
X144677667Y-76009133D02*
X144644333Y-75942466D01*
X144644333Y-75942466D02*
X144611000Y-75809133D01*
X144611000Y-75809133D02*
X144611000Y-75709133D01*
X144611000Y-75709133D02*
X144644333Y-75575800D01*
X144644333Y-75575800D02*
X144677667Y-75509133D01*
X144677667Y-75509133D02*
X144744333Y-75442466D01*
X144744333Y-75442466D02*
X144844333Y-75409133D01*
X144844333Y-75409133D02*
X144911000Y-75409133D01*
X144911000Y-75409133D02*
X145011000Y-75442466D01*
X145011000Y-75442466D02*
X145044333Y-75475800D01*
X145677667Y-75409133D02*
X145344333Y-75409133D01*
X145344333Y-75409133D02*
X145311000Y-75742466D01*
X145311000Y-75742466D02*
X145344333Y-75709133D01*
X145344333Y-75709133D02*
X145411000Y-75675800D01*
X145411000Y-75675800D02*
X145577667Y-75675800D01*
X145577667Y-75675800D02*
X145644333Y-75709133D01*
X145644333Y-75709133D02*
X145677667Y-75742466D01*
X145677667Y-75742466D02*
X145711000Y-75809133D01*
X145711000Y-75809133D02*
X145711000Y-75975800D01*
X145711000Y-75975800D02*
X145677667Y-76042466D01*
X145677667Y-76042466D02*
X145644333Y-76075800D01*
X145644333Y-76075800D02*
X145577667Y-76109133D01*
X145577667Y-76109133D02*
X145411000Y-76109133D01*
X145411000Y-76109133D02*
X145344333Y-76075800D01*
X145344333Y-76075800D02*
X145311000Y-76042466D01*
X121295333Y-80788883D02*
X121062000Y-80455550D01*
X120895333Y-80788883D02*
X120895333Y-80088883D01*
X120895333Y-80088883D02*
X121162000Y-80088883D01*
X121162000Y-80088883D02*
X121228667Y-80122216D01*
X121228667Y-80122216D02*
X121262000Y-80155550D01*
X121262000Y-80155550D02*
X121295333Y-80222216D01*
X121295333Y-80222216D02*
X121295333Y-80322216D01*
X121295333Y-80322216D02*
X121262000Y-80388883D01*
X121262000Y-80388883D02*
X121228667Y-80422216D01*
X121228667Y-80422216D02*
X121162000Y-80455550D01*
X121162000Y-80455550D02*
X120895333Y-80455550D01*
X121528667Y-80088883D02*
X121962000Y-80088883D01*
X121962000Y-80088883D02*
X121728667Y-80355550D01*
X121728667Y-80355550D02*
X121828667Y-80355550D01*
X121828667Y-80355550D02*
X121895333Y-80388883D01*
X121895333Y-80388883D02*
X121928667Y-80422216D01*
X121928667Y-80422216D02*
X121962000Y-80488883D01*
X121962000Y-80488883D02*
X121962000Y-80655550D01*
X121962000Y-80655550D02*
X121928667Y-80722216D01*
X121928667Y-80722216D02*
X121895333Y-80755550D01*
X121895333Y-80755550D02*
X121828667Y-80788883D01*
X121828667Y-80788883D02*
X121628667Y-80788883D01*
X121628667Y-80788883D02*
X121562000Y-80755550D01*
X121562000Y-80755550D02*
X121528667Y-80722216D01*
X102245333Y-82392466D02*
X102212000Y-82425800D01*
X102212000Y-82425800D02*
X102112000Y-82459133D01*
X102112000Y-82459133D02*
X102045333Y-82459133D01*
X102045333Y-82459133D02*
X101945333Y-82425800D01*
X101945333Y-82425800D02*
X101878667Y-82359133D01*
X101878667Y-82359133D02*
X101845333Y-82292466D01*
X101845333Y-82292466D02*
X101812000Y-82159133D01*
X101812000Y-82159133D02*
X101812000Y-82059133D01*
X101812000Y-82059133D02*
X101845333Y-81925800D01*
X101845333Y-81925800D02*
X101878667Y-81859133D01*
X101878667Y-81859133D02*
X101945333Y-81792466D01*
X101945333Y-81792466D02*
X102045333Y-81759133D01*
X102045333Y-81759133D02*
X102112000Y-81759133D01*
X102112000Y-81759133D02*
X102212000Y-81792466D01*
X102212000Y-81792466D02*
X102245333Y-81825800D01*
X102645333Y-82059133D02*
X102578667Y-82025800D01*
X102578667Y-82025800D02*
X102545333Y-81992466D01*
X102545333Y-81992466D02*
X102512000Y-81925800D01*
X102512000Y-81925800D02*
X102512000Y-81892466D01*
X102512000Y-81892466D02*
X102545333Y-81825800D01*
X102545333Y-81825800D02*
X102578667Y-81792466D01*
X102578667Y-81792466D02*
X102645333Y-81759133D01*
X102645333Y-81759133D02*
X102778667Y-81759133D01*
X102778667Y-81759133D02*
X102845333Y-81792466D01*
X102845333Y-81792466D02*
X102878667Y-81825800D01*
X102878667Y-81825800D02*
X102912000Y-81892466D01*
X102912000Y-81892466D02*
X102912000Y-81925800D01*
X102912000Y-81925800D02*
X102878667Y-81992466D01*
X102878667Y-81992466D02*
X102845333Y-82025800D01*
X102845333Y-82025800D02*
X102778667Y-82059133D01*
X102778667Y-82059133D02*
X102645333Y-82059133D01*
X102645333Y-82059133D02*
X102578667Y-82092466D01*
X102578667Y-82092466D02*
X102545333Y-82125800D01*
X102545333Y-82125800D02*
X102512000Y-82192466D01*
X102512000Y-82192466D02*
X102512000Y-82325800D01*
X102512000Y-82325800D02*
X102545333Y-82392466D01*
X102545333Y-82392466D02*
X102578667Y-82425800D01*
X102578667Y-82425800D02*
X102645333Y-82459133D01*
X102645333Y-82459133D02*
X102778667Y-82459133D01*
X102778667Y-82459133D02*
X102845333Y-82425800D01*
X102845333Y-82425800D02*
X102878667Y-82392466D01*
X102878667Y-82392466D02*
X102912000Y-82325800D01*
X102912000Y-82325800D02*
X102912000Y-82192466D01*
X102912000Y-82192466D02*
X102878667Y-82125800D01*
X102878667Y-82125800D02*
X102845333Y-82092466D01*
X102845333Y-82092466D02*
X102778667Y-82059133D01*
X143012333Y-76550466D02*
X142979000Y-76583800D01*
X142979000Y-76583800D02*
X142879000Y-76617133D01*
X142879000Y-76617133D02*
X142812333Y-76617133D01*
X142812333Y-76617133D02*
X142712333Y-76583800D01*
X142712333Y-76583800D02*
X142645667Y-76517133D01*
X142645667Y-76517133D02*
X142612333Y-76450466D01*
X142612333Y-76450466D02*
X142579000Y-76317133D01*
X142579000Y-76317133D02*
X142579000Y-76217133D01*
X142579000Y-76217133D02*
X142612333Y-76083800D01*
X142612333Y-76083800D02*
X142645667Y-76017133D01*
X142645667Y-76017133D02*
X142712333Y-75950466D01*
X142712333Y-75950466D02*
X142812333Y-75917133D01*
X142812333Y-75917133D02*
X142879000Y-75917133D01*
X142879000Y-75917133D02*
X142979000Y-75950466D01*
X142979000Y-75950466D02*
X143012333Y-75983800D01*
X143245667Y-75917133D02*
X143712333Y-75917133D01*
X143712333Y-75917133D02*
X143412333Y-76617133D01*
X114359333Y-80376633D02*
X114126000Y-80043300D01*
X113959333Y-80376633D02*
X113959333Y-79676633D01*
X113959333Y-79676633D02*
X114226000Y-79676633D01*
X114226000Y-79676633D02*
X114292667Y-79709966D01*
X114292667Y-79709966D02*
X114326000Y-79743300D01*
X114326000Y-79743300D02*
X114359333Y-79809966D01*
X114359333Y-79809966D02*
X114359333Y-79909966D01*
X114359333Y-79909966D02*
X114326000Y-79976633D01*
X114326000Y-79976633D02*
X114292667Y-80009966D01*
X114292667Y-80009966D02*
X114226000Y-80043300D01*
X114226000Y-80043300D02*
X113959333Y-80043300D01*
X114559333Y-79676633D02*
X114792667Y-80376633D01*
X114792667Y-80376633D02*
X115026000Y-79676633D01*
X115626000Y-80376633D02*
X115226000Y-80376633D01*
X115426000Y-80376633D02*
X115426000Y-79676633D01*
X115426000Y-79676633D02*
X115359333Y-79776633D01*
X115359333Y-79776633D02*
X115292667Y-79843300D01*
X115292667Y-79843300D02*
X115226000Y-79876633D01*
X135138333Y-82389133D02*
X134905000Y-82055800D01*
X134738333Y-82389133D02*
X134738333Y-81689133D01*
X134738333Y-81689133D02*
X135005000Y-81689133D01*
X135005000Y-81689133D02*
X135071667Y-81722466D01*
X135071667Y-81722466D02*
X135105000Y-81755800D01*
X135105000Y-81755800D02*
X135138333Y-81822466D01*
X135138333Y-81822466D02*
X135138333Y-81922466D01*
X135138333Y-81922466D02*
X135105000Y-81989133D01*
X135105000Y-81989133D02*
X135071667Y-82022466D01*
X135071667Y-82022466D02*
X135005000Y-82055800D01*
X135005000Y-82055800D02*
X134738333Y-82055800D01*
X135405000Y-81755800D02*
X135438333Y-81722466D01*
X135438333Y-81722466D02*
X135505000Y-81689133D01*
X135505000Y-81689133D02*
X135671667Y-81689133D01*
X135671667Y-81689133D02*
X135738333Y-81722466D01*
X135738333Y-81722466D02*
X135771667Y-81755800D01*
X135771667Y-81755800D02*
X135805000Y-81822466D01*
X135805000Y-81822466D02*
X135805000Y-81889133D01*
X135805000Y-81889133D02*
X135771667Y-81989133D01*
X135771667Y-81989133D02*
X135371667Y-82389133D01*
X135371667Y-82389133D02*
X135805000Y-82389133D01*
X140231210Y-78931633D02*
X139997877Y-78598300D01*
X139831210Y-78931633D02*
X139831210Y-78231633D01*
X139831210Y-78231633D02*
X140097877Y-78231633D01*
X140097877Y-78231633D02*
X140164544Y-78264966D01*
X140164544Y-78264966D02*
X140197877Y-78298300D01*
X140197877Y-78298300D02*
X140231210Y-78364966D01*
X140231210Y-78364966D02*
X140231210Y-78464966D01*
X140231210Y-78464966D02*
X140197877Y-78531633D01*
X140197877Y-78531633D02*
X140164544Y-78564966D01*
X140164544Y-78564966D02*
X140097877Y-78598300D01*
X140097877Y-78598300D02*
X139831210Y-78598300D01*
X140631210Y-78531633D02*
X140564544Y-78498300D01*
X140564544Y-78498300D02*
X140531210Y-78464966D01*
X140531210Y-78464966D02*
X140497877Y-78398300D01*
X140497877Y-78398300D02*
X140497877Y-78364966D01*
X140497877Y-78364966D02*
X140531210Y-78298300D01*
X140531210Y-78298300D02*
X140564544Y-78264966D01*
X140564544Y-78264966D02*
X140631210Y-78231633D01*
X140631210Y-78231633D02*
X140764544Y-78231633D01*
X140764544Y-78231633D02*
X140831210Y-78264966D01*
X140831210Y-78264966D02*
X140864544Y-78298300D01*
X140864544Y-78298300D02*
X140897877Y-78364966D01*
X140897877Y-78364966D02*
X140897877Y-78398300D01*
X140897877Y-78398300D02*
X140864544Y-78464966D01*
X140864544Y-78464966D02*
X140831210Y-78498300D01*
X140831210Y-78498300D02*
X140764544Y-78531633D01*
X140764544Y-78531633D02*
X140631210Y-78531633D01*
X140631210Y-78531633D02*
X140564544Y-78564966D01*
X140564544Y-78564966D02*
X140531210Y-78598300D01*
X140531210Y-78598300D02*
X140497877Y-78664966D01*
X140497877Y-78664966D02*
X140497877Y-78798300D01*
X140497877Y-78798300D02*
X140531210Y-78864966D01*
X140531210Y-78864966D02*
X140564544Y-78898300D01*
X140564544Y-78898300D02*
X140631210Y-78931633D01*
X140631210Y-78931633D02*
X140764544Y-78931633D01*
X140764544Y-78931633D02*
X140831210Y-78898300D01*
X140831210Y-78898300D02*
X140864544Y-78864966D01*
X140864544Y-78864966D02*
X140897877Y-78798300D01*
X140897877Y-78798300D02*
X140897877Y-78664966D01*
X140897877Y-78664966D02*
X140864544Y-78598300D01*
X140864544Y-78598300D02*
X140831210Y-78564966D01*
X140831210Y-78564966D02*
X140764544Y-78531633D01*
X140231210Y-81471633D02*
X139997877Y-81138300D01*
X139831210Y-81471633D02*
X139831210Y-80771633D01*
X139831210Y-80771633D02*
X140097877Y-80771633D01*
X140097877Y-80771633D02*
X140164544Y-80804966D01*
X140164544Y-80804966D02*
X140197877Y-80838300D01*
X140197877Y-80838300D02*
X140231210Y-80904966D01*
X140231210Y-80904966D02*
X140231210Y-81004966D01*
X140231210Y-81004966D02*
X140197877Y-81071633D01*
X140197877Y-81071633D02*
X140164544Y-81104966D01*
X140164544Y-81104966D02*
X140097877Y-81138300D01*
X140097877Y-81138300D02*
X139831210Y-81138300D01*
X140464544Y-80771633D02*
X140931210Y-80771633D01*
X140931210Y-80771633D02*
X140631210Y-81471633D01*
X145044333Y-83719466D02*
X145011000Y-83752800D01*
X145011000Y-83752800D02*
X144911000Y-83786133D01*
X144911000Y-83786133D02*
X144844333Y-83786133D01*
X144844333Y-83786133D02*
X144744333Y-83752800D01*
X144744333Y-83752800D02*
X144677667Y-83686133D01*
X144677667Y-83686133D02*
X144644333Y-83619466D01*
X144644333Y-83619466D02*
X144611000Y-83486133D01*
X144611000Y-83486133D02*
X144611000Y-83386133D01*
X144611000Y-83386133D02*
X144644333Y-83252800D01*
X144644333Y-83252800D02*
X144677667Y-83186133D01*
X144677667Y-83186133D02*
X144744333Y-83119466D01*
X144744333Y-83119466D02*
X144844333Y-83086133D01*
X144844333Y-83086133D02*
X144911000Y-83086133D01*
X144911000Y-83086133D02*
X145011000Y-83119466D01*
X145011000Y-83119466D02*
X145044333Y-83152800D01*
X145277667Y-83086133D02*
X145711000Y-83086133D01*
X145711000Y-83086133D02*
X145477667Y-83352800D01*
X145477667Y-83352800D02*
X145577667Y-83352800D01*
X145577667Y-83352800D02*
X145644333Y-83386133D01*
X145644333Y-83386133D02*
X145677667Y-83419466D01*
X145677667Y-83419466D02*
X145711000Y-83486133D01*
X145711000Y-83486133D02*
X145711000Y-83652800D01*
X145711000Y-83652800D02*
X145677667Y-83719466D01*
X145677667Y-83719466D02*
X145644333Y-83752800D01*
X145644333Y-83752800D02*
X145577667Y-83786133D01*
X145577667Y-83786133D02*
X145377667Y-83786133D01*
X145377667Y-83786133D02*
X145311000Y-83752800D01*
X145311000Y-83752800D02*
X145277667Y-83719466D01*
X128163666Y-82959133D02*
X128163666Y-83459133D01*
X128163666Y-83459133D02*
X128130333Y-83559133D01*
X128130333Y-83559133D02*
X128063666Y-83625800D01*
X128063666Y-83625800D02*
X127963666Y-83659133D01*
X127963666Y-83659133D02*
X127897000Y-83659133D01*
X128863666Y-83659133D02*
X128463666Y-83659133D01*
X128663666Y-83659133D02*
X128663666Y-82959133D01*
X128663666Y-82959133D02*
X128596999Y-83059133D01*
X128596999Y-83059133D02*
X128530333Y-83125800D01*
X128530333Y-83125800D02*
X128463666Y-83159133D01*
X135138333Y-77252133D02*
X134905000Y-76918800D01*
X134738333Y-77252133D02*
X134738333Y-76552133D01*
X134738333Y-76552133D02*
X135005000Y-76552133D01*
X135005000Y-76552133D02*
X135071667Y-76585466D01*
X135071667Y-76585466D02*
X135105000Y-76618800D01*
X135105000Y-76618800D02*
X135138333Y-76685466D01*
X135138333Y-76685466D02*
X135138333Y-76785466D01*
X135138333Y-76785466D02*
X135105000Y-76852133D01*
X135105000Y-76852133D02*
X135071667Y-76885466D01*
X135071667Y-76885466D02*
X135005000Y-76918800D01*
X135005000Y-76918800D02*
X134738333Y-76918800D01*
X135805000Y-77252133D02*
X135405000Y-77252133D01*
X135605000Y-77252133D02*
X135605000Y-76552133D01*
X135605000Y-76552133D02*
X135538333Y-76652133D01*
X135538333Y-76652133D02*
X135471667Y-76718800D01*
X135471667Y-76718800D02*
X135405000Y-76752133D01*
X110627333Y-82897133D02*
X110394000Y-82563800D01*
X110227333Y-82897133D02*
X110227333Y-82197133D01*
X110227333Y-82197133D02*
X110494000Y-82197133D01*
X110494000Y-82197133D02*
X110560667Y-82230466D01*
X110560667Y-82230466D02*
X110594000Y-82263800D01*
X110594000Y-82263800D02*
X110627333Y-82330466D01*
X110627333Y-82330466D02*
X110627333Y-82430466D01*
X110627333Y-82430466D02*
X110594000Y-82497133D01*
X110594000Y-82497133D02*
X110560667Y-82530466D01*
X110560667Y-82530466D02*
X110494000Y-82563800D01*
X110494000Y-82563800D02*
X110227333Y-82563800D01*
X111227333Y-82197133D02*
X111094000Y-82197133D01*
X111094000Y-82197133D02*
X111027333Y-82230466D01*
X111027333Y-82230466D02*
X110994000Y-82263800D01*
X110994000Y-82263800D02*
X110927333Y-82363800D01*
X110927333Y-82363800D02*
X110894000Y-82497133D01*
X110894000Y-82497133D02*
X110894000Y-82763800D01*
X110894000Y-82763800D02*
X110927333Y-82830466D01*
X110927333Y-82830466D02*
X110960667Y-82863800D01*
X110960667Y-82863800D02*
X111027333Y-82897133D01*
X111027333Y-82897133D02*
X111160667Y-82897133D01*
X111160667Y-82897133D02*
X111227333Y-82863800D01*
X111227333Y-82863800D02*
X111260667Y-82830466D01*
X111260667Y-82830466D02*
X111294000Y-82763800D01*
X111294000Y-82763800D02*
X111294000Y-82597133D01*
X111294000Y-82597133D02*
X111260667Y-82530466D01*
X111260667Y-82530466D02*
X111227333Y-82497133D01*
X111227333Y-82497133D02*
X111160667Y-82463800D01*
X111160667Y-82463800D02*
X111027333Y-82463800D01*
X111027333Y-82463800D02*
X110960667Y-82497133D01*
X110960667Y-82497133D02*
X110927333Y-82530466D01*
X110927333Y-82530466D02*
X110894000Y-82597133D01*
X143012333Y-81881133D02*
X142779000Y-81547800D01*
X142612333Y-81881133D02*
X142612333Y-81181133D01*
X142612333Y-81181133D02*
X142879000Y-81181133D01*
X142879000Y-81181133D02*
X142945667Y-81214466D01*
X142945667Y-81214466D02*
X142979000Y-81247800D01*
X142979000Y-81247800D02*
X143012333Y-81314466D01*
X143012333Y-81314466D02*
X143012333Y-81414466D01*
X143012333Y-81414466D02*
X142979000Y-81481133D01*
X142979000Y-81481133D02*
X142945667Y-81514466D01*
X142945667Y-81514466D02*
X142879000Y-81547800D01*
X142879000Y-81547800D02*
X142612333Y-81547800D01*
X143645667Y-81181133D02*
X143312333Y-81181133D01*
X143312333Y-81181133D02*
X143279000Y-81514466D01*
X143279000Y-81514466D02*
X143312333Y-81481133D01*
X143312333Y-81481133D02*
X143379000Y-81447800D01*
X143379000Y-81447800D02*
X143545667Y-81447800D01*
X143545667Y-81447800D02*
X143612333Y-81481133D01*
X143612333Y-81481133D02*
X143645667Y-81514466D01*
X143645667Y-81514466D02*
X143679000Y-81581133D01*
X143679000Y-81581133D02*
X143679000Y-81747800D01*
X143679000Y-81747800D02*
X143645667Y-81814466D01*
X143645667Y-81814466D02*
X143612333Y-81847800D01*
X143612333Y-81847800D02*
X143545667Y-81881133D01*
X143545667Y-81881133D02*
X143379000Y-81881133D01*
X143379000Y-81881133D02*
X143312333Y-81847800D01*
X143312333Y-81847800D02*
X143279000Y-81814466D01*
X153140455Y-75818633D02*
X153140455Y-76385300D01*
X153140455Y-76385300D02*
X153173789Y-76451966D01*
X153173789Y-76451966D02*
X153207122Y-76485300D01*
X153207122Y-76485300D02*
X153273789Y-76518633D01*
X153273789Y-76518633D02*
X153407122Y-76518633D01*
X153407122Y-76518633D02*
X153473789Y-76485300D01*
X153473789Y-76485300D02*
X153507122Y-76451966D01*
X153507122Y-76451966D02*
X153540455Y-76385300D01*
X153540455Y-76385300D02*
X153540455Y-75818633D01*
X153840455Y-75885300D02*
X153873788Y-75851966D01*
X153873788Y-75851966D02*
X153940455Y-75818633D01*
X153940455Y-75818633D02*
X154107122Y-75818633D01*
X154107122Y-75818633D02*
X154173788Y-75851966D01*
X154173788Y-75851966D02*
X154207122Y-75885300D01*
X154207122Y-75885300D02*
X154240455Y-75951966D01*
X154240455Y-75951966D02*
X154240455Y-76018633D01*
X154240455Y-76018633D02*
X154207122Y-76118633D01*
X154207122Y-76118633D02*
X153807122Y-76518633D01*
X153807122Y-76518633D02*
X154240455Y-76518633D01*
X102332877Y-75818633D02*
X102332877Y-76385300D01*
X102332877Y-76385300D02*
X102366211Y-76451966D01*
X102366211Y-76451966D02*
X102399544Y-76485300D01*
X102399544Y-76485300D02*
X102466211Y-76518633D01*
X102466211Y-76518633D02*
X102599544Y-76518633D01*
X102599544Y-76518633D02*
X102666211Y-76485300D01*
X102666211Y-76485300D02*
X102699544Y-76451966D01*
X102699544Y-76451966D02*
X102732877Y-76385300D01*
X102732877Y-76385300D02*
X102732877Y-75818633D01*
X103432877Y-76518633D02*
X103032877Y-76518633D01*
X103232877Y-76518633D02*
X103232877Y-75818633D01*
X103232877Y-75818633D02*
X103166210Y-75918633D01*
X103166210Y-75918633D02*
X103099544Y-75985300D01*
X103099544Y-75985300D02*
X103032877Y-76018633D01*
D12*
%TO.C,J4*%
X149673000Y-85030000D02*
X151003000Y-85030000D01*
X149673000Y-86360000D02*
X149673000Y-85030000D01*
X149673000Y-87630000D02*
X149673000Y-95310000D01*
X149673000Y-87630000D02*
X152273000Y-87630000D01*
X149673000Y-95310000D02*
X154873000Y-95310000D01*
X152273000Y-85030000D02*
X154873000Y-85030000D01*
X152273000Y-87630000D02*
X152273000Y-85030000D01*
X154873000Y-85030000D02*
X154873000Y-95310000D01*
%TO.C,R4*%
X111124000Y-79094359D02*
X111124000Y-79401641D01*
X110364000Y-79094359D02*
X110364000Y-79401641D01*
%TO.C,D3*%
X121754000Y-77519250D02*
X121754000Y-76049250D01*
X121754000Y-76049250D02*
X119469000Y-76049250D01*
X119469000Y-77519250D02*
X121754000Y-77519250D01*
%TO.C,C5*%
X144426000Y-78112252D02*
X144426000Y-77589748D01*
X145896000Y-78112252D02*
X145896000Y-77589748D01*
%TO.C,R3*%
X121792000Y-78713359D02*
X121792000Y-79020641D01*
X121032000Y-78713359D02*
X121032000Y-79020641D01*
%TO.C,C8*%
X102002000Y-83673836D02*
X102002000Y-83458164D01*
X102722000Y-83673836D02*
X102722000Y-83458164D01*
%TO.C,C7*%
X142769000Y-77704836D02*
X142769000Y-77489164D01*
X143489000Y-77704836D02*
X143489000Y-77489164D01*
D13*
%TO.C,RV1*%
X117276000Y-82308000D02*
X117276000Y-77808000D01*
X116176000Y-82308000D02*
X117276000Y-82308000D01*
X113376000Y-82308000D02*
X112276000Y-82308000D01*
X112276000Y-82308000D02*
X112276000Y-77808000D01*
D12*
%TO.C,R2*%
X135635000Y-80491359D02*
X135635000Y-80798641D01*
X134875000Y-80491359D02*
X134875000Y-80798641D01*
%TO.C,C4*%
X107881748Y-82831000D02*
X108404252Y-82831000D01*
X107881748Y-84301000D02*
X108404252Y-84301000D01*
%TO.C,R8*%
X141985000Y-78459359D02*
X141985000Y-78766641D01*
X141225000Y-78459359D02*
X141225000Y-78766641D01*
%TO.C,R7*%
X141985000Y-80999359D02*
X141985000Y-81306641D01*
X141225000Y-80999359D02*
X141225000Y-81306641D01*
%TO.C,C3*%
X144426000Y-81541252D02*
X144426000Y-81018748D01*
X145896000Y-81541252D02*
X145896000Y-81018748D01*
D13*
%TO.C,J1*%
X132742000Y-80224000D02*
X132742000Y-79424000D01*
X132742000Y-76424000D02*
X132742000Y-75374000D01*
X132742000Y-75374000D02*
X123802000Y-75374000D01*
X123802000Y-80224000D02*
X123802000Y-79424000D01*
X123802000Y-75374000D02*
X123802000Y-76424000D01*
D12*
%TO.C,J5*%
X101667000Y-85030000D02*
X102997000Y-85030000D01*
X101667000Y-86360000D02*
X101667000Y-85030000D01*
X101667000Y-87630000D02*
X101667000Y-95310000D01*
X101667000Y-87630000D02*
X104267000Y-87630000D01*
X101667000Y-95310000D02*
X106867000Y-95310000D01*
X104267000Y-85030000D02*
X106867000Y-85030000D01*
X104267000Y-87630000D02*
X104267000Y-85030000D01*
X106867000Y-85030000D02*
X106867000Y-95310000D01*
%TO.C,R1*%
X134875000Y-78512641D02*
X134875000Y-78205359D01*
X135635000Y-78512641D02*
X135635000Y-78205359D01*
%TO.C,R6*%
X111124000Y-80999359D02*
X111124000Y-81306641D01*
X110364000Y-80999359D02*
X110364000Y-81306641D01*
%TO.C,R5*%
X142749000Y-80292641D02*
X142749000Y-79985359D01*
X143509000Y-80292641D02*
X143509000Y-79985359D01*
%TO.C,U2*%
X146522000Y-75457000D02*
X152532000Y-75457000D01*
X148772000Y-82277000D02*
X152532000Y-82277000D01*
X152532000Y-75457000D02*
X152532000Y-76717000D01*
X152532000Y-82277000D02*
X152532000Y-81017000D01*
%TO.C,C6*%
X104386748Y-82831000D02*
X104909252Y-82831000D01*
X104386748Y-84301000D02*
X104909252Y-84301000D01*
%TO.C,U1*%
X109891000Y-82277000D02*
X103881000Y-82277000D01*
X107641000Y-75457000D02*
X103881000Y-75457000D01*
X103881000Y-82277000D02*
X103881000Y-81017000D01*
X103881000Y-75457000D02*
X103881000Y-76717000D01*
%TD*%
M02*
