M48
; DRILL file {KiCad 7.0.5-0} date 2023 June 28, Wednesday 20:17:48
; FORMAT={-:-/ absolute / inch / decimal}
; #@! TF.CreationDate,2023-06-28T20:17:48-06:00
; #@! TF.GenerationSoftware,Kicad,Pcbnew,7.0.5-0
; #@! TF.FileFunction,Plated,1,2,PTH
FMAT,2
INCH
; #@! TA.AperFunction,Plated,PTH,ViaDrill
T1C0.0157
; #@! TA.AperFunction,Plated,PTH,ComponentDrill
T2C0.0378
; #@! TA.AperFunction,Plated,PTH,ComponentDrill
T3C0.0394
; #@! TA.AperFunction,Plated,PTH,ComponentDrill
T4C0.0480
%
G90
G05
T1
X4.05Y-3.28
X4.1646Y-3.3396
X4.225Y-3.445
X4.23Y-3.355
X4.2316Y-2.9799
X4.235Y-3.225
X4.48Y-3.17
X4.495Y-3.035
X4.52Y-3.2106
X5.29Y-3.1651
X5.36Y-3.03
X5.55Y-3.045
X5.585Y-3.1716
X5.6087Y-3.2963
X5.72Y-3.185
X5.7617Y-3.2639
X5.7617Y-3.3584
X5.8507Y-3.3584
X5.8649Y-3.2639
X5.8998Y-3.2821
X5.915Y-3.323
X5.985Y-3.0666
X5.985Y-3.1434
X5.986Y-3.2763
X6.03Y-3.28
X6.035Y-3.48
X6.085Y-3.49
T2
X4.88Y-3.0698
X4.88Y-3.2194
X5.2202Y-3.0698
X5.2202Y-3.2194
T3
X4.075Y-3.595
X4.075Y-3.695
X4.125Y-3.9
X4.175Y-3.595
X4.175Y-3.695
X4.225Y-3.9
X4.275Y-3.595
X4.275Y-3.695
X4.6Y-3.1
X4.7Y-3.1
X5.4Y-3.1
X5.5Y-3.1
X5.8194Y-3.595
X5.8194Y-3.695
X5.875Y-3.9
X5.9194Y-3.595
X5.9194Y-3.695
X5.975Y-3.9
X6.0194Y-3.595
X6.0194Y-3.695
T4
X4.085Y-4.0409
X4.285Y-4.0409
X4.55Y-3.2692
X4.75Y-3.2692
X5.35Y-3.2709
X5.55Y-3.2709
X5.815Y-4.0409
X6.015Y-4.0409
T0
M30
