%TF.GenerationSoftware,KiCad,Pcbnew,(7.0.0-0)*%
%TF.CreationDate,2023-05-14T13:41:57-06:00*%
%TF.ProjectId,Breadboard Power Supply,42726561-6462-46f6-9172-6420506f7765,v7*%
%TF.SameCoordinates,Original*%
%TF.FileFunction,Copper,L2,Bot*%
%TF.FilePolarity,Positive*%
%FSLAX46Y46*%
G04 Gerber Fmt 4.6, Leading zero omitted, Abs format (unit mm)*
G04 Created by KiCad (PCBNEW (7.0.0-0)) date 2023-05-14 13:41:57*
%MOMM*%
%LPD*%
G01*
G04 APERTURE LIST*
G04 Aperture macros list*
%AMRoundRect*
0 Rectangle with rounded corners*
0 $1 Rounding radius*
0 $2 $3 $4 $5 $6 $7 $8 $9 X,Y pos of 4 corners*
0 Add a 4 corners polygon primitive as box body*
4,1,4,$2,$3,$4,$5,$6,$7,$8,$9,$2,$3,0*
0 Add four circle primitives for the rounded corners*
1,1,$1+$1,$2,$3*
1,1,$1+$1,$4,$5*
1,1,$1+$1,$6,$7*
1,1,$1+$1,$8,$9*
0 Add four rect primitives between the rounded corners*
20,1,$1+$1,$2,$3,$4,$5,0*
20,1,$1+$1,$4,$5,$6,$7,0*
20,1,$1+$1,$6,$7,$8,$9,0*
20,1,$1+$1,$8,$9,$2,$3,0*%
G04 Aperture macros list end*
%TA.AperFunction,ComponentPad*%
%ADD10C,1.830000*%
%TD*%
%TA.AperFunction,ComponentPad*%
%ADD11R,1.700000X1.700000*%
%TD*%
%TA.AperFunction,ComponentPad*%
%ADD12O,1.700000X1.700000*%
%TD*%
%TA.AperFunction,ComponentPad*%
%ADD13C,1.610000*%
%TD*%
%TA.AperFunction,SMDPad,CuDef*%
%ADD14RoundRect,0.250000X0.900000X-1.000000X0.900000X1.000000X-0.900000X1.000000X-0.900000X-1.000000X0*%
%TD*%
%TA.AperFunction,ViaPad*%
%ADD15C,0.800000*%
%TD*%
%TA.AperFunction,Conductor*%
%ADD16C,0.750000*%
%TD*%
G04 APERTURE END LIST*
D10*
%TO.P,TP3,1,1*%
%TO.N,GND*%
X135860000Y-83058000D03*
%TO.P,TP3,2,2*%
X140940000Y-83058000D03*
%TD*%
D11*
%TO.P,J2,1,Pin_1*%
%TO.N,+5V*%
X152765999Y-84327999D03*
D12*
%TO.P,J2,2,Pin_2*%
%TO.N,/TOP_POWER_RAIL*%
X152765999Y-86867999D03*
%TO.P,J2,3,Pin_3*%
%TO.N,+3.3V*%
X150225999Y-84327999D03*
%TO.P,J2,4,Pin_4*%
%TO.N,/TOP_POWER_RAIL*%
X150225999Y-86867999D03*
%TO.P,J2,5,Pin_5*%
%TO.N,+1V8*%
X147685999Y-84327999D03*
%TO.P,J2,6,Pin_6*%
%TO.N,/TOP_POWER_RAIL*%
X147685999Y-86867999D03*
%TD*%
D10*
%TO.P,TP2,1,1*%
%TO.N,GND*%
X120680000Y-83062000D03*
%TO.P,TP2,2,2*%
X115600000Y-83062000D03*
%TD*%
D13*
%TO.P,J1,MH1,MH1*%
%TO.N,GND*%
X132592000Y-77978000D03*
%TO.P,J1,MH2,MH2*%
X123952000Y-77978000D03*
%TO.P,J1,MH3,MH3*%
X132592000Y-81778000D03*
%TO.P,J1,MH4,MH4*%
X123952000Y-81778000D03*
%TD*%
D11*
%TO.P,J3,1,Pin_1*%
%TO.N,+5V*%
X108823999Y-84327999D03*
D12*
%TO.P,J3,2,Pin_2*%
%TO.N,/BOTTOM_POWER_RAIL*%
X108823999Y-86867999D03*
%TO.P,J3,3,Pin_3*%
%TO.N,+3.3V*%
X106283999Y-84327999D03*
%TO.P,J3,4,Pin_4*%
%TO.N,/BOTTOM_POWER_RAIL*%
X106283999Y-86867999D03*
%TO.P,J3,5,Pin_5*%
%TO.N,+1V8*%
X103743999Y-84327999D03*
%TO.P,J3,6,Pin_6*%
%TO.N,/BOTTOM_POWER_RAIL*%
X103743999Y-86867999D03*
%TD*%
D10*
%TO.P,TP1,1,1*%
%TO.N,GND*%
X103729000Y-97026000D03*
%TO.P,TP1,2,2*%
X108809000Y-97026000D03*
%TD*%
%TO.P,TP4,1,1*%
%TO.N,GND*%
X147671000Y-97026000D03*
%TO.P,TP4,2,2*%
X152751000Y-97026000D03*
%TD*%
D14*
%TO.P,D2,1,K*%
%TO.N,+5V*%
X128270000Y-82033000D03*
%TO.P,D2,2,A*%
%TO.N,GND*%
X128270000Y-77733000D03*
%TD*%
D11*
%TO.P,J10,1,Pin_1*%
%TO.N,unconnected-(J10-Pin_1-Pad1)*%
X116839999Y-78739999D03*
D12*
%TO.P,J10,2,Pin_2*%
%TO.N,unconnected-(J10-Pin_2-Pad2)*%
X119379999Y-78739999D03*
%TD*%
D11*
%TO.P,J8,1,Pin_1*%
%TO.N,/TOP_POWER_RAIL*%
X149224999Y-93979999D03*
D12*
%TO.P,J8,2,Pin_2*%
%TO.N,GND*%
X151764999Y-93979999D03*
%TD*%
D11*
%TO.P,J11,1,Pin_1*%
%TO.N,unconnected-(J11-Pin_1-Pad1)*%
X139699999Y-78739999D03*
D12*
%TO.P,J11,2,Pin_2*%
%TO.N,unconnected-(J11-Pin_2-Pad2)*%
X137159999Y-78739999D03*
%TD*%
D11*
%TO.P,J9,1,Pin_1*%
%TO.N,/BOTTOM_POWER_RAIL*%
X104774999Y-93979999D03*
D12*
%TO.P,J9,2,Pin_2*%
%TO.N,GND*%
X107314999Y-93979999D03*
%TD*%
D15*
%TO.N,GND*%
X141478000Y-76962000D03*
X134366000Y-80392500D03*
X149362896Y-76666500D03*
X105791000Y-81153000D03*
X136144000Y-76962000D03*
X114173000Y-76835000D03*
X143510000Y-80010000D03*
%TO.N,+3.3V*%
X145415000Y-84582000D03*
%TO.N,+1V8*%
X114046000Y-75689648D03*
X148844000Y-88317419D03*
X151638000Y-88317419D03*
X107482182Y-75689648D03*
X154667000Y-82169000D03*
%TO.N,+5V*%
X130371817Y-83243064D03*
X126225300Y-83372700D03*
X114488000Y-81981000D03*
X148971000Y-80772000D03*
%TD*%
D16*
%TO.N,+3.3V*%
X150226000Y-84328000D02*
X148801000Y-82903000D01*
X147094000Y-82903000D02*
X145415000Y-84582000D01*
X148801000Y-82903000D02*
X147094000Y-82903000D01*
%TO.N,+1V8*%
X149331507Y-75689648D02*
X114046000Y-75689648D01*
X149333859Y-75692000D02*
X149331507Y-75689648D01*
X154686000Y-82150000D02*
X154686000Y-75692000D01*
X154667000Y-82169000D02*
X154686000Y-82150000D01*
X107482182Y-75689648D02*
X114046000Y-75689648D01*
X154686000Y-75692000D02*
X149333859Y-75692000D01*
X151638000Y-88317419D02*
X148844000Y-88317419D01*
%TO.N,+5V*%
X114488000Y-81981000D02*
X112141000Y-84328000D01*
X152766000Y-84328000D02*
X152527000Y-84328000D01*
X112141000Y-84328000D02*
X108824000Y-84328000D01*
X152527000Y-84328000D02*
X148971000Y-80772000D01*
X128270000Y-81927700D02*
X129056453Y-81927700D01*
X129056453Y-81927700D02*
X130371817Y-83243064D01*
X128270000Y-81927700D02*
X127670300Y-81927700D01*
X127670300Y-81927700D02*
X126225300Y-83372700D01*
%TD*%
%TA.AperFunction,Conductor*%
%TO.N,GND*%
G36*
X106576685Y-75198015D02*
G01*
X106620708Y-75235615D01*
X106642863Y-75289102D01*
X106638321Y-75346818D01*
X106590647Y-75493540D01*
X106590645Y-75493549D01*
X106588640Y-75499720D01*
X106587962Y-75506170D01*
X106587960Y-75506180D01*
X106573298Y-75645694D01*
X106568678Y-75689648D01*
X106569357Y-75696108D01*
X106587960Y-75873115D01*
X106587961Y-75873123D01*
X106588640Y-75879576D01*
X106590645Y-75885748D01*
X106590647Y-75885755D01*
X106645647Y-76055025D01*
X106647655Y-76061204D01*
X106743142Y-76226592D01*
X106870929Y-76368514D01*
X106876179Y-76372328D01*
X106876182Y-76372331D01*
X107019045Y-76476127D01*
X107025430Y-76480766D01*
X107199894Y-76558442D01*
X107206252Y-76559793D01*
X107206254Y-76559794D01*
X107243056Y-76567616D01*
X107386695Y-76598148D01*
X107571166Y-76598148D01*
X107577669Y-76598148D01*
X107682534Y-76575858D01*
X107708316Y-76573148D01*
X113819866Y-76573148D01*
X113845647Y-76575858D01*
X113950513Y-76598148D01*
X114134984Y-76598148D01*
X114141487Y-76598148D01*
X114246352Y-76575858D01*
X114272134Y-76573148D01*
X123317495Y-76573148D01*
X123381360Y-76590859D01*
X123426981Y-76638934D01*
X123441325Y-76703638D01*
X123420296Y-76766488D01*
X123369900Y-76809530D01*
X123301916Y-76841231D01*
X123292572Y-76846625D01*
X123234061Y-76887594D01*
X123226627Y-76895707D01*
X123232538Y-76904985D01*
X123940457Y-77612904D01*
X123952000Y-77619568D01*
X123963542Y-77612904D01*
X124671457Y-76904988D01*
X124677371Y-76895705D01*
X124669940Y-76887596D01*
X124611422Y-76846621D01*
X124602090Y-76841233D01*
X124534101Y-76809530D01*
X124483705Y-76766488D01*
X124462676Y-76703638D01*
X124477020Y-76638934D01*
X124522641Y-76590859D01*
X124586506Y-76573148D01*
X126496000Y-76573148D01*
X126558000Y-76589761D01*
X126603387Y-76635148D01*
X126620000Y-76697148D01*
X126620000Y-77466674D01*
X126623450Y-77479549D01*
X126636326Y-77483000D01*
X129903673Y-77483000D01*
X129916548Y-77479549D01*
X129919999Y-77466674D01*
X129919999Y-76697148D01*
X129936612Y-76635148D01*
X129981999Y-76589761D01*
X130043999Y-76573148D01*
X131957495Y-76573148D01*
X132021360Y-76590859D01*
X132066981Y-76638934D01*
X132081325Y-76703638D01*
X132060296Y-76766488D01*
X132009900Y-76809530D01*
X131941916Y-76841231D01*
X131932572Y-76846625D01*
X131874061Y-76887594D01*
X131866627Y-76895707D01*
X131872538Y-76904985D01*
X132580457Y-77612904D01*
X132592000Y-77619568D01*
X132603542Y-77612904D01*
X133311457Y-76904988D01*
X133317371Y-76895705D01*
X133309940Y-76887596D01*
X133251422Y-76846621D01*
X133242090Y-76841233D01*
X133174101Y-76809530D01*
X133123705Y-76766488D01*
X133102676Y-76703638D01*
X133117020Y-76638934D01*
X133162641Y-76590859D01*
X133226506Y-76573148D01*
X149258674Y-76573148D01*
X149271635Y-76573827D01*
X149287553Y-76575500D01*
X149307475Y-76575500D01*
X149313964Y-76575670D01*
X149380352Y-76579149D01*
X149393756Y-76577026D01*
X149413154Y-76575500D01*
X153678500Y-76575500D01*
X153740500Y-76592113D01*
X153785887Y-76637500D01*
X153802500Y-76699500D01*
X153802500Y-81870050D01*
X153796431Y-81908368D01*
X153775465Y-81972893D01*
X153775463Y-81972899D01*
X153773458Y-81979072D01*
X153772779Y-81985527D01*
X153772779Y-81985530D01*
X153763519Y-82073638D01*
X153753496Y-82169000D01*
X153754175Y-82175460D01*
X153772778Y-82352467D01*
X153772779Y-82352475D01*
X153773458Y-82358928D01*
X153775463Y-82365100D01*
X153775465Y-82365107D01*
X153825126Y-82517944D01*
X153832473Y-82540556D01*
X153835720Y-82546180D01*
X153835721Y-82546182D01*
X153858594Y-82585800D01*
X153927960Y-82705944D01*
X154055747Y-82847866D01*
X154060997Y-82851680D01*
X154061000Y-82851683D01*
X154203863Y-82955479D01*
X154210248Y-82960118D01*
X154216181Y-82962759D01*
X154216182Y-82962760D01*
X154353754Y-83024011D01*
X154384712Y-83037794D01*
X154391070Y-83039145D01*
X154391072Y-83039146D01*
X154417282Y-83044717D01*
X154571513Y-83077500D01*
X154755984Y-83077500D01*
X154762487Y-83077500D01*
X154889714Y-83050457D01*
X154916719Y-83044717D01*
X154971447Y-83045433D01*
X155020536Y-83069641D01*
X155054421Y-83112624D01*
X155066500Y-83166007D01*
X155066500Y-98300500D01*
X155049887Y-98362500D01*
X155004500Y-98407887D01*
X154942500Y-98424500D01*
X153619168Y-98424500D01*
X153560151Y-98409555D01*
X153515360Y-98368323D01*
X153495592Y-98310742D01*
X153505611Y-98250692D01*
X153543003Y-98202648D01*
X153546575Y-98199867D01*
X153554680Y-98188679D01*
X153548020Y-98176573D01*
X152762542Y-97391095D01*
X152751000Y-97384431D01*
X152739457Y-97391095D01*
X151953979Y-98176572D01*
X151947318Y-98188680D01*
X151955423Y-98199868D01*
X151958995Y-98202648D01*
X151996388Y-98250691D01*
X152006407Y-98310741D01*
X151986639Y-98368322D01*
X151941848Y-98409555D01*
X151882831Y-98424500D01*
X148539168Y-98424500D01*
X148480151Y-98409555D01*
X148435360Y-98368323D01*
X148415592Y-98310742D01*
X148425611Y-98250692D01*
X148463003Y-98202648D01*
X148466575Y-98199867D01*
X148474680Y-98188679D01*
X148468020Y-98176573D01*
X147682542Y-97391095D01*
X147671000Y-97384431D01*
X147659457Y-97391095D01*
X146873979Y-98176572D01*
X146867318Y-98188680D01*
X146875423Y-98199868D01*
X146878995Y-98202648D01*
X146916388Y-98250691D01*
X146926407Y-98310741D01*
X146906639Y-98368322D01*
X146861848Y-98409555D01*
X146802831Y-98424500D01*
X145920500Y-98424500D01*
X145858500Y-98407887D01*
X145813113Y-98362500D01*
X145796500Y-98300500D01*
X145796500Y-97031117D01*
X146251574Y-97031117D01*
X146270090Y-97254580D01*
X146271774Y-97264675D01*
X146326822Y-97482054D01*
X146330141Y-97491721D01*
X146420217Y-97697075D01*
X146425086Y-97706070D01*
X146501407Y-97822888D01*
X146509375Y-97830613D01*
X146518756Y-97824689D01*
X147305904Y-97037542D01*
X147312568Y-97026000D01*
X148029431Y-97026000D01*
X148036095Y-97037542D01*
X148823242Y-97824689D01*
X148832624Y-97830613D01*
X148840588Y-97822893D01*
X148916916Y-97706066D01*
X148921781Y-97697077D01*
X149011858Y-97491721D01*
X149015177Y-97482054D01*
X149070225Y-97264675D01*
X149071909Y-97254580D01*
X149090426Y-97031117D01*
X151331574Y-97031117D01*
X151350090Y-97254580D01*
X151351774Y-97264675D01*
X151406822Y-97482054D01*
X151410141Y-97491721D01*
X151500217Y-97697075D01*
X151505086Y-97706070D01*
X151581407Y-97822888D01*
X151589375Y-97830613D01*
X151598756Y-97824689D01*
X152385904Y-97037542D01*
X152392568Y-97026000D01*
X153109431Y-97026000D01*
X153116095Y-97037542D01*
X153903242Y-97824689D01*
X153912624Y-97830613D01*
X153920588Y-97822893D01*
X153996916Y-97706066D01*
X154001781Y-97697077D01*
X154091858Y-97491721D01*
X154095177Y-97482054D01*
X154150225Y-97264675D01*
X154151909Y-97254580D01*
X154170426Y-97031117D01*
X154170426Y-97020883D01*
X154151909Y-96797419D01*
X154150225Y-96787324D01*
X154095177Y-96569945D01*
X154091858Y-96560278D01*
X154001782Y-96354924D01*
X153996913Y-96345929D01*
X153920591Y-96229110D01*
X153912623Y-96221385D01*
X153903242Y-96227309D01*
X153116095Y-97014457D01*
X153109431Y-97026000D01*
X152392568Y-97026000D01*
X152385904Y-97014457D01*
X151598756Y-96227309D01*
X151589374Y-96221385D01*
X151581410Y-96229105D01*
X151505081Y-96345937D01*
X151500219Y-96354920D01*
X151410141Y-96560278D01*
X151406822Y-96569945D01*
X151351774Y-96787324D01*
X151350090Y-96797419D01*
X151331574Y-97020883D01*
X151331574Y-97031117D01*
X149090426Y-97031117D01*
X149090426Y-97020883D01*
X149071909Y-96797419D01*
X149070225Y-96787324D01*
X149015177Y-96569945D01*
X149011858Y-96560278D01*
X148921782Y-96354924D01*
X148916913Y-96345929D01*
X148840591Y-96229110D01*
X148832623Y-96221385D01*
X148823242Y-96227309D01*
X148036095Y-97014457D01*
X148029431Y-97026000D01*
X147312568Y-97026000D01*
X147305904Y-97014457D01*
X146518756Y-96227309D01*
X146509374Y-96221385D01*
X146501410Y-96229105D01*
X146425081Y-96345937D01*
X146420219Y-96354920D01*
X146330141Y-96560278D01*
X146326822Y-96569945D01*
X146271774Y-96787324D01*
X146270090Y-96797419D01*
X146251574Y-97020883D01*
X146251574Y-97031117D01*
X145796500Y-97031117D01*
X145796500Y-95863320D01*
X146867319Y-95863320D01*
X146873978Y-95875425D01*
X147659457Y-96660904D01*
X147671000Y-96667568D01*
X147682542Y-96660904D01*
X148468019Y-95875426D01*
X148474678Y-95863320D01*
X151947319Y-95863320D01*
X151953978Y-95875425D01*
X152739457Y-96660904D01*
X152751000Y-96667568D01*
X152762542Y-96660904D01*
X153548019Y-95875426D01*
X153554679Y-95863319D01*
X153546573Y-95852129D01*
X153531629Y-95840497D01*
X153523077Y-95834910D01*
X153325851Y-95728176D01*
X153316498Y-95724074D01*
X153104404Y-95651262D01*
X153094495Y-95648753D01*
X152873313Y-95611844D01*
X152863116Y-95611000D01*
X152638884Y-95611000D01*
X152628686Y-95611844D01*
X152407504Y-95648753D01*
X152397595Y-95651262D01*
X152185501Y-95724074D01*
X152176148Y-95728176D01*
X151978924Y-95834909D01*
X151970369Y-95840498D01*
X151955425Y-95852129D01*
X151947319Y-95863320D01*
X148474678Y-95863320D01*
X148474679Y-95863319D01*
X148466573Y-95852129D01*
X148451629Y-95840497D01*
X148443077Y-95834910D01*
X148245851Y-95728176D01*
X148236498Y-95724074D01*
X148024404Y-95651262D01*
X148014495Y-95648753D01*
X147793313Y-95611844D01*
X147783116Y-95611000D01*
X147558884Y-95611000D01*
X147548686Y-95611844D01*
X147327504Y-95648753D01*
X147317595Y-95651262D01*
X147105501Y-95724074D01*
X147096148Y-95728176D01*
X146898924Y-95834909D01*
X146890369Y-95840498D01*
X146875425Y-95852129D01*
X146867319Y-95863320D01*
X145796500Y-95863320D01*
X145796500Y-94878638D01*
X147866500Y-94878638D01*
X147873011Y-94939201D01*
X147875717Y-94946458D01*
X147875719Y-94946463D01*
X147921011Y-95067894D01*
X147924111Y-95076204D01*
X148011739Y-95193261D01*
X148128796Y-95280889D01*
X148265799Y-95331989D01*
X148326362Y-95338500D01*
X150120328Y-95338500D01*
X150123638Y-95338500D01*
X150184201Y-95331989D01*
X150321204Y-95280889D01*
X150438261Y-95193261D01*
X150525889Y-95076204D01*
X150574222Y-94946617D01*
X150609200Y-94896240D01*
X150664045Y-94868787D01*
X150725338Y-94870976D01*
X150778084Y-94902272D01*
X150890090Y-95014278D01*
X150898356Y-95021215D01*
X151082991Y-95150498D01*
X151092323Y-95155886D01*
X151296602Y-95251143D01*
X151306736Y-95254831D01*
X151501219Y-95306943D01*
X151512448Y-95307311D01*
X151515000Y-95296369D01*
X152015000Y-95296369D01*
X152017551Y-95307311D01*
X152028780Y-95306943D01*
X152223263Y-95254831D01*
X152233397Y-95251143D01*
X152437676Y-95155886D01*
X152447008Y-95150498D01*
X152631643Y-95021215D01*
X152639909Y-95014278D01*
X152799278Y-94854909D01*
X152806215Y-94846643D01*
X152935498Y-94662008D01*
X152940886Y-94652676D01*
X153036143Y-94448397D01*
X153039831Y-94438263D01*
X153091943Y-94243780D01*
X153092311Y-94232551D01*
X153081369Y-94230000D01*
X152031326Y-94230000D01*
X152018450Y-94233450D01*
X152015000Y-94246326D01*
X152015000Y-95296369D01*
X151515000Y-95296369D01*
X151515000Y-93713674D01*
X152015000Y-93713674D01*
X152018450Y-93726549D01*
X152031326Y-93730000D01*
X153081369Y-93730000D01*
X153092311Y-93727448D01*
X153091943Y-93716219D01*
X153039831Y-93521736D01*
X153036143Y-93511602D01*
X152940889Y-93307332D01*
X152935491Y-93297982D01*
X152806215Y-93113357D01*
X152799280Y-93105092D01*
X152639909Y-92945721D01*
X152631643Y-92938784D01*
X152447008Y-92809501D01*
X152437676Y-92804113D01*
X152233397Y-92708856D01*
X152223263Y-92705168D01*
X152028780Y-92653056D01*
X152017551Y-92652688D01*
X152015000Y-92663631D01*
X152015000Y-93713674D01*
X151515000Y-93713674D01*
X151515000Y-92663631D01*
X151512448Y-92652688D01*
X151501219Y-92653056D01*
X151306736Y-92705168D01*
X151296602Y-92708856D01*
X151092332Y-92804110D01*
X151082982Y-92809508D01*
X150898357Y-92938784D01*
X150890098Y-92945714D01*
X150778084Y-93057728D01*
X150725337Y-93089023D01*
X150664045Y-93091212D01*
X150609200Y-93063759D01*
X150574221Y-93013379D01*
X150528989Y-92892107D01*
X150528988Y-92892105D01*
X150525889Y-92883796D01*
X150438261Y-92766739D01*
X150321204Y-92679111D01*
X150312896Y-92676012D01*
X150312894Y-92676011D01*
X150191463Y-92630719D01*
X150191458Y-92630717D01*
X150184201Y-92628011D01*
X150176497Y-92627182D01*
X150176494Y-92627182D01*
X150126924Y-92621853D01*
X150126918Y-92621852D01*
X150123638Y-92621500D01*
X148326362Y-92621500D01*
X148323082Y-92621852D01*
X148323075Y-92621853D01*
X148273505Y-92627182D01*
X148273500Y-92627182D01*
X148265799Y-92628011D01*
X148258543Y-92630717D01*
X148258536Y-92630719D01*
X148137105Y-92676011D01*
X148137099Y-92676013D01*
X148128796Y-92679111D01*
X148121698Y-92684423D01*
X148121695Y-92684426D01*
X148018835Y-92761426D01*
X148018831Y-92761429D01*
X148011739Y-92766739D01*
X148006429Y-92773831D01*
X148006426Y-92773835D01*
X147929426Y-92876695D01*
X147929423Y-92876698D01*
X147924111Y-92883796D01*
X147921013Y-92892099D01*
X147921011Y-92892105D01*
X147875719Y-93013536D01*
X147875717Y-93013543D01*
X147873011Y-93020799D01*
X147872182Y-93028500D01*
X147872182Y-93028505D01*
X147868392Y-93063759D01*
X147866500Y-93081362D01*
X147866500Y-94878638D01*
X145796500Y-94878638D01*
X145796500Y-85487149D01*
X145805530Y-85440696D01*
X145831305Y-85401008D01*
X145860917Y-85380275D01*
X145860187Y-85379011D01*
X145865816Y-85375760D01*
X145871752Y-85373118D01*
X146026253Y-85260866D01*
X146154040Y-85118944D01*
X146182113Y-85070318D01*
X146201816Y-85044640D01*
X146293500Y-84952956D01*
X146342132Y-84922947D01*
X146399060Y-84917934D01*
X146452189Y-84938983D01*
X146486372Y-84977292D01*
X146487140Y-84976791D01*
X146607474Y-85160977D01*
X146607477Y-85160981D01*
X146610278Y-85165268D01*
X146613752Y-85169041D01*
X146613753Y-85169043D01*
X146759288Y-85327135D01*
X146759291Y-85327138D01*
X146762760Y-85330906D01*
X146812088Y-85369300D01*
X146936376Y-85466039D01*
X146936381Y-85466042D01*
X146940424Y-85469189D01*
X146944931Y-85471628D01*
X146944934Y-85471630D01*
X146976930Y-85488945D01*
X147024436Y-85534526D01*
X147041913Y-85598000D01*
X147024436Y-85661474D01*
X146976930Y-85707055D01*
X146944934Y-85724369D01*
X146944922Y-85724376D01*
X146940424Y-85726811D01*
X146936389Y-85729951D01*
X146936376Y-85729960D01*
X146766801Y-85861948D01*
X146766795Y-85861952D01*
X146762760Y-85865094D01*
X146759297Y-85868855D01*
X146759288Y-85868864D01*
X146613753Y-86026956D01*
X146613747Y-86026963D01*
X146610278Y-86030732D01*
X146607481Y-86035012D01*
X146607474Y-86035022D01*
X146519809Y-86169205D01*
X146487140Y-86219209D01*
X146485085Y-86223892D01*
X146485080Y-86223903D01*
X146416000Y-86381393D01*
X146396704Y-86425384D01*
X146395446Y-86430349D01*
X146395445Y-86430354D01*
X146342695Y-86638657D01*
X146342693Y-86638666D01*
X146341436Y-86643632D01*
X146341012Y-86648741D01*
X146341011Y-86648751D01*
X146323268Y-86862883D01*
X146322844Y-86868000D01*
X146323268Y-86873117D01*
X146341011Y-87087248D01*
X146341012Y-87087256D01*
X146341436Y-87092368D01*
X146342693Y-87097335D01*
X146342695Y-87097342D01*
X146395445Y-87305645D01*
X146396704Y-87310616D01*
X146398764Y-87315312D01*
X146485080Y-87512096D01*
X146485083Y-87512101D01*
X146487140Y-87516791D01*
X146492870Y-87525561D01*
X146607474Y-87700977D01*
X146607477Y-87700981D01*
X146610278Y-87705268D01*
X146613752Y-87709041D01*
X146613753Y-87709043D01*
X146759288Y-87867135D01*
X146759291Y-87867138D01*
X146762760Y-87870906D01*
X146766801Y-87874051D01*
X146936376Y-88006039D01*
X146936381Y-88006042D01*
X146940424Y-88009189D01*
X146944931Y-88011628D01*
X146944934Y-88011630D01*
X147133919Y-88113903D01*
X147138426Y-88116342D01*
X147351365Y-88189444D01*
X147573431Y-88226500D01*
X147793440Y-88226500D01*
X147798569Y-88226500D01*
X147800094Y-88226245D01*
X147861289Y-88237092D01*
X147910047Y-88277472D01*
X147932518Y-88336658D01*
X147949778Y-88500886D01*
X147949779Y-88500894D01*
X147950458Y-88507347D01*
X147952463Y-88513519D01*
X147952465Y-88513526D01*
X148007465Y-88682796D01*
X148009473Y-88688975D01*
X148104960Y-88854363D01*
X148232747Y-88996285D01*
X148237997Y-89000099D01*
X148238000Y-89000102D01*
X148380863Y-89103898D01*
X148387248Y-89108537D01*
X148561712Y-89186213D01*
X148568070Y-89187564D01*
X148568072Y-89187565D01*
X148604874Y-89195387D01*
X148748513Y-89225919D01*
X148932984Y-89225919D01*
X148939487Y-89225919D01*
X149044352Y-89203629D01*
X149070134Y-89200919D01*
X151411866Y-89200919D01*
X151437647Y-89203629D01*
X151542513Y-89225919D01*
X151726984Y-89225919D01*
X151733487Y-89225919D01*
X151920288Y-89186213D01*
X152094752Y-89108537D01*
X152249253Y-88996285D01*
X152377040Y-88854363D01*
X152472527Y-88688975D01*
X152531542Y-88507347D01*
X152549389Y-88337537D01*
X152569909Y-88281160D01*
X152614495Y-88241015D01*
X152672710Y-88226500D01*
X152873436Y-88226500D01*
X152878569Y-88226500D01*
X153100635Y-88189444D01*
X153313574Y-88116342D01*
X153511576Y-88009189D01*
X153689240Y-87870906D01*
X153841722Y-87705268D01*
X153964860Y-87516791D01*
X154055296Y-87310616D01*
X154110564Y-87092368D01*
X154129156Y-86868000D01*
X154110564Y-86643632D01*
X154055296Y-86425384D01*
X153964860Y-86219209D01*
X153841722Y-86030732D01*
X153696506Y-85872987D01*
X153667735Y-85820239D01*
X153667142Y-85760152D01*
X153694869Y-85706841D01*
X153744404Y-85672826D01*
X153862204Y-85628889D01*
X153979261Y-85541261D01*
X154066889Y-85424204D01*
X154117989Y-85287201D01*
X154124500Y-85226638D01*
X154124500Y-83429362D01*
X154117989Y-83368799D01*
X154066889Y-83231796D01*
X153979261Y-83114739D01*
X153942891Y-83087513D01*
X153869304Y-83032426D01*
X153869303Y-83032425D01*
X153862204Y-83027111D01*
X153853896Y-83024012D01*
X153853894Y-83024011D01*
X153732463Y-82978719D01*
X153732458Y-82978717D01*
X153725201Y-82976011D01*
X153717497Y-82975182D01*
X153717494Y-82975182D01*
X153667924Y-82969853D01*
X153667918Y-82969852D01*
X153664638Y-82969500D01*
X153661328Y-82969500D01*
X152469320Y-82969500D01*
X152421867Y-82960061D01*
X152381639Y-82933181D01*
X149757819Y-80309361D01*
X149738113Y-80283680D01*
X149732997Y-80274819D01*
X149710040Y-80235056D01*
X149582253Y-80093134D01*
X149577003Y-80089319D01*
X149576999Y-80089316D01*
X149433006Y-79984699D01*
X149433004Y-79984697D01*
X149427752Y-79980882D01*
X149421821Y-79978241D01*
X149421817Y-79978239D01*
X149259226Y-79905849D01*
X149259219Y-79905846D01*
X149253288Y-79903206D01*
X149246935Y-79901855D01*
X149246927Y-79901853D01*
X149072849Y-79864852D01*
X149072846Y-79864851D01*
X149066487Y-79863500D01*
X148875513Y-79863500D01*
X148869154Y-79864851D01*
X148869150Y-79864852D01*
X148695072Y-79901853D01*
X148695061Y-79901856D01*
X148688712Y-79903206D01*
X148682782Y-79905845D01*
X148682773Y-79905849D01*
X148520182Y-79978239D01*
X148520174Y-79978243D01*
X148514248Y-79980882D01*
X148508999Y-79984695D01*
X148508993Y-79984699D01*
X148365000Y-80089316D01*
X148364991Y-80089323D01*
X148359747Y-80093134D01*
X148355403Y-80097957D01*
X148355400Y-80097961D01*
X148354915Y-80098500D01*
X148231960Y-80235056D01*
X148228714Y-80240676D01*
X148228711Y-80240682D01*
X148139721Y-80394817D01*
X148139718Y-80394822D01*
X148136473Y-80400444D01*
X148134467Y-80406616D01*
X148134465Y-80406622D01*
X148079465Y-80575892D01*
X148079463Y-80575901D01*
X148077458Y-80582072D01*
X148076780Y-80588522D01*
X148076778Y-80588532D01*
X148064631Y-80704112D01*
X148057496Y-80772000D01*
X148058175Y-80778460D01*
X148076778Y-80955467D01*
X148076779Y-80955475D01*
X148077458Y-80961928D01*
X148079463Y-80968100D01*
X148079465Y-80968107D01*
X148128355Y-81118572D01*
X148136473Y-81143556D01*
X148231960Y-81308944D01*
X148359747Y-81450866D01*
X148496589Y-81550288D01*
X148500544Y-81553161D01*
X148515340Y-81565798D01*
X148757361Y-81807819D01*
X148787611Y-81857182D01*
X148792153Y-81914898D01*
X148769998Y-81968385D01*
X148725975Y-82005985D01*
X148669680Y-82019500D01*
X147173295Y-82019500D01*
X147153896Y-82017973D01*
X147146913Y-82016866D01*
X147146904Y-82016865D01*
X147140493Y-82015850D01*
X147134003Y-82016190D01*
X147074093Y-82019330D01*
X147067603Y-82019500D01*
X147047694Y-82019500D01*
X147044481Y-82019837D01*
X147044474Y-82019838D01*
X147027887Y-82021581D01*
X147021425Y-82022089D01*
X146961520Y-82025229D01*
X146961512Y-82025230D01*
X146955029Y-82025570D01*
X146948751Y-82027251D01*
X146948750Y-82027252D01*
X146941912Y-82029084D01*
X146922794Y-82032627D01*
X146915762Y-82033366D01*
X146915758Y-82033366D01*
X146909298Y-82034046D01*
X146903125Y-82036051D01*
X146903114Y-82036054D01*
X146846087Y-82054584D01*
X146839864Y-82056428D01*
X146781909Y-82071957D01*
X146781905Y-82071958D01*
X146775637Y-82073638D01*
X146769859Y-82076581D01*
X146769843Y-82076588D01*
X146763540Y-82079800D01*
X146745580Y-82087240D01*
X146738848Y-82089427D01*
X146738837Y-82089431D01*
X146732669Y-82091436D01*
X146727050Y-82094680D01*
X146727039Y-82094685D01*
X146675107Y-82124668D01*
X146669406Y-82127764D01*
X146615950Y-82155001D01*
X146615940Y-82155007D01*
X146610161Y-82157952D01*
X146605118Y-82162035D01*
X146605105Y-82162044D01*
X146599611Y-82166494D01*
X146583588Y-82177507D01*
X146577463Y-82181043D01*
X146577454Y-82181048D01*
X146571831Y-82184296D01*
X146567008Y-82188638D01*
X146566999Y-82188645D01*
X146522427Y-82228778D01*
X146517498Y-82232988D01*
X146504535Y-82243485D01*
X146504510Y-82243506D01*
X146502015Y-82245528D01*
X146499743Y-82247799D01*
X146499715Y-82247825D01*
X146487926Y-82259614D01*
X146483225Y-82264075D01*
X146438644Y-82304217D01*
X146438639Y-82304221D01*
X146433815Y-82308566D01*
X146430000Y-82313815D01*
X146429995Y-82313822D01*
X146425830Y-82319555D01*
X146413199Y-82334342D01*
X144959344Y-83788196D01*
X144944549Y-83800832D01*
X144809007Y-83899311D01*
X144808999Y-83899317D01*
X144803747Y-83903134D01*
X144799403Y-83907957D01*
X144799400Y-83907961D01*
X144783386Y-83925747D01*
X144675960Y-84045056D01*
X144672714Y-84050676D01*
X144672711Y-84050682D01*
X144583721Y-84204817D01*
X144583718Y-84204822D01*
X144580473Y-84210444D01*
X144578467Y-84216616D01*
X144578465Y-84216622D01*
X144523465Y-84385892D01*
X144523463Y-84385901D01*
X144521458Y-84392072D01*
X144520780Y-84398522D01*
X144520778Y-84398532D01*
X144504610Y-84552368D01*
X144501496Y-84582000D01*
X144502175Y-84588460D01*
X144520778Y-84765467D01*
X144520779Y-84765475D01*
X144521458Y-84771928D01*
X144523463Y-84778100D01*
X144523465Y-84778107D01*
X144571903Y-84927182D01*
X144576445Y-84984898D01*
X144554290Y-85038385D01*
X144510267Y-85075985D01*
X144453972Y-85089500D01*
X112928319Y-85089500D01*
X112872024Y-85075985D01*
X112828001Y-85038385D01*
X112805846Y-84984898D01*
X112810388Y-84927182D01*
X112840638Y-84877819D01*
X113474958Y-84243499D01*
X113493777Y-84224680D01*
X114796318Y-84224680D01*
X114804423Y-84235868D01*
X114819366Y-84247499D01*
X114827925Y-84253091D01*
X115025148Y-84359823D01*
X115034501Y-84363925D01*
X115246595Y-84436737D01*
X115256504Y-84439246D01*
X115477686Y-84476155D01*
X115487884Y-84477000D01*
X115712116Y-84477000D01*
X115722313Y-84476155D01*
X115943495Y-84439246D01*
X115953404Y-84436737D01*
X116165498Y-84363925D01*
X116174851Y-84359823D01*
X116372076Y-84253090D01*
X116380631Y-84247500D01*
X116395573Y-84235869D01*
X116403679Y-84224680D01*
X119876318Y-84224680D01*
X119884423Y-84235868D01*
X119899366Y-84247499D01*
X119907925Y-84253091D01*
X120105148Y-84359823D01*
X120114501Y-84363925D01*
X120326595Y-84436737D01*
X120336504Y-84439246D01*
X120557686Y-84476155D01*
X120567884Y-84477000D01*
X120792116Y-84477000D01*
X120802313Y-84476155D01*
X121023495Y-84439246D01*
X121033404Y-84436737D01*
X121245498Y-84363925D01*
X121254851Y-84359823D01*
X121452076Y-84253090D01*
X121460631Y-84247500D01*
X121475573Y-84235869D01*
X121483680Y-84224679D01*
X121477020Y-84212573D01*
X120691542Y-83427095D01*
X120680000Y-83420431D01*
X120668457Y-83427095D01*
X119882979Y-84212572D01*
X119876318Y-84224680D01*
X116403679Y-84224680D01*
X116403680Y-84224679D01*
X116397020Y-84212573D01*
X115611542Y-83427095D01*
X115600000Y-83420431D01*
X115588457Y-83427095D01*
X114802979Y-84212572D01*
X114796318Y-84224680D01*
X113493777Y-84224680D01*
X114109953Y-83608503D01*
X114161024Y-83577713D01*
X114220565Y-83574325D01*
X114274801Y-83599125D01*
X114311188Y-83646376D01*
X114349217Y-83733075D01*
X114354086Y-83742070D01*
X114430407Y-83858888D01*
X114438375Y-83866613D01*
X114447756Y-83860689D01*
X115246446Y-83062000D01*
X115958431Y-83062000D01*
X115965095Y-83073542D01*
X116752242Y-83860689D01*
X116761624Y-83866613D01*
X116769588Y-83858893D01*
X116845916Y-83742066D01*
X116850781Y-83733077D01*
X116940858Y-83527721D01*
X116944177Y-83518054D01*
X116999225Y-83300675D01*
X117000909Y-83290580D01*
X117019426Y-83067117D01*
X119260574Y-83067117D01*
X119279090Y-83290580D01*
X119280774Y-83300675D01*
X119335822Y-83518054D01*
X119339141Y-83527721D01*
X119429217Y-83733075D01*
X119434086Y-83742070D01*
X119510407Y-83858888D01*
X119518375Y-83866613D01*
X119527756Y-83860689D01*
X120314904Y-83073542D01*
X120321568Y-83062000D01*
X121038431Y-83062000D01*
X121045095Y-83073542D01*
X121832242Y-83860689D01*
X121841624Y-83866613D01*
X121849588Y-83858893D01*
X121925916Y-83742066D01*
X121930781Y-83733077D01*
X122020858Y-83527721D01*
X122024177Y-83518054D01*
X122060986Y-83372700D01*
X125311796Y-83372700D01*
X125312475Y-83379160D01*
X125331078Y-83556167D01*
X125331079Y-83556175D01*
X125331758Y-83562628D01*
X125333763Y-83568800D01*
X125333765Y-83568807D01*
X125388763Y-83738070D01*
X125390773Y-83744256D01*
X125394020Y-83749880D01*
X125394021Y-83749882D01*
X125469541Y-83880687D01*
X125486260Y-83909644D01*
X125614047Y-84051566D01*
X125619297Y-84055380D01*
X125619300Y-84055383D01*
X125678862Y-84098657D01*
X125768548Y-84163818D01*
X125774481Y-84166459D01*
X125774482Y-84166460D01*
X125930375Y-84235868D01*
X125943012Y-84241494D01*
X125949370Y-84242845D01*
X125949372Y-84242846D01*
X125952449Y-84243500D01*
X126129813Y-84281200D01*
X126314284Y-84281200D01*
X126320787Y-84281200D01*
X126507588Y-84241494D01*
X126554337Y-84220680D01*
X135056318Y-84220680D01*
X135064423Y-84231868D01*
X135079366Y-84243499D01*
X135087925Y-84249091D01*
X135285148Y-84355823D01*
X135294501Y-84359925D01*
X135506595Y-84432737D01*
X135516504Y-84435246D01*
X135737686Y-84472155D01*
X135747884Y-84473000D01*
X135972116Y-84473000D01*
X135982313Y-84472155D01*
X136203495Y-84435246D01*
X136213404Y-84432737D01*
X136425498Y-84359925D01*
X136434851Y-84355823D01*
X136632076Y-84249090D01*
X136640631Y-84243500D01*
X136655573Y-84231869D01*
X136663679Y-84220680D01*
X140136318Y-84220680D01*
X140144423Y-84231868D01*
X140159366Y-84243499D01*
X140167925Y-84249091D01*
X140365148Y-84355823D01*
X140374501Y-84359925D01*
X140586595Y-84432737D01*
X140596504Y-84435246D01*
X140817686Y-84472155D01*
X140827884Y-84473000D01*
X141052116Y-84473000D01*
X141062313Y-84472155D01*
X141283495Y-84435246D01*
X141293404Y-84432737D01*
X141505498Y-84359925D01*
X141514851Y-84355823D01*
X141712076Y-84249090D01*
X141720631Y-84243500D01*
X141735573Y-84231869D01*
X141743680Y-84220679D01*
X141737020Y-84208573D01*
X140951542Y-83423095D01*
X140940000Y-83416431D01*
X140928457Y-83423095D01*
X140142979Y-84208572D01*
X140136318Y-84220680D01*
X136663679Y-84220680D01*
X136663680Y-84220679D01*
X136657020Y-84208573D01*
X135871542Y-83423095D01*
X135860000Y-83416431D01*
X135848457Y-83423095D01*
X135062979Y-84208572D01*
X135056318Y-84220680D01*
X126554337Y-84220680D01*
X126682052Y-84163818D01*
X126836553Y-84051566D01*
X126964340Y-83909644D01*
X126992413Y-83861018D01*
X127012116Y-83835340D01*
X127049575Y-83797881D01*
X127108659Y-83764906D01*
X127176257Y-83767858D01*
X127215574Y-83780887D01*
X127319455Y-83791500D01*
X129220544Y-83791499D01*
X129324426Y-83780887D01*
X129488097Y-83726652D01*
X129539581Y-83720989D01*
X129588890Y-83736852D01*
X129627416Y-83771473D01*
X129629526Y-83774377D01*
X129632777Y-83780008D01*
X129760564Y-83921930D01*
X129765814Y-83925744D01*
X129765817Y-83925747D01*
X129908680Y-84029543D01*
X129915065Y-84034182D01*
X129920998Y-84036823D01*
X129920999Y-84036824D01*
X130082550Y-84108751D01*
X130089529Y-84111858D01*
X130095887Y-84113209D01*
X130095889Y-84113210D01*
X130132691Y-84121032D01*
X130276330Y-84151564D01*
X130460801Y-84151564D01*
X130467304Y-84151564D01*
X130654105Y-84111858D01*
X130828569Y-84034182D01*
X130983070Y-83921930D01*
X131110857Y-83780008D01*
X131206344Y-83614620D01*
X131265359Y-83432992D01*
X131285321Y-83243064D01*
X131265359Y-83053136D01*
X131206344Y-82871508D01*
X131199868Y-82860292D01*
X131866628Y-82860292D01*
X131874060Y-82868403D01*
X131932569Y-82909372D01*
X131941914Y-82914768D01*
X132139052Y-83006695D01*
X132149186Y-83010383D01*
X132359290Y-83066680D01*
X132369922Y-83068555D01*
X132586605Y-83087513D01*
X132597395Y-83087513D01*
X132814077Y-83068555D01*
X132824709Y-83066680D01*
X132838006Y-83063117D01*
X134440574Y-83063117D01*
X134459090Y-83286580D01*
X134460774Y-83296675D01*
X134515822Y-83514054D01*
X134519141Y-83523721D01*
X134609217Y-83729075D01*
X134614086Y-83738070D01*
X134690407Y-83854888D01*
X134698375Y-83862613D01*
X134707756Y-83856689D01*
X135494904Y-83069542D01*
X135501568Y-83058000D01*
X136218431Y-83058000D01*
X136225095Y-83069542D01*
X137012242Y-83856689D01*
X137021624Y-83862613D01*
X137029588Y-83854893D01*
X137105916Y-83738066D01*
X137110781Y-83729077D01*
X137200858Y-83523721D01*
X137204177Y-83514054D01*
X137259225Y-83296675D01*
X137260909Y-83286580D01*
X137279426Y-83063117D01*
X139520574Y-83063117D01*
X139539090Y-83286580D01*
X139540774Y-83296675D01*
X139595822Y-83514054D01*
X139599141Y-83523721D01*
X139689217Y-83729075D01*
X139694086Y-83738070D01*
X139770407Y-83854888D01*
X139778375Y-83862613D01*
X139787756Y-83856689D01*
X140574904Y-83069542D01*
X140581568Y-83058000D01*
X141298431Y-83058000D01*
X141305095Y-83069542D01*
X142092242Y-83856689D01*
X142101624Y-83862613D01*
X142109588Y-83854893D01*
X142185916Y-83738066D01*
X142190781Y-83729077D01*
X142280858Y-83523721D01*
X142284177Y-83514054D01*
X142339225Y-83296675D01*
X142340909Y-83286580D01*
X142359426Y-83063117D01*
X142359426Y-83052883D01*
X142340909Y-82829419D01*
X142339225Y-82819324D01*
X142284177Y-82601945D01*
X142280858Y-82592278D01*
X142190782Y-82386924D01*
X142185913Y-82377929D01*
X142109591Y-82261110D01*
X142101623Y-82253385D01*
X142092242Y-82259309D01*
X141305095Y-83046457D01*
X141298431Y-83058000D01*
X140581568Y-83058000D01*
X140574904Y-83046457D01*
X139787756Y-82259309D01*
X139778374Y-82253385D01*
X139770410Y-82261105D01*
X139694081Y-82377937D01*
X139689219Y-82386920D01*
X139599141Y-82592278D01*
X139595822Y-82601945D01*
X139540774Y-82819324D01*
X139539090Y-82829419D01*
X139520574Y-83052883D01*
X139520574Y-83063117D01*
X137279426Y-83063117D01*
X137279426Y-83052883D01*
X137260909Y-82829419D01*
X137259225Y-82819324D01*
X137204177Y-82601945D01*
X137200858Y-82592278D01*
X137110782Y-82386924D01*
X137105913Y-82377929D01*
X137029591Y-82261110D01*
X137021623Y-82253385D01*
X137012242Y-82259309D01*
X136225095Y-83046457D01*
X136218431Y-83058000D01*
X135501568Y-83058000D01*
X135494904Y-83046457D01*
X134707756Y-82259309D01*
X134698374Y-82253385D01*
X134690410Y-82261105D01*
X134614081Y-82377937D01*
X134609219Y-82386920D01*
X134519141Y-82592278D01*
X134515822Y-82601945D01*
X134460774Y-82819324D01*
X134459090Y-82829419D01*
X134440574Y-83052883D01*
X134440574Y-83063117D01*
X132838006Y-83063117D01*
X133034813Y-83010383D01*
X133044947Y-83006695D01*
X133242087Y-82914767D01*
X133251425Y-82909376D01*
X133309940Y-82868402D01*
X133317371Y-82860293D01*
X133311457Y-82851010D01*
X132603542Y-82143095D01*
X132591999Y-82136431D01*
X132580457Y-82143095D01*
X131872541Y-82851010D01*
X131866628Y-82860292D01*
X131199868Y-82860292D01*
X131110857Y-82706120D01*
X130983070Y-82564198D01*
X130842264Y-82461895D01*
X130827469Y-82449258D01*
X130161606Y-81783395D01*
X131282487Y-81783395D01*
X131301444Y-82000077D01*
X131303319Y-82010709D01*
X131359616Y-82220813D01*
X131363304Y-82230947D01*
X131455233Y-82428090D01*
X131460621Y-82437422D01*
X131501596Y-82495940D01*
X131509705Y-82503371D01*
X131518988Y-82497457D01*
X132226904Y-81789542D01*
X132233568Y-81778000D01*
X132950431Y-81778000D01*
X132957095Y-81789542D01*
X133665010Y-82497457D01*
X133674293Y-82503371D01*
X133682402Y-82495940D01*
X133723376Y-82437425D01*
X133728767Y-82428087D01*
X133820695Y-82230947D01*
X133824383Y-82220813D01*
X133880680Y-82010709D01*
X133882555Y-82000077D01*
X133891720Y-81895320D01*
X135056319Y-81895320D01*
X135062978Y-81907425D01*
X135848457Y-82692904D01*
X135860000Y-82699568D01*
X135871542Y-82692904D01*
X136657019Y-81907426D01*
X136663678Y-81895320D01*
X140136319Y-81895320D01*
X140142978Y-81907425D01*
X140928457Y-82692904D01*
X140940000Y-82699568D01*
X140951542Y-82692904D01*
X141737019Y-81907426D01*
X141743679Y-81895319D01*
X141735573Y-81884129D01*
X141720629Y-81872497D01*
X141712077Y-81866910D01*
X141514851Y-81760176D01*
X141505498Y-81756074D01*
X141293404Y-81683262D01*
X141283495Y-81680753D01*
X141062313Y-81643844D01*
X141052116Y-81643000D01*
X140827884Y-81643000D01*
X140817686Y-81643844D01*
X140596504Y-81680753D01*
X140586595Y-81683262D01*
X140374501Y-81756074D01*
X140365148Y-81760176D01*
X140167924Y-81866909D01*
X140159369Y-81872498D01*
X140144425Y-81884129D01*
X140136319Y-81895320D01*
X136663678Y-81895320D01*
X136663679Y-81895319D01*
X136655573Y-81884129D01*
X136640629Y-81872497D01*
X136632077Y-81866910D01*
X136434851Y-81760176D01*
X136425498Y-81756074D01*
X136213404Y-81683262D01*
X136203495Y-81680753D01*
X135982313Y-81643844D01*
X135972116Y-81643000D01*
X135747884Y-81643000D01*
X135737686Y-81643844D01*
X135516504Y-81680753D01*
X135506595Y-81683262D01*
X135294501Y-81756074D01*
X135285148Y-81760176D01*
X135087924Y-81866909D01*
X135079369Y-81872498D01*
X135064425Y-81884129D01*
X135056319Y-81895320D01*
X133891720Y-81895320D01*
X133901513Y-81783395D01*
X133901513Y-81772605D01*
X133882555Y-81555922D01*
X133880680Y-81545290D01*
X133824383Y-81335186D01*
X133820695Y-81325052D01*
X133728769Y-81127918D01*
X133723371Y-81118568D01*
X133682403Y-81060060D01*
X133674292Y-81052628D01*
X133665010Y-81058541D01*
X132957095Y-81766457D01*
X132950431Y-81778000D01*
X132233568Y-81778000D01*
X132226904Y-81766457D01*
X131518985Y-81058538D01*
X131509707Y-81052627D01*
X131501594Y-81060061D01*
X131460625Y-81118572D01*
X131455231Y-81127916D01*
X131363304Y-81325052D01*
X131359616Y-81335186D01*
X131303319Y-81545290D01*
X131301444Y-81555922D01*
X131282487Y-81772605D01*
X131282487Y-81783395D01*
X130161606Y-81783395D01*
X129964818Y-81586607D01*
X129937938Y-81546379D01*
X129928499Y-81498926D01*
X129928499Y-80985605D01*
X129928499Y-80985602D01*
X129928499Y-80982456D01*
X129917887Y-80878574D01*
X129862115Y-80710262D01*
X129853137Y-80695707D01*
X131866627Y-80695707D01*
X131872538Y-80704985D01*
X132580457Y-81412904D01*
X132591999Y-81419568D01*
X132603542Y-81412904D01*
X133311457Y-80704988D01*
X133317371Y-80695705D01*
X133309940Y-80687596D01*
X133251422Y-80646621D01*
X133242090Y-80641233D01*
X133044947Y-80549304D01*
X133034813Y-80545616D01*
X132824709Y-80489319D01*
X132814077Y-80487444D01*
X132597395Y-80468487D01*
X132586605Y-80468487D01*
X132369922Y-80487444D01*
X132359290Y-80489319D01*
X132149186Y-80545616D01*
X132139052Y-80549304D01*
X131941916Y-80641231D01*
X131932572Y-80646625D01*
X131874061Y-80687594D01*
X131866627Y-80695707D01*
X129853137Y-80695707D01*
X129819536Y-80641231D01*
X129769030Y-80559348D01*
X129643652Y-80433970D01*
X129580175Y-80394817D01*
X129498887Y-80344677D01*
X129498881Y-80344674D01*
X129492738Y-80340885D01*
X129485880Y-80338612D01*
X129485877Y-80338611D01*
X129330850Y-80287241D01*
X129330844Y-80287239D01*
X129324426Y-80285113D01*
X129317696Y-80284425D01*
X129317694Y-80284425D01*
X129223674Y-80274819D01*
X129223660Y-80274818D01*
X129220545Y-80274500D01*
X129217397Y-80274500D01*
X127322604Y-80274500D01*
X127322584Y-80274500D01*
X127319456Y-80274501D01*
X127316343Y-80274818D01*
X127316323Y-80274820D01*
X127222313Y-80284424D01*
X127222307Y-80284425D01*
X127215574Y-80285113D01*
X127209144Y-80287243D01*
X127209142Y-80287244D01*
X127054122Y-80338611D01*
X127054115Y-80338613D01*
X127047262Y-80340885D01*
X127041121Y-80344672D01*
X127041112Y-80344677D01*
X126902497Y-80430177D01*
X126896348Y-80433970D01*
X126891240Y-80439077D01*
X126891236Y-80439081D01*
X126776081Y-80554236D01*
X126776077Y-80554240D01*
X126770970Y-80559348D01*
X126767178Y-80565495D01*
X126767177Y-80565497D01*
X126681677Y-80704112D01*
X126681672Y-80704121D01*
X126677885Y-80710262D01*
X126675613Y-80717115D01*
X126675611Y-80717122D01*
X126624241Y-80872149D01*
X126624239Y-80872157D01*
X126622113Y-80878574D01*
X126621425Y-80885302D01*
X126621425Y-80885305D01*
X126611819Y-80979325D01*
X126611818Y-80979340D01*
X126611500Y-80982455D01*
X126611500Y-80985602D01*
X126611500Y-81685680D01*
X126602061Y-81733133D01*
X126575181Y-81773361D01*
X125769644Y-82578896D01*
X125754849Y-82591532D01*
X125619307Y-82690011D01*
X125619299Y-82690017D01*
X125614047Y-82693834D01*
X125609703Y-82698657D01*
X125609700Y-82698661D01*
X125501055Y-82819324D01*
X125486260Y-82835756D01*
X125483014Y-82841376D01*
X125483011Y-82841382D01*
X125394021Y-82995517D01*
X125394018Y-82995522D01*
X125390773Y-83001144D01*
X125388767Y-83007316D01*
X125388765Y-83007322D01*
X125333765Y-83176592D01*
X125333763Y-83176601D01*
X125331758Y-83182772D01*
X125331080Y-83189222D01*
X125331078Y-83189232D01*
X125316403Y-83328864D01*
X125311796Y-83372700D01*
X122060986Y-83372700D01*
X122079225Y-83300675D01*
X122080909Y-83290580D01*
X122099426Y-83067117D01*
X122099426Y-83056883D01*
X122083136Y-82860292D01*
X123226628Y-82860292D01*
X123234060Y-82868403D01*
X123292569Y-82909372D01*
X123301914Y-82914768D01*
X123499052Y-83006695D01*
X123509186Y-83010383D01*
X123719290Y-83066680D01*
X123729922Y-83068555D01*
X123946605Y-83087513D01*
X123957395Y-83087513D01*
X124174077Y-83068555D01*
X124184709Y-83066680D01*
X124394813Y-83010383D01*
X124404947Y-83006695D01*
X124602087Y-82914767D01*
X124611425Y-82909376D01*
X124669940Y-82868402D01*
X124677371Y-82860293D01*
X124671457Y-82851010D01*
X123963542Y-82143095D01*
X123952000Y-82136431D01*
X123940457Y-82143095D01*
X123232541Y-82851010D01*
X123226628Y-82860292D01*
X122083136Y-82860292D01*
X122080909Y-82833419D01*
X122079225Y-82823324D01*
X122024177Y-82605945D01*
X122020858Y-82596278D01*
X121930782Y-82390924D01*
X121925913Y-82381929D01*
X121849591Y-82265110D01*
X121841623Y-82257385D01*
X121832242Y-82263309D01*
X121045095Y-83050457D01*
X121038431Y-83062000D01*
X120321568Y-83062000D01*
X120314904Y-83050457D01*
X119527756Y-82263309D01*
X119518374Y-82257385D01*
X119510410Y-82265105D01*
X119434081Y-82381937D01*
X119429219Y-82390920D01*
X119339141Y-82596278D01*
X119335822Y-82605945D01*
X119280774Y-82823324D01*
X119279090Y-82833419D01*
X119260574Y-83056883D01*
X119260574Y-83067117D01*
X117019426Y-83067117D01*
X117019426Y-83056883D01*
X117000909Y-82833419D01*
X116999225Y-82823324D01*
X116944177Y-82605945D01*
X116940858Y-82596278D01*
X116850782Y-82390924D01*
X116845913Y-82381929D01*
X116769591Y-82265110D01*
X116761623Y-82257385D01*
X116752242Y-82263309D01*
X115965095Y-83050457D01*
X115958431Y-83062000D01*
X115246446Y-83062000D01*
X115600000Y-82708447D01*
X116397019Y-81911426D01*
X116403678Y-81899320D01*
X119876319Y-81899320D01*
X119882978Y-81911425D01*
X120668457Y-82696904D01*
X120680000Y-82703568D01*
X120691542Y-82696904D01*
X121477019Y-81911426D01*
X121483679Y-81899319D01*
X121475573Y-81888129D01*
X121460629Y-81876497D01*
X121452077Y-81870910D01*
X121290364Y-81783395D01*
X122642487Y-81783395D01*
X122661444Y-82000077D01*
X122663319Y-82010709D01*
X122719616Y-82220813D01*
X122723304Y-82230947D01*
X122815233Y-82428090D01*
X122820621Y-82437422D01*
X122861596Y-82495940D01*
X122869705Y-82503371D01*
X122878988Y-82497457D01*
X123586904Y-81789542D01*
X123593568Y-81778000D01*
X124310431Y-81778000D01*
X124317095Y-81789542D01*
X125025010Y-82497457D01*
X125034293Y-82503371D01*
X125042402Y-82495940D01*
X125083376Y-82437425D01*
X125088767Y-82428087D01*
X125180695Y-82230947D01*
X125184383Y-82220813D01*
X125240680Y-82010709D01*
X125242555Y-82000077D01*
X125261513Y-81783395D01*
X125261513Y-81772605D01*
X125242555Y-81555922D01*
X125240680Y-81545290D01*
X125184383Y-81335186D01*
X125180695Y-81325052D01*
X125088769Y-81127918D01*
X125083371Y-81118568D01*
X125042403Y-81060060D01*
X125034292Y-81052628D01*
X125025010Y-81058541D01*
X124317095Y-81766457D01*
X124310431Y-81778000D01*
X123593568Y-81778000D01*
X123586904Y-81766457D01*
X122878985Y-81058538D01*
X122869707Y-81052627D01*
X122861594Y-81060061D01*
X122820625Y-81118572D01*
X122815231Y-81127916D01*
X122723304Y-81325052D01*
X122719616Y-81335186D01*
X122663319Y-81545290D01*
X122661444Y-81555922D01*
X122642487Y-81772605D01*
X122642487Y-81783395D01*
X121290364Y-81783395D01*
X121254851Y-81764176D01*
X121245498Y-81760074D01*
X121033404Y-81687262D01*
X121023495Y-81684753D01*
X120802313Y-81647844D01*
X120792116Y-81647000D01*
X120567884Y-81647000D01*
X120557686Y-81647844D01*
X120336504Y-81684753D01*
X120326595Y-81687262D01*
X120114501Y-81760074D01*
X120105148Y-81764176D01*
X119907924Y-81870909D01*
X119899369Y-81876498D01*
X119884425Y-81888129D01*
X119876319Y-81899320D01*
X116403678Y-81899320D01*
X116403679Y-81899319D01*
X116395573Y-81888129D01*
X116380629Y-81876497D01*
X116372077Y-81870910D01*
X116174851Y-81764176D01*
X116165498Y-81760074D01*
X115953404Y-81687262D01*
X115943495Y-81684753D01*
X115722313Y-81647844D01*
X115712116Y-81647000D01*
X115487884Y-81647000D01*
X115477679Y-81647845D01*
X115441187Y-81653934D01*
X115391444Y-81652105D01*
X115346428Y-81630860D01*
X115313394Y-81593625D01*
X115230288Y-81449682D01*
X115227040Y-81444056D01*
X115099253Y-81302134D01*
X115094003Y-81298319D01*
X115093999Y-81298316D01*
X114950006Y-81193699D01*
X114950004Y-81193697D01*
X114944752Y-81189882D01*
X114938821Y-81187241D01*
X114938817Y-81187239D01*
X114776226Y-81114849D01*
X114776219Y-81114846D01*
X114770288Y-81112206D01*
X114763935Y-81110855D01*
X114763927Y-81110853D01*
X114589849Y-81073852D01*
X114589846Y-81073851D01*
X114583487Y-81072500D01*
X114392513Y-81072500D01*
X114386154Y-81073851D01*
X114386150Y-81073852D01*
X114212072Y-81110853D01*
X114212061Y-81110856D01*
X114205712Y-81112206D01*
X114199782Y-81114845D01*
X114199773Y-81114849D01*
X114037182Y-81187239D01*
X114037174Y-81187243D01*
X114031248Y-81189882D01*
X114025999Y-81193695D01*
X114025993Y-81193699D01*
X113882000Y-81298316D01*
X113881991Y-81298323D01*
X113876747Y-81302134D01*
X113872403Y-81306957D01*
X113872400Y-81306961D01*
X113753308Y-81439226D01*
X113753307Y-81439228D01*
X113748960Y-81444056D01*
X113745714Y-81449677D01*
X113745711Y-81449682D01*
X113720886Y-81492680D01*
X113701181Y-81518359D01*
X111811361Y-83408181D01*
X111771133Y-83435061D01*
X111723680Y-83444500D01*
X110290319Y-83444500D01*
X110241506Y-83434488D01*
X110200576Y-83406070D01*
X110174137Y-83363834D01*
X110170137Y-83353111D01*
X110124889Y-83231796D01*
X110037261Y-83114739D01*
X110000891Y-83087513D01*
X109927304Y-83032426D01*
X109927303Y-83032425D01*
X109920204Y-83027111D01*
X109911896Y-83024012D01*
X109911894Y-83024011D01*
X109790463Y-82978719D01*
X109790458Y-82978717D01*
X109783201Y-82976011D01*
X109775497Y-82975182D01*
X109775494Y-82975182D01*
X109725924Y-82969853D01*
X109725918Y-82969852D01*
X109722638Y-82969500D01*
X107925362Y-82969500D01*
X107922082Y-82969852D01*
X107922075Y-82969853D01*
X107872505Y-82975182D01*
X107872500Y-82975182D01*
X107864799Y-82976011D01*
X107857543Y-82978717D01*
X107857536Y-82978719D01*
X107736105Y-83024011D01*
X107736099Y-83024013D01*
X107727796Y-83027111D01*
X107720698Y-83032423D01*
X107720695Y-83032426D01*
X107617835Y-83109426D01*
X107617831Y-83109429D01*
X107610739Y-83114739D01*
X107605429Y-83121831D01*
X107605426Y-83121835D01*
X107528426Y-83224695D01*
X107528423Y-83224698D01*
X107523111Y-83231796D01*
X107520013Y-83240101D01*
X107520009Y-83240109D01*
X107477861Y-83353111D01*
X107441909Y-83404324D01*
X107385528Y-83431461D01*
X107323074Y-83427613D01*
X107270451Y-83393759D01*
X107210711Y-83328864D01*
X107210708Y-83328861D01*
X107207240Y-83325094D01*
X107110149Y-83249524D01*
X107033623Y-83189960D01*
X107033615Y-83189955D01*
X107029576Y-83186811D01*
X107025071Y-83184373D01*
X107025065Y-83184369D01*
X106836080Y-83082096D01*
X106836074Y-83082093D01*
X106831574Y-83079658D01*
X106826733Y-83077996D01*
X106826726Y-83077993D01*
X106623488Y-83008222D01*
X106623487Y-83008221D01*
X106618635Y-83006556D01*
X106613585Y-83005713D01*
X106613576Y-83005711D01*
X106401631Y-82970344D01*
X106401622Y-82970343D01*
X106396569Y-82969500D01*
X106171431Y-82969500D01*
X106166378Y-82970343D01*
X106166368Y-82970344D01*
X105954423Y-83005711D01*
X105954411Y-83005713D01*
X105949365Y-83006556D01*
X105944515Y-83008220D01*
X105944511Y-83008222D01*
X105741273Y-83077993D01*
X105741262Y-83077997D01*
X105736426Y-83079658D01*
X105731929Y-83082091D01*
X105731919Y-83082096D01*
X105542934Y-83184369D01*
X105542922Y-83184376D01*
X105538424Y-83186811D01*
X105534389Y-83189951D01*
X105534376Y-83189960D01*
X105364801Y-83321948D01*
X105364795Y-83321952D01*
X105360760Y-83325094D01*
X105357297Y-83328855D01*
X105357288Y-83328864D01*
X105211753Y-83486956D01*
X105211747Y-83486963D01*
X105208278Y-83490732D01*
X105205481Y-83495012D01*
X105205474Y-83495022D01*
X105117809Y-83629205D01*
X105073017Y-83670438D01*
X105014000Y-83685383D01*
X104954983Y-83670438D01*
X104910191Y-83629205D01*
X104822525Y-83495022D01*
X104822523Y-83495020D01*
X104819722Y-83490732D01*
X104766568Y-83432992D01*
X104670711Y-83328864D01*
X104670708Y-83328861D01*
X104667240Y-83325094D01*
X104570149Y-83249524D01*
X104493623Y-83189960D01*
X104493615Y-83189955D01*
X104489576Y-83186811D01*
X104485071Y-83184373D01*
X104485065Y-83184369D01*
X104296080Y-83082096D01*
X104296074Y-83082093D01*
X104291574Y-83079658D01*
X104286733Y-83077996D01*
X104286726Y-83077993D01*
X104083488Y-83008222D01*
X104083487Y-83008221D01*
X104078635Y-83006556D01*
X104073585Y-83005713D01*
X104073576Y-83005711D01*
X103861631Y-82970344D01*
X103861622Y-82970343D01*
X103856569Y-82969500D01*
X103631431Y-82969500D01*
X103626378Y-82970343D01*
X103626368Y-82970344D01*
X103414423Y-83005711D01*
X103414411Y-83005713D01*
X103409365Y-83006556D01*
X103404515Y-83008220D01*
X103404511Y-83008222D01*
X103201273Y-83077993D01*
X103201262Y-83077997D01*
X103196426Y-83079658D01*
X103191929Y-83082091D01*
X103191919Y-83082096D01*
X103002934Y-83184369D01*
X103002922Y-83184376D01*
X102998424Y-83186811D01*
X102994389Y-83189951D01*
X102994376Y-83189960D01*
X102824801Y-83321948D01*
X102824795Y-83321952D01*
X102820760Y-83325094D01*
X102817297Y-83328855D01*
X102817288Y-83328864D01*
X102671753Y-83486956D01*
X102671747Y-83486963D01*
X102668278Y-83490732D01*
X102665481Y-83495012D01*
X102665474Y-83495022D01*
X102550870Y-83670438D01*
X102545140Y-83679209D01*
X102543085Y-83683892D01*
X102543080Y-83683903D01*
X102456764Y-83880687D01*
X102454704Y-83885384D01*
X102453446Y-83890349D01*
X102453445Y-83890354D01*
X102400695Y-84098657D01*
X102400693Y-84098666D01*
X102399436Y-84103632D01*
X102399012Y-84108741D01*
X102399011Y-84108751D01*
X102387051Y-84253090D01*
X102380844Y-84328000D01*
X102381268Y-84333117D01*
X102399011Y-84547248D01*
X102399012Y-84547256D01*
X102399436Y-84552368D01*
X102400693Y-84557335D01*
X102400695Y-84557342D01*
X102453400Y-84765467D01*
X102454704Y-84770616D01*
X102456764Y-84775312D01*
X102543080Y-84972096D01*
X102543083Y-84972101D01*
X102545140Y-84976791D01*
X102597009Y-85056182D01*
X102665474Y-85160977D01*
X102665477Y-85160981D01*
X102668278Y-85165268D01*
X102671752Y-85169041D01*
X102671753Y-85169043D01*
X102817288Y-85327135D01*
X102817291Y-85327138D01*
X102820760Y-85330906D01*
X102870088Y-85369300D01*
X102994376Y-85466039D01*
X102994381Y-85466042D01*
X102998424Y-85469189D01*
X103002931Y-85471628D01*
X103002934Y-85471630D01*
X103034930Y-85488945D01*
X103082436Y-85534526D01*
X103099913Y-85598000D01*
X103082436Y-85661474D01*
X103034930Y-85707055D01*
X103002934Y-85724369D01*
X103002922Y-85724376D01*
X102998424Y-85726811D01*
X102994389Y-85729951D01*
X102994376Y-85729960D01*
X102824801Y-85861948D01*
X102824795Y-85861952D01*
X102820760Y-85865094D01*
X102817297Y-85868855D01*
X102817288Y-85868864D01*
X102671753Y-86026956D01*
X102671747Y-86026963D01*
X102668278Y-86030732D01*
X102665481Y-86035012D01*
X102665474Y-86035022D01*
X102577809Y-86169205D01*
X102545140Y-86219209D01*
X102543085Y-86223892D01*
X102543080Y-86223903D01*
X102474000Y-86381393D01*
X102454704Y-86425384D01*
X102453446Y-86430349D01*
X102453445Y-86430354D01*
X102400695Y-86638657D01*
X102400693Y-86638666D01*
X102399436Y-86643632D01*
X102399012Y-86648741D01*
X102399011Y-86648751D01*
X102381268Y-86862883D01*
X102380844Y-86868000D01*
X102381268Y-86873117D01*
X102399011Y-87087248D01*
X102399012Y-87087256D01*
X102399436Y-87092368D01*
X102400693Y-87097335D01*
X102400695Y-87097342D01*
X102453445Y-87305645D01*
X102454704Y-87310616D01*
X102456764Y-87315312D01*
X102543080Y-87512096D01*
X102543083Y-87512101D01*
X102545140Y-87516791D01*
X102550870Y-87525561D01*
X102665474Y-87700977D01*
X102665477Y-87700981D01*
X102668278Y-87705268D01*
X102671752Y-87709041D01*
X102671753Y-87709043D01*
X102817288Y-87867135D01*
X102817291Y-87867138D01*
X102820760Y-87870906D01*
X102824801Y-87874051D01*
X102994376Y-88006039D01*
X102994381Y-88006042D01*
X102998424Y-88009189D01*
X103002931Y-88011628D01*
X103002934Y-88011630D01*
X103191919Y-88113903D01*
X103196426Y-88116342D01*
X103409365Y-88189444D01*
X103631431Y-88226500D01*
X103851436Y-88226500D01*
X103856569Y-88226500D01*
X104078635Y-88189444D01*
X104291574Y-88116342D01*
X104489576Y-88009189D01*
X104667240Y-87870906D01*
X104819722Y-87705268D01*
X104910190Y-87566795D01*
X104954982Y-87525561D01*
X105014000Y-87510616D01*
X105073018Y-87525561D01*
X105117809Y-87566795D01*
X105205470Y-87700972D01*
X105205478Y-87700982D01*
X105208278Y-87705268D01*
X105211752Y-87709041D01*
X105211753Y-87709043D01*
X105357288Y-87867135D01*
X105357291Y-87867138D01*
X105360760Y-87870906D01*
X105364801Y-87874051D01*
X105534376Y-88006039D01*
X105534381Y-88006042D01*
X105538424Y-88009189D01*
X105542931Y-88011628D01*
X105542934Y-88011630D01*
X105731919Y-88113903D01*
X105736426Y-88116342D01*
X105949365Y-88189444D01*
X106171431Y-88226500D01*
X106391436Y-88226500D01*
X106396569Y-88226500D01*
X106618635Y-88189444D01*
X106831574Y-88116342D01*
X107029576Y-88009189D01*
X107207240Y-87870906D01*
X107359722Y-87705268D01*
X107450190Y-87566795D01*
X107494982Y-87525561D01*
X107554000Y-87510616D01*
X107613018Y-87525561D01*
X107657809Y-87566795D01*
X107745470Y-87700972D01*
X107745478Y-87700982D01*
X107748278Y-87705268D01*
X107751752Y-87709041D01*
X107751753Y-87709043D01*
X107897288Y-87867135D01*
X107897291Y-87867138D01*
X107900760Y-87870906D01*
X107904801Y-87874051D01*
X108074376Y-88006039D01*
X108074381Y-88006042D01*
X108078424Y-88009189D01*
X108082931Y-88011628D01*
X108082934Y-88011630D01*
X108271919Y-88113903D01*
X108276426Y-88116342D01*
X108489365Y-88189444D01*
X108711431Y-88226500D01*
X108931436Y-88226500D01*
X108936569Y-88226500D01*
X109158635Y-88189444D01*
X109371574Y-88116342D01*
X109569576Y-88009189D01*
X109747240Y-87870906D01*
X109899722Y-87705268D01*
X110022860Y-87516791D01*
X110113296Y-87310616D01*
X110168564Y-87092368D01*
X110187156Y-86868000D01*
X110168564Y-86643632D01*
X110113296Y-86425384D01*
X110022860Y-86219209D01*
X109899722Y-86030732D01*
X109754506Y-85872987D01*
X109725735Y-85820239D01*
X109725142Y-85760152D01*
X109752869Y-85706841D01*
X109802404Y-85672826D01*
X109920204Y-85628889D01*
X110037261Y-85541261D01*
X110124889Y-85424204D01*
X110174137Y-85292165D01*
X110200576Y-85249930D01*
X110241506Y-85221512D01*
X110290319Y-85211500D01*
X110619500Y-85211500D01*
X110681500Y-85228113D01*
X110726887Y-85273500D01*
X110743500Y-85335500D01*
X110743500Y-98300500D01*
X110726887Y-98362500D01*
X110681500Y-98407887D01*
X110619500Y-98424500D01*
X109677168Y-98424500D01*
X109618151Y-98409555D01*
X109573360Y-98368323D01*
X109553592Y-98310742D01*
X109563611Y-98250692D01*
X109601003Y-98202648D01*
X109604575Y-98199867D01*
X109612680Y-98188679D01*
X109606020Y-98176573D01*
X108820542Y-97391095D01*
X108809000Y-97384431D01*
X108797457Y-97391095D01*
X108011979Y-98176572D01*
X108005318Y-98188680D01*
X108013423Y-98199868D01*
X108016995Y-98202648D01*
X108054388Y-98250691D01*
X108064407Y-98310741D01*
X108044639Y-98368322D01*
X107999848Y-98409555D01*
X107940831Y-98424500D01*
X104597168Y-98424500D01*
X104538151Y-98409555D01*
X104493360Y-98368323D01*
X104473592Y-98310742D01*
X104483611Y-98250692D01*
X104521003Y-98202648D01*
X104524575Y-98199867D01*
X104532680Y-98188679D01*
X104526020Y-98176573D01*
X103740542Y-97391095D01*
X103729000Y-97384431D01*
X103717457Y-97391095D01*
X102931979Y-98176572D01*
X102925318Y-98188680D01*
X102933423Y-98199868D01*
X102936995Y-98202648D01*
X102974388Y-98250691D01*
X102984407Y-98310741D01*
X102964639Y-98368322D01*
X102919848Y-98409555D01*
X102860831Y-98424500D01*
X101597500Y-98424500D01*
X101535500Y-98407887D01*
X101490113Y-98362500D01*
X101473500Y-98300500D01*
X101473500Y-97031117D01*
X102309574Y-97031117D01*
X102328090Y-97254580D01*
X102329774Y-97264675D01*
X102384822Y-97482054D01*
X102388141Y-97491721D01*
X102478217Y-97697075D01*
X102483086Y-97706070D01*
X102559407Y-97822888D01*
X102567375Y-97830613D01*
X102576756Y-97824689D01*
X103363904Y-97037542D01*
X103370568Y-97026000D01*
X104087431Y-97026000D01*
X104094095Y-97037542D01*
X104881242Y-97824689D01*
X104890624Y-97830613D01*
X104898588Y-97822893D01*
X104974916Y-97706066D01*
X104979781Y-97697077D01*
X105069858Y-97491721D01*
X105073177Y-97482054D01*
X105128225Y-97264675D01*
X105129909Y-97254580D01*
X105148426Y-97031117D01*
X107389574Y-97031117D01*
X107408090Y-97254580D01*
X107409774Y-97264675D01*
X107464822Y-97482054D01*
X107468141Y-97491721D01*
X107558217Y-97697075D01*
X107563086Y-97706070D01*
X107639407Y-97822888D01*
X107647375Y-97830613D01*
X107656756Y-97824689D01*
X108443904Y-97037542D01*
X108450568Y-97026000D01*
X109167431Y-97026000D01*
X109174095Y-97037542D01*
X109961242Y-97824689D01*
X109970624Y-97830613D01*
X109978588Y-97822893D01*
X110054916Y-97706066D01*
X110059781Y-97697077D01*
X110149858Y-97491721D01*
X110153177Y-97482054D01*
X110208225Y-97264675D01*
X110209909Y-97254580D01*
X110228426Y-97031117D01*
X110228426Y-97020883D01*
X110209909Y-96797419D01*
X110208225Y-96787324D01*
X110153177Y-96569945D01*
X110149858Y-96560278D01*
X110059782Y-96354924D01*
X110054913Y-96345929D01*
X109978591Y-96229110D01*
X109970623Y-96221385D01*
X109961242Y-96227309D01*
X109174095Y-97014457D01*
X109167431Y-97026000D01*
X108450568Y-97026000D01*
X108443904Y-97014457D01*
X107656756Y-96227309D01*
X107647374Y-96221385D01*
X107639410Y-96229105D01*
X107563081Y-96345937D01*
X107558219Y-96354920D01*
X107468141Y-96560278D01*
X107464822Y-96569945D01*
X107409774Y-96787324D01*
X107408090Y-96797419D01*
X107389574Y-97020883D01*
X107389574Y-97031117D01*
X105148426Y-97031117D01*
X105148426Y-97020883D01*
X105129909Y-96797419D01*
X105128225Y-96787324D01*
X105073177Y-96569945D01*
X105069858Y-96560278D01*
X104979782Y-96354924D01*
X104974913Y-96345929D01*
X104898591Y-96229110D01*
X104890623Y-96221385D01*
X104881242Y-96227309D01*
X104094095Y-97014457D01*
X104087431Y-97026000D01*
X103370568Y-97026000D01*
X103363904Y-97014457D01*
X102576756Y-96227309D01*
X102567374Y-96221385D01*
X102559410Y-96229105D01*
X102483081Y-96345937D01*
X102478219Y-96354920D01*
X102388141Y-96560278D01*
X102384822Y-96569945D01*
X102329774Y-96787324D01*
X102328090Y-96797419D01*
X102309574Y-97020883D01*
X102309574Y-97031117D01*
X101473500Y-97031117D01*
X101473500Y-95863320D01*
X102925319Y-95863320D01*
X102931978Y-95875425D01*
X103717457Y-96660904D01*
X103729000Y-96667568D01*
X103740542Y-96660904D01*
X104526019Y-95875426D01*
X104532678Y-95863320D01*
X108005319Y-95863320D01*
X108011978Y-95875425D01*
X108797457Y-96660904D01*
X108809000Y-96667568D01*
X108820542Y-96660904D01*
X109606019Y-95875426D01*
X109612679Y-95863319D01*
X109604573Y-95852129D01*
X109589629Y-95840497D01*
X109581077Y-95834910D01*
X109383851Y-95728176D01*
X109374498Y-95724074D01*
X109162404Y-95651262D01*
X109152495Y-95648753D01*
X108931313Y-95611844D01*
X108921116Y-95611000D01*
X108696884Y-95611000D01*
X108686686Y-95611844D01*
X108465504Y-95648753D01*
X108455595Y-95651262D01*
X108243501Y-95724074D01*
X108234148Y-95728176D01*
X108036924Y-95834909D01*
X108028369Y-95840498D01*
X108013425Y-95852129D01*
X108005319Y-95863320D01*
X104532678Y-95863320D01*
X104532679Y-95863319D01*
X104524573Y-95852129D01*
X104509629Y-95840497D01*
X104501077Y-95834910D01*
X104303851Y-95728176D01*
X104294498Y-95724074D01*
X104082404Y-95651262D01*
X104072495Y-95648753D01*
X103851313Y-95611844D01*
X103841116Y-95611000D01*
X103616884Y-95611000D01*
X103606686Y-95611844D01*
X103385504Y-95648753D01*
X103375595Y-95651262D01*
X103163501Y-95724074D01*
X103154148Y-95728176D01*
X102956924Y-95834909D01*
X102948369Y-95840498D01*
X102933425Y-95852129D01*
X102925319Y-95863320D01*
X101473500Y-95863320D01*
X101473500Y-94878638D01*
X103416500Y-94878638D01*
X103423011Y-94939201D01*
X103425717Y-94946458D01*
X103425719Y-94946463D01*
X103471011Y-95067894D01*
X103474111Y-95076204D01*
X103561739Y-95193261D01*
X103678796Y-95280889D01*
X103815799Y-95331989D01*
X103876362Y-95338500D01*
X105670328Y-95338500D01*
X105673638Y-95338500D01*
X105734201Y-95331989D01*
X105871204Y-95280889D01*
X105988261Y-95193261D01*
X106075889Y-95076204D01*
X106124222Y-94946617D01*
X106159200Y-94896240D01*
X106214045Y-94868787D01*
X106275338Y-94870976D01*
X106328084Y-94902272D01*
X106440090Y-95014278D01*
X106448356Y-95021215D01*
X106632991Y-95150498D01*
X106642323Y-95155886D01*
X106846602Y-95251143D01*
X106856736Y-95254831D01*
X107051219Y-95306943D01*
X107062448Y-95307311D01*
X107065000Y-95296369D01*
X107565000Y-95296369D01*
X107567551Y-95307311D01*
X107578780Y-95306943D01*
X107773263Y-95254831D01*
X107783397Y-95251143D01*
X107987676Y-95155886D01*
X107997008Y-95150498D01*
X108181643Y-95021215D01*
X108189909Y-95014278D01*
X108349278Y-94854909D01*
X108356215Y-94846643D01*
X108485498Y-94662008D01*
X108490886Y-94652676D01*
X108586143Y-94448397D01*
X108589831Y-94438263D01*
X108641943Y-94243780D01*
X108642311Y-94232551D01*
X108631369Y-94230000D01*
X107581326Y-94230000D01*
X107568450Y-94233450D01*
X107565000Y-94246326D01*
X107565000Y-95296369D01*
X107065000Y-95296369D01*
X107065000Y-93713674D01*
X107565000Y-93713674D01*
X107568450Y-93726549D01*
X107581326Y-93730000D01*
X108631369Y-93730000D01*
X108642311Y-93727448D01*
X108641943Y-93716219D01*
X108589831Y-93521736D01*
X108586143Y-93511602D01*
X108490889Y-93307332D01*
X108485491Y-93297982D01*
X108356215Y-93113357D01*
X108349280Y-93105092D01*
X108189909Y-92945721D01*
X108181643Y-92938784D01*
X107997008Y-92809501D01*
X107987676Y-92804113D01*
X107783397Y-92708856D01*
X107773263Y-92705168D01*
X107578780Y-92653056D01*
X107567551Y-92652688D01*
X107565000Y-92663631D01*
X107565000Y-93713674D01*
X107065000Y-93713674D01*
X107065000Y-92663631D01*
X107062448Y-92652688D01*
X107051219Y-92653056D01*
X106856736Y-92705168D01*
X106846602Y-92708856D01*
X106642332Y-92804110D01*
X106632982Y-92809508D01*
X106448357Y-92938784D01*
X106440098Y-92945714D01*
X106328084Y-93057728D01*
X106275337Y-93089023D01*
X106214045Y-93091212D01*
X106159200Y-93063759D01*
X106124221Y-93013379D01*
X106078989Y-92892107D01*
X106078988Y-92892105D01*
X106075889Y-92883796D01*
X105988261Y-92766739D01*
X105871204Y-92679111D01*
X105862896Y-92676012D01*
X105862894Y-92676011D01*
X105741463Y-92630719D01*
X105741458Y-92630717D01*
X105734201Y-92628011D01*
X105726497Y-92627182D01*
X105726494Y-92627182D01*
X105676924Y-92621853D01*
X105676918Y-92621852D01*
X105673638Y-92621500D01*
X103876362Y-92621500D01*
X103873082Y-92621852D01*
X103873075Y-92621853D01*
X103823505Y-92627182D01*
X103823500Y-92627182D01*
X103815799Y-92628011D01*
X103808543Y-92630717D01*
X103808536Y-92630719D01*
X103687105Y-92676011D01*
X103687099Y-92676013D01*
X103678796Y-92679111D01*
X103671698Y-92684423D01*
X103671695Y-92684426D01*
X103568835Y-92761426D01*
X103568831Y-92761429D01*
X103561739Y-92766739D01*
X103556429Y-92773831D01*
X103556426Y-92773835D01*
X103479426Y-92876695D01*
X103479423Y-92876698D01*
X103474111Y-92883796D01*
X103471013Y-92892099D01*
X103471011Y-92892105D01*
X103425719Y-93013536D01*
X103425717Y-93013543D01*
X103423011Y-93020799D01*
X103422182Y-93028500D01*
X103422182Y-93028505D01*
X103418392Y-93063759D01*
X103416500Y-93081362D01*
X103416500Y-94878638D01*
X101473500Y-94878638D01*
X101473500Y-80695707D01*
X123226627Y-80695707D01*
X123232538Y-80704985D01*
X123940457Y-81412904D01*
X123952000Y-81419568D01*
X123963542Y-81412904D01*
X124671457Y-80704988D01*
X124677371Y-80695705D01*
X124669940Y-80687596D01*
X124611422Y-80646621D01*
X124602090Y-80641233D01*
X124404947Y-80549304D01*
X124394813Y-80545616D01*
X124184709Y-80489319D01*
X124174077Y-80487444D01*
X123957395Y-80468487D01*
X123946605Y-80468487D01*
X123729922Y-80487444D01*
X123719290Y-80489319D01*
X123509186Y-80545616D01*
X123499052Y-80549304D01*
X123301916Y-80641231D01*
X123292572Y-80646625D01*
X123234061Y-80687594D01*
X123226627Y-80695707D01*
X101473500Y-80695707D01*
X101473500Y-79638638D01*
X115481500Y-79638638D01*
X115481852Y-79641918D01*
X115481853Y-79641924D01*
X115484191Y-79663676D01*
X115488011Y-79699201D01*
X115490717Y-79706458D01*
X115490719Y-79706463D01*
X115536011Y-79827894D01*
X115539111Y-79836204D01*
X115626739Y-79953261D01*
X115743796Y-80040889D01*
X115880799Y-80091989D01*
X115941362Y-80098500D01*
X117735328Y-80098500D01*
X117738638Y-80098500D01*
X117799201Y-80091989D01*
X117936204Y-80040889D01*
X118053261Y-79953261D01*
X118140889Y-79836204D01*
X118186137Y-79714889D01*
X118222089Y-79663676D01*
X118278470Y-79636538D01*
X118340925Y-79640386D01*
X118393548Y-79674240D01*
X118453288Y-79739135D01*
X118453291Y-79739138D01*
X118456760Y-79742906D01*
X118460801Y-79746051D01*
X118630376Y-79878039D01*
X118630381Y-79878042D01*
X118634424Y-79881189D01*
X118638931Y-79883628D01*
X118638934Y-79883630D01*
X118813757Y-79978239D01*
X118832426Y-79988342D01*
X119045365Y-80061444D01*
X119267431Y-80098500D01*
X119487436Y-80098500D01*
X119492569Y-80098500D01*
X119714635Y-80061444D01*
X119927574Y-79988342D01*
X120125576Y-79881189D01*
X120303240Y-79742906D01*
X120455722Y-79577268D01*
X120578860Y-79388791D01*
X120669296Y-79182616D01*
X120700273Y-79060292D01*
X123226628Y-79060292D01*
X123234060Y-79068403D01*
X123292569Y-79109372D01*
X123301914Y-79114768D01*
X123499052Y-79206695D01*
X123509186Y-79210383D01*
X123719290Y-79266680D01*
X123729922Y-79268555D01*
X123946605Y-79287513D01*
X123957395Y-79287513D01*
X124174077Y-79268555D01*
X124184709Y-79266680D01*
X124394813Y-79210383D01*
X124404947Y-79206695D01*
X124602087Y-79114767D01*
X124611425Y-79109376D01*
X124669940Y-79068402D01*
X124677371Y-79060293D01*
X124671457Y-79051010D01*
X124400276Y-78779829D01*
X126620001Y-78779829D01*
X126620321Y-78786111D01*
X126629805Y-78878959D01*
X126632623Y-78892122D01*
X126683370Y-79045267D01*
X126689432Y-79058266D01*
X126773890Y-79195194D01*
X126782794Y-79206455D01*
X126896544Y-79320205D01*
X126907805Y-79329109D01*
X127044733Y-79413567D01*
X127057732Y-79419629D01*
X127210874Y-79470375D01*
X127224041Y-79473194D01*
X127316890Y-79482680D01*
X127323168Y-79483000D01*
X128003674Y-79483000D01*
X128016549Y-79479549D01*
X128020000Y-79466674D01*
X128020000Y-79466673D01*
X128520000Y-79466673D01*
X128523450Y-79479548D01*
X128536326Y-79482999D01*
X129216829Y-79482999D01*
X129223111Y-79482678D01*
X129315959Y-79473194D01*
X129329122Y-79470376D01*
X129482267Y-79419629D01*
X129495266Y-79413567D01*
X129632194Y-79329109D01*
X129643455Y-79320205D01*
X129757205Y-79206455D01*
X129766109Y-79195194D01*
X129849317Y-79060292D01*
X131866628Y-79060292D01*
X131874060Y-79068403D01*
X131932569Y-79109372D01*
X131941914Y-79114768D01*
X132139052Y-79206695D01*
X132149186Y-79210383D01*
X132359290Y-79266680D01*
X132369922Y-79268555D01*
X132586605Y-79287513D01*
X132597395Y-79287513D01*
X132814077Y-79268555D01*
X132824709Y-79266680D01*
X133034813Y-79210383D01*
X133044947Y-79206695D01*
X133242087Y-79114767D01*
X133251425Y-79109376D01*
X133309940Y-79068402D01*
X133317371Y-79060293D01*
X133311457Y-79051010D01*
X133000447Y-78740000D01*
X135796844Y-78740000D01*
X135797268Y-78745117D01*
X135815011Y-78959248D01*
X135815012Y-78959256D01*
X135815436Y-78964368D01*
X135816693Y-78969335D01*
X135816695Y-78969342D01*
X135869445Y-79177645D01*
X135870704Y-79182616D01*
X135872764Y-79187312D01*
X135959080Y-79384096D01*
X135959083Y-79384101D01*
X135961140Y-79388791D01*
X136014441Y-79470375D01*
X136081474Y-79572977D01*
X136081477Y-79572981D01*
X136084278Y-79577268D01*
X136087752Y-79581041D01*
X136087753Y-79581043D01*
X136233288Y-79739135D01*
X136233291Y-79739138D01*
X136236760Y-79742906D01*
X136240801Y-79746051D01*
X136410376Y-79878039D01*
X136410381Y-79878042D01*
X136414424Y-79881189D01*
X136418931Y-79883628D01*
X136418934Y-79883630D01*
X136593757Y-79978239D01*
X136612426Y-79988342D01*
X136825365Y-80061444D01*
X137047431Y-80098500D01*
X137267436Y-80098500D01*
X137272569Y-80098500D01*
X137494635Y-80061444D01*
X137707574Y-79988342D01*
X137905576Y-79881189D01*
X138083240Y-79742906D01*
X138146455Y-79674236D01*
X138199073Y-79640386D01*
X138261528Y-79636538D01*
X138317909Y-79663675D01*
X138353862Y-79714889D01*
X138396010Y-79827892D01*
X138399111Y-79836204D01*
X138486739Y-79953261D01*
X138603796Y-80040889D01*
X138740799Y-80091989D01*
X138801362Y-80098500D01*
X140595328Y-80098500D01*
X140598638Y-80098500D01*
X140659201Y-80091989D01*
X140796204Y-80040889D01*
X140913261Y-79953261D01*
X141000889Y-79836204D01*
X141051989Y-79699201D01*
X141058500Y-79638638D01*
X141058500Y-77841362D01*
X141051989Y-77780799D01*
X141000889Y-77643796D01*
X140913261Y-77526739D01*
X140866398Y-77491658D01*
X140803304Y-77444426D01*
X140803303Y-77444425D01*
X140796204Y-77439111D01*
X140787896Y-77436012D01*
X140787894Y-77436011D01*
X140666463Y-77390719D01*
X140666458Y-77390717D01*
X140659201Y-77388011D01*
X140651497Y-77387182D01*
X140651494Y-77387182D01*
X140601924Y-77381853D01*
X140601918Y-77381852D01*
X140598638Y-77381500D01*
X138801362Y-77381500D01*
X138798082Y-77381852D01*
X138798075Y-77381853D01*
X138748505Y-77387182D01*
X138748500Y-77387182D01*
X138740799Y-77388011D01*
X138733543Y-77390717D01*
X138733536Y-77390719D01*
X138612105Y-77436011D01*
X138612099Y-77436013D01*
X138603796Y-77439111D01*
X138596698Y-77444423D01*
X138596695Y-77444426D01*
X138493835Y-77521426D01*
X138493831Y-77521429D01*
X138486739Y-77526739D01*
X138481429Y-77533831D01*
X138481426Y-77533835D01*
X138404426Y-77636695D01*
X138404423Y-77636698D01*
X138399111Y-77643796D01*
X138396013Y-77652101D01*
X138396009Y-77652109D01*
X138353861Y-77765111D01*
X138317909Y-77816324D01*
X138261528Y-77843461D01*
X138199074Y-77839613D01*
X138146451Y-77805759D01*
X138086711Y-77740864D01*
X138086706Y-77740859D01*
X138083240Y-77737094D01*
X137974053Y-77652109D01*
X137909623Y-77601960D01*
X137909615Y-77601955D01*
X137905576Y-77598811D01*
X137901071Y-77596373D01*
X137901065Y-77596369D01*
X137712080Y-77494096D01*
X137712074Y-77494093D01*
X137707574Y-77491658D01*
X137702733Y-77489996D01*
X137702726Y-77489993D01*
X137499488Y-77420222D01*
X137499487Y-77420221D01*
X137494635Y-77418556D01*
X137489585Y-77417713D01*
X137489576Y-77417711D01*
X137277631Y-77382344D01*
X137277622Y-77382343D01*
X137272569Y-77381500D01*
X137047431Y-77381500D01*
X137042378Y-77382343D01*
X137042368Y-77382344D01*
X136830423Y-77417711D01*
X136830411Y-77417713D01*
X136825365Y-77418556D01*
X136820515Y-77420220D01*
X136820511Y-77420222D01*
X136617273Y-77489993D01*
X136617262Y-77489997D01*
X136612426Y-77491658D01*
X136607929Y-77494091D01*
X136607919Y-77494096D01*
X136418934Y-77596369D01*
X136418922Y-77596376D01*
X136414424Y-77598811D01*
X136410389Y-77601951D01*
X136410376Y-77601960D01*
X136240801Y-77733948D01*
X136240795Y-77733952D01*
X136236760Y-77737094D01*
X136233297Y-77740855D01*
X136233288Y-77740864D01*
X136087753Y-77898956D01*
X136087747Y-77898963D01*
X136084278Y-77902732D01*
X136081481Y-77907012D01*
X136081474Y-77907022D01*
X135963942Y-78086920D01*
X135961140Y-78091209D01*
X135959085Y-78095892D01*
X135959080Y-78095903D01*
X135872764Y-78292687D01*
X135870704Y-78297384D01*
X135869446Y-78302349D01*
X135869445Y-78302354D01*
X135816695Y-78510657D01*
X135816693Y-78510666D01*
X135815436Y-78515632D01*
X135815012Y-78520741D01*
X135815011Y-78520751D01*
X135800495Y-78695940D01*
X135796844Y-78740000D01*
X133000447Y-78740000D01*
X132603542Y-78343095D01*
X132592000Y-78336431D01*
X132580457Y-78343095D01*
X131872541Y-79051010D01*
X131866628Y-79060292D01*
X129849317Y-79060292D01*
X129850567Y-79058266D01*
X129856629Y-79045267D01*
X129907375Y-78892125D01*
X129910194Y-78878958D01*
X129919680Y-78786109D01*
X129920000Y-78779832D01*
X129920000Y-77999326D01*
X129916549Y-77986450D01*
X129905148Y-77983395D01*
X131282487Y-77983395D01*
X131301444Y-78200077D01*
X131303319Y-78210709D01*
X131359616Y-78420813D01*
X131363304Y-78430947D01*
X131455233Y-78628090D01*
X131460621Y-78637422D01*
X131501596Y-78695940D01*
X131509705Y-78703371D01*
X131518988Y-78697457D01*
X132226904Y-77989542D01*
X132233568Y-77978000D01*
X132233567Y-77977999D01*
X132950431Y-77977999D01*
X132957095Y-77989542D01*
X133665010Y-78697457D01*
X133674293Y-78703371D01*
X133682402Y-78695940D01*
X133723376Y-78637425D01*
X133728767Y-78628087D01*
X133820695Y-78430947D01*
X133824383Y-78420813D01*
X133880680Y-78210709D01*
X133882555Y-78200077D01*
X133901513Y-77983395D01*
X133901513Y-77972605D01*
X133882555Y-77755922D01*
X133880680Y-77745290D01*
X133824383Y-77535186D01*
X133820695Y-77525052D01*
X133728769Y-77327918D01*
X133723371Y-77318568D01*
X133682403Y-77260060D01*
X133674292Y-77252628D01*
X133665010Y-77258541D01*
X132957095Y-77966457D01*
X132950431Y-77977999D01*
X132233567Y-77977999D01*
X132226904Y-77966457D01*
X131518985Y-77258538D01*
X131509707Y-77252627D01*
X131501594Y-77260061D01*
X131460625Y-77318572D01*
X131455231Y-77327916D01*
X131363304Y-77525052D01*
X131359616Y-77535186D01*
X131303319Y-77745290D01*
X131301444Y-77755922D01*
X131282487Y-77972605D01*
X131282487Y-77983395D01*
X129905148Y-77983395D01*
X129903674Y-77983000D01*
X128536326Y-77983000D01*
X128523450Y-77986450D01*
X128520000Y-77999326D01*
X128520000Y-79466673D01*
X128020000Y-79466673D01*
X128020000Y-77999326D01*
X128016549Y-77986450D01*
X128003674Y-77983000D01*
X126636327Y-77983000D01*
X126623451Y-77986450D01*
X126620001Y-77999326D01*
X126620001Y-78779829D01*
X124400276Y-78779829D01*
X123963542Y-78343095D01*
X123952000Y-78336431D01*
X123940457Y-78343095D01*
X123232541Y-79051010D01*
X123226628Y-79060292D01*
X120700273Y-79060292D01*
X120724564Y-78964368D01*
X120743156Y-78740000D01*
X120724564Y-78515632D01*
X120669296Y-78297384D01*
X120578860Y-78091209D01*
X120508422Y-77983395D01*
X122642487Y-77983395D01*
X122661444Y-78200077D01*
X122663319Y-78210709D01*
X122719616Y-78420813D01*
X122723304Y-78430947D01*
X122815233Y-78628090D01*
X122820621Y-78637422D01*
X122861596Y-78695940D01*
X122869705Y-78703371D01*
X122878988Y-78697457D01*
X123586904Y-77989542D01*
X123593568Y-77978000D01*
X123593567Y-77977999D01*
X124310431Y-77977999D01*
X124317095Y-77989542D01*
X125025010Y-78697457D01*
X125034293Y-78703371D01*
X125042402Y-78695940D01*
X125083376Y-78637425D01*
X125088767Y-78628087D01*
X125180695Y-78430947D01*
X125184383Y-78420813D01*
X125240680Y-78210709D01*
X125242555Y-78200077D01*
X125261513Y-77983395D01*
X125261513Y-77972605D01*
X125242555Y-77755922D01*
X125240680Y-77745290D01*
X125184383Y-77535186D01*
X125180695Y-77525052D01*
X125088769Y-77327918D01*
X125083371Y-77318568D01*
X125042403Y-77260060D01*
X125034292Y-77252628D01*
X125025010Y-77258541D01*
X124317095Y-77966457D01*
X124310431Y-77977999D01*
X123593567Y-77977999D01*
X123586904Y-77966457D01*
X122878985Y-77258538D01*
X122869707Y-77252627D01*
X122861594Y-77260061D01*
X122820625Y-77318572D01*
X122815231Y-77327916D01*
X122723304Y-77525052D01*
X122719616Y-77535186D01*
X122663319Y-77745290D01*
X122661444Y-77755922D01*
X122642487Y-77972605D01*
X122642487Y-77983395D01*
X120508422Y-77983395D01*
X120455722Y-77902732D01*
X120452246Y-77898956D01*
X120306711Y-77740864D01*
X120306706Y-77740859D01*
X120303240Y-77737094D01*
X120194053Y-77652109D01*
X120129623Y-77601960D01*
X120129615Y-77601955D01*
X120125576Y-77598811D01*
X120121071Y-77596373D01*
X120121065Y-77596369D01*
X119932080Y-77494096D01*
X119932074Y-77494093D01*
X119927574Y-77491658D01*
X119922733Y-77489996D01*
X119922726Y-77489993D01*
X119719488Y-77420222D01*
X119719487Y-77420221D01*
X119714635Y-77418556D01*
X119709585Y-77417713D01*
X119709576Y-77417711D01*
X119497631Y-77382344D01*
X119497622Y-77382343D01*
X119492569Y-77381500D01*
X119267431Y-77381500D01*
X119262378Y-77382343D01*
X119262368Y-77382344D01*
X119050423Y-77417711D01*
X119050411Y-77417713D01*
X119045365Y-77418556D01*
X119040515Y-77420220D01*
X119040511Y-77420222D01*
X118837273Y-77489993D01*
X118837262Y-77489997D01*
X118832426Y-77491658D01*
X118827929Y-77494091D01*
X118827919Y-77494096D01*
X118638934Y-77596369D01*
X118638922Y-77596376D01*
X118634424Y-77598811D01*
X118630389Y-77601951D01*
X118630376Y-77601960D01*
X118460801Y-77733948D01*
X118460795Y-77733952D01*
X118456760Y-77737094D01*
X118453294Y-77740858D01*
X118453294Y-77740859D01*
X118393548Y-77805760D01*
X118340924Y-77839613D01*
X118278470Y-77843461D01*
X118222089Y-77816323D01*
X118186137Y-77765110D01*
X118178744Y-77745290D01*
X118140889Y-77643796D01*
X118053261Y-77526739D01*
X118006398Y-77491658D01*
X117943304Y-77444426D01*
X117943303Y-77444425D01*
X117936204Y-77439111D01*
X117927896Y-77436012D01*
X117927894Y-77436011D01*
X117806463Y-77390719D01*
X117806458Y-77390717D01*
X117799201Y-77388011D01*
X117791497Y-77387182D01*
X117791494Y-77387182D01*
X117741924Y-77381853D01*
X117741918Y-77381852D01*
X117738638Y-77381500D01*
X115941362Y-77381500D01*
X115938082Y-77381852D01*
X115938075Y-77381853D01*
X115888505Y-77387182D01*
X115888500Y-77387182D01*
X115880799Y-77388011D01*
X115873543Y-77390717D01*
X115873536Y-77390719D01*
X115752105Y-77436011D01*
X115752099Y-77436013D01*
X115743796Y-77439111D01*
X115736698Y-77444423D01*
X115736695Y-77444426D01*
X115633835Y-77521426D01*
X115633831Y-77521429D01*
X115626739Y-77526739D01*
X115621429Y-77533831D01*
X115621426Y-77533835D01*
X115544426Y-77636695D01*
X115544423Y-77636698D01*
X115539111Y-77643796D01*
X115536013Y-77652099D01*
X115536011Y-77652105D01*
X115490719Y-77773536D01*
X115490717Y-77773543D01*
X115488011Y-77780799D01*
X115487182Y-77788500D01*
X115487182Y-77788505D01*
X115481853Y-77838075D01*
X115481500Y-77841362D01*
X115481500Y-79638638D01*
X101473500Y-79638638D01*
X101473500Y-75308500D01*
X101490113Y-75246500D01*
X101535500Y-75201113D01*
X101597500Y-75184500D01*
X106520390Y-75184500D01*
X106576685Y-75198015D01*
G37*
%TD.AperFunction*%
%TD*%
M02*
