%TF.GenerationSoftware,KiCad,Pcbnew,8.0.1*%
%TF.CreationDate,2024-03-17T19:35:18-06:00*%
%TF.ProjectId,Breadboard Power Supply,42726561-6462-46f6-9172-6420506f7765,v10*%
%TF.SameCoordinates,Original*%
%TF.FileFunction,Legend,Top*%
%TF.FilePolarity,Positive*%
%FSLAX46Y46*%
G04 Gerber Fmt 4.6, Leading zero omitted, Abs format (unit mm)*
G04 Created by KiCad (PCBNEW 8.0.1) date 2024-03-17 19:35:18*
%MOMM*%
%LPD*%
G01*
G04 APERTURE LIST*
%ADD10C,0.250000*%
%ADD11C,0.100000*%
%ADD12C,0.200000*%
%ADD13C,0.120000*%
%ADD14C,0.152400*%
%ADD15C,0.127000*%
G04 APERTURE END LIST*
D10*
X146838336Y-88079619D02*
X146266908Y-88079619D01*
X146552622Y-88079619D02*
X146552622Y-87079619D01*
X146552622Y-87079619D02*
X146457384Y-87222476D01*
X146457384Y-87222476D02*
X146362146Y-87317714D01*
X146362146Y-87317714D02*
X146266908Y-87365333D01*
X147266908Y-87984380D02*
X147314527Y-88032000D01*
X147314527Y-88032000D02*
X147266908Y-88079619D01*
X147266908Y-88079619D02*
X147219289Y-88032000D01*
X147219289Y-88032000D02*
X147266908Y-87984380D01*
X147266908Y-87984380D02*
X147266908Y-88079619D01*
X147885955Y-87508190D02*
X147790717Y-87460571D01*
X147790717Y-87460571D02*
X147743098Y-87412952D01*
X147743098Y-87412952D02*
X147695479Y-87317714D01*
X147695479Y-87317714D02*
X147695479Y-87270095D01*
X147695479Y-87270095D02*
X147743098Y-87174857D01*
X147743098Y-87174857D02*
X147790717Y-87127238D01*
X147790717Y-87127238D02*
X147885955Y-87079619D01*
X147885955Y-87079619D02*
X148076431Y-87079619D01*
X148076431Y-87079619D02*
X148171669Y-87127238D01*
X148171669Y-87127238D02*
X148219288Y-87174857D01*
X148219288Y-87174857D02*
X148266907Y-87270095D01*
X148266907Y-87270095D02*
X148266907Y-87317714D01*
X148266907Y-87317714D02*
X148219288Y-87412952D01*
X148219288Y-87412952D02*
X148171669Y-87460571D01*
X148171669Y-87460571D02*
X148076431Y-87508190D01*
X148076431Y-87508190D02*
X147885955Y-87508190D01*
X147885955Y-87508190D02*
X147790717Y-87555809D01*
X147790717Y-87555809D02*
X147743098Y-87603428D01*
X147743098Y-87603428D02*
X147695479Y-87698666D01*
X147695479Y-87698666D02*
X147695479Y-87889142D01*
X147695479Y-87889142D02*
X147743098Y-87984380D01*
X147743098Y-87984380D02*
X147790717Y-88032000D01*
X147790717Y-88032000D02*
X147885955Y-88079619D01*
X147885955Y-88079619D02*
X148076431Y-88079619D01*
X148076431Y-88079619D02*
X148171669Y-88032000D01*
X148171669Y-88032000D02*
X148219288Y-87984380D01*
X148219288Y-87984380D02*
X148266907Y-87889142D01*
X148266907Y-87889142D02*
X148266907Y-87698666D01*
X148266907Y-87698666D02*
X148219288Y-87603428D01*
X148219288Y-87603428D02*
X148171669Y-87555809D01*
X148171669Y-87555809D02*
X148076431Y-87508190D01*
X148552622Y-87079619D02*
X148885955Y-88079619D01*
X148885955Y-88079619D02*
X149219288Y-87079619D01*
X151003048Y-100779666D02*
X151764953Y-100779666D01*
X151384000Y-101160619D02*
X151384000Y-100398714D01*
X146219289Y-89619619D02*
X146838336Y-89619619D01*
X146838336Y-89619619D02*
X146505003Y-90000571D01*
X146505003Y-90000571D02*
X146647860Y-90000571D01*
X146647860Y-90000571D02*
X146743098Y-90048190D01*
X146743098Y-90048190D02*
X146790717Y-90095809D01*
X146790717Y-90095809D02*
X146838336Y-90191047D01*
X146838336Y-90191047D02*
X146838336Y-90429142D01*
X146838336Y-90429142D02*
X146790717Y-90524380D01*
X146790717Y-90524380D02*
X146743098Y-90572000D01*
X146743098Y-90572000D02*
X146647860Y-90619619D01*
X146647860Y-90619619D02*
X146362146Y-90619619D01*
X146362146Y-90619619D02*
X146266908Y-90572000D01*
X146266908Y-90572000D02*
X146219289Y-90524380D01*
X147266908Y-90524380D02*
X147314527Y-90572000D01*
X147314527Y-90572000D02*
X147266908Y-90619619D01*
X147266908Y-90619619D02*
X147219289Y-90572000D01*
X147219289Y-90572000D02*
X147266908Y-90524380D01*
X147266908Y-90524380D02*
X147266908Y-90619619D01*
X147647860Y-89619619D02*
X148266907Y-89619619D01*
X148266907Y-89619619D02*
X147933574Y-90000571D01*
X147933574Y-90000571D02*
X148076431Y-90000571D01*
X148076431Y-90000571D02*
X148171669Y-90048190D01*
X148171669Y-90048190D02*
X148219288Y-90095809D01*
X148219288Y-90095809D02*
X148266907Y-90191047D01*
X148266907Y-90191047D02*
X148266907Y-90429142D01*
X148266907Y-90429142D02*
X148219288Y-90524380D01*
X148219288Y-90524380D02*
X148171669Y-90572000D01*
X148171669Y-90572000D02*
X148076431Y-90619619D01*
X148076431Y-90619619D02*
X147790717Y-90619619D01*
X147790717Y-90619619D02*
X147695479Y-90572000D01*
X147695479Y-90572000D02*
X147647860Y-90524380D01*
X148552622Y-89619619D02*
X148885955Y-90619619D01*
X148885955Y-90619619D02*
X149219288Y-89619619D01*
X107987377Y-88079619D02*
X107415949Y-88079619D01*
X107701663Y-88079619D02*
X107701663Y-87079619D01*
X107701663Y-87079619D02*
X107606425Y-87222476D01*
X107606425Y-87222476D02*
X107511187Y-87317714D01*
X107511187Y-87317714D02*
X107415949Y-87365333D01*
X108415949Y-87984380D02*
X108463568Y-88032000D01*
X108463568Y-88032000D02*
X108415949Y-88079619D01*
X108415949Y-88079619D02*
X108368330Y-88032000D01*
X108368330Y-88032000D02*
X108415949Y-87984380D01*
X108415949Y-87984380D02*
X108415949Y-88079619D01*
X109034996Y-87508190D02*
X108939758Y-87460571D01*
X108939758Y-87460571D02*
X108892139Y-87412952D01*
X108892139Y-87412952D02*
X108844520Y-87317714D01*
X108844520Y-87317714D02*
X108844520Y-87270095D01*
X108844520Y-87270095D02*
X108892139Y-87174857D01*
X108892139Y-87174857D02*
X108939758Y-87127238D01*
X108939758Y-87127238D02*
X109034996Y-87079619D01*
X109034996Y-87079619D02*
X109225472Y-87079619D01*
X109225472Y-87079619D02*
X109320710Y-87127238D01*
X109320710Y-87127238D02*
X109368329Y-87174857D01*
X109368329Y-87174857D02*
X109415948Y-87270095D01*
X109415948Y-87270095D02*
X109415948Y-87317714D01*
X109415948Y-87317714D02*
X109368329Y-87412952D01*
X109368329Y-87412952D02*
X109320710Y-87460571D01*
X109320710Y-87460571D02*
X109225472Y-87508190D01*
X109225472Y-87508190D02*
X109034996Y-87508190D01*
X109034996Y-87508190D02*
X108939758Y-87555809D01*
X108939758Y-87555809D02*
X108892139Y-87603428D01*
X108892139Y-87603428D02*
X108844520Y-87698666D01*
X108844520Y-87698666D02*
X108844520Y-87889142D01*
X108844520Y-87889142D02*
X108892139Y-87984380D01*
X108892139Y-87984380D02*
X108939758Y-88032000D01*
X108939758Y-88032000D02*
X109034996Y-88079619D01*
X109034996Y-88079619D02*
X109225472Y-88079619D01*
X109225472Y-88079619D02*
X109320710Y-88032000D01*
X109320710Y-88032000D02*
X109368329Y-87984380D01*
X109368329Y-87984380D02*
X109415948Y-87889142D01*
X109415948Y-87889142D02*
X109415948Y-87698666D01*
X109415948Y-87698666D02*
X109368329Y-87603428D01*
X109368329Y-87603428D02*
X109320710Y-87555809D01*
X109320710Y-87555809D02*
X109225472Y-87508190D01*
X109701663Y-87079619D02*
X110034996Y-88079619D01*
X110034996Y-88079619D02*
X110368329Y-87079619D01*
X107368330Y-89619619D02*
X107987377Y-89619619D01*
X107987377Y-89619619D02*
X107654044Y-90000571D01*
X107654044Y-90000571D02*
X107796901Y-90000571D01*
X107796901Y-90000571D02*
X107892139Y-90048190D01*
X107892139Y-90048190D02*
X107939758Y-90095809D01*
X107939758Y-90095809D02*
X107987377Y-90191047D01*
X107987377Y-90191047D02*
X107987377Y-90429142D01*
X107987377Y-90429142D02*
X107939758Y-90524380D01*
X107939758Y-90524380D02*
X107892139Y-90572000D01*
X107892139Y-90572000D02*
X107796901Y-90619619D01*
X107796901Y-90619619D02*
X107511187Y-90619619D01*
X107511187Y-90619619D02*
X107415949Y-90572000D01*
X107415949Y-90572000D02*
X107368330Y-90524380D01*
X108415949Y-90524380D02*
X108463568Y-90572000D01*
X108463568Y-90572000D02*
X108415949Y-90619619D01*
X108415949Y-90619619D02*
X108368330Y-90572000D01*
X108368330Y-90572000D02*
X108415949Y-90524380D01*
X108415949Y-90524380D02*
X108415949Y-90619619D01*
X108796901Y-89619619D02*
X109415948Y-89619619D01*
X109415948Y-89619619D02*
X109082615Y-90000571D01*
X109082615Y-90000571D02*
X109225472Y-90000571D01*
X109225472Y-90000571D02*
X109320710Y-90048190D01*
X109320710Y-90048190D02*
X109368329Y-90095809D01*
X109368329Y-90095809D02*
X109415948Y-90191047D01*
X109415948Y-90191047D02*
X109415948Y-90429142D01*
X109415948Y-90429142D02*
X109368329Y-90524380D01*
X109368329Y-90524380D02*
X109320710Y-90572000D01*
X109320710Y-90572000D02*
X109225472Y-90619619D01*
X109225472Y-90619619D02*
X108939758Y-90619619D01*
X108939758Y-90619619D02*
X108844520Y-90572000D01*
X108844520Y-90572000D02*
X108796901Y-90524380D01*
X109701663Y-89619619D02*
X110034996Y-90619619D01*
X110034996Y-90619619D02*
X110368329Y-89619619D01*
X148463048Y-100779666D02*
X149224953Y-100779666D01*
X107939758Y-92159619D02*
X107463568Y-92159619D01*
X107463568Y-92159619D02*
X107415949Y-92635809D01*
X107415949Y-92635809D02*
X107463568Y-92588190D01*
X107463568Y-92588190D02*
X107558806Y-92540571D01*
X107558806Y-92540571D02*
X107796901Y-92540571D01*
X107796901Y-92540571D02*
X107892139Y-92588190D01*
X107892139Y-92588190D02*
X107939758Y-92635809D01*
X107939758Y-92635809D02*
X107987377Y-92731047D01*
X107987377Y-92731047D02*
X107987377Y-92969142D01*
X107987377Y-92969142D02*
X107939758Y-93064380D01*
X107939758Y-93064380D02*
X107892139Y-93112000D01*
X107892139Y-93112000D02*
X107796901Y-93159619D01*
X107796901Y-93159619D02*
X107558806Y-93159619D01*
X107558806Y-93159619D02*
X107463568Y-93112000D01*
X107463568Y-93112000D02*
X107415949Y-93064380D01*
X108273092Y-92159619D02*
X108606425Y-93159619D01*
X108606425Y-93159619D02*
X108939758Y-92159619D01*
X147314526Y-95699619D02*
X146743098Y-95699619D01*
X147028812Y-95699619D02*
X147028812Y-94699619D01*
X147028812Y-94699619D02*
X146933574Y-94842476D01*
X146933574Y-94842476D02*
X146838336Y-94937714D01*
X146838336Y-94937714D02*
X146743098Y-94985333D01*
X147695479Y-94794857D02*
X147743098Y-94747238D01*
X147743098Y-94747238D02*
X147838336Y-94699619D01*
X147838336Y-94699619D02*
X148076431Y-94699619D01*
X148076431Y-94699619D02*
X148171669Y-94747238D01*
X148171669Y-94747238D02*
X148219288Y-94794857D01*
X148219288Y-94794857D02*
X148266907Y-94890095D01*
X148266907Y-94890095D02*
X148266907Y-94985333D01*
X148266907Y-94985333D02*
X148219288Y-95128190D01*
X148219288Y-95128190D02*
X147647860Y-95699619D01*
X147647860Y-95699619D02*
X148266907Y-95699619D01*
X148552622Y-94699619D02*
X148885955Y-95699619D01*
X148885955Y-95699619D02*
X149219288Y-94699619D01*
X107315048Y-100779666D02*
X108076953Y-100779666D01*
X107696000Y-101160619D02*
X107696000Y-100398714D01*
X107987377Y-95699619D02*
X107415949Y-95699619D01*
X107701663Y-95699619D02*
X107701663Y-94699619D01*
X107701663Y-94699619D02*
X107606425Y-94842476D01*
X107606425Y-94842476D02*
X107511187Y-94937714D01*
X107511187Y-94937714D02*
X107415949Y-94985333D01*
X108368330Y-94794857D02*
X108415949Y-94747238D01*
X108415949Y-94747238D02*
X108511187Y-94699619D01*
X108511187Y-94699619D02*
X108749282Y-94699619D01*
X108749282Y-94699619D02*
X108844520Y-94747238D01*
X108844520Y-94747238D02*
X108892139Y-94794857D01*
X108892139Y-94794857D02*
X108939758Y-94890095D01*
X108939758Y-94890095D02*
X108939758Y-94985333D01*
X108939758Y-94985333D02*
X108892139Y-95128190D01*
X108892139Y-95128190D02*
X108320711Y-95699619D01*
X108320711Y-95699619D02*
X108939758Y-95699619D01*
X109225473Y-94699619D02*
X109558806Y-95699619D01*
X109558806Y-95699619D02*
X109892139Y-94699619D01*
X148219288Y-92159619D02*
X147743098Y-92159619D01*
X147743098Y-92159619D02*
X147695479Y-92635809D01*
X147695479Y-92635809D02*
X147743098Y-92588190D01*
X147743098Y-92588190D02*
X147838336Y-92540571D01*
X147838336Y-92540571D02*
X148076431Y-92540571D01*
X148076431Y-92540571D02*
X148171669Y-92588190D01*
X148171669Y-92588190D02*
X148219288Y-92635809D01*
X148219288Y-92635809D02*
X148266907Y-92731047D01*
X148266907Y-92731047D02*
X148266907Y-92969142D01*
X148266907Y-92969142D02*
X148219288Y-93064380D01*
X148219288Y-93064380D02*
X148171669Y-93112000D01*
X148171669Y-93112000D02*
X148076431Y-93159619D01*
X148076431Y-93159619D02*
X147838336Y-93159619D01*
X147838336Y-93159619D02*
X147743098Y-93112000D01*
X147743098Y-93112000D02*
X147695479Y-93064380D01*
X148552622Y-92159619D02*
X148885955Y-93159619D01*
X148885955Y-93159619D02*
X149219288Y-92159619D01*
X104775048Y-100779666D02*
X105536953Y-100779666D01*
D11*
X112024333Y-79693633D02*
X111791000Y-79360300D01*
X111624333Y-79693633D02*
X111624333Y-78993633D01*
X111624333Y-78993633D02*
X111891000Y-78993633D01*
X111891000Y-78993633D02*
X111957667Y-79026966D01*
X111957667Y-79026966D02*
X111991000Y-79060300D01*
X111991000Y-79060300D02*
X112024333Y-79126966D01*
X112024333Y-79126966D02*
X112024333Y-79226966D01*
X112024333Y-79226966D02*
X111991000Y-79293633D01*
X111991000Y-79293633D02*
X111957667Y-79326966D01*
X111957667Y-79326966D02*
X111891000Y-79360300D01*
X111891000Y-79360300D02*
X111624333Y-79360300D01*
X112624333Y-79226966D02*
X112624333Y-79693633D01*
X112457667Y-78960300D02*
X112291000Y-79460300D01*
X112291000Y-79460300D02*
X112724333Y-79460300D01*
X137786333Y-76149633D02*
X137786333Y-75449633D01*
X137786333Y-75449633D02*
X137953000Y-75449633D01*
X137953000Y-75449633D02*
X138053000Y-75482966D01*
X138053000Y-75482966D02*
X138119667Y-75549633D01*
X138119667Y-75549633D02*
X138153000Y-75616300D01*
X138153000Y-75616300D02*
X138186333Y-75749633D01*
X138186333Y-75749633D02*
X138186333Y-75849633D01*
X138186333Y-75849633D02*
X138153000Y-75982966D01*
X138153000Y-75982966D02*
X138119667Y-76049633D01*
X138119667Y-76049633D02*
X138053000Y-76116300D01*
X138053000Y-76116300D02*
X137953000Y-76149633D01*
X137953000Y-76149633D02*
X137786333Y-76149633D01*
X138419667Y-75449633D02*
X138853000Y-75449633D01*
X138853000Y-75449633D02*
X138619667Y-75716300D01*
X138619667Y-75716300D02*
X138719667Y-75716300D01*
X138719667Y-75716300D02*
X138786333Y-75749633D01*
X138786333Y-75749633D02*
X138819667Y-75782966D01*
X138819667Y-75782966D02*
X138853000Y-75849633D01*
X138853000Y-75849633D02*
X138853000Y-76016300D01*
X138853000Y-76016300D02*
X138819667Y-76082966D01*
X138819667Y-76082966D02*
X138786333Y-76116300D01*
X138786333Y-76116300D02*
X138719667Y-76149633D01*
X138719667Y-76149633D02*
X138519667Y-76149633D01*
X138519667Y-76149633D02*
X138453000Y-76116300D01*
X138453000Y-76116300D02*
X138419667Y-76082966D01*
X136408333Y-78931633D02*
X136175000Y-78598300D01*
X136008333Y-78931633D02*
X136008333Y-78231633D01*
X136008333Y-78231633D02*
X136275000Y-78231633D01*
X136275000Y-78231633D02*
X136341667Y-78264966D01*
X136341667Y-78264966D02*
X136375000Y-78298300D01*
X136375000Y-78298300D02*
X136408333Y-78364966D01*
X136408333Y-78364966D02*
X136408333Y-78464966D01*
X136408333Y-78464966D02*
X136375000Y-78531633D01*
X136375000Y-78531633D02*
X136341667Y-78564966D01*
X136341667Y-78564966D02*
X136275000Y-78598300D01*
X136275000Y-78598300D02*
X136008333Y-78598300D01*
X136641667Y-78231633D02*
X137075000Y-78231633D01*
X137075000Y-78231633D02*
X136841667Y-78498300D01*
X136841667Y-78498300D02*
X136941667Y-78498300D01*
X136941667Y-78498300D02*
X137008333Y-78531633D01*
X137008333Y-78531633D02*
X137041667Y-78564966D01*
X137041667Y-78564966D02*
X137075000Y-78631633D01*
X137075000Y-78631633D02*
X137075000Y-78798300D01*
X137075000Y-78798300D02*
X137041667Y-78864966D01*
X137041667Y-78864966D02*
X137008333Y-78898300D01*
X137008333Y-78898300D02*
X136941667Y-78931633D01*
X136941667Y-78931633D02*
X136741667Y-78931633D01*
X136741667Y-78931633D02*
X136675000Y-78898300D01*
X136675000Y-78898300D02*
X136641667Y-78864966D01*
X145044333Y-84100466D02*
X145011000Y-84133800D01*
X145011000Y-84133800D02*
X144911000Y-84167133D01*
X144911000Y-84167133D02*
X144844333Y-84167133D01*
X144844333Y-84167133D02*
X144744333Y-84133800D01*
X144744333Y-84133800D02*
X144677667Y-84067133D01*
X144677667Y-84067133D02*
X144644333Y-84000466D01*
X144644333Y-84000466D02*
X144611000Y-83867133D01*
X144611000Y-83867133D02*
X144611000Y-83767133D01*
X144611000Y-83767133D02*
X144644333Y-83633800D01*
X144644333Y-83633800D02*
X144677667Y-83567133D01*
X144677667Y-83567133D02*
X144744333Y-83500466D01*
X144744333Y-83500466D02*
X144844333Y-83467133D01*
X144844333Y-83467133D02*
X144911000Y-83467133D01*
X144911000Y-83467133D02*
X145011000Y-83500466D01*
X145011000Y-83500466D02*
X145044333Y-83533800D01*
X145277667Y-83467133D02*
X145744333Y-83467133D01*
X145744333Y-83467133D02*
X145444333Y-84167133D01*
X136408333Y-83249633D02*
X136175000Y-82916300D01*
X136008333Y-83249633D02*
X136008333Y-82549633D01*
X136008333Y-82549633D02*
X136275000Y-82549633D01*
X136275000Y-82549633D02*
X136341667Y-82582966D01*
X136341667Y-82582966D02*
X136375000Y-82616300D01*
X136375000Y-82616300D02*
X136408333Y-82682966D01*
X136408333Y-82682966D02*
X136408333Y-82782966D01*
X136408333Y-82782966D02*
X136375000Y-82849633D01*
X136375000Y-82849633D02*
X136341667Y-82882966D01*
X136341667Y-82882966D02*
X136275000Y-82916300D01*
X136275000Y-82916300D02*
X136008333Y-82916300D01*
X136675000Y-82616300D02*
X136708333Y-82582966D01*
X136708333Y-82582966D02*
X136775000Y-82549633D01*
X136775000Y-82549633D02*
X136941667Y-82549633D01*
X136941667Y-82549633D02*
X137008333Y-82582966D01*
X137008333Y-82582966D02*
X137041667Y-82616300D01*
X137041667Y-82616300D02*
X137075000Y-82682966D01*
X137075000Y-82682966D02*
X137075000Y-82749633D01*
X137075000Y-82749633D02*
X137041667Y-82849633D01*
X137041667Y-82849633D02*
X136641667Y-83249633D01*
X136641667Y-83249633D02*
X137075000Y-83249633D01*
D12*
X118768905Y-77541219D02*
X118768905Y-76541219D01*
X118768905Y-76541219D02*
X119007000Y-76541219D01*
X119007000Y-76541219D02*
X119149857Y-76588838D01*
X119149857Y-76588838D02*
X119245095Y-76684076D01*
X119245095Y-76684076D02*
X119292714Y-76779314D01*
X119292714Y-76779314D02*
X119340333Y-76969790D01*
X119340333Y-76969790D02*
X119340333Y-77112647D01*
X119340333Y-77112647D02*
X119292714Y-77303123D01*
X119292714Y-77303123D02*
X119245095Y-77398361D01*
X119245095Y-77398361D02*
X119149857Y-77493600D01*
X119149857Y-77493600D02*
X119007000Y-77541219D01*
X119007000Y-77541219D02*
X118768905Y-77541219D01*
X120292714Y-77541219D02*
X119721286Y-77541219D01*
X120007000Y-77541219D02*
X120007000Y-76541219D01*
X120007000Y-76541219D02*
X119911762Y-76684076D01*
X119911762Y-76684076D02*
X119816524Y-76779314D01*
X119816524Y-76779314D02*
X119721286Y-76826933D01*
D11*
X139202333Y-79185633D02*
X138969000Y-78852300D01*
X138802333Y-79185633D02*
X138802333Y-78485633D01*
X138802333Y-78485633D02*
X139069000Y-78485633D01*
X139069000Y-78485633D02*
X139135667Y-78518966D01*
X139135667Y-78518966D02*
X139169000Y-78552300D01*
X139169000Y-78552300D02*
X139202333Y-78618966D01*
X139202333Y-78618966D02*
X139202333Y-78718966D01*
X139202333Y-78718966D02*
X139169000Y-78785633D01*
X139169000Y-78785633D02*
X139135667Y-78818966D01*
X139135667Y-78818966D02*
X139069000Y-78852300D01*
X139069000Y-78852300D02*
X138802333Y-78852300D01*
X139602333Y-78785633D02*
X139535667Y-78752300D01*
X139535667Y-78752300D02*
X139502333Y-78718966D01*
X139502333Y-78718966D02*
X139469000Y-78652300D01*
X139469000Y-78652300D02*
X139469000Y-78618966D01*
X139469000Y-78618966D02*
X139502333Y-78552300D01*
X139502333Y-78552300D02*
X139535667Y-78518966D01*
X139535667Y-78518966D02*
X139602333Y-78485633D01*
X139602333Y-78485633D02*
X139735667Y-78485633D01*
X139735667Y-78485633D02*
X139802333Y-78518966D01*
X139802333Y-78518966D02*
X139835667Y-78552300D01*
X139835667Y-78552300D02*
X139869000Y-78618966D01*
X139869000Y-78618966D02*
X139869000Y-78652300D01*
X139869000Y-78652300D02*
X139835667Y-78718966D01*
X139835667Y-78718966D02*
X139802333Y-78752300D01*
X139802333Y-78752300D02*
X139735667Y-78785633D01*
X139735667Y-78785633D02*
X139602333Y-78785633D01*
X139602333Y-78785633D02*
X139535667Y-78818966D01*
X139535667Y-78818966D02*
X139502333Y-78852300D01*
X139502333Y-78852300D02*
X139469000Y-78918966D01*
X139469000Y-78918966D02*
X139469000Y-79052300D01*
X139469000Y-79052300D02*
X139502333Y-79118966D01*
X139502333Y-79118966D02*
X139535667Y-79152300D01*
X139535667Y-79152300D02*
X139602333Y-79185633D01*
X139602333Y-79185633D02*
X139735667Y-79185633D01*
X139735667Y-79185633D02*
X139802333Y-79152300D01*
X139802333Y-79152300D02*
X139835667Y-79118966D01*
X139835667Y-79118966D02*
X139869000Y-79052300D01*
X139869000Y-79052300D02*
X139869000Y-78918966D01*
X139869000Y-78918966D02*
X139835667Y-78852300D01*
X139835667Y-78852300D02*
X139802333Y-78818966D01*
X139802333Y-78818966D02*
X139735667Y-78785633D01*
X139202333Y-81471633D02*
X138969000Y-81138300D01*
X138802333Y-81471633D02*
X138802333Y-80771633D01*
X138802333Y-80771633D02*
X139069000Y-80771633D01*
X139069000Y-80771633D02*
X139135667Y-80804966D01*
X139135667Y-80804966D02*
X139169000Y-80838300D01*
X139169000Y-80838300D02*
X139202333Y-80904966D01*
X139202333Y-80904966D02*
X139202333Y-81004966D01*
X139202333Y-81004966D02*
X139169000Y-81071633D01*
X139169000Y-81071633D02*
X139135667Y-81104966D01*
X139135667Y-81104966D02*
X139069000Y-81138300D01*
X139069000Y-81138300D02*
X138802333Y-81138300D01*
X139435667Y-80771633D02*
X139902333Y-80771633D01*
X139902333Y-80771633D02*
X139602333Y-81471633D01*
X150886333Y-83817966D02*
X150853000Y-83851300D01*
X150853000Y-83851300D02*
X150753000Y-83884633D01*
X150753000Y-83884633D02*
X150686333Y-83884633D01*
X150686333Y-83884633D02*
X150586333Y-83851300D01*
X150586333Y-83851300D02*
X150519667Y-83784633D01*
X150519667Y-83784633D02*
X150486333Y-83717966D01*
X150486333Y-83717966D02*
X150453000Y-83584633D01*
X150453000Y-83584633D02*
X150453000Y-83484633D01*
X150453000Y-83484633D02*
X150486333Y-83351300D01*
X150486333Y-83351300D02*
X150519667Y-83284633D01*
X150519667Y-83284633D02*
X150586333Y-83217966D01*
X150586333Y-83217966D02*
X150686333Y-83184633D01*
X150686333Y-83184633D02*
X150753000Y-83184633D01*
X150753000Y-83184633D02*
X150853000Y-83217966D01*
X150853000Y-83217966D02*
X150886333Y-83251300D01*
X151119667Y-83184633D02*
X151553000Y-83184633D01*
X151553000Y-83184633D02*
X151319667Y-83451300D01*
X151319667Y-83451300D02*
X151419667Y-83451300D01*
X151419667Y-83451300D02*
X151486333Y-83484633D01*
X151486333Y-83484633D02*
X151519667Y-83517966D01*
X151519667Y-83517966D02*
X151553000Y-83584633D01*
X151553000Y-83584633D02*
X151553000Y-83751300D01*
X151553000Y-83751300D02*
X151519667Y-83817966D01*
X151519667Y-83817966D02*
X151486333Y-83851300D01*
X151486333Y-83851300D02*
X151419667Y-83884633D01*
X151419667Y-83884633D02*
X151219667Y-83884633D01*
X151219667Y-83884633D02*
X151153000Y-83851300D01*
X151153000Y-83851300D02*
X151119667Y-83817966D01*
X128163666Y-82959133D02*
X128163666Y-83459133D01*
X128163666Y-83459133D02*
X128130333Y-83559133D01*
X128130333Y-83559133D02*
X128063666Y-83625800D01*
X128063666Y-83625800D02*
X127963666Y-83659133D01*
X127963666Y-83659133D02*
X127897000Y-83659133D01*
X128863666Y-83659133D02*
X128463666Y-83659133D01*
X128663666Y-83659133D02*
X128663666Y-82959133D01*
X128663666Y-82959133D02*
X128596999Y-83059133D01*
X128596999Y-83059133D02*
X128530333Y-83125800D01*
X128530333Y-83125800D02*
X128463666Y-83159133D01*
X136408333Y-80809992D02*
X136175000Y-80476659D01*
X136008333Y-80809992D02*
X136008333Y-80109992D01*
X136008333Y-80109992D02*
X136275000Y-80109992D01*
X136275000Y-80109992D02*
X136341667Y-80143325D01*
X136341667Y-80143325D02*
X136375000Y-80176659D01*
X136375000Y-80176659D02*
X136408333Y-80243325D01*
X136408333Y-80243325D02*
X136408333Y-80343325D01*
X136408333Y-80343325D02*
X136375000Y-80409992D01*
X136375000Y-80409992D02*
X136341667Y-80443325D01*
X136341667Y-80443325D02*
X136275000Y-80476659D01*
X136275000Y-80476659D02*
X136008333Y-80476659D01*
X137075000Y-80809992D02*
X136675000Y-80809992D01*
X136875000Y-80809992D02*
X136875000Y-80109992D01*
X136875000Y-80109992D02*
X136808333Y-80209992D01*
X136808333Y-80209992D02*
X136741667Y-80276659D01*
X136741667Y-80276659D02*
X136675000Y-80309992D01*
X116262999Y-82576466D02*
X116229666Y-82609800D01*
X116229666Y-82609800D02*
X116129666Y-82643133D01*
X116129666Y-82643133D02*
X116062999Y-82643133D01*
X116062999Y-82643133D02*
X115962999Y-82609800D01*
X115962999Y-82609800D02*
X115896333Y-82543133D01*
X115896333Y-82543133D02*
X115862999Y-82476466D01*
X115862999Y-82476466D02*
X115829666Y-82343133D01*
X115829666Y-82343133D02*
X115829666Y-82243133D01*
X115829666Y-82243133D02*
X115862999Y-82109800D01*
X115862999Y-82109800D02*
X115896333Y-82043133D01*
X115896333Y-82043133D02*
X115962999Y-81976466D01*
X115962999Y-81976466D02*
X116062999Y-81943133D01*
X116062999Y-81943133D02*
X116129666Y-81943133D01*
X116129666Y-81943133D02*
X116229666Y-81976466D01*
X116229666Y-81976466D02*
X116262999Y-82009800D01*
X116929666Y-82643133D02*
X116529666Y-82643133D01*
X116729666Y-82643133D02*
X116729666Y-81943133D01*
X116729666Y-81943133D02*
X116662999Y-82043133D01*
X116662999Y-82043133D02*
X116596333Y-82109800D01*
X116596333Y-82109800D02*
X116529666Y-82143133D01*
X117596333Y-82643133D02*
X117196333Y-82643133D01*
X117396333Y-82643133D02*
X117396333Y-81943133D01*
X117396333Y-81943133D02*
X117329666Y-82043133D01*
X117329666Y-82043133D02*
X117263000Y-82109800D01*
X117263000Y-82109800D02*
X117196333Y-82143133D01*
X115580333Y-76423466D02*
X115547000Y-76456800D01*
X115547000Y-76456800D02*
X115447000Y-76490133D01*
X115447000Y-76490133D02*
X115380333Y-76490133D01*
X115380333Y-76490133D02*
X115280333Y-76456800D01*
X115280333Y-76456800D02*
X115213667Y-76390133D01*
X115213667Y-76390133D02*
X115180333Y-76323466D01*
X115180333Y-76323466D02*
X115147000Y-76190133D01*
X115147000Y-76190133D02*
X115147000Y-76090133D01*
X115147000Y-76090133D02*
X115180333Y-75956800D01*
X115180333Y-75956800D02*
X115213667Y-75890133D01*
X115213667Y-75890133D02*
X115280333Y-75823466D01*
X115280333Y-75823466D02*
X115380333Y-75790133D01*
X115380333Y-75790133D02*
X115447000Y-75790133D01*
X115447000Y-75790133D02*
X115547000Y-75823466D01*
X115547000Y-75823466D02*
X115580333Y-75856800D01*
X116247000Y-76490133D02*
X115847000Y-76490133D01*
X116047000Y-76490133D02*
X116047000Y-75790133D01*
X116047000Y-75790133D02*
X115980333Y-75890133D01*
X115980333Y-75890133D02*
X115913667Y-75956800D01*
X115913667Y-75956800D02*
X115847000Y-75990133D01*
X112024333Y-81471633D02*
X111791000Y-81138300D01*
X111624333Y-81471633D02*
X111624333Y-80771633D01*
X111624333Y-80771633D02*
X111891000Y-80771633D01*
X111891000Y-80771633D02*
X111957667Y-80804966D01*
X111957667Y-80804966D02*
X111991000Y-80838300D01*
X111991000Y-80838300D02*
X112024333Y-80904966D01*
X112024333Y-80904966D02*
X112024333Y-81004966D01*
X112024333Y-81004966D02*
X111991000Y-81071633D01*
X111991000Y-81071633D02*
X111957667Y-81104966D01*
X111957667Y-81104966D02*
X111891000Y-81138300D01*
X111891000Y-81138300D02*
X111624333Y-81138300D01*
X112624333Y-80771633D02*
X112491000Y-80771633D01*
X112491000Y-80771633D02*
X112424333Y-80804966D01*
X112424333Y-80804966D02*
X112391000Y-80838300D01*
X112391000Y-80838300D02*
X112324333Y-80938300D01*
X112324333Y-80938300D02*
X112291000Y-81071633D01*
X112291000Y-81071633D02*
X112291000Y-81338300D01*
X112291000Y-81338300D02*
X112324333Y-81404966D01*
X112324333Y-81404966D02*
X112357667Y-81438300D01*
X112357667Y-81438300D02*
X112424333Y-81471633D01*
X112424333Y-81471633D02*
X112557667Y-81471633D01*
X112557667Y-81471633D02*
X112624333Y-81438300D01*
X112624333Y-81438300D02*
X112657667Y-81404966D01*
X112657667Y-81404966D02*
X112691000Y-81338300D01*
X112691000Y-81338300D02*
X112691000Y-81171633D01*
X112691000Y-81171633D02*
X112657667Y-81104966D01*
X112657667Y-81104966D02*
X112624333Y-81071633D01*
X112624333Y-81071633D02*
X112557667Y-81038300D01*
X112557667Y-81038300D02*
X112424333Y-81038300D01*
X112424333Y-81038300D02*
X112357667Y-81071633D01*
X112357667Y-81071633D02*
X112324333Y-81104966D01*
X112324333Y-81104966D02*
X112291000Y-81171633D01*
X143774333Y-76645633D02*
X143541000Y-76312300D01*
X143374333Y-76645633D02*
X143374333Y-75945633D01*
X143374333Y-75945633D02*
X143641000Y-75945633D01*
X143641000Y-75945633D02*
X143707667Y-75978966D01*
X143707667Y-75978966D02*
X143741000Y-76012300D01*
X143741000Y-76012300D02*
X143774333Y-76078966D01*
X143774333Y-76078966D02*
X143774333Y-76178966D01*
X143774333Y-76178966D02*
X143741000Y-76245633D01*
X143741000Y-76245633D02*
X143707667Y-76278966D01*
X143707667Y-76278966D02*
X143641000Y-76312300D01*
X143641000Y-76312300D02*
X143374333Y-76312300D01*
X144407667Y-75945633D02*
X144074333Y-75945633D01*
X144074333Y-75945633D02*
X144041000Y-76278966D01*
X144041000Y-76278966D02*
X144074333Y-76245633D01*
X144074333Y-76245633D02*
X144141000Y-76212300D01*
X144141000Y-76212300D02*
X144307667Y-76212300D01*
X144307667Y-76212300D02*
X144374333Y-76245633D01*
X144374333Y-76245633D02*
X144407667Y-76278966D01*
X144407667Y-76278966D02*
X144441000Y-76345633D01*
X144441000Y-76345633D02*
X144441000Y-76512300D01*
X144441000Y-76512300D02*
X144407667Y-76578966D01*
X144407667Y-76578966D02*
X144374333Y-76612300D01*
X144374333Y-76612300D02*
X144307667Y-76645633D01*
X144307667Y-76645633D02*
X144141000Y-76645633D01*
X144141000Y-76645633D02*
X144074333Y-76612300D01*
X144074333Y-76612300D02*
X144041000Y-76578966D01*
X153140455Y-75818633D02*
X153140455Y-76385300D01*
X153140455Y-76385300D02*
X153173789Y-76451966D01*
X153173789Y-76451966D02*
X153207122Y-76485300D01*
X153207122Y-76485300D02*
X153273789Y-76518633D01*
X153273789Y-76518633D02*
X153407122Y-76518633D01*
X153407122Y-76518633D02*
X153473789Y-76485300D01*
X153473789Y-76485300D02*
X153507122Y-76451966D01*
X153507122Y-76451966D02*
X153540455Y-76385300D01*
X153540455Y-76385300D02*
X153540455Y-75818633D01*
X153840455Y-75885300D02*
X153873788Y-75851966D01*
X153873788Y-75851966D02*
X153940455Y-75818633D01*
X153940455Y-75818633D02*
X154107122Y-75818633D01*
X154107122Y-75818633D02*
X154173788Y-75851966D01*
X154173788Y-75851966D02*
X154207122Y-75885300D01*
X154207122Y-75885300D02*
X154240455Y-75951966D01*
X154240455Y-75951966D02*
X154240455Y-76018633D01*
X154240455Y-76018633D02*
X154207122Y-76118633D01*
X154207122Y-76118633D02*
X153807122Y-76518633D01*
X153807122Y-76518633D02*
X154240455Y-76518633D01*
X122425455Y-83436966D02*
X122392122Y-83470300D01*
X122392122Y-83470300D02*
X122292122Y-83503633D01*
X122292122Y-83503633D02*
X122225455Y-83503633D01*
X122225455Y-83503633D02*
X122125455Y-83470300D01*
X122125455Y-83470300D02*
X122058789Y-83403633D01*
X122058789Y-83403633D02*
X122025455Y-83336966D01*
X122025455Y-83336966D02*
X121992122Y-83203633D01*
X121992122Y-83203633D02*
X121992122Y-83103633D01*
X121992122Y-83103633D02*
X122025455Y-82970300D01*
X122025455Y-82970300D02*
X122058789Y-82903633D01*
X122058789Y-82903633D02*
X122125455Y-82836966D01*
X122125455Y-82836966D02*
X122225455Y-82803633D01*
X122225455Y-82803633D02*
X122292122Y-82803633D01*
X122292122Y-82803633D02*
X122392122Y-82836966D01*
X122392122Y-82836966D02*
X122425455Y-82870300D01*
X123092122Y-83503633D02*
X122692122Y-83503633D01*
X122892122Y-83503633D02*
X122892122Y-82803633D01*
X122892122Y-82803633D02*
X122825455Y-82903633D01*
X122825455Y-82903633D02*
X122758789Y-82970300D01*
X122758789Y-82970300D02*
X122692122Y-83003633D01*
X123525456Y-82803633D02*
X123592122Y-82803633D01*
X123592122Y-82803633D02*
X123658789Y-82836966D01*
X123658789Y-82836966D02*
X123692122Y-82870300D01*
X123692122Y-82870300D02*
X123725456Y-82936966D01*
X123725456Y-82936966D02*
X123758789Y-83070300D01*
X123758789Y-83070300D02*
X123758789Y-83236966D01*
X123758789Y-83236966D02*
X123725456Y-83370300D01*
X123725456Y-83370300D02*
X123692122Y-83436966D01*
X123692122Y-83436966D02*
X123658789Y-83470300D01*
X123658789Y-83470300D02*
X123592122Y-83503633D01*
X123592122Y-83503633D02*
X123525456Y-83503633D01*
X123525456Y-83503633D02*
X123458789Y-83470300D01*
X123458789Y-83470300D02*
X123425456Y-83436966D01*
X123425456Y-83436966D02*
X123392122Y-83370300D01*
X123392122Y-83370300D02*
X123358789Y-83236966D01*
X123358789Y-83236966D02*
X123358789Y-83070300D01*
X123358789Y-83070300D02*
X123392122Y-82936966D01*
X123392122Y-82936966D02*
X123425456Y-82870300D01*
X123425456Y-82870300D02*
X123458789Y-82836966D01*
X123458789Y-82836966D02*
X123525456Y-82803633D01*
X102332877Y-75818633D02*
X102332877Y-76385300D01*
X102332877Y-76385300D02*
X102366211Y-76451966D01*
X102366211Y-76451966D02*
X102399544Y-76485300D01*
X102399544Y-76485300D02*
X102466211Y-76518633D01*
X102466211Y-76518633D02*
X102599544Y-76518633D01*
X102599544Y-76518633D02*
X102666211Y-76485300D01*
X102666211Y-76485300D02*
X102699544Y-76451966D01*
X102699544Y-76451966D02*
X102732877Y-76385300D01*
X102732877Y-76385300D02*
X102732877Y-75818633D01*
X103432877Y-76518633D02*
X103032877Y-76518633D01*
X103232877Y-76518633D02*
X103232877Y-75818633D01*
X103232877Y-75818633D02*
X103166210Y-75918633D01*
X103166210Y-75918633D02*
X103099544Y-75985300D01*
X103099544Y-75985300D02*
X103032877Y-76018633D01*
D13*
%TO.C,J4*%
X149800000Y-86300000D02*
X151130000Y-86300000D01*
X149800000Y-87630000D02*
X149800000Y-86300000D01*
X149800000Y-88900000D02*
X149800000Y-96580000D01*
X149800000Y-88900000D02*
X152400000Y-88900000D01*
X149800000Y-96580000D02*
X155000000Y-96580000D01*
X152400000Y-86300000D02*
X155000000Y-86300000D01*
X152400000Y-88900000D02*
X152400000Y-86300000D01*
X155000000Y-86300000D02*
X155000000Y-96580000D01*
%TO.C,R4*%
X111124000Y-79094359D02*
X111124000Y-79401641D01*
X110364000Y-79094359D02*
X110364000Y-79401641D01*
%TO.C,D3*%
X139826500Y-77851000D02*
X139826500Y-76381000D01*
X139826500Y-76381000D02*
X136906000Y-76381000D01*
X138303000Y-77851000D02*
X139826500Y-77851000D01*
%TO.C,C5*%
X144426000Y-79824252D02*
X144426000Y-79301748D01*
X145896000Y-79824252D02*
X145896000Y-79301748D01*
D14*
%TO.C,L2*%
X121386600Y-80402131D02*
X121386600Y-79871869D01*
X118135400Y-79871869D02*
X118135400Y-80402131D01*
D13*
%TO.C,R3*%
X134875000Y-78510641D02*
X134875000Y-78203359D01*
X135635000Y-78510641D02*
X135635000Y-78203359D01*
%TO.C,C8*%
X102402000Y-83839164D02*
X102402000Y-84054836D01*
X101682000Y-83839164D02*
X101682000Y-84054836D01*
%TO.C,C7*%
X145521000Y-82315164D02*
X145521000Y-82530836D01*
X144801000Y-82315164D02*
X144801000Y-82530836D01*
%TO.C,R2*%
X134875000Y-83084641D02*
X134875000Y-82777359D01*
X135635000Y-83084641D02*
X135635000Y-82777359D01*
%TO.C,C4*%
X107561748Y-83212000D02*
X108084252Y-83212000D01*
X107561748Y-84682000D02*
X108084252Y-84682000D01*
D12*
%TO.C,D1*%
X117221000Y-76189000D02*
X117221000Y-77989000D01*
X117221000Y-76189000D02*
X119507000Y-76189000D01*
X117221000Y-77989000D02*
X121666000Y-77989000D01*
D13*
%TO.C,R8*%
X140969000Y-78713359D02*
X140969000Y-79020641D01*
X140209000Y-78713359D02*
X140209000Y-79020641D01*
%TO.C,R7*%
X140969000Y-80999359D02*
X140969000Y-81306641D01*
X140209000Y-80999359D02*
X140209000Y-81306641D01*
%TO.C,C3*%
X148201748Y-82831000D02*
X148724252Y-82831000D01*
X148201748Y-84301000D02*
X148724252Y-84301000D01*
D12*
%TO.C,J1*%
X132742000Y-80224000D02*
X132742000Y-79424000D01*
X132742000Y-76424000D02*
X132742000Y-75374000D01*
X132742000Y-75374000D02*
X123802000Y-75374000D01*
X123802000Y-80224000D02*
X123802000Y-79424000D01*
X123802000Y-75374000D02*
X123802000Y-76424000D01*
D13*
%TO.C,J5*%
X101540000Y-86300000D02*
X102870000Y-86300000D01*
X101540000Y-87630000D02*
X101540000Y-86300000D01*
X101540000Y-88900000D02*
X101540000Y-96580000D01*
X101540000Y-88900000D02*
X104140000Y-88900000D01*
X101540000Y-96580000D02*
X106740000Y-96580000D01*
X104140000Y-86300000D02*
X106740000Y-86300000D01*
X104140000Y-88900000D02*
X104140000Y-86300000D01*
X106740000Y-86300000D02*
X106740000Y-96580000D01*
%TO.C,R1*%
X135635000Y-80491359D02*
X135635000Y-80798641D01*
X134875000Y-80491359D02*
X134875000Y-80798641D01*
%TO.C,C11*%
X117448000Y-79875748D02*
X117448000Y-80398252D01*
X115978000Y-79875748D02*
X115978000Y-80398252D01*
%TO.C,C1*%
X115776836Y-77449000D02*
X115561164Y-77449000D01*
X115776836Y-76729000D02*
X115561164Y-76729000D01*
%TO.C,R6*%
X111124000Y-80999359D02*
X111124000Y-81306641D01*
X110364000Y-80999359D02*
X110364000Y-81306641D01*
%TO.C,R5*%
X144781000Y-76480641D02*
X144781000Y-76173359D01*
X145541000Y-76480641D02*
X145541000Y-76173359D01*
%TO.C,U2*%
X146522000Y-75457000D02*
X152532000Y-75457000D01*
X148772000Y-82277000D02*
X152532000Y-82277000D01*
X152532000Y-75457000D02*
X152532000Y-76717000D01*
X152532000Y-82277000D02*
X152532000Y-81017000D01*
D15*
%TO.C,TP1*%
X104999000Y-103148000D02*
X107599000Y-103148000D01*
X107599000Y-102128000D02*
X104999000Y-102128000D01*
%TO.C,TP4*%
X148941000Y-103148000D02*
X151541000Y-103148000D01*
X151541000Y-102128000D02*
X148941000Y-102128000D01*
D13*
%TO.C,C10*%
X120464252Y-83920000D02*
X119941748Y-83920000D01*
X120464252Y-82450000D02*
X119941748Y-82450000D01*
%TO.C,C6*%
X104066748Y-83212000D02*
X104589252Y-83212000D01*
X104066748Y-84682000D02*
X104589252Y-84682000D01*
%TO.C,U1*%
X109891000Y-82277000D02*
X103881000Y-82277000D01*
X107641000Y-75457000D02*
X103881000Y-75457000D01*
X103881000Y-82277000D02*
X103881000Y-81017000D01*
X103881000Y-75457000D02*
X103881000Y-76717000D01*
%TD*%
M02*
